<svg width="80" height="22" viewBox="0 0 80 22" fill="none" xmlns="http://www.w3.org/2000/svg">
<path fill-rule="evenodd" clip-rule="evenodd" d="M23.5312 16.1506V6.25281H24.7969L30.8125 14.2182V6.25281H32.0156V16.1506H30.75L24.7344 8.10668V16.1506H23.5312Z" fill="#B52E31"/>
<path fill-rule="evenodd" clip-rule="evenodd" d="M41.8125 15.7578C40.9923 16.0626 40.1244 16.217 39.25 16.2134C35.6875 16.2134 33.9062 14.4957 33.9062 11.0603C33.9062 7.80816 35.625 6.17948 39.0625 6.17424C39.9945 6.16858 40.9219 6.30634 41.8125 6.58272V7.68248C40.9805 7.35785 40.0955 7.19267 39.2031 7.19544C36.5156 7.19544 35.1719 8.48372 35.1719 11.0289C35.1719 13.7783 36.5 15.1451 39.1406 15.1451C39.614 15.1363 40.0853 15.0784 40.5469 14.9723V11.6573H41.8125V15.7578V15.7578Z" fill="#B52E31"/>
<path fill-rule="evenodd" clip-rule="evenodd" d="M43.8438 12.3329V6.25281H45.1094V12.3329C45.1094 14.2339 46.0469 15.1922 47.9375 15.1922C49.8281 15.1922 50.7656 14.2339 50.7656 12.3329V6.25281H52.0312V12.3329C52.0312 14.9252 50.6719 16.2292 47.9375 16.2292C45.2031 16.2292 43.8438 14.9252 43.8438 12.3329Z" fill="#B52E31"/>
<path fill-rule="evenodd" clip-rule="evenodd" d="M55.5625 6.25281V15.1137H60.7187V16.1506H54.2969V6.25281H55.5625Z" fill="#B52E31"/>
<path fill-rule="evenodd" clip-rule="evenodd" d="M62.5469 16.1506H61.2188L66.1094 4.94885L71 16.1506H69.5937L68.3281 13.0399H65.0781L65.4219 12.003H67.9062L66.0625 7.52542L62.5469 16.1506Z" fill="#B52E31"/>
<path fill-rule="evenodd" clip-rule="evenodd" d="M72.3594 16.1506V6.25281H76.5625C78.4375 6.25281 79.375 7.03835 79.375 8.62514C79.375 9.91342 78.4531 10.8718 76.625 11.4845L80 16.1506H78.3281L75.2031 11.7044V10.8718C77.0781 10.5733 78.0312 9.85058 78.0312 8.68798C78.0312 7.77675 77.5156 7.32114 76.4687 7.32114H73.6562V16.1506H72.3594Z" fill="#B52E31"/>
<path fill-rule="evenodd" clip-rule="evenodd" d="M0 3.61348L10.0781 0L20.4219 3.55064L18.75 16.9519L10.0781 21.7751L1.54687 17.0148L0 3.61348Z" fill="#E23237"/>
<path fill-rule="evenodd" clip-rule="evenodd" d="M20.4219 3.55064L10.0781 0V21.7751L18.75 16.9519L20.4219 3.55064V3.55064Z" fill="#B52E31"/>
<path fill-rule="evenodd" clip-rule="evenodd" d="M10.0937 2.54517L3.8125 16.5906L6.15625 16.5435L7.42187 13.3699H13.0312L14.4062 16.5749L16.6406 16.622L10.0937 2.54517ZM10.1094 7.05416L12.2344 11.516H8.25L10.1094 7.05416V7.05416Z" fill="white"/>
</svg>
