<svg width="66" height="59" viewBox="0 0 66 59" fill="none" xmlns="http://www.w3.org/2000/svg">
<g clip-path="url(#clip0_389_2110)">
<path d="M18.5991 14.1641C18.5821 14.8158 18.6635 15.4665 18.8405 16.0945C19.0355 16.6315 19.2703 17.1534 19.543 17.6563C19.6406 17.805 19.6938 17.9779 19.6966 18.1552C19.6825 18.288 19.6375 18.4159 19.5652 18.5288C19.4928 18.6416 19.3951 18.7365 19.2796 18.8059L17.8966 19.7169C17.7298 19.8357 17.5314 19.9036 17.3259 19.9121C17.0759 19.8951 16.8411 19.7869 16.6674 19.6084C16.3716 19.2944 16.107 18.953 15.8772 18.589C15.6576 18.2202 15.4381 17.8081 15.1967 17.3092C13.4845 19.3048 11.3333 20.3025 8.74308 20.3025C6.8992 20.3025 5.42849 19.782 4.35289 18.7408C3.27729 17.6996 2.72852 16.3114 2.72852 14.5762C2.72852 12.7325 3.38705 11.2358 4.72605 10.1079C6.06506 8.97996 7.84309 8.416 10.104 8.416C10.8827 8.42227 11.6601 8.48024 12.4308 8.58952C13.243 8.69798 14.0772 8.8715 14.9552 9.06672V7.48329C14.9552 5.8348 14.604 4.68519 13.9235 4.01277C13.243 3.34036 12.0357 3.015 10.3455 3.015C9.5467 3.01497 8.75078 3.10964 7.9748 3.29698C7.16787 3.48694 6.37563 3.7334 5.60409 4.03446C5.35447 4.14484 5.09783 4.23903 4.83581 4.31644C4.72219 4.35347 4.60407 4.37535 4.48459 4.38152C4.17728 4.38152 4.02362 4.16461 4.02362 3.7091V2.64625C4.00008 2.38387 4.05342 2.12033 4.17728 1.88708C4.34288 1.68941 4.5535 1.53331 4.79191 1.43157C5.67232 1.00109 6.60053 0.673522 7.55773 0.455487C8.67625 0.171896 9.82737 0.033358 10.9821 0.0433622C13.5942 0.0433622 15.504 0.629013 16.7332 1.80031C17.9625 2.97162 18.5552 4.75026 18.5552 7.13624V14.1641H18.5991ZM9.68698 17.461C10.457 17.4527 11.2206 17.3208 11.9479 17.0706C12.7536 16.7954 13.4725 16.3168 14.0333 15.6824C14.3871 15.2827 14.6425 14.8076 14.7796 14.2942C14.9304 13.6764 15.0041 13.0426 14.9991 12.4071V11.4961C14.3335 11.336 13.6592 11.2129 12.9796 11.1273C12.2952 11.0415 11.6061 10.998 10.9162 10.9972C9.44552 10.9972 8.36992 11.2792 7.64553 11.8648C6.92115 12.4505 6.56994 13.2747 6.56994 14.3593C6.56994 15.3787 6.83335 16.1379 7.38212 16.6585C7.9309 17.1791 8.67723 17.461 9.68698 17.461ZM27.3136 19.8037C27.0181 19.8337 26.7217 19.7566 26.4795 19.5867C26.2497 19.3522 26.0902 19.0594 26.0185 18.7408L20.86 1.97384C20.76 1.69327 20.6937 1.40206 20.6625 1.10621C20.6516 1.03442 20.6576 0.961132 20.6799 0.891978C20.7022 0.822823 20.7403 0.75964 20.7912 0.70728C20.842 0.65492 20.9044 0.614774 20.9734 0.589926C21.0424 0.565079 21.1163 0.556189 21.1893 0.563941H23.3405C23.7576 0.563941 24.0429 0.629013 24.1966 0.780848C24.3502 0.932684 24.5039 1.21466 24.6356 1.62679L28.3234 15.9861L31.7477 1.62679C31.8575 1.19297 31.9892 0.910993 32.1648 0.780848C32.4281 0.621548 32.7346 0.545845 33.0428 0.563941H34.7989C35.216 0.563941 35.5013 0.629013 35.6769 0.780848C35.9065 1.0097 36.0531 1.3071 36.094 1.62679L39.5623 16.1596L43.3598 1.62679C43.4295 1.31201 43.5808 1.02052 43.7988 0.780848C44.0539 0.621113 44.3535 0.54519 44.6549 0.563941H46.6963C46.7708 0.553892 46.8466 0.560995 46.9178 0.584693C46.989 0.608391 47.0537 0.648043 47.1068 0.70055C47.16 0.753056 47.2001 0.816994 47.2241 0.887366C47.2481 0.957738 47.2553 1.03264 47.2451 1.10621C47.2399 1.22287 47.2253 1.33893 47.2012 1.45326C47.1668 1.63827 47.1154 1.81978 47.0475 1.99553L41.7574 18.7625C41.6256 19.1963 41.472 19.4783 41.2964 19.6084C41.0482 19.7654 40.7564 19.8413 40.4622 19.8253H38.5745C38.1574 19.8253 37.872 19.7603 37.6964 19.6084C37.4672 19.3706 37.3211 19.0666 37.2794 18.7408L33.8769 4.75026L30.4965 18.7191C30.4451 19.042 30.3003 19.3434 30.0794 19.5867C29.8204 19.7559 29.5105 19.8324 29.2014 19.8037H27.3136ZM55.5206 20.3893C54.3822 20.3905 53.2476 20.2595 52.1402 19.9989C51.0426 19.7386 50.1865 19.4566 49.6158 19.1312C49.3333 18.9996 49.0965 18.7883 48.9353 18.5239C48.8499 18.3325 48.8051 18.1258 48.8036 17.9166V16.8103C48.8036 16.3548 48.9792 16.1379 49.3085 16.1379C49.4429 16.1383 49.5763 16.1603 49.7036 16.203C49.8353 16.2464 50.0329 16.3331 50.2524 16.4199C51.0277 16.7569 51.8371 17.0114 52.667 17.1791C53.5268 17.3515 54.4018 17.4387 55.2792 17.4394C56.6621 17.4394 57.7377 17.2008 58.484 16.7236C58.8415 16.5103 59.1354 16.2073 59.3359 15.8453C59.5364 15.4834 59.6363 15.0754 59.6254 14.6629C59.6331 14.3837 59.5847 14.1057 59.483 13.8451C59.3813 13.5845 59.2282 13.3464 59.0328 13.1446C58.6377 12.7325 57.8913 12.3637 56.8157 12.0167L53.6328 11.0406C52.0304 10.5417 50.8451 9.80421 50.1207 8.82812C49.4141 7.9279 49.0282 6.82222 49.0231 5.68296C49.0054 4.84312 49.2097 4.01324 49.6158 3.27529C50.0078 2.57749 50.5467 1.97094 51.1963 1.49664C51.8805 0.98497 52.6544 0.602581 53.4792 0.368724C54.3779 0.112865 55.3098 -0.0113712 56.245 -1.93167e-05C56.7366 -0.00355181 57.228 0.025434 57.7157 0.0867437C58.2206 0.151816 58.6816 0.238579 59.1425 0.325342C59.6035 0.412105 59.9986 0.54225 60.3937 0.672394C60.714 0.770296 61.023 0.901158 61.3157 1.06283C61.5741 1.19162 61.7994 1.3771 61.9742 1.6051C62.117 1.81617 62.1863 2.06743 62.1718 2.32089V3.34036C62.1718 3.79587 61.9962 4.03446 61.6669 4.03446C61.3745 4.00164 61.0912 3.91326 60.8327 3.77417C59.5062 3.19477 58.0684 2.90617 56.6182 2.92823C55.367 2.92823 54.3792 3.12345 53.6987 3.53558C53.0182 3.9477 52.667 4.57673 52.667 5.46605C52.6609 5.75409 52.7165 6.04014 52.8299 6.30552C52.9434 6.57089 53.1123 6.80962 53.3255 7.0061C53.7645 7.41822 54.5767 7.83035 55.7401 8.19909L58.8572 9.17518C60.4376 9.67406 61.5791 10.3682 62.2596 11.2575C62.9296 12.1301 63.285 13.199 63.2693 14.2942C63.2806 15.1654 63.0851 16.0272 62.6986 16.8103C62.3091 17.5527 61.7626 18.2037 61.0962 18.7191C60.3715 19.2764 59.5439 19.689 58.6596 19.9338C57.6429 20.2428 56.5843 20.3964 55.5206 20.3893Z" fill="#424B5A"/>
<path fill-rule="evenodd" clip-rule="evenodd" d="M59.6693 30.9311C52.4474 36.202 41.9548 39.0001 32.933 39.0001C20.2892 39.0001 8.89668 34.3799 0.291902 26.7014C-0.388578 26.0941 0.226049 25.2698 1.03824 25.747C10.3454 31.0829 21.8258 34.3149 33.7013 34.3149C42.2599 34.27 50.7257 32.5601 58.6156 29.2826C59.8229 28.7403 60.8546 30.0635 59.6693 30.9311Z" fill="#FF9900"/>
<path fill-rule="evenodd" clip-rule="evenodd" d="M62.6766 27.5473C61.7547 26.376 56.5743 26.9834 54.2255 27.2653C53.5231 27.3521 53.4133 26.7448 54.0499 26.2893C58.1767 23.4261 64.9595 24.2503 65.7498 25.2047C66.54 26.1591 65.5303 32.8832 61.6669 36.0935C61.0742 36.5924 60.5035 36.3321 60.7669 35.6814C61.6449 33.534 63.5986 28.6969 62.6766 27.5473Z" fill="#FF9900"/>
</g>
<path d="M8.8159 54.1C8.3159 54.1 7.91923 54.0133 7.6259 53.84C7.33257 53.66 7.12257 53.3833 6.9959 53.01C6.86923 52.63 6.8059 52.1267 6.8059 51.5C6.8059 50.7067 6.93923 50.0733 7.2059 49.6C7.47257 49.1267 7.98923 48.89 8.7559 48.89C8.9559 48.89 9.16257 48.9 9.3759 48.92C9.58923 48.94 9.87923 48.9833 10.2459 49.05L10.2159 49.66C9.68923 49.6 9.2859 49.57 9.0059 49.57C8.6259 49.57 8.33257 49.63 8.1259 49.75C7.9259 49.8633 7.78257 50.06 7.6959 50.34C7.6159 50.6133 7.5759 51.0067 7.5759 51.52C7.5759 52.0067 7.6159 52.3867 7.6959 52.66C7.7759 52.9267 7.91923 53.1233 8.1259 53.25C8.33923 53.37 8.6459 53.43 9.0459 53.43L10.2259 53.34L10.2559 53.96C9.6159 54.0533 9.1359 54.1 8.8159 54.1ZM13.2328 54.1C12.6994 54.1 12.2761 54.0133 11.9628 53.84C11.6494 53.66 11.4261 53.3833 11.2928 53.01C11.1594 52.6367 11.0928 52.1433 11.0928 51.53C11.0928 50.8967 11.1628 50.39 11.3028 50.01C11.4428 49.6233 11.6694 49.3433 11.9828 49.17C12.2961 48.99 12.7128 48.9 13.2328 48.9C13.7594 48.9 14.1761 48.99 14.4828 49.17C14.7961 49.35 15.0228 49.63 15.1628 50.01C15.3028 50.39 15.3728 50.8967 15.3728 51.53C15.3728 52.1433 15.3061 52.6367 15.1728 53.01C15.0394 53.3833 14.8161 53.66 14.5028 53.84C14.1961 54.0133 13.7728 54.1 13.2328 54.1ZM13.2428 53.45C13.6094 53.45 13.8894 53.39 14.0828 53.27C14.2761 53.1433 14.4094 52.9467 14.4828 52.68C14.5628 52.4067 14.6028 52.0233 14.6028 51.53C14.6028 51.01 14.5628 50.61 14.4828 50.33C14.4028 50.05 14.2661 49.85 14.0728 49.73C13.8794 49.61 13.6028 49.55 13.2428 49.55C12.8828 49.55 12.6028 49.61 12.4028 49.73C12.2094 49.85 12.0694 50.05 11.9828 50.33C11.9028 50.61 11.8628 51.01 11.8628 51.53C11.8628 52.0167 11.8994 52.3967 11.9728 52.67C12.0528 52.9433 12.1894 53.1433 12.3828 53.27C12.5828 53.39 12.8694 53.45 13.2428 53.45ZM16.596 49H17.336V49.35C17.836 49.05 18.336 48.9 18.836 48.9C19.1093 48.9 19.356 48.9433 19.576 49.03C19.796 49.11 19.9693 49.2367 20.096 49.41C20.3426 49.2633 20.6326 49.1433 20.966 49.05C21.2993 48.95 21.6393 48.9 21.986 48.9C22.3926 48.9 22.7093 48.9833 22.936 49.15C23.1626 49.31 23.3226 49.5667 23.416 49.92C23.516 50.2733 23.566 50.7533 23.566 51.36V54H22.816V51.38C22.816 50.9067 22.7893 50.5433 22.736 50.29C22.6826 50.0367 22.5826 49.8533 22.436 49.74C22.296 49.6267 22.086 49.57 21.806 49.57C21.5793 49.57 21.3493 49.6 21.116 49.66C20.8826 49.7133 20.6926 49.7767 20.546 49.85L20.356 49.94C20.4426 50.1533 20.486 50.64 20.486 51.4V54H19.736V51.42C19.736 50.9267 19.7093 50.5533 19.656 50.3C19.6026 50.04 19.506 49.8533 19.366 49.74C19.226 49.6267 19.016 49.57 18.736 49.57C18.516 49.57 18.2926 49.6 18.066 49.66C17.8393 49.7133 17.656 49.7767 17.516 49.85L17.346 49.94V54H16.596V49ZM24.9554 49H25.6954V54H24.9554V49ZM24.9554 47H25.6954V47.87H24.9554V47ZM27.1331 49H27.8731V49.35C28.1731 49.1833 28.4464 49.0667 28.6931 49C28.9464 48.9333 29.2098 48.9 29.4831 48.9C29.9098 48.9 30.2398 48.98 30.4731 49.14C30.7064 49.3 30.8698 49.5567 30.9631 49.91C31.0631 50.2567 31.1131 50.74 31.1131 51.36V54H30.3731V51.38C30.3731 50.9067 30.3431 50.5433 30.2831 50.29C30.2298 50.0367 30.1298 49.8533 29.9831 49.74C29.8364 49.6267 29.6231 49.57 29.3431 49.57C29.1164 49.57 28.8831 49.6 28.6431 49.66C28.4098 49.7133 28.2198 49.7767 28.0731 49.85L27.8831 49.94V54H27.1331V49ZM34.3342 56.35C33.5875 56.35 33.0575 56.2367 32.7442 56.01C32.4375 55.79 32.2842 55.42 32.2842 54.9C32.2842 54.6867 32.3075 54.51 32.3542 54.37C32.4075 54.2367 32.4875 54.1167 32.5942 54.01C32.7008 53.9033 32.8608 53.7667 33.0742 53.6C32.9808 53.54 32.9108 53.45 32.8642 53.33C32.8175 53.21 32.7942 53.0833 32.7942 52.95C32.7942 52.8633 32.8142 52.77 32.8542 52.67C32.8942 52.5633 32.9875 52.38 33.1342 52.12C32.6075 51.8867 32.3442 51.3867 32.3442 50.62C32.3442 50.04 32.5008 49.61 32.8142 49.33C33.1275 49.0433 33.6008 48.9 34.2342 48.9C34.5408 48.9 34.8808 48.9433 35.2542 49.03L36.7342 48.99V49.63L35.7842 49.61C35.8975 49.7233 35.9808 49.8633 36.0342 50.03C36.0875 50.19 36.1142 50.3967 36.1142 50.65C36.1142 51.2433 35.9608 51.6667 35.6542 51.92C35.3475 52.1733 34.8642 52.3 34.2042 52.3C33.9975 52.3 33.8275 52.2867 33.6942 52.26C33.6408 52.3933 33.5975 52.51 33.5642 52.61C33.5308 52.71 33.5142 52.7967 33.5142 52.87C33.5142 53.0433 33.5808 53.1567 33.7142 53.21C33.8542 53.2633 34.0675 53.29 34.3542 53.29H34.7442C35.1842 53.29 35.5375 53.3233 35.8042 53.39C36.0775 53.4567 36.2875 53.5933 36.4342 53.8C36.5808 54 36.6542 54.2933 36.6542 54.68C36.6542 55.26 36.4742 55.6833 36.1142 55.95C35.7542 56.2167 35.1608 56.35 34.3342 56.35ZM34.2342 51.7C34.6408 51.7 34.9308 51.6167 35.1042 51.45C35.2775 51.2833 35.3642 51 35.3642 50.6C35.3642 50.2067 35.2775 49.9267 35.1042 49.76C34.9308 49.5933 34.6442 49.51 34.2442 49.51C33.8308 49.51 33.5342 49.5967 33.3542 49.77C33.1808 49.9367 33.0942 50.2167 33.0942 50.61C33.0942 51.0033 33.1808 51.2833 33.3542 51.45C33.5342 51.6167 33.8275 51.7 34.2342 51.7ZM34.4042 55.72C34.9575 55.72 35.3442 55.6433 35.5642 55.49C35.7842 55.3433 35.8942 55.0867 35.8942 54.72C35.8942 54.5067 35.8575 54.3433 35.7842 54.23C35.7108 54.1233 35.5875 54.05 35.4142 54.01C35.2408 53.97 34.9908 53.95 34.6642 53.95L33.5842 53.9C33.3642 54.06 33.2142 54.2 33.1342 54.32C33.0608 54.44 33.0242 54.6 33.0242 54.8C33.0242 55.1467 33.1242 55.3867 33.3242 55.52C33.5308 55.6533 33.8908 55.72 34.4042 55.72ZM41.4082 54.1C41.0082 54.1 40.5182 54.0533 39.9382 53.96L39.6382 53.91L39.6782 53.26C40.4582 53.3733 41.0315 53.43 41.3982 53.43C41.7982 53.43 42.0948 53.3667 42.2882 53.24C42.4882 53.1067 42.5882 52.8967 42.5882 52.61C42.5882 52.4033 42.5382 52.2467 42.4382 52.14C42.3448 52.0333 42.2215 51.9567 42.0682 51.91C41.9215 51.8633 41.7115 51.82 41.4382 51.78L41.1882 51.74C40.7882 51.6733 40.4748 51.5933 40.2482 51.5C40.0215 51.4067 39.8515 51.2767 39.7382 51.11C39.6248 50.9367 39.5682 50.7 39.5682 50.4C39.5682 49.86 39.7315 49.4767 40.0582 49.25C40.3848 49.0233 40.8482 48.91 41.4482 48.91C41.9215 48.91 42.4048 48.9533 42.8982 49.04L43.1782 49.09L43.1582 49.73C42.4382 49.6233 41.8748 49.57 41.4682 49.57C41.0815 49.57 40.7915 49.63 40.5982 49.75C40.4115 49.87 40.3182 50.0567 40.3182 50.31C40.3182 50.49 40.3648 50.63 40.4582 50.73C40.5515 50.8233 40.6715 50.8933 40.8182 50.94C40.9715 50.98 41.1848 51.0233 41.4582 51.07L41.7082 51.12C42.1215 51.1933 42.4415 51.28 42.6682 51.38C42.8948 51.4733 43.0615 51.61 43.1682 51.79C43.2815 51.97 43.3382 52.22 43.3382 52.54C43.3382 53.08 43.1782 53.4767 42.8582 53.73C42.5448 53.9767 42.0615 54.1 41.4082 54.1ZM46.4066 54.1C45.8733 54.1 45.4499 54.0133 45.1366 53.84C44.8233 53.66 44.5999 53.3833 44.4666 53.01C44.3333 52.6367 44.2666 52.1433 44.2666 51.53C44.2666 50.8967 44.3366 50.39 44.4766 50.01C44.6166 49.6233 44.8433 49.3433 45.1566 49.17C45.4699 48.99 45.8866 48.9 46.4066 48.9C46.9333 48.9 47.3499 48.99 47.6566 49.17C47.9699 49.35 48.1966 49.63 48.3366 50.01C48.4766 50.39 48.5466 50.8967 48.5466 51.53C48.5466 52.1433 48.4799 52.6367 48.3466 53.01C48.2133 53.3833 47.9899 53.66 47.6766 53.84C47.3699 54.0133 46.9466 54.1 46.4066 54.1ZM46.4166 53.45C46.7833 53.45 47.0633 53.39 47.2566 53.27C47.4499 53.1433 47.5833 52.9467 47.6566 52.68C47.7366 52.4067 47.7766 52.0233 47.7766 51.53C47.7766 51.01 47.7366 50.61 47.6566 50.33C47.5766 50.05 47.4399 49.85 47.2466 49.73C47.0533 49.61 46.7766 49.55 46.4166 49.55C46.0566 49.55 45.7766 49.61 45.5766 49.73C45.3833 49.85 45.2433 50.05 45.1566 50.33C45.0766 50.61 45.0366 51.01 45.0366 51.53C45.0366 52.0167 45.0733 52.3967 45.1466 52.67C45.2266 52.9433 45.3633 53.1433 45.5566 53.27C45.7566 53.39 46.0433 53.45 46.4166 53.45ZM51.6898 54.1C51.1565 54.1 50.7331 54.0133 50.4198 53.84C50.1065 53.66 49.8831 53.3833 49.7498 53.01C49.6165 52.6367 49.5498 52.1433 49.5498 51.53C49.5498 50.8967 49.6198 50.39 49.7598 50.01C49.8998 49.6233 50.1265 49.3433 50.4398 49.17C50.7531 48.99 51.1698 48.9 51.6898 48.9C52.2165 48.9 52.6331 48.99 52.9398 49.17C53.2531 49.35 53.4798 49.63 53.6198 50.01C53.7598 50.39 53.8298 50.8967 53.8298 51.53C53.8298 52.1433 53.7631 52.6367 53.6298 53.01C53.4965 53.3833 53.2731 53.66 52.9598 53.84C52.6531 54.0133 52.2298 54.1 51.6898 54.1ZM51.6998 53.45C52.0665 53.45 52.3465 53.39 52.5398 53.27C52.7331 53.1433 52.8665 52.9467 52.9398 52.68C53.0198 52.4067 53.0598 52.0233 53.0598 51.53C53.0598 51.01 53.0198 50.61 52.9398 50.33C52.8598 50.05 52.7231 49.85 52.5298 49.73C52.3365 49.61 52.0598 49.55 51.6998 49.55C51.3398 49.55 51.0598 49.61 50.8598 49.73C50.6665 49.85 50.5265 50.05 50.4398 50.33C50.3598 50.61 50.3198 51.01 50.3198 51.53C50.3198 52.0167 50.3565 52.3967 50.4298 52.67C50.5098 52.9433 50.6465 53.1433 50.8398 53.27C51.0398 53.39 51.3265 53.45 51.6998 53.45ZM55.053 49H55.793V49.35C56.093 49.1833 56.3663 49.0667 56.613 49C56.8663 48.9333 57.1297 48.9 57.403 48.9C57.8297 48.9 58.1597 48.98 58.393 49.14C58.6263 49.3 58.7897 49.5567 58.883 49.91C58.983 50.2567 59.033 50.74 59.033 51.36V54H58.293V51.38C58.293 50.9067 58.263 50.5433 58.203 50.29C58.1497 50.0367 58.0497 49.8533 57.903 49.74C57.7563 49.6267 57.543 49.57 57.263 49.57C57.0363 49.57 56.803 49.6 56.563 49.66C56.3297 49.7133 56.1397 49.7767 55.993 49.85L55.803 49.94V54H55.053V49Z" fill="#424B5A"/>
<defs>
<clipPath id="clip0_389_2110">
<rect width="66" height="39" fill="white"/>
</clipPath>
</defs>
</svg>
