<svg width="483" height="577" viewBox="0 0 483 577" fill="none" xmlns="http://www.w3.org/2000/svg">
<circle cx="234" cy="258" r="176.5" stroke="url(#paint0_linear_565_232)"/>
<g clip-path="url(#clip0_565_232)">
<g filter="url(#filter0_d_565_232)">
<path d="M224.901 422.817L224.853 329.702L223.528 329.397L225.21 328.054C225.414 327.898 225.659 327.802 225.915 327.777C226.172 327.752 226.43 327.8 226.66 327.914L360.863 377.602C361.434 377.843 361.93 378.231 362.3 378.726C362.671 379.221 362.904 379.805 362.975 380.419L362.976 474.262C362.992 474.464 362.955 474.666 362.869 474.849C362.783 475.033 362.651 475.191 362.485 475.308V475.308L360.855 476.643L360.26 475.008L360.363 474.991L226.972 425.651C226.408 425.402 225.919 425.009 225.555 424.512C225.192 424.014 224.966 423.43 224.901 422.817V422.817Z" fill="url(#paint1_linear_565_232)"/>
</g>
<path d="M360.583 380.137L362.443 378.911C362.748 379.343 362.926 379.852 362.958 380.38L362.976 474.262C362.992 474.464 362.956 474.666 362.87 474.85C362.783 475.033 362.651 475.191 362.486 475.308V475.308L360.855 476.643L360.26 475.008L360.363 474.991L353.576 472.501L360.583 380.137Z" fill="url(#paint2_linear_565_232)"/>
<path d="M225.289 427.111L359.491 476.789C360.532 477.174 361.284 476.729 361.283 475.723L361.274 381.839C361.201 381.226 360.967 380.644 360.596 380.149C360.226 379.655 359.731 379.266 359.163 379.023L224.89 329.293C223.848 328.909 223.097 329.354 223.097 330.359L223.106 424.243C223.178 424.873 223.418 425.472 223.803 425.976C224.187 426.481 224.7 426.873 225.289 427.111Z" fill="url(#paint3_linear_565_232)"/>
<path d="M225.289 427.111L359.491 476.789C360.532 477.173 361.284 476.729 361.283 475.723L361.274 381.839C361.201 381.226 360.967 380.644 360.596 380.149C360.226 379.655 359.731 379.266 359.163 379.023L224.89 329.293C223.848 328.909 223.097 329.354 223.097 330.359L223.106 424.243C223.178 424.873 223.418 425.472 223.803 425.976C224.187 426.481 224.7 426.873 225.289 427.111Z" fill="url(#paint4_linear_565_232)"/>
<path d="M225.968 334.275L358.529 383.353L358.493 471.784L226.011 422.735L225.968 334.275Z" fill="#010101"/>
<g filter="url(#filter1_d_565_232)">
<path d="M155.755 483.348L163.026 485.692L223.392 435.814C224.031 435.383 224.761 435.108 225.526 435.01C226.29 434.911 227.067 434.993 227.794 435.248L354.459 482.151C355.458 481.346 360.132 478.067 360.132 478.067L358.764 484.828C358.697 485.179 358.5 485.492 358.213 485.705L294.626 538.234C293.989 538.664 293.26 538.94 292.498 539.038C291.735 539.136 290.96 539.054 290.235 538.799L160.546 490.768C160.053 490.64 159.624 490.336 159.34 489.915L155.755 483.348Z" fill="url(#paint5_linear_565_232)"/>
</g>
<path d="M156.96 484.201L289.806 533.39C290.55 533.651 291.344 533.735 292.127 533.636C292.909 533.536 293.658 533.256 294.312 532.816L359.438 478.978C360.471 478.126 360.162 476.993 358.68 476.45L225.881 427.286C225.138 427.024 224.343 426.94 223.56 427.04C222.778 427.14 222.029 427.42 221.375 427.859L156.249 481.698C155.175 482.557 155.515 483.685 156.96 484.201Z" fill="url(#paint6_linear_565_232)"/>
<path d="M156.765 483.05L289.609 532.228C290.352 532.489 291.147 532.574 291.93 532.474C292.712 532.374 293.46 532.094 294.115 531.654L359.24 477.816C359.463 477.649 359.638 477.426 359.746 477.17C359.861 477.304 359.946 477.462 359.993 477.632C360.041 477.802 360.05 477.981 360.021 478.155C359.992 478.33 359.925 478.496 359.825 478.641C359.725 478.787 359.594 478.909 359.441 478.999L294.316 532.837C293.661 533.277 292.913 533.557 292.13 533.657C291.348 533.757 290.553 533.672 289.809 533.411L156.96 484.202C155.832 483.801 155.395 483.039 155.694 482.3C155.981 482.637 156.35 482.895 156.765 483.05Z" fill="url(#paint7_linear_565_232)"/>
<g opacity="0.11">
<g opacity="0.11">
<path opacity="0.11" d="M226.044 427.184L373.931 481.939C374.758 482.233 375.643 482.329 376.515 482.218C377.386 482.107 378.219 481.792 378.946 481.3L451.525 421.373C452.678 420.415 452.29 419.126 450.678 418.564L302.769 363.802C301.94 363.508 301.053 363.413 300.18 363.524C299.307 363.635 298.472 363.95 297.743 364.443L225.164 424.371C224.044 425.333 224.416 426.593 226.044 427.184Z" fill="url(#paint8_linear_565_232)"/>
<path opacity="0.11" d="M255.224 420.226L362.285 459.86L358.795 462.738L251.734 423.103L255.224 420.226Z" fill="url(#paint9_radial_565_232)"/>
<path opacity="0.11" d="M264.489 412.559L366.253 450.235L362.775 453.121L261.011 415.445L264.489 412.559Z" fill="url(#paint10_radial_565_232)"/>
<path opacity="0.11" d="M373.859 453.051L383.356 456.573L379.877 459.449L370.369 455.928L373.859 453.051Z" fill="url(#paint11_linear_565_232)"/>
<path opacity="0.11" d="M367.468 461.775L374.089 464.229L370.599 467.107L363.979 464.663L367.468 461.775Z" fill="url(#paint12_linear_565_232)"/>
<path opacity="0.11" d="M270.306 407.763L389.171 451.766L385.681 454.644L266.816 410.64L270.306 407.763Z" fill="url(#paint13_radial_565_232)"/>
<path opacity="0.11" d="M276.11 402.958L394.976 446.962L391.498 449.848L272.631 405.834L276.11 402.958Z" fill="url(#paint14_radial_565_232)"/>
<path opacity="0.11" d="M281.927 398.163L400.793 442.166L397.303 445.044L278.437 401.04L281.927 398.163Z" fill="url(#paint15_radial_565_232)"/>
</g>
</g>
<path d="M225.625 443.478L321.514 478.975L325.012 476.085L229.122 440.578L225.625 443.478Z" fill="url(#paint16_linear_565_232)"/>
<path d="M217.027 450.576L306.974 483.875L310.471 480.975L220.534 447.674L217.027 450.576Z" fill="url(#paint17_linear_565_232)"/>
<path d="M211.425 455.198L317.331 494.404L320.829 491.515L214.934 452.307L211.425 455.198Z" fill="url(#paint18_linear_565_232)"/>
<path d="M205.835 459.829L311.729 499.026L315.238 496.135L209.342 456.927L205.835 459.829Z" fill="url(#paint19_linear_565_232)"/>
<path d="M200.233 464.451L306.138 503.657L309.635 500.757L203.74 461.549L200.233 464.451Z" fill="url(#paint20_linear_565_232)"/>
<path d="M327.299 481.126L331.565 482.699L335.074 479.808L330.806 478.225L327.299 481.126Z" fill="url(#paint21_linear_565_232)"/>
<path d="M314.128 486.524L322.978 489.796L326.476 486.906L317.635 483.622L314.128 486.524Z" fill="url(#paint22_linear_565_232)"/>
<g opacity="0.5">
<path opacity="0.5" d="M240.303 358.258L249.065 361.513L249.067 360.084L240.296 356.841L240.303 358.258Z" fill="#252525"/>
<path opacity="0.5" d="M250.478 362.024L255.245 363.798L255.247 362.369L250.471 360.608L250.478 362.024Z" fill="#252525"/>
<path opacity="0.5" d="M262.68 366.548L266.132 367.825L266.136 366.406L262.672 365.121L262.68 366.548Z" fill="#252525"/>
<path opacity="0.5" d="M260.156 365.611L261.333 366.046L261.336 364.628L260.157 364.182L260.156 365.611Z" fill="#252525"/>
<path opacity="0.5" d="M256.67 364.318L258.821 365.118L258.812 363.69L256.673 362.9L256.67 364.318Z" fill="#252525"/>
<path opacity="0.5" d="M248.407 367.762L251.871 369.048L251.862 367.621L248.41 366.344L248.407 367.762Z" fill="#252525"/>
<path opacity="0.5" d="M240.303 364.766L247.071 367.269L247.075 365.85L240.305 363.337L240.303 364.766Z" fill="#252525"/>
<path opacity="0.5" d="M252.95 385.669L259.719 388.183L259.711 386.756L252.943 384.253L252.95 385.669Z" fill="#252525"/>
<path opacity="0.5" d="M249.463 384.376L251.604 385.177L251.606 383.749L249.467 382.958L249.463 384.376Z" fill="#252525"/>
<path opacity="0.5" d="M252.908 379.168L259.677 381.681L259.669 380.254L252.901 377.751L252.908 379.168Z" fill="#252525"/>
<path opacity="0.5" d="M249.421 377.875L251.562 378.676L251.564 377.248L249.415 376.459L249.421 377.875Z" fill="#252525"/>
<path opacity="0.5" d="M253.032 413.74L240.275 409.014L240.273 410.443L253.03 415.169L253.032 413.74Z" fill="#252525"/>
<path opacity="0.5" d="M257.526 415.412L254.369 414.244L254.365 415.663L257.523 416.831L257.526 415.412Z" fill="#252525"/>
<path opacity="0.5" d="M278.159 413.289L265.413 408.561L265.412 409.99L278.166 414.706L278.159 413.289Z" fill="#252525"/>
<path opacity="0.5" d="M282.652 414.95L279.505 413.78L279.503 415.209L282.661 416.377L282.652 414.95Z" fill="#252525"/>
<path opacity="0.5" d="M243.73 407.053L240.276 405.766L240.274 407.195L243.737 408.47L243.73 407.053Z" fill="#252525"/>
<path opacity="0.5" d="M263.572 407.9L260.118 406.613L260.117 408.041L263.569 409.319L263.572 407.9Z" fill="#252525"/>
<path opacity="0.5" d="M251.845 410.058L245.075 407.545L245.072 408.963L251.842 411.477L251.845 410.058Z" fill="#252525"/>
<path opacity="0.5" d="M255.319 411.342L253.18 410.551L253.177 411.97L255.318 412.771L255.319 411.342Z" fill="#252525"/>
<path opacity="0.5" d="M263.492 414.369L256.722 411.856L256.72 413.285L263.488 415.788L263.492 414.369Z" fill="#252525"/>
<path opacity="0.5" d="M266.976 415.651L264.827 414.862L264.834 416.279L266.974 417.08L266.976 415.651Z" fill="#252525"/>
<path opacity="0.5" d="M263.571 411.149L260.118 409.861L260.116 411.29L263.578 412.565L263.571 411.149Z" fill="#252525"/>
<path opacity="0.5" d="M271.687 414.154L264.917 411.64L264.915 413.069L271.683 415.572L271.687 414.154Z" fill="#252525"/>
<path opacity="0.5" d="M275.163 415.448L273.022 414.647L273.02 416.076L275.17 416.865L275.163 415.448Z" fill="#252525"/>
<path opacity="0.5" d="M247.341 405.14L240.277 402.517L240.275 403.946L247.348 406.557L247.341 405.14Z" fill="#252525"/>
<path opacity="0.5" d="M253.792 407.527L248.686 405.631L248.685 407.06L253.801 408.954L253.792 407.527Z" fill="#252525"/>
<path opacity="0.5" d="M258.591 409.305L255.129 408.03L255.136 409.447L258.588 410.724L258.591 409.305Z" fill="#252525"/>
<path opacity="0.5" d="M291.501 418.212L284.428 415.602L284.435 417.019L291.499 419.641L291.501 418.212Z" fill="#252525"/>
<path opacity="0.5" d="M297.954 420.61L292.838 418.715L292.845 420.132L297.951 422.028L297.954 420.61Z" fill="#252525"/>
<path opacity="0.5" d="M302.743 422.39L299.289 421.103L299.287 422.532L302.75 423.807L302.743 422.39Z" fill="#252525"/>
<path opacity="0.5" d="M281.898 376.909L288.972 379.529L288.974 378.1L281.901 375.49L281.898 376.909Z" fill="#252525"/>
<path opacity="0.5" d="M275.447 374.521L280.563 376.415L280.564 374.987L275.448 373.092L275.447 374.521Z" fill="#252525"/>
<path opacity="0.5" d="M270.657 372.74L274.109 374.017L274.113 372.599L270.661 371.322L270.657 372.74Z" fill="#252525"/>
<path opacity="0.5" d="M278.965 372.559L286.029 375.181L286.03 373.753L278.966 371.13L278.965 372.559Z" fill="#252525"/>
<path opacity="0.5" d="M272.513 370.171L277.629 372.066L277.621 370.639L272.515 368.742L272.513 370.171Z" fill="#252525"/>
<path opacity="0.5" d="M267.724 368.391L271.176 369.668L271.18 368.25L267.717 366.974L267.724 368.391Z" fill="#252525"/>
<path opacity="0.5" d="M253.96 382.81L256.349 383.696L256.342 382.279L253.954 381.393L253.96 382.81Z" fill="#252525"/>
<path opacity="0.5" d="M249.467 381.148L252.615 382.318L252.616 380.89L249.459 379.721L249.467 381.148Z" fill="#252525"/>
<path opacity="0.5" d="M247.386 401.904L240.322 399.282L240.319 400.7L247.383 403.322L247.386 401.904Z" fill="#252525"/>
<path opacity="0.5" d="M253.837 404.291L248.721 402.397L248.73 403.824L253.834 405.71L253.837 404.291Z" fill="#252525"/>
<path opacity="0.5" d="M258.637 406.07L255.173 404.784L255.181 406.211L258.633 407.489L258.637 406.07Z" fill="#252525"/>
<path opacity="0.5" d="M242.701 396.92L240.312 396.034L240.319 397.451L242.708 398.337L242.701 396.92Z" fill="#252525"/>
<path opacity="0.5" d="M247.194 398.581L244.047 397.411L244.043 398.83L247.201 399.998L247.194 398.581Z" fill="#252525"/>
<path opacity="0.5" d="M253.623 400.962L248.54 399.073L248.538 400.502L253.62 402.381L253.623 400.962Z" fill="#252525"/>
<path opacity="0.5" d="M255.442 373.595L257.82 374.483L257.824 373.064L255.435 372.178L255.442 373.595Z" fill="#252525"/>
<path opacity="0.5" d="M250.939 371.936L254.097 373.104L254.1 371.685L250.942 370.517L250.939 371.936Z" fill="#252525"/>
<path opacity="0.5" d="M244.52 369.553L249.604 371.443L249.605 370.014L244.524 368.135L244.52 369.553Z" fill="#252525"/>
<path opacity="0.5" d="M259.623 378.167L264.704 380.046L264.708 378.627L259.624 376.738L259.623 378.167Z" fill="#252525"/>
<path opacity="0.5" d="M251.346 375.337L258.204 377.868L258.197 376.451L251.348 373.909L251.346 375.337Z" fill="#252525"/>
<path opacity="0.5" d="M247.86 374.045L250.009 374.834L250.013 373.416L247.862 372.617L247.86 374.045Z" fill="#252525"/>
<path opacity="0.5" d="M244.52 372.802L246.671 373.601L246.662 372.174L244.523 371.384L244.52 372.802Z" fill="#252525"/>
<path opacity="0.5" d="M247.969 390.577L254.739 393.091L254.742 391.672L247.972 389.159L247.969 390.577Z" fill="#252525"/>
<path opacity="0.5" d="M244.484 389.295L246.634 390.084L246.627 388.668L244.486 387.867L244.484 389.295Z" fill="#252525"/>
<path opacity="0.5" d="M249.023 394.229L251.41 395.105L251.413 393.687L249.025 392.801L249.023 394.229Z" fill="#252525"/>
<path opacity="0.5" d="M256.274 390.386L258.663 391.272L258.656 389.855L256.278 388.967L256.274 390.386Z" fill="#252525"/>
<path opacity="0.5" d="M259.681 391.649L265.408 393.768L265.401 392.351L259.673 390.222L259.681 391.649Z" fill="#252525"/>
<path opacity="0.5" d="M266.417 394.147L269.834 395.409L269.825 393.982L266.418 392.719L266.417 394.147Z" fill="#252525"/>
<path opacity="0.5" d="M244.528 392.558L247.686 393.726L247.689 392.307L244.532 391.139L244.528 392.558Z" fill="#252525"/>
<path opacity="0.5" d="M244.811 395.854L247.2 396.74L247.201 395.311L244.813 394.425L244.811 395.854Z" fill="#252525"/>
<path opacity="0.5" d="M240.316 394.182L243.474 395.35L243.467 393.934L240.32 392.763L240.316 394.182Z" fill="#252525"/>
<path opacity="0.5" d="M252.812 389.11L254.951 389.901L254.954 388.483L252.803 387.683L252.812 389.11Z" fill="#252525"/>
<path opacity="0.5" d="M249.461 387.869L251.612 388.668L251.604 387.241L249.465 386.451L249.461 387.869Z" fill="#252525"/>
<path opacity="0.5" d="M261.773 369.453L269.085 372.16L269.086 370.732L261.775 368.024L261.773 369.453Z" fill="#252525"/>
<path opacity="0.5" d="M253.578 366.419L260.436 368.949L260.429 367.532L253.58 364.99L253.578 366.419Z" fill="#252525"/>
<path opacity="0.5" d="M250.102 365.125L252.241 365.916L252.245 364.497L250.094 363.698L250.102 365.125Z" fill="#252525"/>
<path opacity="0.5" d="M246.752 363.884L248.903 364.683L248.894 363.256L246.755 362.465L246.752 363.884Z" fill="#252525"/>
<path opacity="0.5" d="M244.929 363.209L240.3 361.496L240.302 360.067L244.931 361.78L244.929 363.209Z" fill="#252525"/>
</g>
</g>
<circle cx="198" cy="81" r="81" fill="#1C2128"/>
<path d="M203.294 79.7059H215.853C216.844 79.7059 217.647 80.5092 217.647 81.5001V95.8531C217.647 96.844 216.844 97.6472 215.853 97.6472H187.147C186.156 97.6472 185.353 96.844 185.353 95.8531V67.147C185.353 66.1561 186.156 65.3529 187.147 65.3529H201.5C202.491 65.3529 203.294 66.1561 203.294 67.147V79.7059ZM188.941 94.0589H199.706V83.2942H188.941V94.0589ZM188.941 68.9412V79.7059H199.706V68.9412H188.941ZM203.294 94.0589H214.059V83.2942H203.294V94.0589ZM215.853 51H230.206C231.197 51 232 51.8032 232 52.7941V67.1472C232 68.1381 231.197 68.9413 230.206 68.9413H215.853C214.862 68.9413 214.059 68.1381 214.059 67.1472V52.7941C214.059 51.8032 214.862 51 215.853 51ZM217.647 54.5883V65.353H228.412V54.5883H217.647ZM228.412 77.9118C228.412 76.9209 229.215 76.1176 230.206 76.1176C231.197 76.1176 232 76.9209 232 77.9118V104.824C232 108.787 228.787 112 224.823 112H178.176C174.213 112 171 108.787 171 104.824V58.1764C171 54.213 174.213 51 178.176 51H205.088C206.079 51 206.882 51.8032 206.882 52.7941C206.882 53.785 206.079 54.5883 205.088 54.5883H178.176C176.195 54.5883 174.588 56.1948 174.588 58.1766V104.824C174.588 106.805 176.195 108.412 178.176 108.412H224.823C226.805 108.412 228.412 106.805 228.412 104.824V77.9118Z" fill="white"/>
<circle cx="402" cy="207" r="81" fill="#1C2128"/>
<path d="M415.424 198.596L417.389 196.643L412.357 191.611L410.404 193.576C408.759 192.517 406.939 191.76 405.028 191.339V188.58H397.924V191.339C396.014 191.76 394.194 192.517 392.549 193.576L390.596 191.611L385.564 196.643L387.529 198.596C386.47 200.241 385.712 202.061 385.291 203.972H382.533V211.076H385.291C385.712 212.986 386.47 214.806 387.529 216.451L385.564 218.404L390.596 223.425L392.549 221.471C394.194 222.53 396.014 223.288 397.924 223.709V226.467H405.028V223.709C406.939 223.288 408.759 222.53 410.404 221.471L412.357 223.425L417.389 218.404L415.424 216.451C416.483 214.806 417.24 212.986 417.661 211.076H420.42V203.972H417.661C417.24 202.061 416.483 200.241 415.424 198.596ZM401.476 218.179C399.369 218.179 397.309 217.555 395.556 216.384C393.804 215.213 392.438 213.549 391.632 211.601C390.825 209.654 390.614 207.512 391.025 205.445C391.436 203.378 392.451 201.479 393.942 199.989C395.432 198.499 397.33 197.484 399.397 197.073C401.464 196.661 403.607 196.872 405.554 197.679C407.501 198.486 409.165 199.851 410.336 201.604C411.507 203.356 412.132 205.416 412.132 207.524C412.132 210.35 411.009 213.06 409.011 215.058C407.013 217.057 404.302 218.179 401.476 218.179Z" fill="white"/>
<path d="M429.892 184.081C430.002 183.97 430.088 183.839 430.147 183.695C430.206 183.551 430.236 183.396 430.235 183.24C430.234 182.93 430.111 182.632 429.892 182.411L426.589 179.108C426.367 178.888 426.067 178.764 425.754 178.764C425.441 178.764 425.141 178.888 424.919 179.108L423.972 180.032C417.625 174.838 409.677 172 401.476 172C393.275 172 385.327 174.838 378.981 180.032L378.034 179.108C377.923 178.998 377.792 178.912 377.647 178.853C377.503 178.794 377.349 178.764 377.193 178.765C376.882 178.766 376.585 178.889 376.364 179.108L373.061 182.411C372.842 182.632 372.719 182.93 372.717 183.24C372.717 183.396 372.746 183.551 372.805 183.695C372.864 183.839 372.951 183.97 373.061 184.081L374.032 185.052C368.838 191.398 366 199.346 366 207.547C366 215.748 368.838 223.696 374.032 230.043L373.061 230.966C372.951 231.077 372.864 231.208 372.805 231.353C372.746 231.497 372.717 231.651 372.717 231.807C372.719 232.118 372.842 232.415 373.061 232.636L376.364 235.939C376.585 236.158 376.882 236.281 377.193 236.283C377.349 236.283 377.503 236.254 377.647 236.195C377.792 236.136 377.923 236.049 378.034 235.939L379.004 234.968C385.351 240.162 393.299 243 401.5 243C409.701 243 417.649 240.162 423.996 234.968L424.966 235.939C425.077 236.049 425.208 236.136 425.353 236.195C425.497 236.254 425.651 236.283 425.807 236.283C426.118 236.281 426.415 236.158 426.636 235.939L429.892 232.636C430.111 232.415 430.234 232.118 430.235 231.807C430.236 231.651 430.206 231.497 430.147 231.353C430.088 231.208 430.002 231.077 429.892 230.966L428.968 230.019C434.162 223.673 437 215.725 437 207.524C437 199.323 434.162 191.375 428.968 185.028L429.892 184.081ZM434.628 207.524C434.625 215.088 432.034 222.425 427.287 228.314L426.589 227.651C426.367 227.431 426.067 227.307 425.754 227.307C425.441 227.307 425.141 227.431 424.919 227.651L421.604 230.966C421.383 231.188 421.26 231.488 421.26 231.801C421.26 232.114 421.383 232.414 421.604 232.636L422.303 233.334C416.411 238.078 409.075 240.664 401.512 240.664C393.948 240.664 386.612 238.078 380.721 233.334L381.42 232.636C381.64 232.414 381.764 232.114 381.764 231.801C381.764 231.488 381.64 231.188 381.42 230.966L378.034 227.651C377.812 227.431 377.512 227.307 377.199 227.307C376.886 227.307 376.586 227.431 376.364 227.651L375.666 228.35C370.922 222.459 368.336 215.123 368.336 207.559C368.336 199.996 370.922 192.66 375.666 186.769L376.364 187.467C376.586 187.688 376.886 187.811 377.199 187.811C377.512 187.811 377.812 187.688 378.034 187.467L381.349 184.081C381.569 183.859 381.693 183.559 381.693 183.246C381.693 182.933 381.569 182.633 381.349 182.411L380.65 181.713C386.541 176.97 393.877 174.383 401.441 174.383C409.004 174.383 416.34 176.97 422.231 181.713L421.533 182.411C421.312 182.633 421.189 182.933 421.189 183.246C421.189 183.559 421.312 183.859 421.533 184.081L424.919 187.396C425.141 187.617 425.441 187.74 425.754 187.74C426.067 187.74 426.367 187.617 426.589 187.396L427.287 186.697C432.042 192.597 434.633 199.947 434.628 207.524Z" fill="white"/>
<path d="M405.028 179.357V177.924C405.028 177.61 404.904 177.309 404.681 177.087C404.459 176.865 404.158 176.74 403.844 176.74H399.108C398.794 176.74 398.493 176.865 398.271 177.087C398.049 177.309 397.924 177.61 397.924 177.924V179.357C391.663 180.124 385.838 182.964 381.377 187.425C376.917 191.885 374.077 197.71 373.309 203.972H371.877C371.563 203.972 371.262 204.096 371.04 204.319C370.818 204.541 370.693 204.842 370.693 205.156V209.892C370.693 210.206 370.818 210.507 371.04 210.729C371.262 210.951 371.563 211.076 371.877 211.076H373.309C374.077 217.337 376.917 223.162 381.377 227.623C385.838 232.083 391.663 234.923 397.924 235.691V237.123C397.924 237.437 398.049 237.738 398.271 237.96C398.493 238.182 398.794 238.307 399.108 238.307H403.844C404.158 238.307 404.459 238.182 404.681 237.96C404.904 237.738 405.028 237.437 405.028 237.123V235.691C411.29 234.923 417.115 232.083 421.575 227.623C426.036 223.162 428.876 217.337 429.643 211.076H431.076C431.39 211.076 431.691 210.951 431.913 210.729C432.135 210.507 432.26 210.206 432.26 209.892V205.156C432.26 204.842 432.135 204.541 431.913 204.319C431.691 204.096 431.39 203.972 431.076 203.972H429.643C428.876 197.71 426.036 191.885 421.575 187.425C417.115 182.964 411.29 180.124 405.028 179.357ZM426.34 211.076H427.252C426.501 216.706 423.918 221.932 419.901 225.949C415.885 229.965 410.658 232.548 405.028 233.299V232.387C405.028 232.073 404.904 231.772 404.681 231.55C404.459 231.328 404.158 231.203 403.844 231.203H399.108C398.794 231.203 398.493 231.328 398.271 231.55C398.049 231.772 397.924 232.073 397.924 232.387V233.299C392.294 232.548 387.068 229.965 383.051 225.949C379.035 221.932 376.452 216.706 375.701 211.076H376.613C376.927 211.076 377.228 210.951 377.45 210.729C377.672 210.507 377.797 210.206 377.797 209.892V205.156C377.797 204.842 377.672 204.541 377.45 204.319C377.228 204.096 376.927 203.972 376.613 203.972H375.701C376.452 198.342 379.035 193.115 383.051 189.099C387.068 185.082 392.294 182.499 397.924 181.748V182.66C397.924 182.974 398.049 183.275 398.271 183.497C398.493 183.719 398.794 183.844 399.108 183.844H403.844C404.158 183.844 404.459 183.719 404.681 183.497C404.904 183.275 405.028 182.974 405.028 182.66V181.748C410.658 182.499 415.885 185.082 419.901 189.099C423.918 193.115 426.501 198.342 427.252 203.972H426.34C426.026 203.972 425.725 204.096 425.503 204.319C425.281 204.541 425.156 204.842 425.156 205.156V209.892C425.156 210.206 425.281 210.507 425.503 210.729C425.725 210.951 426.026 211.076 426.34 211.076Z" fill="white"/>
<circle cx="60.5" cy="287.5" r="60.5" fill="#1C2128"/>
<path d="M60 265C45.6253 265 34 276.695 34 291.1C34 298.067 36.7057 304.621 41.6187 309.552C41.9161 309.851 42.3061 310 42.6959 310C43.0858 310 43.4757 309.851 43.7732 309.552L48.3875 304.92C48.9824 304.322 48.9824 303.354 48.3875 302.757C47.0832 301.447 43.5962 297.553 43.574 291.099C43.5746 281.929 50.9927 274.611 60 274.611C69.1305 274.611 76.4254 282.051 76.426 291.099C76.4128 294.938 75.1504 298.455 72.89 301.317C70.542 297.661 65.3003 289.625 63.3848 287.702C61.4985 285.809 58.4675 285.843 56.615 287.702C54.725 289.6 54.7665 292.642 56.615 294.498C58.904 296.796 69.8922 303.863 71.7328 305.041L76.2267 309.552C76.5242 309.851 76.9141 310 77.304 310C77.6939 310 78.0837 309.851 78.3812 309.552C83.2943 304.621 86 298.067 86 291.1C86 276.668 74.3476 265 60 265ZM45.1971 303.797L42.7307 306.273C39.3887 302.452 37.4256 297.698 37.0963 292.629H40.5856C40.9034 296.765 42.5069 300.646 45.1971 303.797ZM40.5855 289.571H37.0963C37.4255 284.502 39.3886 279.748 42.7307 275.927L45.1971 278.403C42.5043 281.555 40.9028 285.434 40.5855 289.571ZM58.4766 271.611C54.3557 271.929 50.4912 273.537 47.3514 276.24L44.8853 273.764C48.6921 270.409 53.4273 268.439 58.4766 268.108V271.611ZM58.7697 292.335C58.0854 291.648 58.0952 290.542 58.7696 289.865C59.4484 289.184 60.5522 289.184 61.2304 289.865C61.2304 289.865 61.2304 289.865 61.2305 289.865C62.3231 290.962 65.0312 294.905 67.4848 298.613C63.7901 296.15 59.8623 293.432 58.7697 292.335ZM61.5234 271.611V268.108C66.5727 268.439 71.3079 270.409 75.1147 273.764L72.6486 276.24C69.5088 273.537 65.6443 271.929 61.5234 271.611ZM74.8029 278.403L77.2693 275.927C80.6113 279.748 82.5744 284.502 82.9037 289.571H79.4146C79.0972 285.434 77.4957 281.555 74.8029 278.403ZM77.2693 306.273L74.8029 303.797C77.4931 300.646 79.0966 296.765 79.4144 292.629H82.9037C82.5744 297.698 80.6113 302.452 77.2693 306.273Z" fill="white"/>
<defs>
<filter id="filter0_d_565_232" x="221.528" y="325.771" width="147.452" height="156.872" filterUnits="userSpaceOnUse" color-interpolation-filters="sRGB">
<feFlood flood-opacity="0" result="BackgroundImageFix"/>
<feColorMatrix in="SourceAlpha" type="matrix" values="0 0 0 0 0 0 0 0 0 0 0 0 0 0 0 0 0 0 127 0" result="hardAlpha"/>
<feOffset dx="2" dy="2"/>
<feGaussianBlur stdDeviation="2"/>
<feComposite in2="hardAlpha" operator="out"/>
<feColorMatrix type="matrix" values="0 0 0 0 0.111784 0 0 0 0 0.111784 0 0 0 0 0.111784 0 0 0 0.25 0"/>
<feBlend mode="normal" in2="BackgroundImageFix" result="effect1_dropShadow_565_232"/>
<feBlend mode="normal" in="SourceGraphic" in2="effect1_dropShadow_565_232" result="shape"/>
</filter>
<filter id="filter1_d_565_232" x="153.755" y="432.969" width="212.377" height="112.109" filterUnits="userSpaceOnUse" color-interpolation-filters="sRGB">
<feFlood flood-opacity="0" result="BackgroundImageFix"/>
<feColorMatrix in="SourceAlpha" type="matrix" values="0 0 0 0 0 0 0 0 0 0 0 0 0 0 0 0 0 0 127 0" result="hardAlpha"/>
<feOffset dx="2" dy="2"/>
<feGaussianBlur stdDeviation="2"/>
<feComposite in2="hardAlpha" operator="out"/>
<feColorMatrix type="matrix" values="0 0 0 0 0.111784 0 0 0 0 0.111784 0 0 0 0 0.111784 0 0 0 0.25 0"/>
<feBlend mode="normal" in2="BackgroundImageFix" result="effect1_dropShadow_565_232"/>
<feBlend mode="normal" in="SourceGraphic" in2="effect1_dropShadow_565_232" result="shape"/>
</filter>
<linearGradient id="paint0_linear_565_232" x1="112.067" y1="-278.9" x2="423.885" y2="-243.467" gradientUnits="userSpaceOnUse">
<stop stop-color="#BD54E2"/>
<stop offset="1" stop-color="#2982E3"/>
</linearGradient>
<linearGradient id="paint1_linear_565_232" x1="210.584" y1="330.707" x2="396.481" y2="440.559" gradientUnits="userSpaceOnUse">
<stop stop-color="#010101"/>
<stop offset="0.958333" stop-color="#28282F"/>
</linearGradient>
<linearGradient id="paint2_linear_565_232" x1="338.648" y1="383.136" x2="385.649" y2="387.052" gradientUnits="userSpaceOnUse">
<stop stop-color="#010101"/>
<stop offset="0.958333" stop-color="#28282F"/>
</linearGradient>
<linearGradient id="paint3_linear_565_232" x1="362.825" y1="391.047" x2="221.581" y2="414.999" gradientUnits="userSpaceOnUse">
<stop stop-color="white"/>
<stop offset="1" stop-color="#424B5A"/>
</linearGradient>
<linearGradient id="paint4_linear_565_232" x1="217.445" y1="407.561" x2="377.486" y2="486.303" gradientUnits="userSpaceOnUse">
<stop stop-color="#A1AEB7"/>
<stop offset="1" stop-color="#141645"/>
</linearGradient>
<linearGradient id="paint5_linear_565_232" x1="151.572" y1="447.771" x2="274.8" y2="600.023" gradientUnits="userSpaceOnUse">
<stop stop-color="#010101"/>
<stop offset="0.958333" stop-color="#28282F"/>
</linearGradient>
<linearGradient id="paint6_linear_565_232" x1="150.15" y1="439.714" x2="277.272" y2="593.472" gradientUnits="userSpaceOnUse">
<stop stop-color="#010101"/>
<stop offset="0.958333" stop-color="#28282F"/>
</linearGradient>
<linearGradient id="paint7_linear_565_232" x1="157.189" y1="515.74" x2="223.333" y2="618.446" gradientUnits="userSpaceOnUse">
<stop stop-color="#A1AEB7"/>
<stop offset="1" stop-color="#141645"/>
</linearGradient>
<linearGradient id="paint8_linear_565_232" x1="374.78" y1="416.693" x2="152.591" y2="454.37" gradientUnits="userSpaceOnUse">
<stop stop-color="white"/>
<stop offset="0.29" stop-color="#C5C4F7"/>
<stop offset="0.64" stop-color="#D3D2F9"/>
<stop offset="1" stop-color="#E9E9FD"/>
</linearGradient>
<radialGradient id="paint9_radial_565_232" cx="0" cy="0" r="1" gradientUnits="userSpaceOnUse" gradientTransform="translate(307.008 441.477) rotate(-9.62432) scale(41.991 41.8896)">
<stop stop-color="#22215B"/>
<stop offset="0.33" stop-color="#1E1E55"/>
<stop offset="0.75" stop-color="#141645"/>
<stop offset="1" stop-color="#0C0F38"/>
</radialGradient>
<radialGradient id="paint10_radial_565_232" cx="0" cy="0" r="1" gradientUnits="userSpaceOnUse" gradientTransform="translate(16487.3 4151.32) rotate(-9.62432) scale(3745.39 2157.62)">
<stop stop-color="#22215B"/>
<stop offset="0.33" stop-color="#1E1E55"/>
<stop offset="0.75" stop-color="#141645"/>
<stop offset="1" stop-color="#0C0F38"/>
</radialGradient>
<linearGradient id="paint11_linear_565_232" x1="370.108" y1="453.701" x2="378.084" y2="463.348" gradientUnits="userSpaceOnUse">
<stop stop-color="#010101"/>
<stop offset="0.958333" stop-color="#28282F"/>
</linearGradient>
<linearGradient id="paint12_linear_565_232" x1="363.692" y1="462.427" x2="369.994" y2="470.053" gradientUnits="userSpaceOnUse">
<stop stop-color="#010101"/>
<stop offset="0.958333" stop-color="#28282F"/>
</linearGradient>
<radialGradient id="paint13_radial_565_232" cx="0" cy="0" r="1" gradientUnits="userSpaceOnUse" gradientTransform="translate(20669.6 4533.35) rotate(-9.62432) scale(5050.83 2908.67)">
<stop stop-color="#22215B"/>
<stop offset="0.33" stop-color="#1E1E55"/>
<stop offset="0.75" stop-color="#141645"/>
<stop offset="1" stop-color="#0C0F38"/>
</radialGradient>
<radialGradient id="paint14_radial_565_232" cx="0" cy="0" r="1" gradientUnits="userSpaceOnUse" gradientTransform="translate(21334.2 4178.8) rotate(-9.62432) scale(5050.37 2909.13)">
<stop stop-color="#22215B"/>
<stop offset="0.33" stop-color="#1E1E55"/>
<stop offset="0.75" stop-color="#141645"/>
<stop offset="1" stop-color="#0C0F38"/>
</radialGradient>
<radialGradient id="paint15_radial_565_232" cx="0" cy="0" r="1" gradientUnits="userSpaceOnUse" gradientTransform="translate(22003.1 3820.52) rotate(-9.62432) scale(5050.83 2908.67)">
<stop stop-color="#22215B"/>
<stop offset="0.33" stop-color="#1E1E55"/>
<stop offset="0.75" stop-color="#141645"/>
<stop offset="1" stop-color="#0C0F38"/>
</radialGradient>
<linearGradient id="paint16_linear_565_232" x1="221.208" y1="376.447" x2="334.812" y2="404.043" gradientUnits="userSpaceOnUse">
<stop stop-color="#923AB1"/>
<stop offset="1" stop-color="#3633A5"/>
</linearGradient>
<linearGradient id="paint17_linear_565_232" x1="221.208" y1="376.447" x2="334.812" y2="404.043" gradientUnits="userSpaceOnUse">
<stop stop-color="#923AB1"/>
<stop offset="1" stop-color="#3633A5"/>
</linearGradient>
<linearGradient id="paint18_linear_565_232" x1="221.208" y1="376.447" x2="334.812" y2="404.043" gradientUnits="userSpaceOnUse">
<stop stop-color="#923AB1"/>
<stop offset="1" stop-color="#3633A5"/>
</linearGradient>
<linearGradient id="paint19_linear_565_232" x1="221.208" y1="376.447" x2="334.812" y2="404.043" gradientUnits="userSpaceOnUse">
<stop stop-color="#923AB1"/>
<stop offset="1" stop-color="#3633A5"/>
</linearGradient>
<linearGradient id="paint20_linear_565_232" x1="221.208" y1="376.447" x2="334.812" y2="404.043" gradientUnits="userSpaceOnUse">
<stop stop-color="#923AB1"/>
<stop offset="1" stop-color="#3633A5"/>
</linearGradient>
<linearGradient id="paint21_linear_565_232" x1="221.208" y1="376.447" x2="334.812" y2="404.043" gradientUnits="userSpaceOnUse">
<stop stop-color="#923AB1"/>
<stop offset="1" stop-color="#3633A5"/>
</linearGradient>
<linearGradient id="paint22_linear_565_232" x1="221.208" y1="376.447" x2="334.812" y2="404.043" gradientUnits="userSpaceOnUse">
<stop stop-color="#923AB1"/>
<stop offset="1" stop-color="#3633A5"/>
</linearGradient>
<clipPath id="clip0_565_232">
<rect width="302.879" height="235.719" fill="white" transform="translate(132 343.638) rotate(-9.62432)"/>
</clipPath>
</defs>
</svg>
