<svg width="483" height="577" viewBox="0 0 483 577" fill="none" xmlns="http://www.w3.org/2000/svg">
<circle cx="234" cy="258" r="176.5" stroke="url(#paint0_linear_565_236)"/>
<g clip-path="url(#clip0_565_236)">
<g filter="url(#filter0_d_565_236)">
<path d="M224.901 422.817L224.853 329.702L223.528 329.397L225.21 328.054C225.414 327.898 225.659 327.802 225.915 327.777C226.171 327.752 226.43 327.8 226.66 327.914L360.863 377.602C361.434 377.843 361.929 378.231 362.3 378.726C362.671 379.221 362.904 379.805 362.975 380.419L362.976 474.262C362.992 474.464 362.955 474.666 362.869 474.849C362.783 475.033 362.651 475.191 362.485 475.308L360.855 476.643L360.26 475.008L360.363 474.991L226.972 425.651C226.408 425.402 225.919 425.009 225.555 424.512C225.192 424.014 224.966 423.43 224.901 422.817Z" fill="url(#paint1_linear_565_236)"/>
</g>
<path d="M360.583 380.137L362.443 378.911C362.748 379.343 362.926 379.852 362.958 380.38L362.976 474.262C362.992 474.464 362.956 474.666 362.869 474.85C362.783 475.033 362.651 475.191 362.486 475.308L360.855 476.643L360.26 475.008L360.363 474.991L353.576 472.501L360.583 380.137Z" fill="url(#paint2_linear_565_236)"/>
<path d="M225.289 427.111L359.491 476.789C360.532 477.174 361.284 476.729 361.283 475.723L361.274 381.839C361.201 381.226 360.967 380.644 360.596 380.149C360.226 379.655 359.732 379.266 359.163 379.023L224.89 329.293C223.849 328.909 223.097 329.354 223.097 330.359L223.106 424.243C223.178 424.873 223.418 425.472 223.803 425.976C224.187 426.481 224.7 426.873 225.289 427.111Z" fill="url(#paint3_linear_565_236)"/>
<path d="M225.289 427.111L359.491 476.789C360.532 477.174 361.284 476.729 361.283 475.723L361.274 381.839C361.201 381.226 360.967 380.644 360.596 380.149C360.226 379.655 359.732 379.266 359.163 379.023L224.89 329.293C223.849 328.909 223.097 329.354 223.097 330.359L223.106 424.243C223.178 424.873 223.418 425.472 223.803 425.976C224.187 426.481 224.7 426.873 225.289 427.111Z" fill="url(#paint4_linear_565_236)"/>
<path d="M225.968 334.275L358.529 383.353L358.493 471.784L226.011 422.735L225.968 334.275Z" fill="#010101"/>
<g filter="url(#filter1_d_565_236)">
<path d="M155.755 483.348L163.026 485.692L223.392 435.814C224.031 435.383 224.761 435.108 225.526 435.01C226.29 434.911 227.067 434.993 227.794 435.248L354.459 482.151C355.458 481.346 360.132 478.067 360.132 478.067L358.764 484.828C358.697 485.179 358.5 485.492 358.213 485.705L294.626 538.234C293.989 538.664 293.26 538.94 292.498 539.038C291.735 539.136 290.96 539.054 290.235 538.799L160.546 490.768C160.053 490.64 159.624 490.336 159.34 489.915L155.755 483.348Z" fill="url(#paint5_linear_565_236)"/>
</g>
<path d="M156.96 484.201L289.806 533.39C290.549 533.651 291.344 533.735 292.127 533.636C292.909 533.536 293.658 533.256 294.312 532.816L359.438 478.978C360.471 478.126 360.162 476.993 358.68 476.45L225.881 427.286C225.138 427.024 224.343 426.94 223.56 427.04C222.778 427.14 222.029 427.42 221.375 427.859L156.249 481.698C155.175 482.557 155.515 483.685 156.96 484.201Z" fill="url(#paint6_linear_565_236)"/>
<path d="M156.765 483.05L289.609 532.228C290.352 532.489 291.147 532.574 291.93 532.474C292.712 532.374 293.46 532.094 294.115 531.654L359.24 477.816C359.463 477.649 359.638 477.426 359.746 477.17C359.861 477.304 359.946 477.462 359.993 477.632C360.041 477.802 360.05 477.981 360.021 478.155C359.992 478.33 359.925 478.496 359.825 478.641C359.725 478.787 359.594 478.909 359.441 478.999L294.316 532.837C293.661 533.277 292.913 533.557 292.13 533.657C291.348 533.757 290.553 533.672 289.809 533.411L156.96 484.202C155.832 483.801 155.395 483.039 155.694 482.3C155.981 482.637 156.35 482.895 156.765 483.05Z" fill="url(#paint7_linear_565_236)"/>
<g opacity="0.11">
<g opacity="0.11">
<path opacity="0.11" d="M226.044 427.184L373.931 481.939C374.758 482.233 375.643 482.329 376.515 482.218C377.386 482.107 378.219 481.792 378.946 481.3L451.525 421.373C452.678 420.415 452.29 419.126 450.678 418.564L302.769 363.802C301.94 363.508 301.053 363.413 300.18 363.524C299.307 363.635 298.472 363.95 297.743 364.443L225.164 424.371C224.044 425.333 224.416 426.593 226.044 427.184Z" fill="url(#paint8_linear_565_236)"/>
<path opacity="0.11" d="M255.224 420.226L362.285 459.86L358.795 462.738L251.734 423.103L255.224 420.226Z" fill="url(#paint9_radial_565_236)"/>
<path opacity="0.11" d="M264.489 412.559L366.253 450.235L362.775 453.121L261.011 415.445L264.489 412.559Z" fill="url(#paint10_radial_565_236)"/>
<path opacity="0.11" d="M373.859 453.051L383.356 456.573L379.877 459.449L370.369 455.928L373.859 453.051Z" fill="url(#paint11_linear_565_236)"/>
<path opacity="0.11" d="M367.467 461.775L374.089 464.229L370.599 467.107L363.979 464.663L367.467 461.775Z" fill="url(#paint12_linear_565_236)"/>
<path opacity="0.11" d="M270.306 407.763L389.171 451.766L385.681 454.644L266.816 410.64L270.306 407.763Z" fill="url(#paint13_radial_565_236)"/>
<path opacity="0.11" d="M276.11 402.958L394.976 446.962L391.498 449.848L272.631 405.834L276.11 402.958Z" fill="url(#paint14_radial_565_236)"/>
<path opacity="0.11" d="M281.927 398.163L400.793 442.166L397.303 445.044L278.437 401.04L281.927 398.163Z" fill="url(#paint15_radial_565_236)"/>
</g>
</g>
<path d="M225.625 443.478L321.514 478.975L325.012 476.085L229.122 440.578L225.625 443.478Z" fill="url(#paint16_linear_565_236)"/>
<path d="M217.027 450.576L306.974 483.875L310.471 480.975L220.534 447.674L217.027 450.576Z" fill="url(#paint17_linear_565_236)"/>
<path d="M211.425 455.198L317.331 494.404L320.829 491.515L214.934 452.307L211.425 455.198Z" fill="url(#paint18_linear_565_236)"/>
<path d="M205.835 459.829L311.729 499.026L315.238 496.135L209.342 456.927L205.835 459.829Z" fill="url(#paint19_linear_565_236)"/>
<path d="M200.233 464.451L306.138 503.657L309.635 500.757L203.74 461.549L200.233 464.451Z" fill="url(#paint20_linear_565_236)"/>
<path d="M327.299 481.126L331.565 482.699L335.074 479.808L330.806 478.225L327.299 481.126Z" fill="url(#paint21_linear_565_236)"/>
<path d="M314.128 486.524L322.978 489.796L326.476 486.906L317.635 483.622L314.128 486.524Z" fill="url(#paint22_linear_565_236)"/>
<g opacity="0.5">
<path opacity="0.5" d="M240.303 358.258L249.065 361.513L249.067 360.084L240.296 356.841L240.303 358.258Z" fill="#252525"/>
<path opacity="0.5" d="M250.478 362.024L255.245 363.798L255.247 362.369L250.471 360.608L250.478 362.024Z" fill="#252525"/>
<path opacity="0.5" d="M262.68 366.548L266.132 367.825L266.136 366.406L262.672 365.121L262.68 366.548Z" fill="#252525"/>
<path opacity="0.5" d="M260.156 365.611L261.333 366.046L261.336 364.628L260.157 364.182L260.156 365.611Z" fill="#252525"/>
<path opacity="0.5" d="M256.67 364.318L258.821 365.118L258.812 363.69L256.673 362.9L256.67 364.318Z" fill="#252525"/>
<path opacity="0.5" d="M248.407 367.762L251.871 369.048L251.862 367.621L248.41 366.344L248.407 367.762Z" fill="#252525"/>
<path opacity="0.5" d="M240.303 364.766L247.071 367.269L247.075 365.85L240.305 363.337L240.303 364.766Z" fill="#252525"/>
<path opacity="0.5" d="M252.95 385.669L259.719 388.183L259.711 386.756L252.943 384.253L252.95 385.669Z" fill="#252525"/>
<path opacity="0.5" d="M249.463 384.376L251.604 385.177L251.606 383.749L249.467 382.958L249.463 384.376Z" fill="#252525"/>
<path opacity="0.5" d="M252.908 379.168L259.677 381.681L259.669 380.254L252.901 377.751L252.908 379.168Z" fill="#252525"/>
<path opacity="0.5" d="M249.421 377.875L251.562 378.676L251.564 377.248L249.414 376.459L249.421 377.875Z" fill="#252525"/>
<path opacity="0.5" d="M253.032 413.74L240.275 409.014L240.273 410.443L253.03 415.169L253.032 413.74Z" fill="#252525"/>
<path opacity="0.5" d="M257.526 415.412L254.369 414.244L254.365 415.663L257.523 416.831L257.526 415.412Z" fill="#252525"/>
<path opacity="0.5" d="M278.159 413.289L265.413 408.561L265.412 409.99L278.166 414.706L278.159 413.289Z" fill="#252525"/>
<path opacity="0.5" d="M282.652 414.95L279.505 413.78L279.503 415.209L282.661 416.377L282.652 414.95Z" fill="#252525"/>
<path opacity="0.5" d="M243.73 407.053L240.276 405.766L240.274 407.195L243.737 408.47L243.73 407.053Z" fill="#252525"/>
<path opacity="0.5" d="M263.572 407.9L260.118 406.613L260.117 408.041L263.569 409.319L263.572 407.9Z" fill="#252525"/>
<path opacity="0.5" d="M251.845 410.058L245.075 407.545L245.072 408.963L251.842 411.477L251.845 410.058Z" fill="#252525"/>
<path opacity="0.5" d="M255.319 411.342L253.18 410.551L253.177 411.97L255.318 412.771L255.319 411.342Z" fill="#252525"/>
<path opacity="0.5" d="M263.492 414.369L256.722 411.856L256.72 413.285L263.488 415.788L263.492 414.369Z" fill="#252525"/>
<path opacity="0.5" d="M266.976 415.651L264.827 414.862L264.834 416.279L266.974 417.08L266.976 415.651Z" fill="#252525"/>
<path opacity="0.5" d="M263.571 411.149L260.118 409.861L260.116 411.29L263.578 412.565L263.571 411.149Z" fill="#252525"/>
<path opacity="0.5" d="M271.687 414.154L264.917 411.64L264.915 413.069L271.683 415.572L271.687 414.154Z" fill="#252525"/>
<path opacity="0.5" d="M275.163 415.448L273.022 414.647L273.02 416.076L275.17 416.865L275.163 415.448Z" fill="#252525"/>
<path opacity="0.5" d="M247.341 405.14L240.277 402.517L240.275 403.946L247.347 406.557L247.341 405.14Z" fill="#252525"/>
<path opacity="0.5" d="M253.792 407.527L248.686 405.631L248.684 407.06L253.8 408.954L253.792 407.527Z" fill="#252525"/>
<path opacity="0.5" d="M258.591 409.305L255.129 408.03L255.136 409.447L258.588 410.724L258.591 409.305Z" fill="#252525"/>
<path opacity="0.5" d="M291.501 418.212L284.428 415.602L284.435 417.019L291.499 419.641L291.501 418.212Z" fill="#252525"/>
<path opacity="0.5" d="M297.954 420.61L292.838 418.715L292.845 420.132L297.95 422.028L297.954 420.61Z" fill="#252525"/>
<path opacity="0.5" d="M302.743 422.39L299.289 421.103L299.287 422.532L302.75 423.807L302.743 422.39Z" fill="#252525"/>
<path opacity="0.5" d="M281.898 376.909L288.972 379.529L288.974 378.1L281.901 375.49L281.898 376.909Z" fill="#252525"/>
<path opacity="0.5" d="M275.447 374.521L280.563 376.415L280.564 374.987L275.448 373.092L275.447 374.521Z" fill="#252525"/>
<path opacity="0.5" d="M270.657 372.74L274.109 374.017L274.113 372.599L270.661 371.322L270.657 372.74Z" fill="#252525"/>
<path opacity="0.5" d="M278.965 372.559L286.029 375.181L286.03 373.753L278.966 371.13L278.965 372.559Z" fill="#252525"/>
<path opacity="0.5" d="M272.513 370.171L277.629 372.066L277.621 370.639L272.515 368.742L272.513 370.171Z" fill="#252525"/>
<path opacity="0.5" d="M267.724 368.391L271.176 369.668L271.179 368.25L267.717 366.974L267.724 368.391Z" fill="#252525"/>
<path opacity="0.5" d="M253.96 382.81L256.349 383.696L256.342 382.279L253.953 381.393L253.96 382.81Z" fill="#252525"/>
<path opacity="0.5" d="M249.467 381.148L252.615 382.318L252.616 380.89L249.459 379.721L249.467 381.148Z" fill="#252525"/>
<path opacity="0.5" d="M247.386 401.904L240.322 399.282L240.319 400.7L247.383 403.322L247.386 401.904Z" fill="#252525"/>
<path opacity="0.5" d="M253.837 404.291L248.721 402.397L248.73 403.824L253.834 405.71L253.837 404.291Z" fill="#252525"/>
<path opacity="0.5" d="M258.637 406.07L255.173 404.784L255.181 406.211L258.633 407.489L258.637 406.07Z" fill="#252525"/>
<path opacity="0.5" d="M242.701 396.92L240.312 396.034L240.319 397.451L242.708 398.337L242.701 396.92Z" fill="#252525"/>
<path opacity="0.5" d="M247.194 398.581L244.047 397.411L244.043 398.83L247.201 399.998L247.194 398.581Z" fill="#252525"/>
<path opacity="0.5" d="M253.623 400.962L248.54 399.073L248.538 400.502L253.62 402.381L253.623 400.962Z" fill="#252525"/>
<path opacity="0.5" d="M255.442 373.595L257.82 374.483L257.824 373.064L255.435 372.178L255.442 373.595Z" fill="#252525"/>
<path opacity="0.5" d="M250.939 371.936L254.096 373.104L254.1 371.685L250.942 370.517L250.939 371.936Z" fill="#252525"/>
<path opacity="0.5" d="M244.52 369.553L249.604 371.443L249.605 370.014L244.524 368.135L244.52 369.553Z" fill="#252525"/>
<path opacity="0.5" d="M259.623 378.167L264.704 380.046L264.708 378.627L259.624 376.738L259.623 378.167Z" fill="#252525"/>
<path opacity="0.5" d="M251.346 375.337L258.204 377.868L258.197 376.451L251.348 373.909L251.346 375.337Z" fill="#252525"/>
<path opacity="0.5" d="M247.86 374.045L250.009 374.834L250.012 373.416L247.861 372.617L247.86 374.045Z" fill="#252525"/>
<path opacity="0.5" d="M244.52 372.802L246.671 373.601L246.662 372.174L244.523 371.384L244.52 372.802Z" fill="#252525"/>
<path opacity="0.5" d="M247.969 390.577L254.738 393.091L254.742 391.672L247.972 389.159L247.969 390.577Z" fill="#252525"/>
<path opacity="0.5" d="M244.484 389.295L246.633 390.084L246.627 388.668L244.486 387.867L244.484 389.295Z" fill="#252525"/>
<path opacity="0.5" d="M249.023 394.229L251.41 395.105L251.413 393.687L249.025 392.801L249.023 394.229Z" fill="#252525"/>
<path opacity="0.5" d="M256.274 390.386L258.663 391.272L258.656 389.855L256.278 388.967L256.274 390.386Z" fill="#252525"/>
<path opacity="0.5" d="M259.681 391.649L265.408 393.768L265.401 392.351L259.673 390.222L259.681 391.649Z" fill="#252525"/>
<path opacity="0.5" d="M266.417 394.147L269.834 395.409L269.825 393.982L266.418 392.719L266.417 394.147Z" fill="#252525"/>
<path opacity="0.5" d="M244.528 392.558L247.686 393.726L247.689 392.307L244.532 391.139L244.528 392.558Z" fill="#252525"/>
<path opacity="0.5" d="M244.811 395.854L247.2 396.74L247.201 395.311L244.813 394.425L244.811 395.854Z" fill="#252525"/>
<path opacity="0.5" d="M240.316 394.182L243.474 395.35L243.467 393.934L240.32 392.763L240.316 394.182Z" fill="#252525"/>
<path opacity="0.5" d="M252.812 389.11L254.951 389.901L254.954 388.483L252.803 387.683L252.812 389.11Z" fill="#252525"/>
<path opacity="0.5" d="M249.461 387.869L251.612 388.668L251.604 387.241L249.465 386.451L249.461 387.869Z" fill="#252525"/>
<path opacity="0.5" d="M261.773 369.453L269.085 372.16L269.086 370.732L261.775 368.024L261.773 369.453Z" fill="#252525"/>
<path opacity="0.5" d="M253.578 366.419L260.436 368.949L260.429 367.532L253.58 364.99L253.578 366.419Z" fill="#252525"/>
<path opacity="0.5" d="M250.102 365.125L252.241 365.916L252.245 364.497L250.094 363.698L250.102 365.125Z" fill="#252525"/>
<path opacity="0.5" d="M246.752 363.884L248.903 364.683L248.894 363.256L246.755 362.465L246.752 363.884Z" fill="#252525"/>
<path opacity="0.5" d="M244.929 363.209L240.3 361.496L240.302 360.067L244.931 361.78L244.929 363.209Z" fill="#252525"/>
</g>
</g>
<circle cx="198" cy="81" r="81" fill="#1C2128"/>
<path d="M199.412 79.5883H209.294C210.074 79.5883 210.706 80.2203 210.706 81V92.2942C210.706 93.0739 210.074 93.706 209.294 93.706H186.706C185.926 93.706 185.294 93.0739 185.294 92.2942V69.7059C185.294 68.9261 185.926 68.2941 186.706 68.2941H198C198.78 68.2941 199.412 68.9261 199.412 69.7059V79.5883ZM188.118 90.8824H196.588V82.4118H188.118V90.8824ZM188.118 71.1177V79.5883H196.588V71.1177H188.118ZM199.412 90.8824H207.882V82.4118H199.412V90.8824ZM209.294 57H220.588C221.368 57 222 57.6321 222 58.4118V69.706C222 70.4857 221.368 71.1177 220.588 71.1177H209.294C208.514 71.1177 207.882 70.4857 207.882 69.706V58.4118C207.882 57.6321 208.514 57 209.294 57ZM210.706 59.8236V68.2942H219.176V59.8236H210.706ZM219.176 78.1765C219.176 77.3968 219.808 76.7647 220.588 76.7647C221.368 76.7647 222 77.3968 222 78.1765V99.353C222 102.472 219.472 105 216.353 105H179.647C176.528 105 174 102.472 174 99.3531V62.647C174 59.5283 176.528 57 179.647 57H200.823C201.603 57 202.235 57.6321 202.235 58.4118C202.235 59.1915 201.603 59.8236 200.823 59.8236H179.647C178.088 59.8236 176.823 61.0877 176.823 62.6471V99.3531C176.823 100.912 178.088 102.177 179.647 102.177H216.353C217.912 102.177 219.176 100.912 219.176 99.3531V78.1765Z" fill="white"/>
<circle cx="402" cy="207" r="81" fill="#1C2128"/>
<path d="M413.159 199.225L414.875 197.519L410.481 193.125L408.775 194.841C407.339 193.917 405.749 193.255 404.081 192.887V190.478H397.878V192.887C396.209 193.255 394.62 193.917 393.184 194.841L391.478 193.125L387.084 197.519L388.8 199.225C387.875 200.661 387.214 202.251 386.846 203.919H384.437V210.122H386.846C387.214 211.791 387.875 213.38 388.8 214.816L387.084 216.522L391.478 220.906L393.184 219.2C394.62 220.125 396.209 220.786 397.878 221.154V223.563H404.081V221.154C405.749 220.786 407.339 220.125 408.775 219.2L410.481 220.906L414.875 216.522L413.159 214.816C414.083 213.38 414.745 211.791 415.113 210.122H417.522V203.919H415.113C414.745 202.251 414.083 200.661 413.159 199.225ZM400.979 216.326C399.139 216.326 397.34 215.78 395.81 214.758C394.279 213.735 393.087 212.282 392.383 210.582C391.678 208.881 391.494 207.01 391.853 205.205C392.212 203.4 393.098 201.742 394.4 200.441C395.701 199.14 397.359 198.253 399.164 197.894C400.969 197.535 402.84 197.72 404.54 198.424C406.241 199.128 407.694 200.321 408.716 201.851C409.739 203.381 410.284 205.18 410.284 207.021C410.284 209.489 409.304 211.855 407.559 213.6C405.814 215.345 403.447 216.326 400.979 216.326Z" fill="white"/>
<path d="M425.793 186.55C425.889 186.453 425.965 186.338 426.016 186.212C426.067 186.086 426.093 185.952 426.093 185.815C426.092 185.544 425.984 185.284 425.793 185.092L422.908 182.207C422.715 182.015 422.453 181.906 422.179 181.906C421.906 181.906 421.644 182.015 421.45 182.207L420.623 183.014C415.081 178.478 408.141 176 400.979 176C393.818 176 386.877 178.478 381.335 183.014L380.508 182.207C380.412 182.111 380.297 182.036 380.171 181.984C380.045 181.933 379.91 181.907 379.774 181.907C379.503 181.908 379.243 182.016 379.05 182.207L376.166 185.092C375.975 185.284 375.867 185.544 375.866 185.815C375.865 185.952 375.891 186.086 375.943 186.212C375.994 186.338 376.07 186.453 376.166 186.55L377.014 187.397C372.478 192.939 370 199.88 370 207.041C370 214.203 372.478 221.143 377.014 226.685L376.166 227.492C376.07 227.588 375.994 227.703 375.943 227.829C375.891 227.955 375.865 228.09 375.866 228.226C375.867 228.497 375.975 228.757 376.166 228.95L379.05 231.834C379.243 232.025 379.503 232.133 379.774 232.134C379.91 232.135 380.045 232.109 380.171 232.057C380.297 232.006 380.412 231.93 380.508 231.834L381.356 230.986C386.898 235.522 393.839 238 401 238C408.161 238 415.102 235.522 420.644 230.986L421.492 231.834C421.588 231.93 421.703 232.006 421.829 232.057C421.955 232.109 422.09 232.135 422.226 232.134C422.497 232.133 422.757 232.025 422.95 231.834L425.793 228.95C425.984 228.757 426.092 228.497 426.093 228.226C426.093 228.09 426.067 227.955 426.016 227.829C425.965 227.703 425.889 227.588 425.793 227.492L424.986 226.665C429.522 221.123 432 214.182 432 207.021C432 199.859 429.522 192.919 424.986 187.377L425.793 186.55ZM429.928 207.021C429.926 213.627 427.664 220.033 423.518 225.176L422.908 224.597C422.715 224.404 422.453 224.296 422.179 224.296C421.906 224.296 421.644 224.404 421.45 224.597L418.556 227.492C418.363 227.686 418.255 227.948 418.255 228.221C418.255 228.494 418.363 228.756 418.556 228.95L419.166 229.56C414.021 233.702 407.615 235.96 401.01 235.96C394.406 235.96 388 233.702 382.855 229.56L383.465 228.95C383.658 228.756 383.766 228.494 383.766 228.221C383.766 227.948 383.658 227.686 383.465 227.492L380.508 224.597C380.314 224.404 380.052 224.296 379.779 224.296C379.506 224.296 379.244 224.404 379.05 224.597L378.44 225.207C374.298 220.063 372.04 213.656 372.04 207.052C372.04 200.447 374.298 194.041 378.44 188.896L379.05 189.506C379.244 189.699 379.506 189.807 379.779 189.807C380.052 189.807 380.314 189.699 380.508 189.506L383.403 186.55C383.596 186.356 383.704 186.094 383.704 185.821C383.704 185.547 383.596 185.285 383.403 185.092L382.793 184.482C387.937 180.34 394.344 178.081 400.948 178.081C407.553 178.081 413.959 180.34 419.104 184.482L418.494 185.092C418.301 185.285 418.193 185.547 418.193 185.821C418.193 186.094 418.301 186.356 418.494 186.55L421.45 189.444C421.644 189.637 421.906 189.745 422.179 189.745C422.453 189.745 422.715 189.637 422.908 189.444L423.518 188.834C427.671 193.986 429.933 200.404 429.928 207.021Z" fill="white"/>
<path d="M404.081 182.424V181.173C404.081 180.899 403.972 180.636 403.778 180.442C403.584 180.248 403.321 180.139 403.047 180.139H398.912C398.637 180.139 398.374 180.248 398.18 180.442C397.987 180.636 397.878 180.899 397.878 181.173V182.424C392.41 183.094 387.323 185.574 383.428 189.469C379.533 193.365 377.053 198.451 376.383 203.919H375.132C374.858 203.919 374.595 204.028 374.401 204.222C374.207 204.416 374.098 204.679 374.098 204.953V209.088C374.098 209.363 374.207 209.626 374.401 209.82C374.595 210.013 374.858 210.122 375.132 210.122H376.383C377.053 215.59 379.533 220.677 383.428 224.572C387.323 228.467 392.41 230.947 397.878 231.617V232.868C397.878 233.142 397.987 233.405 398.18 233.599C398.374 233.793 398.637 233.902 398.912 233.902H403.047C403.321 233.902 403.584 233.793 403.778 233.599C403.972 233.405 404.081 233.142 404.081 232.868V231.617C409.549 230.947 414.635 228.467 418.531 224.572C422.426 220.677 424.906 215.59 425.576 210.122H426.827C427.101 210.122 427.364 210.013 427.558 209.82C427.752 209.626 427.861 209.363 427.861 209.088V204.953C427.861 204.679 427.752 204.416 427.558 204.222C427.364 204.028 427.101 203.919 426.827 203.919H425.576C424.906 198.451 422.426 193.365 418.531 189.469C414.635 185.574 409.549 183.094 404.081 182.424ZM422.691 210.122H423.487C422.832 215.039 420.576 219.603 417.069 223.11C413.562 226.617 408.998 228.873 404.081 229.529V228.733C404.081 228.458 403.972 228.195 403.778 228.001C403.584 227.808 403.321 227.699 403.047 227.699H398.912C398.637 227.699 398.374 227.808 398.18 228.001C397.987 228.195 397.878 228.458 397.878 228.733V229.529C392.961 228.873 388.397 226.617 384.89 223.11C381.383 219.603 379.127 215.039 378.471 210.122H379.267C379.542 210.122 379.805 210.013 379.999 209.82C380.192 209.626 380.301 209.363 380.301 209.088V204.953C380.301 204.679 380.192 204.416 379.999 204.222C379.805 204.028 379.542 203.919 379.267 203.919H378.471C379.127 199.002 381.383 194.438 384.89 190.931C388.397 187.424 392.961 185.168 397.878 184.513V185.309C397.878 185.583 397.987 185.846 398.18 186.04C398.374 186.234 398.637 186.343 398.912 186.343H403.047C403.321 186.343 403.584 186.234 403.778 186.04C403.972 185.846 404.081 185.583 404.081 185.309V184.513C408.998 185.168 413.562 187.424 417.069 190.931C420.576 194.438 422.832 199.002 423.487 203.919H422.691C422.417 203.919 422.154 204.028 421.96 204.222C421.766 204.416 421.657 204.679 421.657 204.953V209.088C421.657 209.363 421.766 209.626 421.96 209.82C422.154 210.013 422.417 210.122 422.691 210.122Z" fill="white"/>
<circle cx="60.5" cy="287.5" r="60.5" fill="#1C2128"/>
<path d="M61 263C46.6253 263 35 274.695 35 289.1C35 296.067 37.7057 302.621 42.6187 307.552C42.9161 307.851 43.3061 308 43.6959 308C44.0858 308 44.4757 307.851 44.7732 307.552L49.3875 302.92C49.9824 302.322 49.9824 301.354 49.3875 300.757C48.0832 299.447 44.5962 295.553 44.574 289.099C44.5746 279.929 51.9927 272.611 61 272.611C70.1305 272.611 77.4254 280.051 77.426 289.099C77.4128 292.938 76.1504 296.455 73.89 299.317C71.542 295.661 66.3003 287.625 64.3848 285.702C62.4985 283.809 59.4675 283.843 57.615 285.702C55.725 287.6 55.7665 290.642 57.615 292.498C59.904 294.796 70.8922 301.863 72.7328 303.041L77.2267 307.552C77.5242 307.851 77.9141 308 78.304 308C78.6939 308 79.0837 307.851 79.3812 307.552C84.2943 302.621 87 296.067 87 289.1C87 274.668 75.3476 263 61 263ZM46.1971 301.797L43.7307 304.273C40.3887 300.452 38.4256 295.698 38.0963 290.629H41.5856C41.9034 294.765 43.5069 298.646 46.1971 301.797ZM41.5855 287.571H38.0963C38.4255 282.502 40.3886 277.748 43.7307 273.927L46.1971 276.403C43.5043 279.555 41.9028 283.434 41.5855 287.571ZM59.4766 269.611C55.3557 269.929 51.4912 271.537 48.3514 274.24L45.8853 271.764C49.6921 268.409 54.4273 266.439 59.4766 266.108V269.611ZM59.7697 290.335C59.0854 289.648 59.0952 288.542 59.7696 287.865C60.4484 287.184 61.5522 287.184 62.2304 287.865C62.2304 287.865 62.2304 287.865 62.2305 287.865C63.3231 288.962 66.0312 292.905 68.4848 296.613C64.7901 294.15 60.8623 291.432 59.7697 290.335ZM62.5234 269.611V266.108C67.5727 266.439 72.3079 268.409 76.1147 271.764L73.6486 274.24C70.5088 271.537 66.6443 269.929 62.5234 269.611ZM75.8029 276.403L78.2693 273.927C81.6113 277.748 83.5744 282.502 83.9037 287.571H80.4146C80.0972 283.434 78.4957 279.555 75.8029 276.403ZM78.2693 304.273L75.8029 301.797C78.4931 298.646 80.0966 294.765 80.4144 290.629H83.9037C83.5744 295.698 81.6113 300.452 78.2693 304.273Z" fill="white"/>
<defs>
<filter id="filter0_d_565_236" x="221.528" y="325.771" width="147.452" height="156.872" filterUnits="userSpaceOnUse" color-interpolation-filters="sRGB">
<feFlood flood-opacity="0" result="BackgroundImageFix"/>
<feColorMatrix in="SourceAlpha" type="matrix" values="0 0 0 0 0 0 0 0 0 0 0 0 0 0 0 0 0 0 127 0" result="hardAlpha"/>
<feOffset dx="2" dy="2"/>
<feGaussianBlur stdDeviation="2"/>
<feComposite in2="hardAlpha" operator="out"/>
<feColorMatrix type="matrix" values="0 0 0 0 0.111784 0 0 0 0 0.111784 0 0 0 0 0.111784 0 0 0 0.25 0"/>
<feBlend mode="normal" in2="BackgroundImageFix" result="effect1_dropShadow_565_236"/>
<feBlend mode="normal" in="SourceGraphic" in2="effect1_dropShadow_565_236" result="shape"/>
</filter>
<filter id="filter1_d_565_236" x="153.755" y="432.969" width="212.377" height="112.109" filterUnits="userSpaceOnUse" color-interpolation-filters="sRGB">
<feFlood flood-opacity="0" result="BackgroundImageFix"/>
<feColorMatrix in="SourceAlpha" type="matrix" values="0 0 0 0 0 0 0 0 0 0 0 0 0 0 0 0 0 0 127 0" result="hardAlpha"/>
<feOffset dx="2" dy="2"/>
<feGaussianBlur stdDeviation="2"/>
<feComposite in2="hardAlpha" operator="out"/>
<feColorMatrix type="matrix" values="0 0 0 0 0.111784 0 0 0 0 0.111784 0 0 0 0 0.111784 0 0 0 0.25 0"/>
<feBlend mode="normal" in2="BackgroundImageFix" result="effect1_dropShadow_565_236"/>
<feBlend mode="normal" in="SourceGraphic" in2="effect1_dropShadow_565_236" result="shape"/>
</filter>
<linearGradient id="paint0_linear_565_236" x1="234" y1="81" x2="234" y2="435" gradientUnits="userSpaceOnUse">
<stop stop-color="#6EE1F8"/>
<stop offset="1" stop-color="#1E1E55"/>
</linearGradient>
<linearGradient id="paint1_linear_565_236" x1="210.584" y1="330.707" x2="396.481" y2="440.559" gradientUnits="userSpaceOnUse">
<stop stop-color="#010101"/>
<stop offset="0.958333" stop-color="#28282F"/>
</linearGradient>
<linearGradient id="paint2_linear_565_236" x1="338.648" y1="383.136" x2="385.649" y2="387.052" gradientUnits="userSpaceOnUse">
<stop stop-color="#010101"/>
<stop offset="0.958333" stop-color="#28282F"/>
</linearGradient>
<linearGradient id="paint3_linear_565_236" x1="362.825" y1="391.047" x2="221.581" y2="414.999" gradientUnits="userSpaceOnUse">
<stop stop-color="white"/>
<stop offset="1" stop-color="#424B5A"/>
</linearGradient>
<linearGradient id="paint4_linear_565_236" x1="217.445" y1="407.561" x2="377.486" y2="486.303" gradientUnits="userSpaceOnUse">
<stop stop-color="#A1AEB7"/>
<stop offset="1" stop-color="#141645"/>
</linearGradient>
<linearGradient id="paint5_linear_565_236" x1="151.572" y1="447.771" x2="274.8" y2="600.023" gradientUnits="userSpaceOnUse">
<stop stop-color="#010101"/>
<stop offset="0.958333" stop-color="#28282F"/>
</linearGradient>
<linearGradient id="paint6_linear_565_236" x1="150.15" y1="439.714" x2="277.272" y2="593.472" gradientUnits="userSpaceOnUse">
<stop stop-color="#010101"/>
<stop offset="0.958333" stop-color="#28282F"/>
</linearGradient>
<linearGradient id="paint7_linear_565_236" x1="157.189" y1="515.74" x2="223.333" y2="618.446" gradientUnits="userSpaceOnUse">
<stop stop-color="#A1AEB7"/>
<stop offset="1" stop-color="#141645"/>
</linearGradient>
<linearGradient id="paint8_linear_565_236" x1="374.78" y1="416.693" x2="152.591" y2="454.37" gradientUnits="userSpaceOnUse">
<stop stop-color="white"/>
<stop offset="0.29" stop-color="#C5C4F7"/>
<stop offset="0.64" stop-color="#D3D2F9"/>
<stop offset="1" stop-color="#E9E9FD"/>
</linearGradient>
<radialGradient id="paint9_radial_565_236" cx="0" cy="0" r="1" gradientUnits="userSpaceOnUse" gradientTransform="translate(307.008 441.477) rotate(-9.62432) scale(41.991 41.8896)">
<stop stop-color="#22215B"/>
<stop offset="0.33" stop-color="#1E1E55"/>
<stop offset="0.75" stop-color="#141645"/>
<stop offset="1" stop-color="#0C0F38"/>
</radialGradient>
<radialGradient id="paint10_radial_565_236" cx="0" cy="0" r="1" gradientUnits="userSpaceOnUse" gradientTransform="translate(16487.3 4151.32) rotate(-9.62432) scale(3745.39 2157.62)">
<stop stop-color="#22215B"/>
<stop offset="0.33" stop-color="#1E1E55"/>
<stop offset="0.75" stop-color="#141645"/>
<stop offset="1" stop-color="#0C0F38"/>
</radialGradient>
<linearGradient id="paint11_linear_565_236" x1="370.108" y1="453.701" x2="378.084" y2="463.348" gradientUnits="userSpaceOnUse">
<stop stop-color="#010101"/>
<stop offset="0.958333" stop-color="#28282F"/>
</linearGradient>
<linearGradient id="paint12_linear_565_236" x1="363.692" y1="462.427" x2="369.994" y2="470.053" gradientUnits="userSpaceOnUse">
<stop stop-color="#010101"/>
<stop offset="0.958333" stop-color="#28282F"/>
</linearGradient>
<radialGradient id="paint13_radial_565_236" cx="0" cy="0" r="1" gradientUnits="userSpaceOnUse" gradientTransform="translate(20669.6 4533.35) rotate(-9.62432) scale(5050.83 2908.67)">
<stop stop-color="#22215B"/>
<stop offset="0.33" stop-color="#1E1E55"/>
<stop offset="0.75" stop-color="#141645"/>
<stop offset="1" stop-color="#0C0F38"/>
</radialGradient>
<radialGradient id="paint14_radial_565_236" cx="0" cy="0" r="1" gradientUnits="userSpaceOnUse" gradientTransform="translate(21334.2 4178.8) rotate(-9.62432) scale(5050.37 2909.13)">
<stop stop-color="#22215B"/>
<stop offset="0.33" stop-color="#1E1E55"/>
<stop offset="0.75" stop-color="#141645"/>
<stop offset="1" stop-color="#0C0F38"/>
</radialGradient>
<radialGradient id="paint15_radial_565_236" cx="0" cy="0" r="1" gradientUnits="userSpaceOnUse" gradientTransform="translate(22003.1 3820.52) rotate(-9.62432) scale(5050.83 2908.67)">
<stop stop-color="#22215B"/>
<stop offset="0.33" stop-color="#1E1E55"/>
<stop offset="0.75" stop-color="#141645"/>
<stop offset="1" stop-color="#0C0F38"/>
</radialGradient>
<linearGradient id="paint16_linear_565_236" x1="695918" y1="12378.6" x2="678225" y2="12378.6" gradientUnits="userSpaceOnUse">
<stop stop-color="#C2D1D9"/>
<stop offset="1" stop-color="#59BDEF"/>
</linearGradient>
<linearGradient id="paint17_linear_565_236" x1="695918" y1="12378.6" x2="678225" y2="12378.6" gradientUnits="userSpaceOnUse">
<stop stop-color="#C2D1D9"/>
<stop offset="1" stop-color="#59BDEF"/>
</linearGradient>
<linearGradient id="paint18_linear_565_236" x1="695918" y1="12378.6" x2="678225" y2="12378.6" gradientUnits="userSpaceOnUse">
<stop stop-color="#C2D1D9"/>
<stop offset="1" stop-color="#59BDEF"/>
</linearGradient>
<linearGradient id="paint19_linear_565_236" x1="695918" y1="12378.6" x2="678225" y2="12378.6" gradientUnits="userSpaceOnUse">
<stop stop-color="#C2D1D9"/>
<stop offset="1" stop-color="#59BDEF"/>
</linearGradient>
<linearGradient id="paint20_linear_565_236" x1="695918" y1="12378.6" x2="678225" y2="12378.6" gradientUnits="userSpaceOnUse">
<stop stop-color="#C2D1D9"/>
<stop offset="1" stop-color="#59BDEF"/>
</linearGradient>
<linearGradient id="paint21_linear_565_236" x1="695918" y1="12378.6" x2="678225" y2="12378.6" gradientUnits="userSpaceOnUse">
<stop stop-color="#C2D1D9"/>
<stop offset="1" stop-color="#59BDEF"/>
</linearGradient>
<linearGradient id="paint22_linear_565_236" x1="695918" y1="12378.6" x2="678225" y2="12378.6" gradientUnits="userSpaceOnUse">
<stop stop-color="#C2D1D9"/>
<stop offset="1" stop-color="#59BDEF"/>
</linearGradient>
<clipPath id="clip0_565_236">
<rect width="302.879" height="235.719" fill="white" transform="translate(132 343.638) rotate(-9.62432)"/>
</clipPath>
</defs>
</svg>
