<svg width="100" height="93" viewBox="25 10 60 55" fill="none" xmlns="http://www.w3.org/2000/svg">
<path fill-rule="evenodd" clip-rule="evenodd" d="M35.9329 19.7115C35.8657 17.7806 37.3707 16 39.4049 16L60.2497 16C62.2839 16 63.7889 17.7806 63.7216 19.7115C63.657 21.5665 63.7409 23.9693 64.3458 25.9284C64.9526 27.8936 65.976 29.1384 67.652 29.298L67.652 31.1027C65.976 31.2623 64.9526 32.5071 64.3458 34.4723C63.7409 36.4315 63.657 38.8343 63.7216 40.6892C63.7889 42.6201 62.2839 44.4007 60.2497 44.4007L39.4049 44.4007C37.3707 44.4007 35.8657 42.6201 35.9329 40.6892C35.9976 38.8343 35.9136 36.4315 35.3087 34.4723C34.7019 32.5071 33.676 31.2623 32 31.1027L32 29.298C33.676 29.1384 34.7019 27.8936 35.3087 25.9284C35.9136 23.9693 35.9976 21.5665 35.9329 19.7115Z" fill="#9013FE"/>
<path fill-rule="evenodd" clip-rule="evenodd" d="M35.9329 19.7115C35.8657 17.7806 37.3707 16 39.4049 16L60.2497 16C62.2839 16 63.7889 17.7806 63.7216 19.7115C63.657 21.5665 63.7409 23.9693 64.3458 25.9284C64.9526 27.8936 65.976 29.1384 67.652 29.298L67.652 31.1027C65.976 31.2623 64.9526 32.5071 64.3458 34.4723C63.7409 36.4315 63.657 38.8343 63.7216 40.6892C63.7889 42.6201 62.2839 44.4007 60.2497 44.4007L39.4049 44.4007C37.3707 44.4007 35.8657 42.6201 35.9329 40.6892C35.9976 38.8343 35.9136 36.4315 35.3087 34.4723C34.7019 32.5071 33.676 31.2623 32 31.1027L32 29.298C33.676 29.1384 34.7019 27.8936 35.3087 25.9284C35.9136 23.9693 35.9976 21.5665 35.9329 19.7115Z" fill="white"/>
<g filter="url(#filter0_d_389_2032)">
<path fill-rule="evenodd" clip-rule="evenodd" d="M39.4049 16C37.3707 16 35.8657 17.7806 35.9329 19.7116C35.9976 21.5665 35.9136 23.9693 35.3087 25.9284C34.7019 27.8937 33.676 29.1385 32 29.2981V31.1027C33.676 31.2623 34.7019 32.5071 35.3087 34.4724C35.9136 36.4315 35.9976 38.8343 35.9329 40.6892C35.8657 42.6202 37.3707 44.4008 39.4049 44.4008H60.2497C62.2839 44.4008 63.7889 42.6202 63.7216 40.6892C63.657 38.8343 63.7409 36.4315 64.3458 34.4724C64.9526 32.5071 65.976 31.2623 67.652 31.1027V29.2981C65.976 29.1385 64.9526 27.8937 64.3458 25.9284C63.7409 23.9693 63.657 21.5665 63.7216 19.7116C63.7889 17.7806 62.2839 16 60.2497 16L39.4049 16ZM57.1329 34.3564C57.1329 37.4942 54.7927 39.3966 50.9093 39.3966H45.5852C44.4806 39.3966 43.5852 38.5012 43.5852 37.3966L43.5852 23.5706C43.5852 22.4661 44.4806 21.5706 45.5852 21.5706L50.8713 21.5706C54.1097 21.5706 56.2348 23.3248 56.2348 26.0179C56.2348 27.9079 54.8054 29.6003 52.9838 29.8968V29.9957C55.4632 30.2674 57.1329 31.9846 57.1329 34.3564ZM50.1883 23.8313L46.4187 23.8313L46.4187 29.1556H49.5937C52.0478 29.1556 53.4013 28.1673 53.4013 26.4008C53.4013 24.7454 52.2375 23.8313 50.1883 23.8313ZM46.4187 31.2681V37.1359H50.3274C52.8826 37.1359 54.2361 36.1106 54.2361 34.1835C54.2361 32.2563 52.8447 31.2681 50.163 31.2681L46.4187 31.2681Z" fill="#5A22AE"/>
</g>
<path d="M29.5598 57V51.6313H30.5889V53.5649C30.9062 53.2036 31.2822 53.0229 31.7168 53.0229C32.1904 53.0229 32.5823 53.1951 32.8923 53.5393C33.2024 53.8811 33.3574 54.373 33.3574 55.0151C33.3574 55.6792 33.1987 56.1907 32.8813 56.5496C32.5664 56.9084 32.1831 57.0879 31.7314 57.0879C31.5093 57.0879 31.2896 57.033 31.0723 56.9231C30.8574 56.8108 30.6719 56.646 30.5156 56.4287V57H29.5598ZM30.5815 54.9712C30.5815 55.374 30.645 55.6719 30.772 55.8647C30.9502 56.1382 31.187 56.2749 31.4824 56.2749C31.7095 56.2749 31.9023 56.1785 32.061 55.9856C32.2222 55.7903 32.3027 55.4839 32.3027 55.0664C32.3027 54.6221 32.2222 54.3022 32.061 54.1069C31.8999 53.9092 31.6936 53.8103 31.4421 53.8103C31.1956 53.8103 30.9905 53.9067 30.8269 54.0996C30.6633 54.29 30.5815 54.5806 30.5815 54.9712ZM33.9507 55.0005C33.9507 54.6587 34.0349 54.3279 34.2034 54.0081C34.3718 53.6882 34.6099 53.4441 34.9175 53.2756C35.2275 53.1072 35.573 53.0229 35.9539 53.0229C36.5422 53.0229 37.0244 53.2146 37.4004 53.5979C37.7764 53.9788 37.9644 54.4609 37.9644 55.0444C37.9644 55.6328 37.7739 56.1211 37.3931 56.5093C37.0146 56.895 36.5374 57.0879 35.9612 57.0879C35.6047 57.0879 35.2642 57.0073 34.9395 56.8462C34.6172 56.6851 34.3718 56.4495 34.2034 56.1394C34.0349 55.8269 33.9507 55.4473 33.9507 55.0005ZM35.0054 55.0554C35.0054 55.4412 35.0969 55.7366 35.28 55.9417C35.4631 56.1467 35.689 56.2493 35.9575 56.2493C36.2261 56.2493 36.4507 56.1467 36.6313 55.9417C36.8145 55.7366 36.906 55.4387 36.906 55.0481C36.906 54.6672 36.8145 54.3743 36.6313 54.1692C36.4507 53.9641 36.2261 53.8616 35.9575 53.8616C35.689 53.8616 35.4631 53.9641 35.28 54.1692C35.0969 54.3743 35.0054 54.6697 35.0054 55.0554ZM38.5356 55.0005C38.5356 54.6587 38.6199 54.3279 38.7883 54.0081C38.9568 53.6882 39.1948 53.4441 39.5024 53.2756C39.8125 53.1072 40.158 53.0229 40.5388 53.0229C41.1272 53.0229 41.6094 53.2146 41.9854 53.5979C42.3613 53.9788 42.5493 54.4609 42.5493 55.0444C42.5493 55.6328 42.3589 56.1211 41.978 56.5093C41.5996 56.895 41.1223 57.0879 40.5461 57.0879C40.1897 57.0879 39.8491 57.0073 39.5244 56.8462C39.2021 56.6851 38.9568 56.4495 38.7883 56.1394C38.6199 55.8269 38.5356 55.4473 38.5356 55.0005ZM39.5903 55.0554C39.5903 55.4412 39.6819 55.7366 39.865 55.9417C40.0481 56.1467 40.2739 56.2493 40.5425 56.2493C40.811 56.2493 41.0356 56.1467 41.2163 55.9417C41.3994 55.7366 41.491 55.4387 41.491 55.0481C41.491 54.6672 41.3994 54.3743 41.2163 54.1692C41.0356 53.9641 40.811 53.8616 40.5425 53.8616C40.2739 53.8616 40.0481 53.9641 39.865 54.1692C39.6819 54.3743 39.5903 54.6697 39.5903 55.0554ZM45.1421 53.1108V53.9312H44.439V55.4985C44.439 55.8159 44.4451 56.0015 44.4573 56.0552C44.4719 56.1064 44.5024 56.1492 44.5488 56.1833C44.5977 56.2175 44.6562 56.2346 44.7246 56.2346C44.8198 56.2346 44.9578 56.2017 45.1384 56.1357L45.2263 56.9341C44.9871 57.0366 44.7161 57.0879 44.4133 57.0879C44.2278 57.0879 44.0605 57.0574 43.9116 56.9963C43.7627 56.9329 43.6528 56.8523 43.582 56.7546C43.5137 56.6545 43.4661 56.5203 43.4392 56.3518C43.4172 56.2322 43.4062 55.9905 43.4062 55.6267V53.9312H42.9338V53.1108H43.4062V52.3381L44.439 51.7375V53.1108H45.1421ZM45.4937 55.8904L46.5264 55.7329C46.5703 55.9331 46.6594 56.0857 46.7937 56.1907C46.928 56.2932 47.116 56.3445 47.3577 56.3445C47.6238 56.3445 47.824 56.2957 47.9583 56.198C48.0486 56.1296 48.0938 56.0381 48.0938 55.9233C48.0938 55.8452 48.0693 55.7805 48.0205 55.7292C47.9692 55.6804 47.8545 55.6353 47.6763 55.5938C46.8462 55.4106 46.3201 55.2434 46.0979 55.092C45.7903 54.8821 45.6365 54.5903 45.6365 54.2168C45.6365 53.8799 45.7695 53.5967 46.0356 53.3672C46.3018 53.1377 46.7144 53.0229 47.2734 53.0229C47.8057 53.0229 48.2012 53.1096 48.46 53.283C48.7188 53.4563 48.897 53.7126 48.9946 54.052L48.0242 54.2314C47.9827 54.0801 47.9033 53.9641 47.7861 53.8835C47.6714 53.803 47.5066 53.7627 47.2917 53.7627C47.0208 53.7627 46.8267 53.8005 46.7095 53.8762C46.6313 53.9299 46.5923 53.9995 46.5923 54.085C46.5923 54.1582 46.6265 54.2205 46.6948 54.2717C46.7876 54.3401 47.1074 54.4365 47.6543 54.561C48.2036 54.6855 48.5869 54.8381 48.8042 55.0188C49.019 55.2019 49.1265 55.457 49.1265 55.7842C49.1265 56.1406 48.9775 56.447 48.6797 56.7034C48.3818 56.9597 47.9412 57.0879 47.3577 57.0879C46.8279 57.0879 46.408 56.9805 46.0979 56.7656C45.7903 56.5508 45.5889 56.259 45.4937 55.8904ZM51.8145 53.1108V53.9312H51.1113V55.4985C51.1113 55.8159 51.1174 56.0015 51.1296 56.0552C51.1443 56.1064 51.1748 56.1492 51.2212 56.1833C51.27 56.2175 51.3286 56.2346 51.397 56.2346C51.4922 56.2346 51.6301 56.2017 51.8108 56.1357L51.8987 56.9341C51.6594 57.0366 51.3884 57.0879 51.0857 57.0879C50.9001 57.0879 50.7329 57.0574 50.584 56.9963C50.4351 56.9329 50.3252 56.8523 50.2544 56.7546C50.186 56.6545 50.1384 56.5203 50.1116 56.3518C50.0896 56.2322 50.0786 55.9905 50.0786 55.6267V53.9312H49.6062V53.1108H50.0786V52.3381L51.1113 51.7375V53.1108H51.8145ZM53.5137 57H52.4846V53.1108H53.4404V53.6638C53.604 53.4026 53.7505 53.2305 53.8799 53.1475C54.0117 53.0645 54.1606 53.0229 54.3267 53.0229C54.561 53.0229 54.7869 53.0876 55.0042 53.217L54.6855 54.1143C54.5122 54.002 54.3511 53.9458 54.2021 53.9458C54.0581 53.9458 53.936 53.9861 53.8359 54.0667C53.7358 54.1448 53.6565 54.2876 53.5979 54.4951C53.5417 54.7026 53.5137 55.1372 53.5137 55.7988V57ZM56.22 54.2974L55.2861 54.1289C55.3911 53.7529 55.5718 53.4746 55.8281 53.2939C56.0845 53.1133 56.4653 53.0229 56.9707 53.0229C57.4297 53.0229 57.7715 53.0779 57.9961 53.1877C58.2207 53.2952 58.3782 53.4331 58.4685 53.6016C58.5613 53.7676 58.6077 54.074 58.6077 54.5208L58.5967 55.7219C58.5967 56.0637 58.6125 56.3164 58.6443 56.48C58.6785 56.6411 58.7407 56.8145 58.8311 57H57.813C57.7861 56.9316 57.7532 56.8303 57.7141 56.696C57.697 56.635 57.6848 56.5947 57.6775 56.5752C57.5017 56.7461 57.3137 56.8743 57.1135 56.9597C56.9133 57.0452 56.6997 57.0879 56.4727 57.0879C56.0723 57.0879 55.7561 56.9792 55.5242 56.762C55.2947 56.5447 55.1799 56.27 55.1799 55.938C55.1799 55.7183 55.2324 55.5229 55.3374 55.3521C55.4424 55.1787 55.5889 55.0469 55.7769 54.9565C55.9673 54.8638 56.2407 54.7832 56.5972 54.7148C57.0781 54.6245 57.4114 54.5403 57.5969 54.4622V54.3596C57.5969 54.1619 57.5481 54.0215 57.4504 53.9385C57.3528 53.853 57.1685 53.8103 56.8975 53.8103C56.7144 53.8103 56.5715 53.8469 56.469 53.9202C56.3665 53.991 56.2834 54.1167 56.22 54.2974ZM57.5969 55.1323C57.4651 55.1763 57.2563 55.2288 56.9707 55.2898C56.6851 55.3508 56.4983 55.4106 56.4104 55.4692C56.2761 55.5645 56.209 55.6853 56.209 55.8318C56.209 55.9758 56.2627 56.1003 56.3701 56.2053C56.4775 56.3103 56.6143 56.3628 56.7803 56.3628C56.9658 56.3628 57.1428 56.3018 57.3113 56.1797C57.4358 56.0869 57.5176 55.9734 57.5566 55.8391C57.5835 55.7512 57.5969 55.584 57.5969 55.3374V55.1323ZM59.5964 53.1108H60.5559V53.6821C60.6804 53.4868 60.8489 53.3281 61.0613 53.2061C61.2737 53.084 61.5093 53.0229 61.7681 53.0229C62.2197 53.0229 62.603 53.2 62.918 53.554C63.2329 53.908 63.3904 54.4011 63.3904 55.0334C63.3904 55.6829 63.2317 56.1882 62.9143 56.5496C62.5969 56.9084 62.2124 57.0879 61.7607 57.0879C61.5459 57.0879 61.3506 57.0452 61.1748 56.9597C61.0015 56.8743 60.8184 56.7278 60.6255 56.5203V58.4795H59.5964V53.1108ZM60.6145 54.9895C60.6145 55.4265 60.7012 55.75 60.8745 55.96C61.0479 56.1675 61.259 56.2712 61.5081 56.2712C61.7473 56.2712 61.9463 56.176 62.105 55.9856C62.2637 55.7927 62.343 55.4778 62.343 55.0408C62.343 54.6331 62.2612 54.3303 62.0977 54.1326C61.9341 53.9348 61.7314 53.8359 61.4897 53.8359C61.2383 53.8359 61.0295 53.9336 60.8635 54.1289C60.6975 54.3218 60.6145 54.6086 60.6145 54.9895ZM66.093 55.6194L67.1184 55.5132C67.1477 55.7451 67.2344 55.9294 67.3784 56.0662C67.5225 56.2004 67.6885 56.2676 67.8765 56.2676C68.0913 56.2676 68.2732 56.1809 68.4221 56.0076C68.571 55.8318 68.6455 55.5681 68.6455 55.2166C68.6455 54.887 68.571 54.6404 68.4221 54.4768C68.2756 54.3108 68.084 54.2278 67.8472 54.2278C67.5518 54.2278 67.2869 54.3584 67.0525 54.6196L66.2175 54.4988L66.7449 51.7046H69.4658V52.6677H67.5249L67.3638 53.5796C67.5933 53.4648 67.8276 53.4075 68.0669 53.4075C68.5234 53.4075 68.9104 53.5735 69.2278 53.9055C69.5452 54.2375 69.7039 54.6685 69.7039 55.1982C69.7039 55.6401 69.5757 56.0344 69.3193 56.3811C68.9702 56.8547 68.4856 57.0916 67.8655 57.0916C67.3699 57.0916 66.9658 56.9585 66.6533 56.6924C66.3408 56.4263 66.1541 56.0686 66.093 55.6194Z" fill="black"/>
<defs>
<filter id="filter0_d_389_2032" x="0" y="0" width="99.6519" height="92.4008" filterUnits="userSpaceOnUse" color-interpolation-filters="sRGB">
<feFlood flood-opacity="0" result="BackgroundImageFix"/>
<feColorMatrix in="SourceAlpha" type="matrix" values="0 0 0 0 0 0 0 0 0 0 0 0 0 0 0 0 0 0 127 0" result="hardAlpha"/>
<feOffset dy="16"/>
<feGaussianBlur stdDeviation="16"/>
<feColorMatrix type="matrix" values="0 0 0 0 0 0 0 0 0 0 0 0 0 0 0 0 0 0 0.2 0"/>
<feBlend mode="normal" in2="BackgroundImageFix" result="effect1_dropShadow_389_2032"/>
<feBlend mode="normal" in="SourceGraphic" in2="effect1_dropShadow_389_2032" result="shape"/>
</filter>
</defs>
</svg>
