<svg width="285" height="356" viewBox="0 0 285 356" fill="none" xmlns="http://www.w3.org/2000/svg">
<g clip-path="url(#clip0_389_503)">
<path d="M74.3107 250.639C74.4039 250.589 74.6904 250.875 74.9626 251.283C75.2348 251.691 75.3852 252.078 75.2993 252.135C75.2133 252.192 74.9268 251.906 74.6474 251.491C74.3681 251.076 74.2248 250.696 74.3107 250.639Z" fill="#95A1A7"/>
<path d="M71.2448 244.182C71.6313 244.65 71.921 245.19 72.0972 245.771C72.3802 246.307 72.5531 246.893 72.6058 247.496C71.9289 246.497 71.4656 245.369 71.2448 244.182Z" fill="#95A1A7"/>
<path d="M69.5826 237.225C70.0416 238.341 70.2636 239.54 70.2344 240.746C69.9485 240.212 69.7754 239.625 69.7259 239.021C69.558 238.438 69.5093 237.827 69.5826 237.225Z" fill="#95A1A7"/>
<path d="M69.3319 230.074C69.5588 231.258 69.5417 232.476 69.2818 233.653C69.0999 233.075 69.0437 232.465 69.117 231.863C69.0612 231.258 69.1344 230.648 69.3319 230.074Z" fill="#95A1A7"/>
<path d="M70.4569 223.038C70.5146 223.641 70.4488 224.25 70.2635 224.827C70.1921 225.429 70.0022 226.01 69.7048 226.538C69.6473 225.934 69.7131 225.326 69.8982 224.748C69.9709 224.147 70.1607 223.566 70.4569 223.038Z" fill="#95A1A7"/>
<path d="M73.0642 216.344C72.825 217.522 72.3365 218.635 71.6315 219.608C71.7032 219.006 71.8957 218.424 72.1974 217.898C72.6057 216.989 72.971 216.294 73.0642 216.344Z" fill="#95A1A7"/>
<path d="M77.0112 210.375C76.8127 210.949 76.5009 211.477 76.0943 211.929C75.7719 212.44 75.3621 212.89 74.8837 213.26C74.7834 213.196 75.1989 212.501 75.7935 211.707C76.388 210.912 76.9038 210.311 77.0112 210.375Z" fill="#95A1A7"/>
<path d="M81.825 205.078C81.9038 205.15 81.4095 205.794 80.729 206.51C80.0485 207.225 79.4324 207.741 79.3537 207.676C79.2749 207.612 79.7691 206.961 80.4568 206.245C81.1445 205.529 81.7534 204.999 81.825 205.078Z" fill="#95A1A7"/>
<path d="M86.8678 199.981C86.9466 200.053 86.438 200.697 85.7431 201.413C85.0483 202.129 84.4251 202.63 84.3535 202.558C84.2818 202.487 84.7833 201.843 85.4781 201.127C86.1729 200.411 86.7962 199.91 86.8678 199.981Z" fill="#95A1A7"/>
<path d="M91.5813 194.584C91.3544 195.147 91.0157 195.659 90.5856 196.088C89.9552 196.861 89.3822 197.426 89.3034 197.355C89.5369 196.795 89.8748 196.285 90.2991 195.851C90.9223 195.121 91.4954 194.527 91.5813 194.584Z" fill="#95A1A7"/>
<path d="M95.2347 188.443C95.1706 189.05 94.9645 189.634 94.633 190.146C94.4057 190.714 94.0502 191.221 93.5943 191.628C93.7332 191.039 93.9758 190.479 94.3107 189.975C94.5298 189.416 94.8423 188.898 95.2347 188.443Z" fill="#95A1A7"/>
<path d="M96.9612 181.521C97.1008 182.116 97.0885 182.736 96.9254 183.325C96.8841 183.936 96.6948 184.528 96.3738 185.05C96.337 184.45 96.3999 183.847 96.56 183.268C96.5988 182.668 96.7342 182.078 96.9612 181.521Z" fill="#95A1A7"/>
<path d="M96.4454 174.414C96.7629 174.936 96.9451 175.529 96.9754 176.139C97.1226 176.733 97.1226 177.355 96.9754 177.95C96.7499 177.391 96.6192 176.798 96.5886 176.196C96.4446 175.613 96.3962 175.012 96.4454 174.414Z" fill="#95A1A7"/>
<path d="M93.63 167.864C93.716 167.807 94.2389 168.429 94.7117 169.296C95.053 169.805 95.2645 170.39 95.3277 170.999C94.9333 170.545 94.6141 170.03 94.3822 169.475C94.0507 168.979 93.7971 168.436 93.63 167.864Z" fill="#95A1A7"/>
<path d="M88.6375 162.782C89.2215 162.965 89.7524 163.287 90.1848 163.719C90.9513 164.364 91.4527 165.008 91.3811 165.079C91.3095 165.151 90.6648 164.636 89.9484 164.006C89.2321 163.376 88.5731 162.868 88.6375 162.782Z" fill="#95A1A7"/>
<path d="M82.1256 159.876C82.7359 159.838 83.3459 159.951 83.9022 160.205C84.5003 160.343 85.0543 160.629 85.5139 161.035C84.9144 160.968 84.3294 160.806 83.7804 160.556C83.1942 160.424 82.6346 160.194 82.1256 159.876Z" fill="#95A1A7"/>
<path d="M75.0056 159.554C75.5538 159.281 76.163 159.152 76.7749 159.182C77.3827 159.092 78.0034 159.156 78.58 159.368C77.9982 159.519 77.3969 159.582 76.7964 159.554C76.2031 159.648 75.5988 159.648 75.0056 159.554Z" fill="#95A1A7"/>
<path d="M68.3935 162.195C68.3362 162.109 68.9522 161.572 69.8262 161.099C70.3334 160.752 70.9246 160.547 71.5382 160.505C71.0713 160.883 70.5527 161.191 69.9981 161.422C69.5057 161.759 68.9646 162.02 68.3935 162.195Z" fill="#95A1A7"/>
<path d="M63.4797 167.334C63.6356 166.741 63.9386 166.197 64.3608 165.752C64.9697 164.957 65.6001 164.435 65.6717 164.507C65.7434 164.578 65.2491 165.222 64.6545 165.981C64.06 166.74 63.5657 167.384 63.4797 167.334Z" fill="#95A1A7"/>
<path d="M61.0658 174.02C60.9533 173.417 61.0002 172.796 61.2019 172.216C61.2922 171.606 61.5389 171.029 61.9183 170.542C61.8959 171.142 61.7824 171.736 61.5816 172.302C61.499 172.898 61.325 173.478 61.0658 174.02Z" fill="#95A1A7"/>
<path d="M61.9181 181.071C61.5387 180.583 61.292 180.006 61.2017 179.396C60.9959 178.817 60.9465 178.195 61.0585 177.592C61.3068 178.138 61.478 178.716 61.5671 179.31C61.7687 179.877 61.8869 180.47 61.9181 181.071Z" fill="#95A1A7"/>
<path d="M65.5495 187.197C65.4707 187.269 64.8761 186.711 64.2959 185.895C63.8905 185.436 63.6029 184.886 63.4578 184.291C63.5509 184.241 64.0237 184.885 64.5967 185.68C64.995 186.131 65.3168 186.643 65.5495 187.197Z" fill="#95A1A7"/>
<path d="M70.8223 192.029C70.2438 191.835 69.7172 191.512 69.2822 191.084C68.5014 190.462 67.9642 189.853 68.0358 189.774C68.5826 190.029 69.0817 190.375 69.5115 190.798C70.2779 191.414 70.8868 191.943 70.8223 192.029Z" fill="#95A1A7"/>
<path d="M77.0325 195.586C75.8651 195.275 74.7765 194.721 73.8376 193.961C74.4355 194.064 75.0074 194.283 75.521 194.606C76.086 194.827 76.6001 195.161 77.0325 195.586Z" fill="#95A1A7"/>
<path d="M83.8518 197.756C83.2439 197.825 82.6282 197.751 82.0538 197.541C81.4488 197.451 80.8741 197.218 80.3776 196.861C80.9812 196.87 81.579 196.979 82.147 197.183C82.7447 197.271 83.322 197.465 83.8518 197.756Z" fill="#95A1A7"/>
<path d="M90.9871 198.12C89.8232 198.478 88.5826 198.502 87.4054 198.192C87.9866 198.038 88.5899 197.985 89.1891 198.035C89.789 197.963 90.3966 197.992 90.9871 198.12Z" fill="#95A1A7"/>
<path d="M97.8779 196.281C96.8935 196.995 95.7256 197.415 94.5112 197.49C95.0161 197.161 95.5731 196.919 96.1587 196.775C96.6994 196.513 97.2808 196.346 97.8779 196.281Z" fill="#95A1A7"/>
<path d="M103.852 192.366C103.924 192.444 103.379 193.082 102.584 193.654C102.139 194.072 101.601 194.378 101.015 194.549C100.958 194.456 101.581 193.962 102.362 193.361C102.803 192.952 103.306 192.616 103.852 192.366Z" fill="#95A1A7"/>
<path d="M108.516 186.954C108.35 187.541 108.048 188.08 107.634 188.529C107.04 189.33 106.445 189.881 106.367 189.817C106.288 189.753 106.753 189.101 107.341 188.307C107.928 187.512 108.422 186.897 108.516 186.954Z" fill="#95A1A7"/>
<path d="M111.617 180.512C111.615 181.123 111.465 181.725 111.181 182.266C110.808 183.196 110.371 183.884 110.278 183.834C110.364 183.239 110.551 182.663 110.83 182.13C111.002 181.551 111.268 181.005 111.617 180.512Z" fill="#95A1A7"/>
<path d="M113.007 173.504C113.162 174.708 112.994 175.931 112.52 177.048C112.5 175.849 112.664 174.654 113.007 173.504Z" fill="#95A1A7"/>
<path d="M112.82 166.353C113.054 166.913 113.166 167.515 113.15 168.121C113.253 168.72 113.236 169.333 113.1 169.925C112.763 168.764 112.668 167.546 112.82 166.346V166.353Z" fill="#95A1A7"/>
<path d="M111.288 159.367C111.62 159.877 111.842 160.449 111.94 161.049C112.155 161.615 112.253 162.219 112.226 162.824C111.897 162.313 111.676 161.741 111.574 161.142C111.358 160.576 111.261 159.972 111.288 159.367Z" fill="#95A1A7"/>
<path d="M108.523 152.754C108.616 152.703 109.046 153.391 109.476 154.285C109.779 154.813 109.969 155.398 110.034 156.003C109.348 155.014 108.837 153.915 108.523 152.754Z" fill="#95A1A7"/>
<path d="M104.998 146.519C105.091 146.461 105.564 147.113 106.066 147.95C106.414 148.442 106.658 149 106.782 149.589C106.336 149.186 105.973 148.7 105.715 148.158C105.372 147.663 105.129 147.106 104.998 146.519Z" fill="#95A1A7"/>
<path d="M101.446 140.299C101.539 140.248 101.997 140.914 102.477 141.773C102.823 142.274 103.067 142.838 103.193 143.434C102.755 143.013 102.404 142.509 102.162 141.952C101.812 141.456 101.568 140.893 101.446 140.299Z" fill="#95A1A7"/>
<path d="M98.6445 133.713C99.2929 134.732 99.72 135.876 99.8981 137.07C99.5189 136.594 99.2455 136.043 99.0958 135.453C98.8286 134.91 98.675 134.318 98.6445 133.713Z" fill="#95A1A7"/>
<path d="M97.4267 126.677C97.6375 127.243 97.7442 127.842 97.7419 128.445C97.8664 129.034 97.8882 129.639 97.8064 130.235C97.5242 129.693 97.3768 129.092 97.3766 128.481C97.2525 127.884 97.2697 127.266 97.4267 126.677Z" fill="#95A1A7"/>
<path d="M98.0212 119.554C98.0781 120.154 98.0345 120.759 97.8922 121.344C97.8667 121.947 97.7332 122.541 97.4982 123.097C97.3595 122.502 97.3595 121.882 97.4982 121.286C97.5335 120.676 97.7127 120.082 98.0212 119.554Z" fill="#95A1A7"/>
<path d="M100.356 112.805C100.265 113.401 100.071 113.978 99.783 114.508C99.6053 115.084 99.3316 115.626 98.9735 116.112C99.1256 114.904 99.6035 113.761 100.356 112.805Z" fill="#95A1A7"/>
<path d="M104.346 106.871C104.425 106.942 103.952 107.587 103.351 108.367C102.749 109.147 102.24 109.799 102.154 109.705C102.324 109.118 102.634 108.58 103.057 108.138C103.666 107.35 104.275 106.806 104.346 106.871Z" fill="#95A1A7"/>
<path d="M109.726 102.161C109.784 102.247 109.161 102.755 108.387 103.357C107.948 103.77 107.442 104.107 106.89 104.351C106.818 104.273 107.37 103.636 108.158 103.063C108.603 102.644 109.14 102.335 109.726 102.161Z" fill="#95A1A7"/>
<path d="M116.102 98.9253C115.619 99.2874 115.079 99.5657 114.504 99.7485C113.979 100.043 113.407 100.244 112.814 100.343C112.763 100.25 113.444 99.8057 114.361 99.412C114.893 99.1108 115.49 98.9437 116.102 98.9253Z" fill="#95A1A7"/>
<path d="M121.316 97.6083C121.316 97.7085 120.951 97.866 120.471 97.9519C119.991 98.0378 119.575 98.0378 119.554 97.9519C119.532 97.866 119.912 97.6942 120.399 97.6011C120.886 97.5081 121.316 97.5081 121.316 97.6083Z" fill="#95A1A7"/>
<path d="M135.915 76.535C135.915 76.535 144.325 70.5366 155.972 74.3876C155.972 74.3876 156.925 84.0223 147.591 91.6813" fill="#296998"/>
<path d="M109.389 94.3299C109.747 94.8668 118.881 109.533 118.881 109.533L146.295 92.6549C147.426 91.9581 148.4 91.0341 149.156 89.9413C149.911 88.8486 150.432 87.611 150.683 86.3069C150.935 85.0028 150.913 83.6607 150.619 82.3655C150.325 81.0703 149.764 79.8503 148.974 78.7828C147.504 76.8013 145.327 75.462 142.895 75.0434C140.463 74.6248 137.963 75.1591 135.915 76.5352L109.389 94.3299Z" fill="#296998"/>
<path d="M118.881 109.533L118.265 119.855C118.265 119.855 136.03 111.266 131.596 101.703L118.881 109.533Z" fill="#95A1A7"/>
<path d="M122.09 85.8121C122.09 85.8121 110.041 80.5009 100.127 88.2888L109.389 94.3301L122.09 85.8121Z" fill="#95A1A7"/>
<path d="M122.032 94.3369L104.891 105.074C104.891 105.074 105.478 106.921 105.936 106.763C106.395 106.606 119.21 99.0325 123.386 96.563C123.546 96.4681 123.683 96.3399 123.788 96.187C123.894 96.0342 123.965 95.8604 123.997 95.6776C124.029 95.4947 124.021 95.3071 123.974 95.1276C123.926 94.9481 123.841 94.7809 123.723 94.6375C123.526 94.39 123.246 94.2229 122.935 94.1675C122.623 94.1121 122.302 94.1724 122.032 94.3369Z" fill="#95A1A7"/>
<path d="M143.138 87.4697C143.832 84.522 142.003 81.5702 139.053 80.8766C136.103 80.1831 133.149 82.0104 132.455 84.9581C131.761 87.9058 133.59 90.8576 136.54 91.5512C139.49 92.2447 142.444 90.4174 143.138 87.4697Z" fill="#95A1A7"/>
<path d="M143.287 86.2127C143.244 86.2127 143.287 85.7259 143.043 84.8956C142.723 83.7201 142.017 82.6864 141.037 81.9608C140.372 81.4621 139.599 81.1262 138.781 80.9802C137.845 80.8134 136.881 80.8974 135.987 81.2236C134.989 81.5769 134.12 82.223 133.494 83.0775C132.824 83.9856 132.463 85.0843 132.463 86.2127C132.463 87.341 132.824 88.4397 133.494 89.3479C134.114 90.198 134.971 90.8456 135.959 91.209C136.852 91.5348 137.816 91.6187 138.752 91.4523C139.571 91.3063 140.344 90.9704 141.009 90.4717C141.986 89.7446 142.692 88.7115 143.014 87.5369C143.236 86.7066 143.215 86.2127 143.258 86.2127C143.277 86.3313 143.277 86.452 143.258 86.5706C143.256 86.9082 143.215 87.2444 143.136 87.5727C142.894 88.615 142.354 89.5647 141.582 90.3066C140.81 91.0486 139.84 91.551 138.788 91.753C137.742 91.9577 136.658 91.8604 135.665 91.4725C134.672 91.0846 133.81 90.4222 133.179 89.5626C132.458 88.5943 132.069 87.4196 132.069 86.2127C132.069 85.0058 132.458 83.831 133.179 82.8627C133.842 81.9576 134.764 81.2739 135.822 80.9015C136.71 80.5801 137.665 80.4896 138.597 80.6387C139.53 80.7877 140.409 81.1712 141.152 81.7533C142.178 82.5268 142.898 83.6369 143.186 84.8885C143.265 85.2167 143.306 85.553 143.308 85.8906C143.317 85.9984 143.31 86.107 143.287 86.2127Z" fill="#95A1A7"/>
<path d="M149.97 89.8989C149.898 89.8989 149.819 88.8324 149.397 87.1646C149.147 86.189 148.828 85.2323 148.444 84.3014C147.49 82.0289 146.141 79.9426 144.461 78.1383C143.773 77.4043 143.033 76.7202 142.248 76.0912C140.894 75.0246 139.956 74.5092 139.991 74.4448C140.23 74.5248 140.459 74.633 140.672 74.7669C140.935 74.9035 141.191 75.054 141.438 75.2179C141.725 75.4111 142.062 75.6116 142.405 75.8836C143.229 76.489 143.998 77.1644 144.705 77.9021C146.455 79.7062 147.833 81.8368 148.759 84.1725C149.138 85.1221 149.438 86.1013 149.655 87.1001C149.762 87.5225 149.805 87.9161 149.862 88.2597C149.91 88.5512 149.941 88.8452 149.956 89.1402C149.997 89.3911 150.002 89.6466 149.97 89.8989Z" fill="#95A1A7"/>
<path d="M148.494 90.658C148.422 90.658 148.336 89.5772 147.906 87.8807C147.651 86.8909 147.328 85.9199 146.939 84.9746C146.451 83.8218 145.869 82.711 145.199 81.6533C144.516 80.6054 143.749 79.6143 142.906 78.6899C142.208 77.9378 141.456 77.2369 140.657 76.5926C139.289 75.4974 138.336 74.9677 138.372 74.9033C138.624 74.9856 138.864 75.0986 139.088 75.2397C139.353 75.3791 139.609 75.5345 139.855 75.705C140.148 75.8983 140.492 76.113 140.836 76.4208C141.662 77.0343 142.438 77.7117 143.157 78.4465C144.031 79.3739 144.819 80.3777 145.514 81.4457C146.192 82.5237 146.774 83.659 147.254 84.8386C147.638 85.8049 147.942 86.8007 148.164 87.8163C148.272 88.2458 148.315 88.6466 148.372 88.9902C148.425 89.286 148.458 89.5849 148.472 89.885C148.508 90.1411 148.515 90.4004 148.494 90.658Z" fill="#95A1A7"/>
<path fill-rule="evenodd" clip-rule="evenodd" d="M34.8033 155.776C35.9359 156.367 36.9852 157.106 37.9241 157.972L41.26 156.789L44.3897 161.726L41.8967 164.235C42.279 165.456 42.4991 166.721 42.5514 167.999L45.7438 169.513L44.4615 175.195H40.9282C40.3335 176.327 39.5918 177.375 38.7222 178.313L39.9149 181.646L34.9648 184.774L32.4538 182.363C31.2353 182.744 29.9721 182.964 28.6964 183.017L27.1809 186.208L21.4685 184.926V181.396C20.3345 180.803 19.285 180.062 18.3478 179.191L15.0118 180.383L11.8731 175.436L14.3751 172.936C13.9944 171.716 13.7743 170.45 13.7205 169.173L10.528 167.658L11.8014 161.95H15.3257C15.9151 160.817 16.654 159.768 17.5227 158.832L16.348 155.48L21.2891 152.344L23.8001 154.844C25.0214 154.462 26.2877 154.242 27.5665 154.19L29.082 151L34.7944 152.281V155.812L34.8033 155.776ZM29.7635 162.497C28.5524 162.226 27.288 162.32 26.1303 162.767C24.9725 163.214 23.9734 163.994 23.2591 165.008C22.5448 166.022 22.1474 167.225 22.1172 168.465C22.0869 169.705 22.4251 170.926 23.0891 171.974C23.7531 173.022 24.713 173.849 25.8476 174.352C26.9822 174.855 28.2404 175.01 29.4634 174.799C30.6863 174.587 31.8191 174.018 32.7185 173.164C33.6178 172.309 34.2435 171.207 34.5164 169.997C34.6978 169.193 34.7187 168.361 34.578 167.548C34.4372 166.736 34.1376 165.959 33.6961 165.262C33.2547 164.566 32.6801 163.963 32.0054 163.488C31.3306 163.014 30.5688 162.677 29.7635 162.497Z" fill="#95A1A7"/>
<g opacity="0.8">
<path opacity="0.8" fill-rule="evenodd" clip-rule="evenodd" d="M34.8033 155.776C35.9359 156.367 36.9852 157.106 37.9241 157.972L41.26 156.789L44.3897 161.726L41.8967 164.235C42.279 165.456 42.4991 166.721 42.5514 167.999L45.7438 169.513L44.4615 175.195H40.9282C40.3335 176.327 39.5918 177.375 38.7222 178.313L39.9149 181.646L34.9648 184.774L32.4538 182.363C31.2353 182.744 29.9721 182.964 28.6964 183.017L27.1809 186.208L21.4685 184.926V181.396C20.3345 180.803 19.285 180.062 18.3478 179.191L15.0118 180.383L11.8731 175.436L14.3751 172.936C13.9944 171.716 13.7743 170.45 13.7205 169.173L10.528 167.658L11.8014 161.95H15.3257C15.9151 160.817 16.654 159.768 17.5227 158.832L16.348 155.48L21.2891 152.344L23.8001 154.844C25.0214 154.462 26.2877 154.242 27.5665 154.19L29.082 151L34.7944 152.281V155.812L34.8033 155.776ZM29.7635 162.497C28.5524 162.226 27.288 162.32 26.1303 162.767C24.9725 163.214 23.9734 163.994 23.2591 165.008C22.5448 166.022 22.1474 167.225 22.1172 168.465C22.0869 169.705 22.4251 170.926 23.0891 171.974C23.7531 173.022 24.713 173.849 25.8476 174.352C26.9822 174.855 28.2404 175.01 29.4634 174.799C30.6863 174.587 31.8191 174.018 32.7185 173.164C33.6178 172.309 34.2435 171.207 34.5164 169.997C34.6978 169.193 34.7187 168.361 34.578 167.548C34.4372 166.736 34.1376 165.959 33.6961 165.262C33.2547 164.566 32.6801 163.963 32.0054 163.488C31.3306 163.014 30.5688 162.677 29.7635 162.497Z" fill="#95A1A7"/>
</g>
<path fill-rule="evenodd" clip-rule="evenodd" d="M14.1419 189.415C14.7934 189.758 15.3965 190.186 15.9355 190.688L17.8815 189.998L19.675 192.874L18.2222 194.335C18.4461 195.044 18.5758 195.779 18.6078 196.521L20.4641 197.417L19.8095 200.733H17.7469C17.4021 201.383 16.974 201.985 16.4735 202.525L17.164 204.461L14.2765 206.253L12.8237 204.801C12.1108 205.021 11.3722 205.148 10.6266 205.178L9.72988 207.041L6.4029 206.289V204.237C5.75014 203.892 5.14687 203.461 4.60937 202.955L2.66339 203.645L0.869867 200.769L2.32262 199.308C2.10166 198.599 1.97503 197.864 1.94599 197.122L0.080719 196.226L0.825033 192.901H2.77101C3.12024 192.252 3.5512 191.649 4.05338 191.109L3.36287 189.173L6.24147 187.381L7.7032 188.842C8.41144 188.614 9.14771 188.484 9.8913 188.456L10.7881 186.602L14.115 187.345V189.406L14.1419 189.415ZM11.2095 193.322C10.5034 193.162 9.76562 193.215 9.08967 193.475C8.41371 193.734 7.82997 194.188 7.41231 194.779C6.99466 195.37 6.76188 196.072 6.74345 196.795C6.72503 197.518 6.92178 198.231 7.3088 198.842C7.69582 199.454 8.25571 199.937 8.91758 200.23C9.57946 200.523 10.3135 200.614 11.0269 200.49C11.7403 200.366 12.4009 200.034 12.9251 199.535C13.4493 199.036 13.8135 198.392 13.9716 197.686C14.1831 196.742 14.0111 195.752 13.4933 194.934C12.9756 194.116 12.1543 193.536 11.2095 193.322Z" fill="#286998"/>
<g opacity="0.4">
<path opacity="0.4" fill-rule="evenodd" clip-rule="evenodd" d="M14.1419 189.415C14.7934 189.758 15.3965 190.186 15.9355 190.688L17.8815 189.998L19.675 192.874L18.2222 194.335C18.4461 195.044 18.5758 195.779 18.6078 196.521L20.4641 197.417L19.8095 200.733H17.7469C17.4021 201.383 16.974 201.985 16.4735 202.525L17.164 204.461L14.2765 206.253L12.8237 204.801C12.1108 205.021 11.3722 205.148 10.6266 205.178L9.72988 207.041L6.4029 206.289V204.237C5.75014 203.892 5.14687 203.461 4.60937 202.955L2.66339 203.645L0.869867 200.769L2.32262 199.308C2.10166 198.599 1.97503 197.864 1.94599 197.122L0.080719 196.226L0.825033 192.901H2.77101C3.12024 192.252 3.5512 191.649 4.05338 191.109L3.36287 189.173L6.24147 187.381L7.7032 188.842C8.41144 188.614 9.14771 188.484 9.8913 188.456L10.7881 186.602L14.115 187.345V189.406L14.1419 189.415ZM11.2095 193.322C10.5034 193.162 9.76562 193.215 9.08967 193.475C8.41371 193.734 7.82997 194.188 7.41231 194.779C6.99466 195.37 6.76188 196.072 6.74345 196.795C6.72503 197.518 6.92178 198.231 7.3088 198.842C7.69582 199.454 8.25571 199.937 8.91758 200.23C9.57946 200.523 10.3135 200.614 11.0269 200.49C11.7403 200.366 12.4009 200.034 12.9251 199.535C13.4493 199.036 13.8135 198.392 13.9716 197.686C14.1831 196.742 14.0111 195.752 13.4933 194.934C12.9756 194.116 12.1543 193.536 11.2095 193.322Z" fill="#286998"/>
</g>
<path d="M214.599 176.349C216.649 175.76 218.444 174.502 219.696 172.776C220.949 171.05 221.587 168.955 221.511 166.825C221.394 164.871 220.68 163.054 220.758 161.139C220.885 158.208 222.86 155.659 224.346 153.08C225.832 150.501 226.819 147.111 225.089 144.688C223.975 143.115 221.99 142.412 220.631 141.044C219.272 139.676 218.676 137.85 217.952 136.101C217.229 134.352 216.32 132.545 214.677 131.617C213.035 130.689 210.522 131.089 209.848 132.858" fill="#263238"/>
<path d="M196.845 128.159C199.778 126.293 200.482 121.985 198.889 118.907C197.295 115.83 193.932 113.955 190.51 113.398C188.021 113.019 185.477 113.235 183.086 114.026C180.696 114.817 178.527 116.162 176.755 117.95C174.868 119.904 173.333 122.434 170.772 123.323C168.523 124.114 166.03 123.401 163.665 123.714C162.087 123.999 160.593 124.633 159.292 125.569C157.991 126.506 156.917 127.721 156.146 129.126C154.632 131.952 153.723 135.063 153.478 138.26C153.135 141.191 152.901 144.366 150.887 146.486C148.873 148.605 145.793 148.996 143.349 150.471C141.098 151.954 139.517 154.258 138.943 156.89C138.369 159.522 138.849 162.275 140.279 164.558C141.257 165.965 142.645 167.264 142.753 168.974C142.86 170.684 141.853 171.905 141.374 173.429C141.128 174.392 141.091 175.397 141.266 176.376C141.441 177.355 141.824 178.285 142.389 179.103C142.954 179.922 143.688 180.609 144.542 181.12C145.396 181.631 146.349 181.953 147.338 182.065C149.371 182.182 151.542 181.39 153.37 182.299C155.198 183.208 155.853 185.386 157.007 187.047C158.198 188.648 159.903 189.794 161.836 190.291C163.77 190.789 165.816 190.609 167.634 189.782C169.129 189.049 170.567 187.828 172.199 187.955C173.832 188.082 175.132 189.479 176.794 189.792C178.935 190.202 180.959 188.629 182.23 186.861C183.501 185.093 184.39 183.012 186.013 181.566C188.145 179.671 191.136 179.212 193.834 178.284C196.816 177.254 199.542 175.597 201.828 173.424C204.113 171.251 205.906 168.613 207.084 165.688C208.262 162.764 208.798 159.621 208.656 156.471C208.513 153.322 207.697 150.24 206.26 147.433" fill="#263238"/>
<path d="M203.327 131.998C204.493 132.125 205.568 132.684 206.341 133.565C207.114 134.446 207.528 135.584 207.502 136.756L204.706 199.932C204.588 207.396 193.678 211.587 185.681 211.401C177.605 211.215 177.351 207.259 177.244 200.157C177.078 188.297 177.097 183.843 177.087 183.911C177.078 183.979 166.891 182.201 164.808 168.896C163.772 162.272 164.124 151.429 164.701 142.568C165.229 134.587 170.566 124.808 178.495 125.668L203.327 131.998Z" fill="#FFBE9D"/>
<path d="M167.585 151.174C167.582 151.619 167.752 152.047 168.058 152.369C168.364 152.692 168.783 152.883 169.228 152.903C169.444 152.921 169.663 152.894 169.869 152.826C170.076 152.758 170.266 152.649 170.43 152.507C170.594 152.364 170.728 152.189 170.824 151.994C170.919 151.799 170.975 151.587 170.987 151.37C170.995 150.925 170.829 150.496 170.524 150.172C170.219 149.849 169.799 149.658 169.355 149.64C169.137 149.623 168.919 149.649 168.712 149.717C168.504 149.785 168.313 149.894 168.148 150.037C167.983 150.179 167.849 150.354 167.752 150.549C167.656 150.744 167.599 150.957 167.585 151.174Z" fill="#263238"/>
<path d="M166.999 148.215C167.214 148.439 168.504 147.482 170.342 147.492C172.18 147.502 173.519 148.42 173.725 148.195C173.93 147.97 173.607 147.697 173.021 147.267C172.227 146.714 171.281 146.421 170.313 146.427C169.358 146.419 168.426 146.717 167.654 147.277C167.087 147.707 166.891 148.117 166.999 148.215Z" fill="#263238"/>
<path d="M185.897 151.175C185.894 151.619 186.063 152.047 186.369 152.37C186.675 152.692 187.095 152.884 187.539 152.904C187.756 152.921 187.974 152.895 188.18 152.827C188.387 152.759 188.578 152.65 188.742 152.507C188.906 152.364 189.039 152.19 189.135 151.995C189.231 151.799 189.286 151.587 189.299 151.37C189.307 150.924 189.139 150.493 188.832 150.17C188.524 149.846 188.102 149.656 187.656 149.641C187.439 149.624 187.221 149.65 187.015 149.718C186.808 149.786 186.617 149.895 186.453 150.038C186.289 150.181 186.156 150.355 186.06 150.55C185.964 150.745 185.909 150.958 185.897 151.175Z" fill="#263238"/>
<path d="M185.055 148.595C185.27 148.82 186.561 147.863 188.399 147.873C190.237 147.882 191.576 148.849 191.782 148.576C191.987 148.302 191.664 148.078 191.078 147.648C190.284 147.095 189.338 146.801 188.37 146.808C187.416 146.805 186.485 147.102 185.71 147.658C185.143 148.097 184.948 148.498 185.055 148.595Z" fill="#263238"/>
<path d="M178.358 162.194C177.407 161.892 176.422 161.708 175.425 161.647C174.956 161.598 174.507 161.501 174.448 161.188C174.41 160.703 174.522 160.219 174.77 159.801C175.21 158.668 175.68 157.476 176.159 156.235C178.114 151.155 179.502 146.974 179.297 146.906C179.092 146.837 177.342 150.882 175.386 155.952C174.927 157.212 174.477 158.404 174.057 159.547C173.756 160.109 173.666 160.76 173.803 161.383C173.87 161.549 173.975 161.697 174.109 161.816C174.243 161.934 174.402 162.02 174.575 162.067C174.836 162.14 175.106 162.179 175.377 162.184C176.366 162.311 177.368 162.314 178.358 162.194Z" fill="#263238"/>
<path d="M177.038 183.911C183.306 184.023 189.482 182.396 194.88 179.212C194.88 179.212 190.364 188.59 177.038 187.31V183.911Z" fill="#EB996E"/>
<path d="M179.121 166.62C179.469 166.188 179.92 165.85 180.432 165.636C180.945 165.423 181.502 165.341 182.054 165.399C182.46 165.434 182.854 165.552 183.212 165.745C183.57 165.938 183.885 166.203 184.137 166.522C184.377 166.83 184.52 167.204 184.546 167.594C184.572 167.984 184.481 168.373 184.283 168.71C183.985 169.038 183.597 169.27 183.167 169.378C182.738 169.485 182.286 169.464 181.868 169.316C181.003 169.002 180.206 168.525 179.522 167.909C179.32 167.757 179.145 167.572 179.004 167.362C178.936 167.261 178.9 167.142 178.9 167.02C178.9 166.899 178.936 166.78 179.004 166.678" fill="#E8505B"/>
<path d="M183.775 163.473C183.472 163.473 183.462 165.427 181.751 166.863C180.04 168.299 177.919 168.045 177.909 168.329C177.909 168.446 178.378 168.71 179.278 168.739C180.445 168.762 181.583 168.367 182.484 167.625C183.355 166.92 183.916 165.904 184.049 164.792C184.117 163.962 183.892 163.464 183.775 163.473Z" fill="#263238"/>
<path d="M184.234 145.381C184.41 145.879 186.248 145.645 188.399 145.909C190.55 146.173 192.309 146.768 192.583 146.319C192.72 146.104 192.417 145.635 191.713 145.147C190.774 144.557 189.715 144.186 188.612 144.062C187.51 143.939 186.395 144.066 185.349 144.434C184.557 144.746 184.156 145.147 184.234 145.381Z" fill="#263238"/>
<path d="M167.683 142.9C168.006 143.32 169.276 142.9 170.792 142.9C172.307 142.9 173.607 143.183 173.901 142.753C174.038 142.538 173.832 142.118 173.265 141.727C172.512 141.25 171.632 141.008 170.74 141.034C169.848 141.06 168.984 141.353 168.26 141.874C167.722 142.265 167.546 142.695 167.683 142.9Z" fill="#263238"/>
<path d="M194.528 127.67C196.044 126.609 197.77 125.886 199.59 125.549C201.41 125.212 203.281 125.269 205.077 125.717C208.626 126.693 211.568 129.937 211.695 133.532C211.773 135.876 210.718 138.416 211.803 140.497C212.888 142.578 215.234 143.33 216.975 144.796C218.308 145.96 219.213 147.538 219.546 149.276C219.879 151.014 219.621 152.814 218.812 154.389C217.356 157.056 214.306 159.009 214.051 162.018C213.807 164.851 216.192 167.245 216.779 170.029C217.414 173.097 215.713 176.271 213.279 178.313C210.845 180.355 207.755 181.478 204.744 182.553C202.398 183.403 199.856 184.263 197.441 183.706C196.015 183.323 194.734 182.527 193.759 181.418C192.785 180.309 192.161 178.936 191.967 177.473C191.821 176.014 191.993 174.542 192.471 173.156C192.948 171.77 193.72 170.503 194.733 169.443C196.444 167.557 198.849 165.965 199.26 163.474C199.895 159.566 195.281 156.43 195.564 152.523C195.711 150.51 197.138 148.84 198.321 147.179C199.504 145.518 200.54 143.438 199.807 141.552C198.83 139.09 195.633 138.446 193.677 136.668C192.871 135.91 192.292 134.943 192.004 133.875C191.715 132.808 191.73 131.681 192.045 130.621C192.4 129.562 193.038 128.619 193.889 127.895C194.74 127.17 195.772 126.691 196.874 126.508" fill="#263238"/>
<path d="M195.965 124.671C195.972 126.009 195.683 127.332 195.119 128.545C194.555 129.759 193.73 130.833 192.703 131.691C191.676 132.55 190.472 133.171 189.177 133.511C187.882 133.851 186.528 133.902 185.211 133.659C183.178 133.287 180.949 132.262 179.189 133.346C177.429 134.43 177.234 137.254 175.621 138.69C173.274 140.731 169.549 138.817 166.568 139.667C164.27 140.35 162.833 142.539 161.298 144.395C159.763 146.251 157.485 148 155.178 147.326C155.248 145.252 155.556 143.194 156.097 141.191C156.648 139.176 157.877 137.413 159.578 136.199C160.584 135.675 161.562 135.102 162.51 134.479C164.466 132.946 164.867 130.259 166.04 128.11C166.816 126.726 167.91 125.547 169.233 124.671C170.556 123.794 172.068 123.245 173.646 123.069C176.266 122.805 178.964 123.587 181.467 122.942C183.354 122.473 185.006 121.252 186.912 120.881C190.637 120.177 194.098 122.835 196.796 125.501" fill="#263238"/>
<path d="M109.219 256.388L132.829 254.229C132.829 254.229 147.357 215.983 165.267 206.712L176.872 226.964L152.03 273.591H103.539L109.219 256.388Z" fill="#2982E3"/>
<path opacity="0.3" d="M109.219 256.388L132.829 254.229C132.829 254.229 147.357 215.983 165.267 206.712L176.872 226.964L152.03 273.591H103.539L109.219 256.388Z" fill="black"/>
<path d="M118.546 267.134C119.712 264.502 121.196 262.022 122.965 259.749C121.782 262.373 120.3 264.852 118.546 267.134Z" fill="#FAFAFA"/>
<path d="M129.867 271.579C129.043 271.349 128.274 270.954 127.609 270.417C126.435 269.645 125.556 268.932 125.653 268.814C126.475 269.055 127.242 269.453 127.912 269.987C129.026 270.749 129.945 271.462 129.867 271.579Z" fill="#FAFAFA"/>
<path d="M188.31 270.524L200.491 221.376C201.51 217.253 204.062 213.672 207.629 211.361C211.196 209.051 215.509 208.186 219.692 208.94C223.989 209.717 227.813 212.14 230.348 215.693C232.882 219.246 233.928 223.648 233.262 227.961L225.812 275.995C224.923 280.911 222.522 285.428 218.944 288.918C215.366 292.407 210.789 294.696 205.849 295.465L196.17 296.969L188.31 270.524Z" fill="#2982E3"/>
<path d="M226.692 205.765C225.421 204.726 223.935 203.982 222.341 203.586C220.618 203.186 218.825 203.186 217.101 203.586C215.003 204.116 213.053 205.118 211.402 206.517C207.833 209.506 205.898 213.355 204.558 216.11C203.903 217.488 203.405 218.621 203.053 219.402C202.891 219.82 202.691 220.222 202.456 220.604C202.552 220.169 202.69 219.743 202.867 219.334C203.17 218.523 203.61 217.38 204.226 215.954C204.948 214.299 205.784 212.696 206.729 211.157C207.902 209.266 209.363 207.568 211.059 206.126C212.764 204.662 214.791 203.621 216.974 203.088C218.766 202.681 220.629 202.704 222.41 203.156C223.606 203.464 224.729 204.005 225.714 204.749C225.977 204.953 226.222 205.178 226.447 205.423C226.623 205.667 226.702 205.755 226.692 205.765Z" fill="#263238"/>
<path d="M157.7 216.823C157.604 216.988 157.489 217.142 157.358 217.282L156.322 218.533C155.413 219.617 154.132 221.2 152.666 223.242C148.768 228.524 145.942 234.518 144.346 240.884C142.655 248.377 142.567 255.392 142.283 260.423C142.156 262.943 142.039 264.985 141.931 266.392C141.872 267.056 141.824 267.593 141.784 268.013C141.772 268.204 141.746 268.393 141.706 268.58C141.679 268.392 141.679 268.201 141.706 268.013C141.706 267.583 141.706 267.036 141.755 266.382C141.755 264.907 141.863 262.884 141.941 260.413C142.136 255.392 142.156 248.348 143.896 240.777C145.494 234.348 148.392 228.314 152.411 223.046C153.927 221.014 155.256 219.451 156.205 218.406C156.674 217.878 157.065 217.488 157.319 217.224C157.434 217.079 157.561 216.945 157.7 216.823Z" fill="#263238"/>
<path d="M235.735 216.716C234.396 207.924 229.547 205.823 224.512 203.088C222.87 202.189 214.941 200.157 208.655 198.624C208.049 194.823 206.973 188.005 206.7 186.569C206.367 184.546 174.672 189.597 174.271 190.359C174.007 190.857 173.294 198.751 172.815 204.036L165.228 206.683L155.364 219.266L150.212 226.573C147.176 230.788 145.006 235.563 143.828 240.621C142.721 246.223 142.245 251.931 142.41 257.639L140.875 289.877L207.237 308.614L212.321 275.926L229.43 252.656C230.886 243.249 237.378 227.521 235.735 216.716Z" fill="#2982E3"/>
<path d="M179.14 205.023C178.908 204.296 178.76 203.546 178.7 202.785C178.494 201.398 178.24 199.474 177.996 197.344C177.879 196.289 177.771 195.283 177.663 194.335C177.563 193.512 177.504 192.683 177.487 191.854C177.478 191.268 177.645 190.693 177.967 190.203C178.221 189.871 178.436 189.783 178.455 189.802C178.475 189.822 178.309 189.978 178.133 190.31C177.911 190.793 177.814 191.324 177.849 191.854C177.849 192.538 178.025 193.358 178.133 194.286C178.24 195.214 178.367 196.24 178.504 197.285C178.749 199.415 178.944 201.349 179.061 202.746C179.175 203.5 179.201 204.263 179.14 205.023Z" fill="#263238"/>
<path d="M187.597 203.03C187.267 202.382 187.03 201.691 186.893 200.978C186.008 197.595 185.678 194.092 185.915 190.603C185.922 189.879 186.027 189.16 186.228 188.464C186.384 188.464 186.101 191.756 186.482 195.781C186.863 199.806 187.753 202.99 187.597 203.03Z" fill="#263238"/>
<path d="M203.327 200.704C203.527 198.275 203.465 195.832 203.141 193.417C202.642 191.029 201.874 188.706 200.853 186.49C201.345 187.034 201.738 187.659 202.017 188.337C203.575 191.513 204.192 195.069 203.796 198.584C203.75 199.311 203.592 200.026 203.327 200.704Z" fill="#263238"/>
<path d="M151.169 277.001C150.011 276.268 148.941 275.402 147.982 274.422C146.913 273.57 145.957 272.585 145.138 271.491C146.296 272.224 147.366 273.09 148.325 274.07C149.394 274.922 150.35 275.907 151.169 277.001Z" fill="#FAFAFA"/>
<path d="M171.133 269.635C171.133 269.782 168.924 270.427 166.304 271.589C163.684 272.752 161.689 273.943 161.601 273.816C162.936 272.669 164.457 271.757 166.098 271.12C167.678 270.338 169.382 269.836 171.133 269.635Z" fill="#FAFAFA"/>
<path d="M204.656 280.889C204.656 281.035 202.232 281.27 199.26 281.768C196.288 282.266 193.902 282.813 193.863 282.667C195.559 281.955 197.346 281.482 199.172 281.26C200.973 280.878 202.82 280.753 204.656 280.889Z" fill="#FAFAFA"/>
<path d="M187.88 277.128C188.73 275.899 189.714 274.769 190.813 273.757C191.782 272.632 192.877 271.622 194.078 270.749C193.228 271.977 192.245 273.107 191.145 274.119C190.174 275.242 189.079 276.251 187.88 277.128Z" fill="#FAFAFA"/>
<path d="M177.018 287.649C176.501 286.404 176.06 285.128 175.699 283.829C175.168 282.587 174.711 281.315 174.33 280.02C175.881 282.283 176.808 284.914 177.018 287.649Z" fill="#FAFAFA"/>
<path d="M194.528 293.726C191.194 292.621 187.975 291.195 184.918 289.466C186.604 289.941 188.24 290.576 189.806 291.361C191.45 292.002 193.03 292.794 194.528 293.726Z" fill="#FAFAFA"/>
<path d="M163.987 291.957C164.124 290.728 164.433 289.524 164.906 288.382C165.215 287.187 165.685 286.04 166.304 284.972C166.165 286.201 165.856 287.404 165.385 288.548C165.068 289.74 164.598 290.886 163.987 291.957Z" fill="#FAFAFA"/>
<path d="M184.126 295.366C184.126 295.513 181.32 295.064 177.859 294.888C174.398 294.712 171.592 294.888 171.583 294.692C173.659 294.289 175.782 294.184 177.888 294.38C180.004 294.407 182.105 294.739 184.126 295.366Z" fill="#FAFAFA"/>
<path d="M188.31 266.558C188.291 266.428 188.291 266.297 188.31 266.167C188.308 265.793 188.364 265.42 188.476 265.063C188.628 264.461 189.006 263.94 189.532 263.608C190.253 263.191 191.101 263.052 191.917 263.217L191.722 263.334C192.788 259.583 194.498 254.112 196.209 247.977C197.813 242.233 198.898 236.948 199.651 233.109C200.022 231.262 200.315 229.729 200.55 228.566C200.638 228.007 200.766 227.456 200.931 226.915C200.919 227.483 200.857 228.048 200.746 228.605C200.589 229.689 200.335 231.253 200.003 233.177C199.156 238.209 198.053 243.194 196.698 248.114C194.987 254.259 193.218 259.71 192.045 263.432L191.996 263.578H191.849C191.111 263.41 190.336 263.514 189.669 263.871C189.184 264.161 188.819 264.615 188.642 265.151C188.32 266.011 188.378 266.568 188.31 266.558Z" fill="#263238"/>
<path d="M210.229 280.146C210.15 280.146 209.544 278.857 208.273 276.883C205.015 271.732 200.42 267.559 194.978 264.809C192.895 263.763 191.517 263.285 191.546 263.197C191.88 263.25 192.208 263.338 192.524 263.461C193.408 263.747 194.274 264.09 195.114 264.486C200.735 267.097 205.428 271.357 208.567 276.698C209.039 277.497 209.46 278.326 209.828 279.179C210.013 279.478 210.148 279.804 210.229 280.146Z" fill="#263238"/>
<path d="M185.084 256.251C184.785 256.488 184.456 256.685 184.106 256.837C183.144 257.308 182.139 257.688 181.105 257.971C177.665 258.951 174.026 258.995 170.564 258.096C167.102 257.198 163.943 255.39 161.416 252.861C160.653 252.108 159.959 251.287 159.343 250.409C159.099 250.112 158.895 249.783 158.737 249.432C158.815 249.374 159.714 250.8 161.67 252.637C164.209 255.033 167.313 256.75 170.693 257.628C174.074 258.506 177.622 258.516 181.007 257.658C183.559 256.974 185.035 256.153 185.084 256.251Z" fill="#263238"/>
<g opacity="0.2">
<path opacity="0.2" d="M159.216 250.155C160.868 253.731 162.794 257.336 165.922 259.739C167.652 261.232 169.813 262.135 172.091 262.318C175.356 262.376 178.162 260.149 180.655 258.039C172.58 259.309 163.488 255.646 159.216 250.155Z" fill="black"/>
</g>
<path d="M79.4019 333.016C79.4019 333.016 68.775 335.312 59.2919 333.886C50.3954 332.557 30.4809 333.934 30.4907 345.608C30.4907 358.67 57.0531 355.446 67.4063 353.375C77.7594 351.304 88.0833 349.467 88.0833 349.467L79.4019 333.016Z" fill="#2982E3"/>
<path d="M55.5472 349.75C54.9629 348.284 54.5336 346.762 54.2665 345.207C53.8412 343.686 53.579 342.124 53.4844 340.547C54.0554 342.014 54.4715 343.537 54.726 345.09C55.1645 346.61 55.4398 348.172 55.5472 349.75Z" fill="white"/>
<path d="M59.1748 349.926C58.4062 346.849 57.9735 343.698 57.8843 340.528C58.3505 342.045 58.652 343.607 58.7837 345.188C59.0786 346.75 59.2097 348.338 59.1748 349.926Z" fill="white"/>
<path d="M62.6746 348.558C62.2647 347.235 62.0153 345.867 61.9316 344.484C61.678 343.122 61.5959 341.734 61.6872 340.352C62.3439 343.038 62.6722 345.793 62.6648 348.558H62.6746Z" fill="white"/>
<path d="M68.169 347.239C67.489 346.175 67.0271 344.986 66.8101 343.742C66.4285 342.534 66.2955 341.261 66.4191 340C66.7929 341.184 67.0868 342.392 67.2989 343.615C67.6745 344.801 67.9652 346.012 68.169 347.239Z" fill="white"/>
<path d="M69.3909 342.413C69.8457 342.308 70.3141 342.275 70.7791 342.316C72.0519 342.359 73.3094 342.607 74.5039 343.048C74.9169 343.195 75.3058 343.402 75.6576 343.664C75.8645 343.815 76.0356 344.009 76.159 344.234C76.2823 344.459 76.3547 344.707 76.3712 344.963C76.3493 345.245 76.2665 345.518 76.1286 345.765C75.9907 346.011 75.8009 346.225 75.5722 346.391C75.3436 346.558 75.0817 346.672 74.8044 346.728C74.5271 346.783 74.2412 346.777 73.9662 346.712C72.8433 346.404 71.8641 345.713 71.1995 344.758C70.0959 343.335 69.4641 341.604 69.3922 339.805C69.3203 338.007 69.812 336.231 70.7987 334.725C70.9986 334.483 71.2739 334.314 71.5808 334.246C71.7408 334.226 71.9034 334.24 72.0571 334.289C72.2108 334.338 72.3519 334.42 72.4705 334.53C72.8472 334.916 73.0816 335.419 73.1353 335.956C73.2558 336.839 73.2094 337.737 72.9984 338.603C72.7061 339.86 72.0853 341.016 71.1995 341.954C70.9657 342.21 70.707 342.443 70.4272 342.648C70.334 342.727 70.2283 342.789 70.1144 342.833C70.1144 342.833 70.4859 342.501 71.092 341.856C71.8838 340.901 72.4308 339.768 72.6855 338.554C72.8619 337.729 72.8851 336.878 72.754 336.044C72.7042 335.612 72.5155 335.207 72.2163 334.891C72.1402 334.828 72.0513 334.782 71.9557 334.756C71.8601 334.73 71.76 334.726 71.6624 334.742C71.5648 334.759 71.472 334.797 71.3904 334.853C71.3088 334.909 71.2403 334.982 71.1898 335.067C70.2971 336.494 69.861 338.159 69.9396 339.839C70.0182 341.52 70.6078 343.137 71.6297 344.475C72.2135 345.349 73.0851 345.992 74.0933 346.292C74.3021 346.346 74.5201 346.356 74.7329 346.32C74.9456 346.284 75.1484 346.203 75.3276 346.083C75.5069 345.963 75.6586 345.806 75.7728 345.623C75.887 345.44 75.961 345.235 75.9899 345.022C75.9741 344.829 75.917 344.642 75.8225 344.474C75.728 344.305 75.5984 344.159 75.4425 344.045C75.1328 343.797 74.7865 343.6 74.416 343.459C73.2609 343.001 72.046 342.711 70.8085 342.599C69.8406 342.433 69.3909 342.452 69.3909 342.413Z" fill="white"/>
<path d="M48.1862 354.077C48.0264 353.18 47.9381 352.272 47.9222 351.361C47.8049 349.691 47.6094 347.376 47.2672 344.846C46.925 342.315 46.5144 340.029 46.182 338.378C45.954 337.497 45.8003 336.599 45.7225 335.692C46.0861 336.53 46.3581 337.404 46.534 338.3C47.0676 340.435 47.4821 342.597 47.7756 344.777C48.0633 346.955 48.233 349.146 48.284 351.342C48.3456 352.255 48.3129 353.171 48.1862 354.077Z" fill="white"/>
<path opacity="0.4" d="M76.1266 333.582L82.8626 350.434L88.0831 349.467L78.0721 333.016L76.1266 333.582Z" fill="black"/>
<path d="M163.879 287.394C162.794 287.746 93.2159 268.267 65.0795 260.363C61.4264 259.335 57.5958 259.097 53.8432 259.664C50.0905 260.232 46.5022 261.593 43.3174 263.656L42.9752 263.87C38.356 266.855 34.7718 271.192 32.7122 276.289C30.6527 281.386 30.2183 286.994 31.4684 292.347C32.2711 295.794 33.7508 299.048 35.8217 301.919C37.8927 304.79 40.5136 307.221 43.5324 309.072C62.1075 320.433 101.36 344.329 102.562 343.86C104.136 343.254 153.174 341.984 153.174 341.984L94.174 299.576L122.242 317.708L163.879 287.424V287.394Z" fill="#263238"/>
<path d="M105.788 266.235L120.58 258.585L135.088 267.671L189.386 269.449L197.207 295.825L118.605 277.616C118.605 277.616 104.302 278.886 103.227 275.662C102.151 272.438 105.788 266.235 105.788 266.235Z" fill="#FFBE9D"/>
<path d="M150.28 308.574L142.968 332.586L143.877 339.903C150.316 346.387 158.9 350.301 168.021 350.915C177.142 351.528 186.173 348.797 193.424 343.235C197.918 339.786 201.555 335.347 204.051 330.264C206.547 325.18 207.835 319.59 207.814 313.927L207.707 288.86L150.28 308.574Z" fill="#263238"/>
<path d="M106.736 308.73C106.658 308.837 98.172 302.654 87.7895 294.917C77.4071 287.179 69.0483 280.81 69.1362 280.703C69.2242 280.595 77.7003 286.769 88.0926 294.506C98.4849 302.243 106.824 308.613 106.736 308.73Z" fill="#455A64"/>
<path d="M119.582 263.373C117.23 264.393 114.813 265.258 112.348 265.962C109.931 266.817 107.462 267.519 104.957 268.062C107.308 267.04 109.725 266.175 112.191 265.473C114.608 264.616 117.076 263.915 119.582 263.373Z" fill="#EB996E"/>
<path d="M120.687 267.876C119.862 268.111 119.018 268.271 118.165 268.355C116.61 268.609 114.469 268.99 112.123 269.527C109.777 270.064 107.685 270.66 106.169 271.11C105.364 271.401 104.537 271.626 103.696 271.784C104.441 271.369 105.232 271.041 106.052 270.807C108.002 270.115 109.99 269.535 112.006 269.068C114.021 268.607 116.061 268.261 118.116 268.032C118.965 267.89 119.827 267.837 120.687 267.876Z" fill="#EB996E"/>
<path d="M119.446 272.018C116.773 272.813 114.053 273.439 111.302 273.894C108.582 274.519 105.826 274.979 103.051 275.271C105.728 274.481 108.451 273.855 111.204 273.396C113.921 272.771 116.673 272.311 119.446 272.018Z" fill="#EB996E"/>
<path d="M100.265 230.793L113.903 275.652C113.98 275.902 114.13 276.123 114.334 276.287C114.538 276.45 114.786 276.549 115.046 276.571L152.197 279.355C152.526 279.377 152.835 279.524 153.06 279.765C153.285 280.006 153.41 280.324 153.409 280.654V282.969C153.409 283.143 153.374 283.314 153.307 283.473C153.24 283.633 153.142 283.778 153.018 283.899C152.894 284.02 152.747 284.115 152.586 284.178C152.425 284.242 152.252 284.273 152.079 284.269L50.4051 282.315C50.145 282.31 49.8923 282.228 49.6797 282.078C49.4671 281.928 49.3043 281.718 49.2124 281.475L31.3412 234.691C31.2665 234.498 31.2387 234.291 31.2601 234.086C31.2814 233.881 31.3514 233.684 31.4641 233.511C31.5768 233.338 31.7291 233.195 31.9084 233.092C32.0876 232.99 32.2886 232.932 32.4948 232.922L98.8861 229.826C99.193 229.799 99.4994 229.882 99.7515 230.059C100.004 230.235 100.185 230.495 100.265 230.793Z" fill="#455A64"/>
<path d="M71.62 250.116C71.1218 250.302 70.6772 250.608 70.3258 251.006C69.9745 251.405 69.7272 251.885 69.606 252.402C69.561 252.943 69.6593 253.485 69.891 253.976C70.1227 254.466 70.4796 254.887 70.9259 255.196C71.462 255.584 72.1013 255.803 72.7626 255.828C73.4239 255.852 74.0776 255.68 74.6409 255.333C75.2059 254.914 75.6108 254.314 75.7886 253.634C75.9664 252.953 75.9064 252.233 75.6185 251.591C75.1688 250.35 72.9007 249.481 71.5906 250.116" fill="#E0E0E0"/>
<path d="M88.083 349.467L77.329 331.805L156.322 269.937C161.236 265.909 167.247 263.449 173.577 262.874C178.189 262.456 182.836 263.05 187.194 264.616C191.551 266.182 195.513 268.681 198.801 271.939C202.09 275.197 204.625 279.134 206.229 283.475C207.833 287.816 208.468 292.455 208.088 297.066L206.827 312.159L154.445 329.031L88.083 349.467Z" fill="#263238"/>
<path d="M189.386 307.539C189.386 307.539 189.327 307.607 189.181 307.734L188.535 308.262L186.023 310.274L184.195 311.71C183.53 312.238 182.738 312.687 181.927 313.302L179.306 315.1C178.837 315.412 178.329 315.754 177.869 316.077L176.295 317.054C174.154 318.333 171.837 319.799 169.207 321.127C167.907 321.811 166.578 322.554 165.18 323.247L160.81 325.309C154.29 328.293 147.624 330.947 140.836 333.261C126.407 338.233 113.072 341.808 103.52 344.7C101.125 345.403 98.9643 346.068 97.0677 346.654C95.1711 347.24 93.5482 347.738 92.1795 348.188L89.1293 349.165L88.3276 349.409C88.2358 349.441 88.1408 349.464 88.0441 349.477L88.3081 349.36L89.0902 349.067L92.1209 347.983C93.4309 347.504 95.0538 347.006 96.9504 346.361C98.847 345.716 100.988 345.052 103.373 344.329C112.905 341.34 126.231 337.715 140.631 332.753C147.846 330.301 154.562 327.565 160.575 324.859L164.935 322.817C166.343 322.134 167.673 321.401 168.973 320.727C171.603 319.418 173.92 317.972 176.07 316.722L177.645 315.793C178.143 315.481 178.622 315.149 179.091 314.817L181.819 313.048C182.63 312.492 183.422 312.013 184.097 311.495L185.945 310.088L188.516 308.135L189.2 307.646L189.386 307.539Z" fill="#455A64"/>
<path d="M191.302 315.793C191.06 315.971 190.793 316.112 190.51 316.213C189.982 316.447 189.21 316.77 188.242 317.122C185.717 318.052 183.13 318.802 180.499 319.368C177.866 319.93 175.197 320.309 172.512 320.502C171.485 320.57 170.644 320.599 170.068 320.599C169.767 320.622 169.465 320.605 169.168 320.551C170.265 320.354 171.371 320.217 172.482 320.14C174.516 319.916 177.371 319.525 180.391 318.87C183.412 318.216 186.169 317.415 188.125 316.789C189.165 316.4 190.225 316.067 191.302 315.793Z" fill="#455A64"/>
<path d="M153.174 272.907C153.262 273.024 136.358 286.3 115.417 302.556C94.4765 318.812 77.4266 331.922 77.3484 331.805C77.2701 331.687 94.1637 318.421 115.105 302.156C136.046 285.89 153.096 272.799 153.174 272.907Z" fill="#455A64"/>
<path d="M148.579 338.555C144.796 336.543 140.543 337.734 136.916 338.956C134.501 339.766 132.028 341.056 129.545 340.362C127.775 339.864 126.455 338.409 125.096 337.187C122.355 334.668 119.136 332.723 115.63 331.466C112.125 330.209 108.402 329.667 104.683 329.87C102.559 329.973 100.554 330.877 99.0717 332.401C95.3469 336.435 98.1527 341.671 101.486 345.1C107.426 351.133 115.269 354.929 123.689 355.846C130.62 356.569 140.152 355.612 147.152 352.603C151.483 350.747 153.702 345.638 151.434 341.515C150.794 340.269 149.801 339.24 148.579 338.555Z" fill="#2982E3"/>
<g opacity="0.4">
<path opacity="0.4" d="M148.579 341.779C144.786 339.767 140.533 340.959 136.906 342.18C134.491 342.991 132.018 344.28 129.535 343.586C127.765 343.088 126.445 341.633 125.086 340.412C122.345 337.892 119.126 335.947 115.62 334.69C112.115 333.433 108.392 332.891 104.673 333.094C102.55 333.197 100.544 334.101 99.0618 335.625C98.312 336.424 97.7743 337.398 97.4976 338.458C98.2151 340.972 99.5883 343.251 101.477 345.062C107.416 351.094 115.259 354.89 123.679 355.808C130.61 356.53 140.142 355.573 147.142 352.564C148.385 352.036 149.485 351.222 150.353 350.188C151.221 349.154 151.833 347.93 152.138 346.615C151.917 345.606 151.483 344.655 150.864 343.828C150.245 343 149.456 342.315 148.55 341.818L148.579 341.779Z" fill="black"/>
</g>
<path d="M152.197 346.575C152.032 345.774 151.717 345.012 151.268 344.329C150.725 343.554 150.038 342.891 149.244 342.375C148.199 341.669 147.004 341.214 145.754 341.046C142.948 340.714 139.683 341.896 136.066 342.873C134.277 343.352 132.321 344.075 130.2 343.85C129.127 343.711 128.095 343.352 127.169 342.795C126.247 342.221 125.377 341.567 124.569 340.841C121.619 338.04 118.078 335.937 114.206 334.687C112.532 334.119 110.806 333.719 109.054 333.495C107.53 333.275 105.982 333.275 104.459 333.495C103.213 333.683 102.013 334.1 100.92 334.726C100.101 335.2 99.359 335.796 98.7199 336.494C97.7422 337.715 97.3805 338.545 97.3219 338.506C97.6251 337.732 98.0473 337.011 98.5732 336.367C99.1827 335.599 99.9162 334.939 100.744 334.413C101.86 333.731 103.098 333.273 104.39 333.065C105.946 332.834 107.527 332.834 109.083 333.065C110.867 333.278 112.625 333.668 114.333 334.227C116.217 334.853 118.037 335.658 119.768 336.631C120.691 337.14 121.577 337.715 122.418 338.35C123.268 339.014 124.06 339.737 124.881 340.44C125.668 341.163 126.515 341.817 127.414 342.394C128.279 342.909 129.24 343.241 130.239 343.371C132.194 343.635 134.149 342.951 135.939 342.482C139.546 341.505 142.86 340.362 145.803 340.743C146.94 340.907 148.03 341.309 149 341.924C149.971 342.539 150.8 343.351 151.434 344.309C151.767 344.833 152.006 345.412 152.138 346.019C152.177 346.202 152.197 346.388 152.197 346.575Z" fill="#263238"/>
<path d="M152.197 346.575C152.032 345.774 151.717 345.012 151.268 344.329C150.725 343.554 150.038 342.891 149.244 342.375C148.199 341.669 147.004 341.214 145.754 341.046C142.948 340.714 139.683 341.896 136.066 342.873C134.277 343.352 132.321 344.075 130.2 343.85C129.127 343.711 128.095 343.352 127.169 342.795C126.247 342.221 125.377 341.567 124.569 340.841C121.619 338.04 118.078 335.937 114.206 334.687C112.532 334.119 110.806 333.719 109.054 333.495C107.53 333.275 105.982 333.275 104.459 333.495C103.213 333.683 102.013 334.1 100.92 334.726C100.101 335.2 99.359 335.796 98.7199 336.494C97.7422 337.715 97.3805 338.545 97.3219 338.506C97.6251 337.732 98.0473 337.011 98.5732 336.367C99.1827 335.599 99.9162 334.939 100.744 334.413C101.86 333.731 103.098 333.273 104.39 333.065C105.946 332.834 107.527 332.834 109.083 333.065C110.867 333.278 112.625 333.668 114.333 334.227C116.217 334.853 118.037 335.658 119.768 336.631C120.691 337.14 121.577 337.715 122.418 338.35C123.268 339.014 124.06 339.737 124.881 340.44C125.668 341.163 126.515 341.817 127.414 342.394C128.279 342.909 129.24 343.241 130.239 343.371C132.194 343.635 134.149 342.951 135.939 342.482C139.546 341.505 142.86 340.362 145.803 340.743C146.94 340.907 148.03 341.309 149 341.924C149.971 342.539 150.8 343.351 151.434 344.309C151.767 344.833 152.006 345.412 152.138 346.019C152.177 346.202 152.197 346.388 152.197 346.575Z" fill="#263238"/>
</g>
<defs>
<clipPath id="clip0_389_503">
<rect width="285" height="356" fill="white"/>
</clipPath>
</defs>
</svg>
