<svg width="108" height="54" viewBox="0 0 108 54" fill="none" xmlns="http://www.w3.org/2000/svg">
<path d="M16.1812 48.45C20.1262 48.45 23.3287 45.2475 23.3287 41.3025V34.155H16.1812C12.2362 34.155 9.03369 37.3575 9.03369 41.3025C9.03369 45.2475 12.2362 48.45 16.1812 48.45Z" fill="#0ACF83"/>
<path d="M9.02612 27C9.02612 23.055 12.2286 19.8525 16.1736 19.8525H23.3211V34.155H16.1736C12.2286 34.155 9.02612 30.9525 9.02612 27.0075V27Z" fill="#A259FF"/>
<path d="M9.02612 12.6975C9.02612 8.75255 12.2286 5.55005 16.1736 5.55005H23.3211V19.8526H16.1736C12.2286 19.8526 9.02612 16.6501 9.02612 12.705V12.6975Z" fill="#F24E1E"/>
<path d="M23.2612 5.55005H30.4087C34.3537 5.55005 37.5562 8.75255 37.5562 12.6975C37.5562 16.6425 34.3537 19.845 30.4087 19.845H23.2612V5.55005Z" fill="#FF7262"/>
<path d="M37.6312 27C37.6312 30.945 34.4287 34.1475 30.4837 34.1475C26.5387 34.1475 23.2612 30.945 23.2612 27C23.2612 23.055 26.4637 19.8525 30.4087 19.8525C34.3537 19.8525 37.5562 23.055 37.5562 27H37.6312Z" fill="#1ABCFE"/>
<path d="M45.4463 17.4V32.385H47.3738V25.23H52.0088V23.37H47.3738V19.275H53.3963V17.4H45.4463ZM56.8838 20.445C57.5813 20.445 58.1438 19.8825 58.1438 19.185C58.1438 18.4875 57.5738 18 56.8838 18C56.1938 18 55.6238 18.5625 55.6238 19.26C55.6238 19.5975 55.7588 19.9125 55.9988 20.16C56.2388 20.4075 56.5538 20.535 56.8988 20.535L56.8838 20.445ZM55.9088 22.335V32.385H57.7613V22.335H55.8488H55.9088ZM64.9988 22.035C62.4338 22.035 60.6488 24.285 60.6488 26.775C60.6488 29.265 62.4488 31.5 64.9988 31.5C65.5294 31.5093 66.0561 31.4081 66.5455 31.2028C67.0349 30.9975 67.4761 30.6926 67.8413 30.3075V31.6425C67.8359 32.4446 67.5248 33.2145 66.9713 33.795C66.6917 34.0803 66.3579 34.3068 65.9896 34.4614C65.6212 34.6159 65.2257 34.6954 64.8263 34.695C64.2129 34.6756 63.6186 34.4775 63.1163 34.125L62.1413 35.7975C62.89 36.2791 63.7548 36.5498 64.6445 36.5811C65.5341 36.6125 66.4158 36.4033 67.1966 35.9757C67.9774 35.5481 68.6284 34.9178 69.0811 34.1512C69.5338 33.3847 69.7713 32.5102 69.7688 31.62V22.32H67.8413V23.22C67.4761 22.8349 67.0349 22.5301 66.5455 22.3248C66.0561 22.1195 65.5294 22.0182 64.9988 22.0275V22.035ZM62.5838 26.775C62.5399 26.2874 62.6332 25.7973 62.8532 25.3599C63.0732 24.9225 63.4111 24.5554 63.8288 24.3C64.6838 23.775 65.7563 23.775 66.6038 24.3C67.4513 24.825 67.9313 25.785 67.8488 26.775C67.8927 27.2626 67.7994 27.7528 67.5794 28.1901C67.3594 28.6275 67.0215 28.9946 66.6038 29.25C65.7488 29.775 64.6763 29.775 63.8288 29.25C62.9813 28.725 62.5013 27.765 62.5838 26.775Z" fill="#424B5A"/>
<path d="M76.7212 24C76.1668 24.002 75.6357 24.2231 75.2437 24.6151C74.8517 25.0071 74.6306 25.5382 74.6287 26.0925V32.4525H72.7012V22.4025H74.6287V23.25C75.2137 22.47 76.1437 22.02 77.1187 22.035C78.3487 22.005 79.4962 22.665 80.1037 23.7375C80.8537 22.6875 81.9337 22.05 83.1037 22.035C85.3012 22.035 86.6662 23.805 86.6737 25.995V32.3925H84.7462V26.0175C84.8027 25.6204 84.7442 25.2154 84.5778 24.8505C84.4114 24.4855 84.1439 24.1759 83.8071 23.9581C83.4702 23.7404 83.078 23.6237 82.6769 23.6218C82.2758 23.6199 81.8826 23.733 81.5437 23.9475C81.2067 24.1672 80.9399 24.4791 80.775 24.8461C80.6101 25.2131 80.5541 25.6197 80.6137 26.0175V32.3775H78.7612V26.025C78.7592 25.4707 78.5381 24.9396 78.1461 24.5476C77.7541 24.1556 77.223 23.9345 76.6687 23.9325L76.7212 24ZM96.9712 23.475C96.5325 23.0172 96.0047 22.654 95.4205 22.4077C94.8362 22.1613 94.2077 22.0371 93.5737 22.0425C90.7012 22.0425 88.6987 24.4725 88.6987 27.2925C88.6987 30.1125 90.7237 32.5425 93.5737 32.5425C94.2077 32.548 94.8362 32.4238 95.4205 32.1774C96.0047 31.9311 96.5325 31.5678 96.9712 31.11V32.25H98.8987V22.2H96.9712V23.475ZM90.5962 27.375C90.4987 26.175 91.0837 25.02 92.1112 24.39C93.1387 23.76 94.3612 23.76 95.4562 24.39C95.9577 24.7013 96.3641 25.1442 96.6313 25.6706C96.8984 26.1969 97.016 26.7865 96.9712 27.375C97.0687 28.575 96.4837 29.73 95.4562 30.36C94.4287 30.99 93.2062 30.99 92.1112 30.36C91.6097 30.0488 91.2032 29.6058 90.9361 29.0795C90.6689 28.5532 90.5514 27.9636 90.5962 27.375Z" fill="#424B5A"/>
</svg>
