<svg width="55" height="53" viewBox="0 0 55 53" fill="none" xmlns="http://www.w3.org/2000/svg">
<path d="M3.5163 46.6743C2.47838 46.6743 1.64579 47.4902 1.64579 48.9973C1.64579 50.5044 2.47838 51.3203 3.56194 51.3203C4.55137 51.3203 5.24144 50.663 5.26139 49.6206H3.72159V48.9973H5.94571V49.6206C5.94571 51.0568 4.95343 51.9776 3.56194 51.9776C2.01077 51.9776 0.961426 50.8331 0.961426 48.9973C0.961426 47.1616 2.0193 46.0171 3.5163 46.0171C4.74814 46.0171 5.69481 46.7877 5.91149 47.9095H5.18153C4.93348 47.1474 4.36035 46.6743 3.5163 46.6743Z" fill="#2671E5"/>
<path d="M6.92782 46.3684C6.92315 46.2732 6.94728 46.1789 6.99708 46.0975C7.04689 46.0162 7.1201 45.9515 7.20726 45.9119C7.29442 45.8722 7.39153 45.8595 7.48607 45.8752C7.5806 45.8909 7.66823 45.9344 7.73764 46.0001C7.80705 46.0658 7.85506 46.1506 7.87548 46.2437C7.89589 46.3367 7.88778 46.4337 7.85218 46.5221C7.81658 46.6105 7.75513 46.6863 7.67576 46.7397C7.59639 46.7931 7.50273 46.8217 7.40688 46.8217C7.28303 46.824 7.16323 46.7778 7.07353 46.6929C6.98382 46.608 6.93146 46.4914 6.92782 46.3684ZM7.0647 47.5469H7.73764V51.8982H7.0647V47.5469Z" fill="#2671E5"/>
<path d="M10.601 48.1135H9.66576V50.6518C9.66576 51.2183 9.95092 51.309 10.2475 51.309C10.3473 51.3091 10.4468 51.2976 10.544 51.275L10.6809 51.8756C10.5199 51.9322 10.3498 51.9591 10.179 51.9549C9.60874 51.9549 8.99282 51.5923 8.99282 50.8331V48.1135H8.3313V47.5469H8.99282V46.5044H9.66576V47.5469H10.601V48.1135Z" fill="#2671E5"/>
<path d="M11.5256 46.0964H12.2328V48.68H15.3465V46.0964H16.0537V51.8982H15.3465V49.3033H12.2328V51.8982H11.5256V46.0964Z" fill="#2671E5"/>
<path d="M19.8642 47.5469H20.5371V51.8982H19.8642V51.1616H19.8186C19.6132 51.6036 19.1798 51.9549 18.5183 51.9549C17.6971 51.9549 17.104 51.4223 17.104 50.3118V47.5469H17.7769V50.2665C17.7769 50.9011 18.1761 51.309 18.735 51.309C19.2369 51.309 19.8642 50.935 19.8642 50.1191L19.8642 47.5469Z" fill="#2671E5"/>
<path d="M21.5874 46.0964H22.2603V48.2381H22.3174C22.4656 48.0115 22.728 47.4902 23.5834 47.4902C24.6898 47.4902 25.4539 48.3628 25.4539 49.7339C25.4539 51.1163 24.6898 51.9889 23.5948 51.9889C22.7508 51.9889 22.4656 51.4676 22.3174 51.2296H22.2375V51.8982H21.5874V46.0964ZM23.5036 51.3883C24.3476 51.3883 24.781 50.6518 24.781 49.7225C24.781 48.8047 24.359 48.0908 23.5036 48.0908C22.6823 48.0908 22.2489 48.748 22.2489 49.7225C22.2489 50.7084 22.6937 51.3883 23.5036 51.3883Z" fill="#2671E5"/>
<path d="M27.7825 51.8982L29.9267 46.0964H30.6566L32.8009 51.8982H32.0596L31.4722 50.2551H29.1112L28.5238 51.8982H27.7825ZM31.2498 49.6319L30.3145 47.0143H30.2689L29.3336 49.6319H31.2498Z" fill="#2671E5"/>
<path d="M33.1438 49.7452C33.1438 48.4195 33.9308 47.4902 35.117 47.4902C36.0409 47.4902 36.7366 48.0342 36.8506 48.85H36.1777C36.0751 48.4534 35.7215 48.0908 35.1284 48.0908C34.3414 48.0908 33.8167 48.7367 33.8167 49.7226C33.8167 50.731 34.33 51.3883 35.1284 51.3883C35.6531 51.3883 36.0522 51.105 36.1777 50.6291H36.8506C36.7366 51.3996 36.0979 51.9889 35.1284 51.9889C33.8966 51.9889 33.1438 51.0483 33.1438 49.7452Z" fill="#2671E5"/>
<path d="M39.4636 48.1135H38.5283V50.6518C38.5283 51.2183 38.8134 51.309 39.11 51.309C39.2098 51.3091 39.3094 51.2976 39.4066 51.275L39.5434 51.8756C39.3824 51.9322 39.2123 51.9591 39.0416 51.9549C38.4713 51.9549 37.8554 51.5923 37.8554 50.8331V48.1135H37.1938V47.5469H37.8554V46.5044H38.5283V47.5469H39.4636V48.1135Z" fill="#2671E5"/>
<path d="M40.0687 46.3684C40.064 46.2733 40.0882 46.179 40.138 46.0976C40.1878 46.0163 40.261 45.9516 40.3481 45.912C40.4353 45.8724 40.5324 45.8596 40.6269 45.8753C40.7215 45.891 40.8091 45.9346 40.8785 46.0002C40.9479 46.0659 40.9959 46.1507 41.0163 46.2438C41.0367 46.3368 41.0286 46.4338 40.993 46.5222C40.9574 46.6106 40.896 46.6864 40.8166 46.7398C40.7372 46.7932 40.6436 46.8217 40.5477 46.8217C40.4239 46.8241 40.3041 46.7778 40.2144 46.6929C40.1247 46.6081 40.0723 46.4914 40.0687 46.3684ZM40.2056 47.547H40.8785V51.8983H40.2056V47.547Z" fill="#2671E5"/>
<path d="M41.6323 49.7452C41.6323 48.3854 42.4307 47.4902 43.617 47.4902C44.8031 47.4902 45.6015 48.3854 45.6015 49.7452C45.6015 51.0937 44.8031 51.9889 43.617 51.9889C42.4307 51.9889 41.6323 51.0937 41.6323 49.7452ZM44.9286 49.7452C44.9286 48.8727 44.518 48.0908 43.617 48.0908C42.7159 48.0908 42.3053 48.8727 42.3053 49.7452C42.3053 50.6177 42.7159 51.3883 43.617 51.3883C44.518 51.3883 44.9286 50.6177 44.9286 49.7452Z" fill="#2671E5"/>
<path d="M47.0279 51.8982H46.355V47.5469H47.0051V48.2268H47.0621C47.2674 47.7848 47.678 47.4902 48.3395 47.4902C49.2263 47.4902 49.8223 48.0228 49.8223 49.1333V51.8982H49.1494V49.1786C49.1494 48.4959 48.7702 48.0908 48.1456 48.0908C47.5012 48.0908 47.0279 48.5214 47.0279 49.2806V51.8982Z" fill="#2671E5"/>
<path d="M53.2792 48.6914C53.1622 48.3911 52.9199 48.0681 52.3325 48.0681C51.7964 48.0681 51.3972 48.3401 51.3972 48.7141C51.3972 49.0483 51.631 49.2211 52.15 49.3486L52.8001 49.5073C53.5814 49.6971 53.9635 50.0795 53.9635 50.6857C53.9635 51.4365 53.2706 51.9889 52.2527 51.9889C51.3573 51.9889 50.7442 51.5951 50.5874 50.8557L51.2262 50.6971C51.3459 51.1645 51.6909 51.3996 52.2412 51.3996C52.8686 51.3996 53.2678 51.0937 53.2678 50.7197C53.2678 50.4194 53.0596 50.2098 52.6176 50.1079L51.8877 49.9378C51.0836 49.7509 50.7243 49.3486 50.7243 48.748C50.7243 48.0115 51.4087 47.4902 52.3325 47.4902C53.1993 47.4902 53.6726 47.9038 53.8837 48.5214L53.2792 48.6914Z" fill="#2671E5"/>
<path d="M35.1832 0.991089H19.7417C13.5416 0.991089 8.51538 5.98462 8.51538 12.1445V27.4856C8.51538 33.6455 13.5416 38.639 19.7417 38.639H35.1832C41.3833 38.639 46.4094 33.6455 46.4094 27.4856V12.1445C46.4094 5.98462 41.3833 0.991089 35.1832 0.991089Z" fill="#2671E5"/>
<path d="M37.7236 18.4015C37.4598 18.0139 37.1092 17.6922 36.6994 17.4617C36.2896 17.2312 35.8316 17.098 35.3613 17.0727C34.891 17.0474 34.4212 17.1306 33.9887 17.3157C33.5562 17.5009 33.1727 17.783 32.8683 18.14C32.6614 18.3613 32.4873 18.6107 32.3513 18.8807C32.2167 19.1409 32.1122 19.4153 32.0399 19.6988H30.1633C30.1219 19.63 30.0918 19.5551 30.0741 19.4768C29.8188 18.4807 29.1931 17.7686 28.2442 17.376C26.4173 16.6202 24.4344 17.6228 23.9235 19.5343C23.89 19.6598 23.9149 19.802 23.7011 19.8312C22.8154 19.9521 21.8158 19.4487 21.3961 18.6455C21.1131 18.104 21.128 18.0569 21.7364 17.9809C24.2614 17.6658 26.3236 15.1185 25.4507 12.1644C24.8183 10.0241 22.4573 8.63509 20.2459 9.09019C18.1612 9.51923 16.6894 11.2461 16.5803 13.391C16.4801 15.364 17.8536 17.2498 19.8481 17.836C20.1487 17.9243 20.2166 18.0564 20.2151 18.343C20.2048 20.3435 20.1956 22.3441 20.2177 24.3444C20.2381 26.1944 21.604 27.7006 23.4342 27.8956C23.7791 27.9323 23.8958 28.0533 23.9823 28.3714C24.3232 29.6256 25.457 30.5177 26.7772 30.6171C27.4104 30.6676 28.0442 30.5262 28.5949 30.2115C29.1455 29.8968 29.5872 29.4236 29.8616 28.8544C30.6685 27.1358 29.8693 25.1734 28.0976 24.5231C26.3428 23.879 24.4332 24.8775 23.9488 26.7176C23.8659 27.0324 23.7267 27.0518 23.4618 27.0082C22.1019 26.7846 21.1577 25.7081 21.1197 24.3038C21.1044 23.74 21.116 23.1754 21.1159 22.6112C21.1157 21.7172 21.1158 20.8233 21.1158 19.8264C21.5538 20.16 21.9226 20.4109 22.3562 20.557C22.7874 20.6937 23.2402 20.7508 23.6922 20.7254C23.9099 20.7179 23.8917 20.8806 23.9259 21.0081C24.1595 21.8797 24.652 22.5596 25.4457 23.0075C25.8666 23.2484 26.3378 23.3894 26.8226 23.4194C27.3073 23.4495 27.7926 23.3678 28.2403 23.1808C28.688 22.9937 29.0862 22.7064 29.4037 22.3412C29.7212 21.976 29.9495 21.5429 30.0706 21.0756C30.0883 20.9986 30.1189 20.9252 30.161 20.8583H32.0689C32.0811 20.9608 32.1028 21.062 32.1337 21.1605C32.5277 22.5701 33.8289 23.4688 35.3167 23.4186C36.5103 23.3783 37.8553 22.6317 38.2666 20.9631C38.3726 20.5228 38.3789 20.0646 38.285 19.6216C38.1911 19.1787 37.9993 18.7619 37.7236 18.4015ZM27.0172 25.2421C27.3146 25.2392 27.6097 25.2953 27.8851 25.407C28.1605 25.5187 28.4108 25.6837 28.6213 25.8925C28.8319 26.1014 28.9984 26.3497 29.1113 26.6232C29.2241 26.8966 29.281 27.1897 29.2787 27.4852C29.2801 27.9307 29.1483 28.3665 28.9002 28.7375C28.652 29.1085 28.2986 29.398 27.8847 29.5693C27.4708 29.7405 27.015 29.7859 26.5751 29.6996C26.1353 29.6133 25.7311 29.3992 25.4138 29.0845C25.0965 28.7698 24.8803 28.3685 24.7928 27.9317C24.7052 27.4948 24.7501 27.0419 24.9218 26.6304C25.0935 26.2189 25.3843 25.8673 25.7573 25.6202C26.1303 25.373 26.5688 25.2414 27.0172 25.2421ZM17.5131 13.4968C17.5216 12.5489 17.9069 11.6428 18.5852 10.9761C19.2634 10.3094 20.1795 9.93622 21.1336 9.93788C22.0877 9.93953 23.0025 10.3159 23.6784 10.985C24.3543 11.654 24.7365 12.5614 24.7417 13.5093C24.7446 13.9833 24.653 14.4531 24.4723 14.8917C24.2915 15.3303 24.0252 15.729 23.6886 16.0649C23.352 16.4007 22.9519 16.667 22.5112 16.8485C22.0705 17.0299 21.598 17.1229 21.121 17.1221C20.644 17.1213 20.1718 17.0267 19.7318 16.8437C19.2917 16.6607 18.8925 16.393 18.5571 16.056C18.2217 15.7189 17.9568 15.3193 17.7776 14.8801C17.5984 14.4408 17.5085 13.9707 17.5131 13.4968ZM27.0017 22.519C26.5559 22.5149 26.1213 22.3798 25.7528 22.1306C25.3843 21.8813 25.0984 21.5292 24.9311 21.1187C24.7639 20.7081 24.7228 20.2576 24.8131 19.8238C24.9034 19.3901 25.121 18.9927 25.4384 18.6818C25.7559 18.3708 26.159 18.1603 26.5967 18.0767C27.0345 17.9932 27.4874 18.0404 27.8982 18.2124C28.309 18.3843 28.6594 18.6734 28.905 19.043C29.1506 19.4126 29.2804 19.8462 29.2782 20.2891C29.277 20.5843 29.2171 20.8763 29.1019 21.1484C28.9867 21.4205 28.8184 21.6673 28.6069 21.8746C28.3953 22.0818 28.1445 22.2455 27.869 22.3561C27.5935 22.4666 27.2988 22.522 27.0017 22.519ZM34.1781 22.2971C33.6748 22.0574 33.2779 21.6422 33.063 21.1305C32.8481 20.6189 32.8301 20.0465 33.0126 19.5226C33.1951 18.9986 33.5652 18.5596 34.0525 18.2893C34.5398 18.0191 35.1101 17.9363 35.6548 18.0569C36.1995 18.1775 36.6805 18.493 37.0062 18.9432C37.3318 19.3935 37.4794 19.947 37.4207 20.4984C37.362 21.0498 37.1011 21.5604 36.6879 21.933C36.2746 22.3056 35.7378 22.5141 35.1798 22.5188C35.1587 22.5189 35.1378 22.518 35.1169 22.5175C34.7922 22.5075 34.4729 22.4325 34.1781 22.2971V22.2971Z" fill="white"/>
<path d="M22.986 12.7601C22.2438 12.2736 21.4914 11.8026 20.7287 11.3472C20.056 10.9436 19.3317 11.351 19.3127 12.133C19.3015 12.5939 19.3106 13.0553 19.3112 13.5165C19.3117 13.9904 19.3027 14.4646 19.3138 14.9383C19.3311 15.6733 20.041 16.0953 20.6753 15.7284C21.4546 15.2776 22.222 14.8066 22.9775 14.3154C23.6062 13.9069 23.6077 13.1677 22.986 12.7601ZM22.368 13.6386C21.7204 14.0362 21.073 14.4343 20.4259 14.8328C20.3136 14.902 20.2269 14.9087 20.2266 14.743C20.2251 13.8881 20.2259 13.0332 20.2259 12.0973C20.9848 12.571 21.6794 13.004 22.3731 13.4385C22.4781 13.5043 22.4751 13.5728 22.368 13.6386Z" fill="white"/>
<path d="M26.0997 27.9234C26.3744 27.9056 26.5419 27.7514 26.5524 27.4954C26.5589 27.4378 26.5528 27.3794 26.5345 27.3243C26.5162 27.2692 26.4862 27.2186 26.4464 27.1761C26.4067 27.1337 26.3581 27.1002 26.3041 27.0781C26.2502 27.0559 26.192 27.0456 26.1336 27.0479C25.8462 27.0369 25.6736 27.1961 25.6695 27.4856C25.6655 27.7621 25.8419 27.8896 26.0997 27.9234Z" fill="white"/>
<path d="M27.9392 27.9179C28.2049 27.8789 28.375 27.7373 28.3609 27.4613C28.3469 27.1899 28.1738 27.0356 27.9012 27.0482C27.631 27.0607 27.4651 27.2272 27.4764 27.4979C27.4877 27.7691 27.6682 27.9021 27.9392 27.9179Z" fill="white"/>
<path d="M36.3512 20.0251C36.4548 19.9225 36.5384 19.8121 36.5269 19.6447C36.5323 19.5625 36.5117 19.4806 36.4677 19.4107C36.4238 19.3408 36.3589 19.2863 36.2821 19.2551C36.2016 19.2114 36.1088 19.1957 36.0183 19.2102C35.9278 19.2248 35.8447 19.2689 35.7822 19.3356C35.5422 19.5497 35.3139 19.7765 35.0982 20.015C34.8538 20.3004 34.6524 20.4343 34.3528 20.0638C34.1766 19.846 33.9102 19.8503 33.7056 20.0628C33.5133 20.2626 33.5443 20.4895 33.7218 20.6842C33.9121 20.893 34.1153 21.0912 34.3225 21.2838C34.6092 21.5503 34.804 21.5508 35.0904 21.2744C35.5161 20.8635 35.9309 20.4415 36.3512 20.0251Z" fill="white"/>
<path d="M28.1462 19.2643C28.0683 19.2163 27.9764 19.1956 27.8853 19.2056C27.7942 19.2155 27.709 19.2555 27.6434 19.3192C27.411 19.5218 27.1898 19.7367 26.9807 19.963C26.7268 20.2457 26.5097 20.467 26.1694 20.0436C26.0031 19.8367 25.7426 19.8659 25.5527 20.0584C25.3589 20.2548 25.3788 20.4805 25.5599 20.6769C25.7599 20.8937 25.9756 21.0963 26.1866 21.303C26.4386 21.55 26.6857 21.5256 26.9275 21.2852C27.3463 20.8687 27.7655 20.4526 28.1851 20.0369C28.2974 19.9257 28.3937 19.8079 28.3762 19.6393C28.379 19.5613 28.3587 19.4842 28.3178 19.4175C28.2769 19.3509 28.2173 19.2976 28.1462 19.2643Z" fill="white"/>
</svg>
