<svg width="70" height="43" viewBox="0 0 70 43" fill="none" xmlns="http://www.w3.org/2000/svg">
<g clip-path="url(#clip0_389_2099)">
<path d="M38.5127 5.53266H39.2883L41.508 3.36377L41.6165 2.44298C40.3489 1.34534 38.8171 0.582873 37.1658 0.227574C35.5144 -0.127724 33.7981 -0.0641232 32.1787 0.412371C30.5594 0.888865 29.0906 1.76252 27.911 2.95085C26.7313 4.13917 25.8798 5.60293 25.4369 7.20391C25.6835 7.10413 25.957 7.08821 26.2139 7.15867L30.6384 6.44147C30.6384 6.44147 30.8635 6.07688 30.9802 6.0995C31.9276 5.07982 33.2359 4.45337 34.638 4.34803C36.0401 4.24269 37.4303 4.66639 38.5249 5.53266H38.5127Z" fill="#EA4335"/>
<path d="M44.6526 7.20385C44.1425 5.36553 43.0968 3.71325 41.6437 2.44958L38.5385 5.49668C39.1859 6.0151 39.705 6.67086 40.0569 7.4146C40.4087 8.15835 40.584 8.97071 40.5697 9.79056V10.3308C41.3027 10.3308 42.0056 10.6165 42.5238 11.1251C43.0421 11.6336 43.3332 12.3234 43.3332 13.0426C43.3332 13.7618 43.0421 14.4515 42.5238 14.9601C42.0056 15.4686 41.3027 15.7544 40.5697 15.7544H35.0414L34.4908 16.3105V19.5626L35.0414 20.1041H40.5697C42.114 20.1173 43.6216 19.6421 44.869 18.7487C46.1165 17.8554 47.0375 16.5914 47.4957 15.1442C47.9538 13.697 47.9247 12.1435 47.4126 10.7138C46.9005 9.28405 45.9327 8.05423 44.6526 7.20651V7.20385Z" fill="#4285F4"/>
<path d="M29.5062 20.071H35.0345V15.7292H29.5062C29.1125 15.729 28.7235 15.6455 28.3658 15.4844L27.5888 15.7212L25.3609 17.8928L25.167 18.6539C26.4162 19.5798 27.9406 20.0777 29.5062 20.071Z" fill="#34A853"/>
<path d="M29.5063 5.98508C28.0093 5.99409 26.5526 6.46157 25.3395 7.32226C24.1264 8.18295 23.2175 9.39387 22.7397 10.786C22.2618 12.1781 22.2389 13.6819 22.674 15.0874C23.1092 16.4929 23.9808 17.7299 25.1671 18.6259L28.3727 15.479C27.9667 15.2973 27.6116 15.0218 27.3377 14.6761C27.0639 14.3304 26.8794 13.9247 26.8001 13.4938C26.7208 13.0629 26.7489 12.6196 26.8822 12.2017C27.0155 11.7838 27.2499 11.4039 27.5655 11.0942C27.881 10.7846 28.2682 10.5546 28.6941 10.4238C29.1199 10.293 29.5717 10.2653 30.0108 10.3432C30.4499 10.421 30.8633 10.602 31.2156 10.8708C31.5679 11.1395 31.8486 11.488 32.0338 11.8863L35.2407 8.73944C34.5658 7.87779 33.697 7.18086 32.7023 6.70307C31.7076 6.22529 30.6138 5.97956 29.5063 5.98508Z" fill="#FBBC05"/>
<path d="M4.8761 40.2709C4.2382 40.2786 3.60526 40.16 3.01512 39.9222C2.42497 39.6845 1.88973 39.3324 1.44139 38.887C0.985483 38.4555 0.622867 37.9382 0.375196 37.3661C0.127524 36.794 -0.00012207 36.1788 -0.00012207 35.5572C-0.00012207 34.9356 0.127524 34.3204 0.375196 33.7482C0.622867 33.1761 0.985483 32.6589 1.44139 32.2273C1.88722 31.7767 2.42133 31.4192 3.01159 31.1763C3.60185 30.9335 4.23607 30.8103 4.8761 30.8142C5.48574 30.8066 6.09087 30.9176 6.65646 31.141C7.22206 31.3644 7.73689 31.6956 8.17115 32.1156L7.24501 33.0403C6.61002 32.439 5.75847 32.1085 4.8761 32.1209C4.41935 32.1162 3.96658 32.2046 3.54645 32.3805C3.12631 32.5564 2.74796 32.816 2.43533 33.1428C1.79209 33.7863 1.43177 34.6518 1.43177 35.5532C1.43177 36.4546 1.79209 37.3201 2.43533 37.9636C3.07983 38.5941 3.94975 38.9528 4.85978 38.9633C5.76982 38.9737 6.64804 38.6351 7.30739 38.0195C7.71291 37.5815 7.96146 37.0255 8.01521 36.436H4.89644V35.1281H9.31424C9.35766 35.3919 9.37537 35.6593 9.36713 35.9264C9.39463 36.4781 9.30774 37.0296 9.11173 37.5474C8.91571 38.0652 8.61464 38.5386 8.22674 38.9389C7.79557 39.3791 7.27467 39.7251 6.69803 39.9544C6.12139 40.1836 5.50196 40.291 4.88017 40.2695L4.8761 40.2709ZM15.1504 39.4033C14.5574 39.9611 13.7677 40.2725 12.9462 40.2725C12.1248 40.2725 11.3351 39.9611 10.7421 39.4033C10.1647 38.8227 9.84153 38.0436 9.84153 37.2324C9.84153 36.4212 10.1647 35.6421 10.7421 35.0615C11.3357 34.5049 12.1252 34.1943 12.9462 34.1943C13.7673 34.1943 14.5568 34.5049 15.1504 35.0615C15.7294 35.6413 16.0537 36.4207 16.0537 37.2324C16.0537 38.0441 15.7294 38.8235 15.1504 39.4033ZM11.7143 38.5504C12.0202 38.8706 12.4432 39.0584 12.8902 39.0726C13.3373 39.0869 13.7718 38.9263 14.0982 38.6262C14.1253 38.6023 14.151 38.577 14.1768 38.5504C14.5117 38.1891 14.6973 37.7182 14.6973 37.2298C14.6973 36.7413 14.5117 36.2704 14.1768 35.9091C14.0212 35.7499 13.8352 35.6223 13.6293 35.5336C13.4234 35.4449 13.2018 35.3969 12.977 35.3923C12.7522 35.3878 12.5287 35.4267 12.3193 35.5069C12.1098 35.5872 11.9186 35.7071 11.7564 35.8599L11.7048 35.9091C11.3682 36.2696 11.1814 36.7408 11.1814 37.2298C11.1814 37.7187 11.3682 38.1899 11.7048 38.5504H11.7143ZM21.9263 39.4033C21.3333 39.9611 20.5436 40.2725 19.7221 40.2725C18.9007 40.2725 18.111 39.9611 17.518 39.4033C16.9406 38.8227 16.6174 38.0436 16.6174 37.2324C16.6174 36.4212 16.9406 35.6421 17.518 35.0615C18.111 34.5037 18.9007 34.1923 19.7221 34.1923C20.5436 34.1923 21.3333 34.5037 21.9263 35.0615C22.5036 35.6421 22.8268 36.4212 22.8268 37.2324C22.8268 38.0436 22.5036 38.8227 21.9263 39.4033ZM18.4915 38.5504C18.6428 38.709 18.8245 38.8369 19.0261 38.9265C19.2278 39.0162 19.4455 39.066 19.6668 39.0731C19.888 39.0801 20.1086 39.0443 20.3157 38.9676C20.5229 38.8909 20.7126 38.7749 20.874 38.6262C20.9011 38.6023 20.9269 38.577 20.9527 38.5504C21.2876 38.1891 21.4732 37.7182 21.4732 37.2298C21.4732 36.7413 21.2876 36.2704 20.9527 35.9091C20.7971 35.7499 20.611 35.6223 20.4052 35.5336C20.1993 35.4449 19.9776 35.3969 19.7528 35.3923C19.5281 35.3878 19.3046 35.4267 19.0951 35.5069C18.8857 35.5872 18.6944 35.7071 18.5322 35.8599L18.4807 35.9091C18.144 36.2696 17.9573 36.7408 17.9573 37.2298C17.9573 37.7187 18.144 38.1899 18.4807 38.5504H18.4915ZM26.3807 42.9986C25.7569 43.0177 25.1454 42.8266 24.6477 42.4571C24.206 42.1314 23.8583 41.6985 23.6389 41.201L24.8254 40.7153C24.9544 41.0125 25.1561 41.2739 25.4125 41.4764C25.6879 41.6935 26.0329 41.8076 26.3861 41.7984C26.61 41.8117 26.8342 41.7775 27.0434 41.6981C27.2526 41.6186 27.4419 41.4958 27.5983 41.338C27.9129 40.9663 28.068 40.4892 28.0309 40.0074V39.5683H27.9834C27.7854 39.7993 27.5352 39.9818 27.2528 40.1014C26.9703 40.2211 26.6634 40.2745 26.3563 40.2576C25.9656 40.2589 25.579 40.1807 25.2207 40.028C24.8624 39.8752 24.5404 39.6512 24.2748 39.37C23.9864 39.0909 23.7587 38.7572 23.6056 38.3892C23.4524 38.0212 23.377 37.6265 23.3839 37.2291C23.3767 36.8293 23.4517 36.4322 23.6046 36.0616C23.7574 35.691 23.9849 35.3545 24.2735 35.0722C24.5384 34.7898 24.8602 34.5645 25.2185 34.4105C25.5768 34.2566 25.9638 34.1774 26.3549 34.178C26.6858 34.1776 27.0127 34.2489 27.3122 34.3869C27.5719 34.4979 27.8034 34.6637 27.9902 34.8726H28.0377V34.3869H29.3286V39.8264C29.3624 40.2568 29.3064 40.6895 29.164 41.0979C29.0215 41.5063 28.7956 41.8818 28.5001 42.2016C28.2187 42.4656 27.8864 42.6716 27.5226 42.8076C27.1589 42.9435 26.771 43.0067 26.382 42.9933L26.3807 42.9986ZM26.4742 39.076C26.6966 39.0807 26.9173 39.0374 27.1207 38.9491C27.3241 38.8608 27.5053 38.7297 27.6512 38.565C27.9722 38.2041 28.1413 37.737 28.1245 37.2584C28.1425 36.7723 27.9736 36.2973 27.6512 35.9277C27.5055 35.7628 27.3244 35.6314 27.121 35.5431C26.9175 35.4548 26.6967 35.4117 26.4742 35.4168C26.2455 35.412 26.0184 35.4552 25.8079 35.5433C25.5975 35.6314 25.4086 35.7624 25.2538 35.9277C24.9094 36.284 24.7223 36.7594 24.7332 37.2504C24.7235 37.7364 24.9107 38.2064 25.2538 38.557C25.4076 38.7244 25.596 38.8575 25.8065 38.9474C26.017 39.0374 26.2447 39.0821 26.4742 39.0786V39.076ZM31.627 31.1602V40.0872H30.271V31.1602H31.627ZM35.3532 40.2709C34.9464 40.2812 34.5418 40.209 34.1648 40.0588C33.7877 39.9086 33.4463 39.6837 33.162 39.398C32.8737 39.1141 32.6472 38.7757 32.4962 38.4033C32.3451 38.031 32.2727 37.6324 32.2833 37.2318C32.268 36.8304 32.3352 36.4302 32.4808 36.0548C32.6264 35.6795 32.8474 35.3367 33.1308 35.0469C33.3982 34.7701 33.7216 34.5512 34.0803 34.4044C34.439 34.2575 34.825 34.1858 35.2136 34.194C35.5703 34.1902 35.9242 34.2576 36.2536 34.3922C36.5506 34.5103 36.8214 34.6838 37.0509 34.9032C37.4149 35.2436 37.6974 35.6589 37.8781 36.1194L38.0137 36.4666L33.8508 38.1459C33.9766 38.4294 34.1869 38.6689 34.4541 38.8328C34.7214 38.9967 35.033 39.0773 35.3478 39.064C35.6546 39.0649 35.9563 38.9878 36.2237 38.8402C36.4911 38.6926 36.7149 38.4795 36.8733 38.2217L37.9133 38.911C37.6483 39.2845 37.3088 39.6014 36.9153 39.8424C36.4467 40.1325 35.9018 40.2815 35.3478 40.2709H35.3532ZM33.6149 37.1399L36.3838 36.0116C36.2986 35.8128 36.1464 35.6488 35.9526 35.5472C35.7353 35.4264 35.489 35.3649 35.2393 35.3689C34.8159 35.3794 34.4139 35.5534 34.1206 35.8532C33.9452 36.0181 33.8089 36.2188 33.7214 36.4412C33.634 36.6636 33.5976 36.9022 33.6149 37.1399Z" fill="#424B5A"/>
<path d="M45.1272 40.2709C43.9902 40.2898 42.8921 39.8649 42.0741 39.0897C41.2562 38.3145 40.7853 37.2524 40.765 36.1367C40.765 36.0795 40.765 36.0223 40.765 35.9664C40.7384 34.8505 41.1646 33.77 41.9499 32.9625C42.7351 32.155 43.8151 31.6867 44.9522 31.6605H45.1258C45.7105 31.6426 46.2917 31.7546 46.8261 31.988C47.3605 32.2214 47.8343 32.5702 48.212 33.0085L47.4622 33.7243C47.1853 33.3822 46.83 33.109 46.4252 32.927C46.0203 32.7451 45.5775 32.6594 45.1326 32.6771C44.704 32.6672 44.2778 32.7427 43.8798 32.8989C43.4817 33.055 43.12 33.2888 42.8166 33.5859C42.2105 34.2358 41.8743 35.0848 41.8743 35.9657C41.8743 36.8467 42.2105 37.6957 42.8166 38.3455C43.12 38.6427 43.4817 38.8764 43.8798 39.0326C44.2778 39.1888 44.704 39.2642 45.1326 39.2543C45.6302 39.2597 46.1226 39.1548 46.5732 38.9474C47.0237 38.7401 47.4208 38.4356 47.7347 38.0568L48.4846 38.7926C48.092 39.2528 47.5995 39.621 47.0432 39.8704C46.4429 40.1421 45.7882 40.2785 45.1272 40.2696V40.2709Z" fill="#424B5A"/>
<path d="M50.4983 40.0873H49.4203V31.8375H50.4983V40.0873Z" fill="#424B5A"/>
<path d="M52.2569 35.1228C52.8217 34.5732 53.585 34.2648 54.3804 34.2648C55.1758 34.2648 55.9391 34.5732 56.5039 35.1228C57.0401 35.7133 57.3365 36.4767 57.3365 37.2677C57.3365 38.0587 57.0401 38.8221 56.5039 39.4127C55.9394 39.9629 55.1761 40.2717 54.3804 40.2717C53.5847 40.2717 52.8214 39.9629 52.2569 39.4127C51.7206 38.8221 51.4243 38.0587 51.4243 37.2677C51.4243 36.4767 51.7206 35.7133 52.2569 35.1228ZM53.0583 38.7487C53.3894 39.0922 53.8459 39.2925 54.3275 39.3058C54.8092 39.319 55.2764 39.144 55.6265 38.8192C55.651 38.7966 55.674 38.7726 55.6971 38.7487C56.0566 38.3359 56.2542 37.8107 56.2542 37.2677C56.2542 36.7247 56.0566 36.1995 55.6971 35.7867C55.5332 35.6168 55.3367 35.4802 55.119 35.3848C54.9013 35.2893 54.6666 35.2369 54.4282 35.2304C54.1899 35.224 53.9525 35.2637 53.7298 35.3473C53.5071 35.4309 53.3033 35.5567 53.1302 35.7176C53.1058 35.7402 53.0814 35.7628 53.0583 35.7867C52.6968 36.1976 52.4979 36.7223 52.4979 37.2651C52.4979 37.8078 52.6968 38.3325 53.0583 38.7434V38.7487Z" fill="#424B5A"/>
<path d="M63.3068 40.0872H62.2654V39.3062H62.2342C62.0491 39.6026 61.7871 39.8456 61.4749 40.01C61.1509 40.195 60.7825 40.292 60.4077 40.2908C60.1047 40.3105 59.8011 40.2629 59.5194 40.1516C59.2377 40.0404 58.9852 39.8683 58.7805 39.6481C58.3852 39.1579 58.1869 38.5424 58.2232 37.9183V34.4454H59.3012V37.7334C59.3012 38.7846 59.7745 39.3106 60.7209 39.3115C60.9305 39.3165 61.1383 39.2725 61.3272 39.1832C61.516 39.0939 61.6805 38.9618 61.8071 38.7979C62.0864 38.4508 62.2353 38.0199 62.2288 37.5777V34.4494H63.3136L63.3068 40.0872Z" fill="#424B5A"/>
<path d="M66.9653 40.2709C66.5998 40.2724 66.2383 40.196 65.9059 40.0469C65.5734 39.8978 65.2779 39.6796 65.0399 39.4074C64.5191 38.8116 64.2329 38.0526 64.2329 37.2678C64.2329 36.4829 64.5191 35.7239 65.0399 35.1281C65.2783 34.8564 65.5739 34.6385 65.9063 34.4895C66.2386 34.3404 66.5999 34.2637 66.9653 34.2646C67.3747 34.2586 67.779 34.3538 68.141 34.5413C68.4596 34.6983 68.7293 34.9363 68.922 35.2306H68.9681L68.922 34.4495V31.8389H69.9987V40.0886H68.9586V39.3076H68.9112C68.7185 39.6019 68.4487 39.8399 68.1301 39.9968C67.7711 40.1817 67.3708 40.2759 66.9653 40.2709ZM67.1416 39.3062C67.3853 39.3098 67.6269 39.2623 67.8504 39.1671C68.0739 39.0719 68.2742 38.9311 68.4379 38.754C68.7753 38.3293 68.9585 37.8062 68.9585 37.2678C68.9585 36.7293 68.7753 36.2062 68.4379 35.7815C68.1233 35.4436 67.6851 35.2419 67.2193 35.2205C66.7534 35.199 66.2979 35.3596 65.9524 35.667C65.9116 35.7032 65.8726 35.7413 65.8358 35.7815C65.4973 36.2036 65.3133 36.7252 65.3133 37.2624C65.3133 37.7996 65.4973 38.3212 65.8358 38.7434C65.9992 38.9228 66.1997 39.0658 66.424 39.1628C66.6483 39.2599 66.8911 39.3088 67.1362 39.3062H67.1416Z" fill="#424B5A"/>
</g>
<defs>
<clipPath id="clip0_389_2099">
<rect width="70" height="43" fill="white"/>
</clipPath>
</defs>
</svg>
