<svg width="80" height="27" viewBox="0 0 80 27" fill="none" xmlns="http://www.w3.org/2000/svg">
<g clip-path="url(#clip0_389_1101)">
<path fill-rule="evenodd" clip-rule="evenodd" d="M15.3448 7.21488L15.3191 0H11.3076L11.3332 7.21488L13.339 9.97894L15.3448 7.21488ZM11.3332 19.5802V26.8208H15.3448V19.5802L13.339 16.8161L11.3332 19.5802Z" fill="white"/>
<path fill-rule="evenodd" clip-rule="evenodd" d="M15.3448 19.5802L19.5702 25.4302L22.8034 23.0696L18.578 17.2196L15.3448 16.1723V19.5802ZM11.3333 7.21488L7.08225 1.36487L3.84906 3.72548L8.07444 9.5712L11.3333 10.6185V7.21488Z" fill="#00F2E6"/>
<path fill-rule="evenodd" clip-rule="evenodd" d="M8.07441 9.57546L1.23169 7.3479L0 11.1549L6.84272 13.4082L10.0759 12.3352L8.07441 9.57546ZM16.5722 14.4555L18.578 17.2195L25.4207 19.4471L26.6524 15.6401L19.8097 13.4125L16.5722 14.4555Z" fill="#00B9F1"/>
<path fill-rule="evenodd" clip-rule="evenodd" d="M19.8054 13.4125L26.6481 11.1592L25.4164 7.35217L18.5737 9.57973L16.5679 12.3438L19.8054 13.4125ZM6.84272 13.4125L0 15.6401L1.23169 19.4471L8.07441 17.2195L10.0802 14.4555L6.84272 13.4125Z" fill="#D63AFF"/>
<path fill-rule="evenodd" clip-rule="evenodd" d="M8.07444 17.2196L3.84906 23.0696L7.08225 25.4302L11.3333 19.5802V16.1723L8.07444 17.2196ZM18.578 9.57549L22.8034 3.72548L19.5702 1.36487L15.3448 7.21059V10.6185L18.578 9.57549Z" fill="#FB015B"/>
<path fill-rule="evenodd" clip-rule="evenodd" d="M41.6165 6.83716V16.2238C41.6165 18.2883 39.9315 19.9793 37.8744 19.9793V18.0994C38.1208 18.101 38.3651 18.0534 38.5931 17.9594C38.821 17.8655 39.0281 17.7271 39.2024 17.5522C39.3766 17.3774 39.5146 17.1695 39.6082 16.9407C39.7017 16.712 39.7492 16.4668 39.7476 16.2195V6.83716H41.6165ZM75.7788 8.71706H79.9999V6.84145H69.7102V8.71706H73.9056V19.9836H75.7788V8.71706ZM64.0692 6.83716V16.2238C64.0692 16.4707 64.0208 16.7151 63.9266 16.9432C63.8325 17.1713 63.6945 17.3785 63.5206 17.5531C63.3466 17.7277 63.1401 17.8661 62.9129 17.9606C62.6856 18.0551 62.442 18.1037 62.196 18.1037C61.95 18.1037 61.7065 18.0551 61.4792 17.9606C61.2519 17.8661 61.0454 17.7277 60.8715 17.5531C60.6975 17.3785 60.5596 17.1713 60.4654 16.9432C60.3713 16.7151 60.3228 16.4707 60.3228 16.2238V10.5927C60.3228 8.52821 58.6378 6.83716 56.5807 6.83716C54.5236 6.83716 52.8386 8.52821 52.8386 10.5927V16.2281C52.8386 16.7267 52.6412 17.2048 52.29 17.5574C51.9387 17.9099 51.4622 18.108 50.9654 18.108C50.4686 18.108 49.9922 17.9099 49.6409 17.5574C49.2896 17.2048 49.0922 16.7267 49.0922 16.2281V6.83716H47.219V16.2238C47.219 18.2883 48.904 19.9793 50.9611 19.9793C53.0182 19.9793 54.7032 18.2883 54.7032 16.2238V10.5927C54.7032 10.0941 54.9006 9.61593 55.2519 9.26338C55.6032 8.91083 56.0796 8.71277 56.5764 8.71277C57.0732 8.71277 57.5497 8.91083 57.901 9.26338C58.2523 9.61593 58.4496 10.0941 58.4496 10.5927V16.2281C58.4496 18.2926 60.1347 19.9836 62.1917 19.9836C64.2488 19.9836 65.9339 18.2926 65.9339 16.2281V6.83716H64.0692Z" fill="white"/>
</g>
<defs>
<clipPath id="clip0_389_1101">
<rect width="80" height="26.8208" fill="white"/>
</clipPath>
</defs>
</svg>
