<svg width="54" height="45" viewBox="0 0 54 45" fill="none" xmlns="http://www.w3.org/2000/svg">
<g clip-path="url(#clip0_389_2027)">
<path fill-rule="evenodd" clip-rule="evenodd" d="M26.3495 0L12.2678 5.18753L14.4936 24.4962L26.3495 31.3268L38.3019 24.4042L40.5276 5.09553L26.3495 0Z" fill="#DD0031"/>
<path fill-rule="evenodd" clip-rule="evenodd" d="M23.4402 13.3632H28.0692C28.6903 13.3836 29.2967 13.1711 29.7691 12.7673C30.2233 12.3716 30.4504 11.7998 30.4504 11.052C30.4504 10.2108 30.246 9.61933 29.837 9.27759C29.4281 8.93584 28.8388 8.76424 28.0692 8.76278H23.4402V13.3632ZM20.3733 6.35303H28.2203C29.6662 6.35303 30.8265 6.69039 31.7013 7.36512C32.5761 8.03985 33.0143 9.06217 33.0157 10.4321C33.0378 11.1835 32.8307 11.9239 32.422 12.5549C31.997 13.1661 31.4044 13.6416 30.7155 13.924V13.97C31.6289 14.1329 32.4412 14.6492 32.9763 15.4071C33.4831 16.152 33.7365 17.0845 33.7365 18.2046C33.7411 18.8226 33.6258 19.4357 33.3969 20.0097C33.1694 20.5768 32.8043 21.0782 32.3344 21.4687C31.7871 21.9109 31.157 22.2393 30.4811 22.4348C29.6065 22.6869 28.6987 22.8044 27.7888 22.7831H20.3733V6.35303ZM23.4402 20.3734H28.4087C29.2631 20.3734 29.9269 20.1543 30.4 19.7162C30.8732 19.2781 31.1091 18.6464 31.1076 17.8213C31.1076 17.0224 30.8718 16.4083 30.4 15.9789C29.9283 15.5495 29.2645 15.3348 28.4087 15.3348H23.4402V20.3734Z" fill="white"/>
<path fill-rule="evenodd" clip-rule="evenodd" d="M0 38.4443H0.898179V39.0752L0.915705 39.0927C1.05412 38.8608 1.24843 38.6672 1.4809 38.5297C1.71755 38.3974 1.98532 38.3308 2.2564 38.3369C2.66125 38.3142 3.05967 38.4457 3.37146 38.705C3.5144 38.8473 3.62484 39.0189 3.69517 39.208C3.76551 39.3971 3.79408 39.5992 3.77893 39.8003V42.7555H2.83036V40.0413C2.84242 39.7783 2.76522 39.5189 2.61129 39.3052C2.52947 39.2254 2.4312 39.1645 2.32335 39.1266C2.21551 39.0888 2.10069 39.075 1.98695 39.0862C1.8363 39.0835 1.68685 39.1134 1.54881 39.1738C1.42431 39.2303 1.3131 39.3124 1.2224 39.4148C1.12765 39.5215 1.05338 39.6448 1.00333 39.7784C0.954062 39.9192 0.928881 40.0674 0.928849 40.2165V42.7555H0V38.4443ZM8.67072 42.5233C8.67072 43.1718 8.48889 43.6559 8.12524 43.9758C7.76159 44.2956 7.23874 44.4548 6.55671 44.4533C6.336 44.4533 6.11584 44.4313 5.89951 44.3876C5.68857 44.3487 5.48566 44.2747 5.29926 44.1685C5.11994 44.064 4.96527 43.922 4.84579 43.7523C4.71676 43.565 4.64104 43.3462 4.62672 43.1192H5.57529C5.59615 43.2378 5.64497 43.3497 5.71768 43.4456C5.7817 43.5268 5.86238 43.5933 5.95427 43.6406C6.05001 43.6878 6.1529 43.7189 6.25878 43.7326C6.37439 43.746 6.4907 43.7526 6.6071 43.7523C6.75968 43.7648 6.9132 43.7456 7.05799 43.6958C7.20277 43.646 7.33567 43.5668 7.44832 43.4631C7.63955 43.2363 7.73536 42.9442 7.71558 42.6482V41.991H7.69806C7.57092 42.2216 7.38399 42.4137 7.15693 42.5471C6.92988 42.6805 6.67108 42.7502 6.40774 42.749C6.1057 42.7576 5.80577 42.6961 5.53147 42.5693C5.29613 42.4553 5.09117 42.2872 4.93342 42.0786C4.77643 41.8624 4.6633 41.6176 4.60043 41.3579C4.52687 41.0717 4.49078 40.7771 4.49309 40.4816C4.49167 40.201 4.53607 39.922 4.62453 39.6557C4.70845 39.4053 4.83848 39.1727 5.0079 38.9701C5.17617 38.7708 5.38538 38.6102 5.62129 38.4991C5.87751 38.3791 6.15772 38.3191 6.4406 38.3238C6.7003 38.3211 6.95699 38.3796 7.18982 38.4947C7.4188 38.6109 7.60289 38.7996 7.71339 39.0314H7.73092V38.4421H8.67948L8.67072 42.5233ZM6.57205 41.9976C6.75937 42.004 6.94492 41.9594 7.10876 41.8683C7.25341 41.7846 7.37586 41.6674 7.46584 41.5266C7.56028 41.379 7.62778 41.2158 7.6652 41.0446C7.70709 40.8658 7.7284 40.6828 7.72872 40.4991C7.72938 40.3195 7.70655 40.1405 7.66081 39.9668C7.62091 39.8032 7.5519 39.6481 7.45708 39.509C7.36654 39.3754 7.24371 39.2669 7.1 39.1935C6.93668 39.1105 6.75515 39.0699 6.57205 39.0752C6.38494 39.0695 6.19991 39.1157 6.03752 39.2088C5.89623 39.2957 5.777 39.4142 5.6892 39.555C5.5969 39.7029 5.53163 39.8661 5.49642 40.0369C5.4593 40.2134 5.44021 40.3933 5.43946 40.5736C5.43918 40.7495 5.46126 40.9247 5.50518 41.095C5.5469 41.2566 5.61579 41.41 5.70892 41.5485C5.8001 41.6814 5.91986 41.7921 6.05943 41.8727C6.2159 41.9598 6.39303 42.003 6.57205 41.9976V41.9976ZM10.7059 40.4838L9.20086 38.4443H10.351L11.2492 39.7587L12.1911 38.4443H13.2865L11.8297 40.4334L13.4793 42.7468H12.3379L11.2426 41.1564L10.1867 42.7468H9.07599L10.7059 40.4838ZM13.8407 40.0325H16.2549V40.9329H13.8342L13.8407 40.0325ZM17.1005 36.8035H18.0512V38.9941H18.0666C18.1335 38.8893 18.2146 38.7942 18.3075 38.7116C18.5002 38.5444 18.73 38.4258 18.9779 38.3654C19.099 38.3353 19.2233 38.3199 19.3481 38.3194C19.6535 38.313 19.9565 38.3744 20.2353 38.4991C20.48 38.6138 20.6951 38.7832 20.8641 38.9941C21.0391 39.2105 21.1701 39.4591 21.2496 39.7258C21.3347 40.0146 21.3767 40.3143 21.3745 40.6153C21.3751 40.8994 21.3376 41.1823 21.2628 41.4565C21.1943 41.7158 21.0785 41.9601 20.921 42.1772C20.7615 42.3978 20.5502 42.5757 20.3057 42.6953C20.0612 42.8149 19.791 42.8724 19.519 42.8629C19.3725 42.8632 19.2261 42.8537 19.0808 42.8344C18.9364 42.8153 18.7951 42.7778 18.6602 42.7227C18.5295 42.668 18.4077 42.5942 18.2988 42.5036C18.1849 42.4068 18.0924 42.2875 18.0271 42.1531H18.0118V42.7446H17.1005V36.8035ZM20.415 40.5999C20.4146 40.4084 20.3896 40.2177 20.3405 40.0325C20.2961 39.859 20.222 39.6944 20.1214 39.5462C20.0197 39.4091 19.8897 39.2956 19.7402 39.2132C19.5823 39.1252 19.404 39.0806 19.2232 39.084C19.0501 39.0735 18.8771 39.1061 18.7197 39.1787C18.5622 39.2513 18.4251 39.3618 18.3207 39.5002C18.1041 39.828 17.9975 40.2162 18.0162 40.6087C18.0141 40.8123 18.0414 41.0152 18.0972 41.2111C18.1437 41.3851 18.2241 41.5481 18.3338 41.6909C18.4362 41.8219 18.5654 41.9295 18.7128 42.0063C18.8789 42.0853 19.0609 42.125 19.2447 42.1223C19.4286 42.1197 19.6094 42.0747 19.7731 41.991C19.9253 41.9029 20.0556 41.7816 20.1543 41.6361C20.2581 41.4905 20.3325 41.3261 20.3733 41.152C20.4081 40.9701 20.4221 40.7849 20.415 40.5999V40.5999ZM24.0493 42.8629C23.7342 42.8684 23.4213 42.8102 23.1292 42.692C22.8703 42.5868 22.6371 42.4269 22.4457 42.2232C22.2566 42.0164 22.1126 41.7724 22.0229 41.5069C21.922 41.2123 21.8723 40.9025 21.8761 40.5912C21.8727 40.2827 21.9223 39.9759 22.0229 39.6842C22.1126 39.4187 22.2566 39.1747 22.4457 38.9679C22.6376 38.7641 22.8705 38.6036 23.1292 38.4969C23.7215 38.2691 24.3771 38.2691 24.9694 38.4969C25.2277 38.6031 25.46 38.7638 25.6507 38.9679C25.8413 39.174 25.9862 39.4181 26.0757 39.6842C26.1763 39.9759 26.2259 40.2827 26.2225 40.5912C26.2263 40.9025 26.1767 41.2123 26.0757 41.5069C25.9862 41.773 25.8413 42.0171 25.6507 42.2232C25.4605 42.4273 25.228 42.5873 24.9694 42.692C24.6773 42.8102 24.3644 42.8684 24.0493 42.8629V42.8629ZM24.0493 42.1137C24.2409 42.1187 24.4305 42.0734 24.5992 41.9822C24.7498 41.8927 24.878 41.7698 24.9738 41.623C25.0755 41.4754 25.1497 41.3106 25.1928 41.1366C25.2848 40.7773 25.2848 40.4006 25.1928 40.0413C25.151 39.8669 25.0766 39.7019 24.9738 39.555C24.8743 39.4125 24.744 39.2942 24.5926 39.2088C24.4232 39.1218 24.2354 39.0764 24.0449 39.0764C23.8544 39.0764 23.6667 39.1218 23.4973 39.2088C23.3456 39.2947 23.2147 39.4129 23.1139 39.555C23.0118 39.7024 22.9376 39.8672 22.8948 40.0413C22.8 40.4003 22.8 40.7777 22.8948 41.1366C22.9389 41.3103 23.013 41.4749 23.1139 41.623C23.214 41.7669 23.3449 41.8867 23.4973 41.9735C23.6657 42.0681 23.8561 42.1164 24.0493 42.1137V42.1137ZM28.8995 42.8629C28.5844 42.8684 28.2715 42.8102 27.9794 42.692C27.7205 42.5868 27.4873 42.4269 27.2959 42.2232C27.106 42.0165 26.9613 41.7726 26.8709 41.5069C26.7718 41.2119 26.7229 40.9023 26.7263 40.5912C26.7232 40.2829 26.7721 39.9763 26.8709 39.6842C26.9613 39.4185 27.106 39.1746 27.2959 38.9679C27.4877 38.7641 27.7207 38.6036 27.9794 38.4969C28.5716 38.2691 29.2273 38.2691 29.8196 38.4969C30.0765 38.6048 30.3073 38.7666 30.4963 38.9715C30.6853 39.1763 30.828 39.4194 30.9149 39.6842C31.0145 39.9761 31.0641 40.2827 31.0617 40.5912C31.0644 40.9025 31.0148 41.212 30.9149 41.5069C30.8254 41.773 30.6805 42.0171 30.4899 42.2232C30.2989 42.4264 30.0666 42.5862 29.8086 42.692C29.5199 42.8088 29.2109 42.8669 28.8995 42.8629V42.8629ZM28.8995 42.1137C29.0911 42.1187 29.2807 42.0734 29.4493 41.9822C29.601 41.8953 29.7312 41.7756 29.8305 41.6317C29.9314 41.4837 30.0055 41.3191 30.0496 41.1454C30.1416 40.7861 30.1416 40.4094 30.0496 40.0501C30.0067 39.876 29.9325 39.7112 29.8305 39.5637C29.7305 39.4217 29.6003 39.3035 29.4493 39.2176C29.2799 39.1305 29.0922 39.0851 28.9017 39.0851C28.7112 39.0851 28.5234 39.1305 28.354 39.2176C28.2024 39.3034 28.0715 39.4216 27.9706 39.5637C27.8686 39.7112 27.7944 39.876 27.7516 40.0501C27.6596 40.4094 27.6596 40.7861 27.7516 41.1454C27.7956 41.3191 27.8698 41.4837 27.9706 41.6317C28.0707 41.7757 28.2017 41.8954 28.354 41.9822C28.5213 42.0727 28.7093 42.118 28.8995 42.1137V42.1137ZM31.3421 38.4443H32.0584V37.154H33.007V38.4443H33.8657V39.1519H33.007V41.4477C33.0063 41.5341 33.0106 41.6204 33.0201 41.7062C33.0265 41.7711 33.0466 41.8338 33.0793 41.8902C33.1107 41.9417 33.1585 41.9811 33.2151 42.002C33.2954 42.0295 33.38 42.0421 33.4649 42.0392C33.5328 42.0392 33.5985 42.0392 33.6664 42.0392C33.7337 42.0371 33.8006 42.0275 33.8657 42.0107V42.7424L33.5569 42.7775C33.455 42.7882 33.3526 42.7933 33.2502 42.7928C33.0447 42.7971 32.8396 42.772 32.6412 42.7183C32.5059 42.6814 32.3828 42.6097 32.2841 42.5102C32.1944 42.4135 32.1336 42.2936 32.1088 42.1641C32.0764 42.0083 32.0581 41.8499 32.0541 41.6909V39.1519H31.3377L31.3421 38.4443ZM35.178 41.3645C35.1788 41.48 35.208 41.5936 35.263 41.6952C35.318 41.7968 35.3971 41.8833 35.4934 41.9472C35.6928 42.0626 35.9204 42.1202 36.1506 42.1137C36.2524 42.1129 36.3541 42.1063 36.4551 42.094C36.5648 42.082 36.6723 42.0554 36.775 42.0151C36.8708 41.9793 36.956 41.9197 37.0225 41.842C37.0896 41.7589 37.1211 41.6526 37.1101 41.5463C37.1094 41.4898 37.0972 41.4341 37.0742 41.3825C37.0512 41.3309 37.018 41.2845 36.9765 41.2462C36.8838 41.1628 36.775 41.0994 36.6567 41.06C36.5139 41.0086 36.3675 40.9683 36.2185 40.9395C36.052 40.9044 35.8812 40.8694 35.7103 40.8299C35.5371 40.792 35.366 40.7452 35.1977 40.6897C35.0417 40.6387 34.894 40.5648 34.7595 40.4707C34.6285 40.3761 34.5213 40.2523 34.4463 40.1092C34.3641 39.9394 34.3242 39.7523 34.3302 39.5637C34.3227 39.3548 34.3826 39.1489 34.501 38.9766C34.6166 38.8177 34.7663 38.6867 34.9392 38.5933C35.121 38.4939 35.3178 38.4251 35.5219 38.3895C35.7234 38.3511 35.928 38.3313 36.1331 38.3304C36.3477 38.3296 36.5616 38.3539 36.7706 38.4027C36.9646 38.4431 37.1499 38.5172 37.3183 38.6217C37.4829 38.7279 37.6226 38.8684 37.7279 39.0336C37.8408 39.2203 37.9104 39.4299 37.9317 39.647H36.9415C36.9307 39.5509 36.8965 39.4589 36.8418 39.379C36.7872 39.2992 36.7139 39.234 36.6282 39.1891C36.4526 39.1077 36.2609 39.0673 36.0674 39.0708C35.9875 39.0721 35.9078 39.0779 35.8286 39.0883C35.7404 39.0992 35.6537 39.1198 35.5701 39.1497C35.4936 39.1796 35.4242 39.2251 35.3664 39.2833C35.3125 39.3435 35.2828 39.4216 35.2831 39.5024C35.2817 39.5554 35.2917 39.6081 35.3125 39.6569C35.3333 39.7056 35.3644 39.7493 35.4036 39.785C35.4972 39.8643 35.605 39.9253 35.7213 39.9646C35.8642 40.0153 36.0106 40.0555 36.1594 40.0851C36.3259 40.118 36.4989 40.153 36.6764 40.1925C36.8481 40.2312 37.0178 40.2787 37.1846 40.3348C37.3409 40.3853 37.4886 40.4592 37.6228 40.5539C37.7528 40.6493 37.8604 40.7719 37.9382 40.9132C38.0235 41.0773 38.065 41.2607 38.0587 41.4455C38.0683 41.677 38.008 41.906 37.8856 42.1027C37.7687 42.2813 37.613 42.431 37.43 42.5409C37.238 42.6547 37.0285 42.7361 36.81 42.7818C36.5892 42.8311 36.3637 42.8561 36.1375 42.8563C35.8835 42.8583 35.6303 42.8281 35.3839 42.7665C35.1679 42.7117 34.9642 42.6166 34.7836 42.4861C34.6165 42.3634 34.48 42.2037 34.3849 42.0195C34.2827 41.8155 34.2295 41.5905 34.2294 41.3623L35.178 41.3645ZM38.2624 38.4443H38.9788V37.154H39.9274V38.4443H40.7839V39.1519H39.9274V41.4477C39.9274 41.5485 39.9274 41.6339 39.9383 41.7062C39.9446 41.7711 39.9648 41.8338 39.9975 41.8902C40.0297 41.9419 40.0783 41.9812 40.1355 42.002C40.2158 42.0295 40.3004 42.0421 40.3852 42.0392C40.4509 42.0392 40.5188 42.0392 40.5846 42.0392C40.6519 42.0372 40.7188 42.0277 40.7839 42.0107V42.7424L40.4772 42.7775C40.3746 42.7881 40.2715 42.7933 40.1683 42.7928C39.9645 42.7981 39.7609 42.7745 39.5637 42.7227C39.4287 42.6852 39.3057 42.6136 39.2066 42.5146C39.1178 42.4173 39.0572 42.2976 39.0314 42.1684C38.9987 42.0128 38.9811 41.8543 38.9788 41.6953V39.1519H38.2624V38.4443ZM41.3798 38.4443H42.2802V39.2767C42.3114 39.1534 42.3665 39.0373 42.4423 38.935C42.5261 38.8215 42.624 38.7192 42.7336 38.6305C42.8487 38.5396 42.9764 38.4658 43.1126 38.4114C43.2478 38.3571 43.392 38.3289 43.5376 38.3282C43.6493 38.3282 43.726 38.3282 43.7567 38.3282L43.8859 38.3457V39.2614L43.68 39.2307C43.6121 39.2307 43.5442 39.2198 43.4763 39.2198C43.3201 39.2185 43.1655 39.2506 43.0228 39.314C42.8801 39.3807 42.7537 39.4779 42.6526 39.5988C42.5407 39.7356 42.456 39.8925 42.4028 40.061C42.3381 40.2649 42.3071 40.478 42.3108 40.6919V42.7402H41.3623L41.3798 38.4443ZM47.8292 41.7895C47.8235 41.875 47.8385 41.9607 47.873 42.0392C47.8938 42.0662 47.9213 42.0874 47.9528 42.1004C47.9844 42.1135 48.0188 42.1181 48.0526 42.1137H48.1534C48.1983 42.1134 48.2431 42.1083 48.287 42.0983V42.7555L48.1578 42.7928L47.9956 42.83L47.8292 42.8563H47.6868C47.5184 42.8636 47.3514 42.8234 47.2048 42.7402C47.1359 42.6947 47.0779 42.6346 47.0348 42.5642C46.9916 42.4938 46.9644 42.4148 46.9551 42.3327C46.7586 42.5201 46.5195 42.6569 46.2584 42.7315C46.001 42.8121 45.733 42.8542 45.4632 42.8563C45.2749 42.857 45.0875 42.8304 44.9068 42.7775C44.737 42.7292 44.5774 42.6505 44.4358 42.5452C44.2994 42.4408 44.1885 42.3067 44.1116 42.1531C44.0277 41.9814 43.9864 41.7921 43.9911 41.6011C43.9803 41.3731 44.0302 41.1463 44.1357 40.9439C44.2284 40.7836 44.3603 40.6494 44.519 40.5539C44.6838 40.4562 44.8637 40.3867 45.0514 40.348C45.2485 40.3064 45.4479 40.2757 45.6472 40.2538C45.8466 40.2319 45.9824 40.1968 46.1379 40.1815C46.2771 40.1709 46.415 40.1474 46.5498 40.1114C46.6561 40.0867 46.7538 40.0337 46.8324 39.958C46.8701 39.9156 46.8988 39.8659 46.9168 39.8121C46.9349 39.7583 46.9419 39.7014 46.9375 39.6448C46.9423 39.5385 46.9115 39.4336 46.8499 39.3468C46.7931 39.2696 46.7177 39.2078 46.6309 39.1672C46.5404 39.1239 46.4435 39.0957 46.3439 39.084C46.2444 39.0705 46.1441 39.0632 46.0437 39.0621C45.8133 39.0538 45.5853 39.1115 45.3865 39.2286C45.3008 39.2858 45.2298 39.3625 45.1792 39.4523C45.1286 39.5421 45.0998 39.6426 45.0952 39.7456H44.1466C44.1534 39.5023 44.222 39.2649 44.346 39.0555C44.457 38.8782 44.6068 38.7284 44.7841 38.6174C44.9732 38.5042 45.1809 38.4256 45.3975 38.3851C45.6277 38.3403 45.8618 38.3176 46.0963 38.3172C46.3062 38.3179 46.5155 38.3407 46.7207 38.3851C46.9166 38.426 47.104 38.5001 47.2749 38.6042C47.4348 38.6999 47.5699 38.832 47.6692 38.9898C47.7742 39.164 47.8266 39.3648 47.8204 39.5681L47.8292 41.7895ZM46.8806 40.5912C46.7199 40.691 46.5371 40.7497 46.3483 40.762C46.1292 40.7817 45.9276 40.8102 45.7151 40.8497C45.6163 40.8652 45.5189 40.8887 45.4238 40.9198C45.3345 40.948 45.2502 40.9901 45.174 41.0446C45.1007 41.0988 45.042 41.1703 45.0032 41.2527C44.9594 41.3512 44.9384 41.4583 44.9418 41.566C44.939 41.6627 44.9717 41.757 45.0338 41.8311C45.0939 41.903 45.1685 41.9613 45.2529 42.002C45.3433 42.0442 45.4392 42.0737 45.5377 42.0896C45.6296 42.1055 45.7227 42.1135 45.8159 42.1137C45.931 42.1129 46.0457 42.0989 46.1577 42.0721C46.2795 42.0452 46.3958 41.9978 46.5016 41.9319C46.6086 41.8667 46.7011 41.7802 46.7732 41.6777C46.8477 41.5657 46.8853 41.4332 46.8806 41.2987V40.5912ZM48.7931 38.4443H49.6912V39.027H49.7088C49.8285 38.79 50.0245 38.6002 50.2652 38.4881C50.5107 38.3828 50.7758 38.3312 51.0429 38.3369C51.3446 38.3321 51.6437 38.3934 51.9192 38.5166C52.1637 38.6297 52.3788 38.7976 52.5479 39.0073C52.7188 39.2239 52.846 39.4717 52.9225 39.7368C53.0075 40.0255 53.0496 40.3252 53.0474 40.6262C53.048 40.9104 53.0104 41.1933 52.9356 41.4674C52.8672 41.7267 52.7513 41.9711 52.5939 42.1882C52.442 42.3969 52.2441 42.5678 52.0155 42.6876C51.7607 42.8172 51.4776 42.8812 51.1918 42.8738C51.0522 42.8745 50.9129 42.862 50.7756 42.8366C50.6382 42.8132 50.5043 42.7727 50.3769 42.7161C50.2487 42.6605 50.1292 42.5868 50.022 42.4971C49.9155 42.4125 49.8243 42.3102 49.7526 42.1947H49.735V44.3416H48.7865L48.7931 38.4443ZM52.1054 40.5999C52.1061 40.4083 52.0811 40.2175 52.0309 40.0325C51.9865 39.859 51.9124 39.6944 51.8118 39.5462C51.7141 39.4057 51.5861 39.2889 51.4372 39.2045C51.28 39.1167 51.1024 39.0721 50.9224 39.0752C50.7492 39.0642 50.576 39.0965 50.4185 39.1691C50.2609 39.2418 50.1239 39.3526 50.0198 39.4914C49.8023 39.8188 49.6955 40.2074 49.7153 40.5999C49.7135 40.8034 49.7401 41.0062 49.7942 41.2024C49.8407 41.3763 49.9211 41.5393 50.0308 41.6821C50.1331 41.8131 50.2624 41.9207 50.4098 41.9976C50.5762 42.0766 50.7586 42.1163 50.9428 42.1136C51.127 42.1109 51.3082 42.066 51.4723 41.9822C51.6186 41.8942 51.7448 41.7762 51.8425 41.6361C51.9415 41.4892 52.0121 41.3249 52.0506 41.152C52.0891 40.9706 52.1067 40.7853 52.1032 40.5999H52.1054Z" fill="black"/>
</g>
<defs>
<clipPath id="clip0_389_2027">
<rect width="53.0517" height="44.4533" fill="white"/>
</clipPath>
</defs>
</svg>
