<svg width="81" height="50" viewBox="0 0 81 50" fill="none" xmlns="http://www.w3.org/2000/svg">
<path d="M8.45522 27.3482C6.66608 27.3482 4.84499 27.3482 3.05585 27.3482C2.03349 27.3482 1.7779 27.0926 1.93764 26.0383C2.28908 23.6741 2.67247 21.3098 3.05585 18.9456C3.95042 13.2907 4.84499 7.66766 5.73956 2.01271C5.93125 0.862552 6.34659 0.479165 7.49675 0.479165C10.5958 0.479165 13.6629 0.447216 16.7619 0.479165C18.3594 0.511114 19.9568 0.670859 21.4584 1.27789C24.0463 2.3322 25.452 4.69642 25.0367 7.47597C25.0047 7.66766 24.9728 7.85936 24.9408 8.05105C24.813 8.0191 24.6533 7.98715 24.5575 7.9552C23.3434 7.47597 22.0974 7.22038 20.8194 7.22038C18.1357 7.22038 15.484 7.22038 12.8003 7.22038C12.0654 7.22038 11.5543 7.60377 11.4584 8.33859C11.3626 8.91367 11.2987 9.5207 11.2028 10.0958C10.8514 12.2044 10.4999 14.313 10.1805 16.4217C10.1166 16.8689 10.1485 17.3482 10.1166 17.7955C10.0207 18.1469 9.86097 18.4983 9.79707 18.8498C9.31784 21.6932 8.9025 24.5047 8.45522 27.3482Z" fill="#012D8A"/>
<path d="M8.45519 27.3482C8.90248 24.5367 9.34976 21.7252 9.79705 18.9137C9.86094 18.5623 10.0207 18.2108 10.1165 17.8594C10.468 17.4441 10.9472 17.2843 11.4903 17.2843C13.1197 17.2524 14.7811 17.3163 16.4105 17.1246C19.829 16.7093 22.4808 15.0479 23.9185 11.7891C24.3977 10.6709 24.6533 9.42491 25.0047 8.2428C26.5063 9.00957 27.337 10.2875 27.4328 11.9169C27.6565 14.8243 26.9855 17.508 24.9728 19.7124C23.4712 21.3738 21.4264 22.0447 19.2539 22.2364C18.583 22.3003 17.9121 22.3003 17.2411 22.3003C16.3466 22.3323 15.9632 22.6198 15.8354 23.4824C15.5159 25.4313 15.1964 27.3802 14.9089 29.3291C14.7172 30.3514 14.3977 30.6709 13.3753 30.6709C11.9057 30.6709 10.436 30.6709 8.99832 30.6709C8.2635 30.6709 8.03986 30.4153 8.1357 29.6805C8.1996 28.8818 8.3274 28.115 8.45519 27.3482Z" fill="#019AE0"/>
<path d="M25.0048 8.21091C24.6533 9.39302 24.3977 10.639 23.9185 11.7572C22.4808 15.016 19.829 16.6774 16.4105 17.0927C14.7811 17.2844 13.1517 17.2205 11.4904 17.2524C10.9472 17.2524 10.468 17.4122 10.1166 17.8275C10.1485 17.3802 10.1166 16.901 10.1805 16.4537C10.5 14.3451 10.8514 12.2365 11.2028 10.1278C11.2987 9.55276 11.3626 8.94573 11.4584 8.37065C11.5862 7.63583 12.0655 7.25244 12.8003 7.25244C15.484 7.25244 18.1357 7.25244 20.8195 7.25244C22.0974 7.25244 23.3754 7.47608 24.5575 7.98727C24.6853 8.05116 24.8131 8.05116 24.9409 8.08311C24.9728 8.11506 24.9728 8.17896 25.0048 8.21091Z" fill="#001F6B"/>
<path d="M32.0335 20.1598C30.6917 20.1278 30.7556 20.3195 30.9792 18.9138C31.3946 16.294 31.8099 13.6742 32.2252 11.0543C32.353 10.1278 32.385 10.0959 33.3434 10.0959C34.5255 10.0959 35.6757 10.0639 36.8578 10.1278C38.9664 10.2237 39.9249 11.4377 39.5096 13.5144C39.0942 15.6869 37.8163 16.7412 35.5799 16.7732C33.5351 16.8051 33.9185 16.5496 33.5351 18.5623C33.5032 18.6901 33.5032 18.786 33.5032 18.9138C33.2795 20.1598 33.2795 20.1598 32.0335 20.1598ZM34.1741 14.8243C34.8131 14.7604 35.3882 14.7604 35.9313 14.6326C36.5703 14.5048 36.7939 13.9936 36.8578 13.3866C36.9217 12.9713 36.9217 12.4601 36.4744 12.3004C35.9632 12.1406 35.3562 12.1406 34.8131 12.1087C34.7172 12.1087 34.5575 12.3642 34.5255 12.492C34.3977 13.2588 34.3019 13.9617 34.1741 14.8243Z" fill="#032F8B"/>
<path d="M57.9442 20.1597C56.3787 20.1597 56.6982 20.1597 56.8899 18.9137C57.2733 16.23 57.7525 13.5782 58.1359 10.8945C58.2317 10.3194 58.4554 10.0638 59.0624 10.0958C60.2765 10.1277 61.5225 10.0958 62.7365 10.1277C64.8132 10.1916 65.7717 11.4057 65.4202 13.4824C65.0368 15.6869 63.7269 16.7731 61.4905 16.8051C59.4777 16.8051 59.7972 16.5814 59.4777 18.5942C59.4458 18.722 59.4138 18.8817 59.4138 19.0095C59.1902 20.3194 59.35 20.1277 57.9442 20.1597ZM60.0528 14.7603C60.5321 14.7603 60.9474 14.7923 61.3627 14.7603C62.0017 14.7284 62.4809 14.4408 62.6407 13.8019C62.7685 13.3226 62.9282 12.6837 62.449 12.46C61.9059 12.2044 61.2349 12.2364 60.6279 12.1725C60.564 12.1725 60.4362 12.3961 60.4043 12.5239C60.2765 13.2587 60.1806 13.9616 60.0528 14.7603Z" fill="#049CE0"/>
<path d="M45.1644 13.9937C45.1644 13.5464 45.4839 13.3866 45.9951 13.4186C46.3465 13.4505 46.698 13.4505 47.0494 13.4186C47.4967 13.3866 47.5925 13.6103 47.5286 13.9937C47.2411 15.8148 46.9535 17.6678 46.666 19.4889C46.6021 19.9362 46.3785 20.1598 45.9312 20.1279C45.6436 20.0959 45.3242 20.1279 45.0366 20.1279C44.6213 20.1279 44.0781 20.2557 44.3018 19.5528C43.6948 19.7764 43.1836 20.064 42.6085 20.2237C40.5957 20.7029 39.0622 19.425 39.0941 17.3483C39.1261 14.6646 41.5222 12.7157 44.0781 13.4186C44.4615 13.5464 44.813 13.802 45.1644 13.9937ZM42.928 18.4665C44.0462 18.4665 44.8769 17.6039 44.8769 16.5176C44.8769 15.687 44.3018 15.1438 43.4392 15.1119C42.3529 15.1119 41.4264 16.0065 41.4583 17.1247C41.4583 17.9553 42.0334 18.4665 42.928 18.4665ZM44.3018 19.425L44.2698 19.4569L44.3018 19.425Z" fill="#04308C"/>
<path d="M71.0751 13.9937C71.0432 13.5464 71.3627 13.3866 71.8419 13.4505C72.1933 13.4825 72.5448 13.4825 72.8962 13.4505C73.3435 13.4186 73.5032 13.6103 73.4393 14.0576C73.1518 15.8786 72.8323 17.6678 72.5767 19.4889C72.5128 20.032 72.2572 20.1917 71.746 20.1598C71.4585 20.1278 71.2029 20.1598 70.9154 20.1598C70.4681 20.1598 70.0208 20.1917 70.2125 19.425C69.254 20.1598 68.2956 20.4793 67.2412 20.2876C65.8355 20.032 64.9409 18.9777 64.9729 17.4441C65.0048 14.6965 67.2732 12.7796 69.893 13.4186C70.3083 13.5144 70.6917 13.802 71.0751 13.9937ZM68.8067 18.4665C69.925 18.4665 70.7556 17.6039 70.7556 16.5176C70.7556 15.6869 70.1805 15.1438 69.3179 15.1438C68.2317 15.1438 67.3051 16.0703 67.3371 17.1566C67.3371 17.9553 67.9122 18.4665 68.8067 18.4665Z" fill="#059CE1"/>
<path d="M51.9697 17.2204C52.7364 16.1022 53.4713 15.0799 54.1422 14.0255C54.4297 13.5783 54.7492 13.3866 55.2604 13.4505C55.5799 13.4824 55.9313 13.4505 56.2828 13.4505C56.4745 13.4505 56.7301 13.5144 56.794 13.6422C56.8579 13.7699 56.7301 14.0255 56.6342 14.1533C55.6438 15.591 54.6534 17.0287 53.663 18.4345C52.8323 19.6485 51.9697 20.8307 51.1709 22.0447C50.9473 22.3642 50.7237 22.492 50.3403 22.46C49.9569 22.4281 49.5415 22.46 49.1582 22.46C48.9665 22.46 48.7748 22.3642 48.5831 22.3003C48.647 22.1406 48.6789 21.9169 48.8067 21.7891C49.254 21.1501 49.6693 20.5112 50.1486 19.9041C50.4042 19.5846 50.4042 19.3291 50.2764 18.9776C49.7013 17.3802 49.1901 15.8147 48.647 14.2172C48.4233 13.5463 48.4872 13.4505 49.1901 13.4505C51.2668 13.4824 50.7876 13.1949 51.3946 15.0479C51.5224 15.7188 51.7141 16.3898 51.9697 17.2204Z" fill="#042F8C"/>
<path d="M76.3785 10.0958C77.7524 10.0639 77.5287 10.1278 77.369 11.2779C76.9536 14.0256 76.5063 16.7412 76.091 19.4888C76.0271 20 75.7715 20.1917 75.2603 20.1917C73.6948 20.1917 73.6948 20.2236 73.9185 18.6901C74.3338 16.0703 74.7492 13.4505 75.1325 10.8307C75.2603 10.0958 75.2603 10.0958 76.3785 10.0958Z" fill="#059CE1"/>
<path d="M60.0527 14.7604C60.1805 13.9936 60.2764 13.2588 60.4042 12.524C60.4361 12.3962 60.5639 12.1406 60.6278 12.1725C61.2348 12.2364 61.9058 12.2045 62.4489 12.4601C62.9601 12.7157 62.8003 13.3227 62.6406 13.8019C62.4489 14.4409 61.9697 14.7284 61.3626 14.7604C60.9793 14.7604 60.5639 14.7604 60.0527 14.7604Z" fill="#252525"/>
<path d="M44.302 19.4249V19.4569H44.27L44.302 19.4249Z" fill="#FDFEFE"/>
<path d="M12.4477 41.4001L13.0777 40.6601C12.5877 40.1001 11.8377 39.7901 10.8777 39.7901C9.29766 39.7901 8.19766 40.8901 8.19766 42.5001C8.19766 44.1001 9.29766 45.1901 10.8777 45.1901C11.8877 45.1901 12.6577 44.8301 13.1377 44.2001L12.4977 43.5601C12.1377 43.9801 11.5977 44.2001 10.9277 44.2001C10.0077 44.2001 9.34766 43.5101 9.34766 42.5001C9.34766 41.4901 10.0077 40.8001 10.9277 40.8001C11.5677 40.7901 12.0777 41.0201 12.4477 41.4001ZM16.4573 39.7901C14.8073 39.7901 13.6773 40.8801 13.6773 42.4801C13.6773 44.0901 14.8073 45.1901 16.4573 45.1901C18.0973 45.1901 19.2273 44.0901 19.2273 42.4801C19.2273 40.8801 18.0973 39.7901 16.4573 39.7901ZM16.4573 40.7701C17.4073 40.7701 18.0773 41.4801 18.0773 42.5001C18.0773 43.5301 17.4073 44.2301 16.4573 44.2301C15.4973 44.2301 14.8273 43.5301 14.8273 42.5001C14.8273 41.4801 15.4973 40.7701 16.4573 40.7701ZM27.4173 39.7901C26.4473 39.7901 25.7373 40.1801 25.3973 41.0701C25.1473 40.2601 24.4973 39.7901 23.5473 39.7901C22.6673 39.7901 21.9873 40.1101 21.6173 40.8601V39.8301H20.4773V45.1501H21.6173V42.5201C21.6173 41.5901 22.1773 40.8901 23.0973 40.8601C23.8773 40.8601 24.3473 41.3501 24.3473 42.1601V45.1501H25.4973V42.5201C25.4973 41.5901 26.0473 40.8901 26.9573 40.8601C27.7373 40.8601 28.2173 41.3501 28.2173 42.1601V45.1501H29.3673V41.8401C29.3673 40.5701 28.6373 39.7901 27.4173 39.7901ZM31.527 37.6201C31.147 37.6201 30.857 37.9101 30.857 38.3101C30.857 38.7001 31.147 38.9901 31.527 38.9901C31.907 38.9901 32.197 38.7001 32.197 38.3101C32.197 37.9101 31.907 37.6201 31.527 37.6201ZM30.957 39.8301V45.1501H32.097V39.8301H30.957ZM36.9588 39.7901C36.0588 39.7901 35.3788 40.1101 34.9988 40.8501V39.8301H33.8488V45.1501H34.9988V42.3201C35.0788 41.4901 35.6288 40.8801 36.5088 40.8701C37.3088 40.8701 37.7888 41.3601 37.7888 42.1601V45.1501H38.9388V41.8401C38.9388 40.5701 38.1988 39.7901 36.9588 39.7901ZM44.1897 39.8301V40.6901C43.8197 40.1101 43.2097 39.7801 42.3897 39.7901C40.9797 39.8001 40.0297 40.8201 40.0297 42.3201C40.0297 43.8501 40.9897 44.8901 42.4297 44.8901C43.2297 44.8901 43.8297 44.5701 44.1897 43.9901V44.6601C44.1897 45.5801 43.5297 46.1701 42.5197 46.1701C41.8697 46.1701 41.3497 45.9601 40.8497 45.5901L40.3597 46.4201C41.0097 46.8601 41.7397 47.1201 42.5697 47.1201C44.2397 47.1201 45.3297 46.1601 45.3297 44.6301V39.8301H44.1897ZM42.6597 43.9901C41.7397 43.9901 41.1197 43.3101 41.1097 42.3501C41.1197 41.4001 41.7497 40.7201 42.6597 40.7201C43.5597 40.7201 44.1897 41.3901 44.1897 42.3501C44.1897 43.3101 43.5597 43.9901 42.6597 43.9901ZM53.0542 41.1701L53.4742 40.3201C52.9942 39.9801 52.2842 39.7801 51.6142 39.7801C50.5942 39.7801 49.6542 40.2401 49.6542 41.3201C49.6442 43.2401 52.4442 42.6301 52.4442 43.7201C52.4442 44.1201 52.0642 44.2901 51.5742 44.2901C50.9942 44.2901 50.2542 44.0401 49.7942 43.6301L49.3842 44.4501C49.9142 44.9301 50.7442 45.1901 51.5242 45.1901C52.5942 45.1901 53.5642 44.7001 53.5642 43.6101C53.5742 41.6801 50.7442 42.2101 50.7442 41.2301C50.7442 40.8501 51.0742 40.7001 51.5242 40.7001C51.9942 40.7001 52.5842 40.8801 53.0542 41.1701ZM57.0515 39.7901C55.4015 39.7901 54.2715 40.8801 54.2715 42.4801C54.2715 44.0901 55.4015 45.1901 57.0515 45.1901C58.6915 45.1901 59.8215 44.0901 59.8215 42.4801C59.8215 40.8801 58.6915 39.7901 57.0515 39.7901ZM57.0515 40.7701C58.0015 40.7701 58.6715 41.4801 58.6715 42.5001C58.6715 43.5301 58.0015 44.2301 57.0515 44.2301C56.0915 44.2301 55.4215 43.5301 55.4215 42.5001C55.4215 41.4801 56.0915 40.7701 57.0515 40.7701ZM63.3515 39.7901C61.7015 39.7901 60.5715 40.8801 60.5715 42.4801C60.5715 44.0901 61.7015 45.1901 63.3515 45.1901C64.9915 45.1901 66.1215 44.0901 66.1215 42.4801C66.1215 40.8801 64.9915 39.7901 63.3515 39.7901ZM63.3515 40.7701C64.3015 40.7701 64.9715 41.4801 64.9715 42.5001C64.9715 43.5301 64.3015 44.2301 63.3515 44.2301C62.3915 44.2301 61.7215 43.5301 61.7215 42.5001C61.7215 41.4801 62.3915 40.7701 63.3515 40.7701ZM70.4815 39.7901C69.5815 39.7901 68.9015 40.1101 68.5215 40.8501V39.8301H67.3715V45.1501H68.5215V42.3201C68.6015 41.4901 69.1515 40.8801 70.0315 40.8701C70.8315 40.8701 71.3115 41.3601 71.3115 42.1601V45.1501H72.4615V41.8401C72.4615 40.5701 71.7215 39.7901 70.4815 39.7901Z" fill="#424B5A"/>
</svg>
