<svg width="122" height="47" viewBox="0 0 122 47" fill="none" xmlns="http://www.w3.org/2000/svg">
<path d="M12.1321 41.2636C9.4037 41.2636 6.62655 41.2636 3.89811 41.2636C2.339 41.2636 1.94923 40.8779 2.19284 39.2872C2.72878 35.72 3.31345 32.1528 3.89811 28.5856C5.26233 20.0533 6.62655 11.5692 7.99076 3.03693C8.2831 1.30155 8.91648 0.723085 10.6705 0.723085C15.3965 0.723085 20.0738 0.67488 24.7999 0.723085C27.236 0.77129 29.6721 1.01232 31.962 1.92821C35.9085 3.51898 38.0523 7.08616 37.4189 11.28C37.3702 11.5692 37.3214 11.8585 37.2727 12.1477C37.0778 12.0995 36.8342 12.0513 36.6881 12.0031C34.8366 11.28 32.9365 10.8944 30.9876 10.8944C26.8949 10.8944 22.851 10.8944 18.7583 10.8944C17.6377 10.8944 16.8582 11.4728 16.712 12.5815C16.5658 13.4492 16.4684 14.3651 16.3222 15.2328C15.7863 18.4144 15.2503 21.5959 14.7631 24.7774C14.6657 25.4523 14.7144 26.1754 14.6657 26.8503C14.5195 27.3805 14.2759 27.9108 14.1785 28.441C13.4476 32.7313 12.8142 36.9733 12.1321 41.2636Z" fill="#012D8A"/>
<path d="M12.1325 41.2634C12.8146 37.0214 13.4967 32.7793 14.1788 28.5373C14.2762 28.007 14.5198 27.4768 14.666 26.9465C15.202 26.3198 15.9328 26.0788 16.7611 26.0788C19.2459 26.0306 21.7794 26.127 24.2643 25.8378C29.4775 25.2111 33.5214 22.7045 35.7139 17.7875C36.4448 16.1004 36.8345 14.2204 37.3705 12.4368C39.6604 13.5937 40.9272 15.5219 41.0734 17.9804C41.4144 22.367 40.3912 26.4163 37.3218 29.7424C35.0318 32.2491 31.9136 33.2614 28.6005 33.5506C27.5774 33.647 26.5542 33.647 25.531 33.647C24.1668 33.6952 23.5821 34.1291 23.3873 35.4306C22.9 38.3711 22.4128 41.3116 21.9743 44.2521C21.682 45.7947 21.1948 46.2768 19.6357 46.2768C17.3944 46.2768 15.1532 46.2768 12.9607 46.2768C11.8401 46.2768 11.4991 45.8911 11.6452 44.7824C11.7427 43.5773 11.9376 42.4204 12.1325 41.2634Z" fill="#019AE0"/>
<path d="M37.3705 12.3888C36.8345 14.1724 36.4448 16.0524 35.7139 17.7395C33.5214 22.6565 29.4775 25.1631 24.2643 25.7898C21.7794 26.079 19.2946 25.9826 16.7611 26.0308C15.9328 26.0308 15.202 26.2719 14.666 26.8985C14.7147 26.2236 14.666 25.5006 14.7635 24.8257C15.2507 21.6442 15.7866 18.4626 16.3226 15.2811C16.4687 14.4134 16.5662 13.4975 16.7123 12.6298C16.9072 11.5211 17.6381 10.9426 18.7587 10.9426C22.8513 10.9426 26.8952 10.9426 30.9879 10.9426C32.9368 10.9426 34.8857 11.2801 36.6884 12.0513C36.8833 12.1478 37.0782 12.1478 37.273 12.196C37.3218 12.2442 37.3218 12.3406 37.3705 12.3888Z" fill="#001F6B"/>
<path d="M48.0883 30.4175C46.0419 30.3693 46.1394 30.6585 46.4804 28.5375C47.1138 24.5847 47.7472 20.6318 48.3806 16.679C48.5755 15.2811 48.6242 15.2329 50.0859 15.2329C51.8886 15.2329 53.6426 15.1847 55.4453 15.2811C58.6609 15.4257 60.1226 17.2575 59.4892 20.3908C58.8558 23.6688 56.9069 25.2595 53.4964 25.3077C50.3782 25.356 50.9629 24.9703 50.3782 28.0072C50.3295 28.2001 50.3295 28.3447 50.3295 28.5375C49.9884 30.4175 49.9884 30.4175 48.0883 30.4175ZM51.3526 22.3672C52.3271 22.2708 53.2041 22.2708 54.0323 22.078C55.0068 21.8852 55.3478 21.1139 55.4453 20.198C55.5427 19.5713 55.5427 18.8001 54.8606 18.559C54.0811 18.318 53.1553 18.318 52.3271 18.2698C52.1809 18.2698 51.9373 18.6554 51.8886 18.8483C51.6937 20.0052 51.5475 21.0657 51.3526 22.3672Z" fill="#032F8B"/>
<path d="M87.6022 30.4175C85.2148 30.4175 85.702 30.4175 85.9944 28.5375C86.579 24.4883 87.3099 20.4872 87.8945 16.438C88.0407 15.5703 88.3818 15.1847 89.3075 15.2329C91.1589 15.2811 93.0591 15.2329 94.9105 15.2811C98.0774 15.3775 99.5391 17.2093 99.0032 20.3426C98.4185 23.6688 96.4209 25.3078 93.0103 25.356C89.9409 25.356 90.4281 25.0185 89.9409 28.0555C89.8921 28.2483 89.8434 28.4893 89.8434 28.6821C89.5024 30.6585 89.746 30.3693 87.6022 30.4175ZM90.8179 22.2708C91.5487 22.2708 92.1821 22.319 92.8155 22.2708C93.7899 22.2226 94.5207 21.7888 94.7643 20.8247C94.9592 20.1016 95.2028 19.1375 94.472 18.8001C93.6437 18.4144 92.6206 18.4626 91.6949 18.3662C91.5974 18.3662 91.4025 18.7037 91.3538 18.8965C91.1589 20.0052 91.0127 21.0657 90.8179 22.2708Z" fill="#049CE0"/>
<path d="M68.1134 21.1137C68.1134 20.4389 68.6006 20.1978 69.3802 20.246C69.9161 20.2943 70.4521 20.2943 70.988 20.246C71.6701 20.1978 71.8163 20.5353 71.7188 21.1137C71.2803 23.8614 70.8418 26.6573 70.4033 29.405C70.3059 30.0799 69.9648 30.4173 69.2827 30.3691C68.8442 30.3209 68.357 30.3691 67.9185 30.3691C67.2851 30.3691 66.4569 30.5619 66.7979 29.5014C65.8722 29.8389 65.0926 30.2727 64.2156 30.5137C61.1462 31.2368 58.8075 29.3086 58.8562 26.1753C58.9049 22.126 62.5591 19.1855 66.4569 20.246C67.0415 20.4389 67.5775 20.8245 68.1134 21.1137ZM64.7029 27.8625C66.4081 27.8625 67.6749 26.5609 67.6749 24.9219C67.6749 23.6686 66.7979 22.8491 65.4824 22.8009C63.8259 22.8009 62.4129 24.1507 62.4616 25.8378C62.4616 27.0912 63.3386 27.8625 64.7029 27.8625ZM66.7979 29.3086L66.7492 29.3568L66.7979 29.3086Z" fill="#04308C"/>
<path d="M107.627 21.1137C107.579 20.4388 108.066 20.1978 108.797 20.2942C109.333 20.3424 109.869 20.3424 110.405 20.2942C111.087 20.246 111.33 20.5353 111.233 21.2101C110.794 23.9578 110.307 26.6573 109.917 29.405C109.82 30.2245 109.43 30.4655 108.651 30.4173C108.212 30.3691 107.822 30.4173 107.384 30.4173C106.702 30.4173 106.02 30.4655 106.312 29.3086C104.85 30.4173 103.389 30.8994 101.781 30.6101C99.6371 30.2245 98.2729 28.6337 98.3216 26.3199C98.3703 22.1742 101.83 19.2819 105.825 20.246C106.458 20.3906 107.043 20.8245 107.627 21.1137ZM104.168 27.8624C105.874 27.8624 107.14 26.5609 107.14 24.9219C107.14 23.6686 106.263 22.8491 104.948 22.8491C103.291 22.8491 101.878 24.247 101.927 25.886C101.927 27.0912 102.804 27.8624 104.168 27.8624Z" fill="#059CE1"/>
<path d="M78.4913 25.9825C79.6606 24.2954 80.7812 22.7528 81.8044 21.162C82.2429 20.4871 82.7301 20.1979 83.5097 20.2943C83.9969 20.3425 84.5329 20.2943 85.0688 20.2943C85.3611 20.2943 85.7509 20.3907 85.8483 20.5836C85.9458 20.7764 85.7509 21.162 85.6047 21.3548C84.0943 23.5241 82.584 25.6933 81.0736 27.8143C79.8068 29.6461 78.4913 31.4297 77.2733 33.2615C76.9322 33.7436 76.5911 33.9364 76.0065 33.8882C75.4218 33.84 74.7884 33.8882 74.2038 33.8882C73.9114 33.8882 73.6191 33.7436 73.3268 33.6472C73.4242 33.4061 73.4729 33.0687 73.6678 32.8759C74.3499 31.9118 74.9833 30.9477 75.7141 30.0318C76.1039 29.5497 76.1039 29.1641 75.909 28.6338C75.032 26.2236 74.2525 23.8615 73.4242 21.4512C73.0832 20.4389 73.1806 20.2943 74.2525 20.2943C77.4194 20.3425 76.6886 19.9087 77.6143 22.7046C77.8092 23.7169 78.1015 24.7292 78.4913 25.9825Z" fill="#042F8C"/>
<path d="M115.715 15.2327C117.81 15.1845 117.469 15.2809 117.225 17.0163C116.592 21.1619 115.91 25.2593 115.276 29.405C115.179 30.1763 114.789 30.4655 114.01 30.4655C111.622 30.4655 111.622 30.5137 111.963 28.1999C112.597 24.247 113.23 20.2942 113.815 16.3414C114.01 15.2327 114.01 15.2327 115.715 15.2327Z" fill="#059CE1"/>
<path d="M90.8184 22.2708C91.0132 21.1139 91.1594 20.0052 91.3543 18.8964C91.403 18.7036 91.5979 18.318 91.6954 18.3662C92.6211 18.4626 93.6442 18.4144 94.4725 18.8C95.252 19.1857 95.0084 20.1016 94.7648 20.8247C94.4725 21.7888 93.7417 22.2226 92.816 22.2708C92.2313 22.2708 91.5979 22.2708 90.8184 22.2708Z" fill="#252525"/>
<path d="M66.7977 29.3087V29.3569H66.749L66.7977 29.3087Z" fill="#FDFEFE"/>
</svg>
