<svg width="80" height="55" viewBox="0 0 80 55" fill="none" xmlns="http://www.w3.org/2000/svg">
<g clip-path="url(#clip0_389_1992)">
<path d="M5.0045 29.7051H1.12273V25.8042H5.21271C6.69998 25.8042 7.44361 26.4729 7.44361 27.7807C7.44361 29.0884 6.61818 29.7051 4.98219 29.7051H5.0045ZM7.77081 25.7596C7.14789 25.2391 6.3508 24.9736 5.53991 25.0166H-0.0224609V34.4085H1.12273V30.4333H5.25733C6.13411 30.4742 6.9982 30.2118 7.70388 29.6903C7.99937 29.4535 8.23483 29.1505 8.39117 28.8058C8.5475 28.4611 8.62031 28.0844 8.60368 27.7064C8.6232 27.3382 8.56137 26.9703 8.42256 26.6287C8.28376 26.2871 8.0714 25.9803 7.80055 25.7299L7.77081 25.7596ZM15.0212 32.4469C14.9151 32.754 14.7305 33.0281 14.4858 33.242C13.8462 33.785 13.0171 34.0522 12.1806 33.985C11.3965 34.0295 10.6266 33.7624 10.0389 33.242C9.78602 32.9949 9.58887 32.6968 9.46062 32.3674C9.33238 32.0381 9.276 31.6852 9.29526 31.3324C9.2896 30.9569 9.3552 30.5838 9.4886 30.2327C9.61306 29.9212 9.80624 29.6418 10.0538 29.4154C10.6421 28.9061 11.4028 28.6403 12.1806 28.6723C14.1884 28.6723 15.1551 29.5491 15.1551 31.2952C15.1604 31.6688 15.1026 32.0406 14.984 32.3949L15.0212 32.4469ZM15.2369 29.0141C14.3766 28.3378 13.2947 28.0066 12.2029 28.0853C11.1437 28.0125 10.0964 28.3445 9.27295 29.0141C8.66726 29.6415 8.32879 30.4792 8.32879 31.351C8.32879 32.2227 8.66726 33.0604 9.27295 33.6878C9.62844 34.0118 10.0531 34.2507 10.5148 34.3862C11.0538 34.5407 11.6124 34.6157 12.1731 34.6092C13.2683 34.6873 14.3538 34.3593 15.222 33.6878C15.8253 33.0562 16.1618 32.2166 16.1618 31.3435C16.1618 30.4704 15.8253 29.6309 15.222 28.9993L15.2369 29.0141ZM23.7143 32.7293C23.7143 33.9924 22.5914 34.6166 20.3382 34.6166C19.7553 34.6254 19.1728 34.5806 18.5981 34.4828C18.1876 34.4228 17.7946 34.2759 17.4455 34.0519C17.2225 33.8988 17.039 33.6951 16.9101 33.4575C16.7617 33.1659 16.6732 32.8475 16.6498 32.5212H17.6834C17.6707 32.7356 17.7149 32.9495 17.8115 33.1413C17.9082 33.3331 18.0538 33.496 18.2337 33.6135C18.8776 33.9528 19.6056 34.0999 20.3308 34.037C21.8998 34.037 22.6881 33.6432 22.6881 32.8482C22.6871 32.623 22.6079 32.4052 22.4642 32.2317C22.3205 32.0583 22.121 31.9401 21.8998 31.8971C21.7883 31.8971 21.1562 31.7782 19.9887 31.637C19.2523 31.5697 18.5232 31.4379 17.8099 31.2432C17.5285 31.1538 17.2843 30.9745 17.115 30.7328C16.9457 30.4911 16.8606 30.2005 16.8729 29.9058C16.8594 29.616 16.9311 29.3286 17.0791 29.0791C17.227 28.8295 17.4449 28.6287 17.7057 28.5014C18.028 28.3558 18.368 28.2534 18.7171 28.1968C19.2083 28.1138 19.7062 28.0765 20.2043 28.0853C22.3758 28.0853 23.454 28.7689 23.454 30.1287H22.4352C22.4352 29.1701 21.6916 28.6946 20.1523 28.6946C19.5595 28.6592 18.9666 28.7609 18.4196 28.9918C18.2458 29.0661 18.0984 29.1908 17.9963 29.3498C17.8942 29.5087 17.8422 29.6946 17.847 29.8835C17.847 30.255 18.0999 30.5299 18.5907 30.6934C19.2774 30.8396 19.9729 30.9414 20.6728 30.998C21.3519 31.0229 22.0234 31.1481 22.6658 31.3695C22.9664 31.4484 23.2324 31.6247 23.4222 31.8707C23.6119 32.1167 23.7146 32.4187 23.7143 32.7293V32.7293ZM27.834 34.4383L27.4027 34.4977H27.1424C26.6287 34.5386 26.1137 34.4357 25.6552 34.2005C25.498 34.0797 25.3745 33.9206 25.2964 33.7385C25.2183 33.5564 25.1882 33.3573 25.209 33.1602V28.9101H23.9746V28.2711H25.209V26.2723H26.1534V28.2711H27.8191V28.9027H26.1534V33.0488C26.1401 33.1672 26.1554 33.287 26.1981 33.3982C26.2408 33.5094 26.3096 33.6087 26.3988 33.6878C26.6701 33.824 26.9737 33.8831 27.2763 33.8587C27.3428 33.8696 27.4106 33.8696 27.4771 33.8587C27.5876 33.841 27.6969 33.8162 27.8043 33.7844V34.4234L27.834 34.4383ZM34.4375 33.0191C34.1722 33.2352 33.8698 33.4013 33.5451 33.5095C33.1727 33.6284 32.7834 33.6861 32.3925 33.6804C30.3996 33.6804 29.418 32.863 29.418 31.2061C29.3999 30.8688 29.4573 30.5318 29.5859 30.2195C29.7146 29.9071 29.9112 29.6274 30.1616 29.4005C30.783 28.9346 31.5502 28.7054 32.3256 28.7541C33.0914 28.698 33.8505 28.9313 34.4524 29.4079C34.6992 29.628 34.894 29.9002 35.0226 30.2047C35.1513 30.5093 35.2105 30.8387 35.196 31.1689C35.2171 31.5131 35.1613 31.8577 35.0327 32.1776C34.904 32.4976 34.7058 32.785 34.4524 33.0191H34.4375ZM36.1404 28.2711H35.1811V29.3262C34.9078 29.0253 34.6037 28.7539 34.2739 28.5163C33.6312 28.1946 32.9173 28.0412 32.1991 28.0705C31.1777 28.0029 30.1663 28.3064 29.351 28.9249C29.0395 29.2037 28.7944 29.5486 28.6335 29.9343C28.4727 30.32 28.4002 30.7367 28.4215 31.154C28.4135 31.6007 28.4918 32.0447 28.652 32.4618C28.8021 32.8452 29.0358 33.1904 29.3362 33.4723C30.1311 34.0671 31.111 34.3619 32.1025 34.3045C33.5451 34.3045 34.5565 33.9107 35.1662 33.1157V34.2153C35.1843 34.5169 35.1349 34.8188 35.0217 35.0989C34.9085 35.3791 34.7344 35.6306 34.5118 35.8352C33.8795 36.2724 33.1139 36.4748 32.3479 36.4073C31.6552 36.4615 30.9608 36.3254 30.3401 36.0135C30.0072 35.7586 29.7838 35.3867 29.7154 34.9732H28.7561C28.7827 35.2697 28.8745 35.5566 29.0249 35.8135C29.1753 36.0704 29.3806 36.2909 29.6262 36.4593C30.4884 36.8838 31.449 37.0686 32.4074 36.9943C34.8861 36.9943 36.1255 36.0655 36.1255 34.2079V28.2711H36.1404ZM41.3458 28.8952C41.0801 28.8521 40.8118 28.8273 40.5427 28.8209C38.9761 28.8209 38.1903 29.6828 38.1854 31.4067V34.3788H37.2038V28.2711H38.1556V29.3856H38.2077C38.3434 28.9872 38.6042 28.6432 38.9513 28.4048C39.4846 28.1531 40.0731 28.0406 40.6617 28.0779H41.3012V28.9027L41.3458 28.8952ZM42.2307 30.946C42.3137 30.3318 42.602 29.7636 43.0487 29.3336C43.3243 29.1104 43.6397 28.9415 43.9783 28.8358C44.3587 28.7181 44.7551 28.6605 45.1532 28.6649C45.9072 28.6351 46.6457 28.8838 47.228 29.3633C47.4738 29.5495 47.6749 29.7882 47.8165 30.062C47.958 30.3359 48.0364 30.6379 48.046 30.946H42.201H42.2307ZM48.1054 29.0587C47.7547 28.7144 47.3262 28.4596 46.8561 28.3157C46.2954 28.1421 45.7104 28.0593 45.1235 28.0705C44.0898 28.0067 43.0672 28.3122 42.2382 28.9324C41.9007 29.2204 41.6334 29.5817 41.4569 29.9886C41.2803 30.3955 41.1991 30.8373 41.2194 31.2804C41.1966 31.7224 41.2729 32.1639 41.4427 32.5727C41.6126 32.9815 41.8716 33.3472 42.201 33.6432C43.0381 34.3224 44.0991 34.6643 45.1755 34.6017C45.6568 34.6049 46.1364 34.5474 46.6033 34.4308C47.0115 34.327 47.4006 34.159 47.7559 33.933C48.2918 33.5731 48.6799 33.0323 48.8491 32.4098H47.808C47.451 33.45 46.5736 33.9776 45.1607 33.9776C44.3247 34.0391 43.4977 33.7726 42.8554 33.2345C42.6267 33.014 42.447 32.7479 42.3279 32.4535C42.2087 32.1591 42.1528 31.8429 42.1638 31.5256H48.9755C49.0016 31.0758 48.9338 30.6256 48.7763 30.2034C48.6188 29.7813 48.3752 29.3965 48.0608 29.0736L48.1054 29.0587Z" fill="#424B5A"/>
<path d="M59.1115 31.9046C59.1115 33.7176 57.6242 34.6315 54.7092 34.6315C52.9542 34.6315 51.6702 34.3169 50.8572 33.6878C50.5153 33.4033 50.247 33.0407 50.0749 32.6308C49.9028 32.2208 49.8318 31.7755 49.8681 31.3324H51.0579C51.0579 33.034 52.2701 33.881 54.7166 33.881C55.594 33.9487 56.4727 33.7684 57.2524 33.3609C57.478 33.1978 57.6579 32.9797 57.7751 32.7273C57.8923 32.475 57.9427 32.1968 57.9217 31.9194C57.9365 31.6265 57.8572 31.3365 57.6953 31.0919C57.5334 30.8473 57.2974 30.6608 57.0219 30.5597C56.2067 30.3071 55.3705 30.1281 54.5233 30.0247C53.4152 29.9163 52.3256 29.6666 51.281 29.2817C50.9348 29.1034 50.6486 28.8273 50.4582 28.4878C50.2678 28.1482 50.1815 27.7602 50.2102 27.3721C50.1848 27.0093 50.2561 26.6463 50.4168 26.32C50.5775 25.9937 50.8218 25.7158 51.1249 25.5145C52.1611 24.975 53.3292 24.7406 54.4935 24.8383C57.3739 24.8383 58.8116 25.7943 58.8066 27.7064H57.6094C57.6094 26.2724 56.5385 25.559 54.4117 25.559C53.6049 25.5083 52.798 25.6563 52.0618 25.99C51.8286 26.1288 51.6367 26.3274 51.506 26.5651C51.3752 26.8029 51.3104 27.0712 51.3182 27.3423C51.3077 27.6299 51.3903 27.9132 51.5538 28.1501C51.7172 28.387 51.9528 28.565 52.2254 28.6575C53.1503 28.9442 54.0983 29.1506 55.0587 29.2742C56.0842 29.3577 57.0891 29.6087 58.0332 30.0173C58.3743 30.1901 58.6561 30.4605 58.8429 30.7939C59.0296 31.1274 59.1128 31.5088 59.0817 31.8897L59.1115 31.9046ZM68.7118 32.8334C68.2693 33.1876 67.7651 33.4572 67.2245 33.6284C66.6175 33.8139 65.9853 33.9041 65.3506 33.8959C64.1061 33.9526 62.8863 33.5357 61.9373 32.7293C61.5157 32.3594 61.1807 31.9015 60.9558 31.3879C60.7309 30.8743 60.6217 30.3176 60.6359 29.7572C60.6048 29.1819 60.7044 28.6069 60.9272 28.0755C61.15 27.5441 61.4902 27.0699 61.9224 26.6885C62.8904 25.9168 64.1062 25.5233 65.3431 25.5813C66.5824 25.5114 67.8005 25.9242 68.7415 26.733C69.1583 27.0919 69.4865 27.5419 69.7008 28.0482C69.9231 28.5903 70.0343 29.1714 70.028 29.7572C70.0554 30.3389 69.9529 30.9195 69.7278 31.4567C69.5027 31.9939 69.1607 32.4744 68.7267 32.8631L68.7118 32.8334ZM69.3513 33.4798C69.9352 33.0808 70.4064 32.5383 70.7196 31.9046C71.0285 31.2342 71.1811 30.5025 71.1658 29.7646C71.1872 29.1094 71.0653 28.4575 70.8084 27.8543C70.5515 27.2511 70.1659 26.7112 69.6785 26.2724C69.1473 25.7804 68.5118 25.4147 67.8194 25.2024C67.0102 24.9549 66.1669 24.8371 65.3208 24.8532C63.7799 24.7611 62.2578 25.2311 61.0375 26.1758C60.5276 26.618 60.1248 27.1701 59.8594 27.7905C59.5941 28.4109 59.4731 29.0833 59.5056 29.7572C59.4892 30.4278 59.6245 31.0934 59.9013 31.7045C60.1781 32.3156 60.5894 32.8564 61.1044 33.2866C62.319 34.245 63.8426 34.726 65.3877 34.6389C66.0106 34.6451 66.6328 34.5953 67.2468 34.4903C67.6986 34.4134 68.1353 34.2655 68.5408 34.0519L70.2883 35.2631L71.0319 34.5943L69.3364 33.4724L69.3513 33.4798ZM80.0076 34.4309H71.9243V25.0612H73.0323V33.621H80.0076V34.364V34.4309Z" fill="#367FAF"/>
<path d="M45.0567 17.5417C45.198 16.3231 45.1534 16.1448 46.068 16.338H46.2911C47.031 16.3784 47.771 16.2619 48.4625 15.9962C49.6152 15.4612 50.2993 14.5695 49.1616 14.7999C46.5588 15.3349 46.3804 14.4581 46.3804 14.4581C49.1021 10.3937 50.2473 5.23703 49.2582 3.96644C46.5588 0.518756 41.8888 2.146 41.8219 2.19058C41.2516 2.0738 40.6714 2.0116 40.0892 2.00483C39.0941 1.95522 38.1121 2.24904 37.308 2.83702C37.308 2.83702 28.9719 -0.595796 29.3512 7.15405C29.4255 8.80359 31.7085 19.6296 34.4302 16.3825C35.4267 15.1863 36.3859 14.1534 36.3859 14.1534C36.8715 14.4787 37.4549 14.6257 38.0368 14.5695H38.0814C38.059 14.7223 38.059 14.8775 38.0814 15.0302C37.3378 15.8178 37.5832 15.9516 36.1852 16.2414C34.7871 16.5312 35.5977 17.0513 36.1405 17.1925C36.7194 17.378 37.342 17.3767 37.92 17.1886C38.498 17.0005 39.002 16.6353 39.3605 16.1448L39.3159 16.3082C39.591 16.5312 39.5761 17.8909 39.6133 18.8643C39.6068 19.6787 39.7068 20.4906 39.9108 21.2791C40.1115 21.8141 40.3421 23.1887 42.1863 22.7652C43.7256 22.4383 44.908 21.9627 45.0121 17.564" fill="#424B5A"/>
<path d="M45.0567 17.5417C45.198 16.3231 45.1534 16.1448 46.068 16.338H46.2911C47.031 16.3784 47.771 16.2619 48.4625 15.9962C49.6152 15.4612 50.2993 14.5695 49.1616 14.7999C46.5588 15.3349 46.3804 14.4581 46.3804 14.4581C49.1021 10.3937 50.2473 5.23703 49.2582 3.96644C46.5588 0.518756 41.8888 2.146 41.8219 2.19058C41.2516 2.0738 40.6714 2.0116 40.0892 2.00483C39.0941 1.95522 38.1121 2.24904 37.308 2.83702C37.308 2.83702 28.9719 -0.595796 29.3512 7.15405C29.4255 8.80359 31.7085 19.6296 34.4302 16.3825C35.4267 15.1863 36.3859 14.1534 36.3859 14.1534C36.8715 14.4787 37.4549 14.6257 38.0368 14.5695H38.0814C38.059 14.7223 38.059 14.8775 38.0814 15.0302C37.3378 15.8178 37.5832 15.9516 36.1852 16.2414C34.7871 16.5312 35.5977 17.0513 36.1405 17.1925C36.7194 17.378 37.342 17.3767 37.92 17.1886C38.498 17.0005 39.002 16.6353 39.3605 16.1448L39.3159 16.3082C39.591 16.5312 39.5761 17.8909 39.6133 18.8643C39.6068 19.6787 39.7068 20.4906 39.9108 21.2791C40.1115 21.8141 40.3421 23.1887 42.1863 22.7652C43.7256 22.4383 44.908 21.9627 45.0121 17.564" stroke="#424B5A" stroke-width="2.6"/>
<path d="M49.1467 14.7999C46.544 15.3349 46.3655 14.4581 46.3655 14.4581C49.1095 10.3937 50.2547 5.22959 49.2657 3.96644C46.5663 0.518756 41.8963 2.146 41.8293 2.19058C41.2589 2.07424 40.6788 2.01204 40.0967 2.00483C39.099 1.95349 38.1141 2.2474 37.308 2.83702C37.308 2.83702 28.9719 -0.595796 29.3512 7.15405C29.433 8.80359 31.7159 19.6222 34.4376 16.3528C35.4341 15.1565 36.3934 14.1237 36.3934 14.1237C36.8747 14.4527 37.4563 14.6026 38.0368 14.5472H38.0889C38.0706 14.7003 38.0706 14.8549 38.0889 15.0079C37.3898 15.7955 37.5981 15.9293 36.1926 16.2191C34.7871 16.5089 35.6126 17.029 36.1554 17.1702C36.7331 17.3552 37.3545 17.3535 37.9312 17.1654C38.5079 16.9773 39.0107 16.6124 39.3679 16.1225V16.2859C39.6431 16.5089 39.8364 17.72 39.7992 18.8123C39.7112 19.6304 39.7665 20.4577 39.9628 21.2568C40.1785 21.8438 40.3941 23.1664 42.2383 22.7429C43.7777 22.4086 44.5808 21.5541 44.6923 20.1349C44.7667 19.1169 44.9452 19.2655 44.96 18.3664L45.1013 17.9355C45.2649 16.5609 45.1013 16.115 46.0755 16.3231H46.2986C47.0349 16.3686 47.7726 16.2571 48.4625 15.9962C49.6152 15.4612 50.2993 14.5695 49.1616 14.8073L49.1467 14.7999Z" fill="#417BA2"/>
<path d="M41.807 2.15342C41.5096 2.25001 46.4473 0.355273 49.2433 3.9367C50.2324 5.19986 49.0946 10.3639 46.3432 14.4358M39.5389 15.5875C39.4646 18.1435 39.5389 20.7218 39.8066 21.346C39.8721 21.6221 39.9939 21.8816 40.1644 22.1084C40.335 22.3352 40.5507 22.5243 40.7979 22.6638C41.0451 22.8034 41.3185 22.8904 41.6009 22.9193C41.8833 22.9483 42.1687 22.9186 42.4391 22.8321C43.9784 22.4977 44.5362 21.8587 44.7816 20.4544L45.3467 15.9441L39.5389 15.5875ZM37.308 2.77757C37.308 2.77757 28.9645 -0.625533 29.3512 7.11689C29.4255 8.76642 31.7159 19.5924 34.4376 16.3231C35.4341 15.1342 36.3339 14.1906 36.3339 14.1906L37.308 2.77757Z" stroke="#424B5A" stroke-width="0.87" stroke-linecap="round" stroke-linejoin="round"/>
<path d="M46.3506 14.4283C46.3506 14.4283 46.5291 15.3051 49.1243 14.7701C50.2621 14.5398 49.5705 15.4314 48.4253 15.9664C47.4735 16.4048 45.3541 16.5162 45.3169 15.9144C45.2277 14.3466 46.4324 14.8221 46.3506 14.4283C46.2688 14.0345 45.7259 13.7299 45.3764 12.8605C45.0641 12.1175 41.1005 6.31438 46.477 7.1763C46.6703 7.13172 45.0715 2.06423 40.0371 1.97506C35.0028 1.8859 35.1738 8.15711 35.1738 8.15711" stroke="#424B5A" stroke-width="0.87" stroke-linecap="round" stroke-linejoin="bevel"/>
<path d="M38.1039 14.9633C37.3602 15.7435 37.6056 15.8847 36.2076 16.1745C34.8096 16.4643 35.6201 16.9844 36.163 17.1181C36.741 17.3056 37.3634 17.306 37.9416 17.1192C38.5198 16.9324 39.0242 16.568 39.3829 16.0779C39.4427 15.9626 39.4787 15.8365 39.4889 15.7071C39.4991 15.5776 39.4834 15.4475 39.4425 15.3242C39.4016 15.201 39.3364 15.0871 39.2509 14.9894C39.1653 14.8917 39.061 14.8121 38.9442 14.7553C38.8035 14.6784 38.6391 14.6571 38.4834 14.6956C38.3278 14.7342 38.1923 14.8297 38.1039 14.9633V14.9633Z" stroke="#424B5A" stroke-width="0.87" stroke-linejoin="round"/>
<path d="M38.0517 14.9484C38.0567 14.3759 38.1914 13.8119 38.4458 13.2989C38.8028 12.3404 39.6356 11.3745 38.9664 8.32801C38.4756 6.05433 35.1738 7.85247 35.1738 8.16454C35.2551 9.1694 35.2376 10.1798 35.1218 11.1813C35.0439 11.6021 35.0623 12.0351 35.1756 12.4478C35.2888 12.8606 35.494 13.2424 35.7758 13.5647C36.0576 13.887 36.4087 14.1414 36.8028 14.309C37.1969 14.4766 37.6239 14.5529 38.0517 14.5323" stroke="#424B5A" stroke-width="0.87" stroke-linecap="round" stroke-linejoin="round"/>
<path d="M37.3081 8.12C37.3081 8.22403 37.5014 8.50638 37.7692 8.54353C37.8753 8.55538 37.9825 8.53383 38.0758 8.48188C38.1692 8.42993 38.2439 8.35018 38.2897 8.25375C38.2897 8.14973 38.0964 8.03084 37.8212 7.99369C37.5461 7.95654 37.323 7.99369 37.3081 8.12Z" fill="#424B5A" stroke="#424B5A" stroke-width="0.29"/>
<path d="M45.4882 7.90455C45.4882 8.00858 45.2948 8.29093 45.0271 8.32808C44.921 8.33993 44.8138 8.31837 44.7204 8.26643C44.6271 8.21448 44.5524 8.13473 44.5066 8.0383C44.5066 7.93427 44.6999 7.81539 44.9751 7.77823C45.2502 7.74108 45.4733 7.77823 45.4882 7.90455V7.90455Z" fill="#424B5A" stroke="#424B5A" stroke-width="0.14"/>
<path d="M46.4696 7.17639C46.5142 8.00116 46.2911 8.56587 46.2688 9.44265C46.2242 10.7207 46.8786 12.177 45.897 13.6408" stroke="#424B5A" stroke-width="0.87" stroke-linecap="round" stroke-linejoin="round"/>
</g>
<path d="M11.9477 47.2295L12.5777 46.4895C12.0877 45.9295 11.3377 45.6195 10.3777 45.6195C8.79766 45.6195 7.69766 46.7195 7.69766 48.3295C7.69766 49.9295 8.79766 51.0195 10.3777 51.0195C11.3877 51.0195 12.1577 50.6595 12.6377 50.0295L11.9977 49.3895C11.6377 49.8095 11.0977 50.0295 10.4277 50.0295C9.50766 50.0295 8.84766 49.3395 8.84766 48.3295C8.84766 47.3195 9.50766 46.6295 10.4277 46.6295C11.0677 46.6195 11.5777 46.8495 11.9477 47.2295ZM15.9573 45.6195C14.3073 45.6195 13.1773 46.7095 13.1773 48.3095C13.1773 49.9195 14.3073 51.0195 15.9573 51.0195C17.5973 51.0195 18.7273 49.9195 18.7273 48.3095C18.7273 46.7095 17.5973 45.6195 15.9573 45.6195ZM15.9573 46.5995C16.9073 46.5995 17.5773 47.3095 17.5773 48.3295C17.5773 49.3595 16.9073 50.0595 15.9573 50.0595C14.9973 50.0595 14.3273 49.3595 14.3273 48.3295C14.3273 47.3095 14.9973 46.5995 15.9573 46.5995ZM26.9173 45.6195C25.9473 45.6195 25.2373 46.0095 24.8973 46.8995C24.6473 46.0895 23.9973 45.6195 23.0473 45.6195C22.1673 45.6195 21.4873 45.9395 21.1173 46.6895V45.6595H19.9773V50.9795H21.1173V48.3495C21.1173 47.4195 21.6773 46.7195 22.5973 46.6895C23.3773 46.6895 23.8473 47.1795 23.8473 47.9895V50.9795H24.9973V48.3495C24.9973 47.4195 25.5473 46.7195 26.4573 46.6895C27.2373 46.6895 27.7173 47.1795 27.7173 47.9895V50.9795H28.8673V47.6695C28.8673 46.3995 28.1373 45.6195 26.9173 45.6195ZM31.027 43.4495C30.647 43.4495 30.357 43.7395 30.357 44.1395C30.357 44.5295 30.647 44.8195 31.027 44.8195C31.407 44.8195 31.697 44.5295 31.697 44.1395C31.697 43.7395 31.407 43.4495 31.027 43.4495ZM30.457 45.6595V50.9795H31.597V45.6595H30.457ZM36.4588 45.6195C35.5588 45.6195 34.8788 45.9395 34.4988 46.6795V45.6595H33.3488V50.9795H34.4988V48.1495C34.5788 47.3195 35.1288 46.7095 36.0088 46.6995C36.8088 46.6995 37.2888 47.1895 37.2888 47.9895V50.9795H38.4388V47.6695C38.4388 46.3995 37.6988 45.6195 36.4588 45.6195ZM43.6897 45.6595V46.5195C43.3197 45.9395 42.7097 45.6095 41.8897 45.6195C40.4797 45.6295 39.5297 46.6495 39.5297 48.1495C39.5297 49.6795 40.4897 50.7195 41.9297 50.7195C42.7297 50.7195 43.3297 50.3995 43.6897 49.8195V50.4895C43.6897 51.4095 43.0297 51.9995 42.0197 51.9995C41.3697 51.9995 40.8497 51.7895 40.3497 51.4195L39.8597 52.2495C40.5097 52.6895 41.2397 52.9495 42.0697 52.9495C43.7397 52.9495 44.8297 51.9895 44.8297 50.4595V45.6595H43.6897ZM42.1597 49.8195C41.2397 49.8195 40.6197 49.1395 40.6097 48.1795C40.6197 47.2295 41.2497 46.5495 42.1597 46.5495C43.0597 46.5495 43.6897 47.2195 43.6897 48.1795C43.6897 49.1395 43.0597 49.8195 42.1597 49.8195ZM52.5542 46.9995L52.9742 46.1495C52.4942 45.8095 51.7842 45.6095 51.1142 45.6095C50.0942 45.6095 49.1542 46.0695 49.1542 47.1495C49.1442 49.0695 51.9442 48.4595 51.9442 49.5495C51.9442 49.9495 51.5642 50.1195 51.0742 50.1195C50.4942 50.1195 49.7542 49.8695 49.2942 49.4595L48.8842 50.2795C49.4142 50.7595 50.2442 51.0195 51.0242 51.0195C52.0942 51.0195 53.0642 50.5295 53.0642 49.4395C53.0742 47.5095 50.2442 48.0395 50.2442 47.0595C50.2442 46.6795 50.5742 46.5295 51.0242 46.5295C51.4942 46.5295 52.0842 46.7095 52.5542 46.9995ZM56.5515 45.6195C54.9015 45.6195 53.7715 46.7095 53.7715 48.3095C53.7715 49.9195 54.9015 51.0195 56.5515 51.0195C58.1915 51.0195 59.3215 49.9195 59.3215 48.3095C59.3215 46.7095 58.1915 45.6195 56.5515 45.6195ZM56.5515 46.5995C57.5015 46.5995 58.1715 47.3095 58.1715 48.3295C58.1715 49.3595 57.5015 50.0595 56.5515 50.0595C55.5915 50.0595 54.9215 49.3595 54.9215 48.3295C54.9215 47.3095 55.5915 46.5995 56.5515 46.5995ZM62.8515 45.6195C61.2015 45.6195 60.0715 46.7095 60.0715 48.3095C60.0715 49.9195 61.2015 51.0195 62.8515 51.0195C64.4915 51.0195 65.6215 49.9195 65.6215 48.3095C65.6215 46.7095 64.4915 45.6195 62.8515 45.6195ZM62.8515 46.5995C63.8015 46.5995 64.4715 47.3095 64.4715 48.3295C64.4715 49.3595 63.8015 50.0595 62.8515 50.0595C61.8915 50.0595 61.2215 49.3595 61.2215 48.3295C61.2215 47.3095 61.8915 46.5995 62.8515 46.5995ZM69.9815 45.6195C69.0815 45.6195 68.4015 45.9395 68.0215 46.6795V45.6595H66.8715V50.9795H68.0215V48.1495C68.1015 47.3195 68.6515 46.7095 69.5315 46.6995C70.3315 46.6995 70.8115 47.1895 70.8115 47.9895V50.9795H71.9615V47.6695C71.9615 46.3995 71.2215 45.6195 69.9815 45.6195Z" fill="#424B5A"/>
<defs>
<clipPath id="clip0_389_1992">
<rect width="80" height="36.1783" fill="white" transform="translate(0 0.801147)"/>
</clipPath>
</defs>
</svg>
