<svg width="230" height="272" viewBox="0 0 230 272" fill="none" xmlns="http://www.w3.org/2000/svg">
<path d="M56.7316 83.3272C57.556 88.903 56.7058 94.5977 54.2886 99.6906C51.8714 104.784 47.9959 109.046 43.1525 111.938C38.3091 114.83 32.7155 116.222 27.0798 115.938C21.444 115.653 16.0194 113.705 11.4925 110.34C6.96562 106.975 3.53989 102.345 1.64893 97.0343C-0.242042 91.7239 -0.51325 85.9726 0.869625 80.5082C2.2525 75.0439 5.22729 70.1121 9.41751 66.337C13.6077 62.562 18.825 60.1134 24.409 59.3012C31.8851 58.2063 39.4904 60.1224 45.552 64.6281C51.6136 69.1339 55.635 75.8601 56.7316 83.3272Z" fill="url(#paint0_linear_389_360)"/>
<path d="M50.0189 84.3049C50.6462 88.5537 49.9974 92.8928 48.1546 96.7732C46.3119 100.653 43.358 103.901 39.6669 106.104C35.9758 108.306 31.7134 109.366 27.4191 109.149C23.1248 108.931 18.9917 107.446 15.5428 104.881C12.0939 102.316 9.48426 98.7871 8.0442 94.7404C6.60415 90.6937 6.3984 86.3112 7.45297 82.1477C8.50755 77.9841 10.7751 74.2266 13.9685 71.3507C17.162 68.4748 21.1378 66.6099 25.3929 65.9918C28.2138 65.5789 31.0885 65.7251 33.8528 66.4221C36.6171 67.119 39.2169 68.353 41.5037 70.0535C43.7905 71.7541 45.7195 73.8879 47.1805 76.3332C48.6416 78.7785 49.6061 81.4873 50.0189 84.3049Z" fill="#95A1A7"/>
<path d="M49.911 83.6314C49.7845 83.6314 49.555 82.7237 48.9741 81.1329C48.1557 78.8926 46.9959 76.792 45.5357 74.9053C44.5271 73.6203 43.3804 72.4499 42.1161 71.4149C40.6677 70.2379 39.0726 69.2533 37.3708 68.4859C36.4537 68.0662 35.5063 67.7159 34.5367 67.4378C33.5297 67.1399 32.5005 66.9224 31.459 66.7875C30.3836 66.6384 29.2982 66.5743 28.2127 66.5956C27.093 66.6226 25.9768 66.7305 24.8727 66.9185C23.7721 67.1224 22.6873 67.4038 21.6264 67.7607C20.597 68.1159 19.5963 68.5492 18.6331 69.0567C17.7029 69.546 16.8118 70.106 15.9676 70.7317C15.154 71.3246 14.3867 71.9785 13.6722 72.6875C12.3389 73.9894 11.18 75.4583 10.2245 77.0576C9.39541 78.4631 8.72308 79.9553 8.21956 81.5072C7.49937 83.777 7.13437 86.1444 7.13746 88.5255C7.13746 90.2239 7.2452 91.1737 7.13746 91.1971C7.02972 91.2205 6.71586 90.2988 6.51443 88.5582C6.25207 86.0798 6.45542 83.5742 7.11404 81.1703C7.56619 79.4992 8.21564 77.8877 9.04871 76.3698C10.0139 74.6212 11.2115 73.0111 12.6089 71.5833C13.3609 70.8055 14.1739 70.0889 15.0401 69.4404C15.9364 68.7513 16.8873 68.1364 17.8835 67.6016C18.9178 67.0501 19.9938 66.5808 21.1017 66.1979C22.2427 65.7978 23.4125 65.4849 24.601 65.2621C25.7916 65.0587 26.9957 64.9445 28.2033 64.9206C29.3756 64.9044 30.5472 64.981 31.7073 65.1499C32.8277 65.312 33.9336 65.5624 35.0145 65.8985C36.0512 66.2094 37.0615 66.6021 38.036 67.0729C39.8409 67.9343 41.5208 69.0361 43.0296 70.3481C44.3348 71.4868 45.5 72.7762 46.5007 74.1894C47.9474 76.2212 49.0022 78.5045 49.6112 80.9223C50.0187 82.6441 50.0187 83.608 49.911 83.6314Z" fill="#E0E0E0"/>
<path d="M32.8034 99.8857L33.403 103.629L30.0677 104.162L29.4821 100.531C26.1468 100.859 22.8115 100.33 20.7456 99.1933L21.9121 94.8372C24.0433 95.864 26.4044 96.3218 28.7654 96.166L27.8707 90.5982C24.0247 90.2941 19.687 89.7185 18.9234 84.9508C18.3566 81.4182 20.4412 77.9746 25.6175 76.5288L25.0225 72.8278L28.3625 72.2944L28.9434 75.9252C31.3513 75.6747 33.7845 75.9953 36.045 76.861L35.0332 81.2311C33.3194 80.5638 31.4894 80.2456 29.6507 80.2953L30.5595 85.9614C34.4008 86.2375 38.673 86.8176 39.4272 91.5199C39.9987 95.0104 37.9422 98.4166 32.8034 99.8857ZM27.1071 85.6854L26.3482 80.9503C24.6431 81.6335 24.095 82.7143 24.273 83.8138C24.451 84.9133 25.5612 85.4795 27.1071 85.6854ZM34.1337 92.8019C33.9464 91.6322 32.8783 91.155 31.3606 90.8836L32.1007 95.4876C33.7121 94.8372 34.3071 93.8687 34.1337 92.8019Z" fill="#F2F2F2"/>
<path d="M213.409 48.7809C216.09 53.1755 217.406 58.266 217.189 63.4079C216.973 68.5497 215.234 73.5119 212.193 77.6661C209.151 81.8204 204.944 84.9801 200.104 86.7451C195.264 88.5102 190.009 88.8013 185.003 87.5816C179.997 86.3619 175.466 83.6862 171.984 79.8933C168.501 76.1004 166.224 71.3608 165.439 66.2743C164.655 61.1879 165.399 55.9834 167.577 51.3195C169.756 46.6557 173.27 42.7422 177.677 40.0745C180.595 38.3022 183.834 37.1215 187.21 36.5998C190.585 36.0782 194.03 36.2259 197.348 37.0344C200.667 37.8429 203.793 39.2964 206.549 41.3119C209.304 43.3274 211.635 45.8654 213.409 48.7809Z" fill="url(#paint1_linear_389_360)"/>
<path d="M208.112 51.985C210.156 55.3342 211.16 59.2141 210.996 63.1335C210.832 67.0529 209.507 70.8356 207.19 74.0026C204.872 77.1697 201.666 79.5787 197.977 80.9248C194.288 82.2708 190.282 82.4934 186.466 81.5643C182.651 80.6352 179.197 78.5961 176.542 75.7053C173.887 72.8145 172.15 69.202 171.552 65.3249C170.954 61.4479 171.521 57.4807 173.181 53.9256C174.841 50.3705 177.52 47.3873 180.879 45.3538C185.371 42.6283 190.763 41.7958 195.869 43.0392C200.976 44.2826 205.379 47.5003 208.112 51.985Z" fill="#95A1A7"/>
<path d="M207.788 51.4555C207.688 51.526 207.164 50.8264 206.099 49.6918C204.615 48.0984 202.891 46.7458 200.99 45.6826C199.684 44.9587 198.303 44.3811 196.87 43.9601C195.231 43.488 193.538 43.2272 191.832 43.1841C190.912 43.1604 189.991 43.2036 189.077 43.3134C188.125 43.4223 187.182 43.6051 186.258 43.8602C185.299 44.1166 184.363 44.4488 183.457 44.8537C181.587 45.6899 179.859 46.8125 178.336 48.181C177.598 48.8438 176.913 49.5632 176.288 50.3326C175.095 51.7866 174.125 53.4091 173.41 55.1473C172.752 56.7205 172.303 58.3726 172.074 60.0619C171.878 61.5372 171.844 63.0295 171.974 64.5121C172.177 66.6786 172.715 68.8005 173.569 70.8023C174.157 72.2309 174.604 72.9951 174.504 73.0598C174.404 73.1244 173.827 72.4719 173.039 71.0669C171.936 69.0756 171.213 66.8967 170.908 64.6414C170.693 63.0828 170.663 61.5041 170.82 59.9384C171.114 57.1362 171.988 54.4256 173.386 51.9787C173.907 51.0815 174.497 50.2264 175.152 49.4214C175.817 48.5785 176.552 47.792 177.347 47.0699C178.977 45.5783 180.842 44.3665 182.868 43.4839C183.848 43.0514 184.862 42.6995 185.899 42.4316C186.897 42.1668 187.915 41.982 188.942 41.879C189.919 41.7741 190.903 41.7466 191.885 41.7967C195.301 41.9284 198.624 42.941 201.532 44.7361C203.472 45.9281 205.172 47.4712 206.546 49.2862C207.506 50.5972 207.882 51.4084 207.788 51.4555Z" fill="#E0E0E0"/>
<path d="M199.201 71.208L201.031 74.1473L198.418 75.7816L196.652 72.9363C193.962 74.3942 190.972 75.1408 188.824 74.9174L188.265 70.8023C190.424 70.9103 192.575 70.4544 194.504 69.4796L191.767 65.1176C188.424 66.2287 184.575 67.2927 182.232 63.5539C180.496 60.785 181.02 57.1461 184.857 54.095L183.039 51.1909L185.658 49.5566L187.423 52.4078C189.368 51.342 191.539 50.7554 193.756 50.6971L194.463 54.7299C192.785 54.7856 191.134 55.1732 189.607 55.8704L192.391 60.3147C195.722 59.1742 199.518 58.1513 201.808 61.8314C203.509 64.5474 202.997 68.1452 199.201 71.208ZM189.342 61.32L187.017 57.6105C185.84 58.7862 185.752 59.8914 186.293 60.7556C186.835 61.6198 187.965 61.6492 189.342 61.32ZM197.788 64.8002C197.2 63.889 196.146 63.8654 194.775 64.177L197.035 67.7807C198.165 66.652 198.312 65.6173 197.788 64.7766V64.8002Z" fill="#F2F2F2"/>
<path d="M178.348 24.7016C176.107 26.1207 173.495 26.8438 170.843 26.7795C168.19 26.7152 165.617 25.8664 163.447 24.3404C161.278 22.8144 159.611 20.6799 158.657 18.2072C157.703 15.7344 157.505 13.0345 158.088 10.4492C158.671 7.86395 160.009 5.50956 161.932 3.68408C163.855 1.85859 166.278 0.64409 168.892 0.194308C171.507 -0.255474 174.197 0.0796856 176.62 1.15736C179.044 2.23504 181.094 4.00678 182.509 6.2483C183.449 7.73282 184.087 9.38775 184.387 11.1186C184.686 12.8494 184.642 14.6223 184.255 16.3359C183.869 18.0494 183.148 19.6702 182.135 21.1056C181.121 22.541 179.834 23.763 178.348 24.7016Z" fill="url(#paint2_linear_389_360)"/>
<path d="M176.647 22.009C174.939 23.0897 172.949 23.64 170.928 23.5905C168.907 23.5409 166.946 22.8937 165.293 21.7306C163.641 20.5676 162.371 18.9411 161.644 17.0568C160.917 15.1726 160.767 13.1154 161.211 11.1456C161.655 9.17573 162.674 7.38177 164.14 5.99072C165.605 4.59966 167.45 3.67404 169.443 3.33099C171.435 2.98794 173.484 3.24287 175.331 4.06353C177.178 4.88419 178.74 6.23369 179.819 7.94125C180.536 9.07289 181.023 10.3345 181.251 11.6541C181.48 12.9736 181.446 14.3252 181.151 15.6316C180.857 16.9381 180.307 18.1737 179.534 19.268C178.761 20.3622 177.78 21.2936 176.647 22.009Z" fill="#95A1A7"/>
<path d="M176.912 21.8387C176.882 21.7857 177.235 21.5095 177.812 20.951C178.619 20.1729 179.3 19.2745 179.831 18.2879C180.191 17.61 180.475 16.8943 180.678 16.1539C180.908 15.3088 181.027 14.4372 181.032 13.5614C181.04 13.0876 181.01 12.6138 180.943 12.1446C180.878 11.6556 180.776 11.1721 180.637 10.6985C180.493 10.2092 180.312 9.73163 180.096 9.26995C179.869 8.79403 179.609 8.33439 179.319 7.89433C179.021 7.45602 178.693 7.03952 178.336 6.64804C177.987 6.27578 177.612 5.92994 177.212 5.61339C176.824 5.30764 176.412 5.03247 175.982 4.79037C175.572 4.56173 175.145 4.36519 174.704 4.2025C173.885 3.88461 173.029 3.66937 172.156 3.56172C171.393 3.47649 170.623 3.47649 169.86 3.56172C168.744 3.68396 167.654 3.9795 166.629 4.43765C166.256 4.64597 165.861 4.8135 165.452 4.93734C165.733 4.61171 166.08 4.34924 166.47 4.16722C167.485 3.57597 168.601 3.17735 169.76 2.99148C170.567 2.86762 171.385 2.83999 172.197 2.90918C173.132 2.98126 174.052 3.179 174.934 3.49705C175.413 3.67211 175.877 3.88439 176.323 4.13195C176.789 4.38597 177.234 4.67692 177.653 5.002C178.091 5.33867 178.502 5.70814 178.883 6.1072C179.267 6.52525 179.621 6.96916 179.943 7.43579C180.27 7.91435 180.559 8.41751 180.808 8.94075C181.046 9.44137 181.243 9.96039 181.396 10.4927C181.543 11.0027 181.647 11.5237 181.708 12.0506C181.77 12.5557 181.793 13.0646 181.779 13.5732C181.733 15.3325 181.237 17.0508 180.337 18.5642C179.74 19.5717 178.959 20.4589 178.036 21.1802C177.713 21.4782 177.33 21.7028 176.912 21.8387Z" fill="#E0E0E0"/>
<path d="M166.682 17.6002L165.187 18.5702L164.328 17.2299L165.776 16.2893C165.043 15.0837 164.666 13.6961 164.687 12.2859L166.788 11.9567C166.754 13.0681 167.007 14.1696 167.524 15.1547L169.719 13.7026C169.131 11.9919 168.542 10.0226 170.437 8.78216C171.85 7.86507 173.727 8.10022 175.34 10.0461L176.817 9.08785L177.683 10.4164L176.235 11.3512C176.8 12.3378 177.124 13.4434 177.182 14.5786L175.111 14.9783C175.06 14.1277 174.844 13.2951 174.475 12.5269L172.209 14.0025C172.827 15.7014 173.386 17.6473 171.514 18.8642C170.125 19.7518 168.271 19.5226 166.682 17.6002ZM171.697 12.4387L173.592 11.2101C172.974 10.6222 172.415 10.581 171.962 10.8691C171.509 11.1572 171.479 11.7333 171.673 12.4387H171.697ZM169.978 16.8184C170.449 16.5127 170.449 15.966 170.278 15.2605L168.436 16.4362C168.995 17.0241 169.531 17.0947 169.955 16.8184H169.978Z" fill="#F2F2F2"/>
<path d="M193.262 143.114C193.262 143.114 165.782 123.662 162.303 121.751C158.99 119.929 148.472 118.606 147.53 118.377L128.696 114.262L99.9266 115.12L91.6866 120.076L70.8041 129.705C65.1126 132.324 60.6265 137 58.2499 142.791L45.0659 174.954L77.8081 184.618L78.8263 218.544L71.1102 271.994H166.859L162.038 169.557L172.009 171.75L193.262 143.114Z" fill="#1A1A1A"/>
<path d="M161.974 209.773C161.974 209.773 161.862 209.814 161.656 209.873L160.755 210.149C159.967 210.384 158.825 210.708 157.406 211.09C154.575 211.848 150.626 212.789 146.223 213.594C141.821 214.4 137.789 214.923 134.87 215.217C133.41 215.364 132.227 215.464 131.409 215.522L130.467 215.587H130.138L130.462 215.546L131.403 215.458C132.221 215.387 133.404 215.27 134.858 215.111C137.801 214.793 141.797 214.264 146.2 213.459C150.602 212.654 154.546 211.725 157.383 210.984C158.801 210.619 159.943 210.308 160.732 210.085L161.644 209.832L161.974 209.773Z" fill="white"/>
<path d="M161.921 166.194C161.85 166.194 160.791 163.89 159.566 160.974C158.342 158.058 157.4 155.683 157.471 155.636C158.343 157.336 159.129 159.078 159.825 160.857C160.617 162.598 161.316 164.38 161.921 166.194Z" fill="#455A64"/>
<path d="M79.309 157.317C79.309 157.317 79.309 157.282 79.2737 157.317C79.2489 157.378 79.2311 157.441 79.2207 157.505C79.1913 157.688 79.1619 157.952 79.1266 158.299C79.0559 158.987 78.9794 159.986 78.897 161.238C78.7263 163.713 78.5321 167.117 78.3496 170.921C78.1672 174.724 78.0259 178.128 77.9435 180.609C77.9023 181.784 77.8729 182.807 77.8494 183.548C77.8494 183.866 77.8494 184.136 77.814 184.348C77.8228 184.44 77.8228 184.532 77.814 184.624C77.7879 184.534 77.778 184.441 77.7846 184.348C77.7846 184.13 77.7846 183.866 77.7846 183.548C77.7846 182.854 77.7846 181.849 77.7846 180.609C77.7846 178.128 77.9141 174.695 78.1024 170.909C78.2908 167.123 78.5144 163.702 78.7381 161.227C78.8499 159.986 78.9618 158.987 79.0677 158.287C79.1207 157.946 79.1736 157.699 79.2207 157.5C79.237 157.429 79.2648 157.361 79.3031 157.3C79.3031 157.247 79.3208 157.329 79.309 157.317Z" fill="#263238"/>
<path d="M144.158 38.5735C139.249 37.0744 134.152 41.4658 129.09 40.4782C126.03 39.8903 123.722 37.4389 120.997 35.9222C116.93 33.653 111.174 33.2827 107.019 35.3931C102.863 37.5036 100.174 39.7492 99.6146 44.3758C95.8301 42.2065 89.5206 46.9624 87.3723 51.5537C85.224 56.145 85.7596 60.8832 86.978 65.8037C89.0947 74.2903 92.8581 82.2795 98.0549 89.3186C98.5139 89.9418 99.232 90.6296 99.9442 90.3004C100.164 90.1468 100.344 89.944 100.471 89.7081C100.598 89.4723 100.667 89.21 100.674 88.9424C101.398 84.4452 100.827 79.8539 100.433 75.3155C100.038 70.7771 99.8441 66.0977 101.286 61.7944C102.728 57.4912 106.112 53.529 110.586 52.6472C113.893 51.9946 117.325 53.0645 120.262 54.7165C123.199 56.3684 125.782 58.567 128.578 60.4423C131.374 62.3177 134.517 63.899 137.883 64.0401C141.25 64.1812 144.864 62.6057 146.294 59.5605C147.724 56.5154 146.123 52.1886 142.827 51.489C144.362 51.3547 145.802 50.6905 146.9 49.6104C147.998 48.5304 148.684 47.1022 148.842 45.5713C148.999 44.0404 148.618 42.5026 147.763 41.2222C146.908 39.9419 145.633 38.9991 144.158 38.5559V38.5735Z" fill="#191919"/>
<path d="M129.014 117.437L128.537 107.719C128.537 107.719 141.38 105.262 141.091 92.358C140.95 86.1324 139.608 73.3227 138.266 61.7475C137.574 55.7403 134.641 50.2141 130.052 46.2701C125.463 42.3261 119.555 40.2539 113.505 40.4665L112.257 40.5077C98.8554 41.7657 92.4282 53.8406 94.0586 67.1912L97.1485 119.159C97.3976 123.362 99.3014 127.295 102.444 130.101C105.587 132.906 109.714 134.355 113.923 134.132C118.137 133.907 122.09 132.024 124.918 128.896C127.747 125.767 129.219 121.647 129.014 117.437Z" fill="#DAAE98"/>
<path d="M128.555 107.719C128.555 107.719 120.415 108.665 111.551 103.527C111.551 103.527 115.859 112.675 128.702 111.058L128.555 107.719Z" fill="#47362C"/>
<path d="M133.916 70.4774C133.936 70.9564 133.768 71.4243 133.449 71.782C133.129 72.1397 132.683 72.3591 132.204 72.3938C131.97 72.4206 131.733 72.4005 131.507 72.3345C131.281 72.2685 131.07 72.158 130.888 72.0096C130.705 71.8612 130.554 71.6777 130.444 71.4701C130.333 71.2625 130.265 71.0349 130.244 70.8007C130.221 70.3212 130.387 69.8518 130.706 69.4927C131.025 69.1335 131.471 68.9131 131.951 68.8783C132.185 68.8507 132.423 68.8704 132.651 68.9364C132.878 69.0023 133.089 69.1132 133.272 69.2623C133.456 69.4114 133.607 69.5958 133.718 69.8046C133.829 70.0133 133.896 70.2421 133.916 70.4774Z" fill="#191919"/>
<path d="M135.712 68.1318C135.488 68.3787 134.058 67.3969 132.074 67.4734C130.091 67.5498 128.672 68.5903 128.449 68.3552C128.337 68.2494 128.555 67.8085 129.173 67.3264C130.009 66.7015 131.018 66.3504 132.062 66.3211C133.095 66.2805 134.114 66.5709 134.97 67.15C135.6 67.5909 135.818 68.0201 135.712 68.1318Z" fill="#191919"/>
<path d="M114.423 71.8586C114.444 72.3386 114.277 72.808 113.957 73.1669C113.638 73.5259 113.19 73.7462 112.71 73.7809C112.476 73.8077 112.239 73.7875 112.013 73.7216C111.787 73.6556 111.577 73.5451 111.394 73.3967C111.212 73.2482 111.061 73.0648 110.95 72.8572C110.84 72.6496 110.772 72.422 110.75 72.1878C110.729 71.7077 110.896 71.2383 111.216 70.8794C111.536 70.5204 111.983 70.3001 112.463 70.2654C112.697 70.2386 112.934 70.2588 113.16 70.3247C113.386 70.3907 113.596 70.5012 113.779 70.6496C113.962 70.7981 114.113 70.9815 114.223 71.1891C114.334 71.3967 114.402 71.6243 114.423 71.8586Z" fill="#191919"/>
<path d="M116.218 69.184C116 69.4309 114.564 68.4491 112.581 68.5255C110.597 68.602 109.179 69.6425 108.955 69.4073C108.843 69.3015 109.061 68.8606 109.679 68.3786C110.518 67.7536 111.529 67.4025 112.575 67.3733C113.606 67.3331 114.623 67.6236 115.477 68.2022C116.106 68.649 116.33 69.0723 116.218 69.184Z" fill="#191919"/>
<path d="M123.934 83.6162C123.934 83.4987 125.147 83.2459 127.136 82.9226C127.642 82.852 128.119 82.7344 128.196 82.3817C128.217 81.8576 128.079 81.3393 127.801 80.8944C127.283 79.6893 126.742 78.4195 126.171 77.0967C123.893 71.6824 122.228 67.2205 122.451 67.1029C122.675 66.9853 124.688 71.3297 126.96 76.744C127.513 78.0765 128.037 79.3522 128.531 80.5711C128.871 81.1699 128.99 81.869 128.867 82.5463C128.799 82.7272 128.692 82.8906 128.552 83.024C128.412 83.1574 128.244 83.2574 128.06 83.3164C127.781 83.4023 127.493 83.4517 127.201 83.4634C125.194 83.6927 123.946 83.7456 123.934 83.6162Z" fill="#191919"/>
<path d="M118.143 85.2094C118.467 85.1741 118.549 87.3258 120.444 88.7896C122.339 90.2534 124.623 89.9359 124.652 90.2357C124.688 90.3709 124.158 90.6707 123.187 90.7295C121.918 90.8002 120.666 90.4166 119.656 89.6478C118.7 88.9102 118.067 87.8315 117.89 86.6379C117.778 85.7385 117.996 85.1977 118.143 85.2094Z" fill="#191919"/>
<path d="M116.065 59.0256C115.889 59.5664 113.899 59.3842 111.58 59.7428C109.261 60.1014 107.401 60.8068 107.078 60.3306C106.931 60.1014 107.237 59.584 107.978 59.0373C108.968 58.36 110.1 57.9178 111.288 57.7446C112.475 57.5714 113.686 57.6717 114.829 58.0379C115.688 58.3377 116.136 58.7669 116.065 59.0256Z" fill="#191919"/>
<path d="M134.782 62.4526C134.446 62.9112 133.063 62.4938 131.421 62.5291C129.779 62.5643 128.396 62.9406 128.054 62.4761C127.907 62.2528 128.113 61.7942 128.708 61.3474C129.498 60.7943 130.444 60.5042 131.409 60.5185C132.37 60.4846 133.318 60.7495 134.122 61.2769C134.717 61.7413 134.929 62.194 134.782 62.4526Z" fill="#191919"/>
<path d="M95.4652 76.7031C95.2415 76.6149 86.5012 74.3928 87.0898 83.1697C87.6784 91.9467 96.4128 89.5658 96.4128 89.313C96.4128 89.0602 95.4652 76.7031 95.4652 76.7031Z" fill="#DAAE98"/>
<path d="M93.4758 86.1854C93.4346 86.1854 93.3286 86.303 93.0755 86.4382C92.7254 86.6263 92.3149 86.6686 91.9337 86.5558C90.9743 86.2736 90.0915 84.8509 89.9443 83.2637C89.8712 82.5112 89.9677 81.7519 90.2269 81.0415C90.2896 80.7598 90.4207 80.4978 90.6085 80.2785C90.7962 80.0591 91.0351 79.8892 91.3039 79.7835C91.4773 79.7245 91.6659 79.7281 91.8369 79.7936C92.0078 79.8591 92.1504 79.9824 92.2398 80.1421C92.3751 80.3831 92.3281 80.5595 92.3751 80.5712C92.4222 80.583 92.5576 80.4125 92.4575 80.0539C92.3933 79.8396 92.2585 79.6531 92.075 79.5248C91.8188 79.3602 91.5086 79.3012 91.2098 79.3602C90.8526 79.455 90.5259 79.64 90.2609 79.8974C89.996 80.1548 89.8019 80.4759 89.6971 80.8299C89.3743 81.6187 89.2491 82.4743 89.3322 83.3225C89.5088 85.0861 90.5094 86.691 91.8278 86.9732C92.0688 87.0266 92.3187 87.0253 92.5591 86.9694C92.7995 86.9134 93.0243 86.8042 93.2168 86.6498C93.4758 86.4029 93.5052 86.2031 93.4758 86.1854Z" fill="#47362C"/>
<path d="M140.903 58.9257C138.069 59.7587 135.078 59.908 132.175 59.3612C129.272 58.8144 126.541 57.5872 124.205 55.7805C120.968 53.2292 118.414 49.4903 114.435 48.4145C113.079 48.1052 111.676 48.068 110.305 48.3052C108.935 48.5423 107.626 49.0491 106.454 49.796C104.114 51.3014 102.11 53.2726 100.568 55.5865C103.293 62.0531 101.875 69.4309 100.415 76.2914C100.335 77.0703 99.9972 77.8004 99.4557 78.3666C98.4434 79.2014 96.8542 78.6311 95.9243 77.7141C94.4117 76.2385 93.7701 74.1045 93.3287 72.047C92.2354 67.3572 92.0893 62.4967 92.899 57.7499C93.7276 52.987 95.9378 48.5717 99.2556 45.0519C103.575 40.7723 109.393 38.3393 115.477 38.2678C121.529 38.2423 127.435 40.1224 132.357 43.641C134.64 45.24 136.759 47.1682 137.995 49.6902" fill="#191919"/>
<path d="M109.92 77.8436C109.891 77.8495 109.861 77.8495 109.831 77.8434C109.802 77.8374 109.774 77.8256 109.749 77.8086C109.725 77.7916 109.703 77.7698 109.687 77.7445C109.671 77.7192 109.66 77.6909 109.655 77.6613C109.646 77.6328 109.642 77.6025 109.644 77.5725C109.647 77.5424 109.655 77.5131 109.67 77.4866C109.684 77.4601 109.704 77.4368 109.728 77.4183C109.752 77.3998 109.779 77.3865 109.809 77.3792C109.867 77.3733 109.925 77.3886 109.972 77.4224C110.02 77.4561 110.054 77.5059 110.067 77.5626C110.081 77.6193 110.074 77.679 110.047 77.7306C110.02 77.7823 109.975 77.8224 109.92 77.8436Z" fill="#47362C"/>
<path d="M113.711 76.8498C113.647 76.8493 113.586 76.8275 113.536 76.7878C113.486 76.7481 113.452 76.6929 113.437 76.631C113.423 76.5692 113.43 76.5043 113.457 76.4469C113.484 76.3896 113.53 76.343 113.587 76.3148C113.652 76.3096 113.717 76.3291 113.768 76.3694C113.819 76.4097 113.854 76.4679 113.864 76.5323C113.885 76.5947 113.88 76.6628 113.852 76.7221C113.823 76.7813 113.773 76.8271 113.711 76.8498Z" fill="#47362C"/>
<path d="M116.236 76.6972C116.112 76.6972 115.995 76.5737 115.959 76.3797C115.924 76.1857 116 76.0094 116.118 75.9917C116.236 75.9741 116.359 76.1152 116.395 76.3092C116.43 76.5032 116.354 76.6795 116.236 76.6972Z" fill="#47362C"/>
<path d="M111.869 80.1537C111.751 80.1537 111.645 80.1008 111.645 80.0244C111.645 79.948 111.739 79.8774 111.857 79.8774C111.975 79.8774 112.081 79.9304 112.081 80.0068C112.081 80.0832 111.992 80.1479 111.869 80.1537Z" fill="#47362C"/>
<path d="M115.318 79.2249C115.256 79.2281 115.196 79.2071 115.15 79.1665C115.103 79.1258 115.075 79.0687 115.07 79.0073C115.064 78.9768 115.065 78.9454 115.071 78.915C115.077 78.8846 115.089 78.8556 115.107 78.8299C115.124 78.8043 115.147 78.7823 115.173 78.7653C115.199 78.7483 115.228 78.7367 115.259 78.731C115.321 78.7294 115.381 78.7516 115.427 78.7933C115.473 78.8349 115.501 78.8926 115.506 78.9544C115.516 79.0152 115.502 79.0775 115.467 79.1281C115.432 79.1787 115.378 79.2134 115.318 79.2249Z" fill="#47362C"/>
<path d="M133.34 76.4327C133.309 76.4386 133.278 76.4384 133.248 76.4321C133.218 76.4258 133.19 76.4135 133.164 76.3959C133.139 76.3784 133.118 76.356 133.101 76.33C133.085 76.304 133.074 76.2749 133.069 76.2446C133.059 76.2157 133.055 76.185 133.057 76.1546C133.06 76.1241 133.068 76.0944 133.083 76.0674C133.097 76.0404 133.117 76.0167 133.141 75.9976C133.165 75.9785 133.192 75.9645 133.222 75.9565C133.282 75.9489 133.343 75.9637 133.393 75.9979C133.443 76.0322 133.478 76.0836 133.493 76.1423C133.507 76.2011 133.5 76.2631 133.472 76.3166C133.443 76.3702 133.396 76.4115 133.34 76.4327Z" fill="#47362C"/>
<path d="M135.912 76.1092C135.847 76.1036 135.787 76.0762 135.741 76.0317C135.694 75.9871 135.664 75.928 135.656 75.8642C135.648 75.8004 135.662 75.7357 135.695 75.6808C135.729 75.626 135.78 75.5842 135.841 75.5625C135.959 75.5625 136.071 75.6566 136.094 75.8035C136.109 75.8681 136.098 75.9358 136.064 75.9927C136.03 76.0496 135.975 76.0913 135.912 76.1092Z" fill="#47362C"/>
<path d="M131.056 76.5619C131.019 76.5655 130.981 76.5583 130.948 76.5412C130.915 76.5241 130.887 76.4977 130.869 76.4653C130.85 76.4329 130.841 76.3958 130.843 76.3585C130.845 76.3211 130.858 76.2852 130.88 76.2549C130.902 76.2247 130.932 76.2014 130.967 76.1879C131.002 76.1744 131.04 76.1713 131.076 76.1788C131.113 76.1864 131.147 76.2044 131.173 76.2307C131.2 76.2569 131.219 76.2902 131.227 76.3267C131.234 76.3803 131.22 76.4345 131.188 76.4782C131.156 76.5219 131.109 76.5518 131.056 76.5619Z" fill="#47362C"/>
<path d="M133.063 79.0958C133.004 79.1157 132.94 79.1129 132.884 79.0878C132.827 79.0628 132.782 79.0174 132.757 78.9606C132.741 78.9337 132.731 78.9039 132.727 78.8729C132.723 78.842 132.725 78.8106 132.733 78.7805C132.742 78.7504 132.756 78.7223 132.775 78.6977C132.794 78.6731 132.818 78.6526 132.845 78.6373C132.903 78.6226 132.965 78.6285 133.019 78.654C133.073 78.6795 133.117 78.7231 133.143 78.7772C133.168 78.8313 133.175 78.8927 133.16 78.9508C133.146 79.0089 133.111 79.0602 133.063 79.0958Z" fill="#47362C"/>
<path d="M135.253 78.5725C135.226 78.5689 135.201 78.5601 135.178 78.5466C135.155 78.533 135.135 78.5151 135.119 78.4937C135.103 78.4724 135.092 78.448 135.085 78.4222C135.079 78.3964 135.078 78.3695 135.082 78.3432C135.1 78.2931 135.138 78.2521 135.186 78.229C135.235 78.206 135.29 78.2027 135.341 78.2198C135.393 78.2271 135.44 78.2546 135.472 78.2964C135.504 78.3383 135.518 78.391 135.512 78.4432C135.494 78.4944 135.457 78.5367 135.409 78.5609C135.36 78.5851 135.304 78.5893 135.253 78.5725Z" fill="#47362C"/>
<path d="M130.885 225.082L130.744 212.014C130.744 212.014 122.015 199.933 125.447 186.829C125.447 186.829 131.138 182.832 146.4 185.171C146.4 185.171 165.558 166.53 191.237 171.274C216.916 176.018 219.306 198.363 219.553 204.448C219.8 210.532 219.742 222.348 210.901 233.9L210.313 245.364C210.313 245.364 208.206 249.679 202.114 249.385C196.022 249.091 196.364 248.209 196.364 248.209C196.364 248.209 188.712 254.376 188.383 255.986C188.053 257.597 186.852 263.705 186.852 263.705C186.852 263.705 184.198 267.309 178.471 267.732C176.206 267.893 173.94 267.429 171.92 266.392C171.154 266.004 170.473 265.468 169.916 264.815C169.359 264.162 168.938 263.405 168.677 262.588C168.13 260.779 167.206 259.105 165.965 257.678C164.725 256.25 163.196 255.101 161.479 254.305L157.524 253.27C157.524 253.27 155.929 254.722 150.379 255.316C144.828 255.91 144.805 253.946 144.805 253.946C144.805 253.946 136.17 255.939 129.684 247.48C124.564 240.79 121.78 228.756 130.885 225.082Z" fill="url(#paint3_linear_389_360)"/>
<path d="M184.115 225.834C184.202 225.694 184.298 225.561 184.404 225.435C184.598 225.176 184.886 224.8 185.245 224.306C185.969 223.324 186.982 221.872 188.1 219.997C189.401 217.798 190.531 215.503 191.478 213.13C192.014 211.79 192.514 210.362 192.956 208.862C193.397 207.363 193.768 205.741 193.379 204.159C192.912 202.627 191.91 201.313 190.554 200.456C189.305 199.619 187.967 198.923 186.564 198.381C184.188 197.444 181.691 196.85 179.148 196.617C177.433 196.455 175.707 196.455 173.992 196.617C173.403 196.67 172.915 196.729 172.591 196.776C172.43 196.809 172.267 196.827 172.103 196.829C172.26 196.779 172.422 196.741 172.585 196.717C172.897 196.652 173.368 196.57 173.98 196.499C175.7 196.286 177.438 196.252 179.165 196.4C181.746 196.593 184.283 197.17 186.693 198.11C188.119 198.651 189.48 199.351 190.749 200.197C192.166 201.093 193.211 202.471 193.691 204.077C194.103 205.764 193.691 207.446 193.262 208.945C192.832 210.444 192.302 211.884 191.755 213.236C190.793 215.616 189.64 217.915 188.306 220.108C187.406 221.585 186.423 223.01 185.363 224.376C184.986 224.864 184.68 225.229 184.474 225.47C184.367 225.603 184.247 225.725 184.115 225.834Z" fill="#191919"/>
<path d="M148.212 185.742C148.257 185.836 148.287 185.938 148.301 186.042C148.358 186.342 148.372 186.649 148.342 186.953C148.194 188.078 147.676 189.122 146.871 189.921C145.911 190.98 144.452 191.844 143.027 193.008C141.467 194.261 140.027 195.656 138.725 197.176C136.354 199.938 134.443 203.062 133.063 206.429C132.533 207.722 132.186 208.78 131.95 209.545C131.85 209.891 131.762 210.18 131.691 210.409C131.667 210.511 131.632 210.609 131.585 210.703C131.586 210.597 131.602 210.492 131.632 210.391C131.691 210.156 131.756 209.868 131.838 209.509C132.118 208.438 132.46 207.384 132.863 206.353C134.193 202.93 136.097 199.759 138.495 196.976C139.809 195.444 141.267 194.042 142.851 192.79C144.304 191.615 145.764 190.786 146.718 189.774C147.508 189.013 148.035 188.021 148.224 186.941C148.264 186.542 148.26 186.14 148.212 185.742Z" fill="#191919"/>
<g opacity="0.5">
<path opacity="0.5" d="M158.477 187.341L166.288 189.333C166.288 189.333 177.723 176.5 190.284 173.249L185.575 172.138C175.253 174.463 165.836 179.747 158.477 187.341Z" fill="#191919"/>
</g>
<path d="M187.735 172.632C177.464 174.939 168.119 180.262 160.902 187.917L158.477 187.329C158.477 187.329 169.554 175.189 185.581 172.126L187.735 172.632Z" fill="url(#paint4_linear_389_360)"/>
<g opacity="0.7">
<path opacity="0.7" d="M187.735 172.632C177.464 174.939 168.119 180.262 160.902 187.917L158.477 187.329C158.477 187.329 169.554 175.189 185.581 172.126L187.735 172.632Z" fill="#191919"/>
</g>
<path d="M127.112 227.745C131.438 221.561 142.292 223.454 147.241 229.015C152.191 234.576 154.387 242.23 151.167 248.826C149.79 251.642 147.153 254.117 144.016 254.058C145.581 252.305 146.703 250.202 147.286 247.926C147.87 245.65 147.899 243.268 147.371 240.978C146.364 236.363 143.451 232.289 139.767 229.327C137.901 227.822 135.8 226.17 133.41 225.935C131.02 225.699 129.108 225.629 127.112 227.745Z" fill="url(#paint5_linear_389_360)"/>
<g opacity="0.3">
<path opacity="0.3" d="M127.112 227.745C131.438 221.561 142.292 223.454 147.241 229.015C152.191 234.576 154.387 242.23 151.167 248.826C149.79 251.642 147.153 254.117 144.016 254.058C145.581 252.305 146.703 250.202 147.286 247.926C147.87 245.65 147.899 243.268 147.371 240.978C146.364 236.363 143.451 232.289 139.767 229.327C137.901 227.822 135.8 226.17 133.41 225.935C131.02 225.699 129.108 225.629 127.112 227.745Z" fill="#191919"/>
</g>
<g opacity="0.3">
<path opacity="0.3" d="M188.653 205.923C187.812 203.437 185.234 201.985 182.768 201.126C180.238 200.245 177.597 199.726 174.922 199.586C174.08 199.495 173.229 199.577 172.421 199.827C172.019 199.958 171.658 200.188 171.371 200.497C171.084 200.805 170.88 201.182 170.778 201.591C170.725 201.926 170.777 202.27 170.927 202.575C171.076 202.88 171.316 203.132 171.614 203.296C175.879 208.226 179.062 213.996 180.955 220.232C181.035 220.506 181.188 220.754 181.398 220.949C181.607 221.143 181.865 221.278 182.145 221.338C182.425 221.398 182.716 221.382 182.987 221.291C183.258 221.2 183.499 221.037 183.686 220.82C185.687 218.539 186.841 215.465 187.876 212.549C188.618 210.409 189.383 208.069 188.653 205.923Z" fill="#191919"/>
</g>
<g opacity="0.3">
<path opacity="0.3" d="M132.38 207.07C129.705 202.913 128.328 198.055 128.425 193.114C128.425 192.073 128.578 190.944 129.302 190.204C130.179 189.304 131.603 189.287 132.833 189.369C136.301 189.585 139.746 190.068 143.139 190.815C143.404 190.874 143.728 190.962 143.81 191.215C143.903 191.409 143.931 191.629 143.89 191.841C143.848 192.052 143.74 192.245 143.581 192.391C138.313 195.618 134.575 201.555 132.586 207.364" fill="#191919"/>
</g>
<g opacity="0.2">
<path opacity="0.2" d="M140.885 239.526C140.427 239.37 139.934 239.351 139.466 239.471C138.997 239.591 138.574 239.845 138.248 240.202C137.93 240.565 137.698 240.995 137.568 241.46C137.439 241.925 137.416 242.413 137.501 242.889C137.589 243.809 137.985 244.672 138.625 245.34C139.156 245.853 139.836 246.185 140.567 246.286C141.024 246.276 141.469 246.141 141.854 245.895C142.239 245.649 142.549 245.303 142.751 244.893C143.004 244.423 143.157 243.905 143.2 243.373C143.243 242.84 143.174 242.305 142.999 241.8C142.823 241.295 142.545 240.833 142.181 240.441C141.817 240.05 141.376 239.738 140.885 239.526Z" fill="#191919"/>
</g>
<path d="M139.973 239.403C139.549 239.914 139.262 240.524 139.139 241.177C139.016 241.829 139.061 242.502 139.27 243.132C139.479 243.762 139.844 244.329 140.333 244.779C140.821 245.229 141.416 245.548 142.062 245.705C141.797 245.942 141.48 246.113 141.136 246.204C140.793 246.295 140.432 246.303 140.085 246.228C139.22 245.941 138.478 245.373 137.976 244.613C137.474 243.854 137.243 242.949 137.318 242.042C137.355 241.299 137.658 240.594 138.172 240.055C138.67 239.623 139.312 239.39 139.973 239.403Z" fill="url(#paint6_linear_389_360)"/>
<g opacity="0.4">
<path opacity="0.4" d="M139.973 239.403C139.549 239.914 139.262 240.524 139.139 241.177C139.016 241.829 139.061 242.502 139.27 243.132C139.479 243.762 139.844 244.329 140.333 244.779C140.821 245.229 141.416 245.548 142.062 245.705C141.797 245.942 141.48 246.113 141.136 246.204C140.793 246.295 140.432 246.303 140.085 246.228C139.22 245.941 138.478 245.373 137.976 244.613C137.474 243.854 137.243 242.949 137.318 242.042C137.355 241.299 137.658 240.594 138.172 240.055C138.67 239.623 139.312 239.39 139.973 239.403Z" fill="#191919"/>
</g>
<g opacity="0.2">
<path opacity="0.2" d="M132.209 236.181C131.767 236.034 131.292 236.017 130.84 236.134C130.389 236.251 129.981 236.496 129.667 236.839C129.359 237.19 129.135 237.605 129.009 238.053C128.884 238.502 128.861 238.973 128.943 239.432C129.04 240.313 129.422 241.138 130.032 241.783C130.546 242.277 131.203 242.596 131.909 242.694C132.349 242.685 132.777 242.555 133.148 242.319C133.519 242.082 133.817 241.749 134.01 241.354C134.254 240.9 134.401 240.4 134.442 239.886C134.482 239.372 134.416 238.855 134.247 238.368C134.078 237.88 133.809 237.434 133.459 237.055C133.108 236.677 132.682 236.375 132.209 236.169" fill="#191919"/>
</g>
<path d="M131.332 236.076C130.921 236.568 130.642 237.158 130.523 237.788C130.403 238.418 130.446 239.068 130.649 239.676C130.851 240.285 131.205 240.832 131.678 241.266C132.151 241.699 132.727 242.005 133.351 242.155C133.095 242.384 132.788 242.55 132.456 242.639C132.124 242.728 131.775 242.737 131.438 242.666C130.605 242.387 129.889 241.837 129.405 241.104C128.922 240.371 128.699 239.497 128.772 238.622C128.806 237.907 129.096 237.229 129.59 236.711C130.078 236.286 130.708 236.059 131.356 236.076" fill="url(#paint7_linear_389_360)"/>
<g opacity="0.4">
<path opacity="0.4" d="M131.332 236.076C130.921 236.568 130.642 237.158 130.523 237.788C130.403 238.418 130.446 239.068 130.649 239.676C130.851 240.285 131.205 240.832 131.678 241.266C132.151 241.699 132.727 242.005 133.351 242.155C133.095 242.384 132.788 242.55 132.456 242.639C132.124 242.728 131.775 242.737 131.438 242.666C130.605 242.387 129.889 241.837 129.405 241.104C128.922 240.371 128.699 239.497 128.772 238.622C128.806 237.907 129.096 237.229 129.59 236.711C130.078 236.286 130.708 236.059 131.356 236.076" fill="#191919"/>
</g>
<path d="M154.54 220.003C154.54 220.003 154.599 220.003 154.622 219.961H154.663L154.54 220.003Z" fill="#191919"/>
<path d="M158.989 221.837C158.71 221.085 158.169 220.459 157.465 220.073C156.906 219.794 156.289 219.651 155.664 219.656H155.611C155.263 219.677 154.925 219.778 154.622 219.95C153.969 220.275 153.409 220.761 152.997 221.363C152.585 221.965 152.334 222.663 152.268 223.389C152.227 224.317 152.462 225.237 152.944 226.033C153.425 226.828 154.132 227.463 154.975 227.857C155.532 228.143 156.166 228.238 156.782 228.127C157.392 227.953 157.925 227.578 158.295 227.063C158.858 226.329 159.218 225.46 159.34 224.543C159.462 223.626 159.341 222.693 158.989 221.837Z" fill="#191919"/>
<path d="M136.347 214.283C136.371 214.269 136.397 214.257 136.423 214.248H136.459L136.347 214.283Z" fill="#191919"/>
<path d="M140.196 215.888C139.96 215.226 139.489 214.674 138.872 214.336C138.39 214.093 137.858 213.968 137.318 213.971H137.253C136.953 213.991 136.661 214.08 136.4 214.23C135.833 214.51 135.347 214.932 134.989 215.454C134.631 215.976 134.414 216.581 134.358 217.21C134.323 218.015 134.528 218.811 134.947 219.499C135.366 220.187 135.981 220.734 136.712 221.073C137.186 221.353 137.75 221.439 138.286 221.311C138.822 221.184 139.287 220.854 139.584 220.391C140.068 219.757 140.378 219.009 140.485 218.22C140.593 217.431 140.493 216.627 140.196 215.888Z" fill="#191919"/>
<path d="M164.663 256.316C164.634 256.363 163.922 255.869 162.674 255.246C161.039 254.458 159.349 253.79 157.618 253.247C155.587 252.589 153.739 252.024 152.415 251.554C151.756 251.325 151.238 251.125 150.861 250.966C150.669 250.9 150.485 250.811 150.314 250.702C151.049 250.879 151.774 251.094 152.486 251.348C153.816 251.766 155.676 252.295 157.712 252.959C159.46 253.502 161.155 254.204 162.774 255.058C163.086 255.217 163.362 255.387 163.592 255.534C163.796 255.655 163.993 255.788 164.18 255.934C164.357 256.039 164.52 256.168 164.663 256.316Z" fill="#191919"/>
<path d="M206.422 237.38C206.264 237.671 206.083 237.948 205.881 238.209C205.528 238.732 204.968 239.467 204.256 240.349C202.362 242.624 200.304 244.757 198.1 246.733C195.528 249.085 193.132 251.078 191.437 252.583L189.436 254.346C189.203 254.578 188.951 254.791 188.683 254.981C188.886 254.724 189.11 254.484 189.354 254.264C189.801 253.811 190.466 253.176 191.296 252.4C192.956 250.854 195.328 248.809 197.888 246.487C200.081 244.517 202.151 242.414 204.086 240.19C204.821 239.332 205.404 238.621 205.787 238.121C205.979 237.858 206.191 237.611 206.422 237.38Z" fill="#191919"/>
<g opacity="0.2">
<path opacity="0.2" d="M196.416 248.268C199.583 248.527 203.179 247.557 205.427 245.329C206.556 244.181 207.318 242.725 207.616 241.145C207.915 239.564 207.737 237.931 207.105 236.452C205.257 239.085 203.173 241.884 200.631 244.035C199.03 245.393 197.964 247.039 196.416 248.285" fill="#191919"/>
</g>
<g opacity="0.5">
<path opacity="0.5" d="M185.139 174.331C189.259 180.386 197.705 182.302 201.79 188.369C203.373 190.721 204.144 193.495 204.91 196.223L214.327 230.161C214.715 222.807 212.943 215.529 211.178 208.374C209.443 201.32 207.703 194.266 205.957 187.211C205.669 185.633 205.095 184.121 204.262 182.749C203.332 181.415 201.949 180.48 200.601 179.575C195.763 176.33 190.784 173.026 185.11 171.732" fill="#191919"/>
</g>
<path d="M140.508 239.055C140.076 239.212 139.628 239.32 139.172 239.379C138.739 239.528 138.291 239.633 137.836 239.69C138.183 239.363 138.627 239.157 139.102 239.102C139.554 238.94 140.046 238.924 140.508 239.055Z" fill="#FAFAFA"/>
<path d="M131.574 235.816C131.164 235.913 130.75 235.986 130.332 236.034C129.667 236.181 129.155 236.457 129.119 236.381C129.084 236.304 129.531 235.899 130.261 235.734C130.474 235.66 130.7 235.629 130.926 235.643C131.151 235.658 131.371 235.716 131.574 235.816Z" fill="#FAFAFA"/>
<path d="M171.196 263.153C171.114 263.194 170.331 261.877 169.242 260.331C168.153 258.785 167.182 257.603 167.247 257.544C168.116 258.304 168.873 259.183 169.495 260.155C170.199 261.071 170.771 262.08 171.196 263.153Z" fill="#FAFAFA"/>
<path d="M210.578 180.545C209.202 182.421 207.178 183.722 204.898 184.196C205.93 183.732 206.938 183.216 207.917 182.649C208.839 181.993 209.727 181.291 210.578 180.545Z" fill="#47362C"/>
<path d="M227.817 176.612C224.65 169.322 193.021 143.444 193.021 143.444L175.187 166.571C175.446 166.224 204.28 183.766 204.28 183.766L212.785 222.495L214.25 229.409C214.25 229.409 210.425 232.742 210.584 236.258C210.684 238.609 205.286 243.671 205.286 243.671C204.003 242.607 203.179 242.307 202.532 242.43L196.793 247.797L198.159 249.044C199.681 250.431 201.685 251.171 203.744 251.107L213.556 250.807C214.955 250.767 216.283 250.183 217.258 249.179C220.277 246.081 226.646 239.15 226.769 235.811C226.846 233.941 226.858 232.16 226.852 230.726C226.822 230.708 230.978 183.902 227.817 176.612Z" fill="#DAAE98"/>
<path d="M218.423 238.544C218.261 238.691 218.076 238.81 217.876 238.897C217.517 239.097 216.964 239.332 216.322 239.685C215.583 240.111 214.93 240.671 214.398 241.337C213.724 242.176 212.93 242.913 212.043 243.524C210.403 244.614 208.455 245.15 206.487 245.052C206.142 245.052 205.8 244.992 205.475 244.876C205.344 244.83 205.229 244.746 205.145 244.635C205.061 244.524 205.012 244.391 205.004 244.253C204.999 244.166 205.015 244.08 205.05 244.001C205.086 243.922 205.141 243.853 205.21 243.8C205.31 243.741 205.375 243.753 205.375 243.759C205.375 243.765 205.322 243.759 205.245 243.847C205.194 243.899 205.157 243.963 205.135 244.032C205.114 244.102 205.109 244.175 205.122 244.247C205.139 244.358 205.187 244.461 205.261 244.546C205.335 244.63 205.432 244.692 205.54 244.723C205.849 244.815 206.171 244.855 206.493 244.841C208.406 244.878 210.284 244.332 211.878 243.277C212.742 242.683 213.516 241.971 214.18 241.16C214.742 240.479 215.431 239.914 216.21 239.497C216.881 239.162 217.44 238.962 217.817 238.791C218.012 238.692 218.215 238.609 218.423 238.544Z" fill="#47362C"/>
<path d="M213.938 243.647C213.98 243.723 213.167 244.2 212.296 244.94C211.425 245.681 210.813 246.392 210.742 246.339C211.063 245.699 211.531 245.143 212.108 244.717C212.621 244.215 213.25 243.848 213.938 243.647Z" fill="#47362C"/>
<path d="M217.888 227.604C217.888 227.692 217.023 227.745 216.075 228.192C215.127 228.639 214.527 229.268 214.462 229.203C214.833 228.649 215.347 228.206 215.951 227.922C216.554 227.638 217.224 227.524 217.888 227.592V227.604Z" fill="#47362C"/>
<path d="M211.767 246.669C211.767 246.722 211.137 246.416 210.077 246.169C208.315 245.734 206.465 245.812 204.745 246.393C204.553 246.465 204.356 246.524 204.156 246.569C203.937 246.609 203.71 246.56 203.527 246.434L201.996 245.281C201.503 244.956 201.04 244.586 200.613 244.176C201.142 244.444 201.648 244.755 202.126 245.105L203.709 246.181C203.962 246.375 204.298 246.228 204.668 246.093C205.054 245.959 205.447 245.849 205.846 245.764C207.27 245.483 208.74 245.543 210.136 245.94C210.555 246.059 210.963 246.215 211.355 246.404C211.631 246.563 211.778 246.651 211.767 246.669Z" fill="#47362C"/>
<path d="M145.217 156.842C141.444 155.766 139.773 155.301 139.773 155.301V153.573H141.274C142.78 153.573 144.946 151.698 144.946 151.698L148.166 146.777L148.578 143.62C148.236 139.729 143.54 141.269 143.54 141.269C143.316 139.911 137.301 138.547 132.78 137.706C131.267 137.424 129.709 137.481 128.219 137.873C126.73 138.266 125.347 138.984 124.17 139.976L119.832 143.632L106.836 154.984L73.2878 183.29L51.234 176.788C51.234 176.788 44.2183 198.216 43.0823 205.894C40.887 220.643 61.1868 230.473 70.1566 222.883C77.1135 217.005 117.69 173.337 124.411 166.101H124.464C128.584 165.577 135.576 161.398 135.576 161.398L139.161 161.821C139.161 161.821 148.684 163.637 149.814 161.774C150.661 160.334 148.99 157.917 145.217 156.842Z" fill="#DAAE98"/>
<path d="M125.682 152.562C125.682 152.562 125.777 152.697 125.888 152.973C126.052 153.363 126.182 153.766 126.277 154.178C126.597 155.541 126.649 156.952 126.43 158.334C126.213 159.717 125.725 161.044 124.994 162.238C124.776 162.6 124.528 162.942 124.252 163.261C124.058 163.49 123.94 163.608 123.923 163.59C123.905 163.572 124.299 163.049 124.805 162.132C126.142 159.724 126.59 156.924 126.071 154.219C125.865 153.191 125.629 152.579 125.682 152.562Z" fill="#47362C"/>
<path d="M128.113 140.557C128.233 140.527 128.355 140.505 128.478 140.493C128.725 140.457 129.067 140.41 129.543 140.369C130.859 140.225 132.187 140.239 133.499 140.41C134.409 140.544 135.295 140.81 136.129 141.198C137.098 141.639 137.954 142.294 138.631 143.115C139.403 144.028 139.83 145.182 139.837 146.377C139.826 147.011 139.667 147.633 139.372 148.194C139.059 148.759 138.662 149.274 138.195 149.722C137.315 150.572 136.351 151.33 135.317 151.986C134.828 152.315 134.31 152.598 133.769 152.832C133.489 152.944 133.188 152.994 132.886 152.979C132.73 152.972 132.576 152.931 132.436 152.86C132.296 152.789 132.173 152.69 132.074 152.568C131.893 152.326 131.803 152.028 131.821 151.727C131.827 151.452 131.877 151.181 131.968 150.922C132.138 150.441 132.369 149.985 132.657 149.564C133.176 148.804 133.87 148.181 134.682 147.747L134.717 147.953L130.703 147.189L129.614 146.965C129.485 146.947 129.358 146.913 129.237 146.865C129.368 146.865 129.498 146.877 129.626 146.901L130.72 147.071L134.752 147.735L135.064 147.788L134.788 147.941C134.018 148.37 133.36 148.974 132.869 149.705C132.597 150.109 132.381 150.548 132.227 151.01C132.127 151.229 132.081 151.469 132.093 151.709C132.106 151.95 132.176 152.184 132.298 152.391C132.48 152.56 132.711 152.666 132.957 152.696C133.203 152.725 133.452 152.676 133.669 152.556C134.189 152.33 134.686 152.054 135.152 151.733C136.168 151.088 137.114 150.342 137.978 149.505C138.427 149.109 138.795 148.629 139.058 148.091C139.322 147.553 139.477 146.969 139.514 146.371C139.508 145.245 139.111 144.156 138.39 143.291C137.741 142.499 136.922 141.862 135.994 141.427C135.186 141.039 134.325 140.77 133.44 140.628C132.146 140.438 130.836 140.391 129.532 140.487L128.46 140.552C128.345 140.568 128.229 140.57 128.113 140.557Z" fill="#47362C"/>
<path d="M143.587 141.451C143.646 141.657 143.68 141.871 143.687 142.086C143.745 142.672 143.768 143.26 143.757 143.849C143.761 145.799 143.256 147.716 142.292 149.41C141.115 151.38 139.273 152.65 137.748 152.85C137.445 152.891 137.136 152.859 136.847 152.757C136.558 152.655 136.298 152.485 136.088 152.262C135.979 152.138 135.895 151.994 135.841 151.838C135.817 151.787 135.807 151.73 135.812 151.674C135.913 151.856 136.036 152.026 136.177 152.179C136.385 152.365 136.632 152.5 136.9 152.576C137.169 152.651 137.45 152.664 137.725 152.614C139.125 152.385 140.903 151.133 142.027 149.24C142.962 147.584 143.481 145.726 143.54 143.826C143.616 142.362 143.534 141.451 143.587 141.451Z" fill="#47362C"/>
<path d="M135.258 158.241C135.223 158.199 135.529 157.935 135.894 157.406C136.362 156.726 136.654 155.94 136.742 155.119C136.817 154.295 136.681 153.466 136.347 152.709C136.094 152.121 135.847 151.803 135.888 151.774C136.174 151.994 136.399 152.283 136.541 152.615C136.956 153.39 137.133 154.271 137.048 155.147C136.963 156.022 136.621 156.853 136.065 157.535C135.858 157.833 135.581 158.076 135.258 158.241Z" fill="#47362C"/>
<path d="M129.538 147.106C129.75 147.5 129.816 147.956 129.726 148.394C129.688 148.877 129.548 149.346 129.314 149.77C129.047 150.287 128.711 150.766 128.313 151.192C127.565 151.939 126.663 152.514 125.671 152.879C125.28 153.069 124.867 153.207 124.441 153.291C124.798 153.053 125.181 152.856 125.582 152.703C126.514 152.291 127.364 151.713 128.09 150.998C128.47 150.59 128.798 150.135 129.067 149.646C129.296 149.258 129.448 148.828 129.514 148.382C129.566 147.959 129.574 147.531 129.538 147.106Z" fill="#47362C"/>
<path d="M154.563 148.835L138.007 157.847C138.007 157.847 146.865 160.04 154.911 168.535C159.285 173.161 162.708 178.6 164.987 184.542L181.467 173.584C181.467 173.584 172.597 153.514 154.563 148.835Z" fill="#32424A"/>
<path d="M140.926 157.512L154.293 149.87H154.334H154.375C156.739 150.505 159.011 151.44 161.138 152.65C163.555 154.047 165.809 155.707 167.859 157.6C170.133 159.683 172.217 161.963 174.086 164.414C176.114 167.027 177.912 169.81 179.46 172.732L179.525 172.855L179.407 172.932L178.542 173.52L165.817 182.014L165.664 182.114L165.599 181.95C163.8 177.503 161.327 173.359 158.266 169.663C155.833 166.767 153.02 164.212 149.902 162.068C147.868 160.658 145.699 159.453 143.428 158.47C142.627 158.129 142.003 157.882 141.574 157.747L141.091 157.583L140.926 157.524L141.097 157.559L141.591 157.7C142.027 157.835 142.657 158.053 143.463 158.376C145.768 159.324 147.969 160.506 150.031 161.903C153.181 164.036 156.023 166.589 158.477 169.493C161.573 173.201 164.074 177.365 165.893 181.838L165.676 181.773L178.395 173.267L179.26 172.679L179.207 172.873C177.668 169.969 175.884 167.202 173.874 164.602C172.019 162.163 169.951 159.892 167.694 157.818C165.656 155.932 163.415 154.276 161.014 152.88C158.911 151.668 156.662 150.728 154.322 150.081H154.405L140.926 157.512Z" fill="white"/>
<path d="M168.03 162.944C167.594 165.489 164.369 167.03 160.82 166.383C157.271 165.736 154.734 163.15 155.17 160.604C155.605 158.059 158.831 156.518 162.38 157.165C165.929 157.812 168.448 160.398 168.03 162.944Z" fill="#FAFAFA"/>
<path d="M160.314 163.761L159.725 164.396L159.066 163.755L159.619 163.167C159.146 162.671 158.802 162.065 158.619 161.404L159.731 160.922C159.88 161.536 160.195 162.098 160.643 162.544C161.097 162.985 161.391 163.02 161.562 162.832C162.15 162.197 159.531 160.534 160.873 159.052C161.461 158.429 162.356 158.318 163.345 159.052L163.933 158.429L164.593 159.07L164.034 159.658C164.405 160.067 164.682 160.553 164.846 161.08L163.751 161.592C163.604 161.086 163.335 160.624 162.968 160.246C162.509 159.805 162.197 159.805 162.021 159.999C161.467 160.587 164.063 162.274 162.733 163.744C162.185 164.349 161.291 164.467 160.314 163.761Z" fill="#32424A"/>
<path d="M144.705 155.39C144.705 155.39 147.512 156.812 144.817 158.917L140.697 157.318L144.705 155.39Z" fill="#FAFAFA"/>
<path d="M152.245 151.157C152.245 151.157 154.952 154.014 157.542 151.04L154.352 149.976L152.245 151.157Z" fill="#FAFAFA"/>
<path d="M164.057 178.129C164.057 178.129 167.7 175.19 169.825 179.164L165.758 181.88L164.057 178.129Z" fill="#FAFAFA"/>
<path d="M177.5 169.563C177.5 169.563 174.869 171.21 176.653 174.602L179.348 172.803L177.5 169.563Z" fill="#FAFAFA"/>
<path d="M167.747 179.099C167.74 179.316 167.67 179.526 167.544 179.703C167.418 179.88 167.242 180.017 167.039 180.095C166.836 180.173 166.614 180.189 166.402 180.142C166.19 180.095 165.996 179.987 165.845 179.83C165.694 179.674 165.592 179.476 165.553 179.263C165.514 179.049 165.539 178.828 165.624 178.628C165.71 178.429 165.852 178.259 166.034 178.139C166.216 178.02 166.429 177.957 166.647 177.958C166.794 177.96 166.94 177.992 167.075 178.05C167.21 178.109 167.332 178.194 167.435 178.3C167.537 178.406 167.617 178.531 167.671 178.668C167.725 178.805 167.751 178.951 167.747 179.099Z" fill="#32424A"/>
<path d="M178.789 172.085C178.781 172.301 178.71 172.509 178.584 172.684C178.458 172.86 178.284 172.994 178.082 173.071C177.88 173.148 177.66 173.164 177.45 173.117C177.239 173.07 177.047 172.962 176.897 172.807C176.747 172.652 176.646 172.456 176.607 172.244C176.568 172.032 176.592 171.813 176.676 171.615C176.76 171.416 176.901 171.247 177.081 171.128C177.261 171.009 177.473 170.945 177.688 170.945C177.836 170.947 177.981 170.978 178.116 171.037C178.252 171.096 178.374 171.18 178.476 171.286C178.578 171.392 178.659 171.518 178.712 171.655C178.766 171.792 178.792 171.938 178.789 172.085Z" fill="#32424A"/>
<path d="M156.047 151.045C156.047 151.451 155.458 151.78 154.781 151.78C154.104 151.78 153.522 151.451 153.522 151.045C153.522 150.64 154.11 150.311 154.787 150.311C155.464 150.311 156.047 150.634 156.047 151.045Z" fill="#32424A"/>
<path d="M145.288 157.142C145.345 157.395 145.322 157.659 145.222 157.899C145.123 158.139 144.951 158.341 144.731 158.479C144.51 158.617 144.253 158.683 143.994 158.668C143.734 158.653 143.486 158.559 143.283 158.397C143.08 158.235 142.932 158.014 142.86 157.765C142.788 157.515 142.796 157.25 142.881 157.005C142.967 156.76 143.127 156.548 143.339 156.397C143.55 156.247 143.804 156.166 144.063 156.166C144.354 156.138 144.645 156.224 144.874 156.406C145.102 156.588 145.251 156.852 145.288 157.142Z" fill="#32424A"/>
<path d="M155.434 156.513C155.434 157.136 154.658 157.641 153.698 157.641C152.739 157.641 151.968 157.153 151.968 156.513C151.968 155.872 152.745 155.384 153.704 155.384C154.663 155.384 155.434 155.925 155.434 156.513Z" fill="#FAFAFA"/>
<path d="M144.952 151.697L151.75 158.864C151.75 158.864 154.469 161.973 156.3 160.504C158.13 159.034 155.558 156.295 155.017 155.495C154.475 154.696 147.813 146.624 147.813 146.624L144.952 151.697Z" fill="#DAAE98"/>
<path d="M148.437 145.254C148.41 145.679 148.321 146.097 148.172 146.495C147.891 147.476 147.496 148.422 146.995 149.311C146.482 150.206 145.828 151.012 145.058 151.697C144.755 151.998 144.4 152.241 144.011 152.415C144.293 152.105 144.594 151.813 144.911 151.539C145.614 150.834 146.225 150.044 146.73 149.187C147.901 147.106 148.354 145.219 148.437 145.254Z" fill="#47362C"/>
<path d="M85.2122 173.226C85.1169 173.34 85.0105 173.444 84.8944 173.537L83.9468 174.384L80.4154 177.447C77.4195 180.016 73.2583 183.549 68.644 187.399C64.0296 191.25 59.7389 194.724 56.6195 197.123C55.0656 198.345 53.7884 199.304 52.8938 199.962L51.8579 200.697C51.7428 200.79 51.6186 200.87 51.4871 200.938C51.5921 200.834 51.7042 200.738 51.8226 200.65L52.8232 199.862C53.6943 199.18 54.9479 198.198 56.4841 196.958C59.5623 194.483 63.7765 191.015 68.4144 187.164C73.0523 183.313 77.2077 179.827 80.2682 177.282L83.8644 174.29L84.8532 173.49C84.9647 173.391 85.0848 173.303 85.2122 173.226Z" fill="#47362C"/>
<defs>
<linearGradient id="paint0_linear_389_360" x1="22.2696" y1="52.6779" x2="28.6134" y2="121.127" gradientUnits="userSpaceOnUse">
<stop stop-color="white"/>
<stop offset="0.958333" stop-color="#E8E4E4"/>
</linearGradient>
<linearGradient id="paint1_linear_389_360" x1="185.468" y1="30.5211" x2="191.262" y2="93.0286" gradientUnits="userSpaceOnUse">
<stop stop-color="white"/>
<stop offset="0.958333" stop-color="#E8E4E4"/>
</linearGradient>
<linearGradient id="paint2_linear_389_360" x1="168.233" y1="-2.97203" x2="171.214" y2="29.2063" gradientUnits="userSpaceOnUse">
<stop stop-color="white"/>
<stop offset="0.958333" stop-color="#E8E4E4"/>
</linearGradient>
<linearGradient id="paint3_linear_389_360" x1="172.132" y1="170.501" x2="172.132" y2="267.763" gradientUnits="userSpaceOnUse">
<stop stop-color="#F85DA7"/>
<stop offset="1" stop-color="#813AAD"/>
</linearGradient>
<linearGradient id="paint4_linear_389_360" x1="173.106" y1="172.126" x2="173.106" y2="187.917" gradientUnits="userSpaceOnUse">
<stop stop-color="#F85DA7"/>
<stop offset="1" stop-color="#813AAD"/>
</linearGradient>
<linearGradient id="paint5_linear_389_360" x1="139.897" y1="223.897" x2="139.897" y2="254.059" gradientUnits="userSpaceOnUse">
<stop stop-color="#F85DA7"/>
<stop offset="1" stop-color="#813AAD"/>
</linearGradient>
<linearGradient id="paint6_linear_389_360" x1="139.683" y1="239.402" x2="139.683" y2="246.279" gradientUnits="userSpaceOnUse">
<stop stop-color="#F85DA7"/>
<stop offset="1" stop-color="#813AAD"/>
</linearGradient>
<linearGradient id="paint7_linear_389_360" x1="131.055" y1="236.075" x2="131.055" y2="242.713" gradientUnits="userSpaceOnUse">
<stop stop-color="#F85DA7"/>
<stop offset="1" stop-color="#813AAD"/>
</linearGradient>
</defs>
</svg>
