<svg width="102" height="19" viewBox="0 0 102 19" fill="none" xmlns="http://www.w3.org/2000/svg">
<g clip-path="url(#clip0_389_2077)">
<path d="M17.6974 0.0350342H5.89451V5.95877H0V17.8202H11.8029V11.8965H17.6974V0.0350342Z" fill="#424B5A"/>
<path opacity="0.4" d="M0 5.95837V11.8961H5.89451V17.8198H11.8029V5.95837H0Z" fill="#00B2E3"/>
<path d="M21.0061 15.3608L23.578 13.335C24.3009 14.5924 25.4548 15.3189 26.7755 15.3189C28.2074 15.3189 28.972 14.3828 28.972 13.363C28.972 12.1475 27.4984 11.7563 25.9275 11.2673C23.9534 10.6526 21.7429 9.88416 21.7429 7.04804C21.7429 4.67296 23.8004 2.78687 26.6504 2.78687C29.0555 2.78687 30.4318 3.69498 31.6274 4.93841L29.3057 6.69876C28.694 5.79064 27.8321 5.30166 26.6782 5.30166C25.3714 5.30166 24.6624 6.01418 24.6624 6.95024C24.6624 8.0819 26.0804 8.47309 27.6513 9.00399C29.6532 9.66063 31.9193 10.5408 31.9193 13.3909C31.9193 15.752 30.0564 18.0153 26.8033 18.0153C24.1202 18.0293 22.3407 16.8837 21.0061 15.3608ZM43.611 7.66277H46.3637V8.79442C47.0171 7.95616 48.0041 7.4532 49.158 7.4532C51.5353 7.4532 52.9811 8.99002 52.9811 11.6166V17.8058H50.1728V11.9938C50.1728 10.6386 49.5472 9.84225 48.31 9.84225C47.2534 9.84225 46.3915 10.5687 46.3915 12.2732V17.8197H43.6249V7.66277H43.611ZM53.6067 12.7482C53.6067 9.15767 56.2342 7.46717 58.5141 7.46717C59.8209 7.46717 60.8636 7.95616 61.5309 8.66868V2.99643H64.2974V17.8197H61.5309V16.6881C60.8636 17.4844 59.7931 18.0293 58.4863 18.0293C56.3454 18.0293 53.6067 16.3109 53.6067 12.7482ZM61.6143 12.7203C61.6143 11.2114 60.53 9.99593 59.0285 9.99593C57.4993 9.99593 56.3176 11.1555 56.3176 12.7203C56.3176 14.2851 57.4854 15.4586 59.0285 15.4586C60.5161 15.4586 61.6143 14.2292 61.6143 12.7203ZM64.9508 10.4151C64.9508 6.1958 68.1205 2.80084 72.4858 2.80084C74.6685 2.80084 76.5035 3.59719 77.8382 4.85458C78.3803 5.37151 78.8391 5.9583 79.2006 6.60097L76.7399 8.10984C75.8362 6.41934 74.4321 5.55314 72.5136 5.55314C69.8305 5.55314 67.7452 7.76056 67.7452 10.429C67.7452 13.1534 69.7888 15.3049 72.6109 15.3049C74.7519 15.3049 76.2672 14.0895 76.7955 12.2034H72.1661V9.479H79.8262V10.6107C79.8262 14.5924 77.004 18.0153 72.6109 18.0153C67.9954 18.0293 64.9508 14.5086 64.9508 10.4151ZM80.5213 7.66277H83.2739V9.32532C83.7744 8.26352 84.6919 7.66277 86.0682 7.66277H87.1804L86.1656 10.3732H85.4148C83.9412 10.3732 83.2878 11.1416 83.2878 13.0277V17.8197H80.5213V7.66277ZM87.8894 7.66277H90.6559V17.8197H87.8894V10.3732H86.8885L87.8894 7.66277ZM89.2796 6.12595C90.1972 6.12595 90.934 5.38548 90.934 4.46339C90.934 3.5413 90.1972 2.80084 89.2796 2.80084C88.3621 2.80084 87.6253 3.5413 87.6253 4.46339C87.6253 5.37151 88.3621 6.12595 89.2796 6.12595ZM91.3093 12.7482C91.3093 9.15767 93.9369 7.46717 96.2168 7.46717C97.5236 7.46717 98.5663 7.95616 99.2336 8.66868V2.99643H102V17.8197H99.2336V16.6881C98.5663 17.4844 97.4958 18.0293 96.189 18.0293C94.0342 18.0293 91.3093 16.3109 91.3093 12.7482ZM99.317 12.7203C99.317 11.2114 98.2326 9.99593 96.7312 9.99593C95.202 9.99593 94.0203 11.1555 94.0203 12.7203C94.0203 14.2851 95.188 15.4586 96.7312 15.4586C98.2187 15.4586 99.317 14.2292 99.317 12.7203ZM42.9576 12.7203C42.9576 9.80034 40.8306 7.46717 37.7443 7.46717C34.8388 7.46717 32.4893 9.82828 32.4893 12.7482C32.4893 15.6682 34.6719 18.0293 37.8277 18.0293C40.0104 18.0293 41.5813 16.9675 42.4571 15.4586L40.2606 14.1453C39.8018 15.0395 38.8982 15.5983 37.8416 15.5983C36.3819 15.5983 35.4783 14.8718 35.1585 13.7541H42.9576V12.7203ZM35.2836 11.5048C35.7146 10.5548 36.5904 9.89814 37.7721 9.89814C38.9399 9.89814 39.8157 10.443 40.1772 11.5048H35.2836Z" fill="#243746"/>
<path d="M0 11.896H5.89451V17.8197H0V11.896Z" fill="#1A82E2"/>
<path d="M11.8029 5.9584V0.034668H5.89453V11.8961H17.6974V5.9584H11.8029Z" fill="#00B2E3"/>
<path d="M11.803 0.034668H17.6975V5.9584H11.803V0.034668Z" fill="#1A82E2"/>
</g>
<defs>
<clipPath id="clip0_389_2077">
<rect width="102" height="18" fill="white" transform="translate(0 0.0319824)"/>
</clipPath>
</defs>
</svg>
