<svg width="80" height="33" viewBox="0 0 80 33" fill="none" xmlns="http://www.w3.org/2000/svg">
<g clip-path="url(#clip0_389_2053)">
<path d="M5.52131 12.8103C5.52131 11.9592 6.21966 11.6319 7.3763 11.6319C9.03487 11.6319 11.1299 12.1338 12.7885 13.0285V7.90006C10.9772 7.17989 9.18764 6.89618 7.3763 6.89618C2.94615 6.89618 0 9.20946 0 13.0722C0 19.0954 8.29288 18.1352 8.29288 20.7322C8.29288 21.7361 7.41994 22.0634 6.19784 22.0634C4.3865 22.0634 2.07322 21.3214 0.240057 20.3176V25.5115C2.26963 26.3844 4.32103 26.7554 6.19784 26.7554C10.7371 26.7554 13.8578 24.5076 13.8578 20.6013C13.836 14.0979 5.52131 15.2545 5.52131 12.8103ZM20.2739 2.53151L14.949 3.66633L14.9272 21.1468C14.9272 24.3767 17.3496 26.7554 20.5794 26.7554C22.3689 26.7554 23.6783 26.4281 24.3985 26.0353V21.6051C23.7002 21.8888 20.2521 22.8927 20.2521 19.6628V11.9156H24.3985V7.26718H20.2521L20.2739 2.53151ZM31.1856 8.88211L30.8364 7.26718H26.1226V26.3626H31.5784V13.4214C32.866 11.741 35.0483 12.0465 35.7248 12.2866V7.26718C35.0265 7.0053 32.4732 6.52519 31.1856 8.88211ZM37.0561 7.26718H42.5337V26.3626H37.0561V7.26718ZM37.0561 5.6086L42.5337 4.43014V0L37.0561 1.15664V5.6086ZM53.9255 6.89618C51.7868 6.89618 50.412 7.90006 49.6482 8.59841L49.3644 7.24536H44.5633V32.6914L50.0191 31.5348L50.041 25.3587C50.8266 25.9262 51.9832 26.7336 53.9037 26.7336C57.8101 26.7336 61.3673 23.5911 61.3673 16.673C61.3455 10.3443 57.7446 6.89618 53.9255 6.89618ZM52.6161 21.9325C51.3286 21.9325 50.5647 21.4742 50.041 20.9068L50.0191 12.8103C50.5866 12.1774 51.3722 11.741 52.6161 11.741C54.6021 11.741 55.9769 13.967 55.9769 16.8258C55.9769 19.7501 54.6239 21.9325 52.6161 21.9325ZM78.5641 16.8913C78.5641 11.3045 75.858 6.89618 70.6859 6.89618C65.4919 6.89618 62.3493 11.3045 62.3493 16.8476C62.3493 23.4165 66.0593 26.7336 71.3842 26.7336C73.9812 26.7336 75.9453 26.1444 77.4293 25.3151V20.9504C75.9453 21.6924 74.2431 22.1507 72.0826 22.1507C69.9657 22.1507 68.0889 21.4087 67.8488 18.8336H78.5205C78.5205 18.5499 78.5641 17.415 78.5641 16.8913ZM67.7834 14.8181C67.7834 12.352 69.2892 11.3263 70.664 11.3263C71.9953 11.3263 73.4138 12.352 73.4138 14.8181H67.7834Z" fill="#6772E5"/>
</g>
<defs>
<clipPath id="clip0_389_2053">
<rect width="80" height="32.8205" fill="white"/>
</clipPath>
</defs>
</svg>
