<svg width="126" height="30" viewBox="0 0 126 30" fill="none" xmlns="http://www.w3.org/2000/svg">
<path d="M51.1345 11.0729C54.8938 11.0729 55.7354 13.2455 55.7354 15.7527V18.2499H49.1842V18.8493C49.2094 20.2378 49.7134 20.7872 51.4973 20.7872C52.7142 20.7811 53.9234 20.5959 55.0853 20.2378L55.5439 22.4353C54.1606 22.9296 52.7006 23.1797 51.2302 23.1746C47.5464 23.1746 46.2664 21.4814 46.2664 18.6795V15.6079C46.2664 13.1506 47.3751 11.0729 51.1345 11.0729ZM75.8375 11.0679C79.5212 11.0679 80.6097 12.3564 80.6097 15.2682L80.5997 22.9348H78.1908L77.9741 22.1457C76.9349 22.816 75.7218 23.1734 74.4819 23.1745C72.3401 23.1745 71.423 21.7161 71.423 19.7133C71.423 17.3509 72.4611 16.4419 74.8447 16.4419H77.6617V15.2233C77.6617 13.9347 77.2989 13.4802 75.4192 13.4802C74.3256 13.4922 73.2371 13.6131 72.1688 13.8398L71.806 11.6173C73.1192 11.2576 74.475 11.0729 75.8375 11.0679ZM95.365 11.0679C99.3864 11.0679 100.47 13.2654 100.47 15.6528V18.5896C100.475 20.9769 99.3864 23.1745 95.365 23.1745C91.3335 23.1745 90.2601 20.9769 90.2601 18.5896V15.6528C90.2601 13.2654 91.3436 11.0679 95.365 11.0679ZM48.7307 7.0323V9.68438H44.2456V22.9348H41.222L41.2119 9.68438H36.7319V7.0323H48.7307ZM87.4179 6.0783C88.2693 6.07547 89.1171 6.18806 89.9376 6.41298L89.6302 8.65551C89.0752 8.53719 88.5097 8.47362 87.942 8.46572C86.788 8.46572 86.6167 8.96517 86.6167 9.8492V11.3076H89.605L89.4387 13.625H86.6217V22.9348H83.6838V13.625H81.8041V11.3076H83.6838V9.68438C83.6838 7.27204 84.8176 6.0783 87.4179 6.0783ZM118.627 12.3115C120.093 11.5671 121.703 11.143 123.349 11.0679C125.299 11.0679 125.999 12.4264 125.999 14.5041V22.9348H123.061V14.8187C123.061 14.1994 122.794 13.8898 122.124 13.8898C121.045 14.0076 120.003 14.3479 119.065 14.8886V22.9348H116.107V14.8187C116.107 14.1994 115.84 13.8898 115.17 13.8898C114.093 14.0166 113.053 14.3562 112.111 14.8886V22.9348H109.173V11.3076H111.415L111.703 12.3065C113.167 11.5723 114.77 11.1503 116.409 11.0679C117.338 10.981 118.224 11.4774 118.627 12.3115ZM63.2894 11.0679L63.5918 13.7449C62.5096 14.2289 61.4667 14.795 60.4724 15.438V22.9298H57.5345V11.3076H60.0138L60.2053 12.5962C61.1613 11.9549 62.1982 11.441 63.2894 11.0679ZM70.4756 11.0679L70.7678 13.7449C69.6891 14.2293 68.6496 14.7954 67.6586 15.438V22.9298H64.7206V11.3076H67.2L67.3915 12.5962C68.3474 11.9549 69.3844 11.441 70.4756 11.0679ZM107.742 11.0679L108.034 13.7449C106.955 14.2293 105.916 14.7954 104.925 15.438V22.9298H101.987V11.3076H104.466L104.658 12.5962C105.614 11.9548 106.65 11.4409 107.742 11.0679ZM77.6617 18.5396H75.4948C74.5323 18.5396 74.2652 18.8043 74.2652 19.6834C74.2652 20.5624 74.5323 20.8521 75.4444 20.8521C76.2226 20.8403 76.9852 20.6342 77.6617 20.2527V18.5396ZM95.365 13.5501C93.7978 13.5501 93.1981 14.2444 93.1981 15.5479V18.6745C93.1981 19.988 93.8028 20.6723 95.365 20.6723C96.9272 20.6723 97.5319 19.978 97.5319 18.6745V15.5579C97.5319 14.2444 96.9323 13.5501 95.365 13.5501ZM51.1597 13.4552C49.7134 13.4552 49.2094 14.2194 49.2094 15.3182V15.9075H52.9436V15.3182C52.9436 14.2194 52.606 13.4552 51.1597 13.4552Z" fill="#424B5A"/>
<path d="M18.3433 19.4685L26.6078 14.7437V5.27917L18.3433 10.014V19.4685Z" fill="#4040B2"/>
<path d="M9.17166 5.27919L17.4362 10.014V19.4686L9.17166 14.7388V5.27919ZM0 9.45958L8.26457 14.1894V4.72979L0 0V9.45958ZM9.17166 25.2372L17.4362 29.967V20.5074L9.17166 15.7776" fill="#5C4EE5"/>
</svg>
