<svg width="80" height="25" viewBox="0 0 80 25" fill="none" xmlns="http://www.w3.org/2000/svg">
<g clip-path="url(#clip0_389_2070)">
<path d="M56.3635 4.71654H52.1282C52.032 4.71654 51.9357 4.81281 51.9357 4.90906V7.36358C51.9357 7.45983 52.032 7.5561 52.1282 7.5561H56.3635C56.4598 7.5561 56.556 7.45983 56.556 7.36358V4.90906C56.6041 4.81281 56.5079 4.71654 56.3635 4.71654ZM56.3154 8.37427H48.1336C48.0374 8.37427 47.893 8.47052 47.8448 8.56678L46.786 12.5614L46.7379 12.7539L45.4866 8.47053C45.4384 8.37427 45.3422 8.27802 45.1978 8.27802H42.0214C41.9251 8.27802 41.7807 8.37427 41.7326 8.47053L40.5294 12.4651L40.4813 12.6577L40.4331 12.5614L39.9519 10.5882L39.4224 8.61491C39.3743 8.51865 39.2781 8.4224 39.1337 8.4224H32.7327V4.95718C32.7327 4.86092 32.5883 4.71654 32.4439 4.76467L28.4011 6.016C28.2568 6.06413 28.2086 6.11225 28.2086 6.20851V8.37427H27.1498C27.0536 8.37427 26.9573 8.47052 26.9573 8.56678V11.647C26.9573 11.7432 27.0536 11.8395 27.1498 11.8395H28.2086V15.5935C28.2086 18.2405 29.6525 19.4918 32.2995 19.4918C33.4065 19.4918 34.4653 19.2512 35.1872 18.8662V15.6897C35.1872 15.5453 35.0428 15.4972 34.9465 15.4972C34.5134 15.6897 34.1765 15.7379 33.7915 15.7379C33.0696 15.7379 32.6845 15.4491 32.6845 14.6309V11.8876H34.9947C35.0909 11.8876 35.1872 11.7914 35.1872 11.6951V9.09619L38.2192 19.1549C38.2674 19.2512 38.3636 19.3475 38.508 19.3475H41.877C41.9732 19.3475 42.1176 19.2512 42.1657 19.1549L43.6096 14.679L44.3315 16.9892L45.0053 19.1068C45.0534 19.2031 45.1497 19.2993 45.2941 19.2993H48.663C48.7593 19.2993 48.9037 19.2031 48.9518 19.1068L52.032 8.99994V19.1068C52.032 19.2031 52.1282 19.2993 52.2245 19.2993H56.3154C56.4116 19.2993 56.5079 19.2031 56.5079 19.1068V8.61491C56.5079 8.47052 56.4116 8.37427 56.3154 8.37427ZM61.7057 4.71654H57.6148C57.5186 4.71654 57.4223 4.81281 57.4223 4.90906V19.1068C57.4223 19.2031 57.5186 19.2993 57.6148 19.2993H61.7057C61.802 19.2993 61.8982 19.2031 61.8982 19.1068V4.90906C61.8982 4.81281 61.802 4.71654 61.7057 4.71654ZM67.1442 4.71654H62.9089C62.8127 4.71654 62.7164 4.81281 62.7164 4.90906V7.36358C62.7164 7.45983 62.8127 7.5561 62.9089 7.5561H67.1442C67.2404 7.5561 67.3367 7.45983 67.3367 7.36358V4.90906C67.3848 4.81281 67.2886 4.71654 67.1442 4.71654ZM67.096 8.37427H63.0052C62.9089 8.37427 62.8127 8.47052 62.8127 8.56678V19.1068C62.8127 19.2031 62.9089 19.2993 63.0052 19.2993H67.096C67.1923 19.2993 67.2886 19.2031 67.2886 19.1068V8.61491C67.2886 8.47052 67.1923 8.37427 67.096 8.37427ZM73.8821 8.13363C70.2725 8.13363 67.7217 10.7807 67.7217 13.8609V13.909C67.7217 16.9892 70.2725 19.5881 73.834 19.5881C77.4436 19.5881 79.9944 16.941 79.9944 13.8609V13.8127C79.9944 10.7325 77.4436 8.13363 73.8821 8.13363ZM75.6147 13.8609C75.6147 14.9197 74.8928 15.7379 73.8821 15.7379C72.8714 15.7379 72.1014 14.8716 72.1014 13.8127V13.7646C72.1014 12.7058 72.8233 11.8876 73.834 11.8876C74.8447 11.8876 75.6147 12.7539 75.6147 13.8609ZM12.0376 0C5.39595 0 0.00561523 5.39034 0.00561523 12.032C0.00561523 18.6737 5.39595 24.064 12.0376 24.064C18.6793 24.064 24.0696 18.6737 24.0696 12.032C24.0696 5.39034 18.6793 0 12.0376 0ZM12.0376 20.8875C7.12856 20.8875 3.18207 16.9411 3.18207 12.032C3.18207 7.12294 7.12856 3.17645 12.0376 3.17645C16.9467 3.17645 20.8932 7.12294 20.8932 12.032C20.8932 16.9411 16.9467 20.8875 12.0376 20.8875Z" fill="#F12E45"/>
<path d="M15.0215 11.5507C16.4037 11.5507 17.5241 10.4302 17.5241 9.04805C17.5241 7.66588 16.4037 6.54541 15.0215 6.54541C13.6393 6.54541 12.5188 7.66588 12.5188 9.04805C12.5188 10.4302 13.6393 11.5507 15.0215 11.5507Z" fill="#F12E45"/>
<path d="M15.0215 17.5186C16.4037 17.5186 17.5241 16.3982 17.5241 15.016C17.5241 13.6338 16.4037 12.5133 15.0215 12.5133C13.6393 12.5133 12.5188 13.6338 12.5188 15.016C12.5188 16.3982 13.6393 17.5186 15.0215 17.5186Z" fill="#F12E45"/>
<path d="M9.05368 17.5186C10.4359 17.5186 11.5564 16.3982 11.5564 15.016C11.5564 13.6338 10.4359 12.5133 9.05368 12.5133C7.6715 12.5133 6.55103 13.6338 6.55103 15.016C6.55103 16.3982 7.6715 17.5186 9.05368 17.5186Z" fill="#F12E45"/>
<path d="M9.05368 11.5507C10.4359 11.5507 11.5564 10.4302 11.5564 9.04805C11.5564 7.66588 10.4359 6.54541 9.05368 6.54541C7.6715 6.54541 6.55103 7.66588 6.55103 9.04805C6.55103 10.4302 7.6715 11.5507 9.05368 11.5507Z" fill="#F12E45"/>
</g>
<defs>
<clipPath id="clip0_389_2070">
<rect width="80" height="24.064" fill="white"/>
</clipPath>
</defs>
</svg>
