<svg width="296" height="42" viewBox="0 0 296 42" fill="none" xmlns="http://www.w3.org/2000/svg">
<path d="M75.5682 35.1115L65.1113 9.04199H67.0843L75.5682 30.3405L84.0218 9.04199H85.9872L75.5682 35.1115Z" fill="white"/>
<path d="M95.7994 8.35181L106.765 34.4213H104.837L101.923 27.5038H89.6679L86.7539 34.4213H84.8188L95.7994 8.35181ZM90.4419 25.7517H101.111L95.7538 12.8573L90.4419 25.7517Z" fill="white"/>
<path d="M111.522 34.4213V9.04199H113.412V32.6691H124.339V34.4213H111.522Z" fill="white"/>
<path d="M148.456 12.3945C150.274 14.2305 151.509 16.5634 152.004 19.0994C152.499 21.6353 152.232 24.261 151.237 26.6456C150.242 29.0302 148.563 31.0672 146.412 32.5C144.261 33.9328 141.733 34.6973 139.148 34.6973C136.564 34.6973 134.036 33.9328 131.885 32.5C129.734 31.0672 128.055 29.0302 127.06 26.6456C126.065 24.261 125.798 21.6353 126.293 19.0994C126.788 16.5634 128.022 14.2305 129.841 12.3945C132.328 9.96274 135.669 8.60107 139.148 8.60107C142.628 8.60107 145.969 9.96274 148.456 12.3945ZM147.143 29.8399C149.205 27.6539 150.354 24.7628 150.354 21.7581C150.354 18.7534 149.205 15.8623 147.143 13.6763C145.013 11.5757 142.141 10.3979 139.148 10.3979C136.156 10.3979 133.284 11.5757 131.154 13.6763C129.533 15.2518 128.423 17.2767 127.965 19.4896C127.507 21.7025 127.724 24.0017 128.586 26.0903C129.449 28.179 130.918 29.9613 132.804 31.207C134.69 32.4527 136.907 33.1046 139.167 33.0787C140.649 33.117 142.122 32.8483 143.495 32.2896C144.868 31.7309 146.11 30.8943 147.143 29.8323V29.8399Z" fill="white"/>
<path d="M157.63 34.4213V9.04206H165.757C166.74 9.01257 167.718 9.18444 168.631 9.54708C169.545 9.90972 170.374 10.4555 171.069 11.1507C171.768 11.8237 172.32 12.6342 172.689 13.5311C173.059 14.428 173.238 15.3918 173.217 16.3615C173.259 17.9244 172.796 19.4592 171.897 20.7382C170.997 22.0172 169.709 22.9721 168.223 23.4611L174.385 34.4213H172.306L166.334 23.7493C166.082 23.7742 165.827 23.7742 165.575 23.7493H159.542V34.3682L157.63 34.4213ZM159.527 22.0427H165.598C166.352 22.0645 167.102 21.9327 167.803 21.6553C168.504 21.3779 169.141 20.9608 169.676 20.4292C170.211 19.8977 170.631 19.2629 170.913 18.5636C171.194 17.8643 171.33 17.115 171.312 16.3615C171.324 15.6234 171.188 14.8904 170.91 14.2064C170.632 13.5224 170.219 12.9015 169.695 12.3809C169.172 11.8604 168.548 11.4508 167.862 11.1768C167.176 10.9029 166.442 10.7702 165.704 10.7866H159.542L159.527 22.0427Z" fill="white"/>
<path d="M176.389 34.4213L188.955 7.80566L201.491 34.4213H196.642L194.366 29.5062H183.438L181.162 34.4213H176.389ZM185.169 25.5696H192.674L188.925 17.3096L185.169 25.5696Z" fill="white"/>
<path d="M205.02 34.4213V9.04199H214.088C218.277 9.04199 221.555 10.2101 223.893 12.5766C226.23 14.9431 227.421 17.9619 227.421 21.7847C227.421 25.6075 226.26 28.6643 223.923 30.9625C221.586 33.2608 218.315 34.4213 214.126 34.4213H205.02ZM209.573 30.3026H213.8C220.098 30.3026 222.868 26.9956 222.868 21.7847C222.868 16.4297 220.136 13.153 213.762 13.153H209.573V30.3026Z" fill="white"/>
<path d="M231.716 34.4211V8.20752L244.685 23.9008L257.654 8.20752V34.4211H253.176V20.0097L244.685 30.3783L236.186 20.0401V34.4515L231.716 34.4211Z" fill="white"/>
<path d="M263.443 34.4213V9.04199H267.996V34.4213H263.443Z" fill="white"/>
<path d="M273.787 34.4211V8.09375L291.088 25.0613V9.04187H295.641V35.3693L278.332 18.47V34.3984L273.787 34.4211Z" fill="white"/>
<path d="M19.7476 40.823L0.18457 0.90332H9.14654L19.7704 23.241L30.3942 0.90332H39.3562L19.7476 40.823Z" fill="white"/>
<path d="M44.1978 1.1687L63.7608 41.0959H54.8216L44.1978 18.7582L33.5739 41.0959H24.5664L44.1978 1.1687Z" fill="white"/>
<path d="M39.7129 32.9043H55.1175V25.7517H43.1201L39.7129 32.9043Z" fill="white"/>
</svg>
