<svg width="93" height="56" viewBox="0 0 93 56" fill="none" xmlns="http://www.w3.org/2000/svg">
<path d="M69.7404 26.3435C69.5875 26.267 69.4345 26.1906 69.2561 26.1652C68.1854 25.9359 67.1658 26.0888 66.1206 26.1906C65.3814 26.267 64.0813 26.2925 64.1578 25.2483C64.3362 23.0833 67.1403 23.0578 68.5423 22.1409C68.7208 22.0391 68.8482 21.8353 68.8737 21.6315C68.8737 21.5042 68.8482 21.3768 68.7972 21.2495C67.4207 17.6837 63.9793 15.3914 60.538 14.0925C57.9124 13.0991 55.5417 12.7171 52.7631 13.3284C52.1258 13.4812 51.4885 13.6595 50.8512 13.8887C50.3414 14.067 49.7806 14.2962 49.2198 14.5255C48.2511 15.0094 46.4922 15.8244 45.9314 14.449C44.9117 11.9275 43.4332 9.27867 41.5213 7.26655C40.3232 6.01853 38.5643 5.43273 36.8819 5.76383C34.9445 6.17135 33.9504 7.69954 32.7523 9.12585C32.1405 9.83901 30.1266 12.0294 29.3364 10.272C29.0305 9.60978 29.2344 8.87115 29.0815 8.18347C28.6481 6.19682 26.6853 5.63649 24.9009 5.66195C23.3204 5.68742 21.74 5.96759 20.236 6.50246C18.732 7.03733 17.3554 7.9033 15.7749 8.28535C13.5827 8.82021 11.3904 6.65528 9.0197 7.57219C8.48438 7.75048 8.00004 8.00518 7.54119 8.36176C6.67448 8.9985 6.06269 9.94089 5.83326 11.0106C5.80777 11.087 5.80777 11.138 5.78228 11.2144C5.29794 14.4745 4.30377 17.4545 3.36059 20.358C2.26446 23.6437 1.14283 27.0566 0.811441 30.7752C0.785949 31.1063 0.760458 31.4374 0.78595 31.7685C0.78595 31.7685 0.78595 31.794 0.78595 31.8195C0.913407 34.5702 2.79978 36.888 5.47638 37.5502C6.21564 38.2633 7.28628 39.002 8.73929 39.002C8.79028 39.002 8.86675 39.002 8.91773 39.002C9.96288 38.9256 10.9571 38.4926 11.7218 37.7539C12.563 36.7861 13.3787 35.7928 14.169 34.7994C15.673 36.6587 18.3496 37.6266 20.6183 37.2955C20.7713 37.2955 20.9242 37.2955 21.0772 37.2955C23.4479 37.4992 25.6147 36.1493 27.8069 36.1493C30.0502 36.3531 32.3189 36.404 34.4602 36.0729C35.174 35.9711 35.8622 35.8182 36.5505 35.6145C36.8309 36.2258 37.3662 36.6842 38.0035 36.888C38.6918 37.0663 39.4055 37.1172 40.1193 37.0153C41.7253 36.7097 43.6371 35.8946 44.7333 36.4295C46.3392 37.2191 48.1491 37.3464 50.0355 37.1936C50.6473 37.1427 51.2846 37.0408 51.9219 36.9389C56.5103 36.1748 61.4302 35.3598 64.9735 32.0742C64.9735 33.9335 60.7164 34.6212 61.991 36.7097C62.1185 36.9389 65.9167 35.2834 66.2991 35.1051C67.4717 34.5957 69.0776 34.0353 69.7404 32.8637C69.8169 32.7364 69.8679 32.5836 69.8934 32.4053C69.9444 31.7176 69.0267 31.3101 68.7208 30.7497C68.3384 30.113 68.3894 29.298 68.8737 28.7376C69.1796 28.381 69.511 28.0754 69.8934 27.8207C70.4032 27.4641 70.4542 26.7764 69.7404 26.3435Z" fill="#7C9BAC"/>
<path d="M25.691 12.2331C26.0479 11.9275 26.2009 11.6728 26.1754 11.2907C26.0989 9.68615 23.8557 8.48906 22.4281 8.56547C21.7909 8.59094 21.1281 8.82017 20.8477 9.43145C18.0691 13.5066 11.9766 24.5351 9.0961 28.4574C8.96864 28.5848 8.81569 28.6357 8.63725 28.6612C8.50979 28.6612 8.43332 28.6102 8.43332 28.4574C8.43332 28.381 8.43332 28.3301 8.45881 28.2537C9.27454 25.8595 11.9002 17.0215 14.2964 13.583C14.5258 13.3538 14.6532 13.0482 14.6532 12.7425C14.5768 11.3926 12.1551 10.5267 10.9315 10.5776C10.2177 10.6031 9.19806 10.9087 9.01962 11.7747C7.898 19.11 4.63509 24.7388 4.04878 31.1827C4.02329 31.361 4.02329 31.5393 4.04878 31.7176C4.15075 33.5514 5.57827 34.5192 7.13325 34.5702C7.77054 35.3597 8.25488 35.8182 8.73921 35.7927C9.17257 35.7673 9.60593 35.3852 10.1667 34.4683C12.7924 30.0875 17.8142 19.543 25.691 12.2331Z" fill="white"/>
<path d="M60.9706 20.18C60.8686 20.18 60.8177 20.2564 60.7157 20.3838C60.1549 21.1988 57.1214 25.1721 56.2292 26.2418C54.9801 27.7446 53.2977 29.5784 52.9663 29.8586C52.7624 30.1133 52.5074 30.2661 52.2015 30.3425C51.9976 30.3425 51.8192 30.1897 51.8192 29.8331C51.7172 27.7446 54.9291 23.7458 55.9743 22.294C56.2037 21.9884 56.3312 21.6318 56.3567 21.2752C56.3057 20.0781 53.884 20.0272 52.9153 19.4159C52.9918 19.4159 53.4506 18.2443 53.3996 17.3274C53.3742 16.6907 53.0683 16.1303 52.227 16.1813C49.3975 16.3341 47.1542 18.3207 47.2307 19.9508C47.2817 20.8422 47.9445 21.6318 49.5249 22.0139C49.474 22.0903 49.3975 22.1667 49.321 22.2686C48.8367 22.8544 48.2504 23.5166 47.7915 24.0769C46.7973 25.2995 45.7012 25.8089 44.7835 25.8598H44.707C45.9561 23.6185 46.7973 21.6063 46.7719 21.0205C46.7209 19.9763 45.4718 18.7028 43.7894 18.7792C42.8972 18.3207 42.3618 17.3529 41.5971 17.4038C39.6597 17.4802 36.4733 22.4978 35.2497 26.9295C35.1732 27.0314 35.0713 27.1333 35.0203 27.2097C34.0771 28.5087 32.9555 29.7057 31.7319 30.75C31.6554 30.8009 31.5789 30.8519 31.5025 30.8519C31.2985 30.8519 31.1966 30.6481 31.1711 30.368C31.0691 28.5596 36.3968 17.9896 39.7872 13.7871C40.6794 12.6664 41.0108 11.775 40.9853 11.0873C40.9088 9.32988 38.6146 8.74408 37.493 8.79502C36.5498 8.84595 36.2694 8.9733 36.2949 9.17706C36.2949 9.40629 36.6517 9.7374 36.6772 10.1194C36.6772 10.2468 36.6517 10.3996 36.5753 10.5015C34.0771 15.0097 29.0808 24.7646 28.2905 28.9416C28.265 28.9416 28.2395 28.9162 28.2395 28.9162C27.9336 29.2728 26.6591 30.5463 25.9708 30.5717C25.5629 30.5972 25.2316 30.2915 25.2061 29.884C25.1551 28.687 27.3473 25.0448 28.0356 24.1024C28.1631 23.9496 28.2395 23.7458 28.265 23.5675C28.2395 22.9053 27.016 22.294 25.5884 22.3704C25.2316 22.3704 24.8492 22.4468 24.5178 22.5487C24.0589 25.5032 20.847 31.8707 18.8842 31.9726C18.6547 31.9726 18.5528 31.7433 18.5273 31.3358C18.4253 29.0945 21 22.0903 25.8179 21.861C26.3532 21.8356 26.8885 21.912 27.4238 22.0393C27.5513 22.0648 27.6787 22.0903 27.7807 22.0903C28.3415 22.0648 28.8259 21.0715 28.7749 20.0272C28.7239 18.8811 28.0356 17.7349 26.1238 17.8113C20.3627 18.066 15.9272 27.1842 16.1566 31.9216C16.2331 33.3989 17.6351 34.2139 19.0881 34.163C19.9803 34.112 21.4588 33.0678 22.7844 31.4632C22.9373 32.6857 23.6256 33.246 24.6198 33.2206C25.6904 33.1696 27.0924 32.3291 28.316 30.6736C28.6474 32.0744 29.8455 33.8064 31.0946 33.7554C31.4515 33.73 31.7829 33.5772 32.0378 33.3225C32.8535 32.6093 33.8987 31.2849 34.8164 30.0878C34.8164 30.2661 34.8164 30.4444 34.8164 30.5972C34.9183 32.482 35.8105 33.7554 37.9008 33.6536C39.5578 33.5772 41.801 30.8264 43.6364 27.8974C43.8658 27.9483 44.1207 27.9483 44.3757 27.9229C45.9051 27.8464 47.6641 26.955 48.9386 25.0702C49.5759 24.1279 50.2132 23.1345 50.723 22.294C51.0034 22.345 51.3093 22.345 51.6152 22.3704C50.4426 24.8665 48.7092 29.1963 48.8367 31.6924C48.8877 32.864 49.372 33.6026 50.4936 33.5517C52.5839 33.4498 55.8213 29.5529 57.1979 27.5153C58.9568 24.9938 60.7667 22.2686 61.5824 20.8677C61.5059 20.7404 61.2765 20.1546 60.9706 20.18ZM41.1892 25.274C41.2147 25.6815 41.3167 26.089 41.5206 26.4711C40.399 28.9162 38.3597 31.7943 37.4675 31.8452C37.2635 31.8452 37.1361 31.7433 37.1106 31.4632C36.9321 27.8464 40.1951 23.0581 41.5971 22.9817H41.6991C41.3422 23.6694 41.1637 24.4844 41.1892 25.274Z" fill="white"/>
<path d="M75.7554 6.19678H70.4531V9.20222H75.7554V6.19678Z" fill="#C4C4C4"/>
<path d="M83.9145 42.1096L81.3654 41.9059L79.6829 40.4541L71.908 41.4474L68.1098 41.4729L68.0333 49.4704H73.565C73.9474 49.3431 77.4397 48.5535 78.9947 48.6299C80.5496 48.7063 83.1753 49.1903 83.94 49.4704C83.94 49.4704 86.5911 49.394 87.5598 49.1903C88.5285 48.9865 90.6698 47.8913 90.6698 47.8913L83.9145 42.1096Z" fill="#7C9BAC"/>
<path d="M67.8529 49.7251C67.1391 49.7251 66.4764 50.1581 66.2214 50.8458C66.2214 50.8458 71.3197 50.8712 71.4472 50.8712C71.7276 50.8203 71.9825 50.6675 72.161 50.4637C72.2629 50.2345 72.3649 49.9798 72.4159 49.7251H67.8529Z" fill="#E3E3E3"/>
<path d="M91.6115 50.133C91.4585 49.9802 91.2546 49.8528 91.0507 49.7764C90.8467 49.7 90.6428 49.649 90.4134 49.649C90.3624 49.649 90.3114 49.649 90.2349 49.649H90.031C89.929 49.649 89.8016 49.649 89.6996 49.6236C89.2408 49.5726 88.8074 49.4198 88.3995 49.1906L88.3231 49.1396L86.0288 49.7C86.0033 49.9802 86.0543 50.2603 86.1563 50.515C86.3092 50.8207 87.023 50.9225 87.2779 50.9225L91.8409 50.8716V50.6678C91.8664 50.4641 91.7644 50.2858 91.6115 50.133Z" fill="#E3E3E3"/>
<path d="M83.557 39.3331L85.0355 36.4805C85.0355 36.4805 86.3866 36.7352 87.0238 37.0917C87.2278 37.1936 88.0435 37.7285 88.12 37.9832C88.1965 38.2379 87.8141 39.1293 87.7886 39.2567C88.12 39.5114 88.2474 39.9444 88.0945 40.3264C87.8651 40.7849 86.9219 40.632 86.5395 40.5811C86.1571 40.5302 83.557 39.3331 83.557 39.3331Z" fill="#E3E3E3"/>
<path d="M71.4486 31.1318C69.7152 31.1318 68.0073 30.9025 66.3503 30.3931C65.7895 30.2149 65.2542 30.0111 64.7444 29.7564C64.4894 29.6291 64.2345 29.4762 64.0051 29.3234C63.9031 29.247 63.8012 29.1451 63.6992 29.0687C63.6992 29.0687 63.6992 29.0687 63.6737 29.0432H63.6227L63.5717 28.8904L63.7247 28.814L63.5717 28.8904L63.5208 28.7376L63.4188 28.381C63.2404 27.8207 63.0619 27.2604 62.858 26.7C62.8835 26.8783 62.909 27.0821 62.9345 27.2858L62.9854 27.5405L62.7305 27.5151C62.3227 27.4896 61.9658 27.3368 61.6344 27.0821C61.252 26.7764 60.9206 26.3689 60.6912 25.9359C60.2833 25.1464 59.901 23.0578 59.8755 22.6248C59.85 22.2683 59.8755 21.9372 59.9265 21.5806C59.952 21.3514 60.0284 21.1221 60.1049 20.8929C60.1559 20.7146 60.3088 20.5618 60.5128 20.4854C60.6147 20.4599 60.7167 20.4599 60.8187 20.4599C61.1501 20.4599 61.5069 20.5873 61.7618 20.791C62.1187 21.0967 62.3991 21.4787 62.6031 21.9117C62.7305 22.1664 62.807 22.4466 62.858 22.7267C63.0109 22.4466 63.2658 21.9626 63.5208 21.5042C64.5149 19.5685 66.1719 16.3083 67.9563 15.3659L67.9818 15.3405H68.0073C68.67 15.1877 69.3583 15.0858 70.0466 15.0094C70.8113 14.933 71.5761 14.882 72.3663 14.882H72.3918C73.9213 14.882 75.4763 15.0348 76.9803 15.315H77.0058C77.0313 15.315 77.0567 15.315 77.0567 15.315H77.0822C77.898 15.0348 78.7137 14.7801 79.5294 14.5764C80.2942 14.3726 81.0589 14.2453 81.8491 14.1943H81.9511L82.0276 14.2707C82.155 14.449 82.257 14.6273 82.3845 14.8311C82.5119 15.0858 82.6394 15.3405 82.7413 15.6206C82.9453 16.1555 83.1237 16.7158 83.2512 17.2762C83.4806 18.4223 83.5826 19.5685 83.5571 20.7401C83.5316 20.842 83.6081 20.9184 83.71 20.9438C83.7865 20.9438 83.863 20.9184 83.8885 20.842V20.8165C83.9649 20.6127 84.0924 20.4344 84.2198 20.2307V20.2052C84.3473 20.0015 84.5257 19.8232 84.7042 19.6703C85.0611 19.3647 85.5454 19.2628 86.0043 19.3647C86.1572 19.3902 86.3102 19.543 86.4121 19.7722C86.5141 20.0015 86.5651 20.2307 86.5906 20.4599C86.6415 20.791 86.667 21.1476 86.6415 21.5042L86.5906 22.0645C86.4886 23.0069 86.2082 23.9493 85.7748 24.7898C85.5454 25.2228 85.214 25.6048 84.8316 25.9105C84.4748 26.1652 84.0669 26.318 83.6335 26.318C83.5826 26.318 83.5571 26.318 83.5061 26.318H83.3276V26.1397C83.3276 25.9105 83.3022 25.6812 83.3022 25.452C83.2512 25.7322 83.1747 25.9869 83.1492 26.2161C83.1237 26.3689 83.0982 26.5217 83.0727 26.6746C83.0472 26.8019 83.0217 26.9292 82.9963 27.0821L82.9198 27.5151C82.9198 27.566 82.8943 27.6424 82.8943 27.6933V27.7188H82.8433L82.8943 27.7443V27.7698L82.8688 27.7952C82.8688 27.8207 82.8433 27.8207 82.8433 27.8462C82.6649 28.0499 82.4864 28.2282 82.257 28.381C82.0276 28.5593 81.7982 28.7121 81.5432 28.8395C81.0334 29.1197 80.5236 29.3744 79.9883 29.5781C77.8215 30.4186 75.5527 30.928 73.2585 31.0808C72.5957 31.1063 72.0094 31.1318 71.4486 31.1318Z" fill="#E3E3E3"/>
<path d="M77.4391 38.2893C77.4136 38.2893 77.4391 38.2893 77.4391 38.2893C77.745 38.6204 78.6882 39.5373 78.6882 39.5373L74.5585 39.9193C74.1762 39.2571 73.335 39.0024 72.6722 39.3845C72.4428 39.5118 72.2643 39.6901 72.1369 39.9193L68.9249 39.7665C68.9249 39.7665 71.9329 36.6847 72.5447 35.8442C73.1565 35.0037 75.3743 31.1577 75.3743 31.1577C75.3743 31.1577 78.8411 32.8897 80.4216 33.6028C82.155 34.3669 85.3669 35.5385 85.3669 35.5385L83.2511 39.2062C83.2511 39.2062 81.8491 38.3147 81.4667 39.0788C81.0844 39.8429 82.9198 40.5306 82.9198 40.5306L81.4412 41.5239C81.4667 41.5239 77.8979 38.6204 77.4391 38.2893Z" fill="white"/>
<path d="M69.0008 31.4376L68.0066 31.2593L61.4553 39.9445C61.4553 39.9445 63.877 41.7274 64.4123 41.9821C65.33 42.4405 67.6752 43.1282 67.6752 43.1282C67.6752 43.1282 67.8027 37.2702 67.9047 36.4297C68.0066 37.2702 68.1086 39.6643 68.1086 39.6643L69.0518 39.7407C69.0518 39.7407 70.5813 38.238 71.0656 37.5758C71.346 37.2447 72.5951 35.0798 72.5951 35.0798L69.0008 31.4376Z" fill="white"/>
<path d="M70.607 40.3265C69.8422 40.301 69.0775 40.2755 68.2872 40.2246C68.2872 40.4538 68.2872 40.6831 68.3127 40.9123C69.1539 40.9632 70.0207 40.9632 70.8874 40.9632C71.1933 40.9632 71.4992 40.9632 71.8051 40.9378C71.7796 40.8104 71.7541 40.6831 71.7541 40.5557C71.7541 40.4793 71.7541 40.4029 71.7796 40.301C71.3972 40.352 71.0148 40.352 70.607 40.3265Z" fill="#FCBD19"/>
<path d="M69.4613 31.514L74.891 31.4121C74.2792 32.7875 73.489 34.061 72.5203 35.2071C71.3222 34.1374 70.277 32.8894 69.4613 31.514Z" fill="#E3E3E3"/>
<path d="M86.4888 36.6337L88.1202 34.1377L89.0634 34.749L87.4829 37.1941L86.4888 36.6337Z" fill="#FCBD19"/>
<path d="M79.1468 40.2505C78.9684 40.0977 78.7899 39.9194 78.6115 39.7666C77.3624 39.9958 76.1133 40.1486 74.8643 40.2251C74.8897 40.3524 74.9152 40.4543 74.9152 40.5816C74.9152 40.658 74.9152 40.7599 74.8898 40.8363C76.3428 40.7345 77.7448 40.5562 79.1468 40.2505Z" fill="#FCBD19"/>
<path d="M77.9745 41.8037C77.9745 41.8037 80.5746 46.3119 84.4238 48.1712C84.4493 48.1712 78.4588 42.0075 77.9745 41.8037Z" fill="#010101"/>
<path d="M79.9883 47.7385C78.4079 46.9744 77.0313 45.7773 75.9607 44.6057L76.6745 44.3765C78.3314 46.032 79.9883 47.7385 79.9883 47.7385Z" fill="#010101"/>
<path d="M73.3601 41.6766C73.9974 41.6766 74.5072 41.1672 74.5072 40.5304C74.5072 39.8937 73.9974 39.3843 73.3601 39.3843C72.7228 39.3843 72.213 39.8937 72.213 40.5304C72.213 41.1672 72.7228 41.6766 73.3601 41.6766Z" fill="#C4C4C4"/>
<path d="M72.0086 40.1483L68.0829 40.0464L68.1084 41.1416L72.0596 41.1925L72.0086 40.1483Z" fill="#C4C4C4"/>
<path d="M78.6882 39.562L74.635 40.0459L74.6605 41.0647C76.3174 41.0902 77.9999 40.861 79.5804 40.377L78.6882 39.562Z" fill="#C4C4C4"/>
<path d="M74.1251 41.7275L72.8251 41.9313L73.1565 45.599L75.935 44.4528L74.1251 41.7275Z" fill="#C4C4C4"/>
<path d="M64.1318 43.6125C63.1886 42.8739 63.2141 41.3457 63.2141 41.3457L66.0691 42.823C66.0691 42.823 65.0749 44.3511 64.1318 43.6125Z" fill="#E3E3E3"/>
<path d="M67.4211 48.3754C66.6819 48.3245 64.5406 47.9934 64.5406 47.9934C64.4131 48.0443 72.29 46.3378 74.2019 45.319C76.4706 44.5295 82.3591 41.3203 83.2768 40.709L84.169 41.1929C83.4298 42.2117 80.2179 44.6313 78.8413 45.4209C77.3118 46.3633 72.443 48.8084 72.443 48.8084C72.443 48.8084 67.7015 48.4009 67.4211 48.3754Z" fill="white"/>
<path d="M86.3354 42.3388C85.8765 42.237 81.7979 39.8937 81.7979 39.8937C81.543 39.7409 81.441 39.4098 81.543 39.1296C81.7214 38.7731 82.2567 38.7985 82.3842 38.875C82.3842 38.875 86.7687 41.1927 86.9727 41.4729C87.1766 41.753 87.2531 41.9568 87.1256 42.186C86.9982 42.4153 86.7942 42.4662 86.3354 42.3388Z" fill="#FCBD19"/>
<path d="M62.8072 38.1362L61.915 39.3588C61.915 39.3588 64.974 41.5237 67.6251 42.2878V40.6068C67.6506 40.5813 64.5407 39.4607 62.8072 38.1362Z" fill="#7C9BAC"/>
<path d="M68.2618 31.3864L67.8794 31.3354L67.2931 32.125C68.3382 34.1881 71.4482 36.8879 71.4482 36.8879L72.3914 35.6398C70.2246 34.4173 68.2618 31.3864 68.2618 31.3864Z" fill="#7C9BAC"/>
<path d="M76.1381 31.4888C76.1381 31.4888 73.1046 37.9581 69.6123 39.9702L71.7536 40.0212C71.7536 40.0212 75.2714 37.627 77.7951 32.6349L76.1381 31.4888Z" fill="#7C9BAC"/>
<path d="M82.6129 38.9514C82.6129 38.9514 84.3719 36.1498 84.6268 35.2328C84.6523 35.1564 82.5365 34.4688 82.5365 34.4688C81.8737 36.9648 79.7069 40.1231 79.7069 40.1231L81.2109 41.2692C81.5423 40.8871 81.8482 40.4542 82.1286 40.0466C82.1286 40.0466 81.3384 39.6137 81.6698 39.0788C82.0011 38.5439 82.6129 38.9514 82.6129 38.9514Z" fill="#7C9BAC"/>
<path d="M60.8943 22.6762C59.059 22.4215 60.0531 24.6883 60.0531 24.6883L60.8434 26.2165C60.8434 26.2165 60.2571 25.0194 61.2257 24.8411C62.1944 24.6629 62.5513 25.7326 62.5513 25.7326C62.5513 25.7326 62.7042 22.9564 60.8943 22.6762Z" fill="white"/>
<path d="M86.5651 22.2938C86.5906 21.5297 85.7239 21.6571 84.8062 21.9882C83.8885 22.3193 83.3531 25.1974 83.3531 25.1974L83.5316 25.9615C83.5316 25.9615 84.2453 23.3126 85.1885 23.2872C86.1317 23.2617 85.9788 24.5861 85.9788 24.5861C85.9788 24.5861 86.5396 23.0579 86.5651 22.2938Z" fill="white"/>
<path d="M65.7382 28.2277C66.3755 27.6165 66.7578 26.8014 66.8343 25.9355C66.9108 24.5092 66.248 22.7263 66.5284 22.3442C66.5284 22.3442 71.1169 22.5734 71.8561 22.3442C72.5954 22.115 73.2327 20.4849 71.8561 19.3388C72.0091 19.8227 72.0856 20.3066 72.1365 20.816C72.1875 21.1726 72.111 21.5037 71.9836 21.8348C71.9836 21.8348 71.6012 21.8603 69.7658 20.9688C69.0266 20.6377 68.2873 20.2557 67.5991 19.8482C67.5991 19.8482 69.2815 17.2248 68.7207 15.4419L67.4206 15.5183C67.4206 15.5183 66.7833 18.0398 66.299 18.8039C65.8147 19.568 64.3616 21.7839 64.7185 22.9046C65.0754 24.0252 65.8147 25.9609 65.8401 26.4449C65.8656 26.9288 65.7382 28.2277 65.7382 28.2277Z" fill="white"/>
<path d="M78.357 21.02C78.357 21.02 78.7649 18.142 81.1356 17.0722C79.7081 16.9449 78.3316 17.5816 77.4903 18.7278C76.0373 20.7144 75.2981 21.1983 75.2981 21.1983C75.2981 21.1983 74.1764 21.3002 73.896 19.8994L73.7686 20.4852C73.7176 20.5616 73.998 22.1662 74.8902 22.5228C75.7824 22.8793 77.6688 22.2935 77.6688 22.2935H82.1043C81.2121 21.1983 79.7591 20.7144 78.357 21.02Z" fill="white"/>
<path d="M72.1368 25.1978C72.1368 25.1978 72.5957 27.0061 73.5644 27.1589C74.533 27.3117 75.1703 25.1978 75.1703 25.1978C75.1703 25.1978 74.3546 26.0128 73.5899 25.9618C72.8251 25.9109 72.1368 25.1978 72.1368 25.1978Z" fill="white"/>
<path d="M71.2957 29.0435C71.2957 29.0435 73.9213 29.5274 75.6037 28.7124C75.6037 28.7124 74.7625 30.0368 73.2585 30.0114C71.7545 29.9859 71.2957 29.0435 71.2957 29.0435Z" fill="white"/>
<path d="M91.8665 49.9032C91.6881 49.7249 91.4587 49.5721 91.2038 49.4702C90.9743 49.3683 90.7194 49.3174 90.4645 49.2919C90.1841 49.2665 90.0057 49.2665 89.8017 49.241C89.5978 49.2155 89.4194 49.1391 89.2409 49.0627C89.8272 48.808 90.4135 48.5024 90.9233 48.1203C90.9488 48.1203 90.9488 48.0948 90.9743 48.0694C91.0763 47.9675 91.0508 47.7892 90.9488 47.7128L84.3211 41.8038C84.372 41.7529 84.423 41.7019 84.474 41.6765C84.627 41.7529 84.7799 41.8547 84.9329 41.9311L85.6721 42.3641L86.0545 42.5934C86.131 42.6443 86.2074 42.6698 86.2839 42.7207C86.3859 42.7717 86.4878 42.7717 86.5898 42.7971H86.6153C87.0996 42.7971 87.5075 42.4151 87.5075 41.9311C87.5075 41.7019 87.431 41.4982 87.2781 41.3453C87.2271 41.2944 87.2016 41.2435 87.1506 41.218L87.0996 41.1671L87.0486 41.1161L86.8702 41.0142C86.8192 40.9888 86.7937 40.9633 86.7427 40.9378C86.8447 40.9378 86.9212 40.9633 87.0232 40.9633C87.3291 40.9888 87.635 40.9378 87.9154 40.8359C88.0938 40.7595 88.2213 40.6322 88.3232 40.4539C88.3997 40.3011 88.4507 40.0973 88.3997 39.919C88.3487 39.6643 88.1958 39.4096 87.9663 39.2823C88.0683 39.1549 88.1448 39.0276 88.2213 38.8748C88.3487 38.671 88.4252 38.4673 88.5017 38.2635C88.5271 38.1871 88.5272 38.0852 88.5272 38.0088C88.5272 37.9833 88.5017 37.9324 88.5017 37.9069L88.4762 37.856C88.4507 37.8305 88.4252 37.7796 88.4252 37.7541C88.3487 37.6522 88.2722 37.5503 88.1703 37.4739C88.0938 37.3975 88.0173 37.3466 87.9409 37.2702L89.4703 34.9015C89.5468 34.7741 89.5213 34.5958 89.3939 34.5194L88.3232 33.8317C88.1958 33.7553 88.0173 33.7808 87.9409 33.9082L86.3349 36.3533C86.08 36.2514 85.8251 36.175 85.5701 36.0986L85.7741 35.691C85.7741 35.6656 85.7996 35.6656 85.7996 35.6401C85.8505 35.4873 85.7486 35.3345 85.6211 35.309C83.9387 34.7232 82.2817 34.0355 80.6503 33.2714C79.3502 32.6601 78.0502 32.0234 76.7501 31.3612C77.9482 31.1065 79.0953 30.7499 80.2169 30.266C80.7777 30.0367 81.3131 29.7566 81.8229 29.4509C82.0778 29.2981 82.3327 29.1198 82.5876 28.9415C82.868 28.7378 83.0975 28.5086 83.3014 28.2284C83.3269 28.1774 83.3524 28.1265 83.3779 28.0756C83.3779 28.0501 83.4034 28.0246 83.4034 27.9737L83.4289 27.9227V27.8973C83.4543 27.7954 83.4543 27.7445 83.4798 27.668C83.5053 27.5152 83.5053 27.3624 83.5308 27.2096C83.5308 27.0568 83.5308 26.904 83.5563 26.7766C84.0916 26.8021 84.627 26.6493 85.0603 26.3436C85.4937 26.0125 85.876 25.605 86.1564 25.1211C86.6663 24.2042 86.9977 23.1599 87.1251 22.1156C87.2016 21.5808 87.2016 21.0459 87.1506 20.511C87.1251 20.2309 87.0487 19.9507 86.9467 19.6705C86.8702 19.5177 86.7937 19.3649 86.6663 19.2375C86.5898 19.1611 86.5388 19.1102 86.4369 19.0592C86.3859 19.0338 86.3349 19.0083 86.2839 18.9828C86.2329 18.9574 86.2074 18.9574 86.1564 18.9319C85.8505 18.8555 85.5446 18.8555 85.2388 18.9319C85.0603 18.9828 84.9074 19.0338 84.7544 19.1357C84.8309 18.7027 84.8819 18.2697 84.9074 17.8367C84.9583 17.0217 84.9583 16.1812 84.9074 15.3661C84.8819 15.1624 84.8819 14.9586 84.8564 14.7294C84.8564 14.6275 84.8309 14.5001 84.8054 14.3983C84.7799 14.2964 84.7544 14.169 84.7289 14.0672C84.6015 13.6596 84.3975 13.2521 84.1681 12.8955C83.6838 12.1824 83.123 11.5711 82.4602 11.0363C81.1601 9.99199 79.7071 9.17695 78.1266 8.64209C77.8462 8.54021 77.5913 8.4638 77.3109 8.38739C77.8972 7.90346 78.6619 7.08843 78.8149 5.99322C78.9678 4.9999 78.6619 3.34436 77.5913 2.0454C76.8775 1.17943 75.552 0.109694 73.2323 0.0078146C71.3459 -0.0685949 69.8164 0.415332 68.7203 1.45959C67.6751 2.47839 67.0888 3.87923 67.0888 5.33101C67.0633 6.8592 68.1085 7.92893 68.8477 8.48927C68.6693 8.54021 68.5163 8.59115 68.3379 8.66756C66.7574 9.25336 65.3299 10.2212 64.2083 11.4692C63.6475 12.106 63.2141 12.8701 62.9082 13.6596C62.6533 14.4492 62.4749 15.2897 62.4239 16.1302C62.3219 17.7603 62.4239 19.3649 62.7043 20.9695C62.7043 20.995 62.7043 20.995 62.7043 21.0204C62.5513 20.8167 62.3729 20.6384 62.169 20.4601C61.914 20.2563 61.6336 20.129 61.3277 20.0526C61.0218 19.9762 60.6905 19.9762 60.3846 20.0526C60.3336 20.0526 60.2826 20.078 60.2571 20.1035C60.2061 20.129 60.1551 20.1544 60.1041 20.1799C60.0277 20.2309 59.9512 20.3073 59.8747 20.3837C59.7728 20.511 59.6708 20.6638 59.5943 20.8167C59.4924 21.0968 59.4159 21.377 59.3904 21.6572C59.3394 22.192 59.3394 22.7269 59.4159 23.2618C59.5433 24.306 59.8747 25.3503 60.4101 26.2672C60.6905 26.7511 61.0473 27.1587 61.5062 27.4643C61.914 27.719 62.3729 27.8718 62.8572 27.8463C62.9337 28.2284 63.0102 28.6104 63.1121 28.9925L63.1376 29.0944L63.1631 29.1453C63.1631 29.1708 63.1886 29.1962 63.1886 29.2217C63.2396 29.3236 63.2906 29.4255 63.3671 29.5019C63.469 29.6292 63.5965 29.7311 63.7494 29.833C64.0044 30.0113 64.2593 30.1896 64.5397 30.3424C65.075 30.6225 65.6358 30.8772 66.1966 31.0555C66.579 31.1829 66.9614 31.2848 67.3437 31.3866L61.2258 39.8936C61.1493 39.9954 61.1748 40.1483 61.2768 40.2247C61.7611 40.6067 62.2454 40.9633 62.7298 41.2944C62.7298 41.3453 62.7298 41.3708 62.7298 41.4218C62.7808 41.8802 62.9082 42.3387 63.0867 42.7717C63.2651 43.2556 63.5455 43.6631 63.9534 43.9942C64.0808 44.0706 64.2083 44.147 64.3357 44.198C64.4122 44.2234 64.4887 44.2489 64.5652 44.2489H64.6161H64.6671H64.7691C65.0495 44.2489 65.3299 44.1725 65.5593 44.0451C65.8907 43.8414 66.1456 43.5358 66.2731 43.1792C66.6555 43.332 67.0633 43.4339 67.4712 43.5357C67.4712 44.4017 67.4712 45.2677 67.4712 46.1337C67.4712 46.5157 67.4712 46.8723 67.4967 47.2543C66.426 47.509 65.3299 47.7383 64.2338 47.942C64.1573 47.942 64.1063 48.0184 64.1063 48.0694C64.0808 48.1458 64.1573 48.2477 64.2338 48.2477C65.3299 48.426 66.426 48.5788 67.5222 48.7061C67.5222 48.9863 67.5477 49.2665 67.5477 49.5466C67.3947 49.5976 67.2673 49.6485 67.1143 49.6994C66.9104 49.8013 66.7319 49.9032 66.5535 50.0306C66.3496 50.1834 66.1966 50.3617 66.0946 50.5909C66.0692 50.6673 66.0437 50.7692 66.0437 50.8456C66.0692 50.9729 66.1201 51.0748 66.1966 51.1512C66.3241 51.2531 66.477 51.304 66.63 51.2786H67.2163H68.3889C69.1536 51.2786 69.9439 51.304 70.7341 51.3295C70.938 51.3295 71.1165 51.3295 71.3204 51.3295C71.5498 51.3295 71.8047 51.2786 72.0087 51.1767C72.2636 51.0748 72.4675 50.8965 72.595 50.6673C72.6969 50.489 72.7734 50.2853 72.7989 50.0815H73.5637C73.6146 50.0815 73.6656 50.0815 73.7166 50.056C74.5068 49.6994 75.3226 49.4448 76.1638 49.2919C77.0305 49.1391 77.8972 49.0627 78.7639 49.0372C79.6306 49.0372 80.4973 49.1136 81.364 49.2919C82.2053 49.4448 83.0465 49.6994 83.8112 50.056C83.8367 50.0815 83.8877 50.0815 83.9132 50.0815H83.9387C84.0661 50.0815 84.1936 50.0815 84.3211 50.0815C84.7289 50.0815 85.1368 50.056 85.5192 50.0306C85.5447 50.1579 85.5701 50.2598 85.5956 50.3871C85.6466 50.54 85.7231 50.6673 85.8251 50.7947C86.0035 51.0239 86.2839 51.2022 86.5643 51.2786C86.8192 51.3295 87.0741 51.355 87.3291 51.3295L88.0173 51.304C88.935 51.2786 89.8272 51.2786 90.7449 51.2786H91.4332H91.6116C91.6881 51.2786 91.7646 51.2786 91.8156 51.2786C91.943 51.2531 92.045 51.2022 92.1215 51.1003C92.1979 51.0239 92.2234 50.8965 92.2234 50.7947C92.1979 50.4126 92.0705 50.107 91.8665 49.9032ZM87.9154 38.0852V38.0597C87.9154 38.0597 87.9154 38.0597 87.9154 38.0852ZM87.2526 37.5758C87.4055 37.6777 87.584 37.7796 87.7114 37.8814C87.7879 37.9324 87.8389 37.9833 87.8899 38.0343L87.9154 38.0597C87.8389 38.4418 87.7114 38.8238 87.584 39.1804L87.5585 39.2313C87.533 39.2823 87.584 39.3587 87.635 39.3842C87.7879 39.5115 87.8644 39.6898 87.8644 39.8936C87.8644 40.0464 87.7624 40.1737 87.635 40.1992C87.431 40.2501 87.2271 40.2501 87.0232 40.2247C86.7937 40.1992 86.5388 40.1483 86.3094 40.0973C85.8251 39.97 85.3662 39.8172 84.9074 39.6389C84.5505 39.486 84.1936 39.3587 83.8367 39.1804L85.1368 36.6589C85.876 36.9391 86.5898 37.2192 87.2526 37.5758ZM80.3444 33.8063C81.8994 34.5194 83.4798 35.1307 85.0858 35.6656L83.1994 38.9512L83.0465 38.8748L82.6641 38.671C82.4857 38.5691 82.3072 38.4927 82.1033 38.4927C81.619 38.4927 81.2366 38.8748 81.2621 39.3587C81.2621 39.5625 81.3386 39.7917 81.4915 39.9445C81.5425 39.9954 81.568 40.0209 81.619 40.0464C81.6444 40.0719 81.6699 40.0718 81.6699 40.0718L81.7209 40.0973L81.9249 40.1992L82.5621 40.5303C82.2308 40.7595 81.8739 41.0142 81.517 41.2435C81.1091 40.8614 80.7013 40.5048 80.2679 40.1483C79.8346 39.7917 79.4012 39.4351 78.9424 39.104C78.4835 38.7729 78.0502 38.4163 77.5658 38.1107C77.107 37.7796 76.6481 37.4739 76.1638 37.1683C76.5207 37.6013 76.9285 38.0088 77.3109 38.4163C77.6168 38.7474 77.9482 39.0785 78.2796 39.3842C77.0815 39.5625 75.8834 39.6643 74.6853 39.6898C74.2009 38.9512 73.2068 38.7729 72.493 39.2568C72.3146 39.3842 72.1616 39.537 72.0342 39.7153C71.5753 39.7153 71.1165 39.6898 70.6576 39.6643C70.2498 39.6389 69.8674 39.6134 69.4595 39.5879C69.9948 39.1295 70.5047 38.6455 70.9635 38.1361C71.2694 37.7796 71.5753 37.4485 71.8812 37.0664C72.1616 36.7098 72.442 36.3278 72.7224 35.9457C73.2578 35.2071 73.7931 34.443 74.2774 33.6535C74.7108 32.9658 75.1186 32.2271 75.501 31.514H75.5265C77.107 32.3036 78.7129 33.0676 80.3444 33.8063ZM78.6874 42.8735C78.6619 42.8735 76.903 43.765 76.0363 44.1725C75.7559 43.765 75.501 43.3575 75.2716 42.899C75.0422 42.4405 74.8382 41.9566 74.6343 41.4727C76.3167 41.3453 77.9737 41.0652 79.6051 40.6831C79.6306 40.7086 80.4209 41.3963 80.7777 41.6765C80.1405 42.0585 79.5032 42.4151 78.8404 42.7717C78.5345 42.4405 78.2286 42.1094 77.9482 41.7783C78.2031 42.1604 78.4325 42.5424 78.6874 42.8735ZM71.8047 40.9888C71.4988 40.9888 71.1929 40.9888 70.8871 40.9888C70.0203 40.9888 69.1791 40.9633 68.3124 40.9378C68.3124 40.7086 68.3124 40.4794 68.2869 40.2501C69.0517 40.3011 69.8419 40.3265 70.6066 40.352C70.989 40.352 71.3714 40.352 71.7793 40.352C71.7538 40.4284 71.7538 40.5048 71.7538 40.5812C71.7538 40.7086 71.7792 40.8614 71.8047 40.9888ZM68.3379 42.4151C68.3379 42.1604 68.3379 41.9057 68.3379 41.6765C68.8987 41.7019 69.4595 41.7019 70.0203 41.7019V41.9821V42.5424C70.0458 42.899 70.0458 43.281 70.0713 43.6376C70.0968 43.9942 70.1223 44.3763 70.1733 44.7328C70.2243 45.0894 70.2753 45.4715 70.3517 45.828C70.4282 45.4715 70.4792 45.0894 70.5302 44.7328C70.5811 44.3763 70.6066 43.9942 70.6321 43.6376C70.6576 43.281 70.6831 42.899 70.6831 42.5424L70.7086 41.9821V41.7019C70.7596 41.7019 71.7283 41.6765 72.1361 41.651C72.1871 41.7019 72.2381 41.7529 72.2891 41.8038C72.2891 41.8038 72.2891 41.8038 72.2891 41.8293C72.3401 42.4915 72.391 43.1537 72.493 43.8159C72.5695 44.4017 72.6714 44.9621 72.8244 45.5224C71.3459 46.0827 69.8164 46.5412 68.2869 46.9487C68.2869 46.6431 68.3124 46.3629 68.3124 46.0573C68.3379 44.8347 68.3379 43.6376 68.3379 42.4151ZM72.595 40.9633C72.493 40.7595 72.4675 40.5303 72.544 40.3265C72.6715 39.8936 73.1558 39.6389 73.5891 39.7917C73.8186 39.8681 74.0225 40.0464 74.099 40.2756C74.15 40.3775 74.15 40.4794 74.15 40.5812C74.15 40.6831 74.1245 40.785 74.099 40.8869C74.0735 40.9633 74.0225 41.0397 73.9715 41.0906C73.946 41.1416 73.9205 41.1671 73.8696 41.1925C73.7166 41.3199 73.5127 41.3963 73.3087 41.3963C73.0283 41.4218 72.7479 41.2435 72.595 40.9633ZM73.3342 42.1604L74.2774 44.9366C74.1754 44.9875 74.099 45.013 73.997 45.0639C73.7931 45.1404 73.5637 45.2168 73.3597 45.3186C73.2578 44.8092 73.1813 44.2744 73.1558 43.7395C73.1048 43.2046 73.1048 42.6698 73.0793 42.1604C73.1558 42.1604 73.2323 42.1604 73.3342 42.1604ZM74.0225 42.0076C74.048 42.0076 74.0735 41.9821 74.099 41.9821C74.3284 42.3896 74.5578 42.7971 74.8127 43.2046C75.0677 43.6122 75.3481 43.9942 75.654 44.3763C75.3226 44.5291 74.9912 44.6564 74.6343 44.8092L74.0225 42.0076ZM74.8892 40.2247C76.1383 40.1483 77.3874 39.9954 78.6365 39.7662C78.8149 39.9445 78.9933 40.0973 79.1718 40.2501C77.7698 40.5303 76.3422 40.7341 74.9147 40.8359C74.9402 40.6322 74.9402 40.4284 74.8892 40.2247ZM72.493 34.876C72.2636 34.6468 72.0597 34.4176 71.8557 34.1883C71.5498 33.8572 71.2694 33.5006 70.989 33.1441C70.6066 32.6856 70.2498 32.2271 69.9184 31.7432C71.04 31.8451 72.1361 31.8706 73.2578 31.7942C73.6911 31.7687 74.099 31.7178 74.5323 31.6668C73.8696 32.762 73.1813 33.8317 72.493 34.876ZM72.2636 7.34313C72.6205 7.1139 73.0283 6.98655 73.4617 6.96108H73.6146H73.7931C73.895 6.96108 73.997 6.98655 74.099 6.98655C74.3029 7.01202 74.4813 7.08843 74.6598 7.19031C74.8127 7.29219 74.9402 7.445 75.0167 7.59782C75.0422 7.64876 75.0677 7.6997 75.0677 7.77611C74.4304 7.67423 73.7931 7.62329 73.1558 7.64876C72.6969 7.64876 72.2636 7.67423 71.8047 7.72517C71.9322 7.59782 72.0851 7.445 72.2636 7.34313ZM66.4005 30.215C65.8652 30.0622 65.3299 29.833 64.8456 29.5783C64.5907 29.4509 64.3612 29.3236 64.1318 29.1708C64.0298 29.0944 63.9279 29.0179 63.8514 28.9415C63.8259 28.9161 63.7749 28.8651 63.7749 28.8651L63.7494 28.8397L63.7239 28.7887L63.6985 28.6868C63.3671 27.5662 62.9847 26.471 62.5003 25.4012C62.5258 26.0634 62.6023 26.7002 62.7043 27.3369C62.3474 27.3115 62.016 27.1587 61.7356 26.9549C61.3787 26.6493 61.0728 26.2927 60.8689 25.8597C60.4355 25.0192 60.1806 24.1277 60.1041 23.1854C60.2061 23.109 60.3081 23.0835 60.4355 23.058C60.5375 23.058 60.614 23.058 60.7159 23.058C60.7414 23.058 60.7669 23.058 60.7669 23.058C60.7924 23.058 60.8179 23.058 60.8434 23.0835C60.8944 23.0835 60.9199 23.1089 60.9709 23.1089C61.1748 23.1854 61.3532 23.2618 61.5317 23.3636C61.7356 23.491 61.965 23.6183 62.2199 23.7457C62.1945 23.1089 61.7866 22.5741 61.1748 22.3703C61.0983 22.3449 60.9964 22.3194 60.9199 22.3194C60.8944 22.3194 60.8434 22.3194 60.8179 22.3194C60.7669 22.3194 60.7159 22.3194 60.6905 22.3194C60.512 22.3449 60.3591 22.3958 60.2061 22.4977C60.1551 22.5231 60.1296 22.5486 60.0787 22.5996C60.0532 22.1666 60.0787 21.7591 60.1551 21.3261C60.1806 21.0204 60.41 20.7657 60.7159 20.6893C61.0473 20.6638 61.3787 20.7657 61.6591 20.9695C61.9905 21.2242 62.4749 22.0647 62.4749 22.0647C62.5004 22.1156 62.5513 22.1411 62.6023 22.192C62.6278 22.4977 62.6788 22.8033 62.7553 23.0835C62.9592 23.7966 63.2396 24.5098 63.622 25.1465C63.8004 25.4776 63.9789 25.7833 64.1828 26.0889C64.3867 26.3691 64.5397 26.6747 64.6926 26.9804C64.922 27.6171 64.8201 28.3303 64.4377 28.8906C64.4122 28.9161 64.4122 28.9415 64.4122 28.967C64.4122 28.967 64.4122 28.967 64.4122 28.9925C64.4122 29.0434 64.4632 29.0944 64.5397 29.0689H64.5652C64.8965 29.0179 65.2279 28.8651 65.4829 28.6614C65.7633 28.4321 65.9927 28.1265 66.0946 27.7954C66.2476 27.1332 66.2476 26.42 66.0437 25.7833C65.8907 25.1465 65.6868 24.5353 65.5338 23.9495C65.4574 23.6693 65.3809 23.3636 65.3299 23.0835C65.2789 22.8033 65.2789 22.5231 65.3044 22.243C65.3809 21.6572 65.5593 21.0968 65.8142 20.5874C65.8652 20.4601 65.9417 20.3582 65.9927 20.2309L66.0692 20.2563L66.4515 20.3327C66.7064 20.3837 66.9614 20.4601 67.2163 20.511C67.7261 20.6384 68.2359 20.7403 68.7203 20.8931C69.2046 21.0459 69.7144 21.1732 70.2243 21.3515C70.7086 21.5298 71.1929 21.6572 71.7028 21.8355C71.2949 21.5044 70.8616 21.2242 70.4282 20.9695C69.9694 20.6893 69.485 20.4346 69.0262 20.2054C68.5673 19.9762 68.0575 19.7469 67.5477 19.5432C67.2928 19.4413 67.0378 19.3649 66.7829 19.263L66.6555 19.2121C66.7064 19.1611 66.7319 19.0847 66.7829 19.0338C66.9614 18.7791 67.1398 18.5499 67.3182 18.1933C67.4712 17.8876 67.5987 17.582 67.7006 17.2509C67.8791 16.716 68.0065 16.1557 68.1085 15.5954C68.7713 15.4425 69.4595 15.3407 70.1223 15.2642C70.8871 15.1878 71.6518 15.1624 72.4165 15.1369C73.946 15.1369 75.4755 15.2897 76.9795 15.5699C77.056 15.5953 77.107 15.5699 77.1834 15.5444C77.9737 15.2642 78.7894 15.0095 79.6306 14.8058C80.3699 14.602 81.1346 14.5001 81.9249 14.4237C82.0523 14.602 82.1543 14.7803 82.2562 14.9586C82.3837 15.2133 82.5112 15.468 82.6131 15.7227C82.8171 16.2576 82.9955 16.7924 83.0975 17.3528C83.3269 18.4734 83.4289 19.6196 83.3779 20.7657C83.3524 20.9695 83.5053 21.1478 83.7093 21.1478C83.7857 21.1478 83.8877 21.1223 83.9387 21.0714C83.9642 21.0459 83.9897 21.0459 84.0152 21.0204C84.0407 20.995 84.0661 20.9695 84.0661 20.944C84.0661 20.944 84.0661 20.944 84.0661 20.9185V20.8931C84.1426 20.6893 84.2446 20.511 84.372 20.3582C84.4995 20.1799 84.6524 20.0016 84.8309 19.8488C85.1113 19.6196 85.4682 19.5177 85.8251 19.5432C86.1564 19.5941 86.3094 19.9252 86.3604 20.2309C86.3859 20.3837 86.4114 20.562 86.4369 20.7148C86.4623 20.8421 86.4623 20.9695 86.4623 21.0968C86.4623 21.1732 86.4623 21.2242 86.4623 21.3006C86.4623 21.3261 86.4368 21.4789 86.4623 21.4789C86.4114 21.4279 86.3859 21.4025 86.3349 21.3515C86.1819 21.2497 86.029 21.1987 85.8505 21.1732C85.7996 21.1732 85.7486 21.1732 85.7231 21.1732C85.6976 21.1732 85.6466 21.1732 85.6211 21.1732C85.5192 21.1732 85.4427 21.1987 85.3662 21.2242C84.7799 21.4279 84.3465 21.9628 84.3211 22.5996C84.6015 22.4722 84.8054 22.3194 85.0093 22.2175C85.1878 22.1156 85.3662 22.0137 85.5701 21.9628C85.6211 21.9628 85.6721 21.9373 85.6976 21.9373C85.7231 21.9373 85.7486 21.9373 85.7741 21.9119H85.8251C85.927 21.9119 86.0035 21.9119 86.1055 21.9119C86.2329 21.9373 86.3604 21.9628 86.4623 22.0392C86.3604 22.9561 86.1055 23.873 85.6721 24.6881C85.4682 25.0956 85.1623 25.4522 84.7799 25.7578C84.4485 26.0125 84.0152 26.1399 83.6073 26.1144C83.6073 25.5541 83.5563 24.9937 83.4289 24.4334C83.2504 24.9937 83.0975 25.5795 82.9955 26.1653C82.9445 26.4455 82.8935 26.7511 82.8426 27.0313L82.7661 27.4388C82.7661 27.5152 82.7406 27.5662 82.7151 27.6426V27.668C82.7151 27.668 82.6896 27.6935 82.6896 27.719C82.5367 27.8973 82.3582 28.0756 82.1543 28.2284C81.9249 28.3812 81.6954 28.534 81.466 28.6868C80.9817 28.967 80.4718 29.1962 79.9365 29.4255C77.7952 30.2405 75.552 30.7499 73.2578 30.9027C70.887 31.081 68.5928 30.8518 66.4005 30.215ZM65.2024 43.3829C64.922 43.5103 64.5907 43.4848 64.3357 43.3065C64.0808 43.0518 63.8769 42.7462 63.7494 42.3896C63.673 42.1858 63.5965 41.9821 63.5455 41.7783C63.8004 41.9312 64.0298 42.0585 64.2848 42.2113C64.7691 42.466 65.2534 42.6952 65.7633 42.9245C65.6358 43.1282 65.4319 43.281 65.2024 43.3829ZM67.4202 42.4151C67.4202 42.4915 67.4202 42.5679 67.4202 42.6443C66.4515 42.3896 65.5083 42.0585 64.6161 41.6C64.0808 41.3453 63.5455 41.0397 63.0357 40.7341C62.6023 40.4794 62.1435 40.1992 61.7356 39.8936L68.083 31.4631C68.3379 31.514 68.6183 31.5649 68.8732 31.6159C69.4085 32.2781 69.9694 32.8894 70.5302 33.5261C71.0655 34.1119 71.6518 34.6723 72.2891 35.1562C72.2126 35.2835 72.1361 35.3854 72.0597 35.5128C71.8047 35.8948 71.5498 36.2514 71.2694 36.6334C71.0145 36.99 70.7341 37.3721 70.4537 37.7286C69.9694 38.3654 69.4595 38.9767 68.9242 39.5625C68.6948 39.537 68.4908 39.537 68.2614 39.5115C68.2614 39.2823 68.2614 39.0531 68.2359 38.8238C68.2104 37.6013 68.083 36.4042 67.8536 35.2071C67.6241 36.4042 67.4967 37.6013 67.4712 38.8238C67.4457 40.0209 67.4202 41.218 67.4202 42.4151ZM67.4457 48.1967C66.7574 48.1458 66.0692 48.0948 65.3809 48.0184C66.0692 47.9166 66.7319 47.7892 67.4202 47.6364C67.7261 47.5855 68.0065 47.509 68.3124 47.4581C68.6438 47.3817 68.9752 47.3053 69.2811 47.2289C70.9635 46.7959 72.595 46.312 74.2264 45.7007C75.8579 45.1149 77.4384 44.4272 78.9678 43.6376C79.0188 43.6122 79.0953 43.5612 79.1463 43.5357C79.2228 43.4848 79.3247 43.4339 79.4012 43.4084C80.7523 42.6952 82.0523 41.9057 83.2759 40.9888L83.4289 41.0652C83.5563 41.1416 83.6838 41.218 83.8112 41.2689C83.0975 41.9566 82.3327 42.6188 81.517 43.2046C81.0836 43.5357 80.6248 43.8414 80.1659 44.147C80.064 44.2234 79.962 44.2744 79.8855 44.3508C79.4522 44.631 79.0188 44.9111 78.5855 45.1658C76.5716 46.3629 74.5068 47.4581 72.3401 48.426C70.989 48.4005 69.6635 48.3495 68.3124 48.2731C68.0065 48.2222 67.7261 48.1967 67.4457 48.1967ZM71.9577 50.2343C71.9067 50.3362 71.8047 50.4381 71.6773 50.489C71.5498 50.5654 71.3969 50.5909 71.2439 50.5909C71.0655 50.5909 66.528 50.6418 66.5025 50.6418C66.579 50.5145 66.681 50.4126 66.7829 50.3362C66.9104 50.2343 67.0888 50.1579 67.2418 50.107C67.4202 50.0306 67.6241 50.0051 67.8281 49.9796H72.0087C72.0342 50.107 72.0087 50.1834 71.9577 50.2343ZM85.7231 49.241C85.1623 49.2919 84.6015 49.2919 84.0406 49.2665C83.1994 48.9863 82.3582 48.7571 81.466 48.6297C80.5738 48.4769 79.6561 48.426 78.7639 48.426C77.8717 48.426 76.954 48.5024 76.0618 48.6552C75.603 48.7316 75.1696 48.808 74.7363 48.9099C74.3284 49.0118 73.895 49.1136 73.4872 49.2665H68.2359C68.2359 49.0882 68.2614 48.8844 68.2614 48.7061C69.6125 48.8335 70.989 48.9354 72.3656 49.0118C72.4165 49.0118 72.442 49.0118 72.493 48.9863C73.5891 48.5024 74.6598 47.9675 75.7304 47.4326C76.5207 47.0251 77.3109 46.5921 78.0756 46.1591L78.2286 46.0573C78.4325 45.9299 78.6365 45.828 78.8659 45.7007C79.3502 45.4205 79.8091 45.1149 80.2934 44.8347C80.4718 45.013 80.6503 45.1913 80.8287 45.3696C81.9249 46.4393 83.123 47.3817 84.423 48.1713C83.3014 47.1525 82.1798 46.1337 81.0836 45.0894C80.9307 44.9366 80.7522 44.7838 80.5993 44.6055C81.0327 44.3253 81.466 44.0451 81.8739 43.7395C82.5112 43.2811 83.1485 42.7971 83.7348 42.2877L90.3116 47.8656C89.3939 48.3241 88.3997 48.7061 87.4055 48.9863C86.8702 49.1136 86.3094 49.19 85.7231 49.241ZM91.4077 50.6673H90.7194C89.8017 50.6673 88.9095 50.6673 87.9918 50.6418H87.3036C87.0996 50.6418 86.9212 50.6164 86.7173 50.5654C86.5643 50.5145 86.4368 50.4381 86.3604 50.3107C86.3094 50.2598 86.2839 50.1834 86.2584 50.107C86.2329 50.0306 86.2329 49.9796 86.2329 49.9032C86.6663 49.8268 87.1251 49.7504 87.5585 49.6485C87.8134 49.5721 88.0683 49.4957 88.3232 49.4193C88.7566 49.6485 89.2154 49.8013 89.6998 49.8777C89.9547 49.9032 90.2096 49.8777 90.388 49.9032C90.592 49.9032 90.7704 49.9541 90.9743 50.0306C91.1528 50.107 91.3057 50.2088 91.4587 50.3362C91.5606 50.4381 91.6371 50.5654 91.6881 50.7182L91.4077 50.6673Z" fill="#010101"/>
<path d="M72.6722 26.0128C72.9526 26.2165 73.3094 26.3184 73.6663 26.3184C74.0232 26.3184 74.3546 26.1911 74.635 25.9873C74.9154 25.809 75.1193 25.5289 75.1958 25.1978C74.7115 25.4015 74.1762 25.5289 73.6408 25.5543C73.1055 25.5543 72.5957 25.427 72.1368 25.1978C72.1878 25.5289 72.3918 25.8345 72.6722 26.0128Z" fill="#010101"/>
<path d="M71.6267 27.7699C71.9071 27.8208 72.1875 27.8972 72.4425 27.9736C72.7229 28.05 73.3602 28.2283 73.3857 28.2283C73.3857 28.2283 75.0936 27.617 75.374 27.5152C75.425 27.4897 75.476 27.4897 75.5524 27.4642C75.6034 27.4642 75.6544 27.4642 75.7054 27.4897C75.8583 27.5406 76.0113 27.5916 76.1642 27.6425L77.1074 28.05C76.878 27.7699 76.6486 27.5152 76.3682 27.2859C76.2152 27.1586 76.0623 27.0567 75.8838 26.9803C75.7818 26.9294 75.6544 26.9039 75.5524 26.8784C75.4505 26.8784 75.323 26.8784 75.221 26.9039C74.8642 26.9803 74.5328 27.1076 74.2014 27.2605C73.921 27.4133 73.6406 27.5661 73.4111 27.7699C73.1817 27.617 72.9268 27.4897 72.6719 27.3878C72.366 27.2605 72.0346 27.1841 71.7032 27.1586C71.5248 27.1586 71.3208 27.1841 71.1424 27.235C70.9895 27.3114 70.8365 27.3878 70.6836 27.4897C70.4286 27.6935 70.1992 27.9227 70.0463 28.2028C70.3522 28.0755 70.6326 27.9481 70.8875 27.8463C71.1169 27.7699 71.3718 27.7444 71.6267 27.7699Z" fill="#010101"/>
<path d="M69.128 21.988C68.7201 21.9371 68.3123 21.9116 67.8789 21.9116C67.471 21.9116 67.0377 21.9371 66.6298 21.988C66.1965 22.039 65.7886 22.1408 65.3807 22.2937C65.7886 22.4465 66.1965 22.5484 66.6298 22.5993C67.0377 22.6502 67.4455 22.6757 67.8789 22.6757C68.2868 22.6757 68.7201 22.6502 69.128 22.5993C69.5613 22.5484 69.9692 22.4465 70.3771 22.2937C69.9692 22.1408 69.5358 22.039 69.128 21.988Z" fill="#010101"/>
<path d="M79.3258 21.9116C78.8669 21.9116 78.3826 21.9371 77.9238 21.988C77.4394 22.039 76.9806 22.1408 76.5217 22.2937C76.9806 22.4465 77.4394 22.5484 77.9238 22.5993C78.3826 22.6502 78.8415 22.6757 79.3258 22.6757C79.7846 22.6757 80.269 22.6502 80.7278 22.5993C81.2122 22.5484 81.671 22.4465 82.1299 22.2937C81.671 22.1408 81.2122 22.039 80.7278 21.988C80.269 21.9371 79.8101 21.9116 79.3258 21.9116Z" fill="#010101"/>
<path d="M77.8218 18.8549C78.765 18.0908 79.8356 17.505 81.0082 17.1229C81.0592 17.0974 81.1102 17.0974 81.1612 17.072C81.1612 17.072 80.9572 16.3333 79.8356 16.5626C80.167 16.2824 80.3454 15.8749 80.3454 15.4419H80.32C79.6827 15.7475 79.0709 16.1551 78.5101 16.6135C77.9747 17.072 77.4904 17.5559 77.057 18.0908C76.6237 18.6256 76.2413 19.1605 75.8844 19.7463C75.5275 20.3066 75.2471 20.9179 75.0432 21.5547C75.9099 20.5868 76.8276 19.6699 77.8218 18.8549Z" fill="#010101"/>
<path d="M71.9334 21.8354C72.0863 21.6826 72.2138 21.4788 72.2903 21.2496C72.3667 21.0204 72.3922 20.7911 72.3667 20.5619C72.3413 20.3327 72.2903 20.1034 72.2138 19.8997C72.1373 19.6959 71.9844 19.4922 71.8314 19.3394C71.9079 19.7978 71.9844 20.1799 72.0099 20.5874C72.0099 21.0204 71.9844 21.4279 71.9334 21.8354Z" fill="#010101"/>
<path d="M74.0733 21.2498C74.2263 21.4027 74.4047 21.53 74.6341 21.581C74.4047 21.2753 74.2263 20.9187 74.0988 20.5622C73.9968 20.1801 73.8949 19.7981 73.8694 19.416C73.7674 19.5943 73.6909 19.8235 73.6654 20.0273C73.64 20.2565 73.6654 20.4603 73.7419 20.6895C73.8184 20.8933 73.9204 21.097 74.0733 21.2498Z" fill="#010101"/>
<path d="M86.7172 41.702C86.7172 41.702 86.7427 41.702 86.7427 41.7275L86.7682 41.7529C86.8192 41.8039 86.8447 41.8548 86.8447 41.9058C86.8447 42.0331 86.7427 42.1605 86.5898 42.1605H86.6153C86.5643 42.1605 86.5388 42.1605 86.4878 42.135C86.4623 42.135 86.3858 42.0841 86.3349 42.0586L85.9525 41.8548L85.1877 41.4473C85.0603 41.3709 84.9328 41.32 84.8054 41.2435C84.6014 41.1417 84.372 41.0143 84.1681 40.887C83.9896 40.7851 83.8367 40.7087 83.6582 40.6068L83.5563 40.5559L82.9955 40.2248L82.1543 39.7408C82.0268 39.6644 81.8738 39.588 81.8738 39.5371C81.8229 39.4861 81.7974 39.4097 81.8229 39.3333C81.8229 39.1805 81.9503 39.0786 82.1033 39.0786C82.1797 39.0786 82.2052 39.1041 82.3582 39.1805L82.7406 39.4097L82.8935 39.4861L83.1229 39.6135L83.5053 39.8172C83.5053 39.8172 83.5308 39.8172 83.5308 39.8427C84.0151 40.1229 84.525 40.403 85.0093 40.6832C85.5191 40.9634 86.029 41.2435 86.5388 41.4982L86.7427 41.6001L86.7172 41.702C86.6917 41.6765 86.7172 41.702 86.7172 41.702Z" fill="#C4C4C4"/>
<path d="M88.1961 34.4175L88.7824 34.7995L87.4314 36.9135C87.2274 36.7862 87.0235 36.6588 86.7941 36.5569L88.1961 34.4175Z" fill="#C4C4C4"/>
<path d="M5.09697 40.262H6.62297L9.04497 51.6021H7.54697L7.02897 48.7461H4.71897L4.17297 51.6021H2.68897L5.09697 40.262ZM6.81897 47.6121L5.86697 42.5021L4.92897 47.6121H6.81897ZM10.8956 40.262H13.3596C14.5823 40.262 15.4456 40.542 15.9496 41.102C16.4629 41.662 16.7196 42.5347 16.7196 43.7201V47.8921C16.7196 49.1427 16.4676 50.0761 15.9636 50.6921C15.4689 51.2987 14.6429 51.6021 13.4856 51.6021H10.8956V40.262ZM13.3736 50.4681C13.9243 50.4681 14.3209 50.3607 14.5636 50.1461C14.8156 49.9314 14.9696 49.6421 15.0256 49.2781C15.0909 48.9047 15.1236 48.3447 15.1236 47.5981V43.9161C15.1236 43.2721 15.0816 42.7821 14.9976 42.4461C14.9229 42.1007 14.7596 41.8487 14.5076 41.6901C14.2556 41.5221 13.8636 41.4381 13.3316 41.4381H12.4776V50.4681H13.3736ZM19.1604 40.262H20.7144L22.7164 49.4601L24.7324 40.262H26.2724L26.4824 51.6021H25.2084L25.0824 43.3701L23.1644 51.6021H22.2684L20.3644 43.3701L20.2384 51.6021H18.9504L19.1604 40.262ZM29.0046 40.262H30.5586V51.6021H29.0046V40.262ZM33.0933 40.262H34.1713L37.3913 47.7941V40.262H38.7073V51.6021H37.6993L34.4373 43.8601V51.6021H33.0933V40.262Z" fill="#424B5A"/>
</svg>
