<svg width="93" height="56" viewBox="0 0 93 56" fill="none" xmlns="http://www.w3.org/2000/svg">
<path d="M69.7409 26.3435C69.588 26.267 69.435 26.1906 69.2566 26.1652C68.1859 25.9359 67.1663 26.0888 66.1211 26.1906C65.3819 26.267 64.0818 26.2925 64.1583 25.2483C64.3367 23.0833 67.1408 23.0579 68.5428 22.1409C68.7212 22.0391 68.8487 21.8353 68.8742 21.6315C68.8742 21.5042 68.8487 21.3768 68.7977 21.2495C67.4212 17.6837 63.9798 15.3914 60.5385 14.0925C57.9129 13.0991 55.5421 12.7171 52.7636 13.3284C52.1263 13.4812 51.489 13.6595 50.8517 13.8887C50.3419 14.067 49.7811 14.2962 49.2203 14.5255C48.2516 15.0094 46.4927 15.8244 45.9319 14.449C44.9122 11.9275 43.4337 9.27867 41.5218 7.26655C40.3237 6.01853 38.5648 5.43273 36.8824 5.76383C34.945 6.17135 33.9509 7.69954 32.7528 9.12585C32.141 9.83901 30.1271 12.0294 29.3369 10.272C29.031 9.60978 29.2349 8.87115 29.082 8.18347C28.6486 6.19682 26.6858 5.63649 24.9014 5.66195C23.3209 5.68742 21.7404 5.96759 20.2364 6.50246C18.7324 7.03733 17.3559 7.9033 15.7754 8.28535C13.5832 8.82021 11.3909 6.65528 9.02019 7.57219C8.48487 7.75048 8.00053 8.00518 7.54168 8.36176C6.67497 8.9985 6.06318 9.94089 5.83375 11.0106C5.80826 11.087 5.80826 11.138 5.78277 11.2144C5.29843 14.4745 4.30426 17.4545 3.36108 20.358C2.26494 23.6437 1.14332 27.0566 0.811929 30.7752C0.786438 31.1063 0.760946 31.4374 0.786438 31.7685C0.786438 31.7685 0.786438 31.794 0.786438 31.8195C0.913895 34.5702 2.80026 36.888 5.47687 37.5502C6.21612 38.2633 7.28677 39.002 8.73978 39.002C8.79076 39.002 8.86724 39.002 8.91822 39.002C9.96337 38.9256 10.9575 38.4926 11.7223 37.7539C12.5635 36.7861 13.3792 35.7928 14.1695 34.7994C15.6735 36.6587 18.3501 37.6266 20.6188 37.2955C20.7718 37.2955 20.9247 37.2955 21.0777 37.2955C23.4484 37.4992 25.6151 36.1493 27.8074 36.1493C30.0507 36.3531 32.3194 36.404 34.4607 36.0729C35.1745 35.9711 35.8627 35.8182 36.551 35.6145C36.8314 36.2258 37.3667 36.6842 38.004 36.888C38.6923 37.0663 39.406 37.1172 40.1198 37.0153C41.7258 36.7097 43.6376 35.8946 44.7338 36.4295C46.3397 37.2191 48.1496 37.3464 50.036 37.1936C50.6478 37.1427 51.2851 37.0408 51.9224 36.9389C56.5108 36.1748 61.4307 35.3598 64.974 32.0742C64.974 33.9335 60.7169 34.6212 61.9915 36.7097C62.1189 36.9389 65.9172 35.2834 66.2996 35.1051C67.4722 34.5957 69.0781 34.0353 69.7409 32.8637C69.8174 32.7364 69.8684 32.5836 69.8939 32.4053C69.9448 31.7176 69.0271 31.3101 68.7213 30.7497C68.3389 30.113 68.3899 29.298 68.8742 28.7376C69.1801 28.381 69.5115 28.0754 69.8939 27.8207C70.4037 27.4641 70.4547 26.7764 69.7409 26.3435Z" fill="#3D3D3D"/>
<path d="M25.6915 12.2331C26.0484 11.9275 26.2013 11.6728 26.1758 11.2907C26.0993 9.68615 23.8561 8.48906 22.4286 8.56547C21.7913 8.59094 21.1285 8.82017 20.8481 9.43145C18.0695 13.5066 11.9771 24.5351 9.09652 28.4574C8.96906 28.5848 8.81612 28.6357 8.63768 28.6612C8.51022 28.6612 8.43374 28.6102 8.43374 28.4574C8.43374 28.381 8.43374 28.3301 8.45924 28.2537C9.27496 25.8595 11.9006 17.0215 14.2968 13.583C14.5262 13.3538 14.6537 13.0482 14.6537 12.7425C14.5772 11.3926 12.1555 10.5267 10.9319 10.5776C10.2181 10.6031 9.19849 10.9087 9.02005 11.7747C7.89842 19.11 4.63551 24.7388 4.04921 31.1827C4.02372 31.361 4.02372 31.5393 4.04921 31.7176C4.15117 33.5514 5.5787 34.5192 7.13368 34.5702C7.77096 35.3597 8.2553 35.8182 8.73964 35.7927C9.173 35.7673 9.60635 35.3852 10.1672 34.4683C12.7928 30.0875 17.8146 19.543 25.6915 12.2331Z" fill="white"/>
<path d="M60.971 20.18C60.8691 20.18 60.8181 20.2564 60.7161 20.3838C60.1553 21.1988 57.1218 25.1721 56.2296 26.2418C54.9805 27.7446 53.2981 29.5784 52.9667 29.8586C52.7628 30.1133 52.5079 30.2661 52.202 30.3425C51.998 30.3425 51.8196 30.1897 51.8196 29.8331C51.7176 27.7446 54.9296 23.7458 55.9747 22.294C56.2041 21.9884 56.3316 21.6318 56.3571 21.2752C56.3061 20.0781 53.8844 20.0272 52.9157 19.4159C52.9922 19.4159 53.4511 18.2443 53.4001 17.3274C53.3746 16.6907 53.0687 16.1303 52.2275 16.1813C49.3979 16.3341 47.1547 18.3207 47.2311 19.9508C47.2821 20.8422 47.9449 21.6318 49.5254 22.0139C49.4744 22.0903 49.3979 22.1667 49.3214 22.2686C48.8371 22.8544 48.2508 23.5166 47.7919 24.0769C46.7978 25.2995 45.7016 25.8089 44.7839 25.8598H44.7075C45.9566 23.6185 46.7978 21.6063 46.7723 21.0205C46.7213 19.9763 45.4722 18.7028 43.7898 18.7792C42.8976 18.3207 42.3623 17.3529 41.5975 17.4038C39.6602 17.4802 36.4737 22.4978 35.2501 26.9295C35.1737 27.0314 35.0717 27.1333 35.0207 27.2097C34.0775 28.5087 32.9559 29.7057 31.7323 30.75C31.6558 30.8009 31.5794 30.8519 31.5029 30.8519C31.299 30.8519 31.197 30.6481 31.1715 30.368C31.0695 28.5596 36.3972 17.9896 39.7876 13.7871C40.6798 12.6664 41.0112 11.775 40.9857 11.0873C40.9092 9.32988 38.615 8.74408 37.4934 8.79502C36.5502 8.84595 36.2698 8.9733 36.2953 9.17706C36.2953 9.40629 36.6522 9.7374 36.6777 10.1194C36.6777 10.2468 36.6522 10.3996 36.5757 10.5015C34.0775 15.0097 29.0812 24.7646 28.291 28.9416C28.2655 28.9416 28.24 28.9162 28.24 28.9162C27.9341 29.2728 26.6595 30.5463 25.9712 30.5717C25.5634 30.5972 25.232 30.2915 25.2065 29.884C25.1555 28.687 27.3478 25.0448 28.036 24.1024C28.1635 23.9496 28.24 23.7458 28.2655 23.5675C28.24 22.9053 27.0164 22.294 25.5889 22.3704C25.232 22.3704 24.8496 22.4468 24.5182 22.5487C24.0594 25.5032 20.8474 31.8707 18.8846 31.9726C18.6552 31.9726 18.5532 31.7433 18.5277 31.3358C18.4258 29.0945 21.0004 22.0903 25.8183 21.861C26.3536 21.8356 26.8889 21.912 27.4242 22.0393C27.5517 22.0648 27.6792 22.0903 27.7811 22.0903C28.3419 22.0648 28.8263 21.0715 28.7753 20.0272C28.7243 18.8811 28.036 17.7349 26.1242 17.8113C20.3631 18.066 15.9276 27.1842 16.157 31.9216C16.2335 33.3989 17.6355 34.2139 19.0885 34.163C19.9807 34.112 21.4592 33.0678 22.7848 31.4632C22.9377 32.6857 23.626 33.2461 24.6202 33.2206C25.6908 33.1696 27.0929 32.3291 28.3164 30.6736C28.6478 32.0744 29.8459 33.8064 31.095 33.7554C31.4519 33.73 31.7833 33.5772 32.0382 33.3225C32.8539 32.6093 33.8991 31.2849 34.8168 30.0878C34.8168 30.2661 34.8168 30.4444 34.8168 30.5972C34.9187 32.482 35.8109 33.7554 37.9012 33.6536C39.5582 33.5772 41.8014 30.8264 43.6368 27.8974C43.8663 27.9483 44.1212 27.9483 44.3761 27.9229C45.9056 27.8464 47.6645 26.955 48.9391 25.0702C49.5764 24.1279 50.2136 23.1345 50.7235 22.294C51.0039 22.345 51.3098 22.345 51.6157 22.3704C50.4431 24.8665 48.7096 29.1963 48.8371 31.6924C48.8881 32.864 49.3724 33.6026 50.494 33.5517C52.5843 33.4498 55.8218 29.5529 57.1983 27.5153C58.9572 24.9938 60.7671 22.2686 61.5828 20.8677C61.5064 20.7404 61.2769 20.1546 60.971 20.18ZM41.1896 25.274C41.2151 25.6815 41.3171 26.089 41.521 26.4711C40.3994 28.9162 38.3601 31.7943 37.4679 31.8452C37.264 31.8452 37.1365 31.7433 37.111 31.4632C36.9326 27.8464 40.1955 23.0581 41.5975 22.9817H41.6995C41.3426 23.6694 41.1642 24.4844 41.1896 25.274Z" fill="white"/>
<path d="M75.7558 6.19678H70.4536V9.20222H75.7558V6.19678Z" fill="#C4C4C4"/>
<path d="M83.9149 42.1096L81.3658 41.9059L79.6834 40.4541L71.9085 41.4474L68.1102 41.4729L68.0338 49.4704H73.5654C73.9478 49.3431 77.4401 48.5535 78.9951 48.6299C80.5501 48.7063 83.1757 49.1903 83.9404 49.4704C83.9404 49.4704 86.5916 49.394 87.5602 49.1903C88.5289 48.9865 90.6702 47.8913 90.6702 47.8913L83.9149 42.1096Z" fill="#4B4B4B"/>
<path d="M67.8534 49.7251C67.1396 49.7251 66.4768 50.1581 66.2219 50.8458C66.2219 50.8458 71.3202 50.8712 71.4477 50.8712C71.7281 50.8203 71.983 50.6675 72.1614 50.4637C72.2634 50.2345 72.3654 49.9798 72.4164 49.7251H67.8534Z" fill="#E3E3E3"/>
<path d="M91.612 50.133C91.459 49.9802 91.2551 49.8528 91.0511 49.7764C90.8472 49.7 90.6433 49.649 90.4139 49.649C90.3629 49.649 90.3119 49.649 90.2354 49.649H90.0315C89.9295 49.649 89.8021 49.649 89.7001 49.6236C89.2412 49.5726 88.8079 49.4198 88.4 49.1906L88.3236 49.1396L86.0293 49.7C86.0038 49.9802 86.0548 50.2603 86.1568 50.515C86.3097 50.8207 87.0235 50.9225 87.2784 50.9225L91.8414 50.8716V50.6678C91.8669 50.4641 91.7649 50.2858 91.612 50.133Z" fill="#E3E3E3"/>
<path d="M83.5575 39.3331L85.036 36.4805C85.036 36.4805 86.3871 36.7352 87.0243 37.0917C87.2283 37.1936 88.044 37.7285 88.1205 37.9832C88.1969 38.2379 87.8146 39.1293 87.7891 39.2567C88.1205 39.5114 88.2479 39.9444 88.095 40.3264C87.8656 40.7849 86.9224 40.632 86.54 40.5811C86.1576 40.5302 83.5575 39.3331 83.5575 39.3331Z" fill="#E3E3E3"/>
<path d="M71.4491 31.1318C69.7157 31.1318 68.0077 30.9025 66.3508 30.3931C65.79 30.2149 65.2547 30.0111 64.7448 29.7564C64.4899 29.6291 64.235 29.4762 64.0056 29.3234C63.9036 29.247 63.8017 29.1451 63.6997 29.0687C63.6997 29.0687 63.6997 29.0687 63.6742 29.0432H63.6232L63.5722 28.8904L63.7252 28.814L63.5722 28.8904L63.5212 28.7376L63.4193 28.381C63.2408 27.8207 63.0624 27.2604 62.8585 26.7C62.884 26.8783 62.9095 27.0821 62.9349 27.2858L62.9859 27.5405L62.731 27.5151C62.3232 27.4896 61.9663 27.3368 61.6349 27.0821C61.2525 26.7764 60.9211 26.3689 60.6917 25.9359C60.2838 25.1464 59.9015 23.0578 59.876 22.6248C59.8505 22.2683 59.876 21.9372 59.9269 21.5806C59.9524 21.3514 60.0289 21.1221 60.1054 20.8929C60.1564 20.7146 60.3093 20.5618 60.5133 20.4854C60.6152 20.4599 60.7172 20.4599 60.8192 20.4599C61.1505 20.4599 61.5074 20.5873 61.7623 20.791C62.1192 21.0967 62.3996 21.4787 62.6036 21.9117C62.731 22.1664 62.8075 22.4466 62.8585 22.7267C63.0114 22.4466 63.2663 21.9626 63.5212 21.5042C64.5154 19.5685 66.1724 16.3083 67.9568 15.3659L67.9823 15.3405H68.0077C68.6705 15.1877 69.3588 15.0858 70.0471 15.0094C70.8118 14.933 71.5766 14.882 72.3668 14.882H72.3923C73.9218 14.882 75.4768 15.0348 76.9808 15.315H77.0062C77.0317 15.315 77.0572 15.315 77.0572 15.315H77.0827C77.8984 15.0348 78.7142 14.7801 79.5299 14.5764C80.2946 14.3726 81.0594 14.2453 81.8496 14.1943H81.9516L82.0281 14.2707C82.1555 14.449 82.2575 14.6273 82.3849 14.8311C82.5124 15.0858 82.6399 15.3405 82.7418 15.6206C82.9458 16.1555 83.1242 16.7158 83.2517 17.2762C83.4811 18.4223 83.583 19.5685 83.5576 20.7401C83.5321 20.842 83.6085 20.9184 83.7105 20.9438C83.787 20.9438 83.8635 20.9184 83.8889 20.842V20.8165C83.9654 20.6127 84.0929 20.4344 84.2203 20.2307V20.2052C84.3478 20.0015 84.5262 19.8232 84.7047 19.6703C85.0616 19.3647 85.5459 19.2628 86.0047 19.3647C86.1577 19.3902 86.3106 19.543 86.4126 19.7722C86.5146 20.0015 86.5655 20.2307 86.591 20.4599C86.642 20.791 86.6675 21.1476 86.642 21.5042L86.591 22.0645C86.4891 23.0069 86.2087 23.9493 85.7753 24.7898C85.5459 25.2228 85.2145 25.6048 84.8321 25.9105C84.4752 26.1652 84.0674 26.318 83.634 26.318C83.5831 26.318 83.5576 26.318 83.5066 26.318H83.3281V26.1397C83.3281 25.9105 83.3026 25.6812 83.3026 25.452C83.2517 25.7322 83.1752 25.9869 83.1497 26.2161C83.1242 26.3689 83.0987 26.5217 83.0732 26.6746C83.0477 26.8019 83.0222 26.9292 82.9967 27.0821L82.9203 27.5151C82.9203 27.566 82.8948 27.6424 82.8948 27.6933V27.7188H82.8438L82.8948 27.7443V27.7698L82.8693 27.7952C82.8693 27.8207 82.8438 27.8207 82.8438 27.8462C82.6654 28.0499 82.4869 28.2282 82.2575 28.381C82.0281 28.5593 81.7986 28.7121 81.5437 28.8395C81.0339 29.1197 80.5241 29.3744 79.9887 29.5781C77.822 30.4186 75.5532 30.928 73.259 31.0808C72.5962 31.1063 72.0099 31.1318 71.4491 31.1318Z" fill="#E3E3E3"/>
<path d="M77.4396 38.2893C77.4141 38.2893 77.4396 38.2893 77.4396 38.2893C77.7455 38.6204 78.6887 39.5373 78.6887 39.5373L74.5591 39.9193C74.1767 39.2571 73.3355 39.0024 72.6727 39.3845C72.4433 39.5118 72.2649 39.6901 72.1374 39.9193L68.9255 39.7665C68.9255 39.7665 71.9335 36.6847 72.5453 35.8442C73.1571 35.0037 75.3748 31.1577 75.3748 31.1577C75.3748 31.1577 78.8417 32.8897 80.4221 33.6028C82.1556 34.3669 85.3675 35.5385 85.3675 35.5385L83.2517 39.2062C83.2517 39.2062 81.8497 38.3147 81.4673 39.0788C81.0849 39.8429 82.9203 40.5306 82.9203 40.5306L81.4418 41.5239C81.4673 41.5239 77.8985 38.6204 77.4396 38.2893Z" fill="white"/>
<path d="M69.0013 31.4376L68.0072 31.2593L61.4559 39.9445C61.4559 39.9445 63.8776 41.7274 64.4129 41.9821C65.3306 42.4405 67.6758 43.1282 67.6758 43.1282C67.6758 43.1282 67.8032 37.2702 67.9052 36.4297C68.0072 37.2702 68.1091 39.6643 68.1091 39.6643L69.0523 39.7407C69.0523 39.7407 70.5818 38.238 71.0662 37.5758C71.3466 37.2447 72.5956 35.0798 72.5956 35.0798L69.0013 31.4376Z" fill="white"/>
<path d="M70.6074 40.3265C69.8427 40.301 69.078 40.2755 68.2877 40.2246C68.2877 40.4538 68.2877 40.6831 68.3132 40.9123C69.1544 40.9632 70.0211 40.9632 70.8879 40.9632C71.1938 40.9632 71.4996 40.9632 71.8055 40.9378C71.78 40.8104 71.7546 40.6831 71.7546 40.5557C71.7546 40.4793 71.7546 40.4029 71.7801 40.301C71.3977 40.352 71.0153 40.352 70.6074 40.3265Z" fill="#FCBD19"/>
<path d="M69.4617 31.514L74.8914 31.4121C74.2796 32.7875 73.4894 34.061 72.5207 35.2071C71.3226 34.1374 70.2775 32.8894 69.4617 31.514Z" fill="#E3E3E3"/>
<path d="M86.4892 36.6337L88.1207 34.1377L89.0638 34.749L87.4834 37.1941L86.4892 36.6337Z" fill="#FCBD19"/>
<path d="M79.1473 40.2505C78.9688 40.0977 78.7904 39.9194 78.6119 39.7666C77.3629 39.9958 76.1138 40.1486 74.8647 40.2251C74.8902 40.3524 74.9157 40.4543 74.9157 40.5816C74.9157 40.658 74.9157 40.7599 74.8902 40.8363C76.3432 40.7345 77.7452 40.5562 79.1473 40.2505Z" fill="#FCBD19"/>
<path d="M77.975 41.8037C77.975 41.8037 80.5752 46.3119 84.4244 48.1712C84.4499 48.1712 78.4594 42.0075 77.975 41.8037Z" fill="#010101"/>
<path d="M79.9888 47.7385C78.4084 46.9744 77.0318 45.7773 75.9612 44.6057L76.6749 44.3765C78.3319 46.032 79.9888 47.7385 79.9888 47.7385Z" fill="#010101"/>
<path d="M73.3606 41.6766C73.9979 41.6766 74.5077 41.1672 74.5077 40.5304C74.5077 39.8937 73.9979 39.3843 73.3606 39.3843C72.7233 39.3843 72.2135 39.8937 72.2135 40.5304C72.2135 41.1672 72.7233 41.6766 73.3606 41.6766Z" fill="#C4C4C4"/>
<path d="M72.0091 40.1483L68.0834 40.0464L68.1089 41.1416L72.06 41.1925L72.0091 40.1483Z" fill="#C4C4C4"/>
<path d="M78.6887 39.562L74.6356 40.0459L74.6611 41.0647C76.318 41.0902 78.0004 40.861 79.5809 40.377L78.6887 39.562Z" fill="#C4C4C4"/>
<path d="M74.1256 41.7275L72.8256 41.9313L73.157 45.599L75.9355 44.4528L74.1256 41.7275Z" fill="#C4C4C4"/>
<path d="M64.1322 43.6125C63.1891 42.8739 63.2145 41.3457 63.2145 41.3457L66.0696 42.823C66.0696 42.823 65.0754 44.3511 64.1322 43.6125Z" fill="#E3E3E3"/>
<path d="M67.4217 48.3754C66.6824 48.3245 64.5411 47.9934 64.5411 47.9934C64.4137 48.0443 72.2906 46.3378 74.2024 45.319C76.4712 44.5295 82.3597 41.3203 83.2774 40.709L84.1696 41.1929C83.4303 42.2117 80.2184 44.6313 78.8419 45.4209C77.3124 46.3633 72.4435 48.8084 72.4435 48.8084C72.4435 48.8084 67.7021 48.4009 67.4217 48.3754Z" fill="white"/>
<path d="M86.3359 42.3388C85.877 42.237 81.7984 39.8937 81.7984 39.8937C81.5435 39.7409 81.4415 39.4098 81.5435 39.1296C81.7219 38.7731 82.2572 38.7985 82.3847 38.875C82.3847 38.875 86.7692 41.1927 86.9732 41.4729C87.1771 41.753 87.2536 41.9568 87.1261 42.186C86.9986 42.4153 86.7947 42.4662 86.3359 42.3388Z" fill="#FCBD19"/>
<path d="M62.8077 38.1362L61.9155 39.3588C61.9155 39.3588 64.9744 41.5237 67.6256 42.2878V40.6068C67.651 40.5813 64.5411 39.4607 62.8077 38.1362Z" fill="#4B4B4B"/>
<path d="M68.2623 31.3864L67.8799 31.3354L67.2936 32.125C68.3387 34.1881 71.4487 36.8879 71.4487 36.8879L72.3919 35.6398C70.2251 34.4173 68.2623 31.3864 68.2623 31.3864Z" fill="#4B4B4B"/>
<path d="M76.1387 31.4888C76.1387 31.4888 73.1052 37.9581 69.6129 39.9702L71.7541 40.0212C71.7541 40.0212 75.272 37.627 77.7956 32.6349L76.1387 31.4888Z" fill="#4B4B4B"/>
<path d="M82.6135 38.9514C82.6135 38.9514 84.3724 36.1498 84.6273 35.2328C84.6528 35.1564 82.537 34.4688 82.537 34.4688C81.8742 36.9648 79.7075 40.1231 79.7075 40.1231L81.2115 41.2692C81.5429 40.8871 81.8487 40.4542 82.1291 40.0466C82.1291 40.0466 81.3389 39.6137 81.6703 39.0788C82.0017 38.5439 82.6135 38.9514 82.6135 38.9514Z" fill="#4B4B4B"/>
<path d="M60.8948 22.6762C59.0594 22.4215 60.0536 24.6883 60.0536 24.6883L60.8438 26.2165C60.8438 26.2165 60.2575 25.0194 61.2262 24.8411C62.1949 24.6629 62.5518 25.7326 62.5518 25.7326C62.5518 25.7326 62.7047 22.9564 60.8948 22.6762Z" fill="white"/>
<path d="M86.5656 22.2938C86.5911 21.5297 85.7243 21.6571 84.8066 21.9882C83.889 22.3193 83.3536 25.1974 83.3536 25.1974L83.5321 25.9615C83.5321 25.9615 84.2458 23.3126 85.189 23.2872C86.1322 23.2617 85.9793 24.5861 85.9793 24.5861C85.9793 24.5861 86.5401 23.0579 86.5656 22.2938Z" fill="white"/>
<path d="M65.7386 28.2277C66.3759 27.6165 66.7583 26.8014 66.8347 25.9355C66.9112 24.5092 66.2484 22.7263 66.5288 22.3442C66.5288 22.3442 71.1173 22.5734 71.8566 22.3442C72.5958 22.115 73.2331 20.4849 71.8566 19.3388C72.0095 19.8227 72.086 20.3066 72.137 20.816C72.188 21.1726 72.1115 21.5037 71.984 21.8348C71.984 21.8348 71.6016 21.8603 69.7663 20.9688C69.027 20.6377 68.2877 20.2557 67.5995 19.8482C67.5995 19.8482 69.2819 17.2248 68.7211 15.4419L67.421 15.5183C67.421 15.5183 66.7838 18.0398 66.2994 18.8039C65.8151 19.568 64.3621 21.7839 64.7189 22.9046C65.0758 24.0252 65.8151 25.9609 65.8406 26.4449C65.8661 26.9288 65.7386 28.2277 65.7386 28.2277Z" fill="white"/>
<path d="M78.3575 21.02C78.3575 21.02 78.7653 18.142 81.136 17.0722C79.7085 16.9449 78.332 17.5816 77.4908 18.7278C76.0377 20.7144 75.2985 21.1983 75.2985 21.1983C75.2985 21.1983 74.1769 21.3002 73.8965 19.8994L73.769 20.4852C73.718 20.5616 73.9984 22.1662 74.8906 22.5228C75.7828 22.8793 77.6692 22.2935 77.6692 22.2935H82.1047C81.2125 21.1983 79.7595 20.7144 78.3575 21.02Z" fill="white"/>
<path d="M72.1373 25.1978C72.1373 25.1978 72.5961 27.0061 73.5648 27.1589C74.5335 27.3117 75.1708 25.1978 75.1708 25.1978C75.1708 25.1978 74.355 26.0128 73.5903 25.9618C72.8255 25.9109 72.1373 25.1978 72.1373 25.1978Z" fill="white"/>
<path d="M71.2961 29.0435C71.2961 29.0435 73.9217 29.5274 75.6041 28.7124C75.6041 28.7124 74.7629 30.0368 73.2589 30.0114C71.7549 29.9859 71.2961 29.0435 71.2961 29.0435Z" fill="white"/>
<path d="M91.8671 49.9032C91.6886 49.7249 91.4592 49.5721 91.2043 49.4702C90.9749 49.3683 90.72 49.3174 90.4651 49.2919C90.1846 49.2665 90.0062 49.2665 89.8023 49.241C89.5983 49.2155 89.4199 49.1391 89.2415 49.0627C89.8278 48.808 90.4141 48.5024 90.9239 48.1203C90.9494 48.1203 90.9494 48.0948 90.9749 48.0694C91.0769 47.9675 91.0514 47.7892 90.9494 47.7128L84.3216 41.8038C84.3726 41.7529 84.4236 41.7019 84.4746 41.6765C84.6275 41.7529 84.7805 41.8547 84.9334 41.9311L85.6727 42.3641L86.055 42.5934C86.1315 42.6443 86.208 42.6698 86.2845 42.7207C86.3864 42.7717 86.4884 42.7717 86.5903 42.7971H86.6158C87.1002 42.7971 87.508 42.4151 87.508 41.9311C87.508 41.7019 87.4316 41.4982 87.2786 41.3453C87.2276 41.2944 87.2021 41.2435 87.1512 41.218L87.1002 41.1671L87.0492 41.1161L86.8708 41.0142C86.8198 40.9888 86.7943 40.9633 86.7433 40.9378C86.8453 40.9378 86.9217 40.9633 87.0237 40.9633C87.3296 40.9888 87.6355 40.9378 87.9159 40.8359C88.0943 40.7595 88.2218 40.6322 88.3238 40.4539C88.4002 40.3011 88.4512 40.0973 88.4002 39.919C88.3493 39.6643 88.1963 39.4096 87.9669 39.2823C88.0689 39.1549 88.1453 39.0276 88.2218 38.8748C88.3493 38.671 88.4257 38.4673 88.5022 38.2635C88.5277 38.1871 88.5277 38.0852 88.5277 38.0088C88.5277 37.9833 88.5022 37.9324 88.5022 37.9069L88.4767 37.856C88.4512 37.8305 88.4257 37.7796 88.4257 37.7541C88.3493 37.6522 88.2728 37.5503 88.1708 37.4739C88.0943 37.3975 88.0179 37.3466 87.9414 37.2702L89.4709 34.9015C89.5474 34.7741 89.5219 34.5958 89.3944 34.5194L88.3238 33.8317C88.1963 33.7553 88.0179 33.7808 87.9414 33.9082L86.3354 36.3533C86.0805 36.2514 85.8256 36.175 85.5707 36.0986L85.7746 35.691C85.7746 35.6656 85.8001 35.6656 85.8001 35.6401C85.8511 35.4873 85.7491 35.3345 85.6217 35.309C83.9392 34.7232 82.2823 34.0355 80.6508 33.2714C79.3508 32.6601 78.0507 32.0234 76.7506 31.3612C77.9487 31.1065 79.0959 30.7499 80.2175 30.266C80.7783 30.0367 81.3136 29.7566 81.8234 29.4509C82.0784 29.2981 82.3333 29.1198 82.5882 28.9415C82.8686 28.7378 83.098 28.5086 83.3019 28.2284C83.3274 28.1774 83.3529 28.1265 83.3784 28.0756C83.3784 28.0501 83.4039 28.0246 83.4039 27.9737L83.4294 27.9227V27.8973C83.4549 27.7954 83.4549 27.7445 83.4804 27.668C83.5059 27.5152 83.5059 27.3624 83.5314 27.2096C83.5314 27.0568 83.5314 26.904 83.5569 26.7766C84.0922 26.8021 84.6275 26.6493 85.0609 26.3436C85.4942 26.0125 85.8766 25.605 86.157 25.1211C86.6668 24.2042 86.9982 23.1599 87.1257 22.1156C87.2021 21.5808 87.2021 21.0459 87.1512 20.511C87.1257 20.2309 87.0492 19.9507 86.9472 19.6705C86.8708 19.5177 86.7943 19.3649 86.6668 19.2375C86.5904 19.1611 86.5394 19.1102 86.4374 19.0592C86.3864 19.0338 86.3354 19.0083 86.2845 18.9828C86.2335 18.9574 86.208 18.9574 86.157 18.9319C85.8511 18.8555 85.5452 18.8555 85.2393 18.9319C85.0609 18.9828 84.9079 19.0338 84.755 19.1357C84.8314 18.7027 84.8824 18.2697 84.9079 17.8367C84.9589 17.0217 84.9589 16.1812 84.9079 15.3661C84.8824 15.1624 84.8824 14.9586 84.8569 14.7294C84.8569 14.6275 84.8314 14.5001 84.8059 14.3983C84.7805 14.2964 84.755 14.169 84.7295 14.0672C84.602 13.6596 84.3981 13.2521 84.1687 12.8955C83.6843 12.1824 83.1235 11.5711 82.4607 11.0363C81.1607 9.99199 79.7077 9.17695 78.1272 8.64209C77.8468 8.54021 77.5919 8.4638 77.3114 8.38739C77.8978 7.90346 78.6625 7.08843 78.8154 5.99322C78.9684 4.9999 78.6625 3.34436 77.5919 2.0454C76.8781 1.17943 75.5525 0.109694 73.2328 0.0078146C71.3464 -0.0685949 69.817 0.415332 68.7208 1.45959C67.6757 2.47839 67.0894 3.87923 67.0894 5.33101C67.0639 6.8592 68.109 7.92893 68.8483 8.48927C68.6698 8.54021 68.5169 8.59115 68.3385 8.66756C66.758 9.25336 65.3305 10.2212 64.2088 11.4692C63.648 12.106 63.2147 12.8701 62.9088 13.6596C62.6538 14.4492 62.4754 15.2897 62.4244 16.1302C62.3225 17.7603 62.4244 19.3649 62.7048 20.9695C62.7048 20.995 62.7048 20.995 62.7048 21.0204C62.5519 20.8167 62.3734 20.6384 62.1695 20.4601C61.9146 20.2563 61.6342 20.129 61.3283 20.0526C61.0224 19.9762 60.691 19.9762 60.3851 20.0526C60.3341 20.0526 60.2831 20.078 60.2576 20.1035C60.2067 20.129 60.1557 20.1545 60.1047 20.1799C60.0282 20.2309 59.9518 20.3073 59.8753 20.3837C59.7733 20.511 59.6713 20.6638 59.5949 20.8167C59.4929 21.0968 59.4164 21.377 59.3909 21.6572C59.34 22.192 59.34 22.7269 59.4164 23.2618C59.5439 24.306 59.8753 25.3503 60.4106 26.2672C60.691 26.7511 61.0479 27.1587 61.5067 27.4643C61.9146 27.719 62.3734 27.8718 62.8578 27.8463C62.9343 28.2284 63.0107 28.6104 63.1127 28.9925L63.1382 29.0944L63.1637 29.1453C63.1637 29.1708 63.1892 29.1962 63.1892 29.2217C63.2402 29.3236 63.2911 29.4255 63.3676 29.5019C63.4696 29.6292 63.597 29.7311 63.75 29.833C64.0049 30.0113 64.2598 30.1896 64.5402 30.3424C65.0755 30.6225 65.6363 30.8772 66.1972 31.0555C66.5795 31.1829 66.9619 31.2848 67.3443 31.3866L61.2263 39.8936C61.1498 39.9954 61.1753 40.1483 61.2773 40.2247C61.7616 40.6067 62.246 40.9633 62.7303 41.2944C62.7303 41.3453 62.7303 41.3708 62.7303 41.4218C62.7813 41.8802 62.9088 42.3387 63.0872 42.7717C63.2656 43.2556 63.5461 43.6631 63.9539 43.9942C64.0814 44.0706 64.2088 44.147 64.3363 44.198C64.4128 44.2234 64.4892 44.2489 64.5657 44.2489H64.6167H64.6677H64.7696C65.0501 44.2489 65.3305 44.1725 65.5599 44.0451C65.8913 43.8414 66.1462 43.5358 66.2736 43.1792C66.656 43.332 67.0639 43.4339 67.4717 43.5357C67.4717 44.4017 67.4717 45.2677 67.4717 46.1337C67.4717 46.5157 67.4717 46.8723 67.4972 47.2543C66.4266 47.509 65.3305 47.7383 64.2343 47.942C64.1578 47.942 64.1069 48.0184 64.1069 48.0694C64.0814 48.1458 64.1578 48.2477 64.2343 48.2477C65.3305 48.426 66.4266 48.5788 67.5227 48.7061C67.5227 48.9863 67.5482 49.2665 67.5482 49.5466C67.3953 49.5976 67.2678 49.6485 67.1149 49.6994C66.9109 49.8013 66.7325 49.9032 66.554 50.0306C66.3501 50.1834 66.1972 50.3617 66.0952 50.5909C66.0697 50.6673 66.0442 50.7692 66.0442 50.8456C66.0697 50.9729 66.1207 51.0748 66.1972 51.1512C66.3246 51.2531 66.4776 51.304 66.6305 51.2786H67.2168H68.3894C69.1542 51.2786 69.9444 51.304 70.7347 51.3295C70.9386 51.3295 71.117 51.3295 71.321 51.3295C71.5504 51.3295 71.8053 51.2786 72.0092 51.1767C72.2641 51.0748 72.4681 50.8965 72.5955 50.6673C72.6975 50.489 72.774 50.2853 72.7995 50.0815H73.5642C73.6152 50.0815 73.6662 50.0815 73.7171 50.056C74.5074 49.6994 75.3231 49.4448 76.1643 49.2919C77.031 49.1391 77.8978 49.0627 78.7645 49.0372C79.6312 49.0372 80.4979 49.1136 81.3646 49.2919C82.2058 49.4448 83.047 49.6994 83.8118 50.056C83.8373 50.0815 83.8882 50.0815 83.9137 50.0815H83.9392C84.0667 50.0815 84.1941 50.0815 84.3216 50.0815C84.7295 50.0815 85.1373 50.056 85.5197 50.0306C85.5452 50.1579 85.5707 50.2598 85.5962 50.3871C85.6472 50.54 85.7236 50.6673 85.8256 50.7947C86.004 51.0239 86.2845 51.2022 86.5649 51.2786C86.8198 51.3295 87.0747 51.355 87.3296 51.3295L88.0179 51.304C88.9356 51.2786 89.8278 51.2786 90.7455 51.2786H91.4337H91.6122C91.6886 51.2786 91.7651 51.2786 91.8161 51.2786C91.9436 51.2531 92.0455 51.2022 92.122 51.1003C92.1985 51.0239 92.224 50.8965 92.224 50.7947C92.1985 50.4126 92.071 50.107 91.8671 49.9032ZM87.9159 38.0852V38.0597C87.9159 38.0597 87.9159 38.0597 87.9159 38.0852ZM87.2531 37.5758C87.4061 37.6777 87.5845 37.7796 87.712 37.8814C87.7885 37.9324 87.8394 37.9833 87.8904 38.0343L87.9159 38.0597C87.8394 38.4418 87.712 38.8238 87.5845 39.1804L87.559 39.2314C87.5335 39.2823 87.5845 39.3587 87.6355 39.3842C87.7884 39.5115 87.8649 39.6898 87.8649 39.8936C87.8649 40.0464 87.763 40.1737 87.6355 40.1992C87.4316 40.2501 87.2276 40.2501 87.0237 40.2247C86.7943 40.1992 86.5394 40.1483 86.3099 40.0973C85.8256 39.97 85.3668 39.8172 84.9079 39.6389C84.551 39.486 84.1942 39.3587 83.8373 39.1804L85.1373 36.6589C85.8766 36.9391 86.5903 37.2192 87.2531 37.5758ZM80.3449 33.8063C81.8999 34.5194 83.4804 35.1307 85.0864 35.6656L83.2 38.9512L83.047 38.8748L82.6647 38.671C82.4862 38.5691 82.3078 38.4927 82.1039 38.4927C81.6195 38.4927 81.2371 38.8748 81.2626 39.3587C81.2626 39.5625 81.3391 39.7917 81.4921 39.9445C81.543 39.9954 81.5685 40.0209 81.6195 40.0464C81.645 40.0719 81.6705 40.0719 81.6705 40.0719L81.7215 40.0973L81.9254 40.1992L82.5627 40.5303C82.2313 40.7595 81.8744 41.0142 81.5175 41.2435C81.1097 40.8614 80.7018 40.5048 80.2685 40.1483C79.8351 39.7917 79.4017 39.4351 78.9429 39.104C78.4841 38.7729 78.0507 38.4163 77.5664 38.1107C77.1075 37.7796 76.6487 37.4739 76.1643 37.1683C76.5212 37.6013 76.9291 38.0088 77.3114 38.4163C77.6173 38.7474 77.9487 39.0785 78.2801 39.3842C77.082 39.5625 75.8839 39.6643 74.6858 39.6898C74.2015 38.9512 73.2073 38.7729 72.4936 39.2568C72.3151 39.3842 72.1622 39.537 72.0347 39.7153C71.5759 39.7153 71.117 39.6898 70.6582 39.6643C70.2503 39.6389 69.8679 39.6134 69.4601 39.5879C69.9954 39.1295 70.5052 38.6455 70.9641 38.1361C71.27 37.7796 71.5759 37.4485 71.8818 37.0664C72.1622 36.7098 72.4426 36.3278 72.723 35.9457C73.2583 35.2071 73.7936 34.443 74.278 33.6535C74.7113 32.9658 75.1192 32.2271 75.5016 31.514H75.527C77.1075 32.3036 78.7135 33.0677 80.3449 33.8063ZM78.688 42.8735C78.6625 42.8735 76.9036 43.765 76.0369 44.1725C75.7565 43.765 75.5016 43.3575 75.2721 42.899C75.0427 42.4405 74.8388 41.9566 74.6348 41.4727C76.3173 41.3453 77.9742 41.0652 79.6057 40.6831C79.6312 40.7086 80.4214 41.3963 80.7783 41.6765C80.141 42.0585 79.5037 42.4151 78.8409 42.7717C78.535 42.4405 78.2291 42.1094 77.9487 41.7783C78.2037 42.1604 78.4331 42.5424 78.688 42.8735ZM71.8053 40.9888C71.4994 40.9888 71.1935 40.9888 70.8876 40.9888C70.0209 40.9888 69.1797 40.9633 68.313 40.9378C68.313 40.7086 68.313 40.4794 68.2875 40.2501C69.0522 40.3011 69.8424 40.3266 70.6072 40.352C70.9896 40.352 71.3719 40.352 71.7798 40.352C71.7543 40.4284 71.7543 40.5048 71.7543 40.5812C71.7543 40.7086 71.7798 40.8614 71.8053 40.9888ZM68.3385 42.4151C68.3385 42.1604 68.3385 41.9057 68.3385 41.6765C68.8993 41.7019 69.4601 41.7019 70.0209 41.7019V41.9821V42.5424C70.0464 42.899 70.0464 43.281 70.0719 43.6376C70.0974 43.9942 70.1229 44.3763 70.1738 44.7328C70.2248 45.0894 70.2758 45.4715 70.3523 45.828C70.4288 45.4715 70.4797 45.0894 70.5307 44.7328C70.5817 44.3763 70.6072 43.9942 70.6327 43.6376C70.6582 43.281 70.6837 42.899 70.6837 42.5424L70.7092 41.9821V41.7019C70.7601 41.7019 71.7288 41.6765 72.1367 41.651C72.1877 41.7019 72.2386 41.7529 72.2896 41.8038C72.2896 41.8038 72.2896 41.8038 72.2896 41.8293C72.3406 42.4915 72.3916 43.1537 72.4936 43.8159C72.57 44.4017 72.672 44.9621 72.8249 45.5224C71.3464 46.0827 69.817 46.5412 68.2875 46.9487C68.2875 46.6431 68.313 46.3629 68.313 46.0573C68.3385 44.8347 68.3385 43.6376 68.3385 42.4151ZM72.5955 40.9633C72.4936 40.7595 72.4681 40.5303 72.5445 40.3265C72.672 39.8936 73.1563 39.6389 73.5897 39.7917C73.8191 39.8681 74.023 40.0464 74.0995 40.2756C74.1505 40.3775 74.1505 40.4794 74.1505 40.5812C74.1505 40.6831 74.125 40.785 74.0995 40.8869C74.074 40.9633 74.023 41.0397 73.9721 41.0906C73.9466 41.1416 73.9211 41.1671 73.8701 41.1925C73.7172 41.3199 73.5132 41.3963 73.3093 41.3963C73.0289 41.4218 72.7485 41.2435 72.5955 40.9633ZM73.3348 42.1604L74.278 44.9366C74.176 44.9875 74.0995 45.013 73.9976 45.0639C73.7936 45.1403 73.5642 45.2168 73.3603 45.3186C73.2583 44.8092 73.1818 44.2744 73.1563 43.7395C73.1054 43.2046 73.1054 42.6698 73.0799 42.1604C73.1563 42.1604 73.2328 42.1604 73.3348 42.1604ZM74.0231 42.0076C74.0485 42.0076 74.074 41.9821 74.0995 41.9821C74.3289 42.3896 74.5584 42.7971 74.8133 43.2046C75.0682 43.6122 75.3486 43.9942 75.6545 44.3763C75.3231 44.5291 74.9917 44.6564 74.6348 44.8092L74.0231 42.0076ZM74.8898 40.2247C76.1388 40.1483 77.3879 39.9954 78.637 39.7662C78.8154 39.9445 78.9939 40.0973 79.1723 40.2501C77.7703 40.5303 76.3428 40.7341 74.9153 40.8359C74.9407 40.6322 74.9407 40.4284 74.8898 40.2247ZM72.4936 34.876C72.2641 34.6468 72.0602 34.4176 71.8563 34.1883C71.5504 33.8572 71.27 33.5006 70.9896 33.1441C70.6072 32.6856 70.2503 32.2271 69.9189 31.7432C71.0405 31.8451 72.1367 31.8706 73.2583 31.7942C73.6917 31.7687 74.0995 31.7177 74.5329 31.6668C73.8701 32.762 73.1818 33.8317 72.4936 34.876ZM72.2641 7.34313C72.621 7.1139 73.0289 6.98655 73.4622 6.96108H73.6152H73.7936C73.8956 6.96108 73.9976 6.98655 74.0995 6.98655C74.3035 7.01202 74.4819 7.08843 74.6603 7.19031C74.8133 7.29219 74.9407 7.445 75.0172 7.59782C75.0427 7.64876 75.0682 7.6997 75.0682 7.77611C74.4309 7.67423 73.7936 7.62329 73.1563 7.64876C72.6975 7.64876 72.2641 7.67423 71.8053 7.72517C71.9327 7.59782 72.0857 7.44501 72.2641 7.34313ZM66.4011 30.215C65.8658 30.0622 65.3305 29.833 64.8461 29.5783C64.5912 29.4509 64.3618 29.3236 64.1324 29.1708C64.0304 29.0944 63.9284 29.0179 63.8519 28.9415C63.8265 28.9161 63.7755 28.8651 63.7755 28.8651L63.75 28.8397L63.7245 28.7887L63.699 28.6868C63.3676 27.5662 62.9852 26.471 62.5009 25.4012C62.5264 26.0635 62.6029 26.7002 62.7048 27.3369C62.348 27.3115 62.0166 27.1587 61.7362 26.9549C61.3793 26.6493 61.0734 26.2927 60.8694 25.8597C60.4361 25.0192 60.1812 24.1277 60.1047 23.1854C60.2067 23.109 60.3086 23.0835 60.4361 23.058C60.5381 23.058 60.6145 23.058 60.7165 23.058C60.742 23.058 60.7675 23.058 60.7675 23.058C60.793 23.058 60.8185 23.058 60.844 23.0835C60.8949 23.0835 60.9204 23.109 60.9714 23.109C61.1753 23.1854 61.3538 23.2618 61.5322 23.3636C61.7362 23.491 61.9656 23.6183 62.2205 23.7457C62.195 23.109 61.7871 22.5741 61.1753 22.3703C61.0989 22.3449 60.9969 22.3194 60.9204 22.3194C60.8949 22.3194 60.844 22.3194 60.8185 22.3194C60.7675 22.3194 60.7165 22.3194 60.691 22.3194C60.5126 22.3449 60.3596 22.3958 60.2067 22.4977C60.1557 22.5231 60.1302 22.5486 60.0792 22.5996C60.0537 22.1666 60.0792 21.759 60.1557 21.3261C60.1812 21.0204 60.4106 20.7657 60.7165 20.6893C61.0479 20.6638 61.3793 20.7657 61.6597 20.9695C61.9911 21.2242 62.4754 22.0647 62.4754 22.0647C62.5009 22.1156 62.5519 22.1411 62.6029 22.192C62.6284 22.4977 62.6793 22.8033 62.7558 23.0835C62.9597 23.7966 63.2402 24.5098 63.6225 25.1465C63.801 25.4776 63.9794 25.7833 64.1833 26.0889C64.3873 26.3691 64.5402 26.6747 64.6932 26.9804C64.9226 27.6171 64.8206 28.3303 64.4383 28.8906C64.4128 28.9161 64.4128 28.9415 64.4128 28.967C64.4128 28.967 64.4128 28.967 64.4128 28.9925C64.4128 29.0434 64.4637 29.0944 64.5402 29.0689H64.5657C64.8971 29.0179 65.2285 28.8651 65.4834 28.6614C65.7638 28.4321 65.9932 28.1265 66.0952 27.7954C66.2481 27.1332 66.2482 26.42 66.0442 25.7833C65.8913 25.1465 65.6873 24.5353 65.5344 23.9495C65.4579 23.6693 65.3814 23.3636 65.3305 23.0835C65.2795 22.8033 65.2795 22.5231 65.305 22.243C65.3814 21.6572 65.5599 21.0968 65.8148 20.5874C65.8658 20.4601 65.9422 20.3582 65.9932 20.2309L66.0697 20.2563L66.4521 20.3327C66.707 20.3837 66.9619 20.4601 67.2168 20.511C67.7267 20.6384 68.2365 20.7403 68.7208 20.8931C69.2052 21.0459 69.715 21.1732 70.2248 21.3515C70.7092 21.5298 71.1935 21.6572 71.7033 21.8355C71.2955 21.5044 70.8621 21.2242 70.4287 20.9695C69.9699 20.6893 69.4856 20.4346 69.0267 20.2054C68.5679 19.9762 68.058 19.7469 67.5482 19.5432C67.2933 19.4413 67.0384 19.3649 66.7835 19.263L66.656 19.2121C66.707 19.1611 66.7325 19.0847 66.7835 19.0338C66.9619 18.7791 67.1404 18.5499 67.3188 18.1933C67.4717 17.8876 67.5992 17.582 67.7012 17.2509C67.8796 16.716 68.0071 16.1557 68.109 15.5954C68.7718 15.4425 69.4601 15.3407 70.1229 15.2642C70.8876 15.1878 71.6523 15.1624 72.4171 15.1369C73.9466 15.1369 75.4761 15.2897 76.9801 15.5699C77.0565 15.5953 77.1075 15.5699 77.184 15.5444C77.9742 15.2642 78.79 15.0095 79.6312 14.8058C80.3704 14.602 81.1352 14.5001 81.9254 14.4237C82.0529 14.602 82.1548 14.7803 82.2568 14.9586C82.3843 15.2133 82.5117 15.468 82.6137 15.7227C82.8176 16.2576 82.9961 16.7924 83.098 17.3528C83.3274 18.4734 83.4294 19.6196 83.3784 20.7657C83.3529 20.9695 83.5059 21.1478 83.7098 21.1478C83.7863 21.1478 83.8883 21.1223 83.9392 21.0714C83.9647 21.0459 83.9902 21.0459 84.0157 21.0204C84.0412 20.995 84.0667 20.9695 84.0667 20.944C84.0667 20.944 84.0667 20.944 84.0667 20.9185V20.8931C84.1432 20.6893 84.2451 20.511 84.3726 20.3582C84.5 20.1799 84.653 20.0016 84.8314 19.8488C85.1118 19.6196 85.4687 19.5177 85.8256 19.5432C86.157 19.5941 86.3099 19.9252 86.3609 20.2309C86.3864 20.3837 86.4119 20.562 86.4374 20.7148C86.4629 20.8421 86.4629 20.9695 86.4629 21.0968C86.4629 21.1732 86.4629 21.2242 86.4629 21.3006C86.4629 21.3261 86.4374 21.4789 86.4629 21.4789C86.4119 21.4279 86.3864 21.4025 86.3354 21.3515C86.1825 21.2497 86.0295 21.1987 85.8511 21.1732C85.8001 21.1732 85.7491 21.1732 85.7236 21.1732C85.6981 21.1732 85.6472 21.1732 85.6217 21.1732C85.5197 21.1732 85.4432 21.1987 85.3668 21.2242C84.7805 21.4279 84.3471 21.9628 84.3216 22.5996C84.602 22.4722 84.8059 22.3194 85.0099 22.2175C85.1883 22.1156 85.3668 22.0137 85.5707 21.9628C85.6217 21.9628 85.6727 21.9373 85.6981 21.9373C85.7236 21.9373 85.7491 21.9373 85.7746 21.9119H85.8256C85.9276 21.9119 86.004 21.9119 86.106 21.9119C86.2335 21.9373 86.3609 21.9628 86.4629 22.0392C86.3609 22.9561 86.106 23.873 85.6727 24.6881C85.4687 25.0956 85.1628 25.4522 84.7805 25.7578C84.4491 26.0125 84.0157 26.1399 83.6078 26.1144C83.6078 25.5541 83.5569 24.9937 83.4294 24.4334C83.251 24.9937 83.098 25.5795 82.9961 26.1653C82.9451 26.4455 82.8941 26.7511 82.8431 27.0313L82.7666 27.4388C82.7666 27.5152 82.7411 27.5662 82.7156 27.6426V27.668C82.7156 27.668 82.6902 27.6935 82.6902 27.719C82.5372 27.8973 82.3588 28.0756 82.1548 28.2284C81.9254 28.3812 81.696 28.534 81.4666 28.6868C80.9822 28.967 80.4724 29.1962 79.9371 29.4255C77.7958 30.2405 75.5525 30.7499 73.2583 30.9027C70.8876 31.081 68.5934 30.8518 66.4011 30.215ZM65.203 43.3829C64.9226 43.5103 64.5912 43.4848 64.3363 43.3065C64.0814 43.0518 63.8774 42.7462 63.75 42.3896C63.6735 42.1858 63.597 41.9821 63.546 41.7783C63.801 41.9312 64.0304 42.0585 64.2853 42.2113C64.7696 42.466 65.254 42.6952 65.7638 42.9245C65.6364 43.1282 65.4324 43.281 65.203 43.3829ZM67.4208 42.4151C67.4208 42.4915 67.4208 42.5679 67.4208 42.6443C66.4521 42.3896 65.5089 42.0585 64.6167 41.6C64.0814 41.3453 63.546 41.0397 63.0362 40.7341C62.6029 40.4794 62.144 40.1992 61.7362 39.8936L68.0835 31.4631C68.3385 31.514 68.6189 31.5649 68.8738 31.6159C69.4091 32.2781 69.9699 32.8894 70.5307 33.5261C71.066 34.1119 71.6523 34.6723 72.2896 35.1562C72.2132 35.2835 72.1367 35.3854 72.0602 35.5128C71.8053 35.8948 71.5504 36.2514 71.27 36.6334C71.0151 36.99 70.7346 37.3721 70.4542 37.7286C69.9699 38.3654 69.4601 38.9766 68.9248 39.5625C68.6953 39.537 68.4914 39.537 68.262 39.5115C68.262 39.2823 68.262 39.0531 68.2365 38.8238C68.211 37.6013 68.0835 36.4042 67.8541 35.2071C67.6247 36.4042 67.4972 37.6013 67.4717 38.8238C67.4462 40.0209 67.4208 41.218 67.4208 42.4151ZM67.4463 48.1967C66.758 48.1458 66.0697 48.0949 65.3814 48.0184C66.0697 47.9166 66.7325 47.7892 67.4208 47.6364C67.7267 47.5855 68.0071 47.509 68.313 47.4581C68.6443 47.3817 68.9757 47.3053 69.2816 47.2289C70.9641 46.7959 72.5955 46.312 74.227 45.7007C75.8584 45.1149 77.4389 44.4272 78.9684 43.6376C79.0194 43.6122 79.0959 43.5612 79.1468 43.5357C79.2233 43.4848 79.3253 43.4339 79.4018 43.4084C80.7528 42.6952 82.0529 41.9057 83.2765 40.9888L83.4294 41.0652C83.5569 41.1416 83.6843 41.218 83.8118 41.2689C83.098 41.9566 82.3333 42.6188 81.5175 43.2046C81.0842 43.5357 80.6253 43.8414 80.1665 44.147C80.0645 44.2234 79.9626 44.2744 79.8861 44.3508C79.4527 44.631 79.0194 44.9111 78.586 45.1658C76.5722 46.3629 74.5074 47.4581 72.3406 48.426C70.9896 48.4005 69.664 48.3495 68.313 48.2731C68.0071 48.2222 67.7267 48.1967 67.4463 48.1967ZM71.9582 50.2343C71.9073 50.3362 71.8053 50.4381 71.6778 50.489C71.5504 50.5654 71.3974 50.5909 71.2445 50.5909C71.066 50.5909 66.5286 50.6418 66.5031 50.6418C66.5795 50.5145 66.6815 50.4126 66.7835 50.3362C66.9109 50.2343 67.0894 50.1579 67.2423 50.107C67.4208 50.0306 67.6247 50.0051 67.8286 49.9796H72.0092C72.0347 50.107 72.0092 50.1834 71.9582 50.2343ZM85.7236 49.241C85.1628 49.2919 84.602 49.2919 84.0412 49.2665C83.2 48.9863 82.3588 48.7571 81.4666 48.6297C80.5744 48.4769 79.6567 48.426 78.7645 48.426C77.8723 48.426 76.9546 48.5024 76.0624 48.6552C75.6035 48.7316 75.1702 48.808 74.7368 48.9099C74.3289 49.0118 73.8956 49.1136 73.4877 49.2665H68.2365C68.2365 49.0882 68.262 48.8844 68.262 48.7061C69.613 48.8335 70.9896 48.9354 72.3661 49.0118C72.4171 49.0118 72.4426 49.0118 72.4936 48.9863C73.5897 48.5024 74.6603 47.9675 75.731 47.4326C76.5212 47.0251 77.3114 46.5921 78.0762 46.1591L78.2291 46.0573C78.4331 45.9299 78.637 45.828 78.8664 45.7007C79.3508 45.4205 79.8096 45.1149 80.294 44.8347C80.4724 45.013 80.6508 45.1913 80.8293 45.3696C81.9254 46.4393 83.1235 47.3817 84.4236 48.1713C83.3019 47.1525 82.1803 46.1337 81.0842 45.0894C80.9312 44.9366 80.7528 44.7838 80.5998 44.6055C81.0332 44.3253 81.4666 44.0451 81.8744 43.7395C82.5117 43.2811 83.149 42.7971 83.7353 42.2877L90.3121 47.8656C89.3944 48.3241 88.4002 48.7061 87.4061 48.9863C86.8708 49.1136 86.3099 49.19 85.7236 49.241ZM91.4082 50.6673H90.72C89.8023 50.6673 88.9101 50.6673 87.9924 50.6418H87.3041C87.1002 50.6418 86.9217 50.6164 86.7178 50.5654C86.5649 50.5145 86.4374 50.4381 86.3609 50.3107C86.3099 50.2598 86.2845 50.1834 86.259 50.107C86.2335 50.0306 86.2335 49.9796 86.2335 49.9032C86.6668 49.8268 87.1257 49.7504 87.559 49.6485C87.8139 49.5721 88.0689 49.4957 88.3238 49.4193C88.7571 49.6485 89.216 49.8013 89.7003 49.8777C89.9552 49.9032 90.2101 49.8777 90.3886 49.9032C90.5925 49.9032 90.771 49.9541 90.9749 50.0306C91.1533 50.107 91.3063 50.2088 91.4592 50.3362C91.5612 50.4381 91.6377 50.5654 91.6886 50.7182L91.4082 50.6673Z" fill="#010101"/>
<path d="M72.6726 26.0128C72.953 26.2165 73.3099 26.3184 73.6668 26.3184C74.0236 26.3184 74.355 26.1911 74.6354 25.9873C74.9158 25.809 75.1198 25.5289 75.1962 25.1978C74.7119 25.4015 74.1766 25.5289 73.6413 25.5543C73.1059 25.5543 72.5961 25.427 72.1373 25.1978C72.1883 25.5289 72.3922 25.8345 72.6726 26.0128Z" fill="#010101"/>
<path d="M71.6272 27.7699C71.9076 27.8208 72.188 27.8972 72.443 27.9736C72.7234 28.05 73.3606 28.2283 73.3861 28.2283C73.3861 28.2283 75.0941 27.617 75.3745 27.5152C75.4255 27.4897 75.4764 27.4897 75.5529 27.4642C75.6039 27.4642 75.6549 27.4642 75.7059 27.4897C75.8588 27.5406 76.0118 27.5916 76.1647 27.6425L77.1079 28.05C76.8785 27.7699 76.6491 27.5152 76.3686 27.2859C76.2157 27.1586 76.0627 27.0567 75.8843 26.9803C75.7823 26.9294 75.6549 26.9039 75.5529 26.8784C75.4509 26.8784 75.3235 26.8784 75.2215 26.9039C74.8646 26.9803 74.5333 27.1076 74.2019 27.2605C73.9215 27.4133 73.6411 27.5661 73.4116 27.7699C73.1822 27.617 72.9273 27.4897 72.6724 27.3878C72.3665 27.2605 72.0351 27.1841 71.7037 27.1586C71.5253 27.1586 71.3213 27.1841 71.1429 27.235C70.9899 27.3114 70.837 27.3878 70.684 27.4897C70.4291 27.6935 70.1997 27.9227 70.0468 28.2028C70.3527 28.0755 70.6331 27.9481 70.888 27.8463C71.1174 27.7699 71.3723 27.7444 71.6272 27.7699Z" fill="#010101"/>
<path d="M69.1285 21.988C68.7206 21.9371 68.3127 21.9116 67.8794 21.9116C67.4715 21.9116 67.0382 21.9371 66.6303 21.988C66.197 22.039 65.7891 22.1408 65.3812 22.2937C65.7891 22.4465 66.197 22.5484 66.6303 22.5993C67.0382 22.6502 67.446 22.6757 67.8794 22.6757C68.2873 22.6757 68.7206 22.6502 69.1285 22.5993C69.5618 22.5484 69.9697 22.4465 70.3776 22.2937C69.9697 22.1408 69.5363 22.039 69.1285 21.988Z" fill="#010101"/>
<path d="M79.3263 21.9116C78.8674 21.9116 78.3831 21.9371 77.9242 21.988C77.4399 22.039 76.9811 22.1408 76.5222 22.2937C76.9811 22.4465 77.4399 22.5484 77.9242 22.5993C78.3831 22.6502 78.8419 22.6757 79.3263 22.6757C79.7851 22.6757 80.2695 22.6502 80.7283 22.5993C81.2127 22.5484 81.6715 22.4465 82.1303 22.2937C81.6715 22.1408 81.2127 22.039 80.7283 21.988C80.2695 21.9371 79.8106 21.9116 79.3263 21.9116Z" fill="#010101"/>
<path d="M77.8223 18.8549C78.7655 18.0908 79.8362 17.505 81.0088 17.1229C81.0598 17.0974 81.1107 17.0974 81.1617 17.072C81.1617 17.072 80.9578 16.3333 79.8362 16.5626C80.1675 16.2824 80.346 15.8749 80.346 15.4419H80.3205C79.6832 15.7475 79.0714 16.1551 78.5106 16.6135C77.9753 17.072 77.4909 17.5559 77.0576 18.0908C76.6242 18.6256 76.2419 19.1605 75.885 19.7463C75.5281 20.3066 75.2477 20.9179 75.0438 21.5547C75.9105 20.5868 76.8282 19.6699 77.8223 18.8549Z" fill="#010101"/>
<path d="M71.9339 21.8354C72.0868 21.6826 72.2143 21.4788 72.2908 21.2496C72.3672 21.0204 72.3927 20.7911 72.3672 20.5619C72.3417 20.3327 72.2908 20.1034 72.2143 19.8997C72.1378 19.6959 71.9849 19.4922 71.8319 19.3394C71.9084 19.7978 71.9849 20.1799 72.0104 20.5874C72.0104 21.0204 71.9849 21.4279 71.9339 21.8354Z" fill="#010101"/>
<path d="M74.0738 21.2498C74.2267 21.4027 74.4052 21.53 74.6346 21.581C74.4052 21.2753 74.2267 20.9187 74.0993 20.5622C73.9973 20.1801 73.8954 19.7981 73.8699 19.416C73.7679 19.5943 73.6914 19.8235 73.6659 20.0273C73.6404 20.2565 73.6659 20.4603 73.7424 20.6895C73.8189 20.8933 73.9208 21.097 74.0738 21.2498Z" fill="#010101"/>
<path d="M86.7177 41.702C86.7177 41.702 86.7432 41.702 86.7432 41.7275L86.7687 41.7529C86.8197 41.8039 86.8452 41.8548 86.8452 41.9058C86.8452 42.0331 86.7432 42.1605 86.5903 42.1605H86.6158C86.5648 42.1605 86.5393 42.1605 86.4883 42.135C86.4628 42.135 86.3863 42.0841 86.3353 42.0586L85.953 41.8548L85.1882 41.4473C85.0608 41.3709 84.9333 41.32 84.8059 41.2435C84.6019 41.1417 84.3725 41.0143 84.1686 40.887C83.9901 40.7851 83.8372 40.7087 83.6587 40.6068L83.5568 40.5559L82.996 40.2248L82.1547 39.7408C82.0273 39.6644 81.8743 39.588 81.8743 39.5371C81.8234 39.4861 81.7979 39.4097 81.8234 39.3333C81.8234 39.1805 81.9508 39.0786 82.1038 39.0786C82.1802 39.0786 82.2057 39.1041 82.3587 39.1805L82.7411 39.4097L82.894 39.4861L83.1234 39.6135L83.5058 39.8172C83.5058 39.8172 83.5313 39.8172 83.5313 39.8427C84.0156 40.1229 84.5255 40.403 85.0098 40.6832C85.5196 40.9634 86.0295 41.2435 86.5393 41.4982L86.7432 41.6001L86.7177 41.702C86.7177 41.702 86.6922 41.6765 86.7177 41.702Z" fill="#C4C4C4"/>
<path d="M88.1966 34.4175L88.7829 34.7995L87.4318 36.9135C87.2279 36.7862 87.024 36.6588 86.7946 36.5569L88.1966 34.4175Z" fill="#C4C4C4"/>
<path d="M5.09752 40.262H6.62352L9.04552 51.6021H7.54752L7.02952 48.7461H4.71952L4.17352 51.6021H2.68952L5.09752 40.262ZM6.81952 47.6121L5.86752 42.5021L4.92952 47.6121H6.81952ZM10.8961 40.262H13.3601C14.5828 40.262 15.4461 40.542 15.9501 41.102C16.4635 41.662 16.7201 42.5347 16.7201 43.7201V47.8921C16.7201 49.1427 16.4681 50.0761 15.9641 50.6921C15.4695 51.2987 14.6435 51.6021 13.4861 51.6021H10.8961V40.262ZM13.3741 50.4681C13.9248 50.4681 14.3215 50.3607 14.5641 50.1461C14.8161 49.9314 14.9701 49.6421 15.0261 49.2781C15.0915 48.9047 15.1241 48.3447 15.1241 47.5981V43.9161C15.1241 43.2721 15.0821 42.7821 14.9981 42.4461C14.9235 42.1007 14.7601 41.8487 14.5081 41.6901C14.2561 41.5221 13.8641 41.4381 13.3321 41.4381H12.4781V50.4681H13.3741ZM19.161 40.262H20.715L22.717 49.4601L24.733 40.262H26.273L26.483 51.6021H25.209L25.083 43.3701L23.165 51.6021H22.269L20.365 43.3701L20.239 51.6021H18.951L19.161 40.262ZM29.0051 40.262H30.5591V51.6021H29.0051V40.262ZM33.0938 40.262H34.1718L37.3918 47.7941V40.262H38.7078V51.6021H37.6998L34.4378 43.8601V51.6021H33.0938V40.262Z" fill="white"/>
</svg>
