<svg width="214" height="48" viewBox="0 0 214 48" fill="none" xmlns="http://www.w3.org/2000/svg">
<mask id="mask0_389:173" style="mask-type:alpha" maskUnits="userSpaceOnUse" x="0" y="0" width="42" height="48">
<path d="M20.8642 0.217285L41.8696 7.94353L38.5732 37.2224L20.8642 47.7178L3.29765 37.3619L0 8.08199L20.8642 0.217285ZM16.9569 20.6651V13.6079H23.8777C25.0312 13.6079 25.9132 13.8706 26.5239 14.396C27.1346 14.9214 27.4399 15.8289 27.4399 17.1186C27.4399 18.265 27.1006 19.1426 26.4221 19.7516C25.7436 20.3606 24.8955 20.6651 23.8777 20.6651H16.9569ZM12.3706 9.91126V35.1156H23.4611C25.0165 35.1156 26.3577 34.9332 27.4848 34.5685C28.6119 34.2037 29.5361 33.7095 30.2574 33.0858C30.9788 32.4622 31.5085 31.7209 31.8466 30.8619C32.1847 30.003 32.3538 29.0793 32.3538 28.0909C32.3538 26.3729 31.9706 24.9433 31.2042 23.8019C30.4378 22.6605 29.3107 21.9251 27.8229 21.5956V21.525C28.9275 21.0308 29.7784 20.3307 30.3758 19.4247C30.9731 18.5186 31.2718 17.4302 31.2718 16.1594C31.2718 14.0649 30.6181 12.5 29.3107 11.4645C28.0032 10.429 26.2676 9.91126 24.1035 9.91126H12.3706ZM16.9569 31.419V23.6896H24.3878C25.6655 23.6896 26.6574 24.0189 27.3635 24.6775C28.0696 25.336 28.4227 26.2776 28.4227 27.5023C28.4227 28.7501 28.0696 29.7148 27.3635 30.3965C26.6574 31.0781 25.6655 31.419 24.3878 31.419H16.9569Z" fill="white"/>
</mask>
<g mask="url(#mask0_389:173)">
<path d="M20.8642 0.217285L41.8696 7.94353L38.5732 37.2224L20.8642 47.7178L3.29765 37.3619L0 8.08199L20.8642 0.217285ZM16.9569 20.6651V13.6079H23.8777C25.0312 13.6079 25.9132 13.8706 26.5239 14.396C27.1346 14.9214 27.4399 15.8289 27.4399 17.1186C27.4399 18.265 27.1006 19.1426 26.4221 19.7516C25.7436 20.3606 24.8955 20.6651 23.8777 20.6651H16.9569ZM12.3706 9.91126V35.1156H23.4611C25.0165 35.1156 26.3577 34.9332 27.4848 34.5685C28.6119 34.2037 29.5361 33.7095 30.2574 33.0858C30.9788 32.4622 31.5085 31.7209 31.8466 30.8619C32.1847 30.003 32.3538 29.0793 32.3538 28.0909C32.3538 26.3729 31.9706 24.9433 31.2042 23.8019C30.4378 22.6605 29.3107 21.9251 27.8229 21.5956V21.525C28.9275 21.0308 29.7784 20.3307 30.3758 19.4247C30.9731 18.5186 31.2718 17.4302 31.2718 16.1594C31.2718 14.0649 30.6181 12.5 29.3107 11.4645C28.0032 10.429 26.2676 9.91126 24.1035 9.91126H12.3706ZM16.9569 31.419V23.6896H24.3878C25.6655 23.6896 26.6574 24.0189 27.3635 24.6775C28.0696 25.336 28.4227 26.2776 28.4227 27.5023C28.4227 28.7501 28.0696 29.7148 27.3635 30.3965C26.6574 31.0781 25.6655 31.419 24.3878 31.419H16.9569Z" fill="white"/>
<path d="M44.1958 0.217285H20.935V47.7178H44.1958V0.217285Z" fill="black" fill-opacity="0.3"/>
</g>
<path fill-rule="evenodd" clip-rule="evenodd" d="M53.5001 17.1835H56.22V19.1476L56.2704 19.1993C56.7069 18.4584 57.2778 17.8769 57.9829 17.4548C58.6881 17.0327 59.4688 16.8217 60.3251 16.8217C61.7522 16.8217 62.8771 17.2007 63.6998 17.9588C64.5225 18.7169 64.9338 19.854 64.9338 21.3701V30.5446H62.0628V22.1454C62.0292 21.0945 61.811 20.3321 61.408 19.8583C61.0051 19.3845 60.3755 19.1476 59.5192 19.1476C59.0323 19.1476 58.5958 19.238 58.2096 19.4189C57.8234 19.5998 57.496 19.8497 57.2274 20.1684C56.9588 20.4871 56.7489 20.8619 56.5978 21.2926C56.4467 21.7233 56.3711 22.1799 56.3711 22.6623V30.5446H53.5001V17.1835ZM79.7318 29.8468C79.7318 31.8626 79.1819 33.3658 78.0822 34.3565C76.9825 35.3472 75.4001 35.8425 73.3349 35.8425C72.6801 35.8425 72.0211 35.7736 71.358 35.6358C70.6948 35.4979 70.0903 35.2654 69.5447 34.938C68.999 34.6106 68.5415 34.1799 68.1721 33.6458C67.8028 33.1117 67.5845 32.457 67.5173 31.6817H70.3884C70.4723 32.0952 70.615 32.4312 70.8165 32.6896C71.018 32.948 71.2572 33.1505 71.5342 33.2969C71.8113 33.4434 72.1177 33.5381 72.4535 33.5812C72.7893 33.6243 73.1418 33.6458 73.5112 33.6458C74.6697 33.6458 75.5176 33.3529 76.0548 32.7671C76.5921 32.1814 76.8607 31.3371 76.8607 30.2345V28.1928H76.8104C76.4074 28.9337 75.8576 29.5109 75.1608 29.9244C74.464 30.3378 73.7127 30.5446 72.9068 30.5446C71.8658 30.5446 70.9802 30.3594 70.2498 29.989C69.5195 29.6185 68.9151 29.1103 68.4366 28.4642C67.9581 27.8181 67.6097 27.0729 67.3914 26.2287C67.1731 25.3845 67.064 24.48 67.064 23.5151C67.064 22.6192 67.1983 21.7664 67.467 20.9566C67.7356 20.1469 68.1218 19.4362 68.6254 18.8245C69.1291 18.2129 69.7461 17.7262 70.4765 17.3644C71.2069 17.0026 72.0337 16.8217 72.9572 16.8217C73.7799 16.8217 74.5354 16.9983 75.2238 17.3515C75.9121 17.7046 76.441 18.2603 76.8104 19.0184H76.8607V17.1835H79.7318V29.8468ZM73.3601 28.2187C73.9981 28.2187 74.5396 28.0852 74.9845 27.8181C75.4294 27.551 75.7904 27.1979 76.0674 26.7585C76.3445 26.3192 76.5459 25.8195 76.6719 25.2596C76.7978 24.6996 76.8607 24.1354 76.8607 23.5668C76.8607 22.9983 76.7936 22.4469 76.6593 21.9128C76.525 21.3787 76.3193 20.9049 76.0422 20.4914C75.7652 20.0779 75.4042 19.7506 74.9593 19.5094C74.5144 19.2682 73.9813 19.1476 73.3601 19.1476C72.7221 19.1476 72.1848 19.2854 71.7483 19.5611C71.3118 19.8367 70.9592 20.1942 70.6906 20.6336C70.4219 21.0729 70.2289 21.5726 70.1113 22.1325C69.9938 22.6925 69.935 23.2481 69.935 23.7994C69.935 24.3508 70.0022 24.8892 70.1365 25.4146C70.2708 25.9401 70.4765 26.4096 70.7535 26.8231C71.0306 27.2366 71.3831 27.5726 71.8113 27.831C72.2394 28.0895 72.7557 28.2187 73.3601 28.2187ZM85.8663 23.5151L81.3583 17.1835H84.8337L87.5536 21.2926L90.3994 17.1835H93.7238L89.2913 23.3601L94.2778 30.5446H90.8276L87.5284 25.6085L84.33 30.5446H80.9553L85.8663 23.5151ZM95.3503 22.1196H102.679V24.9107H95.3503V22.1196ZM105.237 12.0923H108.108V18.915H108.159C108.36 18.5876 108.604 18.2947 108.889 18.0363C109.174 17.7779 109.489 17.5582 109.833 17.3773C110.178 17.1964 110.539 17.0586 110.916 16.9638C111.294 16.869 111.668 16.8217 112.037 16.8217C113.061 16.8217 113.955 17.0069 114.719 17.3773C115.483 17.7477 116.117 18.256 116.621 18.9021C117.124 19.5482 117.502 20.3019 117.754 21.1634C118.006 22.0248 118.132 22.9466 118.132 23.9286C118.132 24.8246 118.018 25.6946 117.792 26.5388C117.565 27.3831 117.221 28.1282 116.759 28.7743C116.297 29.4204 115.714 29.9373 115.009 30.3249C114.304 30.7126 113.473 30.9064 112.516 30.9064C112.079 30.9064 111.638 30.8763 111.193 30.816C110.748 30.7557 110.325 30.6394 109.922 30.4671C109.519 30.2948 109.153 30.0708 108.826 29.7951C108.499 29.5195 108.226 29.1577 108.008 28.7097H107.957V30.5446H105.237V12.0923ZM115.261 23.877C115.261 23.2739 115.185 22.6882 115.034 22.1196C114.883 21.551 114.656 21.0471 114.354 20.6077C114.052 20.1684 113.674 19.8152 113.221 19.5482C112.767 19.2811 112.247 19.1476 111.659 19.1476C110.45 19.1476 109.54 19.5783 108.927 20.4398C108.314 21.3012 108.008 22.4469 108.008 23.877C108.008 24.5489 108.087 25.1734 108.247 25.7506C108.406 26.3278 108.646 26.8231 108.965 27.2366C109.284 27.6501 109.666 27.9775 110.11 28.2187C110.555 28.4599 111.072 28.5805 111.659 28.5805C112.314 28.5805 112.868 28.4427 113.321 28.167C113.775 27.8913 114.148 27.5338 114.442 27.0945C114.736 26.6551 114.946 26.1555 115.072 25.5956C115.198 25.0356 115.261 24.4627 115.261 23.877ZM126.256 30.9064C125.215 30.9064 124.287 30.7298 123.473 30.3766C122.659 30.0234 121.97 29.5367 121.408 28.9165C120.845 28.2962 120.417 27.5554 120.123 26.6939C119.83 25.8324 119.683 24.8849 119.683 23.8511C119.683 22.8346 119.83 21.8956 120.123 21.0342C120.417 20.1727 120.845 19.4319 121.408 18.8116C121.97 18.1914 122.659 17.7046 123.473 17.3515C124.287 16.9983 125.215 16.8217 126.256 16.8217C127.297 16.8217 128.224 16.9983 129.039 17.3515C129.853 17.7046 130.541 18.1914 131.104 18.8116C131.666 19.4319 132.094 20.1727 132.388 21.0342C132.682 21.8956 132.829 22.8346 132.829 23.8511C132.829 24.8849 132.682 25.8324 132.388 26.6939C132.094 27.5554 131.666 28.2962 131.104 28.9165C130.541 29.5367 129.853 30.0234 129.039 30.3766C128.224 30.7298 127.297 30.9064 126.256 30.9064ZM126.256 28.5805C126.894 28.5805 127.448 28.4427 127.918 28.167C128.388 27.8913 128.774 27.5295 129.076 27.0816C129.379 26.6336 129.601 26.1297 129.744 25.5697C129.886 25.0098 129.958 24.4369 129.958 23.8511C129.958 23.2825 129.886 22.714 129.744 22.1454C129.601 21.5769 129.379 21.0729 129.076 20.6336C128.774 20.1942 128.388 19.8367 127.918 19.5611C127.448 19.2854 126.894 19.1476 126.256 19.1476C125.618 19.1476 125.064 19.2854 124.594 19.5611C124.123 19.8367 123.737 20.1942 123.435 20.6336C123.133 21.0729 122.91 21.5769 122.768 22.1454C122.625 22.714 122.554 23.2825 122.554 23.8511C122.554 24.4369 122.625 25.0098 122.768 25.5697C122.91 26.1297 123.133 26.6336 123.435 27.0816C123.737 27.5295 124.123 27.8913 124.594 28.167C125.064 28.4427 125.618 28.5805 126.256 28.5805ZM140.928 30.9064C139.887 30.9064 138.959 30.7298 138.145 30.3766C137.331 30.0234 136.642 29.5367 136.08 28.9165C135.517 28.2962 135.089 27.5554 134.795 26.6939C134.502 25.8324 134.355 24.8849 134.355 23.8511C134.355 22.8346 134.502 21.8956 134.795 21.0342C135.089 20.1727 135.517 19.4319 136.08 18.8116C136.642 18.1914 137.331 17.7046 138.145 17.3515C138.959 16.9983 139.887 16.8217 140.928 16.8217C141.969 16.8217 142.896 16.9983 143.711 17.3515C144.525 17.7046 145.213 18.1914 145.776 18.8116C146.338 19.4319 146.766 20.1727 147.06 21.0342C147.354 21.8956 147.501 22.8346 147.501 23.8511C147.501 24.8849 147.354 25.8324 147.06 26.6939C146.766 27.5554 146.338 28.2962 145.776 28.9165C145.213 29.5367 144.525 30.0234 143.711 30.3766C142.896 30.7298 141.969 30.9064 140.928 30.9064ZM140.928 28.5805C141.566 28.5805 142.12 28.4427 142.59 28.167C143.06 27.8913 143.446 27.5295 143.748 27.0816C144.051 26.6336 144.273 26.1297 144.416 25.5697C144.558 25.0098 144.63 24.4369 144.63 23.8511C144.63 23.2825 144.558 22.714 144.416 22.1454C144.273 21.5769 144.051 21.0729 143.748 20.6336C143.446 20.1942 143.06 19.8367 142.59 19.5611C142.12 19.2854 141.566 19.1476 140.928 19.1476C140.29 19.1476 139.736 19.2854 139.266 19.5611C138.795 19.8367 138.409 20.1942 138.107 20.6336C137.805 21.0729 137.582 21.5769 137.44 22.1454C137.297 22.714 137.226 23.2825 137.226 23.8511C137.226 24.4369 137.297 25.0098 137.44 25.5697C137.582 26.1297 137.805 26.6336 138.107 27.0816C138.409 27.5295 138.795 27.8913 139.266 28.167C139.736 28.4427 140.29 28.5805 140.928 28.5805ZM148.321 17.1835H150.487V13.1777H153.358V17.1835H155.952V19.3802H153.358V26.513C153.358 26.8231 153.371 27.0902 153.396 27.3141C153.421 27.5381 153.48 27.7276 153.572 27.8827C153.665 28.0378 153.803 28.1541 153.988 28.2316C154.173 28.3091 154.424 28.3479 154.743 28.3479C154.945 28.3479 155.146 28.3436 155.348 28.335C155.549 28.3264 155.751 28.2962 155.952 28.2445V30.5188C155.633 30.5532 155.323 30.5877 155.021 30.6221C154.718 30.6566 154.408 30.6738 154.089 30.6738C153.333 30.6738 152.725 30.6006 152.263 30.4541C151.801 30.3077 151.44 30.0923 151.18 29.8081C150.92 29.5238 150.743 29.1663 150.651 28.7355C150.559 28.3048 150.504 27.8138 150.487 27.2625V19.3802H148.321V17.1835ZM159.921 26.2546C160.005 27.116 160.324 27.719 160.878 28.0636C161.432 28.4082 162.095 28.5805 162.868 28.5805C163.136 28.5805 163.443 28.5589 163.787 28.5159C164.131 28.4728 164.454 28.391 164.756 28.2704C165.059 28.1498 165.306 27.9732 165.499 27.7406C165.692 27.508 165.781 27.2022 165.764 26.8231C165.747 26.4441 165.613 26.134 165.361 25.8928C165.109 25.6515 164.786 25.4577 164.391 25.3113C163.997 25.1648 163.548 25.0399 163.044 24.9365C162.54 24.8332 162.028 24.7212 161.508 24.6006C160.97 24.48 160.454 24.3335 159.959 24.1612C159.463 23.9889 159.019 23.7564 158.624 23.4635C158.229 23.1706 157.915 22.7958 157.68 22.3393C157.444 21.8827 157.327 21.3184 157.327 20.6465C157.327 19.9229 157.499 19.3156 157.843 18.8245C158.187 18.3335 158.624 17.9372 159.153 17.6357C159.682 17.3342 160.269 17.1232 160.916 17.0026C161.562 16.882 162.179 16.8217 162.767 16.8217C163.438 16.8217 164.081 16.8949 164.693 17.0413C165.306 17.1878 165.86 17.4247 166.356 17.752C166.851 18.0794 167.262 18.5058 167.59 19.0313C167.917 19.5568 168.123 20.1899 168.207 20.9308H165.21C165.075 20.2244 164.761 19.7506 164.265 19.5094C163.77 19.2682 163.203 19.1476 162.565 19.1476C162.364 19.1476 162.125 19.1648 161.848 19.1993C161.571 19.2337 161.31 19.2983 161.067 19.3931C160.823 19.4879 160.618 19.6257 160.45 19.8066C160.282 19.9875 160.198 20.2244 160.198 20.5173C160.198 20.8791 160.32 21.172 160.563 21.396C160.807 21.62 161.126 21.8052 161.52 21.9516C161.915 22.0981 162.364 22.223 162.868 22.3263C163.371 22.4297 163.892 22.5417 164.429 22.6623C164.949 22.7829 165.462 22.9294 165.965 23.1016C166.469 23.2739 166.918 23.5065 167.313 23.7994C167.707 24.0923 168.026 24.4627 168.27 24.9107C168.513 25.3587 168.635 25.91 168.635 26.5647C168.635 27.3572 168.458 28.0292 168.106 28.5805C167.753 29.1318 167.296 29.5798 166.733 29.9244C166.171 30.2689 165.545 30.5188 164.857 30.6738C164.169 30.8289 163.489 30.9064 162.817 30.9064C161.994 30.9064 161.235 30.8116 160.538 30.6221C159.841 30.4326 159.237 30.144 158.725 29.7564C158.213 29.3687 157.81 28.8863 157.516 28.3091C157.222 27.732 157.067 27.0471 157.05 26.2546H159.921ZM169.254 17.1835H171.42V13.1777H174.291V17.1835H176.885V19.3802H174.291V26.513C174.291 26.8231 174.303 27.0902 174.329 27.3141C174.354 27.5381 174.412 27.7276 174.505 27.8827C174.597 28.0378 174.736 28.1541 174.92 28.2316C175.105 28.3091 175.357 28.3479 175.676 28.3479C175.877 28.3479 176.079 28.3436 176.28 28.335C176.482 28.3264 176.683 28.2962 176.885 28.2445V30.5188C176.566 30.5532 176.255 30.5877 175.953 30.6221C175.651 30.6566 175.34 30.6738 175.021 30.6738C174.266 30.6738 173.657 30.6006 173.195 30.4541C172.734 30.3077 172.373 30.0923 172.112 29.8081C171.852 29.5238 171.676 29.1663 171.583 28.7355C171.491 28.3048 171.437 27.8138 171.42 27.2625V19.3802H169.254V17.1835ZM178.688 17.1835H181.382V19.7678H181.433C181.517 19.406 181.68 19.0528 181.924 18.7082C182.167 18.3637 182.461 18.0492 182.805 17.7649C183.149 17.4807 183.531 17.2524 183.951 17.0801C184.371 16.9078 184.799 16.8217 185.235 16.8217C185.571 16.8217 185.802 16.8303 185.928 16.8475C186.054 16.8647 186.184 16.882 186.318 16.8992V19.742C186.117 19.7075 185.911 19.6774 185.701 19.6515C185.492 19.6257 185.286 19.6128 185.084 19.6128C184.597 19.6128 184.14 19.7118 183.712 19.91C183.284 20.1081 182.91 20.401 182.591 20.7886C182.272 21.1763 182.02 21.6544 181.836 22.223C181.651 22.7915 181.559 23.4462 181.559 24.1871V30.5446H178.688V17.1835ZM198.195 27.5726C198.195 27.9344 198.241 28.1928 198.333 28.3479C198.426 28.503 198.606 28.5805 198.875 28.5805H199.177C199.295 28.5805 199.429 28.5633 199.58 28.5288V30.5704C199.479 30.6049 199.349 30.6437 199.19 30.6867C199.03 30.7298 198.867 30.7686 198.699 30.803C198.531 30.8375 198.363 30.8633 198.195 30.8806C198.027 30.8978 197.884 30.9064 197.767 30.9064C197.179 30.9064 196.692 30.7858 196.306 30.5446C195.92 30.3034 195.668 29.8813 195.551 29.2783C194.98 29.8468 194.279 30.2603 193.448 30.5188C192.617 30.7772 191.815 30.9064 191.043 30.9064C190.455 30.9064 189.892 30.8246 189.355 30.6609C188.818 30.4972 188.344 30.256 187.932 29.9373C187.521 29.6185 187.194 29.2137 186.95 28.7226C186.707 28.2316 186.585 27.6587 186.585 27.004C186.585 26.177 186.732 25.5051 187.026 24.9882C187.319 24.4714 187.706 24.0665 188.184 23.7736C188.663 23.4807 189.2 23.2696 189.796 23.1404C190.392 23.0112 190.992 22.9121 191.597 22.8432C192.117 22.7398 192.612 22.6666 193.083 22.6235C193.553 22.5805 193.968 22.5072 194.329 22.4039C194.69 22.3005 194.976 22.1411 195.185 21.9258C195.395 21.7104 195.5 21.3874 195.5 20.9566C195.5 20.5776 195.412 20.2675 195.236 20.0263C195.059 19.7851 194.841 19.5998 194.581 19.4706C194.321 19.3414 194.031 19.2553 193.712 19.2122C193.393 19.1691 193.091 19.1476 192.805 19.1476C192 19.1476 191.336 19.3199 190.816 19.6645C190.295 20.009 190.002 20.5431 189.934 21.2668H187.063C187.114 20.4053 187.315 19.6903 187.668 19.1217C188.02 18.5532 188.47 18.0966 189.015 17.752C189.561 17.4074 190.178 17.1662 190.866 17.0284C191.555 16.8906 192.26 16.8217 192.982 16.8217C193.62 16.8217 194.249 16.8906 194.871 17.0284C195.492 17.1662 196.05 17.3902 196.545 17.7003C197.041 18.0105 197.439 18.411 197.742 18.9021C198.044 19.3931 198.195 19.9918 198.195 20.6982V27.5726ZM195.324 23.8511C194.887 24.144 194.35 24.3206 193.712 24.3809C193.074 24.4412 192.436 24.5317 191.798 24.6523C191.496 24.7039 191.202 24.7772 190.917 24.8719C190.631 24.9667 190.379 25.0959 190.161 25.2596C189.943 25.4233 189.771 25.6386 189.645 25.9057C189.519 26.1727 189.456 26.4958 189.456 26.8748C189.456 27.2022 189.548 27.4778 189.733 27.7018C189.918 27.9258 190.14 28.1024 190.4 28.2316C190.661 28.3608 190.946 28.4513 191.257 28.503C191.567 28.5546 191.848 28.5805 192.1 28.5805C192.419 28.5805 192.764 28.5374 193.133 28.4513C193.502 28.3651 193.851 28.2187 194.178 28.0119C194.505 27.8052 194.778 27.5424 194.997 27.2237C195.215 26.905 195.324 26.513 195.324 26.0478V23.8511ZM201.106 17.1835H203.826V18.9925H203.876C204.279 18.2172 204.842 17.6616 205.563 17.3256C206.285 16.9896 207.066 16.8217 207.906 16.8217C208.93 16.8217 209.824 17.0069 210.588 17.3773C211.352 17.7477 211.985 18.256 212.489 18.9021C212.993 19.5482 213.371 20.3019 213.622 21.1634C213.874 22.0248 214 22.9466 214 23.9286C214 24.8246 213.887 25.6946 213.66 26.5388C213.434 27.3831 213.089 28.1282 212.628 28.7743C212.166 29.4204 211.583 29.9373 210.877 30.3249C210.172 30.7126 209.341 30.9064 208.384 30.9064C207.964 30.9064 207.545 30.8676 207.125 30.7901C206.705 30.7126 206.302 30.5877 205.916 30.4154C205.53 30.2431 205.173 30.0234 204.846 29.7564C204.518 29.4893 204.245 29.1749 204.027 28.8131H203.977V35.4807H201.106V17.1835ZM211.129 23.877C211.129 23.2739 211.054 22.6882 210.903 22.1196C210.751 21.551 210.525 21.0471 210.223 20.6077C209.92 20.1684 209.543 19.8152 209.089 19.5482C208.636 19.2811 208.115 19.1476 207.528 19.1476C206.319 19.1476 205.408 19.5783 204.795 20.4398C204.183 21.3012 203.876 22.4469 203.876 23.877C203.876 24.5489 203.956 25.1734 204.115 25.7506C204.275 26.3278 204.514 26.8231 204.833 27.2366C205.152 27.6501 205.534 27.9775 205.979 28.2187C206.424 28.4599 206.94 28.5805 207.528 28.5805C208.183 28.5805 208.737 28.4427 209.19 28.167C209.643 27.8913 210.017 27.5338 210.311 27.0945C210.605 26.6551 210.814 26.1555 210.94 25.5956C211.066 25.0356 211.129 24.4627 211.129 23.877Z" fill="white"/>
</svg>
