<svg width="23" height="24" viewBox="0 0 23 24" fill="none" xmlns="http://www.w3.org/2000/svg">
<path fill-rule="evenodd" clip-rule="evenodd" d="M21.7501 0.158778C21.8563 0.224476 21.944 0.316218 22.0048 0.425305C22.0656 0.534392 22.0976 0.657209 22.0977 0.782111V22.7821C22.0977 22.9766 22.0204 23.1631 21.8829 23.3007C21.7453 23.4382 21.5588 23.5154 21.3643 23.5154H16.9643C16.7698 23.5154 16.5833 23.4382 16.4458 23.3007C16.3083 23.1631 16.231 22.9766 16.231 22.7821V20.5821H14.7643V22.7821C14.7643 22.9766 14.6871 23.1631 14.5495 23.3007C14.412 23.4382 14.2255 23.5154 14.031 23.5154H0.83099C0.636497 23.5154 0.449971 23.4382 0.312445 23.3007C0.174918 23.1631 0.0976563 22.9766 0.0976562 22.7821V14.7154C0.0977731 14.5616 0.146273 14.4117 0.236293 14.2869C0.326312 14.1622 0.453291 14.0689 0.599256 14.0202L8.89766 11.2541V6.64878C8.89766 6.5127 8.93553 6.37931 9.00702 6.26353C9.07851 6.14775 9.1808 6.05414 9.30246 5.99318L21.0358 0.126511C21.1477 0.070493 21.2721 0.0440495 21.3971 0.0496974C21.5221 0.0553454 21.6436 0.0928969 21.7501 0.158778ZM8.89766 12.8L1.56432 15.2434V22.0488H8.89766V12.8ZM10.3643 22.0488H13.2977V19.8488C13.2977 19.6543 13.3749 19.4678 13.5124 19.3302C13.65 19.1927 13.8365 19.1154 14.031 19.1154H16.9643C17.1588 19.1154 17.3453 19.1927 17.4829 19.3302C17.6204 19.4678 17.6977 19.6543 17.6977 19.8488V22.0488H20.631V1.96864L10.3643 7.10198V22.0488Z" fill="#424B5A"/>
<path d="M3.03125 16.1823H4.49792V17.649H3.03125V16.1823ZM5.96458 16.1823H7.43125V17.649H5.96458V16.1823ZM3.03125 19.1156H4.49792V20.5823H3.03125V19.1156ZM5.96458 19.1156H7.43125V20.5823H5.96458V19.1156ZM11.8313 13.249H13.2979V14.7156H11.8313V13.249ZM14.7646 13.249H16.2313V14.7156H14.7646V13.249ZM11.8313 16.1823H13.2979V17.649H11.8313V16.1823ZM14.7646 16.1823H16.2313V17.649H14.7646V16.1823ZM17.6979 13.249H19.1646V14.7156H17.6979V13.249ZM17.6979 16.1823H19.1646V17.649H17.6979V16.1823ZM11.8313 10.3156H13.2979V11.7823H11.8313V10.3156ZM14.7646 10.3156H16.2313V11.7823H14.7646V10.3156ZM17.6979 10.3156H19.1646V11.7823H17.6979V10.3156ZM11.8313 7.38231H13.2979V8.84897H11.8313V7.38231ZM14.7646 7.38231H16.2313V8.84897H14.7646V7.38231ZM17.6979 7.38231H19.1646V8.84897H17.6979V7.38231ZM17.6979 4.44897H19.1646V5.91564H17.6979V4.44897Z" fill="#424B5A"/>
</svg>
