<svg width="23" height="24" viewBox="0 0 23 24" fill="none" xmlns="http://www.w3.org/2000/svg">
<path fill-rule="evenodd" clip-rule="evenodd" d="M21.7501 0.1589C21.8563 0.224598 21.944 0.31634 22.0048 0.425427C22.0656 0.534514 22.0976 0.657331 22.0977 0.782233V22.7822C22.0977 22.9767 22.0204 23.1633 21.8829 23.3008C21.7453 23.4383 21.5588 23.5156 21.3643 23.5156H16.9643C16.7698 23.5156 16.5833 23.4383 16.4458 23.3008C16.3083 23.1633 16.231 22.9767 16.231 22.7822V20.5822H14.7643V22.7822C14.7643 22.9767 14.6871 23.1633 14.5495 23.3008C14.412 23.4383 14.2255 23.5156 14.031 23.5156H0.83099C0.636497 23.5156 0.449971 23.4383 0.312445 23.3008C0.174918 23.1633 0.0976563 22.9767 0.0976562 22.7822V14.7156C0.0977731 14.5617 0.146273 14.4118 0.236293 14.287C0.326312 14.1623 0.453291 14.069 0.599256 14.0204L8.89766 11.2542V6.6489C8.89766 6.51282 8.93553 6.37943 9.00702 6.26365C9.07851 6.14787 9.1808 6.05426 9.30246 5.9933L21.0358 0.126633C21.1477 0.0706151 21.2721 0.0441715 21.3971 0.0498195C21.5221 0.0554675 21.6436 0.093019 21.7501 0.1589ZM8.89766 12.8001L1.56432 15.2436V22.0489H8.89766V12.8001ZM10.3643 22.0489H13.2977V19.8489C13.2977 19.6544 13.3749 19.4679 13.5124 19.3304C13.65 19.1928 13.8365 19.1156 14.031 19.1156H16.9643C17.1588 19.1156 17.3453 19.1928 17.4829 19.3304C17.6204 19.4679 17.6977 19.6544 17.6977 19.8489V22.0489H20.631V1.96877L10.3643 7.1021V22.0489Z" fill="white"/>
<path d="M3.03125 16.1823H4.49792V17.649H3.03125V16.1823ZM5.96458 16.1823H7.43125V17.649H5.96458V16.1823ZM3.03125 19.1156H4.49792V20.5823H3.03125V19.1156ZM5.96458 19.1156H7.43125V20.5823H5.96458V19.1156ZM11.8313 13.249H13.2979V14.7156H11.8313V13.249ZM14.7646 13.249H16.2313V14.7156H14.7646V13.249ZM11.8313 16.1823H13.2979V17.649H11.8313V16.1823ZM14.7646 16.1823H16.2313V17.649H14.7646V16.1823ZM17.6979 13.249H19.1646V14.7156H17.6979V13.249ZM17.6979 16.1823H19.1646V17.649H17.6979V16.1823ZM11.8313 10.3156H13.2979V11.7823H11.8313V10.3156ZM14.7646 10.3156H16.2313V11.7823H14.7646V10.3156ZM17.6979 10.3156H19.1646V11.7823H17.6979V10.3156ZM11.8313 7.38231H13.2979V8.84897H11.8313V7.38231ZM14.7646 7.38231H16.2313V8.84897H14.7646V7.38231ZM17.6979 7.38231H19.1646V8.84897H17.6979V7.38231ZM17.6979 4.44897H19.1646V5.91564H17.6979V4.44897Z" fill="white"/>
</svg>
