<svg width="25" height="25" viewBox="0 0 25 25" fill="none" xmlns="http://www.w3.org/2000/svg">
<path d="M10.8328 17.0504C10.3128 16.9927 9.80136 16.8744 9.30884 16.6979C9.32384 16.3439 9.33284 15.9749 9.33284 15.5909V15.4709V15.0854C9.79784 15.3074 10.3033 15.4619 10.8328 15.5384V11.8409C10.8328 11.2442 11.0699 10.6719 11.4918 10.2499C11.9138 9.82796 12.4861 9.59091 13.0828 9.59091H16.7803C16.6607 8.75974 16.3435 7.96939 15.8552 7.28619C15.3669 6.603 14.7219 6.04689 13.9743 5.66455C13.2266 5.2822 12.3982 5.08478 11.5585 5.08884C10.7187 5.09291 9.89224 5.29834 9.14834 5.68791C9.02968 5.19731 8.83428 4.72853 8.56934 4.29891C9.54174 3.81355 10.617 3.57016 11.7036 3.58944C12.7902 3.60872 13.8561 3.8901 14.8107 4.40965C15.7653 4.9292 16.5803 5.67157 17.1865 6.57363C17.7926 7.4757 18.172 8.51079 18.2923 9.59091H20.5828C21.1796 9.59091 21.7519 9.82796 22.1738 10.2499C22.5958 10.6719 22.8328 11.2442 22.8328 11.8409V19.3409C22.8328 19.9376 22.5958 20.5099 22.1738 20.9319C21.7519 21.3539 21.1796 21.5909 20.5828 21.5909H13.0828C12.4861 21.5909 11.9138 21.3539 11.4918 20.9319C11.0699 20.5099 10.8328 19.9376 10.8328 19.3409V17.0504ZM18.2923 11.0909C18.1219 12.6128 17.4392 14.0316 16.3564 15.1145C15.2735 16.1973 13.8547 16.88 12.3328 17.0504V19.3409C12.3328 19.5398 12.4119 19.7306 12.5525 19.8712C12.6932 20.0119 12.8839 20.0909 13.0828 20.0909H20.5828C20.7817 20.0909 20.9725 20.0119 21.1132 19.8712C21.2538 19.7306 21.3328 19.5398 21.3328 19.3409V11.8409C21.3328 11.642 21.2538 11.4512 21.1132 11.3106C20.9725 11.1699 20.7817 11.0909 20.5828 11.0909H18.2923ZM16.7803 11.0909H13.0828C12.8839 11.0909 12.6932 11.1699 12.5525 11.3106C12.4119 11.4512 12.3328 11.642 12.3328 11.8409V15.5384C13.4548 15.3762 14.4942 14.8555 15.2958 14.0539C16.0974 13.2523 16.6182 12.2129 16.7803 11.0909Z" fill="white"/>
<path d="M7.52453 11.9323C7.36703 11.3533 7.11203 10.7728 6.67403 10.3273C7.38203 9.65685 7.83203 8.58885 7.83203 7.34085C7.83203 6.29535 7.62053 5.57685 7.23803 5.00235C7.06831 4.75526 6.87215 4.52741 6.65303 4.32285C6.56905 4.24177 6.48405 4.16176 6.39803 4.08285C6.30653 3.99735 6.22253 3.91935 6.11303 3.80985C5.88803 3.58485 5.86253 3.40485 5.86253 3.31035C5.86278 3.25782 5.87139 3.20567 5.88803 3.15585C5.95661 3.00754 5.97488 2.84089 5.94006 2.68124C5.90524 2.52159 5.81924 2.37769 5.69512 2.2714C5.57101 2.16512 5.41559 2.10228 5.25249 2.09243C5.08938 2.08258 4.92753 2.12627 4.79153 2.21685L4.78853 2.21835L4.78403 2.22135L4.77053 2.23035L4.72553 2.26035C4.50053 2.42083 4.28376 2.59255 4.07603 2.77485C3.70103 3.10635 3.21203 3.59685 2.86553 4.18185C2.56306 4.66684 2.3203 5.18661 2.14253 5.72985C1.96253 6.26835 1.83203 6.85185 1.83203 7.34085C1.83203 8.58885 2.28203 9.65535 2.99003 10.3288C2.55203 10.7728 2.29703 11.3533 2.13953 11.9338C1.83203 13.0618 1.83203 14.4568 1.83203 15.5353V15.5908C1.83203 18.6778 2.40953 20.5108 3.06353 21.6013C3.39203 22.1473 3.73403 22.4998 4.02053 22.7218C4.17319 22.8409 4.33933 22.9416 4.51553 23.0218C4.61743 23.059 4.7239 23.0823 4.83203 23.0908C4.95803 23.0908 5.14853 23.0218 5.14853 23.0218C5.32473 22.9416 5.49087 22.8409 5.64353 22.7218C5.92853 22.4998 6.27353 22.1473 6.60053 21.6013C7.25453 20.5123 7.83203 18.6778 7.83203 15.5908V15.5368C7.83203 14.4568 7.83203 13.0633 7.52453 11.9323ZM4.06253 11.3773C4.23203 11.2063 4.45853 11.0908 4.83203 11.0908C5.20703 11.0908 5.43203 11.2078 5.60153 11.3758C5.79053 11.5663 5.95403 11.8753 6.07703 12.3268C6.32603 13.2433 6.33203 14.4463 6.33203 15.5908C6.33203 18.5038 5.78453 20.0458 5.31353 20.8303C5.13353 21.1303 4.96403 21.3238 4.83203 21.4453C4.64343 21.264 4.48133 21.057 4.35053 20.8303C3.87953 20.0443 3.33203 18.5038 3.33203 15.5908C3.33203 14.4463 3.33803 13.2433 3.58703 12.3268C3.71003 11.8768 3.87353 11.5663 4.06253 11.3758V11.3773ZM4.83203 9.59085C4.25453 9.59085 3.33203 8.94885 3.33203 7.34085C3.33203 7.08135 3.41003 6.67035 3.56603 6.20535C3.70819 5.76635 3.90418 5.34666 4.14953 4.95585C4.28003 4.73535 4.44953 4.52085 4.63253 4.32435C4.73603 4.50735 4.87253 4.69185 5.05253 4.87185C5.16203 4.98135 5.30453 5.11335 5.42603 5.22735L5.61203 5.40135C5.76953 5.55435 5.89103 5.68785 5.98853 5.83635C6.16853 6.10485 6.33203 6.51135 6.33203 7.34085C6.33203 8.94885 5.40953 9.59085 4.83203 9.59085Z" fill="white"/>
</svg>
