<svg width="25" height="25" viewBox="0 0 25 25" fill="none" xmlns="http://www.w3.org/2000/svg">
<path d="M11.0008 17.0458C10.4808 16.9881 9.96933 16.8698 9.4768 16.6933C9.4918 16.3393 9.5008 15.9703 9.5008 15.5863V15.4663V15.0808C9.9658 15.3028 10.4713 15.4573 11.0008 15.5338V11.8363C11.0008 11.2395 11.2379 10.6672 11.6598 10.2453C12.0818 9.82332 12.6541 9.58627 13.2508 9.58627H16.9483C16.8287 8.7551 16.5114 7.96475 16.0232 7.28155C15.5349 6.59836 14.8899 6.04225 14.1422 5.65991C13.3946 5.27757 12.5662 5.08014 11.7264 5.08421C10.8867 5.08827 10.0602 5.29371 9.3163 5.68327C9.19765 5.19267 9.00225 4.72389 8.7373 4.29427C9.70971 3.80891 10.7849 3.56552 11.8716 3.5848C12.9582 3.60408 14.0241 3.88546 14.9787 4.40501C15.9333 4.92456 16.7483 5.66693 17.3544 6.56899C17.9606 7.47106 18.34 8.50615 18.4603 9.58627H20.7508C21.3475 9.58627 21.9198 9.82332 22.3418 10.2453C22.7638 10.6672 23.0008 11.2395 23.0008 11.8363V19.3363C23.0008 19.933 22.7638 20.5053 22.3418 20.9273C21.9198 21.3492 21.3475 21.5863 20.7508 21.5863H13.2508C12.6541 21.5863 12.0818 21.3492 11.6598 20.9273C11.2379 20.5053 11.0008 19.933 11.0008 19.3363V17.0458ZM18.4603 11.0863C18.2899 12.6082 17.6072 14.0269 16.5243 15.1098C15.4415 16.1927 14.0227 16.8753 12.5008 17.0458V19.3363C12.5008 19.5352 12.5798 19.7259 12.7205 19.8666C12.8611 20.0073 13.0519 20.0863 13.2508 20.0863H20.7508C20.9497 20.0863 21.1405 20.0073 21.2811 19.8666C21.4218 19.7259 21.5008 19.5352 21.5008 19.3363V11.8363C21.5008 11.6374 21.4218 11.4466 21.2811 11.3059C21.1405 11.1653 20.9497 11.0863 20.7508 11.0863H18.4603ZM16.9483 11.0863H13.2508C13.0519 11.0863 12.8611 11.1653 12.7205 11.3059C12.5798 11.4466 12.5008 11.6374 12.5008 11.8363V15.5338C13.6228 15.3716 14.6622 14.8508 15.4638 14.0492C16.2654 13.2476 16.7861 12.2082 16.9483 11.0863V11.0863Z" fill="#424B5A"/>
<path d="M7.6925 11.9278C7.535 11.3488 7.28 10.7683 6.842 10.3228C7.55 9.65233 8 8.58433 8 7.33633C8 6.29083 7.7885 5.57233 7.406 4.99783C7.23628 4.75074 7.04012 4.52289 6.821 4.31833C6.73702 4.23725 6.65201 4.15725 6.566 4.07833C6.4745 3.99283 6.3905 3.91483 6.281 3.80533C6.056 3.58033 6.0305 3.40033 6.0305 3.30583C6.03075 3.2533 6.03936 3.20115 6.056 3.15133C6.12458 3.00302 6.14285 2.83637 6.10803 2.67672C6.07321 2.51708 5.9872 2.37317 5.86309 2.26689C5.73898 2.1606 5.58356 2.09776 5.42046 2.08791C5.25735 2.07806 5.0955 2.12175 4.9595 2.21233L4.9565 2.21383L4.952 2.21683L4.9385 2.22583L4.8935 2.25583C4.6685 2.41632 4.45172 2.58804 4.244 2.77033C3.869 3.10183 3.38 3.59233 3.0335 4.17733C2.73103 4.66232 2.48827 5.18209 2.3105 5.72533C2.1305 6.26383 2 6.84733 2 7.33633C2 8.58433 2.45 9.65083 3.158 10.3243C2.72 10.7683 2.465 11.3488 2.3075 11.9293C2 13.0573 2 14.4523 2 15.5308V15.5863C2 18.6733 2.5775 20.5063 3.2315 21.5968C3.56 22.1428 3.902 22.4953 4.1885 22.7173C4.34116 22.8364 4.5073 22.9371 4.6835 23.0173C4.7854 23.0545 4.89187 23.0777 5 23.0863C5.126 23.0863 5.3165 23.0173 5.3165 23.0173C5.4927 22.9371 5.65884 22.8364 5.8115 22.7173C6.0965 22.4953 6.4415 22.1428 6.7685 21.5968C7.4225 20.5078 8 18.6733 8 15.5863V15.5323C8 14.4523 8 13.0588 7.6925 11.9278ZM4.2305 11.3728C4.4 11.2018 4.6265 11.0863 5 11.0863C5.375 11.0863 5.6 11.2033 5.7695 11.3713C5.9585 11.5618 6.122 11.8708 6.245 12.3223C6.494 13.2388 6.5 14.4418 6.5 15.5863C6.5 18.4993 5.9525 20.0413 5.4815 20.8258C5.3015 21.1258 5.132 21.3193 5 21.4408C4.8114 21.2595 4.6493 21.0524 4.5185 20.8258C4.0475 20.0398 3.5 18.4993 3.5 15.5863C3.5 14.4418 3.506 13.2388 3.755 12.3223C3.878 11.8723 4.0415 11.5618 4.2305 11.3713V11.3728ZM5 9.58633C4.4225 9.58633 3.5 8.94433 3.5 7.33633C3.5 7.07683 3.578 6.66583 3.734 6.20083C3.87616 5.76184 4.07215 5.34214 4.3175 4.95133C4.448 4.73083 4.6175 4.51633 4.8005 4.31983C4.904 4.50283 5.0405 4.68733 5.2205 4.86733C5.33 4.97683 5.4725 5.10883 5.594 5.22283L5.78 5.39683C5.9375 5.54983 6.059 5.68333 6.1565 5.83183C6.3365 6.10033 6.5 6.50683 6.5 7.33633C6.5 8.94433 5.5775 9.58633 5 9.58633Z" fill="#424B5A"/>
</svg>
