<svg width="22" height="23" viewBox="0 0 22 23" fill="none" xmlns="http://www.w3.org/2000/svg">
<path d="M20.6229 9.75187L20.6229 9.75191L20.6298 9.74645C21.0998 9.37044 21.2032 8.71731 20.9398 8.21973L20.9333 8.2075L20.9264 8.19551L19.0773 4.99432C18.76 4.431 18.1186 4.2797 17.6213 4.44548L17.5998 4.45265L17.5787 4.46112L15.6595 5.23268C15.3477 5.01952 15.0226 4.8295 14.6779 4.66376L14.389 2.62185L14.389 2.62184L14.3881 2.61568C14.2961 2.00276 13.7715 1.5835 13.1835 1.5835H9.48056C8.86922 1.5835 8.37605 2.02574 8.28756 2.61568L8.28754 2.61567L8.28666 2.62185L7.99761 4.66446C7.6518 4.83165 7.32513 5.0239 7.01753 5.23322L5.09691 4.46112L5.09693 4.46107L5.089 4.45799C4.53782 4.24364 3.89978 4.45936 3.59827 4.99436L1.74923 8.19551L1.74914 8.19546L1.74306 8.20641C1.45843 8.71874 1.55947 9.37656 2.05725 9.7554L3.67036 11.0153C3.65117 11.2025 3.63901 11.3967 3.63901 11.5909C3.63901 11.7789 3.64703 11.9716 3.66333 12.1628L2.04116 13.4298L2.04113 13.4298L2.0343 13.4353C1.56429 13.8113 1.46084 14.4644 1.72427 14.962L1.73074 14.9742L1.73766 14.9862L3.58666 18.1873C3.90399 18.7507 4.54538 18.902 5.04276 18.7362L5.06429 18.7291L5.08534 18.7206L7.0046 17.949C7.31641 18.1622 7.64145 18.3522 7.98614 18.5179L8.27509 20.5599L8.27808 20.581L8.28226 20.6019C8.39302 21.1557 8.86364 21.5982 9.48056 21.5982H13.1835C13.7578 21.5982 14.3054 21.1878 14.3791 20.5481L14.6665 18.5172C15.0123 18.3501 15.3389 18.1578 15.6465 17.9485L17.5672 18.7206L17.5671 18.7206L17.5751 18.7237C18.1262 18.9381 18.7643 18.7224 19.0658 18.1874L20.9148 14.9862L20.9149 14.9863L20.921 14.9753C21.2052 14.4637 21.1049 13.807 20.6089 13.4279L19.0034 12.1589C19.017 11.9754 19.0251 11.7859 19.0251 11.5909C19.0251 11.3973 19.0171 11.2066 19.001 11.0187L20.6229 9.75187ZM11.332 14.3124C9.83691 14.3124 8.61052 13.086 8.61052 11.5909C8.61052 10.0957 9.83691 8.86935 11.332 8.86935C12.8271 8.86935 14.0535 10.0957 14.0535 11.5909C14.0535 13.086 12.8271 14.3124 11.332 14.3124Z" stroke="white" stroke-width="1.5"/>
</svg>
