<svg width="21" height="23" viewBox="0 0 21 23" fill="none" xmlns="http://www.w3.org/2000/svg">
<path d="M19.7909 9.74748L19.7909 9.74752L19.7977 9.74206C20.2677 9.36605 20.3712 8.71292 20.1078 8.21533L20.1013 8.2031L20.0944 8.19112L18.2454 4.99002C17.928 4.42662 17.2866 4.27529 16.7893 4.44108L16.7677 4.44826L16.7467 4.45672L14.8274 5.22828C14.5156 5.01512 14.1906 4.8251 13.8459 4.65937L13.5569 2.61745L13.557 2.61745L13.556 2.61128C13.4641 1.99837 12.9395 1.5791 12.3515 1.5791H8.64853C8.03718 1.5791 7.54402 2.02134 7.45553 2.61128L7.4555 2.61128L7.45463 2.61745L7.16558 4.66007C6.81977 4.82726 6.4931 5.0195 6.1855 5.22883L4.26488 4.45672L4.2649 4.45668L4.25697 4.45359C3.70578 4.23924 3.06774 4.45497 2.76624 4.98998L0.917204 8.19112L0.917113 8.19106L0.91103 8.20201C0.626399 8.71435 0.727442 9.37217 1.22522 9.75101L2.83832 11.0109C2.81914 11.1981 2.80698 11.3923 2.80698 11.5865C2.80698 11.7745 2.815 11.9672 2.83129 12.1584L1.20913 13.4254L1.2091 13.4254L1.20227 13.4309C0.732257 13.8069 0.628807 14.46 0.892235 14.9576L0.89871 14.9698L0.905632 14.9818L2.75463 18.1829C3.07197 18.7463 3.71336 18.8976 4.21073 18.7318L4.23226 18.7247L4.25331 18.7162L6.17257 17.9446C6.48438 18.1578 6.80942 18.3478 7.15411 18.5136L7.44306 20.5555L7.44605 20.5766L7.45022 20.5975C7.56099 21.1513 8.03161 21.5938 8.64853 21.5938H12.3515C12.9258 21.5938 13.4734 21.1834 13.547 20.5437L13.8344 18.5129C14.1802 18.3457 14.5069 18.1534 14.8145 17.9441L16.7351 18.7162L16.7351 18.7162L16.743 18.7193C17.2942 18.9337 17.9322 18.718 18.2337 18.1831L20.0828 14.9818L20.0829 14.9819L20.089 14.9709C20.3732 14.4593 20.2728 13.8026 19.7769 13.4235L18.1713 12.1545C18.185 11.971 18.193 11.7815 18.193 11.5865C18.193 11.393 18.1851 11.2022 18.169 11.0143L19.7909 9.74748ZM10.5 14.308C9.00488 14.308 7.77849 13.0816 7.77849 11.5865C7.77849 10.0913 9.00488 8.86495 10.5 8.86495C11.9951 8.86495 13.2215 10.0913 13.2215 11.5865C13.2215 13.0816 11.9951 14.308 10.5 14.308Z" stroke="#424B5A" stroke-width="1.5"/>
</svg>
