<svg width="21" height="21" viewBox="0 0 21 21" fill="none" xmlns="http://www.w3.org/2000/svg">
<path d="M10.502 0.214478C4.98195 0.214478 0.501953 4.69448 0.501953 10.2145C0.501953 15.7345 4.98195 20.2145 10.502 20.2145C16.022 20.2145 20.502 15.7345 20.502 10.2145C20.502 4.69448 16.022 0.214478 10.502 0.214478ZM17.962 7.33448L15.182 8.48448C14.9315 7.8106 14.5381 7.19891 14.0289 6.69142C13.5197 6.18393 12.9067 5.79266 12.232 5.54448L13.382 2.76448C15.482 3.56448 17.152 5.23448 17.962 7.33448ZM10.502 13.2145C8.84195 13.2145 7.50195 11.8745 7.50195 10.2145C7.50195 8.55448 8.84195 7.21448 10.502 7.21448C12.162 7.21448 13.502 8.55448 13.502 10.2145C13.502 11.8745 12.162 13.2145 10.502 13.2145ZM7.63195 2.75448L8.80195 5.53448C8.11927 5.78327 7.49901 6.17786 6.98436 6.69078C6.46971 7.2037 6.07304 7.82263 5.82195 8.50448L3.04195 7.34448C3.44294 6.30063 4.05873 5.35265 4.84943 4.56195C5.64013 3.77125 6.5881 3.15546 7.63195 2.75448ZM3.04195 13.0845L5.82195 11.9345C6.07129 12.6145 6.46632 13.2319 6.97936 13.7432C7.4924 14.2545 8.11105 14.6474 8.79195 14.8945L7.62195 17.6745C6.58033 17.2717 5.63464 16.6551 4.84581 15.8646C4.05697 15.074 3.44249 14.127 3.04195 13.0845ZM13.382 17.6745L12.232 14.8945C12.9098 14.6433 13.5249 14.2475 14.0343 13.7346C14.5438 13.2217 14.9354 12.604 15.182 11.9245L17.962 13.0945C17.5596 14.1348 16.9444 15.0796 16.1557 15.8683C15.367 16.657 14.4223 17.2722 13.382 17.6745Z" fill="#424B5A"/>
</svg>
