<svg width="21" height="21" viewBox="0 0 21 21" fill="none" xmlns="http://www.w3.org/2000/svg">
<path d="M10.6914 0.782227C5.17141 0.782227 0.691406 5.26223 0.691406 10.7822C0.691406 16.3022 5.17141 20.7822 10.6914 20.7822C16.2114 20.7822 20.6914 16.3022 20.6914 10.7822C20.6914 5.26223 16.2114 0.782227 10.6914 0.782227ZM18.1514 7.90223L15.3714 9.05223C15.1209 8.37835 14.7276 7.76666 14.2184 7.25917C13.7092 6.75168 13.0961 6.36041 12.4214 6.11223L13.5714 3.33223C15.6714 4.13223 17.3414 5.80223 18.1514 7.90223ZM10.6914 13.7822C9.03141 13.7822 7.69141 12.4422 7.69141 10.7822C7.69141 9.12223 9.03141 7.78223 10.6914 7.78223C12.3514 7.78223 13.6914 9.12223 13.6914 10.7822C13.6914 12.4422 12.3514 13.7822 10.6914 13.7822ZM7.82141 3.32223L8.99141 6.10223C8.30872 6.35102 7.68846 6.74561 7.17381 7.25853C6.65916 7.77145 6.26249 8.39038 6.01141 9.07223L3.23141 7.91223C3.63239 6.86838 4.24818 5.9204 5.03888 5.1297C5.82958 4.339 6.77756 3.72321 7.82141 3.32223ZM3.23141 13.6522L6.01141 12.5022C6.26074 13.1823 6.65577 13.7996 7.16881 14.3109C7.68186 14.8222 8.3005 15.2152 8.98141 15.4622L7.81141 18.2422C6.76978 17.8394 5.82409 17.2229 5.03526 16.4323C4.24643 15.6418 3.63195 14.6947 3.23141 13.6522ZM13.5714 18.2422L12.4214 15.4622C13.0993 15.2111 13.7143 14.8153 14.2238 14.3024C14.7332 13.7895 15.1248 13.1718 15.3714 12.4922L18.1514 13.6622C17.7491 14.7025 17.1339 15.6473 16.3452 16.436C15.5565 17.2247 14.6117 17.8399 13.5714 18.2422Z" fill="white"/>
</svg>
