<svg width="23" height="23" viewBox="0 0 23 23" fill="none" xmlns="http://www.w3.org/2000/svg">
<path d="M11.6914 0.782227C5.62601 0.782227 0.691406 5.71683 0.691406 11.7822V16.3395C0.691406 17.4659 1.67811 18.3822 2.89141 18.3822H3.99141C4.28314 18.3822 4.56293 18.2663 4.76922 18.06C4.97551 17.8538 5.09141 17.574 5.09141 17.2822V11.6249C5.09141 11.3332 4.97551 11.0534 4.76922 10.8471C4.56293 10.6408 4.28314 10.5249 3.99141 10.5249H2.99261C3.60421 6.26793 7.26721 2.98223 11.6914 2.98223C16.1156 2.98223 19.7786 6.26793 20.3902 10.5249H19.3914C19.0997 10.5249 18.8199 10.6408 18.6136 10.8471C18.4073 11.0534 18.2914 11.3332 18.2914 11.6249V18.3822C18.2914 19.5955 17.3047 20.5822 16.0914 20.5822H13.8914V19.4822H9.49141V22.7822H16.0914C18.518 22.7822 20.4914 20.8088 20.4914 18.3822C21.7047 18.3822 22.6914 17.4659 22.6914 16.3395V11.7822C22.6914 5.71683 17.7568 0.782227 11.6914 0.782227Z" fill="white"/>
</svg>
