<svg width="23" height="23" viewBox="0 0 23 23" fill="none" xmlns="http://www.w3.org/2000/svg">
<path d="M11.502 0.214478C5.43655 0.214478 0.501953 5.14908 0.501953 11.2145V15.7718C0.501953 16.8982 1.48865 17.8145 2.70195 17.8145H3.80195C4.09369 17.8145 4.37348 17.6986 4.57977 17.4923C4.78606 17.286 4.90195 17.0062 4.90195 16.7145V11.0572C4.90195 10.7654 4.78606 10.4856 4.57977 10.2794C4.37348 10.0731 4.09369 9.95718 3.80195 9.95718H2.80315C3.41475 5.70018 7.07775 2.41448 11.502 2.41448C15.9262 2.41448 19.5892 5.70018 20.2008 9.95718H19.202C18.9102 9.95718 18.6304 10.0731 18.4241 10.2794C18.2178 10.4856 18.102 10.7654 18.102 11.0572V17.8145C18.102 19.0278 17.1153 20.0145 15.902 20.0145H13.702V18.9145H9.30195V22.2145H15.902C18.3286 22.2145 20.302 20.2411 20.302 17.8145C21.5153 17.8145 22.502 16.8982 22.502 15.7718V11.2145C22.502 5.14908 17.5674 0.214478 11.502 0.214478Z" fill="#424B5A"/>
</svg>
