<svg width="655" height="468" viewBox="0 0 655 468" fill="none" xmlns="http://www.w3.org/2000/svg">
<path d="M284.557 291.896L286.22 240.868L199.963 241.985C193.954 241.722 187.964 241.118 182.024 240.174L221.286 262.751C221.659 262.886 221.981 263.132 222.209 263.456C222.437 263.78 222.559 264.166 222.559 264.561C222.559 264.957 222.437 265.343 222.209 265.667C221.981 265.991 221.659 266.237 221.286 266.372L177.249 291.665C185.523 292.568 193.845 292.954 202.167 292.82L284.557 291.896Z" fill="url(#paint0_linear_807_4758)"/>
<path d="M221.305 227.845C221.679 227.71 222.001 227.464 222.229 227.14C222.457 226.816 222.579 226.43 222.579 226.035C222.579 225.639 222.457 225.253 222.229 224.929C222.001 224.605 221.679 224.359 221.305 224.224L182.043 201.647V240.174L190.955 245.298L221.305 227.845Z" fill="url(#paint1_linear_807_4758)"/>
<path opacity="0.9" d="M526.836 262.404C528.576 263.405 528.576 265.023 526.836 266.006L484.307 290.509C504.025 291.934 523.124 296.981 538.261 305.707C572.593 325.452 574.333 356.909 543.422 377.655L543.616 413.292L607.119 413.408C671.685 372.782 669.482 309.387 600.74 269.743C569.036 251.52 528.498 241.464 487.11 239.519L526.836 262.404Z" fill="url(#paint2_linear_807_4758)"/>
<path d="M211.89 264.542L160.779 235.146C153.737 232.879 146.948 229.897 140.519 226.246C104.118 205.307 103.616 171.52 139.417 150.927C141.119 149.945 142.897 149.001 144.714 148.134L86.3916 148.018C85.2942 148.04 84.2095 147.781 83.2406 147.267C82.8837 147.106 82.576 146.853 82.3485 146.535C82.1211 146.217 81.982 145.845 81.9455 145.456L81.7521 111.861C79.9737 112.805 78.1951 113.788 76.4553 114.751C6.22469 155.204 6.86269 221.315 77.9632 262.192C103.326 276.793 134.275 286.213 166.887 290.47L211.89 264.542Z" fill="url(#paint3_linear_807_4758)"/>
<path d="M473.231 238.768L392.658 239.673L390.995 290.701L472.979 289.777L517.441 264.195L473.231 238.768Z" fill="url(#paint4_linear_807_4758)"/>
<path d="M338.241 158.382C339.212 157.893 340.285 157.638 341.373 157.638C342.461 157.638 343.534 157.893 344.505 158.382L386.028 182.268C386.028 181.96 385.932 181.652 385.893 181.305C382.394 157.38 364.629 133.956 332.809 115.618C266.329 77.3609 161.418 74.5485 90.646 107.45L90.8393 142.933L156.972 143.049C192.367 130.893 239.4 133.764 270.33 151.563C285.332 160.193 294.185 170.999 296.969 182.153L338.241 158.382Z" fill="url(#paint5_linear_807_4758)"/>
<path d="M338.414 333.735C339.385 333.246 340.458 332.991 341.546 332.991C342.634 332.991 343.707 333.246 344.677 333.735L384.5 356.639C382.785 353.074 381.724 349.231 381.368 345.293L386.027 189.435L341.565 163.814L297.432 189.203L292.908 344.446C293.088 349.279 293.828 354.075 295.112 358.739L338.414 333.735Z" fill="url(#paint6_linear_807_4758)"/>
<path d="M292.715 306.381V344.445C292.895 349.279 293.635 354.075 294.919 358.739V320.212C293.737 315.89 293.024 311.453 292.793 306.979L292.715 306.381Z" fill="url(#paint7_linear_807_4758)"/>
<path opacity="0.9" d="M653.883 304.031C654.366 329.478 638.804 354.944 607.082 374.881H547.329C546.072 375.845 544.777 376.808 543.462 377.752L543.656 413.389L607.159 413.504C639.036 393.451 654.598 367.85 653.96 342.23L654.25 341.845V303.935L653.883 304.031Z" fill="url(#paint8_linear_807_4758)"/>
<path opacity="0.95" d="M344.677 295.228C343.716 294.736 342.645 294.497 341.565 294.535V331.597L384.5 356.639V318.113L344.677 295.228Z" fill="url(#paint9_linear_807_4758)"/>
<path d="M543.577 374.785V413.312L607.08 413.427V374.901L543.577 374.785Z" fill="url(#paint10_linear_807_4758)"/>
<path d="M140.519 226.246C104.118 205.307 103.616 171.52 139.417 150.927C141.119 149.945 142.897 149.001 144.714 148.134L86.3916 148.018C85.2942 148.04 84.2095 147.781 83.2406 147.267C82.8837 147.106 82.576 146.853 82.3485 146.535C82.121 146.217 81.982 145.845 81.9455 145.456L81.7521 111.861C79.9736 112.805 78.1951 113.788 76.4553 114.751C6.22469 155.204 6.86269 221.315 77.9632 262.192C103.326 276.793 134.275 286.213 166.887 290.47L211.948 264.542L160.836 235.146C153.775 232.883 146.967 229.901 140.519 226.246Z" fill="url(#paint11_linear_807_4758)"/>
<path d="M211.89 226.015L160.779 196.62C153.737 194.353 146.948 191.371 140.519 187.72C104.118 166.781 103.616 132.993 139.417 112.401C141.119 111.418 142.897 110.474 144.714 109.608L86.3916 109.492C85.2942 109.513 84.2095 109.255 83.2406 108.741C82.8837 108.579 82.576 108.327 82.3485 108.009C82.1211 107.691 81.982 107.319 81.9455 106.93L81.7521 73.335C79.9737 74.2789 78.1951 75.2613 76.4553 76.2244C6.22469 116.677 6.86269 182.789 77.9632 223.665C103.326 238.267 134.275 247.686 166.887 251.944L211.89 226.015Z" fill="#7C1DC9"/>
<path d="M539.169 418.397C538.078 418.419 537 418.16 536.038 417.646C535.677 417.487 535.366 417.236 535.135 416.918C534.904 416.6 534.762 416.226 534.723 415.835L534.549 382.818C498.516 401.176 443.074 400.348 408.393 380.391C402.801 377.255 397.668 373.365 393.141 368.833L341.565 339.148L296.948 364.826C304.12 383.704 320.397 401.658 345.914 416.336C415.507 456.423 527.919 457.174 598.401 418.494L539.169 418.397Z" fill="#9F19AB"/>
<path d="M526.838 223.877L487.073 200.992V239.519L496.507 244.951L526.857 227.479C528.578 226.497 528.578 224.879 526.838 223.877Z" fill="url(#paint12_linear_807_4758)"/>
<path d="M517.442 225.668V264.195L472.98 289.776V251.25L517.442 225.668Z" fill="url(#paint13_linear_807_4758)"/>
<path d="M526.836 223.877C528.576 224.879 528.576 226.497 526.836 227.479L484.307 251.982C504.025 253.407 523.124 258.454 538.261 267.181C572.593 286.925 574.333 318.382 543.422 339.129L543.616 374.766L607.119 374.881C671.685 334.255 669.482 270.86 600.74 231.216C569.036 212.993 528.498 202.938 487.11 200.992L526.836 223.877Z" fill="url(#paint14_linear_807_4758)"/>
<path d="M211.89 226.015L160.779 196.62C153.737 194.353 146.948 191.371 140.519 187.72C104.118 166.781 103.616 132.993 139.417 112.401C141.119 111.418 142.897 110.474 144.714 109.608L86.3916 109.492C85.2942 109.513 84.2095 109.255 83.2406 108.741C82.8837 108.579 82.576 108.327 82.3485 108.009C82.1211 107.691 81.982 107.319 81.9455 106.93L81.7521 73.335C79.9737 74.2789 78.1951 75.2613 76.4553 76.2244C6.22469 116.677 6.86269 182.789 77.9632 223.665C103.326 238.267 134.275 247.686 166.887 251.944L211.89 226.015Z" fill="url(#paint15_linear_807_4758)"/>
<path opacity="0.9" d="M526.836 223.877C528.576 224.879 528.576 226.497 526.836 227.479L484.307 251.982C504.025 253.407 523.124 258.454 538.261 267.181C572.593 286.925 574.333 318.382 543.422 339.129L543.616 374.766L607.119 374.881C671.685 334.255 669.482 270.86 600.74 231.216C569.036 212.993 528.498 202.938 487.11 200.992L526.836 223.877Z" fill="url(#paint16_linear_807_4758)"/>
<path opacity="0.9" d="M559.062 324.084C571.937 305.091 564.977 282.572 538.223 267.181C523.086 258.455 503.968 253.408 484.269 251.982V290.509C503.968 291.934 523.086 296.981 538.223 305.707C546.482 310.172 553.61 316.458 559.062 324.084V324.084Z" fill="url(#paint17_linear_807_4758)"/>
<path d="M392.658 239.673L390.995 290.701V252.175L392.658 201.146V239.673Z" fill="url(#paint18_linear_807_4758)"/>
<path opacity="0.9" d="M473.231 200.241L392.658 201.147L390.995 252.175L472.979 251.25L517.441 225.669L473.231 200.241Z" fill="url(#paint19_linear_807_4758)"/>
<path opacity="0.9" d="M472.979 251.25V289.777L390.995 290.702V252.175L472.979 251.25Z" fill="url(#paint20_linear_807_4758)"/>
<path opacity="0.9" d="M178.409 245.278L166.81 251.943C134.276 247.686 103.326 238.267 77.8863 223.665C41.7948 202.899 23.894 175.623 24.184 148.538L24.0293 148.423V189.357L24.2033 189.55C24.9959 215.844 42.8967 242.1 77.8863 262.23C103.249 276.831 134.198 286.251 166.81 290.508L211.872 264.58L178.409 245.278Z" fill="url(#paint21_linear_807_4758)"/>
<path opacity="0.95" d="M156.933 104.542V143.068L90.8003 142.933V104.407L156.933 104.542Z" fill="url(#paint22_linear_807_4758)"/>
<path opacity="0.9" d="M211.89 226.015L160.779 196.62C153.737 194.353 146.948 191.371 140.519 187.72C104.118 166.781 103.616 132.993 139.417 112.401C141.119 111.418 142.897 110.474 144.714 109.608L86.3916 109.492C85.2942 109.513 84.2095 109.255 83.2406 108.741C82.8837 108.579 82.576 108.327 82.3485 108.009C82.1211 107.691 81.982 107.319 81.9455 106.93L81.7521 73.335C79.9737 74.2789 78.1951 75.2613 76.4553 76.2244C6.22469 116.677 6.86269 182.789 77.9632 223.665C103.326 238.267 134.275 247.686 166.887 251.944L211.89 226.015Z" fill="url(#paint23_linear_807_4758)"/>
<path d="M116.143 163.545C117.003 165.33 117.985 167.055 119.081 168.707C123.216 162.854 128.431 157.84 134.45 153.932L144.657 148.057V109.608C142.84 110.494 141.061 111.418 139.36 112.401C115.389 126.155 107.753 145.842 116.143 163.545Z" fill="url(#paint24_linear_807_4758)"/>
<path d="M166.831 290.47V251.944L211.892 226.015V264.561L166.831 290.47Z" fill="url(#paint25_linear_807_4758)"/>
<path opacity="0.9" d="M284.558 253.369L202.245 254.294C193.929 254.427 185.613 254.041 177.346 253.138V253.138V291.665C185.62 292.568 193.942 292.954 202.264 292.82L284.577 291.896L286.239 240.867H284.983L284.558 253.369Z" fill="url(#paint26_linear_807_4758)"/>
<path opacity="0.9" d="M284.557 253.369L286.22 202.341L199.963 203.458C193.954 203.196 187.964 202.591 182.024 201.647L221.286 224.224C221.659 224.359 221.981 224.605 222.209 224.929C222.437 225.253 222.559 225.639 222.559 226.035C222.559 226.43 222.437 226.816 222.209 227.14C221.981 227.464 221.659 227.71 221.286 227.845L177.249 253.138C185.523 254.041 193.845 254.427 202.167 254.294L284.557 253.369Z" fill="url(#paint27_linear_807_4758)"/>
<g style="mix-blend-mode:color-dodge">
<path style="mix-blend-mode:color-dodge" opacity="0.9" d="M284.558 251.443L202.245 252.368C194.894 252.489 187.543 252.186 180.227 251.462L177.327 253.138C185.601 254.041 193.923 254.427 202.245 254.294L284.558 253.369V251.443Z" fill="url(#paint28_radial_807_4758)"/>
</g>
<path opacity="0.95" d="M338.241 119.856C339.212 119.366 340.285 119.112 341.373 119.112C342.461 119.112 343.534 119.366 344.505 119.856L386.028 143.742C386.028 143.434 385.932 143.126 385.893 142.779C382.394 118.854 364.629 95.4299 332.809 77.0913C266.329 38.8345 161.418 36.0221 90.646 68.9237L90.8393 104.407L156.972 104.522C192.367 92.3671 239.4 95.2373 270.33 113.036C285.332 121.666 294.185 132.473 296.969 143.627L338.241 119.856Z" fill="url(#paint29_linear_807_4758)"/>
<path style="mix-blend-mode:color-dodge" d="M296.929 143.626L338.24 119.856C339.211 119.366 340.284 119.112 341.372 119.112C342.46 119.112 343.533 119.366 344.504 119.856L386.027 143.742C386.027 143.434 385.93 143.126 385.892 142.779C385.853 142.432 385.776 142.24 385.737 141.97L344.542 118.276C343.571 117.787 342.499 117.532 341.411 117.532C340.323 117.532 339.25 117.787 338.279 118.276L296.968 142.047L296.929 143.626Z" fill="url(#paint30_radial_807_4758)"/>
<path style="mix-blend-mode:color-dodge" d="M296.931 142.028C294.147 130.855 285.332 120.048 270.292 111.418C239.362 93.6385 192.329 90.7683 156.933 102.923L90.8009 102.808L90.627 68.9045L90.8203 104.387L156.953 104.503C192.348 92.3479 239.381 95.2181 270.311 113.017C285.313 121.647 294.166 132.454 296.95 143.607L296.931 142.028Z" fill="url(#paint31_radial_807_4758)"/>
<path opacity="0.95" d="M539.169 379.871C538.078 379.892 537 379.634 536.038 379.12C535.677 378.961 535.366 378.71 535.135 378.392C534.904 378.073 534.762 377.7 534.723 377.309L534.549 344.292C498.516 362.65 443.074 361.821 408.393 341.865C402.801 338.728 397.668 334.839 393.141 330.307L341.565 300.622L296.948 326.3C304.12 345.178 320.397 363.131 345.914 377.81C415.507 417.897 527.919 418.648 598.401 379.967L539.169 379.871Z" fill="url(#paint32_linear_807_4758)"/>
<path style="mix-blend-mode:color-dodge" d="M346.882 376.519C321.983 362.206 305.899 344.754 298.554 326.435L297.026 327.321C304.198 346.199 320.475 364.152 345.993 378.831C415.585 418.917 527.997 419.669 598.479 380.988H595.134C524.382 417.28 415.141 415.893 346.882 376.519Z" fill="url(#paint33_radial_807_4758)"/>
<g opacity="0.9">
<path opacity="0.9" d="M345.914 377.81C320.397 363.131 304.12 345.178 296.948 326.3V364.826C304.12 383.704 320.397 401.658 345.914 416.336C415.507 456.423 527.919 457.174 598.401 418.494V379.967C527.919 418.648 415.565 417.819 345.914 377.81Z" fill="url(#paint34_linear_807_4758)"/>
</g>
<path style="mix-blend-mode:color-dodge" d="M370.001 468C378.937 468 386.181 443.567 386.181 413.427C386.181 383.288 378.937 358.854 370.001 358.854C361.065 358.854 353.821 383.288 353.821 413.427C353.821 443.567 361.065 468 370.001 468Z" fill="url(#paint35_radial_807_4758)"/>
<path style="mix-blend-mode:color-dodge" d="M263.679 193.075C272.615 193.075 279.859 168.375 279.859 137.905C279.859 107.436 272.615 82.7356 263.679 82.7356C254.743 82.7356 247.499 107.436 247.499 137.905C247.499 168.375 254.743 193.075 263.679 193.075Z" fill="url(#paint36_radial_807_4758)"/>
<path style="mix-blend-mode:color-dodge" d="M56.8341 291.973C65.7702 291.973 73.0144 264.685 73.0144 231.024C73.0144 197.363 65.7702 170.075 56.8341 170.075C47.898 170.075 40.6538 197.363 40.6538 231.024C40.6538 264.685 47.898 291.973 56.8341 291.973Z" fill="url(#paint37_radial_807_4758)"/>
<path style="mix-blend-mode:color-dodge" opacity="0.5" d="M131.647 58.8685C131.689 61.1135 131.06 63.3201 129.839 65.2073C128.618 67.0945 126.861 68.5767 124.791 69.4651C122.722 70.3535 120.434 70.6079 118.219 70.1958C116.004 69.7838 113.962 68.7239 112.354 67.1513C110.746 65.5786 109.644 63.5645 109.188 61.3655C108.733 59.1665 108.945 56.8821 109.797 54.8036C110.649 52.725 112.103 50.9464 113.974 49.6942C115.844 48.4421 118.046 47.7733 120.3 47.7729C123.28 47.7472 126.149 48.9012 128.277 50.9815C130.404 53.0618 131.616 55.8984 131.647 58.8685V58.8685Z" fill="url(#paint38_radial_807_4758)"/>
<path style="mix-blend-mode:color-dodge" opacity="0.5" d="M599.077 241.233C605.344 241.233 610.424 236.266 610.424 230.138C610.424 224.01 605.344 219.042 599.077 219.042C592.81 219.042 587.729 224.01 587.729 230.138C587.729 236.266 592.81 241.233 599.077 241.233Z" fill="url(#paint39_radial_807_4758)"/>
<path style="mix-blend-mode:color-dodge" opacity="0.5" d="M465.034 370.49C471.301 370.49 476.381 365.522 476.381 359.394C476.381 353.266 471.301 348.298 465.034 348.298C458.767 348.298 453.687 353.266 453.687 359.394C453.687 365.522 458.767 370.49 465.034 370.49Z" fill="url(#paint40_radial_807_4758)"/>
<path opacity="0.95" d="M344.503 119.875C343.544 119.376 342.473 119.13 341.391 119.162V157.573L385.853 181.305L385.988 143.742L344.503 119.875Z" fill="url(#paint41_linear_807_4758)"/>
<path opacity="0.95" d="M338.53 119.875C339.473 119.416 340.516 119.197 341.565 119.24V157.573L297.103 181.306L296.967 143.742L338.53 119.875Z" fill="url(#paint42_linear_807_4758)"/>
<g opacity="0.9" filter="url(#filter0_d_807_4758)">
<path d="M112.877 149.752C113.167 136.499 121.963 123.362 139.361 113.364C141.062 112.382 142.841 111.438 144.658 110.571H141.468C140.772 110.956 140.038 111.303 139.361 111.688C121.19 122.109 112.433 135.921 112.877 149.752Z" fill="#626BDA"/>
</g>
<path style="mix-blend-mode:color-dodge" d="M166.83 251.211C134.296 246.973 103.346 237.534 77.9063 222.952C42.646 202.668 24.7453 176.162 24.1847 149.752C23.9913 176.72 41.9114 203.997 77.9063 224.705C103.269 239.307 134.218 248.726 166.83 252.984L211.892 227.055L210.422 226.208L166.83 251.211Z" fill="url(#paint43_radial_807_4758)"/>
<path style="mix-blend-mode:color-dodge" d="M390.995 252.175L471.8 250.325L517.441 225.668L473.095 252.252L390.995 252.175Z" fill="url(#paint44_radial_807_4758)"/>
<path opacity="0.95" d="M381.368 306.786C381.723 310.724 382.784 314.567 384.499 318.132C384.499 318.132 382.566 313.085 382.566 301.296C382.566 284.267 385.852 189.434 385.852 189.434V150.908L381.368 306.786Z" fill="url(#paint45_linear_807_4758)"/>
<g style="mix-blend-mode:color-dodge">
<path style="mix-blend-mode:color-dodge" opacity="0.9" d="M565.306 304.918C565.769 290.952 556.761 276.87 538.242 266.218C523.84 257.915 505.842 252.984 487.149 251.308L484.288 252.945C503.987 254.371 523.105 259.418 538.242 268.144C555.891 278.315 564.919 291.588 565.306 304.918Z" fill="url(#paint46_radial_807_4758)"/>
<path style="mix-blend-mode:color-dodge" opacity="0.9" d="M527.822 225.688C528.479 224.763 528.15 223.762 526.836 222.914L490.802 202.187L487.071 201.956L526.836 224.84C527.224 225.045 527.561 225.335 527.822 225.688Z" fill="url(#paint47_radial_807_4758)"/>
<path style="mix-blend-mode:color-dodge" opacity="0.9" d="M607.081 373.918L543.578 373.803L543.384 340.073L543.578 375.71L607.081 375.825C638.146 356.292 653.708 331.52 653.901 306.478C652.935 330.826 637.334 354.886 607.081 373.918Z" fill="url(#paint48_radial_807_4758)"/>
</g>
<path opacity="0.9" d="M338.414 295.209C339.385 294.72 340.458 294.465 341.546 294.465C342.634 294.465 343.707 294.72 344.677 295.209L384.5 318.113C382.695 313.542 381.764 308.674 381.755 303.762L386.027 150.908L341.565 125.288L297.432 150.677L292.908 305.919C293.088 310.752 293.828 315.549 295.112 320.213L338.414 295.209Z" fill="url(#paint49_linear_807_4758)"/>
<path style="mix-blend-mode:color-dodge" d="M344.677 293.783C343.706 293.294 342.633 293.039 341.545 293.039C340.457 293.039 339.385 293.294 338.414 293.783L294.938 318.825C293.696 314.311 292.97 309.671 292.772 304.994V305.977C292.953 310.81 293.692 315.606 294.976 320.27L338.452 295.228C339.423 294.739 340.496 294.484 341.584 294.484C342.672 294.484 343.745 294.739 344.716 295.228L384.538 318.132C384.229 317.496 383.978 316.861 383.726 316.206L344.677 293.783Z" fill="url(#paint50_radial_807_4758)"/>
<path d="M286.2 202.341V240.868L284.557 291.896V253.369L286.2 202.341Z" fill="url(#paint51_linear_807_4758)"/>
<defs>
<filter id="filter0_d_807_4758" x="108.861" y="110.571" width="39.7969" height="47.1814" filterUnits="userSpaceOnUse" color-interpolation-filters="sRGB">
<feFlood flood-opacity="0" result="BackgroundImageFix"/>
<feColorMatrix in="SourceAlpha" type="matrix" values="0 0 0 0 0 0 0 0 0 0 0 0 0 0 0 0 0 0 127 0" result="hardAlpha"/>
<feOffset dy="4"/>
<feGaussianBlur stdDeviation="2"/>
<feComposite in2="hardAlpha" operator="out"/>
<feColorMatrix type="matrix" values="0 0 0 0 0 0 0 0 0 0 0 0 0 0 0 0 0 0 0.25 0"/>
<feBlend mode="normal" in2="BackgroundImageFix" result="effect1_dropShadow_807_4758"/>
<feBlend mode="normal" in="SourceGraphic" in2="effect1_dropShadow_807_4758" result="shape"/>
</filter>
<linearGradient id="paint0_linear_807_4758" x1="177.326" y1="266.526" x2="286.22" y2="266.526" gradientUnits="userSpaceOnUse">
<stop stop-color="#5B0AA1"/>
<stop offset="1" stop-color="#8005B5"/>
</linearGradient>
<linearGradient id="paint1_linear_807_4758" x1="24349.7" y1="12982.9" x2="17564" y2="12982.9" gradientUnits="userSpaceOnUse">
<stop offset="0.04" stop-color="#191FAB"/>
<stop offset="0.18" stop-color="#3F76D9"/>
<stop offset="0.46" stop-color="#8A5ED8"/>
<stop offset="0.49" stop-color="#9D5CDF"/>
<stop offset="0.99" stop-color="#616BD9"/>
</linearGradient>
<linearGradient id="paint2_linear_807_4758" x1="484.268" y1="326.473" x2="653.939" y2="326.473" gradientUnits="userSpaceOnUse">
<stop stop-color="#6E05B5"/>
<stop offset="1" stop-color="#9F19AB"/>
</linearGradient>
<linearGradient id="paint3_linear_807_4758" x1="56301.1" y1="35213.8" x2="74519.5" y2="35213.8" gradientUnits="userSpaceOnUse">
<stop stop-color="#6E05B5"/>
<stop offset="1" stop-color="#9F19AB"/>
</linearGradient>
<linearGradient id="paint4_linear_807_4758" x1="25924.3" y1="7376.01" x2="34195.1" y2="7376.01" gradientUnits="userSpaceOnUse">
<stop stop-color="#5B0AA1"/>
<stop offset="1" stop-color="#8005B5"/>
</linearGradient>
<linearGradient id="paint5_linear_807_4758" x1="99.0358" y1="133.475" x2="390.9" y2="133.475" gradientUnits="userSpaceOnUse">
<stop offset="0.04" stop-color="#9F19AB"/>
<stop offset="0.18" stop-color="#AE25B1"/>
<stop offset="0.46" stop-color="#D744BF"/>
<stop offset="0.49" stop-color="#DC48C1"/>
<stop offset="0.99" stop-color="#B227B2"/>
</linearGradient>
<linearGradient id="paint6_linear_807_4758" x1="43503.8" y1="46070.5" x2="47617.2" y2="49608" gradientUnits="userSpaceOnUse">
<stop stop-color="#B127B2"/>
<stop offset="0.45" stop-color="#D140BE"/>
<stop offset="1" stop-color="#FF63CE"/>
</linearGradient>
<linearGradient id="paint7_linear_807_4758" x1="1238.69" y1="14020.4" x2="1271.51" y2="14020.7" gradientUnits="userSpaceOnUse">
<stop stop-color="#B24ED5"/>
<stop offset="0.45" stop-color="#8D26B1"/>
<stop offset="0.927083" stop-color="#FF63CE"/>
</linearGradient>
<linearGradient id="paint8_linear_807_4758" x1="71839.7" y1="30797" x2="55064.3" y2="30797" gradientUnits="userSpaceOnUse">
<stop stop-color="#3580E5"/>
<stop offset="1" stop-color="#6E5BD1"/>
</linearGradient>
<linearGradient id="paint9_linear_807_4758" x1="21223.3" y1="14470.2" x2="19507.3" y2="17934.9" gradientUnits="userSpaceOnUse">
<stop stop-color="#B127B2"/>
<stop offset="0.45" stop-color="#D140BE"/>
<stop offset="1" stop-color="#FF63CE"/>
</linearGradient>
<linearGradient id="paint10_linear_807_4758" x1="541.47" y1="319.057" x2="601.526" y2="453.095" gradientUnits="userSpaceOnUse">
<stop stop-color="#6E5BD1"/>
<stop offset="1" stop-color="#2760BE"/>
</linearGradient>
<linearGradient id="paint11_linear_807_4758" x1="56318.5" y1="35213.8" x2="74542.5" y2="35213.8" gradientUnits="userSpaceOnUse">
<stop stop-color="#6E05B5"/>
<stop offset="1" stop-color="#9F19AB"/>
</linearGradient>
<linearGradient id="paint12_linear_807_4758" x1="23084.8" y1="9114.06" x2="21220.6" y2="10713.2" gradientUnits="userSpaceOnUse">
<stop stop-color="#671AB9"/>
<stop offset="1" stop-color="#9F19AB"/>
</linearGradient>
<linearGradient id="paint13_linear_807_4758" x1="26981.7" y1="18997.1" x2="19538.7" y2="18997.1" gradientUnits="userSpaceOnUse">
<stop offset="0.04" stop-color="#191FAB"/>
<stop offset="0.18" stop-color="#3F76D9"/>
<stop offset="0.46" stop-color="#8A5ED8"/>
<stop offset="0.49" stop-color="#9D5CDF"/>
<stop offset="0.99" stop-color="#616BD9"/>
</linearGradient>
<linearGradient id="paint14_linear_807_4758" x1="484.268" y1="287.946" x2="653.939" y2="287.946" gradientUnits="userSpaceOnUse">
<stop offset="0.04" stop-color="#6B24D6"/>
<stop offset="0.29" stop-color="#7733DC"/>
<stop offset="0.79" stop-color="#975CED"/>
<stop offset="1" stop-color="#A56EF4"/>
</linearGradient>
<linearGradient id="paint15_linear_807_4758" x1="56301.1" y1="31603.1" x2="74519.5" y2="31603.1" gradientUnits="userSpaceOnUse">
<stop offset="0.04" stop-color="#6B24D6"/>
<stop offset="0.29" stop-color="#7733DC"/>
<stop offset="0.79" stop-color="#975CED"/>
<stop offset="1" stop-color="#A56EF4"/>
</linearGradient>
<linearGradient id="paint16_linear_807_4758" x1="510.699" y1="24.2049" x2="660.239" y2="40.7849" gradientUnits="userSpaceOnUse">
<stop stop-color="#BD54E2"/>
<stop offset="1" stop-color="#2982E3"/>
</linearGradient>
<linearGradient id="paint17_linear_807_4758" x1="48814.3" y1="21364.2" x2="35244.5" y2="21364.2" gradientUnits="userSpaceOnUse">
<stop offset="0.04" stop-color="#191FAB"/>
<stop offset="0.18" stop-color="#3F76D9"/>
<stop offset="0.46" stop-color="#8A5ED8"/>
<stop offset="0.49" stop-color="#9D5CDF"/>
<stop offset="0.99" stop-color="#616BD9"/>
</linearGradient>
<linearGradient id="paint18_linear_807_4758" x1="390.995" y1="245.914" x2="392.658" y2="245.914" gradientUnits="userSpaceOnUse">
<stop offset="0.1" stop-color="#45108A"/>
<stop offset="1" stop-color="#7C1DC9"/>
</linearGradient>
<linearGradient id="paint19_linear_807_4758" x1="410.665" y1="147.442" x2="515.46" y2="176.436" gradientUnits="userSpaceOnUse">
<stop stop-color="#BD54E2"/>
<stop offset="1" stop-color="#2982E3"/>
</linearGradient>
<linearGradient id="paint20_linear_807_4758" x1="49270.7" y1="11802.9" x2="35546.6" y2="11802.9" gradientUnits="userSpaceOnUse">
<stop offset="0.04" stop-color="#191FAB"/>
<stop offset="0.18" stop-color="#3F76D9"/>
<stop offset="0.46" stop-color="#8A5ED8"/>
<stop offset="0.49" stop-color="#9D5CDF"/>
<stop offset="0.99" stop-color="#616BD9"/>
</linearGradient>
<linearGradient id="paint21_linear_807_4758" x1="112017" y1="41752.5" x2="80572.7" y2="41752.5" gradientUnits="userSpaceOnUse">
<stop offset="0.04" stop-color="#191FAB"/>
<stop offset="0.18" stop-color="#3F76D9"/>
<stop offset="0.46" stop-color="#8A5ED8"/>
<stop offset="0.49" stop-color="#9D5CDF"/>
<stop offset="0.99" stop-color="#616BD9"/>
</linearGradient>
<linearGradient id="paint22_linear_807_4758" x1="3876.88" y1="2073.43" x2="4765.32" y2="5186.81" gradientUnits="userSpaceOnUse">
<stop offset="0.04" stop-color="#9F19AB"/>
<stop offset="0.24" stop-color="#AE25B1"/>
<stop offset="0.65" stop-color="#D744BF"/>
<stop offset="1" stop-color="#FF63CE"/>
</linearGradient>
<linearGradient id="paint23_linear_807_4758" x1="53.4022" y1="-108.251" x2="218.502" y2="-88.5363" gradientUnits="userSpaceOnUse">
<stop stop-color="#BD54E2"/>
<stop offset="1" stop-color="#2982E3"/>
</linearGradient>
<linearGradient id="paint24_linear_807_4758" x1="19073.7" y1="17414.5" x2="13750" y2="17414.5" gradientUnits="userSpaceOnUse">
<stop offset="0.04" stop-color="#191FAB"/>
<stop offset="0.18" stop-color="#3F76D9"/>
<stop offset="0.46" stop-color="#8A5ED8"/>
<stop offset="0.49" stop-color="#9D5CDF"/>
<stop offset="0.99" stop-color="#616BD9"/>
</linearGradient>
<linearGradient id="paint25_linear_807_4758" x1="165.335" y1="133.06" x2="299.384" y2="260.335" gradientUnits="userSpaceOnUse">
<stop stop-color="#6E5BD1"/>
<stop offset="1" stop-color="#2760BE"/>
</linearGradient>
<linearGradient id="paint26_linear_807_4758" x1="65100.6" y1="15460.7" x2="46871.9" y2="15460.7" gradientUnits="userSpaceOnUse">
<stop offset="0.04" stop-color="#191FAB"/>
<stop offset="0.18" stop-color="#3F76D9"/>
<stop offset="0.46" stop-color="#8A5ED8"/>
<stop offset="0.49" stop-color="#9D5CDF"/>
<stop offset="0.99" stop-color="#616BD9"/>
</linearGradient>
<linearGradient id="paint27_linear_807_4758" x1="194.2" y1="148.098" x2="286.333" y2="169.757" gradientUnits="userSpaceOnUse">
<stop stop-color="#BD54E2"/>
<stop offset="1" stop-color="#2982E3"/>
</linearGradient>
<radialGradient id="paint28_radial_807_4758" cx="0" cy="0" r="1" gradientUnits="userSpaceOnUse" gradientTransform="translate(45221.7 892.907) scale(1797.19 48.2126)">
<stop stop-color="white"/>
<stop offset="1"/>
</radialGradient>
<linearGradient id="paint29_linear_807_4758" x1="136.594" y1="-53.0398" x2="372.254" y2="28.0243" gradientUnits="userSpaceOnUse">
<stop stop-color="#BD54E2"/>
<stop offset="1" stop-color="#2982E3"/>
</linearGradient>
<radialGradient id="paint30_radial_807_4758" cx="0" cy="0" r="1" gradientUnits="userSpaceOnUse" gradientTransform="translate(42562.3 3936.6) scale(2148.15 631.925)">
<stop stop-color="white"/>
<stop offset="1"/>
</radialGradient>
<radialGradient id="paint31_radial_807_4758" cx="0" cy="0" r="1" gradientUnits="userSpaceOnUse" gradientTransform="translate(87258 10648.3) scale(5700.71 2064.04)">
<stop stop-color="white"/>
<stop offset="1"/>
</radialGradient>
<linearGradient id="paint32_linear_807_4758" x1="343.841" y1="191.011" x2="588.139" y2="268.631" gradientUnits="userSpaceOnUse">
<stop stop-color="#BD54E2"/>
<stop offset="1" stop-color="#2982E3"/>
</linearGradient>
<radialGradient id="paint33_radial_807_4758" cx="0" cy="0" r="1" gradientUnits="userSpaceOnUse" gradientTransform="translate(147900 23973.7) scale(14062.8 3873)">
<stop stop-color="white"/>
<stop offset="1"/>
</radialGradient>
<linearGradient id="paint34_linear_807_4758" x1="180026" y1="35657.6" x2="129563" y2="35657.6" gradientUnits="userSpaceOnUse">
<stop offset="0.04" stop-color="#191FAB"/>
<stop offset="0.18" stop-color="#3F76D9"/>
<stop offset="0.46" stop-color="#8A5ED8"/>
<stop offset="0.49" stop-color="#9D5CDF"/>
<stop offset="0.99" stop-color="#616BD9"/>
</linearGradient>
<radialGradient id="paint35_radial_807_4758" cx="0" cy="0" r="1" gradientUnits="userSpaceOnUse" gradientTransform="translate(369.985 407.953) scale(16.1826 54.424)">
<stop stop-color="#972A74"/>
<stop offset="0.04" stop-color="#8A266A"/>
<stop offset="0.19" stop-color="#601B4A"/>
<stop offset="0.35" stop-color="#3D112F"/>
<stop offset="0.51" stop-color="#230A1B"/>
<stop offset="0.67" stop-color="#0F040C"/>
<stop offset="0.83" stop-color="#040103"/>
<stop offset="1"/>
</radialGradient>
<radialGradient id="paint36_radial_807_4758" cx="0" cy="0" r="1" gradientUnits="userSpaceOnUse" gradientTransform="translate(-86482.8 98064.4) scale(270.897 3146.27)">
<stop stop-color="#972A74"/>
<stop offset="0.04" stop-color="#8A266A"/>
<stop offset="0.19" stop-color="#601B4A"/>
<stop offset="0.35" stop-color="#3D112F"/>
<stop offset="0.51" stop-color="#230A1B"/>
<stop offset="0.67" stop-color="#0F040C"/>
<stop offset="0.83" stop-color="#040103"/>
<stop offset="1"/>
</radialGradient>
<radialGradient id="paint37_radial_807_4758" cx="0" cy="0" r="1" gradientUnits="userSpaceOnUse" gradientTransform="translate(56.8179 231.836) scale(16.1826 60.9751)">
<stop stop-color="#742A97"/>
<stop offset="0.04" stop-color="#6A268A"/>
<stop offset="0.19" stop-color="#4A1B60"/>
<stop offset="0.35" stop-color="#2F113D"/>
<stop offset="0.51" stop-color="#1B0A23"/>
<stop offset="0.67" stop-color="#0C040F"/>
<stop offset="0.83" stop-color="#030104"/>
<stop offset="1"/>
</radialGradient>
<radialGradient id="paint38_radial_807_4758" cx="0" cy="0" r="1" gradientUnits="userSpaceOnUse" gradientTransform="translate(-60451.3 -34348.8) scale(133.265 128.648)">
<stop stop-color="#742A97"/>
<stop offset="0.04" stop-color="#6A268A"/>
<stop offset="0.19" stop-color="#4A1B60"/>
<stop offset="0.35" stop-color="#2F113D"/>
<stop offset="0.51" stop-color="#1B0A23"/>
<stop offset="0.67" stop-color="#0C040F"/>
<stop offset="0.83" stop-color="#030104"/>
<stop offset="1"/>
</radialGradient>
<radialGradient id="paint39_radial_807_4758" cx="0" cy="0" r="1" gradientUnits="userSpaceOnUse" gradientTransform="translate(-54855 -31695.9) scale(133.264 126.235)">
<stop stop-color="#742A97"/>
<stop offset="0.04" stop-color="#6A268A"/>
<stop offset="0.19" stop-color="#4A1B60"/>
<stop offset="0.35" stop-color="#2F113D"/>
<stop offset="0.51" stop-color="#1B0A23"/>
<stop offset="0.67" stop-color="#0C040F"/>
<stop offset="0.83" stop-color="#030104"/>
<stop offset="1"/>
</radialGradient>
<radialGradient id="paint40_radial_807_4758" cx="0" cy="0" r="1" gradientUnits="userSpaceOnUse" gradientTransform="translate(-56471.6 -30186.3) scale(133.265 126.235)">
<stop stop-color="#742A97"/>
<stop offset="0.04" stop-color="#6A268A"/>
<stop offset="0.19" stop-color="#4A1B60"/>
<stop offset="0.35" stop-color="#2F113D"/>
<stop offset="0.51" stop-color="#1B0A23"/>
<stop offset="0.67" stop-color="#0C040F"/>
<stop offset="0.83" stop-color="#030104"/>
<stop offset="1"/>
</radialGradient>
<linearGradient id="paint41_linear_807_4758" x1="21985.3" y1="8891.67" x2="20719.8" y2="11542.8" gradientUnits="userSpaceOnUse">
<stop offset="0.04" stop-color="#9F19AB"/>
<stop offset="0.24" stop-color="#AE25B1"/>
<stop offset="0.65" stop-color="#D744BF"/>
<stop offset="1" stop-color="#FF63CE"/>
</linearGradient>
<linearGradient id="paint42_linear_807_4758" x1="20009" y1="9782.5" x2="21649.2" y2="11393.3" gradientUnits="userSpaceOnUse">
<stop offset="0.04" stop-color="#9F19AB"/>
<stop offset="0.24" stop-color="#AE25B1"/>
<stop offset="0.65" stop-color="#D744BF"/>
<stop offset="1" stop-color="#FF63CE"/>
</linearGradient>
<radialGradient id="paint43_radial_807_4758" cx="0" cy="0" r="1" gradientUnits="userSpaceOnUse" gradientTransform="translate(65419.9 20445.1) scale(7358.17 4046.68)">
<stop stop-color="white"/>
<stop offset="1"/>
</radialGradient>
<radialGradient id="paint44_radial_807_4758" cx="0" cy="0" r="1" gradientUnits="userSpaceOnUse" gradientTransform="translate(29343.4 3957.42) scale(2989.19 628.428)">
<stop stop-color="white"/>
<stop offset="1"/>
</radialGradient>
<linearGradient id="paint45_linear_807_4758" x1="2548.29" y1="35821.5" x2="2778.61" y2="35822.4" gradientUnits="userSpaceOnUse">
<stop stop-color="#B127B2"/>
<stop offset="0.45" stop-color="#D140BE"/>
<stop offset="1" stop-color="#FF63CE"/>
</linearGradient>
<radialGradient id="paint46_radial_807_4758" cx="0" cy="0" r="1" gradientUnits="userSpaceOnUse" gradientTransform="translate(45764.7 12928.4) scale(1441.6 953.714)">
<stop stop-color="white"/>
<stop offset="1"/>
</radialGradient>
<radialGradient id="paint47_radial_807_4758" cx="0" cy="0" r="1" gradientUnits="userSpaceOnUse" gradientTransform="translate(23308.9 4934.88) scale(356.565 205.996)">
<stop stop-color="white"/>
<stop offset="1"/>
</radialGradient>
<radialGradient id="paint48_radial_807_4758" cx="0" cy="0" r="1" gradientUnits="userSpaceOnUse" gradientTransform="translate(66519.8 18976.9) scale(2639.15 1656.02)">
<stop stop-color="white"/>
<stop offset="1"/>
</radialGradient>
<linearGradient id="paint49_linear_807_4758" x1="50453.3" y1="27173" x2="33470.4" y2="35286" gradientUnits="userSpaceOnUse">
<stop stop-color="#FFA4EE"/>
<stop offset="0.45" stop-color="#EF77D9"/>
<stop offset="1" stop-color="#AF64EC"/>
</linearGradient>
<radialGradient id="paint50_radial_807_4758" cx="0" cy="0" r="1" gradientUnits="userSpaceOnUse" gradientTransform="translate(41338.7 6940.96) scale(1319.59 391.582)">
<stop stop-color="white"/>
<stop offset="1"/>
</radialGradient>
<linearGradient id="paint51_linear_807_4758" x1="1264.22" y1="26424.9" x2="989.159" y2="26424.9" gradientUnits="userSpaceOnUse">
<stop offset="0.04" stop-color="#191FAB"/>
<stop offset="0.18" stop-color="#3F76D9"/>
<stop offset="0.46" stop-color="#8A5ED8"/>
<stop offset="0.49" stop-color="#9D5CDF"/>
<stop offset="0.99" stop-color="#616BD9"/>
</linearGradient>
</defs>
</svg>
