<svg width="26" height="26" viewBox="0 0 26 26" fill="none" xmlns="http://www.w3.org/2000/svg">
<path d="M17.0977 24.7817H9.09766V13.5817C9.09766 13.3696 9.18194 13.1661 9.33197 13.0161C9.482 12.866 9.68548 12.7817 9.89766 12.7817H16.2977C16.5098 12.7817 16.7133 12.866 16.8633 13.0161C17.0134 13.1661 17.0977 13.3696 17.0977 13.5817V24.7817V24.7817Z" stroke="white" stroke-width="1.5" stroke-linecap="round" stroke-linejoin="round"/>
<path d="M24.2977 24.7814H17.0977V20.9147C17.0977 20.7026 17.1819 20.4991 17.332 20.3491C17.482 20.199 17.6855 20.1147 17.8977 20.1147H24.2977C24.5098 20.1147 24.7133 20.199 24.8633 20.3491C25.0134 20.4991 25.0977 20.7026 25.0977 20.9147V23.9814C25.0977 24.1936 25.0134 24.3971 24.8633 24.5471C24.7133 24.6971 24.5098 24.7814 24.2977 24.7814V24.7814Z" stroke="white" stroke-width="1.5" stroke-linecap="round" stroke-linejoin="round"/>
<path d="M9.09766 24.7811V18.2478C9.09766 18.0356 9.01337 17.8321 8.86334 17.6821C8.71331 17.532 8.50983 17.4478 8.29766 17.4478H1.89766C1.68548 17.4478 1.482 17.532 1.33197 17.6821C1.18194 17.8321 1.09766 18.0356 1.09766 18.2478V23.9811C1.09766 24.1933 1.18194 24.3967 1.33197 24.5468C1.482 24.6968 1.68548 24.7811 1.89766 24.7811H9.09766V24.7811Z" stroke="white" stroke-width="1.5" stroke-linecap="round" stroke-linejoin="round"/>
<path d="M11.5045 3.59877L12.7165 1.02943C12.7492 0.955984 12.8025 0.893591 12.8699 0.849805C12.9374 0.806018 13.0161 0.782715 13.0965 0.782715C13.1769 0.782715 13.2556 0.806018 13.323 0.849805C13.3904 0.893591 13.4438 0.955984 13.4765 1.02943L14.6898 3.59877L17.3991 4.01343C17.7471 4.06677 17.8858 4.51477 17.6338 4.77077L15.6738 6.77077L16.1365 9.59477C16.1951 9.95743 15.8325 10.2348 15.5205 10.0628L13.0965 8.72944L10.6725 10.0628C10.3618 10.2334 9.99781 9.95743 10.0565 9.59477L10.5191 6.77077L8.55914 4.77077C8.30581 4.51477 8.44581 4.06677 8.79248 4.01343L11.5045 3.6001V3.59877Z" stroke="white" stroke-width="1.5" stroke-linecap="round" stroke-linejoin="round"/>
</svg>
