<svg width="93" height="56" viewBox="0 0 93 56" fill="none" xmlns="http://www.w3.org/2000/svg">
<path d="M69.7404 26.3435C69.5875 26.267 69.4345 26.1906 69.2561 26.1652C68.1854 25.9359 67.1658 26.0888 66.1206 26.1906C65.3814 26.267 64.0813 26.2925 64.1578 25.2483C64.3362 23.0833 67.1403 23.0579 68.5423 22.1409C68.7208 22.0391 68.8482 21.8353 68.8737 21.6315C68.8737 21.5042 68.8482 21.3768 68.7972 21.2495C67.4207 17.6837 63.9793 15.3914 60.538 14.0925C57.9124 13.0991 55.5417 12.7171 52.7631 13.3284C52.1258 13.4812 51.4885 13.6595 50.8512 13.8887C50.3414 14.067 49.7806 14.2962 49.2198 14.5255C48.2511 15.0094 46.4922 15.8244 45.9314 14.449C44.9117 11.9275 43.4332 9.27867 41.5213 7.26655C40.3232 6.01853 38.5643 5.43273 36.8819 5.76383C34.9445 6.17135 33.9504 7.69954 32.7523 9.12585C32.1405 9.83901 30.1266 12.0294 29.3364 10.272C29.0305 9.60978 29.2344 8.87115 29.0815 8.18347C28.6481 6.19682 26.6853 5.63649 24.9009 5.66195C23.3204 5.68742 21.74 5.96759 20.236 6.50246C18.732 7.03733 17.3554 7.9033 15.7749 8.28535C13.5827 8.82021 11.3904 6.65528 9.0197 7.57219C8.48438 7.75048 8.00004 8.00518 7.54119 8.36176C6.67448 8.9985 6.06269 9.94089 5.83326 11.0106C5.80777 11.087 5.80777 11.138 5.78228 11.2144C5.29794 14.4745 4.30377 17.4545 3.36059 20.358C2.26446 23.6437 1.14283 27.0566 0.811441 30.7752C0.785949 31.1063 0.760458 31.4374 0.78595 31.7685C0.78595 31.7685 0.78595 31.794 0.78595 31.8195C0.913407 34.5702 2.79978 36.888 5.47638 37.5502C6.21564 38.2633 7.28628 39.002 8.73929 39.002C8.79028 39.002 8.86675 39.002 8.91773 39.002C9.96288 38.9256 10.9571 38.4926 11.7218 37.7539C12.563 36.7861 13.3787 35.7928 14.169 34.7994C15.673 36.6587 18.3496 37.6266 20.6183 37.2955C20.7713 37.2955 20.9242 37.2955 21.0772 37.2955C23.4479 37.4992 25.6147 36.1493 27.8069 36.1493C30.0502 36.3531 32.3189 36.404 34.4602 36.0729C35.174 35.9711 35.8622 35.8182 36.5505 35.6145C36.8309 36.2258 37.3662 36.6842 38.0035 36.888C38.6918 37.0663 39.4055 37.1172 40.1193 37.0153C41.7253 36.7097 43.6371 35.8946 44.7333 36.4295C46.3392 37.2191 48.1491 37.3464 50.0355 37.1936C50.6473 37.1427 51.2846 37.0408 51.9219 36.9389C56.5103 36.1748 61.4302 35.3598 64.9735 32.0742C64.9735 33.9335 60.7164 34.6212 61.991 36.7097C62.1185 36.9389 65.9167 35.2834 66.2991 35.1051C67.4717 34.5957 69.0776 34.0353 69.7404 32.8637C69.8169 32.7364 69.8679 32.5836 69.8934 32.4053C69.9443 31.7176 69.0267 31.3101 68.7208 30.7497C68.3384 30.113 68.3894 29.298 68.8737 28.7376C69.1796 28.381 69.511 28.0754 69.8934 27.8207C70.4032 27.4641 70.4542 26.7764 69.7404 26.3435Z" fill="#7C9BAC"/>
<path d="M25.6912 12.2331C26.0481 11.9275 26.201 11.6728 26.1755 11.2907C26.099 9.68615 23.8558 8.48906 22.4283 8.56547C21.791 8.59094 21.1282 8.82017 20.8478 9.43145C18.0692 13.5066 11.9768 24.5351 9.09622 28.4574C8.96876 28.5848 8.81581 28.6357 8.63737 28.6612C8.50991 28.6612 8.43344 28.6102 8.43344 28.4574C8.43344 28.381 8.43344 28.3301 8.45893 28.2537C9.27466 25.8595 11.9003 17.0215 14.2965 13.583C14.5259 13.3538 14.6534 13.0482 14.6534 12.7425C14.5769 11.3926 12.1552 10.5267 10.9316 10.5776C10.2178 10.6031 9.19818 10.9087 9.01974 11.7747C7.89812 19.11 4.63521 24.7388 4.0489 31.1827C4.02341 31.361 4.02341 31.5393 4.0489 31.7176C4.15087 33.5514 5.57839 34.5192 7.13337 34.5702C7.77066 35.3597 8.255 35.8182 8.73934 35.7927C9.17269 35.7673 9.60605 35.3852 10.1669 34.4683C12.7925 30.0875 17.8143 19.543 25.6912 12.2331Z" fill="white"/>
<path d="M60.9705 20.18C60.8685 20.18 60.8175 20.2564 60.7156 20.3838C60.1548 21.1988 57.1213 25.1721 56.2291 26.2418C54.98 27.7446 53.2976 29.5784 52.9662 29.8586C52.7622 30.1133 52.5073 30.2661 52.2014 30.3425C51.9975 30.3425 51.819 30.1897 51.819 29.8331C51.7171 27.7446 54.929 23.7458 55.9742 22.294C56.2036 21.9884 56.331 21.6318 56.3565 21.2752C56.3056 20.0781 53.8839 20.0272 52.9152 19.4159C52.9917 19.4159 53.4505 18.2443 53.3995 17.3274C53.374 16.6907 53.0681 16.1303 52.2269 16.1813C49.3974 16.3341 47.1541 18.3207 47.2306 19.9508C47.2816 20.8422 47.9443 21.6318 49.5248 22.0139C49.4738 22.0903 49.3974 22.1667 49.3209 22.2686C48.8365 22.8544 48.2502 23.5166 47.7914 24.0769C46.7972 25.2995 45.7011 25.8089 44.7834 25.8598H44.7069C45.956 23.6185 46.7972 21.6063 46.7717 21.0205C46.7208 19.9763 45.4717 18.7028 43.7892 18.7792C42.897 18.3207 42.3617 17.3529 41.597 17.4038C39.6596 17.4802 36.4732 22.4978 35.2496 26.9295C35.1731 27.0314 35.0711 27.1333 35.0202 27.2097C34.077 28.5087 32.9554 29.7057 31.7318 30.75C31.6553 30.8009 31.5788 30.8519 31.5023 30.8519C31.2984 30.8519 31.1964 30.6481 31.1709 30.368C31.069 28.5596 36.3967 17.9896 39.7871 13.7871C40.6793 12.6664 41.0107 11.775 40.9852 11.0873C40.9087 9.32988 38.6145 8.74408 37.4928 8.79502C36.5496 8.84595 36.2692 8.9733 36.2947 9.17706C36.2947 9.40629 36.6516 9.7374 36.6771 10.1194C36.6771 10.2468 36.6516 10.3996 36.5751 10.5015C34.077 15.0097 29.0806 24.7646 28.2904 28.9416C28.2649 28.9416 28.2394 28.9162 28.2394 28.9162C27.9335 29.2728 26.659 30.5463 25.9707 30.5717C25.5628 30.5972 25.2314 30.2915 25.2059 29.884C25.155 28.687 27.3472 25.0448 28.0355 24.1024C28.163 23.9496 28.2394 23.7458 28.2649 23.5675C28.2394 22.9053 27.0158 22.294 25.5883 22.3704C25.2314 22.3704 24.8491 22.4468 24.5177 22.5487C24.0588 25.5032 20.8469 31.8707 18.884 31.9726C18.6546 31.9726 18.5527 31.7433 18.5272 31.3358C18.4252 29.0945 20.9998 22.0903 25.8177 21.861C26.3531 21.8356 26.8884 21.912 27.4237 22.0393C27.5512 22.0648 27.6786 22.0903 27.7806 22.0903C28.3414 22.0648 28.8257 21.0715 28.7747 20.0272C28.7238 18.8811 28.0355 17.7349 26.1236 17.8113C20.3626 18.066 15.927 27.1842 16.1565 31.9216C16.2329 33.3989 17.635 34.2139 19.088 34.163C19.9802 34.112 21.4587 33.0678 22.7842 31.4632C22.9372 32.6857 23.6255 33.2461 24.6196 33.2206C25.6903 33.1696 27.0923 32.3291 28.3159 30.6736C28.6473 32.0744 29.8454 33.8064 31.0945 33.7554C31.4514 33.73 31.7827 33.5772 32.0377 33.3225C32.8534 32.6093 33.8985 31.2849 34.8162 30.0878C34.8162 30.2661 34.8162 30.4444 34.8162 30.5972C34.9182 32.482 35.8104 33.7554 37.9007 33.6536C39.5576 33.5772 41.8009 30.8264 43.6363 27.8974C43.8657 27.9483 44.1206 27.9483 44.3755 27.9229C45.905 27.8464 47.6639 26.955 48.9385 25.0702C49.5758 24.1279 50.2131 23.1345 50.7229 22.294C51.0033 22.345 51.3092 22.345 51.6151 22.3704C50.4425 24.8665 48.7091 29.1963 48.8365 31.6924C48.8875 32.864 49.3719 33.6026 50.4935 33.5517C52.5838 33.4498 55.8212 29.5529 57.1978 27.5153C58.9567 24.9938 60.7666 22.2686 61.5823 20.8677C61.5058 20.7404 61.2764 20.1546 60.9705 20.18ZM41.1891 25.274C41.2146 25.6815 41.3166 26.089 41.5205 26.4711C40.3989 28.9162 38.3595 31.7943 37.4673 31.8452C37.2634 31.8452 37.136 31.7433 37.1105 31.4632C36.932 27.8464 40.1949 23.0581 41.597 22.9817H41.6989C41.342 23.6694 41.1636 24.4844 41.1891 25.274Z" fill="white"/>
<path d="M75.7554 6.19678H70.4531V9.20222H75.7554V6.19678Z" fill="#C4C4C4"/>
<path d="M83.9144 42.1096L81.3652 41.9059L79.6828 40.4541L71.9079 41.4474L68.1097 41.4729L68.0332 49.4704H73.5649C73.9472 49.3431 77.4396 48.5535 78.9945 48.6299C80.5495 48.7063 83.1751 49.1903 83.9399 49.4704C83.9399 49.4704 86.591 49.394 87.5597 49.1903C88.5284 48.9865 90.6696 47.8913 90.6696 47.8913L83.9144 42.1096Z" fill="#7C9BAC"/>
<path d="M67.8531 49.7251C67.1394 49.7251 66.4766 50.1581 66.2217 50.8458C66.2217 50.8458 71.32 50.8712 71.4474 50.8712C71.7278 50.8203 71.9828 50.6675 72.1612 50.4637C72.2632 50.2345 72.3651 49.9798 72.4161 49.7251H67.8531Z" fill="#E3E3E3"/>
<path d="M91.6116 50.133C91.4586 49.9802 91.2547 49.8528 91.0508 49.7764C90.8468 49.7 90.6429 49.649 90.4135 49.649C90.3625 49.649 90.3115 49.649 90.2351 49.649H90.0311C89.9291 49.649 89.8017 49.649 89.6997 49.6236C89.2409 49.5726 88.8075 49.4198 88.3997 49.1906L88.3232 49.1396L86.029 49.7C86.0035 49.9802 86.0544 50.2603 86.1564 50.515C86.3094 50.8207 87.0231 50.9225 87.278 50.9225L91.841 50.8716V50.6678C91.8665 50.4641 91.7645 50.2858 91.6116 50.133Z" fill="#E3E3E3"/>
<path d="M83.5571 39.3331L85.0356 36.4805C85.0356 36.4805 86.3867 36.7352 87.024 37.0917C87.2279 37.1936 88.0436 37.7285 88.1201 37.9832C88.1966 38.2379 87.8142 39.1293 87.7887 39.2567C88.1201 39.5114 88.2476 39.9444 88.0946 40.3264C87.8652 40.7849 86.922 40.632 86.5396 40.5811C86.1573 40.5302 83.5571 39.3331 83.5571 39.3331Z" fill="#E3E3E3"/>
<path d="M71.4484 31.1318C69.7149 31.1318 68.007 30.9025 66.3501 30.3931C65.7893 30.2149 65.2539 30.0111 64.7441 29.7564C64.4892 29.6291 64.2343 29.4762 64.0049 29.3234C63.9029 29.247 63.8009 29.1451 63.699 29.0687C63.699 29.0687 63.699 29.0687 63.6735 29.0432H63.6225L63.5715 28.8904L63.7245 28.814L63.5715 28.8904L63.5205 28.7376L63.4185 28.381C63.2401 27.8207 63.0617 27.2604 62.8577 26.7C62.8832 26.8783 62.9087 27.0821 62.9342 27.2858L62.9852 27.5405L62.7303 27.5151C62.3224 27.4896 61.9655 27.3368 61.6341 27.0821C61.2518 26.7764 60.9204 26.3689 60.691 25.9359C60.2831 25.1464 59.9007 23.0578 59.8752 22.6248C59.8497 22.2683 59.8752 21.9372 59.9262 21.5806C59.9517 21.3514 60.0282 21.1221 60.1047 20.8929C60.1556 20.7146 60.3086 20.5618 60.5125 20.4854C60.6145 20.4599 60.7165 20.4599 60.8184 20.4599C61.1498 20.4599 61.5067 20.5873 61.7616 20.791C62.1185 21.0967 62.3989 21.4787 62.6028 21.9117C62.7303 22.1664 62.8068 22.4466 62.8577 22.7267C63.0107 22.4466 63.2656 21.9626 63.5205 21.5042C64.5147 19.5685 66.1716 16.3083 67.956 15.3659L67.9815 15.3405H68.007C68.6698 15.1877 69.3581 15.0858 70.0463 15.0094C70.8111 14.933 71.5758 14.882 72.3661 14.882H72.3916C73.921 14.882 75.476 15.0348 76.98 15.315H77.0055C77.031 15.315 77.0565 15.315 77.0565 15.315H77.082C77.8977 15.0348 78.7134 14.7801 79.5292 14.5764C80.2939 14.3726 81.0587 14.2453 81.8489 14.1943H81.9509L82.0273 14.2707C82.1548 14.449 82.2568 14.6273 82.3842 14.8311C82.5117 15.0858 82.6391 15.3405 82.7411 15.6206C82.945 16.1555 83.1235 16.7158 83.2509 17.2762C83.4804 18.4223 83.5823 19.5685 83.5568 20.7401C83.5313 20.842 83.6078 20.9184 83.7098 20.9438C83.7862 20.9438 83.8627 20.9184 83.8882 20.842V20.8165C83.9647 20.6127 84.0921 20.4344 84.2196 20.2307V20.2052C84.3471 20.0015 84.5255 19.8232 84.7039 19.6703C85.0608 19.3647 85.5452 19.2628 86.004 19.3647C86.157 19.3902 86.3099 19.543 86.4119 19.7722C86.5138 20.0015 86.5648 20.2307 86.5903 20.4599C86.6413 20.791 86.6668 21.1476 86.6413 21.5042L86.5903 22.0645C86.4883 23.0069 86.2079 23.9493 85.7746 24.7898C85.5452 25.2228 85.2138 25.6048 84.8314 25.9105C84.4745 26.1652 84.0667 26.318 83.6333 26.318C83.5823 26.318 83.5568 26.318 83.5058 26.318H83.3274V26.1397C83.3274 25.9105 83.3019 25.6812 83.3019 25.452C83.2509 25.7322 83.1744 25.9869 83.149 26.2161C83.1235 26.3689 83.098 26.5217 83.0725 26.6746C83.047 26.8019 83.0215 26.9292 82.996 27.0821L82.9195 27.5151C82.9195 27.566 82.894 27.6424 82.894 27.6933V27.7188H82.8431L82.894 27.7443V27.7698L82.8686 27.7952C82.8686 27.8207 82.8431 27.8207 82.8431 27.8462C82.6646 28.0499 82.4862 28.2282 82.2568 28.381C82.0273 28.5593 81.7979 28.7121 81.543 28.8395C81.0332 29.1197 80.5233 29.3744 79.988 29.5781C77.8212 30.4186 75.5525 30.928 73.2583 31.0808C72.5955 31.1063 72.0092 31.1318 71.4484 31.1318Z" fill="#E3E3E3"/>
<path d="M77.439 38.2893C77.4135 38.2893 77.439 38.2893 77.439 38.2893C77.7449 38.6204 78.688 39.5373 78.688 39.5373L74.5584 39.9193C74.1761 39.2571 73.3348 39.0024 72.6721 39.3845C72.4426 39.5118 72.2642 39.6901 72.1367 39.9193L68.9248 39.7665C68.9248 39.7665 71.9328 36.6847 72.5446 35.8442C73.1564 35.0037 75.3741 31.1577 75.3741 31.1577C75.3741 31.1577 78.841 32.8897 80.4215 33.6028C82.1549 34.3669 85.3668 35.5385 85.3668 35.5385L83.251 39.2062C83.251 39.2062 81.849 38.3147 81.4666 39.0788C81.0842 39.8429 82.9196 40.5306 82.9196 40.5306L81.4411 41.5239C81.4666 41.5239 77.8978 38.6204 77.439 38.2893Z" fill="white"/>
<path d="M69.001 31.4376L68.0069 31.2593L61.4556 39.9445C61.4556 39.9445 63.8773 41.7274 64.4126 41.9821C65.3303 42.4405 67.6755 43.1282 67.6755 43.1282C67.6755 43.1282 67.8029 37.2702 67.9049 36.4297C68.0069 37.2702 68.1088 39.6643 68.1088 39.6643L69.052 39.7407C69.052 39.7407 70.5815 38.238 71.0659 37.5758C71.3463 37.2447 72.5953 35.0798 72.5953 35.0798L69.001 31.4376Z" fill="white"/>
<path d="M70.6068 40.3265C69.8421 40.301 69.0773 40.2755 68.2871 40.2246C68.2871 40.4538 68.2871 40.6831 68.3126 40.9123C69.1538 40.9632 70.0205 40.9632 70.8872 40.9632C71.1931 40.9632 71.499 40.9632 71.8049 40.9378C71.7794 40.8104 71.754 40.6831 71.754 40.5557C71.754 40.4793 71.754 40.4029 71.7794 40.301C71.3971 40.352 71.0147 40.352 70.6068 40.3265Z" fill="#FCBD19"/>
<path d="M69.4614 31.514L74.8911 31.4121C74.2793 32.7875 73.4891 34.061 72.5204 35.2071C71.3223 34.1374 70.2772 32.8894 69.4614 31.514Z" fill="#E3E3E3"/>
<path d="M86.4888 36.6337L88.1202 34.1377L89.0634 34.749L87.4829 37.1941L86.4888 36.6337Z" fill="#FCBD19"/>
<path d="M79.1468 40.2505C78.9684 40.0977 78.7899 39.9194 78.6115 39.7666C77.3624 39.9958 76.1133 40.1486 74.8643 40.2251C74.8897 40.3524 74.9152 40.4543 74.9152 40.5816C74.9152 40.658 74.9152 40.7599 74.8898 40.8363C76.3428 40.7345 77.7448 40.5562 79.1468 40.2505Z" fill="#FCBD19"/>
<path d="M77.9746 41.8037C77.9746 41.8037 80.5747 46.3119 84.424 48.1712C84.4494 48.1712 78.4589 42.0075 77.9746 41.8037Z" fill="#010101"/>
<path d="M79.9881 47.7385C78.4076 46.9744 77.0311 45.7773 75.9604 44.6057L76.6742 44.3765C78.3312 46.032 79.9881 47.7385 79.9881 47.7385Z" fill="#010101"/>
<path d="M73.36 41.6766C73.9973 41.6766 74.5071 41.1672 74.5071 40.5304C74.5071 39.8937 73.9973 39.3843 73.36 39.3843C72.7227 39.3843 72.2129 39.8937 72.2129 40.5304C72.2129 41.1672 72.7227 41.6766 73.36 41.6766Z" fill="#C4C4C4"/>
<path d="M72.0087 40.1483L68.083 40.0464L68.1085 41.1416L72.0597 41.1925L72.0087 40.1483Z" fill="#C4C4C4"/>
<path d="M78.6884 39.562L74.6353 40.0459L74.6607 41.0647C76.3177 41.0902 78.0001 40.861 79.5806 40.377L78.6884 39.562Z" fill="#C4C4C4"/>
<path d="M74.1253 41.7275L72.8252 41.9313L73.1566 45.599L75.9352 44.4528L74.1253 41.7275Z" fill="#C4C4C4"/>
<path d="M64.1316 43.6125C63.1884 42.8739 63.2139 41.3457 63.2139 41.3457L66.069 42.823C66.069 42.823 65.0748 44.3511 64.1316 43.6125Z" fill="#E3E3E3"/>
<path d="M67.4211 48.3754C66.6819 48.3245 64.5406 47.9934 64.5406 47.9934C64.4131 48.0443 72.29 46.3378 74.2019 45.319C76.4706 44.5295 82.3591 41.3203 83.2768 40.709L84.169 41.1929C83.4298 42.2117 80.2179 44.6313 78.8413 45.4209C77.3118 46.3633 72.443 48.8084 72.443 48.8084C72.443 48.8084 67.7015 48.4009 67.4211 48.3754Z" fill="white"/>
<path d="M86.3354 42.3388C85.8765 42.237 81.7979 39.8937 81.7979 39.8937C81.543 39.7409 81.441 39.4098 81.543 39.1296C81.7214 38.7731 82.2567 38.7985 82.3842 38.875C82.3842 38.875 86.7687 41.1927 86.9727 41.4729C87.1766 41.753 87.2531 41.9568 87.1256 42.186C86.9982 42.4153 86.7942 42.4662 86.3354 42.3388Z" fill="#FCBD19"/>
<path d="M62.8072 38.1362L61.915 39.3588C61.915 39.3588 64.974 41.5237 67.6251 42.2878V40.6068C67.6506 40.5813 64.5407 39.4607 62.8072 38.1362Z" fill="#7C9BAC"/>
<path d="M68.2616 31.3864L67.8793 31.3354L67.293 32.125C68.3381 34.1881 71.4481 36.8879 71.4481 36.8879L72.3913 35.6398C70.2245 34.4173 68.2616 31.3864 68.2616 31.3864Z" fill="#7C9BAC"/>
<path d="M76.1381 31.4888C76.1381 31.4888 73.1046 37.9581 69.6123 39.9702L71.7536 40.0212C71.7536 40.0212 75.2714 37.627 77.7951 32.6349L76.1381 31.4888Z" fill="#7C9BAC"/>
<path d="M82.6131 38.9514C82.6131 38.9514 84.372 36.1498 84.6269 35.2328C84.6524 35.1564 82.5366 34.4688 82.5366 34.4688C81.8738 36.9648 79.707 40.1231 79.707 40.1231L81.211 41.2692C81.5424 40.8871 81.8483 40.4542 82.1287 40.0466C82.1287 40.0466 81.3385 39.6137 81.6699 39.0788C82.0013 38.5439 82.6131 38.9514 82.6131 38.9514Z" fill="#7C9BAC"/>
<path d="M60.8942 22.6762C59.0588 22.4215 60.053 24.6883 60.053 24.6883L60.8432 26.2165C60.8432 26.2165 60.2569 25.0194 61.2256 24.8411C62.1943 24.6629 62.5512 25.7326 62.5512 25.7326C62.5512 25.7326 62.7041 22.9564 60.8942 22.6762Z" fill="white"/>
<path d="M86.565 22.2938C86.5904 21.5297 85.7237 21.6571 84.806 21.9882C83.8883 22.3193 83.353 25.1974 83.353 25.1974L83.5315 25.9615C83.5315 25.9615 84.2452 23.3126 85.1884 23.2872C86.1316 23.2617 85.9786 24.5861 85.9786 24.5861C85.9786 24.5861 86.5395 23.0579 86.565 22.2938Z" fill="white"/>
<path d="M65.7381 28.2277C66.3753 27.6165 66.7577 26.8014 66.8342 25.9355C66.9107 24.5092 66.2479 22.7263 66.5283 22.3442C66.5283 22.3442 71.1168 22.5734 71.856 22.3442C72.5953 22.115 73.2326 20.4849 71.856 19.3388C72.009 19.8227 72.0854 20.3066 72.1364 20.816C72.1874 21.1726 72.1109 21.5037 71.9835 21.8348C71.9835 21.8348 71.6011 21.8603 69.7657 20.9688C69.0265 20.6377 68.2872 20.2557 67.5989 19.8482C67.5989 19.8482 69.2814 17.2248 68.7206 15.4419L67.4205 15.5183C67.4205 15.5183 66.7832 18.0398 66.2989 18.8039C65.8145 19.568 64.3615 21.7839 64.7184 22.9046C65.0753 24.0252 65.8145 25.9609 65.84 26.4449C65.8655 26.9288 65.7381 28.2277 65.7381 28.2277Z" fill="white"/>
<path d="M78.3569 21.02C78.3569 21.02 78.7648 18.142 81.1355 17.0722C79.708 16.9449 78.3314 17.5816 77.4902 18.7278C76.0372 20.7144 75.2979 21.1983 75.2979 21.1983C75.2979 21.1983 74.1763 21.3002 73.8959 19.8994L73.7685 20.4852C73.7175 20.5616 73.9979 22.1662 74.8901 22.5228C75.7823 22.8793 77.6686 22.2935 77.6686 22.2935H82.1042C81.212 21.1983 79.759 20.7144 78.3569 21.02Z" fill="white"/>
<path d="M72.1367 25.1978C72.1367 25.1978 72.5956 27.0061 73.5642 27.1589C74.5329 27.3117 75.1702 25.1978 75.1702 25.1978C75.1702 25.1978 74.3545 26.0128 73.5897 25.9618C72.825 25.9109 72.1367 25.1978 72.1367 25.1978Z" fill="white"/>
<path d="M71.2954 29.0435C71.2954 29.0435 73.921 29.5274 75.6035 28.7124C75.6035 28.7124 74.7623 30.0368 73.2583 30.0114C71.7543 29.9859 71.2954 29.0435 71.2954 29.0435Z" fill="white"/>
<path d="M91.8667 49.9032C91.6882 49.7249 91.4588 49.5721 91.2039 49.4702C90.9745 49.3683 90.7195 49.3174 90.4646 49.2919C90.1842 49.2665 90.0058 49.2665 89.8018 49.241C89.5979 49.2155 89.4195 49.1391 89.241 49.0627C89.8273 48.808 90.4136 48.5024 90.9235 48.1203C90.949 48.1203 90.949 48.0948 90.9745 48.0694C91.0764 47.9675 91.0509 47.7892 90.949 47.7128L84.3212 41.8038C84.3722 41.7529 84.4231 41.7019 84.4741 41.6765C84.6271 41.7529 84.78 41.8547 84.933 41.9311L85.6722 42.3641L86.0546 42.5934C86.1311 42.6443 86.2076 42.6698 86.284 42.7207C86.386 42.7717 86.488 42.7717 86.5899 42.7971H86.6154C87.0998 42.7971 87.5076 42.4151 87.5076 41.9311C87.5076 41.7019 87.4311 41.4982 87.2782 41.3453C87.2272 41.2944 87.2017 41.2435 87.1507 41.218L87.0997 41.1671L87.0488 41.1161L86.8703 41.0142C86.8193 40.9888 86.7939 40.9633 86.7429 40.9378C86.8448 40.9378 86.9213 40.9633 87.0233 40.9633C87.3292 40.9888 87.6351 40.9378 87.9155 40.8359C88.0939 40.7595 88.2214 40.6322 88.3233 40.4539C88.3998 40.3011 88.4508 40.0973 88.3998 39.919C88.3488 39.6643 88.1959 39.4096 87.9665 39.2823C88.0684 39.1549 88.1449 39.0276 88.2214 38.8748C88.3488 38.671 88.4253 38.4673 88.5018 38.2635C88.5273 38.1871 88.5273 38.0852 88.5273 38.0088C88.5273 37.9833 88.5018 37.9324 88.5018 37.9069L88.4763 37.856C88.4508 37.8305 88.4253 37.7796 88.4253 37.7541C88.3488 37.6522 88.2724 37.5503 88.1704 37.4739C88.0939 37.3975 88.0174 37.3466 87.941 37.2702L89.4705 34.9015C89.5469 34.7741 89.5214 34.5958 89.394 34.5194L88.3233 33.8317C88.1959 33.7553 88.0174 33.7808 87.941 33.9082L86.335 36.3533C86.0801 36.2514 85.8252 36.175 85.5703 36.0986L85.7742 35.691C85.7742 35.6656 85.7997 35.6656 85.7997 35.6401C85.8507 35.4873 85.7487 35.3345 85.6212 35.309C83.9388 34.7232 82.2819 34.0355 80.6504 33.2714C79.3503 32.6601 78.0503 32.0234 76.7502 31.3612C77.9483 31.1065 79.0954 30.7499 80.217 30.266C80.7779 30.0367 81.3132 29.7566 81.823 29.4509C82.0779 29.2981 82.3328 29.1198 82.5878 28.9415C82.8682 28.7378 83.0976 28.5086 83.3015 28.2284C83.327 28.1774 83.3525 28.1265 83.378 28.0756C83.378 28.0501 83.4035 28.0246 83.4035 27.9737L83.429 27.9227V27.8973C83.4545 27.7954 83.4545 27.7445 83.48 27.668C83.5055 27.5152 83.5055 27.3624 83.5309 27.2096C83.5309 27.0568 83.5309 26.904 83.5564 26.7766C84.0918 26.8021 84.6271 26.6493 85.0604 26.3436C85.4938 26.0125 85.8762 25.605 86.1566 25.1211C86.6664 24.2042 86.9978 23.1599 87.1252 22.1156C87.2017 21.5808 87.2017 21.0459 87.1507 20.511C87.1252 20.2309 87.0488 19.9507 86.9468 19.6705C86.8703 19.5177 86.7939 19.3649 86.6664 19.2375C86.5899 19.1611 86.5389 19.1102 86.437 19.0592C86.386 19.0338 86.335 19.0083 86.284 18.9828C86.233 18.9574 86.2076 18.9574 86.1566 18.9319C85.8507 18.8555 85.5448 18.8555 85.2389 18.9319C85.0604 18.9828 84.9075 19.0338 84.7545 19.1357C84.831 18.7027 84.882 18.2697 84.9075 17.8367C84.9585 17.0217 84.9585 16.1812 84.9075 15.3661C84.882 15.1624 84.882 14.9586 84.8565 14.7294C84.8565 14.6275 84.831 14.5001 84.8055 14.3983C84.78 14.2964 84.7545 14.169 84.729 14.0672C84.6016 13.6596 84.3977 13.2521 84.1682 12.8955C83.6839 12.1824 83.1231 11.5711 82.4603 11.0363C81.1602 9.99199 79.7072 9.17695 78.1268 8.64209C77.8463 8.54021 77.5914 8.4638 77.311 8.38739C77.8973 7.90346 78.6621 7.08843 78.815 5.99322C78.968 4.9999 78.6621 3.34436 77.5914 2.0454C76.8777 1.17943 75.5521 0.109694 73.2324 0.0078146C71.346 -0.0685949 69.8165 0.415332 68.7204 1.45959C67.6752 2.47839 67.0889 3.87923 67.0889 5.33101C67.0634 6.8592 68.1086 7.92893 68.8479 8.48927C68.6694 8.54021 68.5165 8.59115 68.338 8.66756C66.7576 9.25336 65.33 10.2212 64.2084 11.4692C63.6476 12.106 63.2142 12.8701 62.9083 13.6596C62.6534 14.4492 62.475 15.2897 62.424 16.1302C62.322 17.7603 62.424 19.3649 62.7044 20.9695C62.7044 20.995 62.7044 20.995 62.7044 21.0204C62.5515 20.8167 62.373 20.6384 62.1691 20.4601C61.9142 20.2563 61.6338 20.129 61.3279 20.0526C61.022 19.9762 60.6906 19.9762 60.3847 20.0526C60.3337 20.0526 60.2827 20.078 60.2572 20.1035C60.2062 20.129 60.1553 20.1545 60.1043 20.1799C60.0278 20.2309 59.9513 20.3073 59.8749 20.3837C59.7729 20.511 59.6709 20.6638 59.5944 20.8167C59.4925 21.0968 59.416 21.377 59.3905 21.6572C59.3395 22.192 59.3395 22.7269 59.416 23.2618C59.5435 24.306 59.8749 25.3503 60.4102 26.2672C60.6906 26.7511 61.0475 27.1587 61.5063 27.4643C61.9142 27.719 62.373 27.8718 62.8574 27.8463C62.9338 28.2284 63.0103 28.6104 63.1123 28.9925L63.1378 29.0944L63.1632 29.1453C63.1632 29.1708 63.1887 29.1962 63.1887 29.2217C63.2397 29.3236 63.2907 29.4255 63.3672 29.5019C63.4692 29.6292 63.5966 29.7311 63.7496 29.833C64.0045 30.0113 64.2594 30.1896 64.5398 30.3424C65.0751 30.6225 65.6359 30.8772 66.1967 31.0555C66.5791 31.1829 66.9615 31.2848 67.3439 31.3866L61.2259 39.8936C61.1494 39.9954 61.1749 40.1483 61.2769 40.2247C61.7612 40.6067 62.2456 40.9633 62.7299 41.2944C62.7299 41.3453 62.7299 41.3708 62.7299 41.4218C62.7809 41.8802 62.9083 42.3387 63.0868 42.7717C63.2652 43.2556 63.5456 43.6631 63.9535 43.9942C64.0809 44.0706 64.2084 44.147 64.3359 44.198C64.4123 44.2234 64.4888 44.2489 64.5653 44.2489H64.6163H64.6672H64.7692C65.0496 44.2489 65.33 44.1725 65.5594 44.0451C65.8908 43.8414 66.1458 43.5358 66.2732 43.1792C66.6556 43.332 67.0634 43.4339 67.4713 43.5357C67.4713 44.4017 67.4713 45.2677 67.4713 46.1337C67.4713 46.5157 67.4713 46.8723 67.4968 47.2543C66.4262 47.509 65.33 47.7383 64.2339 47.942C64.1574 47.942 64.1064 48.0184 64.1064 48.0694C64.0809 48.1458 64.1574 48.2477 64.2339 48.2477C65.33 48.426 66.4262 48.5788 67.5223 48.7061C67.5223 48.9863 67.5478 49.2665 67.5478 49.5466C67.3948 49.5976 67.2674 49.6485 67.1144 49.6994C66.9105 49.8013 66.7321 49.9032 66.5536 50.0306C66.3497 50.1834 66.1967 50.3617 66.0948 50.5909C66.0693 50.6673 66.0438 50.7692 66.0438 50.8456C66.0693 50.9729 66.1203 51.0748 66.1967 51.1512C66.3242 51.2531 66.4771 51.304 66.6301 51.2786H67.2164H68.389C69.1537 51.2786 69.944 51.304 70.7342 51.3295C70.9382 51.3295 71.1166 51.3295 71.3205 51.3295C71.5499 51.3295 71.8049 51.2786 72.0088 51.1767C72.2637 51.0748 72.4676 50.8965 72.5951 50.6673C72.6971 50.489 72.7735 50.2853 72.799 50.0815H73.5638C73.6148 50.0815 73.6657 50.0815 73.7167 50.056C74.507 49.6994 75.3227 49.4448 76.1639 49.2919C77.0306 49.1391 77.8973 49.0627 78.764 49.0372C79.6307 49.0372 80.4975 49.1136 81.3642 49.2919C82.2054 49.4448 83.0466 49.6994 83.8113 50.056C83.8368 50.0815 83.8878 50.0815 83.9133 50.0815H83.9388C84.0663 50.0815 84.1937 50.0815 84.3212 50.0815C84.729 50.0815 85.1369 50.056 85.5193 50.0306C85.5448 50.1579 85.5703 50.2598 85.5958 50.3871C85.6467 50.54 85.7232 50.6673 85.8252 50.7947C86.0036 51.0239 86.284 51.2022 86.5644 51.2786C86.8193 51.3295 87.0743 51.355 87.3292 51.3295L88.0174 51.304C88.9351 51.2786 89.8273 51.2786 90.745 51.2786H91.4333H91.6117C91.6882 51.2786 91.7647 51.2786 91.8157 51.2786C91.9431 51.2531 92.0451 51.2022 92.1216 51.1003C92.198 51.0239 92.2235 50.8965 92.2235 50.7947C92.198 50.4126 92.0706 50.107 91.8667 49.9032ZM87.9155 38.0852V38.0597C87.9155 38.0597 87.9155 38.0597 87.9155 38.0852ZM87.2527 37.5758C87.4056 37.6777 87.5841 37.7796 87.7116 37.8814C87.788 37.9324 87.839 37.9833 87.89 38.0343L87.9155 38.0597C87.839 38.4418 87.7116 38.8238 87.5841 39.1804L87.5586 39.2314C87.5331 39.2823 87.5841 39.3587 87.6351 39.3842C87.788 39.5115 87.8645 39.6898 87.8645 39.8936C87.8645 40.0464 87.7625 40.1737 87.6351 40.1992C87.4311 40.2501 87.2272 40.2501 87.0233 40.2247C86.7939 40.1992 86.5389 40.1483 86.3095 40.0973C85.8252 39.97 85.3663 39.8172 84.9075 39.6389C84.5506 39.486 84.1937 39.3587 83.8368 39.1804L85.1369 36.6589C85.8762 36.9391 86.5899 37.2192 87.2527 37.5758ZM80.3445 33.8063C81.8995 34.5194 83.48 35.1307 85.0859 35.6656L83.1996 38.9512L83.0466 38.8748L82.6642 38.671C82.4858 38.5691 82.3074 38.4927 82.1034 38.4927C81.6191 38.4927 81.2367 38.8748 81.2622 39.3587C81.2622 39.5625 81.3387 39.7917 81.4916 39.9445C81.5426 39.9954 81.5681 40.0209 81.6191 40.0464C81.6446 40.0719 81.6701 40.0719 81.6701 40.0719L81.7211 40.0973L81.925 40.1992L82.5623 40.5303C82.2309 40.7595 81.874 41.0142 81.5171 41.2435C81.1093 40.8614 80.7014 40.5048 80.268 40.1483C79.8347 39.7917 79.4013 39.4351 78.9425 39.104C78.4836 38.7729 78.0503 38.4163 77.5659 38.1107C77.1071 37.7796 76.6482 37.4739 76.1639 37.1683C76.5208 37.6013 76.9286 38.0088 77.311 38.4163C77.6169 38.7474 77.9483 39.0785 78.2797 39.3842C77.0816 39.5625 75.8835 39.6643 74.6854 39.6898C74.2011 38.9512 73.2069 38.7729 72.4931 39.2568C72.3147 39.3842 72.1617 39.537 72.0343 39.7153C71.5754 39.7153 71.1166 39.6898 70.6577 39.6643C70.2499 39.6389 69.8675 39.6134 69.4596 39.5879C69.995 39.1295 70.5048 38.6455 70.9636 38.1361C71.2695 37.7796 71.5754 37.4485 71.8813 37.0664C72.1617 36.7098 72.4421 36.3278 72.7226 35.9457C73.2579 35.2071 73.7932 34.443 74.2775 33.6535C74.7109 32.9658 75.1188 32.2271 75.5011 31.514H75.5266C77.1071 32.3036 78.7131 33.0677 80.3445 33.8063ZM78.6876 42.8735C78.6621 42.8735 76.9032 43.765 76.0364 44.1725C75.756 43.765 75.5011 43.3575 75.2717 42.899C75.0423 42.4405 74.8383 41.9566 74.6344 41.4727C76.3169 41.3453 77.9738 41.0652 79.6053 40.6831C79.6307 40.7086 80.421 41.3963 80.7779 41.6765C80.1406 42.0585 79.5033 42.4151 78.8405 42.7717C78.5346 42.4405 78.2287 42.1094 77.9483 41.7783C78.2032 42.1604 78.4326 42.5424 78.6876 42.8735ZM71.8049 40.9888C71.499 40.9888 71.1931 40.9888 70.8872 40.9888C70.0205 40.9888 69.1792 40.9633 68.3125 40.9378C68.3125 40.7086 68.3125 40.4794 68.287 40.2501C69.0518 40.3011 69.842 40.3266 70.6068 40.352C70.9891 40.352 71.3715 40.352 71.7794 40.352C71.7539 40.4284 71.7539 40.5048 71.7539 40.5812C71.7539 40.7086 71.7794 40.8614 71.8049 40.9888ZM68.338 42.4151C68.338 42.1604 68.338 41.9057 68.338 41.6765C68.8988 41.7019 69.4596 41.7019 70.0205 41.7019V41.9821V42.5424C70.0459 42.899 70.046 43.281 70.0714 43.6376C70.0969 43.9942 70.1224 44.3763 70.1734 44.7328C70.2244 45.0894 70.2754 45.4715 70.3519 45.828C70.4283 45.4715 70.4793 45.0894 70.5303 44.7328C70.5813 44.3763 70.6068 43.9942 70.6323 43.6376C70.6578 43.281 70.6832 42.899 70.6832 42.5424L70.7087 41.9821V41.7019C70.7597 41.7019 71.7284 41.6765 72.1363 41.651C72.1872 41.7019 72.2382 41.7529 72.2892 41.8038C72.2892 41.8038 72.2892 41.8038 72.2892 41.8293C72.3402 42.4915 72.3912 43.1537 72.4931 43.8159C72.5696 44.4017 72.6716 44.9621 72.8245 45.5224C71.346 46.0827 69.8165 46.5412 68.287 46.9487C68.287 46.6431 68.3125 46.3629 68.3125 46.0573C68.338 44.8347 68.338 43.6376 68.338 42.4151ZM72.5951 40.9633C72.4931 40.7595 72.4676 40.5303 72.5441 40.3265C72.6716 39.8936 73.1559 39.6389 73.5893 39.7917C73.8187 39.8681 74.0226 40.0464 74.0991 40.2756C74.1501 40.3775 74.1501 40.4794 74.1501 40.5812C74.1501 40.6831 74.1246 40.785 74.0991 40.8869C74.0736 40.9633 74.0226 41.0397 73.9716 41.0906C73.9461 41.1416 73.9207 41.1671 73.8697 41.1925C73.7167 41.3199 73.5128 41.3963 73.3089 41.3963C73.0285 41.4218 72.748 41.2435 72.5951 40.9633ZM73.3343 42.1604L74.2775 44.9366C74.1756 44.9875 74.0991 45.013 73.9971 45.0639C73.7932 45.1403 73.5638 45.2168 73.3598 45.3186C73.2579 44.8092 73.1814 44.2744 73.1559 43.7395C73.1049 43.2046 73.1049 42.6698 73.0794 42.1604C73.1559 42.1604 73.2324 42.1604 73.3343 42.1604ZM74.0226 42.0076C74.0481 42.0076 74.0736 41.9821 74.0991 41.9821C74.3285 42.3896 74.5579 42.7971 74.8129 43.2046C75.0678 43.6122 75.3482 43.9942 75.6541 44.3763C75.3227 44.5291 74.9913 44.6564 74.6344 44.8092L74.0226 42.0076ZM74.8893 40.2247C76.1384 40.1483 77.3875 39.9954 78.6366 39.7662C78.815 39.9445 78.9935 40.0973 79.1719 40.2501C77.7699 40.5303 76.3423 40.7341 74.9148 40.8359C74.9403 40.6322 74.9403 40.4284 74.8893 40.2247ZM72.4931 34.876C72.2637 34.6468 72.0598 34.4176 71.8558 34.1883C71.5499 33.8572 71.2695 33.5006 70.9891 33.1441C70.6068 32.6856 70.2499 32.2271 69.9185 31.7432C71.0401 31.8451 72.1363 31.8706 73.2579 31.7942C73.6912 31.7687 74.0991 31.7177 74.5325 31.6668C73.8697 32.762 73.1814 33.8317 72.4931 34.876ZM72.2637 7.34313C72.6206 7.1139 73.0285 6.98655 73.4618 6.96108H73.6148H73.7932C73.8952 6.96108 73.9971 6.98655 74.0991 6.98655C74.303 7.01202 74.4815 7.08843 74.6599 7.19031C74.8129 7.29219 74.9403 7.445 75.0168 7.59782C75.0423 7.64876 75.0678 7.6997 75.0678 7.77611C74.4305 7.67423 73.7932 7.62329 73.1559 7.64876C72.6971 7.64876 72.2637 7.67423 71.8049 7.72517C71.9323 7.59782 72.0853 7.44501 72.2637 7.34313ZM66.4007 30.215C65.8653 30.0622 65.33 29.833 64.8457 29.5783C64.5908 29.4509 64.3614 29.3236 64.1319 29.1708C64.03 29.0944 63.928 29.0179 63.8515 28.9415C63.826 28.9161 63.775 28.8651 63.775 28.8651L63.7496 28.8397L63.7241 28.7887L63.6986 28.6868C63.3672 27.5662 62.9848 26.471 62.5005 25.4012C62.526 26.0635 62.6024 26.7002 62.7044 27.3369C62.3475 27.3115 62.0161 27.1587 61.7357 26.9549C61.3788 26.6493 61.0729 26.2927 60.869 25.8597C60.4357 25.0192 60.1807 24.1277 60.1043 23.1854C60.2062 23.109 60.3082 23.0835 60.4357 23.058C60.5376 23.058 60.6141 23.058 60.7161 23.058C60.7416 23.058 60.7671 23.058 60.7671 23.058C60.7925 23.058 60.818 23.058 60.8435 23.0835C60.8945 23.0835 60.92 23.109 60.971 23.109C61.1749 23.1854 61.3534 23.2618 61.5318 23.3636C61.7357 23.491 61.9652 23.6183 62.2201 23.7457C62.1946 23.109 61.7867 22.5741 61.1749 22.3703C61.0984 22.3449 60.9965 22.3194 60.92 22.3194C60.8945 22.3194 60.8435 22.3194 60.818 22.3194C60.7671 22.3194 60.7161 22.3194 60.6906 22.3194C60.5121 22.3449 60.3592 22.3958 60.2062 22.4977C60.1553 22.5231 60.1298 22.5486 60.0788 22.5996C60.0533 22.1666 60.0788 21.759 60.1553 21.3261C60.1807 21.0204 60.4102 20.7657 60.7161 20.6893C61.0475 20.6638 61.3788 20.7657 61.6593 20.9695C61.9906 21.2242 62.475 22.0647 62.475 22.0647C62.5005 22.1156 62.5515 22.1411 62.6024 22.192C62.6279 22.4977 62.6789 22.8033 62.7554 23.0835C62.9593 23.7966 63.2397 24.5098 63.6221 25.1465C63.8005 25.4776 63.979 25.7833 64.1829 26.0889C64.3868 26.3691 64.5398 26.6747 64.6927 26.9804C64.9222 27.6171 64.8202 28.3303 64.4378 28.8906C64.4123 28.9161 64.4123 28.9415 64.4123 28.967C64.4123 28.967 64.4123 28.967 64.4123 28.9925C64.4123 29.0434 64.4633 29.0944 64.5398 29.0689H64.5653C64.8967 29.0179 65.2281 28.8651 65.483 28.6614C65.7634 28.4321 65.9928 28.1265 66.0948 27.7954C66.2477 27.1332 66.2477 26.42 66.0438 25.7833C65.8908 25.1465 65.6869 24.5353 65.534 23.9495C65.4575 23.6693 65.381 23.3636 65.33 23.0835C65.279 22.8033 65.279 22.5231 65.3045 22.243C65.381 21.6572 65.5594 21.0968 65.8144 20.5874C65.8653 20.4601 65.9418 20.3582 65.9928 20.2309L66.0693 20.2563L66.4516 20.3327C66.7066 20.3837 66.9615 20.4601 67.2164 20.511C67.7262 20.6384 68.2361 20.7403 68.7204 20.8931C69.2047 21.0459 69.7146 21.1732 70.2244 21.3515C70.7087 21.5298 71.1931 21.6572 71.7029 21.8355C71.295 21.5044 70.8617 21.2242 70.4283 20.9695C69.9695 20.6893 69.4851 20.4346 69.0263 20.2054C68.5674 19.9762 68.0576 19.7469 67.5478 19.5432C67.2929 19.4413 67.038 19.3649 66.783 19.263L66.6556 19.2121C66.7066 19.1611 66.7321 19.0847 66.783 19.0338C66.9615 18.7791 67.1399 18.5499 67.3184 18.1933C67.4713 17.8876 67.5988 17.582 67.7007 17.2509C67.8792 16.716 68.0066 16.1557 68.1086 15.5954C68.7714 15.4425 69.4597 15.3407 70.1224 15.2642C70.8872 15.1878 71.6519 15.1624 72.4167 15.1369C73.9462 15.1369 75.4756 15.2897 76.9796 15.5699C77.0561 15.5953 77.1071 15.5699 77.1836 15.5444C77.9738 15.2642 78.7895 15.0095 79.6307 14.8058C80.37 14.602 81.1347 14.5001 81.925 14.4237C82.0524 14.602 82.1544 14.7803 82.2564 14.9586C82.3838 15.2133 82.5113 15.468 82.6133 15.7227C82.8172 16.2576 82.9956 16.7924 83.0976 17.3528C83.327 18.4734 83.429 19.6196 83.378 20.7657C83.3525 20.9695 83.5055 21.1478 83.7094 21.1478C83.7859 21.1478 83.8878 21.1223 83.9388 21.0714C83.9643 21.0459 83.9898 21.0459 84.0153 21.0204C84.0408 20.995 84.0663 20.9695 84.0663 20.944C84.0663 20.944 84.0663 20.944 84.0663 20.9185V20.8931C84.1427 20.6893 84.2447 20.511 84.3722 20.3582C84.4996 20.1799 84.6526 20.0016 84.831 19.8488C85.1114 19.6196 85.4683 19.5177 85.8252 19.5432C86.1566 19.5941 86.3095 19.9252 86.3605 20.2309C86.386 20.3837 86.4115 20.562 86.437 20.7148C86.4625 20.8421 86.4625 20.9695 86.4625 21.0968C86.4625 21.1732 86.4625 21.2242 86.4625 21.3006C86.4625 21.3261 86.437 21.4789 86.4625 21.4789C86.4115 21.4279 86.386 21.4025 86.335 21.3515C86.1821 21.2497 86.0291 21.1987 85.8507 21.1732C85.7997 21.1732 85.7487 21.1732 85.7232 21.1732C85.6977 21.1732 85.6467 21.1732 85.6212 21.1732C85.5193 21.1732 85.4428 21.1987 85.3663 21.2242C84.78 21.4279 84.3467 21.9628 84.3212 22.5996C84.6016 22.4722 84.8055 22.3194 85.0095 22.2175C85.1879 22.1156 85.3663 22.0137 85.5703 21.9628C85.6212 21.9628 85.6722 21.9373 85.6977 21.9373C85.7232 21.9373 85.7487 21.9373 85.7742 21.9119H85.8252C85.9271 21.9119 86.0036 21.9119 86.1056 21.9119C86.233 21.9373 86.3605 21.9628 86.4625 22.0392C86.3605 22.9561 86.1056 23.873 85.6722 24.6881C85.4683 25.0956 85.1624 25.4522 84.78 25.7578C84.4486 26.0125 84.0153 26.1399 83.6074 26.1144C83.6074 25.5541 83.5564 24.9937 83.429 24.4334C83.2505 24.9937 83.0976 25.5795 82.9956 26.1653C82.9446 26.4455 82.8937 26.7511 82.8427 27.0313L82.7662 27.4388C82.7662 27.5152 82.7407 27.5662 82.7152 27.6426V27.668C82.7152 27.668 82.6897 27.6935 82.6897 27.719C82.5368 27.8973 82.3583 28.0756 82.1544 28.2284C81.925 28.3812 81.6956 28.534 81.4661 28.6868C80.9818 28.967 80.472 29.1962 79.9366 29.4255C77.7954 30.2405 75.5521 30.7499 73.2579 30.9027C70.8872 31.081 68.5929 30.8518 66.4007 30.215ZM65.2026 43.3829C64.9222 43.5103 64.5908 43.4848 64.3359 43.3065C64.0809 43.0518 63.877 42.7462 63.7496 42.3896C63.6731 42.1858 63.5966 41.9821 63.5456 41.7783C63.8005 41.9312 64.03 42.0585 64.2849 42.2113C64.7692 42.466 65.2536 42.6952 65.7634 42.9245C65.6359 43.1282 65.432 43.281 65.2026 43.3829ZM67.4203 42.4151C67.4203 42.4915 67.4203 42.5679 67.4203 42.6443C66.4517 42.3896 65.5085 42.0585 64.6163 41.6C64.0809 41.3453 63.5456 41.0397 63.0358 40.7341C62.6024 40.4794 62.1436 40.1992 61.7357 39.8936L68.0831 31.4631C68.338 31.514 68.6184 31.5649 68.8733 31.6159C69.4087 32.2781 69.9695 32.8894 70.5303 33.5261C71.0656 34.1119 71.6519 34.6723 72.2892 35.1562C72.2127 35.2835 72.1363 35.3854 72.0598 35.5128C71.8049 35.8948 71.55 36.2514 71.2695 36.6334C71.0146 36.99 70.7342 37.3721 70.4538 37.7286C69.9695 38.3654 69.4596 38.9766 68.9243 39.5625C68.6949 39.537 68.491 39.537 68.2615 39.5115C68.2615 39.2823 68.2615 39.0531 68.2361 38.8238C68.2106 37.6013 68.0831 36.4042 67.8537 35.2071C67.6243 36.4042 67.4968 37.6013 67.4713 38.8238C67.4458 40.0209 67.4203 41.218 67.4203 42.4151ZM67.4458 48.1967C66.7576 48.1458 66.0693 48.0949 65.381 48.0184C66.0693 47.9166 66.7321 47.7892 67.4203 47.6364C67.7262 47.5855 68.0066 47.509 68.3125 47.4581C68.6439 47.3817 68.9753 47.3053 69.2812 47.2289C70.9636 46.7959 72.5951 46.312 74.2266 45.7007C75.858 45.1149 77.4385 44.4272 78.968 43.6376C79.019 43.6122 79.0954 43.5612 79.1464 43.5357C79.2229 43.4848 79.3249 43.4339 79.4013 43.4084C80.7524 42.6952 82.0524 41.9057 83.276 40.9888L83.429 41.0652C83.5564 41.1416 83.6839 41.218 83.8113 41.2689C83.0976 41.9566 82.3328 42.6188 81.5171 43.2046C81.0838 43.5357 80.6249 43.8414 80.1661 44.147C80.0641 44.2234 79.9621 44.2744 79.8857 44.3508C79.4523 44.631 79.019 44.9111 78.5856 45.1658C76.5718 46.3629 74.507 47.4581 72.3402 48.426C70.9891 48.4005 69.6636 48.3495 68.3125 48.2731C68.0066 48.2222 67.7262 48.1967 67.4458 48.1967ZM71.9578 50.2343C71.9068 50.3362 71.8049 50.4381 71.6774 50.489C71.5499 50.5654 71.397 50.5909 71.2441 50.5909C71.0656 50.5909 66.5281 50.6418 66.5026 50.6418C66.5791 50.5145 66.6811 50.4126 66.783 50.3362C66.9105 50.2343 67.0889 50.1579 67.2419 50.107C67.4203 50.0306 67.6243 50.0051 67.8282 49.9796H72.0088C72.0343 50.107 72.0088 50.1834 71.9578 50.2343ZM85.7232 49.241C85.1624 49.2919 84.6016 49.2919 84.0408 49.2665C83.1996 48.9863 82.3583 48.7571 81.4661 48.6297C80.5739 48.4769 79.6562 48.426 78.764 48.426C77.8718 48.426 76.9541 48.5024 76.0619 48.6552C75.6031 48.7316 75.1697 48.808 74.7364 48.9099C74.3285 49.0118 73.8952 49.1136 73.4873 49.2665H68.2361C68.2361 49.0882 68.2615 48.8844 68.2615 48.7061C69.6126 48.8335 70.9891 48.9354 72.3657 49.0118C72.4167 49.0118 72.4422 49.0118 72.4931 48.9863C73.5893 48.5024 74.6599 47.9675 75.7306 47.4326C76.5208 47.0251 77.311 46.5921 78.0758 46.1591L78.2287 46.0573C78.4326 45.9299 78.6366 45.828 78.866 45.7007C79.3503 45.4205 79.8092 45.1149 80.2935 44.8347C80.472 45.013 80.6504 45.1913 80.8289 45.3696C81.925 46.4393 83.1231 47.3817 84.4231 48.1713C83.3015 47.1525 82.1799 46.1337 81.0838 45.0894C80.9308 44.9366 80.7524 44.7838 80.5994 44.6055C81.0328 44.3253 81.4661 44.0451 81.874 43.7395C82.5113 43.2811 83.1486 42.7971 83.7349 42.2877L90.3117 47.8656C89.394 48.3241 88.3998 48.7061 87.4056 48.9863C86.8703 49.1136 86.3095 49.19 85.7232 49.241ZM91.4078 50.6673H90.7195C89.8018 50.6673 88.9096 50.6673 87.992 50.6418H87.3037C87.0998 50.6418 86.9213 50.6164 86.7174 50.5654C86.5644 50.5145 86.437 50.4381 86.3605 50.3107C86.3095 50.2598 86.284 50.1834 86.2585 50.107C86.233 50.0306 86.233 49.9796 86.233 49.9032C86.6664 49.8268 87.1252 49.7504 87.5586 49.6485C87.8135 49.5721 88.0684 49.4957 88.3233 49.4193C88.7567 49.6485 89.2155 49.8013 89.6999 49.8777C89.9548 49.9032 90.2097 49.8777 90.3882 49.9032C90.5921 49.9032 90.7705 49.9541 90.9745 50.0306C91.1529 50.107 91.3058 50.2088 91.4588 50.3362C91.5608 50.4381 91.6372 50.5654 91.6882 50.7182L91.4078 50.6673Z" fill="#010101"/>
<path d="M72.672 26.0128C72.9524 26.2165 73.3093 26.3184 73.6662 26.3184C74.0231 26.3184 74.3545 26.1911 74.6349 25.9873C74.9153 25.809 75.1192 25.5289 75.1957 25.1978C74.7114 25.4015 74.176 25.5289 73.6407 25.5543C73.1054 25.5543 72.5956 25.427 72.1367 25.1978C72.1877 25.5289 72.3916 25.8345 72.672 26.0128Z" fill="#010101"/>
<path d="M71.6269 27.7699C71.9073 27.8208 72.1877 27.8972 72.4426 27.9736C72.723 28.05 73.3603 28.2283 73.3858 28.2283C73.3858 28.2283 75.0937 27.617 75.3741 27.5152C75.4251 27.4897 75.4761 27.4897 75.5525 27.4642C75.6035 27.4642 75.6545 27.4642 75.7055 27.4897C75.8584 27.5406 76.0114 27.5916 76.1643 27.6425L77.1075 28.05C76.8781 27.7699 76.6487 27.5152 76.3683 27.2859C76.2153 27.1586 76.0624 27.0567 75.8839 26.9803C75.782 26.9294 75.6545 26.9039 75.5525 26.8784C75.4506 26.8784 75.3231 26.8784 75.2212 26.9039C74.8643 26.9803 74.5329 27.1076 74.2015 27.2605C73.9211 27.4133 73.6407 27.5661 73.4113 27.7699C73.1818 27.617 72.9269 27.4897 72.672 27.3878C72.3661 27.2605 72.0347 27.1841 71.7033 27.1586C71.5249 27.1586 71.321 27.1841 71.1425 27.235C70.9896 27.3114 70.8366 27.3878 70.6837 27.4897C70.4288 27.6935 70.1993 27.9227 70.0464 28.2028C70.3523 28.0755 70.6327 27.9481 70.8876 27.8463C71.117 27.7699 71.3719 27.7444 71.6269 27.7699Z" fill="#010101"/>
<path d="M69.1281 21.988C68.7202 21.9371 68.3124 21.9116 67.879 21.9116C67.4712 21.9116 67.0378 21.9371 66.6299 21.988C66.1966 22.039 65.7887 22.1408 65.3809 22.2937C65.7887 22.4465 66.1966 22.5484 66.6299 22.5993C67.0378 22.6502 67.4457 22.6757 67.879 22.6757C68.2869 22.6757 68.7202 22.6502 69.1281 22.5993C69.5615 22.5484 69.9693 22.4465 70.3772 22.2937C69.9693 22.1408 69.536 22.039 69.1281 21.988Z" fill="#010101"/>
<path d="M79.326 21.9116C78.8672 21.9116 78.3829 21.9371 77.924 21.988C77.4397 22.039 76.9808 22.1408 76.522 22.2937C76.9808 22.4465 77.4397 22.5484 77.924 22.5993C78.3829 22.6502 78.8417 22.6757 79.326 22.6757C79.7849 22.6757 80.2692 22.6502 80.7281 22.5993C81.2124 22.5484 81.6713 22.4465 82.1301 22.2937C81.6713 22.1408 81.2124 22.039 80.7281 21.988C80.2692 21.9371 79.8104 21.9116 79.326 21.9116Z" fill="#010101"/>
<path d="M77.822 18.8549C78.7652 18.0908 79.8359 17.505 81.0085 17.1229C81.0594 17.0974 81.1104 17.0974 81.1614 17.072C81.1614 17.072 80.9575 16.3333 79.8359 16.5626C80.1672 16.2824 80.3457 15.8749 80.3457 15.4419H80.3202C79.6829 15.7475 79.0711 16.1551 78.5103 16.6135C77.975 17.072 77.4906 17.5559 77.0573 18.0908C76.6239 18.6256 76.2416 19.1605 75.8847 19.7463C75.5278 20.3066 75.2474 20.9179 75.0435 21.5547C75.9102 20.5868 76.8279 19.6699 77.822 18.8549Z" fill="#010101"/>
<path d="M71.9335 21.8354C72.0865 21.6826 72.2139 21.4788 72.2904 21.2496C72.3669 21.0204 72.3924 20.7911 72.3669 20.5619C72.3414 20.3327 72.2904 20.1034 72.2139 19.8997C72.1374 19.6959 71.9845 19.4922 71.8315 19.3394C71.908 19.7978 71.9845 20.1799 72.01 20.5874C72.01 21.0204 71.9845 21.4279 71.9335 21.8354Z" fill="#010101"/>
<path d="M74.0732 21.2498C74.2261 21.4027 74.4046 21.53 74.634 21.581C74.4046 21.2753 74.2261 20.9187 74.0987 20.5622C73.9967 20.1801 73.8947 19.7981 73.8693 19.416C73.7673 19.5943 73.6908 19.8235 73.6653 20.0273C73.6398 20.2565 73.6653 20.4603 73.7418 20.6895C73.8183 20.8933 73.9202 21.097 74.0732 21.2498Z" fill="#010101"/>
<path d="M86.7173 41.702C86.7173 41.702 86.7428 41.702 86.7428 41.7275L86.7683 41.7529C86.8193 41.8039 86.8448 41.8548 86.8448 41.9058C86.8448 42.0331 86.7428 42.1605 86.5899 42.1605H86.6154C86.5644 42.1605 86.5389 42.1605 86.4879 42.135C86.4624 42.135 86.386 42.0841 86.335 42.0586L85.9526 41.8548L85.1879 41.4473C85.0604 41.3709 84.9329 41.32 84.8055 41.2435C84.6016 41.1417 84.3721 41.0143 84.1682 40.887C83.9898 40.7851 83.8368 40.7087 83.6584 40.6068L83.5564 40.5559L82.9956 40.2248L82.1544 39.7408C82.0269 39.6644 81.874 39.588 81.874 39.5371C81.823 39.4861 81.7975 39.4097 81.823 39.3333C81.823 39.1805 81.9504 39.0786 82.1034 39.0786C82.1799 39.0786 82.2054 39.1041 82.3583 39.1805L82.7407 39.4097L82.8936 39.4861L83.1231 39.6135L83.5054 39.8172C83.5054 39.8172 83.5309 39.8172 83.5309 39.8427C84.0153 40.1229 84.5251 40.403 85.0094 40.6832C85.5193 40.9634 86.0291 41.2435 86.5389 41.4982L86.7428 41.6001L86.7173 41.702C86.7173 41.702 86.6919 41.6765 86.7173 41.702Z" fill="#C4C4C4"/>
<path d="M88.196 34.4175L88.7823 34.7995L87.4312 36.9135C87.2273 36.7862 87.0234 36.6588 86.7939 36.5569L88.196 34.4175Z" fill="#C4C4C4"/>
<path d="M5.09685 40.262H6.62285L9.04485 51.6021H7.54685L7.02885 48.7461H4.71885L4.17285 51.6021H2.68885L5.09685 40.262ZM6.81885 47.6121L5.86685 42.5021L4.92885 47.6121H6.81885ZM10.8955 40.262H13.3595C14.5821 40.262 15.4455 40.542 15.9495 41.102C16.4628 41.662 16.7195 42.5347 16.7195 43.7201V47.8921C16.7195 49.1427 16.4675 50.0761 15.9635 50.6921C15.4688 51.2987 14.6428 51.6021 13.4855 51.6021H10.8955V40.262ZM13.3735 50.4681C13.9241 50.4681 14.3208 50.3607 14.5635 50.1461C14.8155 49.9314 14.9695 49.6421 15.0255 49.2781C15.0908 48.9047 15.1235 48.3447 15.1235 47.5981V43.9161C15.1235 43.2721 15.0815 42.7821 14.9975 42.4461C14.9228 42.1007 14.7595 41.8487 14.5075 41.6901C14.2555 41.5221 13.8635 41.4381 13.3315 41.4381H12.4775V50.4681H13.3735ZM19.1603 40.262H20.7143L22.7163 49.4601L24.7323 40.262H26.2723L26.4823 51.6021H25.2083L25.0823 43.3701L23.1643 51.6021H22.2683L20.3643 43.3701L20.2383 51.6021H18.9503L19.1603 40.262ZM29.0045 40.262H30.5585V51.6021H29.0045V40.262ZM33.0931 40.262H34.1711L37.3911 47.7941V40.262H38.7071V51.6021H37.6991L34.4371 43.8601V51.6021H33.0931V40.262Z" fill="#424B5A"/>
</svg>
