<svg width="214" height="71" viewBox="0 0 214 71" fill="none" xmlns="http://www.w3.org/2000/svg">
<mask id="mask0_389_1412" style="mask-type:alpha" maskUnits="userSpaceOnUse" x="0" y="23" width="42" height="48">
<path d="M20.8642 23.2178L41.8696 30.944L38.5732 60.2229L20.8642 70.7183L3.29765 60.3624L0 31.0825L20.8642 23.2178ZM16.9569 43.6656V36.6084H23.8777C25.0312 36.6084 25.9132 36.8711 26.5239 37.3965C27.1346 37.9219 27.4399 38.8294 27.4399 40.1191C27.4399 41.2654 27.1006 42.1431 26.4221 42.7521C25.7436 43.3611 24.8955 43.6656 23.8777 43.6656H16.9569ZM12.3706 32.9118V58.1161H23.4611C25.0165 58.1161 26.3577 57.9337 27.4848 57.5689C28.6119 57.2042 29.5361 56.71 30.2574 56.0863C30.9788 55.4627 31.5085 54.7214 31.8466 53.8624C32.1847 53.0034 32.3538 52.0798 32.3538 51.0914C32.3538 49.3734 31.9706 47.9438 31.2042 46.8024C30.4378 45.661 29.3107 44.9256 27.8229 44.5961V44.5255C28.9275 44.0313 29.7784 43.3312 30.3758 42.4252C30.9731 41.5191 31.2718 40.4307 31.2718 39.1599C31.2718 37.0654 30.6181 35.5004 29.3107 34.465C28.0032 33.4295 26.2676 32.9118 24.1035 32.9118H12.3706ZM16.9569 54.4195V46.6901H24.3878C25.6655 46.6901 26.6574 47.0194 27.3635 47.678C28.0696 48.3365 28.4227 49.2781 28.4227 50.5028C28.4227 51.7506 28.0696 52.7153 27.3635 53.397C26.6574 54.0786 25.6655 54.4195 24.3878 54.4195H16.9569Z" fill="white"/>
</mask>
<g mask="url(#mask0_389_1412)">
<path d="M20.8642 23.2178L41.8696 30.944L38.5732 60.2229L20.8642 70.7183L3.29765 60.3624L0 31.0825L20.8642 23.2178ZM16.9569 43.6656V36.6084H23.8777C25.0312 36.6084 25.9132 36.8711 26.5239 37.3965C27.1346 37.9219 27.4399 38.8294 27.4399 40.1191C27.4399 41.2654 27.1006 42.1431 26.4221 42.7521C25.7436 43.3611 24.8955 43.6656 23.8777 43.6656H16.9569ZM12.3706 32.9118V58.1161H23.4611C25.0165 58.1161 26.3577 57.9337 27.4848 57.5689C28.6119 57.2042 29.5361 56.71 30.2574 56.0863C30.9788 55.4627 31.5085 54.7214 31.8466 53.8624C32.1847 53.0034 32.3538 52.0798 32.3538 51.0914C32.3538 49.3734 31.9706 47.9438 31.2042 46.8024C30.4378 45.661 29.3107 44.9256 27.8229 44.5961V44.5255C28.9275 44.0313 29.7784 43.3312 30.3758 42.4252C30.9731 41.5191 31.2718 40.4307 31.2718 39.1599C31.2718 37.0654 30.6181 35.5004 29.3107 34.465C28.0032 33.4295 26.2676 32.9118 24.1035 32.9118H12.3706ZM16.9569 54.4195V46.6901H24.3878C25.6655 46.6901 26.6574 47.0194 27.3635 47.678C28.0696 48.3365 28.4227 49.2781 28.4227 50.5028C28.4227 51.7506 28.0696 52.7153 27.3635 53.397C26.6574 54.0786 25.6655 54.4195 24.3878 54.4195H16.9569Z" fill="#7E7E7E"/>
<path d="M44.1959 23.2178H20.9351V70.7183H44.1959V23.2178Z" fill="black" fill-opacity="0.3"/>
</g>
<path fill-rule="evenodd" clip-rule="evenodd" d="M53.5001 40.184H56.22V42.1481L56.2704 42.1998C56.7069 41.4589 57.2778 40.8774 57.9829 40.4553C58.6881 40.0332 59.4688 39.8221 60.3251 39.8221C61.7522 39.8221 62.8771 40.2012 63.6998 40.9593C64.5225 41.7173 64.9338 42.8545 64.9338 44.3706V53.5451H62.0628V45.1459C62.0292 44.0949 61.811 43.3326 61.408 42.8588C61.0051 42.385 60.3755 42.1481 59.5192 42.1481C59.0323 42.1481 58.5958 42.2385 58.2096 42.4194C57.8234 42.6003 57.496 42.8502 57.2274 43.1689C56.9588 43.4876 56.7489 43.8624 56.5978 44.2931C56.4467 44.7238 56.3711 45.1804 56.3711 45.6628V53.5451H53.5001V40.184ZM79.7318 52.8473C79.7318 54.8631 79.1819 56.3663 78.0822 57.357C76.9825 58.3477 75.4001 58.843 73.3349 58.843C72.6801 58.843 72.0211 58.7741 71.358 58.6363C70.6948 58.4984 70.0903 58.2658 69.5447 57.9385C68.999 57.6111 68.5415 57.1804 68.1721 56.6463C67.8028 56.1122 67.5845 55.4575 67.5173 54.6822H70.3884C70.4723 55.0957 70.615 55.4317 70.8165 55.6901C71.018 55.9485 71.2572 56.151 71.5342 56.2974C71.8113 56.4439 72.1177 56.5386 72.4535 56.5817C72.7893 56.6248 73.1418 56.6463 73.5112 56.6463C74.6697 56.6463 75.5176 56.3534 76.0548 55.7676C76.5921 55.1818 76.8607 54.3376 76.8607 53.235V51.1933H76.8104C76.4074 51.9342 75.8576 52.5113 75.1608 52.9248C74.464 53.3383 73.7127 53.5451 72.9068 53.5451C71.8658 53.5451 70.9802 53.3599 70.2498 52.9894C69.5195 52.619 68.9151 52.1108 68.4366 51.4647C67.9581 50.8186 67.6097 50.0734 67.3914 49.2292C67.1731 48.385 67.064 47.4805 67.064 46.5156C67.064 45.6197 67.1983 44.7669 67.467 43.9571C67.7356 43.1473 68.1218 42.4367 68.6254 41.825C69.1291 41.2134 69.7461 40.7267 70.4765 40.3649C71.2069 40.0031 72.0337 39.8221 72.9572 39.8221C73.7799 39.8221 74.5354 39.9987 75.2238 40.3519C75.9121 40.7051 76.441 41.2608 76.8104 42.0189H76.8607V40.184H79.7318V52.8473ZM73.3601 51.2192C73.9981 51.2192 74.5396 51.0856 74.9845 50.8186C75.4294 50.5515 75.7904 50.1983 76.0674 49.759C76.3445 49.3197 76.5459 48.82 76.6719 48.2601C76.7978 47.7001 76.8607 47.1359 76.8607 46.5673C76.8607 45.9988 76.7936 45.4474 76.6593 44.9133C76.525 44.3792 76.3193 43.9054 76.0422 43.4919C75.7652 43.0784 75.4042 42.7511 74.9593 42.5099C74.5144 42.2687 73.9813 42.1481 73.3601 42.1481C72.7221 42.1481 72.1848 42.2859 71.7483 42.5616C71.3118 42.8372 70.9592 43.1947 70.6906 43.6341C70.4219 44.0734 70.2289 44.5731 70.1113 45.133C69.9938 45.6929 69.935 46.2486 69.935 46.7999C69.935 47.3512 70.0022 47.8896 70.1365 48.4151C70.2708 48.9406 70.4765 49.4101 70.7535 49.8236C71.0306 50.2371 71.3831 50.5731 71.8113 50.8315C72.2394 51.0899 72.7557 51.2192 73.3601 51.2192ZM85.8663 46.5156L81.3583 40.184H84.8337L87.5536 44.2931L90.3994 40.184H93.7238L89.2913 46.3606L94.2778 53.5451H90.8276L87.5284 48.609L84.33 53.5451H80.9553L85.8663 46.5156ZM95.3503 45.1201H102.679V47.9112H95.3503V45.1201ZM105.237 35.0928H108.108V41.9155H108.159C108.36 41.5881 108.604 41.2952 108.889 41.0368C109.174 40.7784 109.489 40.5587 109.833 40.3778C110.178 40.1969 110.539 40.059 110.916 39.9643C111.294 39.8695 111.668 39.8221 112.037 39.8221C113.061 39.8221 113.955 40.0074 114.719 40.3778C115.483 40.7482 116.117 41.2565 116.621 41.9026C117.124 42.5486 117.502 43.3024 117.754 44.1639C118.006 45.0253 118.132 45.9471 118.132 46.9291C118.132 47.825 118.018 48.6951 117.792 49.5393C117.565 50.3836 117.221 51.1287 116.759 51.7748C116.297 52.4209 115.714 52.9378 115.009 53.3254C114.304 53.7131 113.473 53.9069 112.516 53.9069C112.079 53.9069 111.638 53.8767 111.193 53.8164C110.748 53.7561 110.325 53.6398 109.922 53.4676C109.519 53.2953 109.153 53.0713 108.826 52.7956C108.499 52.52 108.226 52.1581 108.008 51.7102H107.957V53.5451H105.237V35.0928ZM115.261 46.8774C115.261 46.2744 115.185 45.6886 115.034 45.1201C114.883 44.5515 114.656 44.0476 114.354 43.6082C114.052 43.1689 113.674 42.8157 113.221 42.5486C112.767 42.2816 112.247 42.1481 111.659 42.1481C110.45 42.1481 109.54 42.5788 108.927 43.4402C108.314 44.3017 108.008 45.4474 108.008 46.8774C108.008 47.5494 108.087 48.1739 108.247 48.7511C108.406 49.3283 108.646 49.8236 108.965 50.2371C109.284 50.6506 109.666 50.978 110.11 51.2192C110.555 51.4604 111.072 51.581 111.659 51.581C112.314 51.581 112.868 51.4431 113.321 51.1675C113.775 50.8918 114.148 50.5343 114.442 50.095C114.736 49.6556 114.946 49.156 115.072 48.596C115.198 48.0361 115.261 47.4632 115.261 46.8774ZM126.256 53.9069C125.215 53.9069 124.287 53.7303 123.473 53.3771C122.659 53.0239 121.97 52.5372 121.408 51.9169C120.845 51.2967 120.417 50.5558 120.123 49.6944C119.83 48.8329 119.683 47.8853 119.683 46.8516C119.683 45.8351 119.83 44.8961 120.123 44.0346C120.417 43.1732 120.845 42.4324 121.408 41.8121C121.97 41.1919 122.659 40.7051 123.473 40.3519C124.287 39.9987 125.215 39.8221 126.256 39.8221C127.297 39.8221 128.224 39.9987 129.039 40.3519C129.853 40.7051 130.541 41.1919 131.104 41.8121C131.666 42.4324 132.094 43.1732 132.388 44.0346C132.682 44.8961 132.829 45.8351 132.829 46.8516C132.829 47.8853 132.682 48.8329 132.388 49.6944C132.094 50.5558 131.666 51.2967 131.104 51.9169C130.541 52.5372 129.853 53.0239 129.039 53.3771C128.224 53.7303 127.297 53.9069 126.256 53.9069ZM126.256 51.581C126.894 51.581 127.448 51.4431 127.918 51.1675C128.388 50.8918 128.774 50.53 129.076 50.082C129.379 49.6341 129.601 49.1301 129.744 48.5702C129.886 48.0103 129.958 47.4374 129.958 46.8516C129.958 46.283 129.886 45.7145 129.744 45.1459C129.601 44.5774 129.379 44.0734 129.076 43.6341C128.774 43.1947 128.388 42.8372 127.918 42.5616C127.448 42.2859 126.894 42.1481 126.256 42.1481C125.618 42.1481 125.064 42.2859 124.594 42.5616C124.123 42.8372 123.737 43.1947 123.435 43.6341C123.133 44.0734 122.91 44.5774 122.768 45.1459C122.625 45.7145 122.554 46.283 122.554 46.8516C122.554 47.4374 122.625 48.0103 122.768 48.5702C122.91 49.1301 123.133 49.6341 123.435 50.082C123.737 50.53 124.123 50.8918 124.594 51.1675C125.064 51.4431 125.618 51.581 126.256 51.581ZM140.928 53.9069C139.887 53.9069 138.959 53.7303 138.145 53.3771C137.331 53.0239 136.642 52.5372 136.08 51.9169C135.517 51.2967 135.089 50.5558 134.795 49.6944C134.502 48.8329 134.355 47.8853 134.355 46.8516C134.355 45.8351 134.502 44.8961 134.795 44.0346C135.089 43.1732 135.517 42.4324 136.08 41.8121C136.642 41.1919 137.331 40.7051 138.145 40.3519C138.959 39.9987 139.887 39.8221 140.928 39.8221C141.969 39.8221 142.896 39.9987 143.711 40.3519C144.525 40.7051 145.213 41.1919 145.776 41.8121C146.338 42.4324 146.766 43.1732 147.06 44.0346C147.354 44.8961 147.501 45.8351 147.501 46.8516C147.501 47.8853 147.354 48.8329 147.06 49.6944C146.766 50.5558 146.338 51.2967 145.776 51.9169C145.213 52.5372 144.525 53.0239 143.711 53.3771C142.896 53.7303 141.969 53.9069 140.928 53.9069ZM140.928 51.581C141.566 51.581 142.12 51.4431 142.59 51.1675C143.06 50.8918 143.446 50.53 143.748 50.082C144.051 49.6341 144.273 49.1301 144.416 48.5702C144.558 48.0103 144.63 47.4374 144.63 46.8516C144.63 46.283 144.558 45.7145 144.416 45.1459C144.273 44.5774 144.051 44.0734 143.748 43.6341C143.446 43.1947 143.06 42.8372 142.59 42.5616C142.12 42.2859 141.566 42.1481 140.928 42.1481C140.29 42.1481 139.736 42.2859 139.266 42.5616C138.795 42.8372 138.409 43.1947 138.107 43.6341C137.805 44.0734 137.582 44.5774 137.44 45.1459C137.297 45.7145 137.226 46.283 137.226 46.8516C137.226 47.4374 137.297 48.0103 137.44 48.5702C137.582 49.1301 137.805 49.6341 138.107 50.082C138.409 50.53 138.795 50.8918 139.266 51.1675C139.736 51.4431 140.29 51.581 140.928 51.581ZM148.321 40.184H150.487V36.1782H153.358V40.184H155.952V42.3807H153.358V49.5135C153.358 49.8236 153.371 50.0907 153.396 50.3146C153.421 50.5386 153.48 50.7281 153.572 50.8832C153.665 51.0383 153.803 51.1546 153.988 51.2321C154.173 51.3096 154.424 51.3484 154.743 51.3484C154.945 51.3484 155.146 51.3441 155.348 51.3355C155.549 51.3268 155.751 51.2967 155.952 51.245V53.5192C155.633 53.5537 155.323 53.5882 155.021 53.6226C154.718 53.6571 154.408 53.6743 154.089 53.6743C153.333 53.6743 152.725 53.6011 152.263 53.4546C151.801 53.3082 151.44 53.0928 151.18 52.8085C150.92 52.5243 150.743 52.1668 150.651 51.736C150.559 51.3053 150.504 50.8143 150.487 50.263V42.3807H148.321V40.184ZM159.921 49.2551C160.005 50.1165 160.324 50.7195 160.878 51.0641C161.432 51.4087 162.095 51.581 162.868 51.581C163.136 51.581 163.443 51.5594 163.787 51.5164C164.131 51.4733 164.454 51.3915 164.756 51.2708C165.059 51.1502 165.306 50.9736 165.499 50.7411C165.692 50.5085 165.781 50.2027 165.764 49.8236C165.747 49.4446 165.613 49.1344 165.361 48.8932C165.109 48.652 164.786 48.4582 164.391 48.3118C163.997 48.1653 163.548 48.0404 163.044 47.937C162.54 47.8337 162.028 47.7217 161.508 47.6011C160.97 47.4805 160.454 47.334 159.959 47.1617C159.463 46.9894 159.019 46.7568 158.624 46.4639C158.229 46.1711 157.915 45.7963 157.68 45.3398C157.444 44.8832 157.327 44.3189 157.327 43.647C157.327 42.9234 157.499 42.3161 157.843 41.825C158.187 41.334 158.624 40.9377 159.153 40.6362C159.682 40.3347 160.269 40.1237 160.916 40.0031C161.562 39.8824 162.179 39.8221 162.767 39.8221C163.438 39.8221 164.081 39.8954 164.693 40.0418C165.306 40.1883 165.86 40.4252 166.356 40.7525C166.851 41.0799 167.262 41.5063 167.59 42.0318C167.917 42.5573 168.123 43.1904 168.207 43.9313H165.21C165.075 43.2249 164.761 42.7511 164.265 42.5099C163.77 42.2687 163.203 42.1481 162.565 42.1481C162.364 42.1481 162.125 42.1653 161.848 42.1998C161.571 42.2342 161.31 42.2988 161.067 42.3936C160.823 42.4883 160.618 42.6262 160.45 42.8071C160.282 42.988 160.198 43.2249 160.198 43.5178C160.198 43.8796 160.32 44.1725 160.563 44.3965C160.807 44.6204 161.126 44.8056 161.52 44.9521C161.915 45.0985 162.364 45.2235 162.868 45.3268C163.371 45.4302 163.892 45.5422 164.429 45.6628C164.949 45.7834 165.462 45.9298 165.965 46.1021C166.469 46.2744 166.918 46.507 167.313 46.7999C167.707 47.0928 168.026 47.4632 168.27 47.9112C168.513 48.3591 168.635 48.9105 168.635 49.5652C168.635 50.3577 168.458 51.0296 168.106 51.581C167.753 52.1323 167.296 52.5803 166.733 52.9248C166.171 53.2694 165.545 53.5192 164.857 53.6743C164.169 53.8294 163.489 53.9069 162.817 53.9069C161.994 53.9069 161.235 53.8121 160.538 53.6226C159.841 53.4331 159.237 53.1445 158.725 52.7569C158.213 52.3692 157.81 51.8868 157.516 51.3096C157.222 50.7324 157.067 50.0476 157.05 49.2551H159.921ZM169.254 40.184H171.42V36.1782H174.291V40.184H176.885V42.3807H174.291V49.5135C174.291 49.8236 174.303 50.0907 174.329 50.3146C174.354 50.5386 174.412 50.7281 174.505 50.8832C174.597 51.0383 174.736 51.1546 174.92 51.2321C175.105 51.3096 175.357 51.3484 175.676 51.3484C175.877 51.3484 176.079 51.3441 176.28 51.3355C176.482 51.3268 176.683 51.2967 176.885 51.245V53.5192C176.566 53.5537 176.255 53.5882 175.953 53.6226C175.651 53.6571 175.34 53.6743 175.021 53.6743C174.266 53.6743 173.657 53.6011 173.195 53.4546C172.734 53.3082 172.373 53.0928 172.112 52.8085C171.852 52.5243 171.676 52.1668 171.583 51.736C171.491 51.3053 171.437 50.8143 171.42 50.263V42.3807H169.254V40.184ZM178.688 40.184H181.382V42.7683H181.433C181.517 42.4065 181.68 42.0533 181.924 41.7087C182.167 41.3641 182.461 41.0497 182.805 40.7654C183.149 40.4812 183.531 40.2529 183.951 40.0806C184.371 39.9083 184.799 39.8221 185.235 39.8221C185.571 39.8221 185.802 39.8308 185.928 39.848C186.054 39.8652 186.184 39.8824 186.318 39.8997V42.7425C186.117 42.708 185.911 42.6779 185.701 42.652C185.492 42.6262 185.286 42.6133 185.084 42.6133C184.597 42.6133 184.14 42.7123 183.712 42.9105C183.284 43.1086 182.91 43.4015 182.591 43.7891C182.272 44.1768 182.02 44.6549 181.836 45.2235C181.651 45.792 181.559 46.4467 181.559 47.1876V53.5451H178.688V40.184ZM198.195 50.5731C198.195 50.9349 198.241 51.1933 198.333 51.3484C198.426 51.5034 198.606 51.581 198.875 51.581H199.177C199.295 51.581 199.429 51.5637 199.58 51.5293V53.5709C199.479 53.6054 199.349 53.6442 199.19 53.6872C199.03 53.7303 198.867 53.7691 198.699 53.8035C198.531 53.838 198.363 53.8638 198.195 53.8811C198.027 53.8983 197.884 53.9069 197.767 53.9069C197.179 53.9069 196.692 53.7863 196.306 53.5451C195.92 53.3039 195.668 52.8818 195.551 52.2787C194.98 52.8473 194.279 53.2608 193.448 53.5192C192.617 53.7777 191.815 53.9069 191.043 53.9069C190.455 53.9069 189.892 53.8251 189.355 53.6614C188.818 53.4977 188.344 53.2565 187.932 52.9378C187.521 52.619 187.194 52.2141 186.95 51.7231C186.707 51.2321 186.585 50.6592 186.585 50.0045C186.585 49.1775 186.732 48.5056 187.026 47.9887C187.319 47.4718 187.706 47.067 188.184 46.7741C188.663 46.4812 189.2 46.2701 189.796 46.1409C190.392 46.0117 190.992 45.9126 191.597 45.8437C192.117 45.7403 192.612 45.6671 193.083 45.624C193.553 45.581 193.968 45.5077 194.329 45.4044C194.69 45.301 194.976 45.1416 195.185 44.9263C195.395 44.7109 195.5 44.3878 195.5 43.9571C195.5 43.5781 195.412 43.268 195.236 43.0268C195.059 42.7855 194.841 42.6003 194.581 42.4711C194.321 42.3419 194.031 42.2558 193.712 42.2127C193.393 42.1696 193.091 42.1481 192.805 42.1481C192 42.1481 191.336 42.3204 190.816 42.6649C190.295 43.0095 190.002 43.5436 189.934 44.2672H187.063C187.114 43.4058 187.315 42.6908 187.668 42.1222C188.02 41.5537 188.47 41.0971 189.015 40.7525C189.561 40.4079 190.178 40.1667 190.866 40.0289C191.555 39.8911 192.26 39.8221 192.982 39.8221C193.62 39.8221 194.249 39.8911 194.871 40.0289C195.492 40.1667 196.05 40.3907 196.545 40.7008C197.041 41.011 197.439 41.4115 197.742 41.9026C198.044 42.3936 198.195 42.9923 198.195 43.6987V50.5731ZM195.324 46.8516C194.887 47.1445 194.35 47.3211 193.712 47.3814C193.074 47.4417 192.436 47.5321 191.798 47.6527C191.496 47.7044 191.202 47.7777 190.917 47.8724C190.631 47.9672 190.379 48.0964 190.161 48.2601C189.943 48.4238 189.771 48.6391 189.645 48.9062C189.519 49.1732 189.456 49.4963 189.456 49.8753C189.456 50.2027 189.548 50.4783 189.733 50.7023C189.918 50.9263 190.14 51.1029 190.4 51.2321C190.661 51.3613 190.946 51.4518 191.257 51.5034C191.567 51.5551 191.848 51.581 192.1 51.581C192.419 51.581 192.764 51.5379 193.133 51.4518C193.502 51.3656 193.851 51.2192 194.178 51.0124C194.505 50.8057 194.778 50.5429 194.997 50.2242C195.215 49.9054 195.324 49.5135 195.324 49.0483V46.8516ZM201.106 40.184H203.826V41.993H203.876C204.279 41.2177 204.842 40.6621 205.563 40.3261C206.285 39.9901 207.066 39.8221 207.906 39.8221C208.93 39.8221 209.824 40.0074 210.588 40.3778C211.352 40.7482 211.985 41.2565 212.489 41.9026C212.993 42.5486 213.371 43.3024 213.622 44.1639C213.874 45.0253 214 45.9471 214 46.9291C214 47.825 213.887 48.6951 213.66 49.5393C213.434 50.3836 213.089 51.1287 212.628 51.7748C212.166 52.4209 211.583 52.9378 210.877 53.3254C210.172 53.7131 209.341 53.9069 208.384 53.9069C207.964 53.9069 207.545 53.8681 207.125 53.7906C206.705 53.7131 206.302 53.5882 205.916 53.4159C205.53 53.2436 205.173 53.0239 204.846 52.7569C204.518 52.4898 204.245 52.1754 204.027 51.8136H203.977V58.4812H201.106V40.184ZM211.129 46.8774C211.129 46.2744 211.054 45.6886 210.903 45.1201C210.751 44.5515 210.525 44.0476 210.223 43.6082C209.92 43.1689 209.543 42.8157 209.089 42.5486C208.636 42.2816 208.115 42.1481 207.528 42.1481C206.319 42.1481 205.408 42.5788 204.795 43.4402C204.183 44.3017 203.876 45.4474 203.876 46.8774C203.876 47.5494 203.956 48.1739 204.115 48.7511C204.275 49.3283 204.514 49.8236 204.833 50.2371C205.152 50.6506 205.534 50.978 205.979 51.2192C206.424 51.4604 206.94 51.581 207.528 51.581C208.183 51.581 208.737 51.4431 209.19 51.1675C209.643 50.8918 210.017 50.5343 210.311 50.095C210.605 49.6556 210.814 49.156 210.94 48.596C211.066 48.0361 211.129 47.4632 211.129 46.8774Z" fill="#252525"/>
<path opacity="0.5" d="M48.7083 16V7.684H54.2763V9.256H50.5803V10.996H53.8683V12.568H50.5803V16H48.7083ZM59.0485 11.272C58.8885 11.232 58.7005 11.192 58.4845 11.152C58.2685 11.104 58.0365 11.08 57.7885 11.08C57.6765 11.08 57.5405 11.092 57.3805 11.116C57.2285 11.132 57.1125 11.152 57.0325 11.176V16H55.2445V10.024C55.5645 9.912 55.9405 9.808 56.3725 9.712C56.8125 9.608 57.3005 9.556 57.8365 9.556C57.9325 9.556 58.0485 9.564 58.1845 9.58C58.3205 9.588 58.4565 9.604 58.5925 9.628C58.7285 9.644 58.8645 9.668 59.0005 9.7C59.1365 9.724 59.2525 9.756 59.3485 9.796L59.0485 11.272ZM66.0939 12.832C66.0939 13.328 66.0219 13.784 65.8779 14.2C65.7339 14.608 65.5259 14.96 65.2539 15.256C64.9819 15.544 64.6539 15.768 64.2699 15.928C63.8939 16.088 63.4699 16.168 62.9979 16.168C62.5339 16.168 62.1099 16.088 61.7259 15.928C61.3499 15.768 61.0259 15.544 60.7539 15.256C60.4819 14.96 60.2699 14.608 60.1179 14.2C59.9659 13.784 59.8899 13.328 59.8899 12.832C59.8899 12.336 59.9659 11.884 60.1179 11.476C60.2779 11.068 60.4939 10.72 60.7659 10.432C61.0459 10.144 61.3739 9.92 61.7499 9.76C62.1339 9.6 62.5499 9.52 62.9979 9.52C63.4539 9.52 63.8699 9.6 64.2459 9.76C64.6299 9.92 64.9579 10.144 65.2299 10.432C65.5019 10.72 65.7139 11.068 65.8659 11.476C66.0179 11.884 66.0939 12.336 66.0939 12.832ZM64.2699 12.832C64.2699 12.28 64.1579 11.848 63.9339 11.536C63.7179 11.216 63.4059 11.056 62.9979 11.056C62.5899 11.056 62.2739 11.216 62.0499 11.536C61.8259 11.848 61.7139 12.28 61.7139 12.832C61.7139 13.384 61.8259 13.824 62.0499 14.152C62.2739 14.472 62.5899 14.632 62.9979 14.632C63.4059 14.632 63.7179 14.472 63.9339 14.152C64.1579 13.824 64.2699 13.384 64.2699 12.832ZM70.9469 12.652C70.9469 12.076 70.8709 11.668 70.7189 11.428C70.5749 11.188 70.3229 11.068 69.9629 11.068C69.8509 11.068 69.7349 11.076 69.6149 11.092C69.4949 11.1 69.3789 11.112 69.2669 11.128V16H67.4789V9.904C67.6309 9.864 67.8069 9.824 68.0069 9.784C68.2149 9.736 68.4309 9.696 68.6549 9.664C68.8869 9.624 69.1229 9.596 69.3629 9.58C69.6029 9.556 69.8389 9.544 70.0709 9.544C70.5269 9.544 70.8949 9.604 71.1749 9.724C71.4629 9.836 71.6989 9.972 71.8829 10.132C72.1389 9.948 72.4309 9.804 72.7589 9.7C73.0949 9.596 73.4029 9.544 73.6829 9.544C74.1869 9.544 74.5989 9.616 74.9189 9.76C75.2469 9.896 75.5069 10.092 75.6989 10.348C75.8909 10.604 76.0229 10.908 76.0949 11.26C76.1669 11.612 76.2029 12.004 76.2029 12.436V16H74.4149V12.652C74.4149 12.076 74.3389 11.668 74.1869 11.428C74.0429 11.188 73.7909 11.068 73.4309 11.068C73.3349 11.068 73.1989 11.092 73.0229 11.14C72.8549 11.188 72.7149 11.248 72.6029 11.32C72.6589 11.504 72.6949 11.7 72.7109 11.908C72.7269 12.108 72.7349 12.324 72.7349 12.556V16H70.9469V12.652ZM80.6494 8.116L82.4374 7.828V9.688H84.5854V11.176H82.4374V13.396C82.4374 13.772 82.5014 14.072 82.6294 14.296C82.7654 14.52 83.0334 14.632 83.4334 14.632C83.6254 14.632 83.8214 14.616 84.0214 14.584C84.2294 14.544 84.4174 14.492 84.5854 14.428L84.8374 15.82C84.6214 15.908 84.3814 15.984 84.1174 16.048C83.8534 16.112 83.5294 16.144 83.1454 16.144C82.6574 16.144 82.2534 16.08 81.9334 15.952C81.6134 15.816 81.3574 15.632 81.1654 15.4C80.9734 15.16 80.8374 14.872 80.7574 14.536C80.6854 14.2 80.6494 13.828 80.6494 13.42V8.116ZM86.0414 16V6.976L87.8294 6.688V9.712C87.9494 9.672 88.1014 9.636 88.2854 9.604C88.4774 9.564 88.6614 9.544 88.8374 9.544C89.3494 9.544 89.7734 9.616 90.1094 9.76C90.4534 9.896 90.7254 10.092 90.9254 10.348C91.1334 10.604 91.2774 10.908 91.3574 11.26C91.4454 11.612 91.4894 12.004 91.4894 12.436V16H89.7014V12.652C89.7014 12.076 89.6254 11.668 89.4734 11.428C89.3294 11.188 89.0574 11.068 88.6574 11.068C88.4974 11.068 88.3454 11.084 88.2014 11.116C88.0654 11.14 87.9414 11.168 87.8294 11.2V16H86.0414ZM92.8078 12.892C92.8078 12.332 92.8918 11.844 93.0598 11.428C93.2358 11.004 93.4638 10.652 93.7438 10.372C94.0238 10.092 94.3438 9.88 94.7038 9.736C95.0718 9.592 95.4478 9.52 95.8318 9.52C96.7278 9.52 97.4358 9.796 97.9558 10.348C98.4758 10.892 98.7358 11.696 98.7358 12.76C98.7358 12.864 98.7318 12.98 98.7238 13.108C98.7158 13.228 98.7078 13.336 98.6998 13.432H94.6438C94.6838 13.8 94.8558 14.092 95.1598 14.308C95.4638 14.524 95.8718 14.632 96.3838 14.632C96.7118 14.632 97.0318 14.604 97.3438 14.548C97.6638 14.484 97.9238 14.408 98.1238 14.32L98.3638 15.772C98.2678 15.82 98.1398 15.868 97.9798 15.916C97.8198 15.964 97.6398 16.004 97.4398 16.036C97.2478 16.076 97.0398 16.108 96.8158 16.132C96.5918 16.156 96.3678 16.168 96.1438 16.168C95.5758 16.168 95.0798 16.084 94.6558 15.916C94.2398 15.748 93.8918 15.52 93.6118 15.232C93.3398 14.936 93.1358 14.588 92.9998 14.188C92.8718 13.788 92.8078 13.356 92.8078 12.892ZM97.0078 12.208C96.9998 12.056 96.9718 11.908 96.9238 11.764C96.8838 11.62 96.8158 11.492 96.7198 11.38C96.6318 11.268 96.5158 11.176 96.3718 11.104C96.2358 11.032 96.0638 10.996 95.8558 10.996C95.6558 10.996 95.4838 11.032 95.3398 11.104C95.1958 11.168 95.0758 11.256 94.9798 11.368C94.8838 11.48 94.8078 11.612 94.7518 11.764C94.7038 11.908 94.6678 12.056 94.6438 12.208H97.0078ZM102.698 12.844C102.698 12.388 102.77 11.96 102.914 11.56C103.066 11.152 103.282 10.8 103.562 10.504C103.842 10.2 104.182 9.96 104.582 9.784C104.982 9.608 105.438 9.52 105.95 9.52C106.286 9.52 106.594 9.552 106.874 9.616C107.154 9.672 107.426 9.756 107.69 9.868L107.318 11.296C107.15 11.232 106.966 11.176 106.766 11.128C106.566 11.08 106.342 11.056 106.094 11.056C105.566 11.056 105.17 11.22 104.906 11.548C104.65 11.876 104.522 12.308 104.522 12.844C104.522 13.412 104.642 13.852 104.882 14.164C105.13 14.476 105.558 14.632 106.166 14.632C106.382 14.632 106.614 14.612 106.862 14.572C107.11 14.532 107.338 14.468 107.546 14.38L107.798 15.844C107.59 15.932 107.33 16.008 107.018 16.072C106.706 16.136 106.362 16.168 105.986 16.168C105.41 16.168 104.914 16.084 104.498 15.916C104.082 15.74 103.738 15.504 103.466 15.208C103.202 14.912 103.006 14.564 102.878 14.164C102.758 13.756 102.698 13.316 102.698 12.844ZM112.802 11.272C112.642 11.232 112.454 11.192 112.238 11.152C112.022 11.104 111.79 11.08 111.542 11.08C111.43 11.08 111.294 11.092 111.134 11.116C110.982 11.132 110.866 11.152 110.786 11.176V16H108.998V10.024C109.318 9.912 109.694 9.808 110.126 9.712C110.566 9.608 111.054 9.556 111.59 9.556C111.686 9.556 111.802 9.564 111.938 9.58C112.074 9.588 112.21 9.604 112.346 9.628C112.482 9.644 112.618 9.668 112.754 9.7C112.89 9.724 113.006 9.756 113.102 9.796L112.802 11.272ZM113.644 12.892C113.644 12.332 113.728 11.844 113.896 11.428C114.072 11.004 114.3 10.652 114.58 10.372C114.86 10.092 115.18 9.88 115.54 9.736C115.908 9.592 116.284 9.52 116.668 9.52C117.564 9.52 118.272 9.796 118.792 10.348C119.312 10.892 119.572 11.696 119.572 12.76C119.572 12.864 119.568 12.98 119.56 13.108C119.552 13.228 119.544 13.336 119.536 13.432H115.48C115.52 13.8 115.692 14.092 115.996 14.308C116.3 14.524 116.708 14.632 117.22 14.632C117.548 14.632 117.868 14.604 118.18 14.548C118.5 14.484 118.76 14.408 118.96 14.32L119.2 15.772C119.104 15.82 118.976 15.868 118.816 15.916C118.656 15.964 118.476 16.004 118.276 16.036C118.084 16.076 117.876 16.108 117.652 16.132C117.428 16.156 117.204 16.168 116.98 16.168C116.412 16.168 115.916 16.084 115.492 15.916C115.076 15.748 114.728 15.52 114.448 15.232C114.176 14.936 113.972 14.588 113.836 14.188C113.708 13.788 113.644 13.356 113.644 12.892ZM117.844 12.208C117.836 12.056 117.808 11.908 117.76 11.764C117.72 11.62 117.652 11.492 117.556 11.38C117.468 11.268 117.352 11.176 117.208 11.104C117.072 11.032 116.9 10.996 116.692 10.996C116.492 10.996 116.32 11.032 116.176 11.104C116.032 11.168 115.912 11.256 115.816 11.368C115.72 11.48 115.644 11.612 115.588 11.764C115.54 11.908 115.504 12.056 115.48 12.208H117.844ZM123.364 14.752C123.54 14.752 123.708 14.748 123.868 14.74C124.028 14.732 124.156 14.72 124.252 14.704V13.348C124.18 13.332 124.072 13.316 123.928 13.3C123.784 13.284 123.652 13.276 123.532 13.276C123.364 13.276 123.204 13.288 123.052 13.312C122.908 13.328 122.78 13.364 122.668 13.42C122.556 13.476 122.468 13.552 122.404 13.648C122.34 13.744 122.308 13.864 122.308 14.008C122.308 14.288 122.4 14.484 122.584 14.596C122.776 14.7 123.036 14.752 123.364 14.752ZM123.22 9.52C123.748 9.52 124.188 9.58 124.54 9.7C124.892 9.82 125.172 9.992 125.38 10.216C125.596 10.44 125.748 10.712 125.836 11.032C125.924 11.352 125.968 11.708 125.968 12.1V15.82C125.712 15.876 125.356 15.94 124.9 16.012C124.444 16.092 123.892 16.132 123.244 16.132C122.836 16.132 122.464 16.096 122.128 16.024C121.8 15.952 121.516 15.836 121.276 15.676C121.036 15.508 120.852 15.292 120.724 15.028C120.596 14.764 120.532 14.44 120.532 14.056C120.532 13.688 120.604 13.376 120.748 13.12C120.9 12.864 121.1 12.66 121.348 12.508C121.596 12.356 121.88 12.248 122.2 12.184C122.52 12.112 122.852 12.076 123.196 12.076C123.428 12.076 123.632 12.088 123.808 12.112C123.992 12.128 124.14 12.152 124.252 12.184V12.016C124.252 11.712 124.16 11.468 123.976 11.284C123.792 11.1 123.472 11.008 123.016 11.008C122.712 11.008 122.412 11.032 122.116 11.08C121.82 11.12 121.564 11.18 121.348 11.26L121.12 9.82C121.224 9.788 121.352 9.756 121.504 9.724C121.664 9.684 121.836 9.652 122.02 9.628C122.204 9.596 122.396 9.572 122.596 9.556C122.804 9.532 123.012 9.52 123.22 9.52ZM127.524 8.116L129.312 7.828V9.688H131.46V11.176H129.312V13.396C129.312 13.772 129.376 14.072 129.504 14.296C129.64 14.52 129.908 14.632 130.308 14.632C130.5 14.632 130.696 14.616 130.896 14.584C131.104 14.544 131.292 14.492 131.46 14.428L131.712 15.82C131.496 15.908 131.256 15.984 130.992 16.048C130.728 16.112 130.404 16.144 130.02 16.144C129.532 16.144 129.128 16.08 128.808 15.952C128.488 15.816 128.232 15.632 128.04 15.4C127.848 15.16 127.712 14.872 127.632 14.536C127.56 14.2 127.524 13.828 127.524 13.42V8.116ZM138.586 12.832C138.586 13.328 138.514 13.784 138.37 14.2C138.226 14.608 138.018 14.96 137.746 15.256C137.474 15.544 137.146 15.768 136.762 15.928C136.386 16.088 135.962 16.168 135.49 16.168C135.026 16.168 134.602 16.088 134.218 15.928C133.842 15.768 133.518 15.544 133.246 15.256C132.974 14.96 132.762 14.608 132.61 14.2C132.458 13.784 132.382 13.328 132.382 12.832C132.382 12.336 132.458 11.884 132.61 11.476C132.77 11.068 132.986 10.72 133.258 10.432C133.538 10.144 133.866 9.92 134.242 9.76C134.626 9.6 135.042 9.52 135.49 9.52C135.946 9.52 136.362 9.6 136.738 9.76C137.122 9.92 137.45 10.144 137.722 10.432C137.994 10.72 138.206 11.068 138.358 11.476C138.51 11.884 138.586 12.336 138.586 12.832ZM136.762 12.832C136.762 12.28 136.65 11.848 136.426 11.536C136.21 11.216 135.898 11.056 135.49 11.056C135.082 11.056 134.766 11.216 134.542 11.536C134.318 11.848 134.206 12.28 134.206 12.832C134.206 13.384 134.318 13.824 134.542 14.152C134.766 14.472 135.082 14.632 135.49 14.632C135.898 14.632 136.21 14.472 136.426 14.152C136.65 13.824 136.762 13.384 136.762 12.832ZM143.775 11.272C143.615 11.232 143.427 11.192 143.211 11.152C142.995 11.104 142.763 11.08 142.515 11.08C142.403 11.08 142.267 11.092 142.107 11.116C141.955 11.132 141.839 11.152 141.759 11.176V16H139.971V10.024C140.291 9.912 140.667 9.808 141.099 9.712C141.539 9.608 142.027 9.556 142.563 9.556C142.659 9.556 142.775 9.564 142.911 9.58C143.047 9.588 143.183 9.604 143.319 9.628C143.455 9.644 143.591 9.668 143.727 9.7C143.863 9.724 143.979 9.756 144.075 9.796L143.775 11.272ZM146.846 14.716C147.174 14.716 147.406 14.684 147.542 14.62C147.678 14.556 147.746 14.432 147.746 14.248C147.746 14.104 147.658 13.98 147.482 13.876C147.306 13.764 147.038 13.64 146.678 13.504C146.398 13.4 146.142 13.292 145.91 13.18C145.686 13.068 145.494 12.936 145.334 12.784C145.174 12.624 145.05 12.436 144.962 12.22C144.874 12.004 144.83 11.744 144.83 11.44C144.83 10.848 145.05 10.38 145.49 10.036C145.93 9.692 146.534 9.52 147.302 9.52C147.686 9.52 148.054 9.556 148.406 9.628C148.758 9.692 149.038 9.764 149.246 9.844L148.934 11.236C148.726 11.164 148.498 11.1 148.25 11.044C148.01 10.988 147.738 10.96 147.434 10.96C146.874 10.96 146.594 11.116 146.594 11.428C146.594 11.5 146.606 11.564 146.63 11.62C146.654 11.676 146.702 11.732 146.774 11.788C146.846 11.836 146.942 11.892 147.062 11.956C147.19 12.012 147.35 12.076 147.542 12.148C147.934 12.292 148.258 12.436 148.514 12.58C148.77 12.716 148.97 12.868 149.114 13.036C149.266 13.196 149.37 13.376 149.426 13.576C149.49 13.776 149.522 14.008 149.522 14.272C149.522 14.896 149.286 15.368 148.814 15.688C148.35 16.008 147.69 16.168 146.834 16.168C146.274 16.168 145.806 16.12 145.43 16.024C145.062 15.928 144.806 15.848 144.662 15.784L144.962 14.332C145.266 14.452 145.578 14.548 145.898 14.62C146.218 14.684 146.534 14.716 146.846 14.716ZM159.645 12.832C159.645 13.328 159.573 13.784 159.429 14.2C159.285 14.608 159.077 14.96 158.805 15.256C158.533 15.544 158.205 15.768 157.821 15.928C157.445 16.088 157.021 16.168 156.549 16.168C156.085 16.168 155.661 16.088 155.277 15.928C154.901 15.768 154.577 15.544 154.305 15.256C154.033 14.96 153.821 14.608 153.669 14.2C153.517 13.784 153.441 13.328 153.441 12.832C153.441 12.336 153.517 11.884 153.669 11.476C153.829 11.068 154.045 10.72 154.317 10.432C154.597 10.144 154.925 9.92 155.301 9.76C155.685 9.6 156.101 9.52 156.549 9.52C157.005 9.52 157.421 9.6 157.797 9.76C158.181 9.92 158.509 10.144 158.781 10.432C159.053 10.72 159.265 11.068 159.417 11.476C159.569 11.884 159.645 12.336 159.645 12.832ZM157.821 12.832C157.821 12.28 157.709 11.848 157.485 11.536C157.269 11.216 156.957 11.056 156.549 11.056C156.141 11.056 155.825 11.216 155.601 11.536C155.377 11.848 155.265 12.28 155.265 12.832C155.265 13.384 155.377 13.824 155.601 14.152C155.825 14.472 156.141 14.632 156.549 14.632C156.957 14.632 157.269 14.472 157.485 14.152C157.709 13.824 157.821 13.384 157.821 12.832ZM163.766 6.688C164.102 6.688 164.41 6.724 164.69 6.796C164.97 6.86 165.186 6.924 165.338 6.988L164.99 8.416C164.83 8.344 164.654 8.292 164.462 8.26C164.278 8.22 164.106 8.2 163.946 8.2C163.73 8.2 163.546 8.232 163.394 8.296C163.25 8.352 163.134 8.432 163.046 8.536C162.966 8.64 162.906 8.764 162.866 8.908C162.834 9.052 162.818 9.208 162.818 9.376V9.688H165.026V11.176H162.818V16H161.03V9.352C161.03 8.536 161.258 7.888 161.714 7.408C162.178 6.928 162.862 6.688 163.766 6.688Z" fill="#252525"/>
</svg>
