<svg width="25" height="28" viewBox="0 0 25 28" fill="none" xmlns="http://www.w3.org/2000/svg">
<path fill-rule="evenodd" clip-rule="evenodd" d="M12.6505 0.782227L0.691406 5.18781L2.58164 21.5859L12.6505 27.3869L22.8012 21.5078L24.6914 5.10967L12.6505 0.782227Z" fill="white"/>
<path fill-rule="evenodd" clip-rule="evenodd" d="M10.1789 12.1312H14.11C14.6376 12.1486 15.1525 11.9681 15.5538 11.6252C15.9395 11.2891 16.1324 10.8035 16.1324 10.1684C16.1324 9.45402 15.9587 8.95169 15.6114 8.66146C15.2641 8.37122 14.7637 8.22549 14.11 8.22425H10.1789V12.1312ZM7.57422 6.17773H14.2384C15.4663 6.17773 16.4517 6.46425 17.1947 7.03727C17.9376 7.61029 18.3097 8.47851 18.311 9.64192C18.3297 10.2801 18.1539 10.9089 17.8068 11.4447C17.4458 11.9638 16.9425 12.3676 16.3575 12.6075V12.6466C17.1332 12.7849 17.823 13.2234 18.2775 13.867C18.7079 14.4996 18.9231 15.2915 18.9231 16.2429C18.927 16.7677 18.8291 17.2883 18.6347 17.7759C18.4415 18.2574 18.1314 18.6833 17.7324 19.0149C17.2675 19.3904 16.7324 19.6694 16.1584 19.8354C15.4157 20.0495 14.6447 20.1492 13.8719 20.1312H7.57422V6.17773ZM10.1789 18.0847H14.3984C15.124 18.0847 15.6877 17.8987 16.0896 17.5266C16.4914 17.1545 16.6917 16.618 16.6905 15.9173C16.6905 15.2388 16.4902 14.7173 16.0896 14.3526C15.689 13.988 15.1252 13.8056 14.3984 13.8056H10.1789V18.0847Z" fill="#282828"/>
</svg>
