<svg width="25" height="27" viewBox="0 0 25 27" fill="none" xmlns="http://www.w3.org/2000/svg">
<path fill-rule="evenodd" clip-rule="evenodd" d="M12.461 0.214478L0.501953 4.62006L2.39219 21.0182L12.461 26.8191L22.6117 20.9401L24.502 4.54192L12.461 0.214478Z" fill="#424B5A"/>
<path fill-rule="evenodd" clip-rule="evenodd" d="M9.98942 11.5635H13.9206C14.4481 11.5808 14.963 11.4003 15.3643 11.0574C15.75 10.7213 15.9429 10.2357 15.9429 9.60068C15.9429 8.88627 15.7693 8.38394 15.422 8.09371C15.0747 7.80347 14.5742 7.65774 13.9206 7.6565H9.98942V11.5635ZM7.38477 5.60999H14.049C15.2769 5.60999 16.2623 5.8965 17.0052 6.46952C17.7482 7.04254 18.1203 7.91076 18.1215 9.07417C18.1403 9.71234 17.9644 10.3411 17.6173 10.877C17.2563 11.3961 16.7531 11.7999 16.168 12.0398V12.0788C16.9437 12.2171 17.6336 12.6556 18.088 13.2993C18.5184 13.9318 18.7336 14.7238 18.7336 15.6751C18.7375 16.2 18.6396 16.7206 18.4452 17.2081C18.252 17.6897 17.9419 18.1155 17.5429 18.4472C17.0781 18.8227 16.543 19.1016 15.969 19.2677C15.2262 19.4817 14.4552 19.5815 13.6824 19.5635H7.38477V5.60999ZM9.98942 17.517H14.209C14.9345 17.517 15.4983 17.3309 15.9001 16.9588C16.302 16.5867 16.5023 16.0503 16.501 15.3495C16.501 14.6711 16.3007 14.1495 15.9001 13.7849C15.4995 13.4202 14.9358 13.2379 14.209 13.2379H9.98942V17.517Z" fill="white"/>
</svg>
