<svg width="774" height="659" viewBox="0 0 774 659" fill="none" xmlns="http://www.w3.org/2000/svg">
<path d="M773.439 303.463L738.239 309.531L520.969 184.163C510.052 177.856 491.014 178.654 478.367 185.919L62.7568 425.77L0.531113 436.415V458.476C0.531113 462.494 2.87423 466.46 7.85335 469.121L252.975 610.588C263.865 616.869 282.903 616.07 295.577 608.805L763.029 339.176C769.818 335.264 773.306 330.288 773.413 325.524L773.439 303.463Z" fill="url(#paint0_linear_807_339)"/>
<path d="M253.001 588.501L7.82564 447.06C-3.09114 440.78 -1.70658 429.789 10.861 422.524L478.446 152.762C491.013 145.497 510.051 144.778 521.048 150.979L766.09 292.579C776.98 298.86 775.622 309.85 763.027 317.115L295.523 586.745C282.929 594.01 263.891 594.781 253.001 588.501Z" fill="#000E20"/>
<path d="M763.028 316.982L295.524 586.745C282.929 594.01 263.892 594.728 252.922 588.501L7.82642 447.06C5.98715 446.171 4.37723 444.871 3.12135 443.26C1.86546 441.65 0.9973 439.772 0.584057 437.772C-0.0816001 442.296 2.26152 446.714 7.82642 449.907L252.948 591.375C263.838 597.655 282.876 596.857 295.55 589.592L763.028 319.83C770.564 315.492 774.052 309.797 773.306 304.581C772.667 308.945 769.339 313.416 763.028 316.982Z" fill="white" fill-opacity="0.4"/>
<path opacity="0.51" d="M253.48 583.019L17.0921 446.581C6.44157 440.487 7.87939 429.869 20.0476 422.843L478.872 158.137C491.067 151.111 509.492 150.34 520.036 156.434L756.425 292.872C767.075 298.966 765.664 309.61 753.469 316.636L294.645 581.316C282.45 588.341 264.024 589.113 253.48 583.019Z" fill="#453C9E"/>
<path style="mix-blend-mode:lighten" opacity="0.8" d="M271.429 581.768C265.092 581.957 258.812 580.519 253.19 577.59L16.8016 441.152C14.6779 440.163 12.86 438.62 11.5388 436.686C10.2176 434.752 9.44182 432.498 9.29299 430.161C9.29299 425.052 13.1005 419.916 19.7571 416.084L478.502 151.378C490.883 144.246 509.681 143.394 520.412 149.674L756.8 286.139C758.923 287.122 760.742 288.659 762.063 290.589C763.385 292.519 764.161 294.769 764.308 297.103C764.308 302.213 760.501 307.349 753.844 311.207L295.02 575.887C287.778 579.804 279.663 581.827 271.429 581.768ZM253.962 576.259C264.266 582.22 282.372 581.449 294.328 574.556L753.099 309.877C759.25 306.311 762.791 301.654 762.791 297.103C762.635 295.038 761.928 293.052 760.743 291.353C759.558 289.654 757.939 288.304 756.054 287.443L519.666 151.005C509.335 145.044 491.229 145.683 479.274 152.708L20.4228 417.414C14.2721 420.954 10.7308 425.611 10.7308 430.161C10.8864 432.227 11.5935 434.212 12.7783 435.911C13.9632 437.611 15.5825 438.961 17.4672 439.821L253.962 576.259Z" fill="url(#paint1_linear_807_339)"/>
<g opacity="0.3">
<path style="mix-blend-mode:lighten" opacity="0.5" d="M253.48 576.924L17.0921 440.486C6.44157 434.392 7.87939 423.774 20.0476 416.749L478.872 152.043C491.067 145.017 509.492 144.272 520.036 150.339L756.425 286.777C767.075 292.872 765.664 303.516 753.469 310.542L294.645 575.221C282.45 582.247 264.024 583.019 253.48 576.924Z" fill="url(#paint2_radial_807_339)"/>
<g opacity="0.3">
<g opacity="0.3">
<path opacity="0.3" d="M599.195 443.893L595.787 443.441C595.401 443.171 595.001 442.922 594.588 442.695L331.574 291.009C324.757 287.097 312.935 287.576 304.947 292.1L151.607 380.557C149.798 381.534 148.204 382.864 146.92 384.469L145.11 383.937V389.259C145.222 390.666 145.704 392.017 146.509 393.177C147.313 394.336 148.411 395.261 149.69 395.859L412.731 547.545C419.52 551.484 431.369 550.978 439.357 546.454L592.804 457.917C597.198 455.256 599.381 452.116 599.275 449.056L599.195 443.893Z" fill="#9FFFF8"/>
<path opacity="0.3" d="M412.732 542.303L149.691 390.616C142.901 386.678 143.753 379.838 151.608 375.314L305.056 286.751C312.91 282.227 324.759 281.748 331.682 285.66L594.696 437.346C601.513 441.258 600.661 447.991 592.806 452.648L439.172 541.211C431.397 545.735 419.522 546.241 412.732 542.303Z" fill="#2982E3"/>
</g>
<g opacity="0.3">
<path opacity="0.3" d="M239.288 404.055L206.804 385.427C203.795 383.698 204.141 380.637 207.656 378.641C209.446 377.642 211.445 377.076 213.494 376.988C215.542 376.901 217.583 377.293 219.452 378.136L251.909 396.897C254.945 398.627 254.572 401.66 251.084 403.683C249.283 404.661 247.279 405.204 245.23 405.269C243.182 405.333 241.147 404.918 239.288 404.055Z" fill="white" fill-opacity="0.8"/>
<path opacity="0.3" d="M299.224 438.624L266.74 419.996C263.704 418.239 264.077 415.206 267.592 413.183C269.384 412.188 271.384 411.627 273.433 411.544C275.481 411.46 277.52 411.858 279.387 412.704L311.845 431.332C314.88 433.089 314.507 436.122 310.993 438.145C309.203 439.133 307.208 439.691 305.165 439.774C303.122 439.858 301.088 439.464 299.224 438.624Z" fill="white" fill-opacity="0.8"/>
<path opacity="0.3" d="M359.134 473.192L326.677 454.564C323.642 452.835 324.014 449.774 327.502 447.778C329.292 446.779 331.292 446.213 333.34 446.125C335.388 446.038 337.429 446.43 339.298 447.273L371.782 465.901C374.791 467.657 374.444 470.691 370.93 472.713C369.14 473.714 367.139 474.279 365.089 474.363C363.04 474.446 361 474.045 359.134 473.192Z" fill="white" fill-opacity="0.8"/>
<path opacity="0.3" d="M419.068 507.788L386.584 489.16C383.575 487.404 383.921 484.37 387.436 482.347C389.226 481.346 391.227 480.781 393.277 480.698C395.326 480.615 397.366 481.016 399.232 481.868L431.716 500.497C434.724 502.226 434.378 505.287 430.864 507.282C429.074 508.282 427.074 508.848 425.026 508.935C422.978 509.023 420.937 508.63 419.068 507.788Z" fill="white" fill-opacity="0.8"/>
</g>
</g>
</g>
<path opacity="0.4" d="M705.942 309.424C703.919 310.461 701.679 311.002 699.405 311.002C697.132 311.002 694.892 310.461 692.869 309.424C689.274 307.348 689.274 303.969 692.869 301.893C694.895 300.869 697.134 300.335 699.405 300.335C701.676 300.335 703.916 300.869 705.942 301.893C709.537 303.969 709.537 307.348 705.942 309.424Z" fill="#000E20"/>
<path opacity="0.4" d="M656.07 273.126L681.631 287.869C684.773 289.679 684.294 292.819 680.779 294.921C678.926 295.947 676.858 296.526 674.741 296.614C672.625 296.702 670.517 296.295 668.584 295.427L642.996 280.657C639.881 278.848 640.334 275.708 643.875 273.632C645.724 272.594 647.793 272.008 649.912 271.92C652.031 271.832 654.141 272.245 656.07 273.126Z" fill="#000E20"/>
<path opacity="0.4" d="M512.314 188.394L537.902 203.164C541.017 204.973 540.565 208.114 537.023 210.189C535.174 211.227 533.106 211.814 530.987 211.901C528.867 211.989 526.758 211.576 524.829 210.695L499.241 195.952C496.125 194.143 496.578 191.002 500.119 188.9C501.973 187.874 504.04 187.295 506.157 187.207C508.274 187.119 510.382 187.526 512.314 188.394Z" fill="#000E20"/>
<path d="M705.942 300.27C703.916 301.294 701.676 301.828 699.405 301.828C697.134 301.828 694.895 301.294 692.869 300.27C689.274 298.194 689.274 294.948 692.869 292.739C694.895 291.715 697.134 291.181 699.405 291.181C701.676 291.181 703.916 291.715 705.942 292.739C709.537 294.815 709.537 298.194 705.942 300.27Z" fill="#2982E3"/>
<path d="M656.07 263.945L681.631 278.715C684.773 280.524 684.294 283.664 680.779 285.74C678.93 286.778 676.861 287.364 674.742 287.452C672.623 287.54 670.513 287.127 668.584 286.246L642.996 271.503C639.881 269.693 640.334 266.553 643.875 264.451C645.729 263.425 647.796 262.846 649.913 262.758C652.03 262.67 654.138 263.077 656.07 263.945Z" fill="#2982E3"/>
<path d="M512.314 179.24L537.902 194.01C541.017 195.793 540.565 198.96 537.023 201.035C535.172 202.067 533.104 202.65 530.986 202.738C528.868 202.826 526.759 202.416 524.829 201.541L499.241 186.771C496.125 184.988 496.578 181.822 500.119 179.746C501.971 178.714 504.039 178.131 506.157 178.043C508.275 177.956 510.384 178.366 512.314 179.24Z" fill="#2982E3"/>
<path opacity="0.4" d="M403.678 470.532L199.348 352.615C194.023 349.582 194.741 344.259 200.812 340.747L320.018 271.955C326.116 268.443 335.355 268.07 340.627 271.104L544.957 389.02C550.283 392.054 549.564 397.376 543.466 400.889L424.26 469.68C418.163 473.193 408.95 473.539 403.678 470.532Z" fill="#000E20"/>
<path d="M599.195 297.316L595.787 296.863L594.589 296.092L331.574 144.405C324.758 140.467 312.936 140.972 304.948 145.496L151.607 234.033C149.802 235.027 148.21 236.365 146.921 237.972L145.11 237.44V242.762C145.222 244.168 145.705 245.52 146.509 246.679C147.313 247.839 148.411 248.764 149.69 249.362L412.731 401.048C419.521 404.96 431.369 404.481 439.357 399.957L592.805 311.393C597.198 308.865 599.381 305.619 599.275 302.558L599.195 297.316Z" fill="#8D95EB"/>
<path d="M412.732 395.726L149.691 244.039C142.902 240.128 143.754 233.395 151.608 228.738L305.056 140.094C312.91 135.57 324.759 135.065 331.682 139.003L594.697 290.69C601.513 294.628 600.661 301.467 592.806 305.991L439.172 394.635C431.397 399.159 419.522 399.638 412.732 395.726Z" fill="#B457E2"/>
<path d="M455.176 385.453L167.533 219.477L198.073 201.833L485.717 367.837L455.176 385.453Z" fill="#000E20"/>
<defs>
<linearGradient id="paint0_linear_807_339" x1="0.504486" y1="397.429" x2="773.439" y2="397.429" gradientUnits="userSpaceOnUse">
<stop stop-color="#BCBEFF"/>
<stop offset="0.15" stop-color="#A3A7F5"/>
<stop offset="0.39" stop-color="#8289E8"/>
<stop offset="0.61" stop-color="#6A73DF"/>
<stop offset="0.82" stop-color="#5C66D9"/>
<stop offset="1" stop-color="#5761D7"/>
</linearGradient>
<linearGradient id="paint1_linear_807_339" x1="325293" y1="101144" x2="298364" y2="39308.9" gradientUnits="userSpaceOnUse">
<stop stop-color="#42E8E0"/>
<stop offset="0.11" stop-color="#37B6BF"/>
<stop offset="0.22" stop-color="#2C87A1"/>
<stop offset="0.34" stop-color="#235F87"/>
<stop offset="0.46" stop-color="#1C3F72"/>
<stop offset="0.58" stop-color="#162561"/>
<stop offset="0.71" stop-color="#121355"/>
<stop offset="0.85" stop-color="#10084E"/>
<stop offset="1" stop-color="#0F054C"/>
</linearGradient>
<radialGradient id="paint2_radial_807_339" cx="0" cy="0" r="1" gradientUnits="userSpaceOnUse" gradientTransform="translate(348.27 356.979) scale(604.976 604.644)">
<stop stop-color="#42E8E0"/>
<stop offset="0.11" stop-color="#37B6BF"/>
<stop offset="0.22" stop-color="#2C87A1"/>
<stop offset="0.34" stop-color="#235F87"/>
<stop offset="0.46" stop-color="#1C3F72"/>
<stop offset="0.58" stop-color="#162561"/>
<stop offset="0.71" stop-color="#121355"/>
<stop offset="0.85" stop-color="#10084E"/>
<stop offset="1" stop-color="#0F054C"/>
</radialGradient>
</defs>
</svg>
