<svg width="24" height="24" viewBox="0 0 24 24" fill="none" xmlns="http://www.w3.org/2000/svg">
<path d="M11.9747 0.951439C13.0631 0.948271 14.1279 1.26831 15.0341 1.871C15.9404 2.47369 16.6473 3.33188 17.0653 4.3368C17.4832 5.34171 17.5934 6.44809 17.3819 7.5157C17.1703 8.58331 16.6466 9.56407 15.877 10.3337C15.1074 11.1033 14.1266 11.627 13.059 11.8386C11.9914 12.0501 10.885 11.9399 9.8801 11.522C8.87518 11.104 8.01699 10.3971 7.4143 9.49084C6.81162 8.58457 6.49157 7.51977 6.49474 6.43141C6.50148 4.98011 7.081 3.59017 8.10724 2.56393C9.13347 1.5377 10.5234 0.958182 11.9747 0.951439ZM1.33203 22.1983C2.03385 16.7504 6.00443 12.5203 10.9684 11.9434L11.2024 13.4817L10.241 19.7308L12.2567 21.9099L14.2821 19.7308L13.3207 13.4817L13.5546 11.9755C18.4481 12.6485 22.2937 16.8466 22.9699 22.2304L1.33203 22.1983Z" stroke="white" stroke-width="1.5" stroke-miterlimit="10"/>
</svg>
