<svg width="24" height="24" viewBox="0 0 24 24" fill="none" xmlns="http://www.w3.org/2000/svg">
<path d="M12.1427 0.946923C13.231 0.943754 14.2958 1.2638 15.2021 1.86649C16.1084 2.46917 16.8153 3.32737 17.2332 4.33228C17.6512 5.33719 17.7614 6.44358 17.5499 7.51119C17.3383 8.57879 16.8145 9.55956 16.0449 10.3291C15.2753 11.0987 14.2946 11.6225 13.227 11.8341C12.1594 12.0456 11.053 11.9354 10.0481 11.5175C9.04315 11.0995 8.18496 10.3926 7.58227 9.48632C6.97958 8.58006 6.65954 7.51526 6.66271 6.42689C6.66945 4.97559 7.24897 3.58565 8.27521 2.55942C9.30144 1.53318 10.6914 0.953665 12.1427 0.946923ZM1.5 22.1938C2.20182 16.7459 6.1724 12.5157 11.1364 11.9389L11.3704 13.4771L10.409 19.7262L12.4247 21.9054L14.45 19.7262L13.4886 13.4771L13.7226 11.971C18.6161 12.6439 22.4617 16.842 23.1379 22.2259L1.5 22.1938Z" stroke="#424B5A" stroke-width="1.5" stroke-miterlimit="10"/>
</svg>
