<svg width="19" height="25" viewBox="0 0 19 25" fill="none" xmlns="http://www.w3.org/2000/svg">
<path fill-rule="evenodd" clip-rule="evenodd" d="M9.5 2.27393C5.21375 2.27393 2.1875 5.3598 2.1875 9.1578C2.1875 10.8858 2.8985 12.0513 3.79063 13.1628C3.98413 13.4047 4.181 13.6376 4.3835 13.8772L4.4915 14.0032C4.72775 14.2844 4.97188 14.5747 5.20025 14.8739C5.65475 15.4713 6.08113 16.1429 6.31963 16.9372C6.37804 17.1496 6.35106 17.3764 6.24446 17.5692C6.13787 17.762 5.9601 17.9054 5.74915 17.9689C5.53819 18.0323 5.31079 18.0108 5.11552 17.9088C4.92025 17.8069 4.7726 17.6326 4.70412 17.4232C4.54887 16.9057 4.2575 16.4219 3.857 15.8966C3.6455 15.6234 3.42719 15.3555 3.20225 15.0933L3.09875 14.9696C2.89625 14.7311 2.6825 14.4791 2.47438 14.2192C1.47875 12.9794 0.5 11.4438 0.5 9.15668C0.5 4.3698 4.34187 0.586426 9.5 0.586426C14.6581 0.586426 18.5 4.36868 18.5 9.1578C18.5 11.4438 17.5213 12.9794 16.5256 14.2203C16.3175 14.4791 16.1038 14.7311 15.9013 14.9707L15.7977 15.0933C15.5615 15.3723 15.3421 15.6344 15.143 15.8966C14.7425 16.4219 14.4511 16.9068 14.2959 17.4232C14.2314 17.6376 14.0845 17.8175 13.8873 17.9236C13.6901 18.0296 13.4589 18.0529 13.2446 17.9885C13.0302 17.924 12.8502 17.7771 12.7442 17.5799C12.6382 17.3828 12.6148 17.1516 12.6793 16.9372C12.9189 16.1429 13.3452 15.4713 13.8009 14.8739C14.0281 14.5747 14.2722 14.2844 14.5096 14.0032L14.6165 13.8772C14.819 13.6376 15.0159 13.4047 15.2094 13.1639C16.1015 12.0502 16.8125 10.8858 16.8125 9.1578C16.8125 5.3598 13.7862 2.27393 9.5 2.27393ZM6.6875 23.9302C6.6875 23.7064 6.7764 23.4918 6.93463 23.3336C7.09286 23.1753 7.30747 23.0864 7.53125 23.0864H11.4688C11.6925 23.0864 11.9071 23.1753 12.0654 23.3336C12.2236 23.4918 12.3125 23.7064 12.3125 23.9302C12.3125 24.154 12.2236 24.3686 12.0654 24.5268C11.9071 24.685 11.6925 24.7739 11.4688 24.7739H7.53125C7.30747 24.7739 7.09286 24.685 6.93463 24.5268C6.7764 24.3686 6.6875 24.154 6.6875 23.9302ZM5.84375 19.7114C5.61997 19.7114 5.40536 19.8003 5.24713 19.9586C5.0889 20.1168 5 20.3314 5 20.5552C5 20.779 5.0889 20.9936 5.24713 21.1518C5.40536 21.31 5.61997 21.3989 5.84375 21.3989H13.1562C13.38 21.3989 13.5946 21.31 13.7529 21.1518C13.9111 20.9936 14 20.779 14 20.5552C14 20.3314 13.9111 20.1168 13.7529 19.9586C13.5946 19.8003 13.38 19.7114 13.1562 19.7114H5.84375Z" fill="#424B5A"/>
</svg>
