<svg width="19" height="25" viewBox="0 0 19 25" fill="none" xmlns="http://www.w3.org/2000/svg">
<path fill-rule="evenodd" clip-rule="evenodd" d="M9.33203 2.27832C5.04578 2.27832 2.01953 5.3642 2.01953 9.1622C2.01953 10.8902 2.73053 12.0557 3.62266 13.1672C3.81616 13.4091 4.01303 13.6419 4.21553 13.8816L4.32353 14.0076C4.55978 14.2888 4.80391 14.5791 5.03228 14.8783C5.48678 15.4757 5.91316 16.1473 6.15166 16.9416C6.21007 17.154 6.18309 17.3808 6.0765 17.5736C5.9699 17.7664 5.79213 17.9098 5.58118 17.9733C5.37023 18.0367 5.14282 18.0152 4.94755 17.9132C4.75228 17.8112 4.60463 17.6369 4.53616 17.4276C4.38091 16.9101 4.08953 16.4263 3.68903 15.9009C3.47754 15.6278 3.25922 15.3599 3.03428 15.0977L2.93078 14.9739C2.72828 14.7354 2.51453 14.4834 2.30641 14.2236C1.31078 12.9838 0.332031 11.4482 0.332031 9.16107C0.332031 4.3742 4.17391 0.59082 9.33203 0.59082C14.4902 0.59082 18.332 4.37307 18.332 9.1622C18.332 11.4482 17.3533 12.9838 16.3577 14.2247C16.1495 14.4834 15.9358 14.7354 15.7333 14.9751L15.6298 15.0977C15.3935 15.3767 15.1742 15.6388 14.975 15.9009C14.5745 16.4263 14.2832 16.9112 14.1279 17.4276C14.0635 17.6419 13.9165 17.8219 13.7193 17.928C13.5222 18.034 13.291 18.0573 13.0766 17.9929C12.8622 17.9284 12.6822 17.7815 12.5762 17.5843C12.4702 17.3871 12.4468 17.1559 12.5113 16.9416C12.7509 16.1473 13.1773 15.4757 13.6329 14.8783C13.8602 14.5791 14.1043 14.2888 14.3417 14.0076L14.4485 13.8816C14.651 13.6419 14.8479 13.4091 15.0414 13.1683C15.9335 12.0546 16.6445 10.8902 16.6445 9.1622C16.6445 5.3642 13.6183 2.27832 9.33203 2.27832ZM6.51953 23.9346C6.51953 23.7108 6.60843 23.4962 6.76666 23.3379C6.92489 23.1797 7.1395 23.0908 7.36328 23.0908H11.3008C11.5246 23.0908 11.7392 23.1797 11.8974 23.3379C12.0556 23.4962 12.1445 23.7108 12.1445 23.9346C12.1445 24.1583 12.0556 24.373 11.8974 24.5312C11.7392 24.6894 11.5246 24.7783 11.3008 24.7783H7.36328C7.1395 24.7783 6.92489 24.6894 6.76666 24.5312C6.60843 24.373 6.51953 24.1583 6.51953 23.9346ZM5.67578 19.7158C5.452 19.7158 5.23739 19.8047 5.07916 19.9629C4.92093 20.1212 4.83203 20.3358 4.83203 20.5596C4.83203 20.7833 4.92093 20.998 5.07916 21.1562C5.23739 21.3144 5.452 21.4033 5.67578 21.4033H12.9883C13.2121 21.4033 13.4267 21.3144 13.5849 21.1562C13.7431 20.998 13.832 20.7833 13.832 20.5596C13.832 20.3358 13.7431 20.1212 13.5849 19.9629C13.4267 19.8047 13.2121 19.7158 12.9883 19.7158H5.67578Z" fill="white"/>
</svg>
