<svg width="25" height="22" viewBox="0 0 25 22" fill="none" xmlns="http://www.w3.org/2000/svg">
<path d="M15.8102 7.88864C16.1784 7.88873 16.5338 8.02404 16.8088 8.26889C17.0839 8.51373 17.2594 8.85105 17.3021 9.21679L17.3126 9.39108V15.9537C17.3225 17.3238 16.7948 18.643 15.8428 19.6283C14.8909 20.6136 13.5906 21.1865 12.221 21.2238C10.8515 21.2612 9.52188 20.7601 8.51762 19.8282C7.51337 18.8962 6.91452 17.6077 6.84963 16.2392L6.84212 15.9537V9.39108C6.84221 9.02285 6.97752 8.66748 7.22237 8.39244C7.46721 8.11741 7.80453 7.94187 8.17027 7.89915L8.34456 7.88864H15.8102ZM15.8102 9.39108H8.34456V15.9537C8.34238 16.9238 8.71799 17.8566 9.39177 18.5544C10.0656 19.2522 10.9846 19.6603 11.9541 19.6922C12.9236 19.724 13.8674 19.3771 14.5856 18.725C15.3037 18.0728 15.7397 17.1667 15.8012 16.1986L15.8102 15.9537V9.39108ZM5.74383 7.88864C5.52522 8.26585 5.39188 8.68637 5.3532 9.12064L5.33967 9.39108H1.5986V15.0102C1.59844 15.476 1.71497 15.9345 1.93757 16.3437C2.16016 16.7529 2.48172 17.0998 2.87288 17.3527C3.26404 17.6057 3.71234 17.7566 4.17684 17.7918C4.64134 17.8269 5.10723 17.7451 5.53199 17.5538C5.65218 18.0481 5.82647 18.5214 6.05033 18.9661C5.41768 19.2318 4.73053 19.3419 4.04653 19.2872C3.36254 19.2325 2.70164 19.0145 2.11929 18.6516C1.53694 18.2887 1.05011 17.7914 0.699657 17.2014C0.349203 16.6115 0.145339 15.9461 0.105169 15.2611L0.0976562 15.0087V9.39108C0.0977048 9.02308 0.23281 8.6679 0.477346 8.3929C0.721882 8.1179 1.05884 7.94221 1.42431 7.89915L1.6001 7.88864H5.74233H5.74383ZM18.4124 7.88864H22.5952C22.9634 7.88873 23.3188 8.02404 23.5938 8.26889C23.8689 8.51373 24.0444 8.85105 24.0871 9.21679L24.0977 9.39108V15.0102C24.0977 15.7207 23.9213 16.4201 23.5843 17.0457C23.2473 17.6712 22.7603 18.2032 22.1669 18.594C21.5735 18.9849 20.8924 19.2222 20.1847 19.2848C19.4769 19.3474 18.7647 19.2332 18.1119 18.9526C18.3343 18.5049 18.5086 18.0316 18.6273 17.5358C19.0354 17.7262 19.4836 17.815 19.9334 17.7944C20.3833 17.7739 20.8215 17.6447 21.2106 17.4179C21.5997 17.1911 21.9281 16.8734 22.1676 16.4921C22.4072 16.1107 22.5508 15.677 22.5862 15.2281L22.5952 15.0102V9.39108H18.8151L18.8061 9.16721C18.7733 8.71673 18.6387 8.27956 18.4124 7.88864ZM12.0751 0.338867C12.9627 0.338867 13.814 0.691464 14.4416 1.31909C15.0692 1.94672 15.4218 2.79796 15.4218 3.68556C15.4218 4.57315 15.0692 5.4244 14.4416 6.05202C13.814 6.67965 12.9627 7.03224 12.0751 7.03224C11.1875 7.03224 10.3363 6.67965 9.70865 6.05202C9.08103 5.4244 8.72843 4.57315 8.72843 3.68556C8.72843 2.79796 9.08103 1.94672 9.70865 1.31909C10.3363 0.691464 11.1875 0.338867 12.0751 0.338867ZM19.5678 1.2824C20.3303 1.2824 21.0615 1.58529 21.6007 2.12445C22.1398 2.6636 22.4427 3.39485 22.4427 4.15732C22.4427 4.9198 22.1398 5.65105 21.6007 6.1902C21.0615 6.72935 20.3303 7.03224 19.5678 7.03224C18.8053 7.03224 18.0741 6.72935 17.5349 6.1902C16.9958 5.65105 16.6929 4.9198 16.6929 4.15732C16.6929 3.39485 16.9958 2.6636 17.5349 2.12445C18.0741 1.58529 18.8053 1.2824 19.5678 1.2824ZM4.60498 1.2824C5.36746 1.2824 6.09871 1.58529 6.63786 2.12445C7.17701 2.6636 7.4799 3.39485 7.4799 4.15732C7.4799 4.9198 7.17701 5.65105 6.63786 6.1902C6.09871 6.72935 5.36746 7.03224 4.60498 7.03224C3.8425 7.03224 3.11126 6.72935 2.5721 6.1902C2.03295 5.65105 1.73006 4.9198 1.73006 4.15732C1.73006 3.39485 2.03295 2.6636 2.5721 2.12445C3.11126 1.58529 3.8425 1.2824 4.60498 1.2824ZM12.0751 1.84131C11.586 1.84131 11.1169 2.03561 10.771 2.38148C10.4252 2.72734 10.2309 3.19643 10.2309 3.68556C10.2309 4.17468 10.4252 4.64377 10.771 4.98963C11.1169 5.3355 11.586 5.5298 12.0751 5.5298C12.5642 5.5298 13.0333 5.3355 13.3792 4.98963C13.7251 4.64377 13.9194 4.17468 13.9194 3.68556C13.9194 3.19643 13.7251 2.72734 13.3792 2.38148C13.0333 2.03561 12.5642 1.84131 12.0751 1.84131ZM19.5678 2.78484C19.2038 2.78484 18.8547 2.92944 18.5973 3.18683C18.3399 3.44422 18.1953 3.79332 18.1953 4.15732C18.1953 4.52133 18.3399 4.87042 18.5973 5.12781C18.8547 5.3852 19.2038 5.5298 19.5678 5.5298C19.9318 5.5298 20.2809 5.3852 20.5383 5.12781C20.7957 4.87042 20.9403 4.52133 20.9403 4.15732C20.9403 3.79332 20.7957 3.44422 20.5383 3.18683C20.2809 2.92944 19.9318 2.78484 19.5678 2.78484ZM4.60498 2.78484C4.24098 2.78484 3.89188 2.92944 3.63449 3.18683C3.3771 3.44422 3.2325 3.79332 3.2325 4.15732C3.2325 4.52133 3.3771 4.87042 3.63449 5.12781C3.89188 5.3852 4.24098 5.5298 4.60498 5.5298C4.96899 5.5298 5.31808 5.3852 5.57547 5.12781C5.83286 4.87042 5.97746 4.52133 5.97746 4.15732C5.97746 3.79332 5.83286 3.44422 5.57547 3.18683C5.31808 2.92944 4.96899 2.78484 4.60498 2.78484Z" fill="white"/>
</svg>
