<svg width="25" height="22" viewBox="0 0 25 22" fill="none" xmlns="http://www.w3.org/2000/svg">
<path d="M15.8102 7.88851C16.1784 7.88861 16.5338 8.02392 16.8088 8.26876C17.0839 8.51361 17.2594 8.85093 17.3021 9.21667L17.3126 9.39095V15.9536C17.3225 17.3236 16.7948 18.6429 15.8428 19.6282C14.8909 20.6135 13.5906 21.1863 12.221 21.2237C10.8515 21.2611 9.52188 20.76 8.51762 19.8281C7.51337 18.8961 6.91452 17.6076 6.84963 16.2391L6.84212 15.9536V9.39095C6.84221 9.02273 6.97752 8.66735 7.22237 8.39232C7.46721 8.11729 7.80453 7.94174 8.17027 7.89903L8.34456 7.88851H15.8102ZM15.8102 9.39095H8.34456V15.9536C8.34238 16.9237 8.71799 17.8564 9.39177 18.5543C10.0656 19.2521 10.9846 19.6602 11.9541 19.692C12.9236 19.7239 13.8674 19.377 14.5856 18.7249C15.3037 18.0727 15.7397 17.1666 15.8012 16.1985L15.8102 15.9536V9.39095ZM5.74383 7.88851C5.52522 8.26573 5.39188 8.68625 5.3532 9.12051L5.33967 9.39095H1.5986V15.0101C1.59844 15.4759 1.71497 15.9344 1.93757 16.3436C2.16016 16.7527 2.48172 17.0997 2.87288 17.3526C3.26404 17.6056 3.71234 17.7565 4.17684 17.7916C4.64134 17.8268 5.10723 17.745 5.53199 17.5537C5.65218 18.048 5.82647 18.5213 6.05033 18.966C5.41768 19.2317 4.73053 19.3418 4.04653 19.2871C3.36254 19.2324 2.70164 19.0144 2.11929 18.6515C1.53694 18.2885 1.05011 17.7913 0.699657 17.2013C0.349203 16.6114 0.145339 15.946 0.105169 15.261L0.0976562 15.0086V9.39095C0.0977048 9.02296 0.23281 8.66777 0.477346 8.39277C0.721882 8.11777 1.05884 7.94209 1.42431 7.89903L1.6001 7.88851H5.74233H5.74383ZM18.4124 7.88851H22.5952C22.9634 7.88861 23.3188 8.02392 23.5938 8.26876C23.8689 8.51361 24.0444 8.85093 24.0871 9.21667L24.0977 9.39095V15.0101C24.0977 15.7206 23.9213 16.42 23.5843 17.0455C23.2473 17.671 22.7603 18.2031 22.1669 18.5939C21.5735 18.9847 20.8924 19.2221 20.1847 19.2847C19.4769 19.3473 18.7647 19.2331 18.1119 18.9525C18.3343 18.5048 18.5086 18.0315 18.6273 17.5357C19.0354 17.7261 19.4836 17.8148 19.9334 17.7943C20.3833 17.7738 20.8215 17.6446 21.2106 17.4178C21.5997 17.191 21.9281 16.8733 22.1676 16.492C22.4072 16.1106 22.5508 15.6769 22.5862 15.2279L22.5952 15.0101V9.39095H18.8151L18.8061 9.16709C18.7733 8.71661 18.6387 8.27944 18.4124 7.88851ZM12.0751 0.338745C12.9627 0.338745 13.814 0.691342 14.4416 1.31897C15.0692 1.94659 15.4218 2.79784 15.4218 3.68543C15.4218 4.57303 15.0692 5.42427 14.4416 6.0519C13.814 6.67953 12.9627 7.03212 12.0751 7.03212C11.1875 7.03212 10.3363 6.67953 9.70865 6.0519C9.08103 5.42427 8.72843 4.57303 8.72843 3.68543C8.72843 2.79784 9.08103 1.94659 9.70865 1.31897C10.3363 0.691342 11.1875 0.338745 12.0751 0.338745ZM19.5678 1.28228C20.3303 1.28228 21.0615 1.58517 21.6007 2.12432C22.1398 2.66348 22.4427 3.39472 22.4427 4.1572C22.4427 4.91968 22.1398 5.65092 21.6007 6.19008C21.0615 6.72923 20.3303 7.03212 19.5678 7.03212C18.8053 7.03212 18.0741 6.72923 17.5349 6.19008C16.9958 5.65092 16.6929 4.91968 16.6929 4.1572C16.6929 3.39472 16.9958 2.66348 17.5349 2.12432C18.0741 1.58517 18.8053 1.28228 19.5678 1.28228ZM4.60498 1.28228C5.36746 1.28228 6.09871 1.58517 6.63786 2.12432C7.17701 2.66348 7.4799 3.39472 7.4799 4.1572C7.4799 4.91968 7.17701 5.65092 6.63786 6.19008C6.09871 6.72923 5.36746 7.03212 4.60498 7.03212C3.8425 7.03212 3.11126 6.72923 2.5721 6.19008C2.03295 5.65092 1.73006 4.91968 1.73006 4.1572C1.73006 3.39472 2.03295 2.66348 2.5721 2.12432C3.11126 1.58517 3.8425 1.28228 4.60498 1.28228ZM12.0751 1.84119C11.586 1.84119 11.1169 2.03549 10.771 2.38135C10.4252 2.72722 10.2309 3.19631 10.2309 3.68543C10.2309 4.17456 10.4252 4.64365 10.771 4.98951C11.1169 5.33538 11.586 5.52968 12.0751 5.52968C12.5642 5.52968 13.0333 5.33538 13.3792 4.98951C13.7251 4.64365 13.9194 4.17456 13.9194 3.68543C13.9194 3.19631 13.7251 2.72722 13.3792 2.38135C13.0333 2.03549 12.5642 1.84119 12.0751 1.84119ZM19.5678 2.78472C19.2038 2.78472 18.8547 2.92932 18.5973 3.18671C18.3399 3.4441 18.1953 3.7932 18.1953 4.1572C18.1953 4.5212 18.3399 4.8703 18.5973 5.12769C18.8547 5.38508 19.2038 5.52968 19.5678 5.52968C19.9318 5.52968 20.2809 5.38508 20.5383 5.12769C20.7957 4.8703 20.9403 4.5212 20.9403 4.1572C20.9403 3.7932 20.7957 3.4441 20.5383 3.18671C20.2809 2.92932 19.9318 2.78472 19.5678 2.78472ZM4.60498 2.78472C4.24098 2.78472 3.89188 2.92932 3.63449 3.18671C3.3771 3.4441 3.2325 3.7932 3.2325 4.1572C3.2325 4.5212 3.3771 4.8703 3.63449 5.12769C3.89188 5.38508 4.24098 5.52968 4.60498 5.52968C4.96899 5.52968 5.31808 5.38508 5.57547 5.12769C5.83286 4.8703 5.97746 4.5212 5.97746 4.1572C5.97746 3.7932 5.83286 3.4441 5.57547 3.18671C5.31808 2.92932 4.96899 2.78472 4.60498 2.78472Z" fill="#424B5A"/>
</svg>
