<svg width="23" height="23" viewBox="0 0 23 23" fill="none" xmlns="http://www.w3.org/2000/svg">
<path d="M6.79163 16.495L8.72862 15.9362L20.3912 4.13391C20.4832 4.03964 20.5344 3.91297 20.5338 3.78125C20.5332 3.64954 20.4808 3.52335 20.3879 3.42995L19.6895 2.72379C19.6443 2.67741 19.5904 2.64049 19.5309 2.61518C19.4713 2.58987 19.4073 2.57667 19.3426 2.57636C19.2779 2.57606 19.2137 2.58864 19.154 2.61339C19.0942 2.63813 19.0399 2.67454 18.9943 2.72049L7.3625 14.492L6.79053 16.4939L6.79163 16.495ZM21.0721 1.32467L21.7706 2.03193C22.7341 3.00757 22.7429 4.58158 21.7882 5.54732L9.77026 17.7104L5.6301 18.9027C5.37733 18.9735 5.10682 18.9411 4.87792 18.8126C4.64903 18.6841 4.48044 18.4701 4.40917 18.2175C4.35613 18.0359 4.35537 17.843 4.40697 17.6609L5.6114 13.4372L17.5974 1.30597C17.8253 1.07648 18.0966 0.894663 18.3956 0.77113C18.6945 0.647597 19.015 0.584819 19.3384 0.586457C19.6619 0.588095 19.9817 0.654117 20.2794 0.780672C20.577 0.907226 20.8465 1.09178 21.0721 1.32357V1.32467ZM8.40194 2.5929C8.9475 2.5929 9.38968 3.04057 9.38968 3.59274C9.39055 3.72326 9.36568 3.85268 9.3165 3.97359C9.26732 4.0945 9.19478 4.20453 9.10305 4.29739C9.01131 4.39025 8.90218 4.46412 8.78187 4.51477C8.66157 4.56542 8.53246 4.59186 8.40194 4.59258H4.45097C3.35983 4.59258 2.47548 5.48793 2.47548 6.59116V18.5871C2.47548 19.6914 3.35983 20.5867 4.45097 20.5867H16.3039C17.395 20.5867 18.2805 19.6914 18.2805 18.5871V14.5888C18.2805 14.0366 18.7226 13.589 19.2682 13.589C19.8138 13.589 20.2559 14.0366 20.2559 14.5899V18.5871C20.2559 20.7957 18.4861 22.5864 16.3039 22.5864H4.45097C2.2687 22.5864 0.5 20.7957 0.5 18.5871V6.59116C0.5 4.38359 2.2687 2.5929 4.45097 2.5929H8.40194V2.5929Z" fill="#424B5A"/>
</svg>
