<svg width="23" height="23" viewBox="0 0 23 23" fill="none" xmlns="http://www.w3.org/2000/svg">
<path d="M6.62366 16.4994L8.56065 15.9406L20.2233 4.1383C20.3153 4.04403 20.3665 3.91736 20.3659 3.78564C20.3652 3.65393 20.3128 3.52774 20.22 3.43434L19.5215 2.72818C19.4764 2.68181 19.4225 2.64488 19.3629 2.61957C19.3033 2.59426 19.2393 2.58107 19.1746 2.58076C19.1099 2.58045 19.0458 2.59304 18.986 2.61778C18.9262 2.64253 18.8719 2.67894 18.8263 2.72488L7.19453 14.4964L6.62256 16.4983L6.62366 16.4994ZM20.9041 1.32906L21.6026 2.03632C22.5661 3.01197 22.5749 4.58597 21.6202 5.55172L9.60229 17.7148L5.46213 18.9071C5.20936 18.9779 4.93885 18.9455 4.70995 18.817C4.48106 18.6885 4.31248 18.4745 4.2412 18.2219C4.18817 18.0402 4.1874 17.8474 4.239 17.6653L5.44343 13.4416L17.4294 1.31037C17.6573 1.08087 17.9287 0.899058 18.2276 0.775525C18.5265 0.651992 18.847 0.589213 19.1705 0.590852C19.4939 0.59249 19.8138 0.658511 20.1114 0.785066C20.4091 0.911621 20.6785 1.09618 20.9041 1.32797V1.32906ZM8.23397 2.59729C8.77954 2.59729 9.22171 3.04496 9.22171 3.59713C9.22258 3.72766 9.19771 3.85708 9.14853 3.97799C9.09935 4.0989 9.02682 4.20893 8.93508 4.30179C8.84335 4.39465 8.73421 4.46851 8.6139 4.51916C8.4936 4.56981 8.3645 4.59625 8.23397 4.59697H4.283C3.19186 4.59697 2.30752 5.49232 2.30752 6.59556V18.5915C2.30752 19.6958 3.19186 20.5911 4.283 20.5911H16.1359C17.227 20.5911 18.1125 19.6958 18.1125 18.5915V14.5932C18.1125 14.041 18.5547 13.5933 19.1002 13.5933C19.6458 13.5933 20.088 14.041 20.088 14.5943V18.5915C20.088 20.8001 18.3182 22.5908 16.1359 22.5908H4.283C2.10073 22.5908 0.332031 20.8001 0.332031 18.5915V6.59556C0.332031 4.38799 2.10073 2.59729 4.283 2.59729H8.23397Z" fill="white"/>
</svg>
