<svg width="79" height="44" viewBox="0 0 79 44" fill="none" xmlns="http://www.w3.org/2000/svg">
<path d="M59.1058 22.5781C58.9747 22.5126 58.8436 22.4471 58.6907 22.4253C57.7731 22.2289 56.8992 22.3598 56.0035 22.4471C55.3699 22.5126 54.2557 22.5345 54.3212 21.6395C54.4741 19.784 56.8773 19.7622 58.0789 18.9764C58.2319 18.8891 58.3411 18.7144 58.363 18.5398C58.363 18.4307 58.3411 18.3215 58.2974 18.2124C57.1177 15.1564 54.1683 13.1918 51.2189 12.0785C48.9687 11.2272 46.9369 10.8998 44.5555 11.4237C44.0093 11.5546 43.4632 11.7074 42.917 11.9039C42.48 12.0567 41.9994 12.2532 41.5188 12.4496C40.6886 12.8644 39.1811 13.5629 38.7005 12.3841C37.8266 10.2231 36.5594 7.95291 34.9209 6.22845C33.8941 5.15884 32.3866 4.65679 30.9447 4.94056C29.2843 5.28982 28.4323 6.59954 27.4055 7.82194C26.8811 8.43314 25.1552 10.3104 24.4779 8.80423C24.2158 8.23669 24.3905 7.60365 24.2595 7.01428C23.8881 5.31164 22.2058 4.83141 20.6765 4.85324C19.322 4.87507 17.9675 5.11519 16.6785 5.57359C15.3895 6.03199 14.2097 6.77417 12.8552 7.10159C10.9763 7.56 9.09749 5.70456 7.0657 6.49039C6.60691 6.64319 6.19181 6.86148 5.79856 7.16708C5.05576 7.7128 4.53142 8.52046 4.3348 9.43726C4.31295 9.50275 4.31295 9.5464 4.2911 9.61189C3.87601 12.406 3.02396 14.9599 2.21562 17.4484C1.27619 20.2643 0.31491 23.1893 0.0308964 26.3763C0.00904915 26.6601 -0.0127977 26.9438 0.00904948 27.2276C0.00904948 27.2276 0.00904948 27.2494 0.00904948 27.2713C0.118286 29.6288 1.73498 31.6152 4.02894 32.1827C4.66251 32.7939 5.58009 33.427 6.82538 33.427C6.86907 33.427 6.93462 33.427 6.97831 33.427C7.87405 33.3615 8.72609 32.9904 9.3815 32.3573C10.1025 31.5279 10.8016 30.6765 11.4788 29.8252C12.7678 31.4187 15.0618 32.2482 17.0062 31.9644C17.1373 31.9644 17.2683 31.9644 17.3994 31.9644C19.4312 32.1391 21.2882 30.9821 23.1671 30.9821C25.0897 31.1568 27.0341 31.2004 28.8692 30.9167C29.4809 30.8293 30.0708 30.6984 30.6607 30.5237C30.901 31.0476 31.3598 31.4405 31.906 31.6152C32.4959 31.768 33.1076 31.8116 33.7193 31.7243C35.0957 31.4624 36.7342 30.7639 37.6736 31.2223C39.05 31.8989 40.6012 32.0081 42.2179 31.8771C42.7422 31.8335 43.2884 31.7461 43.8346 31.6588C47.7671 31.004 51.9836 30.3055 55.0203 27.4896C55.0203 29.0831 51.3718 29.6724 52.4642 31.4624C52.5734 31.6588 55.8287 30.24 56.1564 30.0872C57.1614 29.6506 58.5377 29.1704 59.1058 28.1662C59.1713 28.0571 59.215 27.9261 59.2368 27.7733C59.2805 27.184 58.494 26.8347 58.2319 26.3545C57.9042 25.8088 57.9479 25.1102 58.363 24.63C58.6251 24.3244 58.9091 24.0625 59.2368 23.8442C59.6738 23.5386 59.7175 22.9492 59.1058 22.5781Z" fill="#E22741"/>
<path d="M21.354 10.4847C21.6599 10.2227 21.791 10.0044 21.7691 9.67701C21.7036 8.30181 19.781 7.27586 18.5576 7.34135C18.0114 7.36317 17.4434 7.55963 17.2031 8.08352C14.8217 11.5761 9.60024 21.0279 7.1315 24.3895C7.02227 24.4987 6.89118 24.5423 6.73825 24.5642C6.62902 24.5642 6.56347 24.5205 6.56347 24.3895C6.56347 24.324 6.56347 24.2804 6.58532 24.2149C7.28443 22.163 9.5347 14.5885 11.5883 11.6416C11.785 11.4451 11.8942 11.1832 11.8942 10.9212C11.8287 9.76433 9.75317 9.02215 8.7045 9.06581C8.09278 9.08764 7.21889 9.34958 7.06596 10.0918C6.10468 16.3784 3.30824 21.2025 2.80575 26.7252C2.78391 26.878 2.78391 27.0308 2.80575 27.1836C2.89314 28.7553 4.11659 29.5847 5.44927 29.6284C5.99545 30.3051 6.41054 30.698 6.82564 30.6762C7.19704 30.6544 7.56845 30.3269 8.04909 29.5411C10.2993 25.7866 14.6032 16.7495 21.354 10.4847Z" fill="white"/>
<path d="M51.5891 17.2947C51.5017 17.2947 51.458 17.3602 51.3706 17.4693C50.89 18.1678 48.2901 21.5731 47.5255 22.4899C46.455 23.7778 45.0131 25.3494 44.729 25.5896C44.5543 25.8078 44.3358 25.9388 44.0736 26.0043C43.8989 26.0043 43.7459 25.8733 43.7459 25.5677C43.6585 23.7778 46.4113 20.3507 47.307 19.1064C47.5036 18.8445 47.6129 18.5389 47.6347 18.2333C47.591 17.2074 45.5155 17.1637 44.6854 16.6398C44.7509 16.6398 45.1441 15.6357 45.1005 14.8499C45.0786 14.3041 44.8164 13.8239 44.0955 13.8676C41.6704 13.9985 39.7479 15.7012 39.8134 17.0982C39.8571 17.8622 40.4251 18.5389 41.7797 18.8663C41.736 18.9318 41.6704 18.9973 41.6049 19.0846C41.1898 19.5867 40.6873 20.1542 40.2941 20.6345C39.442 21.6822 38.5026 22.1188 37.7161 22.1625H37.6506C38.7211 20.2415 39.442 18.5171 39.4202 18.015C39.3765 17.12 38.306 16.0286 36.864 16.0941C36.0994 15.7012 35.6406 14.8717 34.9852 14.9153C33.3248 14.9808 30.5939 19.2811 29.5452 23.0793C29.4797 23.1666 29.3923 23.2539 29.3486 23.3194C28.5403 24.4326 27.579 25.4586 26.5303 26.3536C26.4648 26.3972 26.3992 26.4409 26.3337 26.4409C26.1589 26.4409 26.0715 26.2662 26.0497 26.0261C25.9623 24.4763 30.5284 15.4174 33.434 11.8157C34.1987 10.8552 34.4827 10.0912 34.4609 9.50184C34.3953 7.99566 32.4291 7.4936 31.4678 7.53726C30.6594 7.58092 30.4191 7.69006 30.441 7.86469C30.441 8.06115 30.7468 8.34492 30.7687 8.67235C30.7687 8.78149 30.7468 8.91246 30.6813 8.99978C28.5403 12.8635 24.2582 21.2238 23.5809 24.8037C23.5591 24.8037 23.5373 24.7819 23.5373 24.7819C23.2751 25.0875 22.1827 26.1789 21.5928 26.2008C21.2433 26.2226 20.9593 25.9606 20.9374 25.6114C20.8937 24.5854 22.7726 21.4639 23.3625 20.6563C23.4717 20.5253 23.5373 20.3507 23.5591 20.1979C23.5373 19.6303 22.4886 19.1064 21.2651 19.1719C20.9593 19.1719 20.6316 19.2374 20.3476 19.3247C19.9543 21.8569 17.2016 27.314 15.5193 27.4013C15.3227 27.4013 15.2353 27.2049 15.2135 26.8556C15.1261 24.9347 17.3326 18.9318 21.4618 18.7354C21.9206 18.7135 22.3793 18.779 22.8381 18.8882C22.9474 18.91 23.0566 18.9318 23.144 18.9318C23.6246 18.91 24.0397 18.0587 23.996 17.1637C23.9523 16.1814 23.3625 15.1991 21.7239 15.2646C16.7865 15.4829 12.985 23.2975 13.1817 27.3577C13.2472 28.6237 14.4488 29.3223 15.6941 29.2786C16.4588 29.2349 17.7259 28.34 18.8619 26.9648C18.993 28.0125 19.5829 28.4928 20.4349 28.4709C21.3525 28.4273 22.5541 27.7069 23.6028 26.2881C23.8868 27.4886 24.9136 28.973 25.9841 28.9293C26.29 28.9075 26.574 28.7765 26.7925 28.5583C27.4916 27.9471 28.3873 26.812 29.1738 25.786C29.1738 25.9388 29.1738 26.0916 29.1738 26.2226C29.2612 27.8379 30.0259 28.9293 31.8173 28.842C33.2374 28.7765 35.16 26.419 36.733 23.9088C36.9296 23.9524 37.1481 23.9524 37.3665 23.9306C38.6774 23.8651 40.1848 23.1011 41.2772 21.4858C41.8234 20.6781 42.3696 19.8268 42.8065 19.1064C43.0468 19.1501 43.309 19.1501 43.5711 19.1719C42.5662 21.3111 41.0806 25.022 41.1898 27.1612C41.2335 28.1653 41.6486 28.7984 42.6099 28.7547C44.4013 28.6674 47.1759 25.3276 48.3557 23.5813C49.8631 21.4203 51.4143 19.0846 52.1134 17.884C52.0479 17.7749 51.8512 17.2728 51.5891 17.2947ZM34.6356 21.6604C34.6575 22.0097 34.7449 22.3589 34.9196 22.6863C33.9584 24.7819 32.2106 27.2485 31.4459 27.2922C31.2712 27.2922 31.1619 27.2049 31.1401 26.9648C30.9872 23.8651 33.7836 19.7613 34.9852 19.6958H35.0726C34.7667 20.2852 34.6138 20.9837 34.6356 21.6604Z" fill="white"/>
<path d="M6.8261 36.898H5.42787V36.5924C5.42787 36.3086 5.36233 36.003 5.2094 35.7629C5.03462 35.5228 4.75061 35.3918 4.44475 35.4136C4.29182 35.4136 4.11704 35.4355 3.98596 35.5228C3.87672 35.5883 3.76748 35.6756 3.70194 35.8066C3.6364 35.9375 3.57086 36.0685 3.54901 36.2213C3.52717 36.3741 3.50532 36.5269 3.50532 36.7015C3.50532 36.8543 3.50532 37.029 3.52717 37.1818C3.54901 37.2909 3.57086 37.4219 3.6364 37.531C3.70194 37.6402 3.76749 37.7275 3.87672 37.793C4.0078 37.8803 4.16073 37.9458 4.31367 38.0112L5.38418 38.426C5.64635 38.5133 5.90851 38.6661 6.14883 38.8407C6.34546 38.9935 6.49839 39.19 6.60762 39.3865C6.71686 39.6266 6.7824 39.8667 6.80425 40.1286C6.84794 40.4342 6.86979 40.7617 6.84794 41.0891C6.84794 41.482 6.80425 41.8531 6.71686 42.2242C6.65132 42.5516 6.52023 42.8572 6.32361 43.1192C6.12698 43.3811 5.86482 43.5776 5.55896 43.7304C5.2094 43.8832 4.81615 43.9705 4.4229 43.9486C4.09519 43.9486 3.76748 43.8832 3.48347 43.774C3.19946 43.6649 2.93729 43.4902 2.71882 43.272C2.50035 43.0537 2.34742 42.8135 2.21633 42.5298C2.08525 42.246 2.01971 41.9404 2.04155 41.613V41.0891H3.43978V41.5257C3.43978 41.7658 3.50532 42.0277 3.65825 42.2242C3.85487 42.4425 4.13889 42.5516 4.4229 42.5298C4.61953 42.5298 4.7943 42.5079 4.96908 42.4206C5.10017 42.3551 5.2094 42.246 5.27494 42.1369C5.36233 42.0059 5.40603 41.8313 5.40603 41.6785C5.42787 41.5038 5.42787 41.3074 5.42787 41.0891C5.42787 40.8708 5.42787 40.6743 5.40603 40.4561C5.40603 40.3251 5.36233 40.1723 5.29679 40.0631C5.23125 39.954 5.14386 39.8885 5.03462 39.823C4.90354 39.7357 4.75061 39.6702 4.61953 39.6266L3.61455 39.2118C3.00283 38.9717 2.60958 38.6443 2.39111 38.2295C2.17264 37.7493 2.0634 37.2254 2.08525 36.7015C2.08525 36.3523 2.12894 36.003 2.23818 35.6538C2.32557 35.3481 2.4785 35.0644 2.69697 34.8024C2.8936 34.5623 3.15576 34.3659 3.43978 34.2349C3.76748 34.0821 4.13889 34.0166 4.51029 34.0166C4.838 34.0166 5.16571 34.0821 5.47157 34.2131C5.75558 34.344 5.9959 34.4968 6.21437 34.7151C6.60762 35.108 6.84794 35.6538 6.84794 36.2213L6.8261 36.898Z" fill="white"/>
<path d="M7.78638 36.3952C7.78638 36.0459 7.85193 35.6749 7.98301 35.3474C8.11409 35.0636 8.28887 34.8017 8.52919 34.5834C8.74766 34.387 9.00983 34.2342 9.27199 34.1468C10.1022 33.8412 11.0416 34.0159 11.7189 34.5834C11.9374 34.8017 12.134 35.0418 12.2432 35.3474C12.3961 35.6749 12.4617 36.0241 12.4398 36.3952V41.5468C12.4398 41.9178 12.3743 42.2671 12.2432 42.5945C12.1121 42.8783 11.9374 43.1184 11.7189 43.3149C11.5004 43.5113 11.2382 43.6641 10.9542 43.7733C10.4081 43.9697 9.81817 43.9697 9.27199 43.7733C8.98798 43.6641 8.74766 43.5113 8.52919 43.3149C8.28887 43.1184 8.11409 42.8783 7.98301 42.5945C7.83008 42.2671 7.76454 41.896 7.78638 41.5468V36.3952ZM9.18461 41.5468C9.16276 41.8305 9.27199 42.0925 9.46862 42.2889C9.86187 42.6164 10.408 42.6164 10.8013 42.2889C10.9979 42.0925 11.1072 41.8305 11.0853 41.5468V36.3952C11.1072 36.1114 10.9979 35.8495 10.8013 35.653C10.408 35.3256 9.86187 35.3256 9.46862 35.653C9.27199 35.8495 9.16276 36.1114 9.18461 36.3952V41.5468Z" fill="white"/>
<path d="M13.7066 43.8394V34.082H17.8794V35.3918H15.1048V38.3604H17.508V39.6702H15.1048V43.8394H13.7066Z" fill="white"/>
<path d="M20.1743 43.8394V35.3918H18.5576V34.082H23.1892V35.3918H21.5725V43.8394H20.1743Z" fill="white"/>
<path d="M31.5124 34.1035L30.0486 43.8609H28.7378L27.6673 37.5306H27.6454L26.5967 43.8609H25.2859L23.8221 34.1035H25.3078L26.0069 40.3029H26.0287L27.1211 34.1035H28.1916L29.3276 40.4557H29.3495L30.0268 34.1035H31.5124Z" fill="white"/>
<path d="M31.3582 43.8394L33.5429 34.082H34.7008L36.8856 43.8394H35.4873L35.0722 41.7439H33.1715L32.7564 43.8394H31.3582ZM34.8101 40.4342L34.1328 36.8979H34.111L33.4337 40.4342H34.8101Z" fill="white"/>
<path d="M38.0452 43.8394V34.082H40.2955C41.934 34.082 42.7642 35.0425 42.7642 36.9416C42.7861 37.4436 42.6768 37.9457 42.5021 38.4041C42.3054 38.8189 41.9777 39.1681 41.5626 39.3864L43.0701 43.8394H41.5845L40.2736 39.6702H39.4434V43.8394H38.0452ZM39.4434 35.4136V38.4478H40.2299C40.4266 38.4478 40.6232 38.4259 40.8198 38.3386C40.9509 38.2731 41.082 38.164 41.1694 38.033C41.2568 37.8802 41.3005 37.7274 41.3223 37.5528C41.366 37.1162 41.366 36.6796 41.3223 36.2431C41.3005 36.0684 41.2349 35.9156 41.1475 35.7628C40.9728 35.5009 40.645 35.3699 40.1644 35.3699L39.4434 35.4136Z" fill="white"/>
<path d="M44.1182 43.8394V34.082H48.291V35.3918H45.5164V38.2513H47.9196V39.561H45.5164V42.4424H48.291V43.8394H44.1182Z" fill="white"/>
<path d="M64.261 5.31055H59.7167V7.88633H64.261V5.31055Z" fill="#FECB3D"/>
<path d="M71.2534 36.0888L69.0687 35.9142L67.6268 34.6699L60.9634 35.5212L57.7081 35.5431L57.6426 42.3973H62.3834C62.7111 42.2881 65.7042 41.6114 67.0369 41.6769C68.3696 41.7424 70.6198 42.1572 71.2752 42.3973C71.2752 42.3973 73.5473 42.3318 74.3775 42.1572C75.2077 41.9825 77.0429 41.0439 77.0429 41.0439L71.2534 36.0888Z" fill="#E22741"/>
<path d="M57.4876 42.6162C56.8759 42.6162 56.3079 42.9873 56.0894 43.5767C56.0894 43.5767 60.4589 43.5985 60.5681 43.5985C60.8084 43.5548 61.0269 43.4239 61.1798 43.2492C61.2672 43.0528 61.3546 42.8345 61.3983 42.6162H57.4876Z" fill="#FFEFD1"/>
<path d="M77.85 42.9656C77.7189 42.8346 77.5441 42.7255 77.3693 42.66C77.1946 42.5945 77.0198 42.5508 76.8232 42.5508C76.7795 42.5508 76.7358 42.5508 76.6702 42.5508H76.4955C76.4081 42.5508 76.2988 42.5508 76.2114 42.529C75.8182 42.4853 75.4468 42.3544 75.0972 42.1579L75.0317 42.1143L73.0654 42.5945C73.0436 42.8346 73.0873 43.0747 73.1747 43.293C73.3058 43.5549 73.9175 43.6423 74.136 43.6423L78.0466 43.5986V43.424C78.0685 43.2493 77.9811 43.0965 77.85 42.9656Z" fill="#FFEFD1"/>
<path d="M70.9472 33.7104L72.2143 31.2656C72.2143 31.2656 73.3722 31.4839 73.9184 31.7895C74.0932 31.8768 74.7923 32.3352 74.8579 32.5535C74.9234 32.7718 74.5957 33.5358 74.5738 33.6449C74.8579 33.8632 74.9671 34.2343 74.836 34.5617C74.6394 34.9547 73.831 34.8237 73.5033 34.78C73.1756 34.7364 70.9472 33.7104 70.9472 33.7104Z" fill="#FFEFD1"/>
<path d="M60.5699 26.6821C59.0843 26.6821 57.6205 26.4856 56.2005 26.049C55.7198 25.8962 55.261 25.7216 54.8241 25.5033C54.6056 25.3942 54.3871 25.2632 54.1905 25.1322C54.1031 25.0667 54.0157 24.9794 53.9284 24.9139C53.9284 24.9139 53.9284 24.914 53.9065 24.8921H53.8628L53.8191 24.7611L53.9502 24.6957L53.8191 24.7611L53.7754 24.6302L53.688 24.3246C53.5351 23.8443 53.3822 23.3641 53.2074 22.8839C53.2292 23.0367 53.2511 23.2113 53.2729 23.3859L53.3166 23.6042L53.0982 23.5824C52.7486 23.5606 52.4427 23.4296 52.1587 23.2113C51.831 22.9494 51.547 22.6001 51.3504 22.229C51.0008 21.5523 50.6731 19.7624 50.6513 19.3913C50.6294 19.0857 50.6513 18.8019 50.695 18.4963C50.7168 18.2999 50.7824 18.1034 50.8479 17.907C50.8916 17.7542 51.0227 17.6232 51.1975 17.5577C51.2848 17.5359 51.3722 17.5359 51.4596 17.5359C51.7436 17.5359 52.0495 17.645 52.268 17.8196C52.5738 18.0816 52.8141 18.409 52.9889 18.7801C53.0982 18.9984 53.1637 19.2385 53.2074 19.4786C53.3385 19.2385 53.5569 18.8238 53.7754 18.4308C54.6275 16.7719 56.0475 13.9778 57.5768 13.1701L57.5987 13.1483H57.6205C58.1886 13.0173 58.7784 12.93 59.3683 12.8645C60.0237 12.799 60.6791 12.7554 61.3564 12.7554H61.3783C62.6891 12.7554 64.0218 12.8864 65.3108 13.1265H65.3326C65.3544 13.1265 65.3763 13.1265 65.3763 13.1265H65.3981C66.0972 12.8864 66.7964 12.6681 67.4955 12.4934C68.1509 12.3188 68.8063 12.2097 69.4836 12.166H69.571L69.6365 12.2315C69.7457 12.3843 69.8331 12.5371 69.9424 12.7117C70.0516 12.93 70.1608 13.1483 70.2482 13.3884C70.423 13.8468 70.5759 14.3271 70.6852 14.8073C70.8818 15.7896 70.9692 16.7719 70.9473 17.776C70.9255 17.8633 70.991 17.9288 71.0784 17.9506C71.144 17.9506 71.2095 17.9288 71.2313 17.8633V17.8415C71.2969 17.6668 71.4061 17.514 71.5154 17.3394V17.3176C71.6246 17.1429 71.7775 16.9901 71.9305 16.8592C72.2363 16.5972 72.6514 16.5099 73.0447 16.5972C73.1757 16.6191 73.3068 16.75 73.3942 16.9465C73.4816 17.1429 73.5253 17.3394 73.5471 17.5359C73.5908 17.8196 73.6127 18.1252 73.5908 18.4308L73.5471 18.9111C73.4598 19.7187 73.2194 20.5264 72.848 21.2467C72.6514 21.6178 72.3674 21.9453 72.0397 22.2072C71.7338 22.4255 71.3843 22.5565 71.0129 22.5565C70.9692 22.5565 70.9473 22.5565 70.9036 22.5565H70.7507V22.4037C70.7507 22.2072 70.7289 22.0107 70.7289 21.8143C70.6852 22.0544 70.6196 22.2727 70.5978 22.4691C70.5759 22.6001 70.5541 22.7311 70.5322 22.8621C70.5104 22.9712 70.4885 23.0803 70.4667 23.2113L70.4011 23.5824C70.4011 23.6261 70.3793 23.6915 70.3793 23.7352V23.757H70.3356L70.3793 23.7789V23.8007L70.3575 23.8225C70.3575 23.8443 70.3356 23.8443 70.3356 23.8662C70.1827 24.0408 70.0297 24.1936 69.8331 24.3246C69.6365 24.4774 69.4399 24.6083 69.2214 24.7175C68.7845 24.9576 68.3475 25.1759 67.8887 25.3505C66.0317 26.0709 64.0873 26.5074 62.1211 26.6384C61.553 26.6602 61.0505 26.6821 60.5699 26.6821Z" fill="#FFEFD1"/>
<path d="M65.704 32.8151C65.6822 32.8151 65.704 32.8151 65.704 32.8151C65.9662 33.0989 66.7745 33.8848 66.7745 33.8848L63.2353 34.2122C62.9076 33.6446 62.1866 33.4264 61.6186 33.7538C61.422 33.8629 61.269 34.0157 61.1598 34.2122L58.407 34.0812C58.407 34.0812 60.985 31.4399 61.5094 30.7196C62.0337 29.9993 63.9344 26.7031 63.9344 26.7031C63.9344 26.7031 66.9056 28.1875 68.2601 28.7987C69.7458 29.4535 72.4985 30.4577 72.4985 30.4577L70.6852 33.601C70.6852 33.601 69.4836 32.837 69.1559 33.4918C68.8282 34.1467 70.4012 34.7361 70.4012 34.7361L69.134 35.5874C69.1559 35.5874 66.0973 33.0989 65.704 32.8151Z" fill="white"/>
<path d="M58.472 26.9433L57.6199 26.7905L52.0052 34.2341C52.0052 34.2341 54.0807 35.7621 54.5395 35.9804C55.326 36.3733 57.3359 36.9627 57.3359 36.9627C57.3359 36.9627 57.4451 31.9421 57.5325 31.2217C57.6199 31.9421 57.7073 33.994 57.7073 33.994L58.5157 34.0595C58.5157 34.0595 59.8265 32.7716 60.2416 32.204C60.4819 31.9203 61.5524 30.0648 61.5524 30.0648L58.472 26.9433Z" fill="white"/>
<path d="M59.8478 34.5614C59.1924 34.5396 58.5369 34.5178 57.8597 34.4741C57.8597 34.6706 57.8597 34.867 57.8815 35.0635C58.6025 35.1072 59.3453 35.1072 60.0881 35.1072C60.3503 35.1072 60.6124 35.1072 60.8746 35.0853C60.8527 34.9762 60.8309 34.867 60.8309 34.7579C60.8309 34.6924 60.8309 34.6269 60.8528 34.5396C60.525 34.5833 60.1973 34.5833 59.8478 34.5614Z" fill="#FCBD19"/>
<path d="M58.8668 27.0087L63.5202 26.9214C62.9959 28.1001 62.3186 29.1916 61.4884 30.1739C60.4616 29.2571 59.5659 28.1875 58.8668 27.0087Z" fill="#F9BC8D"/>
<path d="M73.4595 31.397L74.8578 29.2578L75.6661 29.7817L74.3116 31.8773L73.4595 31.397Z" fill="#FCBD19"/>
<path d="M67.1678 34.4968C67.0149 34.3658 66.862 34.213 66.709 34.082C65.6385 34.2785 64.568 34.4095 63.4975 34.4749C63.5193 34.5841 63.5412 34.6714 63.5412 34.7805C63.5412 34.846 63.5412 34.9333 63.5193 34.9988C64.7646 34.9115 65.9662 34.7587 67.1678 34.4968Z" fill="#FCBD19"/>
<path d="M66.1629 35.8276C66.1629 35.8276 68.3913 39.6913 71.6902 41.2848C71.7121 41.2848 66.578 36.0023 66.1629 35.8276Z" fill="#010101"/>
<path d="M67.8884 40.9136C66.5339 40.2587 65.3542 39.2328 64.4366 38.2287L65.0483 38.0322C66.4684 39.4511 67.8884 40.9136 67.8884 40.9136Z" fill="#010101"/>
<path d="M62.2073 35.719C62.7535 35.719 63.1904 35.2824 63.1904 34.7367C63.1904 34.191 62.7535 33.7544 62.2073 33.7544C61.6611 33.7544 61.2242 34.191 61.2242 34.7367C61.2242 35.2824 61.6611 35.719 62.2073 35.719Z" fill="#FECB3D"/>
<path d="M61.0496 34.4086L57.6851 34.3213L57.707 35.2599L61.0933 35.3036L61.0496 34.4086Z" fill="#FECB3D"/>
<path d="M66.7747 33.9062L63.301 34.321L63.3229 35.1941C64.7429 35.216 66.1849 35.0195 67.5394 34.6048L66.7747 33.9062Z" fill="#FECB3D"/>
<path d="M62.863 35.7622L61.7488 35.9368L62.0328 39.0802L64.4141 38.0979L62.863 35.7622Z" fill="#FECB3D"/>
<path d="M54.2992 37.3778C53.4908 36.7448 53.5127 35.4351 53.5127 35.4351L55.9596 36.7011C55.9596 36.7011 55.1075 38.0108 54.2992 37.3778Z" fill="#FFEFD1"/>
<path d="M57.1182 41.4591C56.4847 41.4154 54.6495 41.1317 54.6495 41.1317C54.5403 41.1753 61.2911 39.7128 62.9296 38.8397C64.874 38.163 69.9207 35.4126 70.7072 34.8887L71.4719 35.3034C70.8383 36.1766 68.0855 38.2503 66.9058 38.927C65.595 39.7346 61.4221 41.8302 61.4221 41.8302C61.4221 41.8302 57.3586 41.4809 57.1182 41.4591Z" fill="white"/>
<path d="M73.3285 36.2856C72.9353 36.1983 69.4397 34.1901 69.4397 34.1901C69.2212 34.0591 69.1338 33.7753 69.2212 33.5352C69.3742 33.2296 69.833 33.2514 69.9422 33.3169C69.9422 33.3169 73.6999 35.3033 73.8747 35.5434C74.0495 35.7836 74.115 35.9582 74.0058 36.1546C73.8965 36.3511 73.7218 36.3948 73.3285 36.2856Z" fill="#FCBD19"/>
<path d="M53.1637 32.6846L52.399 33.7323C52.399 33.7323 55.0207 35.5878 57.2928 36.2426V34.8019C57.3147 34.7801 54.6493 33.8197 53.1637 32.6846Z" fill="#E22741"/>
<path d="M57.8386 26.8996L57.5108 26.856L57.0084 27.5326C57.9041 29.3008 60.5695 31.6146 60.5695 31.6146L61.3778 30.545C59.5208 29.4972 57.8386 26.8996 57.8386 26.8996Z" fill="#E22741"/>
<path d="M64.5885 26.9868C64.5885 26.9868 61.9887 32.5313 58.9957 34.2558L60.8308 34.2994C60.8308 34.2994 63.8457 32.2475 66.0086 27.9691L64.5885 26.9868Z" fill="#E22741"/>
<path d="M70.1377 33.3824C70.1377 33.3824 71.6452 30.9812 71.8637 30.1954C71.8855 30.1299 70.0722 29.5405 70.0722 29.5405C69.5042 31.6797 67.6472 34.3865 67.6472 34.3865L68.9361 35.3688C69.2202 35.0414 69.4823 34.6703 69.7226 34.321C69.7226 34.321 69.0454 33.9499 69.3294 33.4915C69.6134 33.0331 70.1377 33.3824 70.1377 33.3824Z" fill="#E22741"/>
<path d="M51.5242 19.4346C49.9512 19.2163 50.8033 21.1591 50.8033 21.1591L51.4805 22.4688C51.4805 22.4688 50.978 21.4428 51.8082 21.29C52.6384 21.1372 52.9443 22.054 52.9443 22.054C52.9443 22.054 53.0754 19.6747 51.5242 19.4346Z" fill="#F9BC8D"/>
<path d="M73.5245 19.1064C73.5464 18.4516 72.8036 18.5607 72.0171 18.8445C71.2306 19.1283 70.7718 21.5949 70.7718 21.5949L70.9247 22.2498C70.9247 22.2498 71.5364 19.9796 72.3448 19.9577C73.1531 19.9359 73.0221 21.071 73.0221 21.071C73.0221 21.071 73.5027 19.7613 73.5245 19.1064Z" fill="#F9BC8D"/>
<path d="M55.6756 24.1928C56.2217 23.669 56.5494 22.9704 56.615 22.2283C56.6805 21.0059 56.1125 19.4779 56.3528 19.1504C56.3528 19.1504 60.2853 19.3469 60.9189 19.1504C61.5525 18.954 62.0986 17.5569 60.9189 16.5746C61.05 16.9894 61.1155 17.4041 61.1592 17.8407C61.2029 18.1463 61.1374 18.4301 61.0281 18.7139C61.0281 18.7139 60.7004 18.7357 59.1274 17.9717C58.4938 17.6879 57.8603 17.3605 57.2704 17.0112C57.2704 17.0112 58.7123 14.7629 58.2317 13.2349L57.1175 13.3003C57.1175 13.3003 56.5713 15.4614 56.1562 16.1162C55.7411 16.7711 54.4958 18.6702 54.8017 19.6307C55.1075 20.5911 55.7411 22.2501 55.7629 22.6648C55.7848 23.0796 55.6756 24.1928 55.6756 24.1928Z" fill="#F9BC8D"/>
<path d="M66.491 18.0149C66.491 18.0149 66.8405 15.5483 68.8723 14.6314C67.6489 14.5223 66.4691 15.068 65.7482 16.0503C64.5029 17.7529 63.8693 18.1677 63.8693 18.1677C63.8693 18.1677 62.908 18.255 62.6677 17.0544L62.5585 17.5565C62.5148 17.622 62.7551 18.9972 63.5197 19.3028C64.2844 19.6084 65.9011 19.1063 65.9011 19.1063H69.7025C68.9379 18.1677 67.6926 17.7529 66.491 18.0149Z" fill="#F9BC8D"/>
<path d="M61.1593 21.5947C61.1593 21.5947 61.5526 23.1446 62.3827 23.2755C63.2129 23.4065 63.7591 21.5947 63.7591 21.5947C63.7591 21.5947 63.06 22.2932 62.4046 22.2496C61.7492 22.2059 61.1593 21.5947 61.1593 21.5947Z" fill="#F9BC8D"/>
<path d="M60.4387 24.8912C60.4387 24.8912 62.6889 25.3059 64.1308 24.6074C64.1308 24.6074 63.4099 25.7425 62.1209 25.7207C60.8319 25.6989 60.4387 24.8912 60.4387 24.8912Z" fill="#F9BC8D"/>
<path d="M78.0688 42.769C77.9158 42.6162 77.7192 42.4853 77.5007 42.3979C77.3041 42.3106 77.0856 42.267 76.8672 42.2451C76.6268 42.2233 76.4739 42.2233 76.2991 42.2015C76.1244 42.1797 75.9714 42.1142 75.8185 42.0487C76.321 41.8304 76.8235 41.5685 77.2604 41.241C77.2823 41.241 77.2823 41.2192 77.3041 41.1974C77.3915 41.1101 77.3696 40.9573 77.2823 40.8918L71.602 35.8275C71.6457 35.7839 71.6894 35.7402 71.7331 35.7184C71.8641 35.7839 71.9952 35.8712 72.1263 35.9367L72.7599 36.3077L73.0876 36.5042C73.1531 36.5479 73.2187 36.5697 73.2842 36.6133C73.3716 36.657 73.459 36.657 73.5464 36.6788H73.5682C73.9833 36.6788 74.3329 36.3514 74.3329 35.9367C74.3329 35.7402 74.2673 35.5656 74.1363 35.4346C74.0926 35.3909 74.0707 35.3473 74.027 35.3255L73.9833 35.2818L73.9396 35.2381L73.7867 35.1508C73.743 35.129 73.7212 35.1072 73.6775 35.0853C73.7649 35.0853 73.8304 35.1072 73.9178 35.1072C74.18 35.129 74.4421 35.0853 74.6824 34.998C74.8354 34.9325 74.9446 34.8234 75.032 34.6706C75.0975 34.5396 75.1412 34.365 75.0975 34.2122C75.0538 33.9939 74.9228 33.7756 74.7261 33.6665C74.8135 33.5573 74.8791 33.4482 74.9446 33.3172C75.0538 33.1426 75.1194 32.968 75.1849 32.7933C75.2068 32.7279 75.2068 32.6405 75.2068 32.5751C75.2068 32.5532 75.1849 32.5096 75.1849 32.4877L75.1631 32.4441C75.1412 32.4222 75.1194 32.3786 75.1194 32.3568C75.0538 32.2694 74.9883 32.1821 74.9009 32.1166C74.8354 32.0512 74.7698 32.0075 74.7043 31.942L76.0151 29.912C76.0807 29.8028 76.0588 29.65 75.9496 29.5845L75.032 28.9951C74.9228 28.9297 74.7698 28.9515 74.7043 29.0606L73.3279 31.1562C73.1094 31.0689 72.891 31.0034 72.6725 30.9379L72.8473 30.5886C72.8473 30.5668 72.8691 30.5668 72.8691 30.545C72.9128 30.414 72.8254 30.283 72.7162 30.2612C71.2743 29.7592 69.8542 29.1698 68.456 28.5149C67.3418 27.991 66.2276 27.4453 65.1134 26.8778C66.1402 26.6595 67.1233 26.3539 68.0846 25.9391C68.5652 25.7427 69.024 25.5026 69.461 25.2406C69.6794 25.1096 69.8979 24.9568 70.1164 24.804C70.3567 24.6294 70.5533 24.433 70.7281 24.1928C70.7499 24.1492 70.7718 24.1055 70.7936 24.0619C70.7936 24.04 70.8155 24.0182 70.8155 23.9746L70.8373 23.9309V23.9091C70.8592 23.8218 70.8592 23.7781 70.881 23.7126C70.9029 23.5816 70.9029 23.4507 70.9247 23.3197C70.9247 23.1887 70.9247 23.0578 70.9466 22.9486C71.4054 22.9704 71.8641 22.8395 72.2355 22.5775C72.607 22.2938 72.9347 21.9445 73.175 21.5298C73.6119 20.7439 73.8959 19.8489 74.0052 18.954C74.0707 18.4956 74.0707 18.0372 74.027 17.5788C74.0052 17.3386 73.9396 17.0985 73.8522 16.8584C73.7867 16.7274 73.7212 16.5965 73.6119 16.4873C73.5464 16.4218 73.5027 16.3782 73.4153 16.3345C73.3716 16.3127 73.3279 16.2909 73.2842 16.269C73.2405 16.2472 73.2187 16.2472 73.175 16.2254C72.9128 16.1599 72.6506 16.1599 72.3885 16.2254C72.2356 16.269 72.1045 16.3127 71.9734 16.4C72.0389 16.0289 72.0826 15.6578 72.1045 15.2868C72.1482 14.5882 72.1482 13.8679 72.1045 13.1694C72.0826 12.9947 72.0826 12.8201 72.0608 12.6237C72.0608 12.5363 72.0389 12.4272 72.0171 12.3399C71.9952 12.2526 71.9734 12.1434 71.9515 12.0561C71.8423 11.7069 71.6675 11.3576 71.4709 11.052C71.0558 10.4408 70.5752 9.91691 70.0071 9.45851C68.8929 8.56353 67.6476 7.86501 66.2931 7.40661C66.0528 7.3193 65.8343 7.25381 65.594 7.18832C66.0965 6.77358 66.7519 6.07506 66.883 5.13643C67.0141 4.28511 66.7519 2.86625 65.8343 1.75299C65.2226 1.01082 64.0865 0.094012 62.0984 0.00669743C60.4818 -0.0587885 59.1709 0.355956 58.2315 1.25093C57.3358 2.12408 56.8333 3.32465 56.8333 4.56889C56.8114 5.87861 57.7072 6.79541 58.3407 7.27564C58.1878 7.3193 58.0567 7.36295 57.9038 7.42844C56.5493 7.9305 55.3258 8.75999 54.3645 9.82959C53.8839 10.3753 53.5125 11.0302 53.2503 11.7069C53.0319 12.3835 52.8789 13.1039 52.8352 13.8242C52.7478 15.2213 52.8352 16.5965 53.0755 17.9717C53.0755 17.9935 53.0755 17.9935 53.0755 18.0153C52.9445 17.8407 52.7915 17.6879 52.6168 17.5351C52.3983 17.3605 52.158 17.2513 51.8958 17.1859C51.6336 17.1204 51.3496 17.1204 51.0874 17.1859C51.0438 17.1859 51.0001 17.2077 50.9782 17.2295C50.9345 17.2513 50.8908 17.2732 50.8471 17.295C50.7816 17.3386 50.716 17.4041 50.6505 17.4696C50.5631 17.5788 50.4757 17.7097 50.4102 17.8407C50.3228 18.0808 50.2573 18.3209 50.2354 18.5611C50.1917 19.0195 50.1917 19.4779 50.2573 19.9363C50.3665 20.8312 50.6505 21.7262 51.1093 22.512C51.3496 22.9268 51.6555 23.276 52.0487 23.538C52.3983 23.7563 52.7915 23.8872 53.2066 23.8654C53.2722 24.1928 53.3377 24.5203 53.4251 24.8477L53.4469 24.935L53.4688 24.9787C53.4688 25.0005 53.4906 25.0223 53.4906 25.0442C53.5343 25.1315 53.578 25.2188 53.6436 25.2843C53.731 25.3934 53.8402 25.4807 53.9713 25.5681C54.1898 25.7209 54.4082 25.8737 54.6485 26.0046C55.1073 26.2447 55.588 26.463 56.0686 26.6158C56.3963 26.725 56.724 26.8123 57.0517 26.8996L51.8084 34.1904C51.7429 34.2777 51.7647 34.4087 51.8521 34.4741C52.2672 34.8016 52.6823 35.1072 53.0974 35.3909C53.0974 35.4346 53.0974 35.4564 53.0974 35.5001C53.1411 35.893 53.2503 36.2859 53.4033 36.657C53.5562 37.0718 53.7965 37.421 54.1461 37.7048C54.2553 37.7703 54.3645 37.8358 54.4738 37.8794C54.5393 37.9012 54.6048 37.9231 54.6704 37.9231H54.7141H54.7578H54.8452C55.0855 37.9231 55.3258 37.8576 55.5224 37.7484C55.8064 37.5738 56.0249 37.3119 56.1342 37.0063C56.4619 37.1372 56.8114 37.2246 57.161 37.3119C57.161 38.054 57.161 38.7962 57.161 39.5384C57.161 39.8658 57.161 40.1714 57.1828 40.4989C56.2652 40.7171 55.3258 40.9136 54.3864 41.0882C54.3208 41.0882 54.2771 41.1537 54.2771 41.1974C54.2553 41.2629 54.3208 41.3502 54.3864 41.3502C55.3258 41.503 56.2652 41.6339 57.2047 41.7431C57.2047 41.9832 57.2265 42.2233 57.2265 42.4634C57.0954 42.5071 56.9862 42.5507 56.8551 42.5944C56.6803 42.6817 56.5274 42.769 56.3745 42.8782C56.1997 43.0091 56.0686 43.1619 55.9812 43.3584C55.9594 43.4239 55.9375 43.5112 55.9375 43.5767C55.9594 43.6858 56.0031 43.7731 56.0686 43.8386C56.1778 43.9259 56.3089 43.9696 56.44 43.9478H56.9425H57.9475C58.6029 43.9478 59.2802 43.9696 59.9574 43.9914C60.1322 43.9914 60.2851 43.9914 60.4599 43.9914C60.6565 43.9914 60.875 43.9478 61.0498 43.8605C61.2683 43.7731 61.443 43.6203 61.5523 43.4239C61.6397 43.2711 61.7052 43.0965 61.727 42.9218H62.3825C62.4262 42.9218 62.4698 42.9218 62.5135 42.9C63.1908 42.5944 63.8899 42.3761 64.6109 42.2451C65.3537 42.1142 66.0965 42.0487 66.8393 42.0269C67.5821 42.0269 68.3249 42.0923 69.0677 42.2451C69.7887 42.3761 70.5096 42.5944 71.165 42.9C71.1869 42.9218 71.2306 42.9218 71.2524 42.9218H71.2743C71.3835 42.9218 71.4927 42.9218 71.602 42.9218C71.9515 42.9218 72.3011 42.9 72.6288 42.8782C72.6507 42.9873 72.6725 43.0746 72.6943 43.1838C72.738 43.3147 72.8036 43.4239 72.891 43.533C73.0439 43.7295 73.2842 43.8823 73.5245 43.9478C73.743 43.9914 73.9615 44.0133 74.18 43.9914L74.7698 43.9696C75.5563 43.9478 76.321 43.9478 77.1075 43.9478H77.6974H77.8503C77.9158 43.9478 77.9814 43.9478 78.0251 43.9478C78.1343 43.9259 78.2217 43.8823 78.2872 43.795C78.3528 43.7295 78.3746 43.6203 78.3746 43.533C78.3528 43.2056 78.2435 42.9437 78.0688 42.769ZM74.6824 32.6405V32.6187C74.6824 32.6187 74.6824 32.6187 74.6824 32.6405ZM74.1144 32.204C74.2455 32.2913 74.3984 32.3786 74.5077 32.4659C74.5732 32.5096 74.6169 32.5532 74.6606 32.5969L74.6824 32.6187C74.6169 32.9461 74.5077 33.2736 74.3984 33.5792L74.3766 33.6228C74.3547 33.6665 74.3984 33.732 74.4421 33.7538C74.5732 33.8629 74.6387 34.0157 74.6387 34.1904C74.6387 34.3213 74.5514 34.4305 74.4421 34.4523C74.2673 34.496 74.0926 34.496 73.9178 34.4741C73.7212 34.4523 73.5027 34.4087 73.3061 34.365C72.891 34.2559 72.4977 34.1249 72.1045 33.9721C71.7986 33.8411 71.4927 33.732 71.1869 33.5792L72.3011 31.4181C72.9347 31.6582 73.5464 31.8984 74.1144 32.204ZM68.1938 28.9733C69.5265 29.5845 70.881 30.1084 72.2574 30.5668L70.6407 33.3827L70.5096 33.3172L70.1819 33.1426C70.029 33.0553 69.8761 32.9898 69.7013 32.9898C69.2862 32.9898 68.9585 33.3172 68.9803 33.732C68.9803 33.9066 69.0459 34.1031 69.1769 34.234C69.2206 34.2777 69.2425 34.2995 69.2862 34.3213C69.308 34.3432 69.3299 34.3432 69.3299 34.3432L69.3736 34.365L69.5483 34.4523L70.0945 34.7361C69.8105 34.9325 69.5046 35.1508 69.1988 35.3473C68.8492 35.0199 68.4997 34.7143 68.1283 34.4087C67.7569 34.1031 67.3855 33.7975 66.9922 33.5137C66.599 33.2299 66.2276 32.9243 65.8125 32.6624C65.4192 32.3786 65.026 32.1166 64.6109 31.8547C64.9167 32.2258 65.2663 32.575 65.594 32.9243C65.8562 33.2081 66.1402 33.4919 66.4242 33.7538C65.3974 33.9066 64.3706 33.9939 63.3437 34.0157C62.9286 33.3827 62.0766 33.2299 61.4649 33.6447C61.3119 33.7538 61.1809 33.8848 61.0716 34.0376C60.6784 34.0376 60.2851 34.0157 59.8919 33.9939C59.5423 33.9721 59.2146 33.9503 58.8651 33.9284C59.3239 33.5355 59.7608 33.1208 60.154 32.6842C60.4162 32.3786 60.6784 32.0948 60.9405 31.7674C61.1809 31.4618 61.4212 31.1344 61.6615 30.8069C62.1203 30.1739 62.5791 29.519 62.9942 28.8424C63.3656 28.253 63.7151 27.6199 64.0428 27.0087H64.0647C65.4192 27.6854 66.7956 28.3403 68.1938 28.9733ZM66.7737 36.7443C66.7519 36.7443 65.2444 37.5083 64.5016 37.8576C64.2613 37.5083 64.0428 37.1591 63.8462 36.7661C63.6496 36.3732 63.4748 35.9585 63.3 35.5437C64.742 35.4346 66.162 35.1945 67.5602 34.8671C67.5821 34.8889 68.2594 35.4783 68.5652 35.7184C68.019 36.0458 67.4729 36.3514 66.9048 36.657C66.6427 36.3732 66.3805 36.0895 66.1402 35.8057C66.3587 36.1331 66.5553 36.4605 66.7737 36.7443ZM60.875 35.129C60.6128 35.129 60.3507 35.129 60.0885 35.129C59.3457 35.129 58.6247 35.1072 57.8819 35.0853C57.8819 34.8889 57.8819 34.6924 57.8601 34.496C58.5155 34.5396 59.1928 34.5615 59.8482 34.5833C60.1759 34.5833 60.5036 34.5833 60.8532 34.5833C60.8313 34.6488 60.8313 34.7143 60.8313 34.7797C60.8313 34.8889 60.8532 35.0199 60.875 35.129ZM57.9038 36.3514C57.9038 36.1331 57.9038 35.9148 57.9038 35.7184C58.3844 35.7402 58.8651 35.7402 59.3457 35.7402V35.9803V36.4606C59.3675 36.7662 59.3675 37.0936 59.3894 37.3992C59.4112 37.7048 59.4331 38.0322 59.4768 38.3378C59.5205 38.6434 59.5642 38.9708 59.6297 39.2764C59.6953 38.9708 59.7389 38.6434 59.7826 38.3378C59.8263 38.0322 59.8482 37.7048 59.87 37.3992C59.8919 37.0936 59.9137 36.7662 59.9137 36.4606L59.9356 35.9803V35.7402C59.9793 35.7402 60.8095 35.7184 61.159 35.6965C61.2027 35.7402 61.2464 35.7839 61.2901 35.8275C61.2901 35.8275 61.2901 35.8275 61.2901 35.8493C61.3338 36.4169 61.3775 36.9844 61.4649 37.552C61.5304 38.054 61.6178 38.5343 61.7489 39.0145C60.4817 39.4947 59.1709 39.8876 57.8601 40.2369C57.8601 39.975 57.8819 39.7348 57.8819 39.4729C57.9038 38.4251 57.9038 37.3992 57.9038 36.3514ZM61.5523 35.1072C61.4649 34.9325 61.443 34.7361 61.5086 34.5615C61.6178 34.1904 62.0329 33.9721 62.4043 34.1031C62.6009 34.1685 62.7757 34.3213 62.8412 34.5178C62.8849 34.6051 62.8849 34.6924 62.8849 34.7797C62.8849 34.8671 62.8631 34.9544 62.8412 35.0417C62.8194 35.1072 62.7757 35.1727 62.732 35.2163C62.7102 35.26 62.6883 35.2818 62.6446 35.3036C62.5135 35.4128 62.3388 35.4783 62.164 35.4783C61.9237 35.5001 61.6833 35.3473 61.5523 35.1072ZM62.1858 36.1331L62.9942 38.5124C62.9068 38.5561 62.8412 38.5779 62.7539 38.6216C62.5791 38.6871 62.3825 38.7526 62.2077 38.8399C62.1203 38.4033 62.0548 37.9449 62.0329 37.4865C61.9892 37.0281 61.9892 36.5697 61.9674 36.1331C62.0329 36.1331 62.0984 36.1331 62.1858 36.1331ZM62.7757 36.0021C62.7976 36.0021 62.8194 35.9803 62.8412 35.9803C63.0379 36.3296 63.2345 36.6788 63.453 37.0281C63.6714 37.3773 63.9118 37.7048 64.1739 38.0322C63.8899 38.1632 63.6059 38.2723 63.3 38.4033L62.7757 36.0021ZM63.5185 34.4741C64.589 34.4087 65.6595 34.2777 66.7301 34.0812C66.883 34.234 67.0359 34.365 67.1888 34.496C65.9873 34.7361 64.7638 34.9107 63.5404 34.998C63.5622 34.8234 63.5622 34.6488 63.5185 34.4741ZM61.4649 29.8901C61.2683 29.6937 61.0935 29.4972 60.9187 29.3008C60.6565 29.017 60.4162 28.7114 60.1759 28.4058C59.8482 28.0129 59.5423 27.6199 59.2583 27.2052C60.2196 27.2925 61.159 27.3143 62.1203 27.2489C62.4917 27.227 62.8413 27.1834 63.2127 27.1397C62.6446 28.0783 62.0548 28.9951 61.4649 29.8901ZM61.2683 6.29335C61.5741 6.09689 61.9237 5.98775 62.2951 5.96592H62.4262H62.5791C62.6665 5.96592 62.7539 5.98775 62.8412 5.98775C63.016 6.00958 63.169 6.07506 63.3219 6.16238C63.453 6.24969 63.5622 6.38066 63.6277 6.51164C63.6496 6.55529 63.6714 6.59895 63.6714 6.66444C63.1253 6.57712 62.5791 6.53346 62.0329 6.55529C61.6397 6.55529 61.2682 6.57712 60.875 6.62078C60.9842 6.51164 61.1153 6.38066 61.2683 6.29335ZM56.2434 25.8955C55.7846 25.7645 55.3258 25.5681 54.9107 25.3498C54.6922 25.2406 54.4956 25.1315 54.299 25.0005C54.2116 24.935 54.1242 24.8695 54.0587 24.804C54.0368 24.7822 53.9931 24.7386 53.9931 24.7386L53.9713 24.7167L53.9494 24.6731L53.9276 24.5858C53.6436 23.6253 53.3159 22.6867 52.9008 21.7699C52.9226 22.3374 52.9882 22.8831 53.0755 23.4288C52.7697 23.407 52.4857 23.276 52.2453 23.1014C51.9395 22.8395 51.6773 22.5339 51.5025 22.1628C51.1311 21.4424 50.9127 20.6784 50.8471 19.8708C50.9345 19.8053 51.0219 19.7835 51.1311 19.7616C51.2185 19.7616 51.2841 19.7616 51.3715 19.7616C51.3933 19.7616 51.4152 19.7616 51.4152 19.7616C51.437 19.7616 51.4588 19.7616 51.4807 19.7835C51.5244 19.7835 51.5462 19.8053 51.5899 19.8053C51.7647 19.8708 51.9176 19.9363 52.0706 20.0236C52.2454 20.1327 52.442 20.2419 52.6605 20.351C52.6386 19.8053 52.289 19.3469 51.7647 19.1723C51.6992 19.1504 51.6118 19.1286 51.5462 19.1286C51.5244 19.1286 51.4807 19.1286 51.4589 19.1286C51.4152 19.1286 51.3715 19.1286 51.3496 19.1286C51.1967 19.1504 51.0656 19.1941 50.9345 19.2814C50.8908 19.3032 50.869 19.3251 50.8253 19.3687C50.8034 18.9976 50.8253 18.6484 50.8908 18.2773C50.9127 18.0153 51.1093 17.7971 51.3715 17.7316C51.6555 17.7097 51.9395 17.7971 52.1798 17.9717C52.4638 18.19 52.8789 18.9103 52.8789 18.9103C52.9008 18.954 52.9445 18.9758 52.9882 19.0195C53.01 19.2814 53.0537 19.5433 53.1192 19.7835C53.294 20.3947 53.5343 21.0059 53.862 21.5516C54.015 21.8354 54.1679 22.0973 54.3427 22.3592C54.5175 22.5994 54.6485 22.8613 54.7796 23.1232C54.9763 23.669 54.8889 24.2802 54.5612 24.7604C54.5393 24.7822 54.5393 24.804 54.5393 24.8259C54.5393 24.8259 54.5393 24.8259 54.5393 24.8477C54.5393 24.8914 54.583 24.935 54.6485 24.9132H54.6704C54.9544 24.8695 55.2384 24.7386 55.4569 24.5639C55.6972 24.3675 55.8938 24.1055 55.9812 23.8218C56.1123 23.2542 56.1123 22.643 55.9375 22.0973C55.8064 21.5516 55.6317 21.0277 55.5006 20.5256C55.435 20.2855 55.3695 20.0236 55.3258 19.7835C55.2821 19.5433 55.2821 19.3032 55.304 19.0631C55.3695 18.5611 55.5224 18.0808 55.7409 17.6443C55.7846 17.5351 55.8501 17.4478 55.8938 17.3386L55.9594 17.3605L56.2871 17.426C56.5056 17.4696 56.724 17.5351 56.9425 17.5788C57.3794 17.6879 57.8164 17.7752 58.2315 17.9062C58.6466 18.0372 59.0835 18.1463 59.5205 18.2991C59.9356 18.4519 60.3507 18.5611 60.7876 18.7139C60.4381 18.4301 60.0667 18.19 59.6953 17.9717C59.302 17.7316 58.8869 17.5133 58.4937 17.3168C58.1004 17.1204 57.6635 16.9239 57.2265 16.7493C57.008 16.662 56.7896 16.5965 56.5711 16.5092L56.4619 16.4655C56.5056 16.4218 56.5274 16.3564 56.5711 16.3127C56.724 16.0944 56.877 15.898 57.0299 15.5924C57.161 15.3304 57.2702 15.0685 57.3576 14.7847C57.5105 14.3263 57.6198 13.8461 57.7072 13.3658C58.2752 13.2349 58.8651 13.1475 59.4331 13.0821C60.0885 13.0166 60.7439 12.9947 61.3993 12.9729C62.7102 12.9729 64.021 13.1039 65.31 13.344C65.3755 13.3658 65.4192 13.344 65.4848 13.3222C66.162 13.0821 66.8611 12.8638 67.5821 12.6891C68.2157 12.5145 68.8711 12.4272 69.5483 12.3617C69.6576 12.5145 69.745 12.6673 69.8324 12.8201C69.9416 13.0384 70.0508 13.2567 70.1382 13.475C70.313 13.9334 70.4659 14.3918 70.5533 14.872C70.7499 15.8325 70.8373 16.8148 70.7936 17.7971C70.7718 17.9717 70.9029 18.1245 71.0776 18.1245C71.1432 18.1245 71.2306 18.1027 71.2743 18.059C71.2961 18.0372 71.318 18.0372 71.3398 18.0153C71.3617 17.9935 71.3835 17.9717 71.3835 17.9499C71.3835 17.9499 71.3835 17.9499 71.3835 17.928V17.9062C71.4491 17.7316 71.5364 17.5788 71.6457 17.4478C71.7549 17.295 71.886 17.1422 72.0389 17.0112C72.2792 16.8148 72.5851 16.7274 72.891 16.7493C73.175 16.7929 73.3061 17.0767 73.3498 17.3386C73.3716 17.4696 73.3935 17.6224 73.4153 17.7534C73.4372 17.8625 73.4371 17.9717 73.4371 18.0808C73.4371 18.1463 73.4371 18.19 73.4371 18.2555C73.4371 18.2773 73.4153 18.4083 73.4371 18.4083C73.3934 18.3646 73.3716 18.3428 73.3279 18.2991C73.1968 18.2118 73.0657 18.1681 72.9128 18.1463C72.8691 18.1463 72.8254 18.1463 72.8036 18.1463C72.7817 18.1463 72.738 18.1463 72.7162 18.1463C72.6288 18.1463 72.5633 18.1681 72.4977 18.19C71.9952 18.3646 71.6238 18.823 71.602 19.3687C71.8423 19.2596 72.0171 19.1286 72.1919 19.0413C72.3448 18.954 72.4977 18.8667 72.6725 18.823C72.7162 18.823 72.7599 18.8012 72.7817 18.8012C72.8036 18.8012 72.8254 18.8012 72.8473 18.7793H72.891C72.9784 18.7793 73.0439 18.7793 73.1313 18.7793C73.2405 18.8012 73.3498 18.823 73.4371 18.8885C73.3498 19.6743 73.1313 20.4601 72.7599 21.1587C72.5851 21.5079 72.3229 21.8135 71.9952 22.0755C71.7112 22.2938 71.3398 22.4029 70.9903 22.3811C70.9903 21.9008 70.9466 21.4206 70.8373 20.9404C70.6844 21.4206 70.5533 21.9227 70.4659 22.4247C70.4222 22.6648 70.3785 22.9268 70.3348 23.1669L70.2693 23.5162C70.2693 23.5816 70.2475 23.6253 70.2256 23.6908V23.7126C70.2256 23.7126 70.2038 23.7344 70.2038 23.7563C70.0727 23.9091 69.9197 24.0619 69.745 24.1928C69.5483 24.3238 69.3517 24.4548 69.1551 24.5858C68.74 24.8259 68.3031 25.0223 67.8443 25.2188C66.0091 25.9173 64.0865 26.3539 62.1203 26.4849C60.0885 26.6377 58.1223 26.4412 56.2434 25.8955ZM55.2166 37.1809C54.9763 37.29 54.6922 37.2682 54.4738 37.1154C54.2553 36.8971 54.0805 36.6352 53.9713 36.3296C53.9057 36.1549 53.8402 35.9803 53.7965 35.8057C54.015 35.9367 54.2116 36.0458 54.4301 36.1768C54.8452 36.3951 55.2603 36.5915 55.6972 36.788C55.588 36.9626 55.4132 37.0936 55.2166 37.1809ZM57.1173 36.3514C57.1173 36.4169 57.1173 36.4824 57.1173 36.5479C56.2871 36.3296 55.4787 36.0458 54.7141 35.6529C54.2553 35.4346 53.7965 35.1727 53.3596 34.9107C52.9882 34.6924 52.5949 34.4523 52.2453 34.1904L57.6853 26.9651C57.9038 27.0087 58.1441 27.0524 58.3626 27.0961C58.8214 27.6636 59.302 28.1875 59.7826 28.7332C60.2414 29.2353 60.7439 29.7155 61.2901 30.1302C61.2246 30.2394 61.159 30.3267 61.0935 30.4358C60.875 30.7633 60.6565 31.0689 60.4162 31.3963C60.1977 31.7019 59.9574 32.0293 59.7171 32.3349C59.302 32.8806 58.8651 33.4045 58.4063 33.9066C58.2096 33.8848 58.0349 33.8848 57.8382 33.8629C57.8382 33.6665 57.8382 33.47 57.8164 33.2736C57.7945 32.2258 57.6853 31.1998 57.4887 30.1739C57.2921 31.1998 57.1828 32.2258 57.161 33.2736C57.1391 34.2995 57.1173 35.3255 57.1173 36.3514ZM57.1391 41.3065C56.5493 41.2629 55.9594 41.2192 55.3695 41.1537C55.9594 41.0664 56.5274 40.9573 57.1173 40.8263C57.3794 40.7826 57.6198 40.7171 57.8819 40.6735C58.1659 40.608 58.45 40.5425 58.7121 40.477C60.154 40.1059 61.5523 39.6912 62.9505 39.1673C64.3487 38.6652 65.7032 38.0759 67.0141 37.3992C67.0578 37.3773 67.1233 37.3337 67.167 37.3119C67.2325 37.2682 67.3199 37.2246 67.3855 37.2027C68.5434 36.5915 69.6576 35.9148 70.7062 35.129L70.8373 35.1945C70.9466 35.26 71.0558 35.3255 71.165 35.3691C70.5533 35.9585 69.8979 36.526 69.1988 37.0281C68.8274 37.3119 68.4341 37.5738 68.0409 37.8358C67.9535 37.9012 67.8661 37.9449 67.8006 38.0104C67.4292 38.2505 67.0578 38.4906 66.6864 38.7089C64.9604 39.7348 63.1908 40.6735 61.3338 41.503C60.1759 41.4811 59.0398 41.4375 57.8819 41.372C57.6198 41.3283 57.3794 41.3065 57.1391 41.3065ZM61.0061 43.0528C60.9624 43.1401 60.875 43.2274 60.7658 43.2711C60.6565 43.3366 60.5254 43.3584 60.3944 43.3584C60.2414 43.3584 56.3526 43.4021 56.3308 43.4021C56.3963 43.2929 56.4837 43.2056 56.5711 43.1401C56.6803 43.0528 56.8333 42.9873 56.9643 42.9437C57.1173 42.8782 57.2921 42.8563 57.4668 42.8345H61.0498C61.0716 42.9437 61.0498 43.0091 61.0061 43.0528ZM72.8036 42.2015C72.3229 42.2451 71.8423 42.2451 71.3617 42.2233C70.6407 41.9832 69.9198 41.7867 69.1551 41.6776C68.3904 41.5466 67.6039 41.503 66.8393 41.503C66.0746 41.503 65.2881 41.5685 64.5235 41.6994C64.1302 41.7649 63.7588 41.8304 63.3874 41.9177C63.0379 42.005 62.6665 42.0923 62.3169 42.2233H57.8164C57.8164 42.0705 57.8382 41.8959 57.8382 41.7431C58.9961 41.8522 60.1759 41.9395 61.3556 42.005C61.3993 42.005 61.4212 42.005 61.4649 41.9832C62.4043 41.5685 63.3219 41.1101 64.2395 40.6516C64.9167 40.3024 65.594 39.9313 66.2494 39.5602L66.3805 39.4729C66.5553 39.3638 66.7301 39.2764 66.9267 39.1673C67.3418 38.9272 67.735 38.6652 68.1501 38.4251C68.3031 38.5779 68.456 38.7307 68.6089 38.8835C69.5483 39.8003 70.5752 40.608 71.6894 41.2847C70.7281 40.4115 69.7668 39.5384 68.8274 38.6434C68.6963 38.5124 68.5434 38.3815 68.4123 38.2287C68.7837 37.9886 69.1551 37.7484 69.5046 37.4865C70.0508 37.0936 70.597 36.6788 71.0995 36.2423L76.7361 41.0227C75.9496 41.4157 75.0975 41.7431 74.2455 41.9832C73.7867 42.0923 73.3061 42.1578 72.8036 42.2015ZM77.6755 43.4239H77.0856C76.2991 43.4239 75.5345 43.4239 74.748 43.4021H74.1581C73.9833 43.4021 73.8304 43.3802 73.6556 43.3366C73.5245 43.2929 73.4153 43.2274 73.3498 43.1183C73.3061 43.0746 73.2842 43.0091 73.2624 42.9437C73.2405 42.8782 73.2405 42.8345 73.2405 42.769C73.6119 42.7035 74.0052 42.6381 74.3766 42.5507C74.5951 42.4853 74.8135 42.4198 75.032 42.3543C75.4034 42.5507 75.7966 42.6817 76.2117 42.7472C76.4302 42.769 76.6487 42.7472 76.8016 42.769C76.9764 42.769 77.1293 42.8127 77.3041 42.8782C77.457 42.9437 77.5881 43.031 77.7192 43.1401C77.8066 43.2274 77.8721 43.3366 77.9158 43.4675L77.6755 43.4239Z" fill="#010101"/>
<path d="M61.6181 22.2932C61.8584 22.4679 62.1643 22.5552 62.4701 22.5552C62.776 22.5552 63.06 22.446 63.3003 22.2714C63.5406 22.1186 63.7154 21.8785 63.781 21.5947C63.3659 21.7694 62.9071 21.8785 62.4483 21.9003C61.9895 21.9003 61.5526 21.7912 61.1593 21.5947C61.203 21.8785 61.3778 22.1404 61.6181 22.2932Z" fill="#010101"/>
<path d="M60.7226 23.7996C60.9629 23.8433 61.2032 23.9088 61.4217 23.9743C61.662 24.0398 62.2082 24.1926 62.23 24.1926C62.23 24.1926 63.6938 23.6687 63.9341 23.5814C63.9778 23.5595 64.0215 23.5595 64.087 23.5377C64.1307 23.5377 64.1744 23.5377 64.2181 23.5595C64.3492 23.6032 64.4803 23.6468 64.6114 23.6905L65.4197 24.0398C65.2231 23.7996 65.0265 23.5814 64.7862 23.3849C64.6551 23.2758 64.524 23.1884 64.3711 23.123C64.2837 23.0793 64.1744 23.0575 64.087 23.0356C63.9997 23.0356 63.8904 23.0356 63.803 23.0575C63.4972 23.123 63.2132 23.2321 62.9291 23.3631C62.6888 23.494 62.4485 23.625 62.2519 23.7996C62.0553 23.6687 61.8368 23.5595 61.6183 23.4722C61.3561 23.3631 61.0721 23.2976 60.7881 23.2758C60.6352 23.2758 60.4604 23.2976 60.3075 23.3412C60.1764 23.4067 60.0453 23.4722 59.9142 23.5595C59.6958 23.7342 59.4991 23.9306 59.368 24.1707C59.6302 24.0616 59.8705 23.9524 60.089 23.8651C60.2856 23.7996 60.5041 23.7778 60.7226 23.7996Z" fill="#010101"/>
<path d="M58.5808 18.8448C58.2312 18.8011 57.8817 18.7793 57.5103 18.7793C57.1607 18.7793 56.7893 18.8011 56.4398 18.8448C56.0684 18.8884 55.7188 18.9758 55.3693 19.1067C55.7188 19.2377 56.0684 19.325 56.4398 19.3687C56.7893 19.4123 57.1389 19.4342 57.5103 19.4342C57.8598 19.4342 58.2312 19.4123 58.5808 19.3687C58.9522 19.325 59.3018 19.2377 59.6513 19.1067C59.3018 18.9758 58.9304 18.8884 58.5808 18.8448Z" fill="#010101"/>
<path d="M67.3205 18.7793C66.9272 18.7793 66.5121 18.8011 66.1189 18.8448C65.7038 18.8884 65.3105 18.9758 64.9173 19.1067C65.3105 19.2377 65.7038 19.325 66.1189 19.3687C66.5121 19.4123 66.9054 19.4342 67.3205 19.4342C67.7137 19.4342 68.1288 19.4123 68.5221 19.3687C68.9372 19.325 69.3304 19.2377 69.7237 19.1067C69.3304 18.9758 68.9372 18.8884 68.5221 18.8448C68.1288 18.8011 67.7356 18.7793 67.3205 18.7793Z" fill="#010101"/>
<path d="M66.0315 16.1599C66.8398 15.505 67.7574 15.003 68.7624 14.6756C68.8061 14.6537 68.8498 14.6537 68.8935 14.6319C68.8935 14.6319 68.7187 13.9989 67.7574 14.1953C68.0414 13.9552 68.1944 13.606 68.1944 13.2349H68.1725C67.6263 13.4968 67.102 13.8461 66.6214 14.239C66.1626 14.6319 65.7475 15.0466 65.3761 15.505C65.0047 15.9634 64.677 16.4218 64.3711 16.9239C64.0652 17.4041 63.8249 17.928 63.6501 18.4737C64.393 17.6443 65.1795 16.8584 66.0315 16.1599Z" fill="#010101"/>
<path d="M60.9853 18.7144C61.1164 18.5834 61.2256 18.4088 61.2911 18.2123C61.3567 18.0159 61.3785 17.8194 61.3567 17.623C61.3348 17.4265 61.2911 17.2301 61.2256 17.0554C61.1601 16.8808 61.029 16.7062 60.8979 16.5752C60.9634 16.9681 61.029 17.2955 61.0508 17.6448C61.0508 18.0159 61.029 18.3651 60.9853 18.7144Z" fill="#010101"/>
<path d="M62.8195 18.2118C62.9506 18.3428 63.1036 18.4519 63.3002 18.4956C63.1036 18.2336 62.9506 17.928 62.8414 17.6224C62.754 17.295 62.6666 16.9676 62.6448 16.6401C62.5574 16.7929 62.4918 16.9894 62.47 17.164C62.4481 17.3605 62.47 17.5351 62.5355 17.7316C62.6011 17.9062 62.6885 18.0808 62.8195 18.2118Z" fill="#010101"/>
<path d="M73.6555 35.7401C73.6555 35.7401 73.6774 35.74 73.6774 35.7619L73.6992 35.7837C73.7429 35.8274 73.7647 35.871 73.7647 35.9147C73.7647 36.0238 73.6774 36.133 73.5463 36.133H73.5681C73.5244 36.133 73.5026 36.133 73.4589 36.1111C73.437 36.1111 73.3715 36.0675 73.3278 36.0457L73.0001 35.871L72.3447 35.5218C72.2354 35.4563 72.1262 35.4126 72.017 35.3471C71.8422 35.2598 71.6456 35.1507 71.4708 35.0415C71.3179 34.9542 71.1868 34.8887 71.0338 34.8014L70.9464 34.7578L70.4658 34.474L69.7449 34.0592C69.6356 33.9938 69.5045 33.9283 69.5045 33.8846C69.4608 33.841 69.439 33.7755 69.4608 33.71C69.4608 33.579 69.5701 33.4917 69.7012 33.4917C69.7667 33.4917 69.7886 33.5135 69.9196 33.579L70.2473 33.7755L70.3784 33.841L70.5751 33.9501L70.9028 34.1247C70.9028 34.1247 70.9246 34.1247 70.9246 34.1466C71.3397 34.3867 71.7766 34.6268 72.1917 34.8669C72.6287 35.107 73.0656 35.3471 73.5026 35.5654L73.6774 35.6527L73.6555 35.7401C73.6337 35.7182 73.6555 35.7401 73.6555 35.7401Z" fill="#FECB3D"/>
<path d="M74.9235 29.4966L75.4259 29.824L74.268 31.6358C74.0933 31.5266 73.9185 31.4175 73.7219 31.3302L74.9235 29.4966Z" fill="#FECB3D"/>
</svg>
