<svg width="79" height="44" viewBox="0 0 79 44" fill="none" xmlns="http://www.w3.org/2000/svg">
<path d="M59.1058 22.5781C58.9747 22.5126 58.8436 22.4471 58.6907 22.4253C57.7731 22.2289 56.8992 22.3598 56.0035 22.4471C55.3699 22.5126 54.2557 22.5345 54.3212 21.6395C54.4741 19.784 56.8773 19.7622 58.0789 18.9764C58.2319 18.8891 58.3411 18.7144 58.363 18.5398C58.363 18.4307 58.3411 18.3215 58.2974 18.2124C57.1177 15.1564 54.1683 13.1918 51.2189 12.0785C48.9687 11.2272 46.9369 10.8998 44.5555 11.4237C44.0093 11.5546 43.4632 11.7074 42.917 11.9039C42.48 12.0567 41.9994 12.2532 41.5188 12.4496C40.6886 12.8644 39.1811 13.5629 38.7005 12.3841C37.8266 10.2231 36.5594 7.95291 34.9209 6.22845C33.8941 5.15884 32.3866 4.65679 30.9447 4.94056C29.2843 5.28982 28.4323 6.59954 27.4055 7.82194C26.8811 8.43314 25.1552 10.3104 24.4779 8.80423C24.2158 8.23669 24.3905 7.60365 24.2595 7.01428C23.8881 5.31164 22.2058 4.83141 20.6765 4.85324C19.322 4.87507 17.9675 5.11519 16.6785 5.57359C15.3895 6.03199 14.2097 6.77417 12.8552 7.10159C10.9764 7.56 9.09749 5.70456 7.0657 6.49039C6.60691 6.64319 6.19181 6.86148 5.79856 7.16708C5.05576 7.7128 4.53142 8.52046 4.3348 9.43726C4.31295 9.50275 4.31295 9.5464 4.2911 9.61189C3.87601 12.406 3.02396 14.9599 2.21562 17.4484C1.27619 20.2643 0.31491 23.1893 0.0308964 26.3763C0.00904915 26.6601 -0.0127977 26.9438 0.00904948 27.2276C0.00904948 27.2276 0.00904948 27.2494 0.00904948 27.2713C0.118286 29.6288 1.73498 31.6152 4.02894 32.1827C4.66251 32.7939 5.58009 33.427 6.82538 33.427C6.86907 33.427 6.93462 33.427 6.97831 33.427C7.87405 33.3615 8.72609 32.9904 9.3815 32.3573C10.1025 31.5279 10.8016 30.6765 11.4788 29.8252C12.7678 31.4187 15.0618 32.2482 17.0062 31.9644C17.1373 31.9644 17.2683 31.9644 17.3994 31.9644C19.4312 32.1391 21.2882 30.9821 23.1671 30.9821C25.0897 31.1568 27.0341 31.2004 28.8692 30.9167C29.4809 30.8293 30.0708 30.6984 30.6607 30.5237C30.901 31.0476 31.3598 31.4405 31.906 31.6152C32.4959 31.768 33.1076 31.8116 33.7193 31.7243C35.0957 31.4624 36.7342 30.7639 37.6736 31.2223C39.05 31.8989 40.6012 32.0081 42.2179 31.8771C42.7422 31.8335 43.2884 31.7461 43.8346 31.6588C47.7671 31.004 51.9836 30.3055 55.0203 27.4896C55.0203 29.0831 51.3718 29.6724 52.4642 31.4624C52.5734 31.6588 55.8287 30.24 56.1564 30.0872C57.1614 29.6506 58.5377 29.1704 59.1058 28.1662C59.1713 28.0571 59.215 27.9261 59.2368 27.7733C59.2805 27.184 58.494 26.8347 58.2319 26.3545C57.9042 25.8088 57.9479 25.1102 58.363 24.63C58.6251 24.3244 58.9091 24.0625 59.2368 23.8442C59.6738 23.5386 59.7175 22.9492 59.1058 22.5781Z" fill="#E22741"/>
<path d="M21.3542 10.4847C21.6601 10.2227 21.7912 10.0044 21.7693 9.67701C21.7038 8.30181 19.7812 7.27586 18.5578 7.34135C18.0116 7.36317 17.4436 7.55963 17.2033 8.08352C14.8219 11.5761 9.60042 21.0279 7.13169 24.3895C7.02245 24.4987 6.89137 24.5423 6.73844 24.5642C6.6292 24.5642 6.56366 24.5205 6.56366 24.3895C6.56366 24.324 6.56366 24.2804 6.5855 24.2149C7.28462 22.163 9.53488 14.5885 11.5885 11.6416C11.7851 11.4451 11.8944 11.1832 11.8944 10.9212C11.8288 9.76433 9.75335 9.02215 8.70468 9.06581C8.09296 9.08764 7.21907 9.34958 7.06614 10.0918C6.10487 16.3784 3.30842 21.2025 2.80594 26.7252C2.78409 26.878 2.78409 27.0308 2.80594 27.1836C2.89333 28.7553 4.11677 29.5847 5.44945 29.6284C5.99563 30.3051 6.41073 30.698 6.82582 30.6762C7.19723 30.6544 7.56863 30.3269 8.04927 29.5411C10.2995 25.7866 14.6034 16.7495 21.3542 10.4847Z" fill="white"/>
<path d="M51.589 17.2947C51.5016 17.2947 51.4579 17.3602 51.3705 17.4693C50.8899 18.1678 48.2901 21.5731 47.5254 22.4899C46.4549 23.7778 45.013 25.3494 44.729 25.5896C44.5542 25.8078 44.3357 25.9388 44.0736 26.0043C43.8988 26.0043 43.7459 25.8733 43.7459 25.5677C43.6585 23.7778 46.4112 20.3507 47.307 19.1064C47.5036 18.8445 47.6128 18.5389 47.6347 18.2333C47.591 17.2074 45.5155 17.1637 44.6853 16.6398C44.7508 16.6398 45.1441 15.6357 45.1004 14.8499C45.0785 14.3041 44.8164 13.8239 44.0954 13.8676C41.6704 13.9985 39.7478 15.7012 39.8134 17.0982C39.8571 17.8622 40.4251 18.5389 41.7796 18.8663C41.7359 18.9318 41.6704 18.9973 41.6048 19.0846C41.1897 19.5867 40.6873 20.1542 40.294 20.6345C39.442 21.6822 38.5025 22.1188 37.716 22.1625H37.6505C38.721 20.2415 39.442 18.5171 39.4201 18.015C39.3764 17.12 38.3059 16.0286 36.864 16.0941C36.0993 15.7012 35.6405 14.8717 34.9851 14.9153C33.3247 14.9808 30.5938 19.2811 29.5452 23.0793C29.4796 23.1666 29.3922 23.2539 29.3485 23.3194C28.5402 24.4326 27.5789 25.4586 26.5303 26.3536C26.4647 26.3972 26.3992 26.4409 26.3336 26.4409C26.1589 26.4409 26.0715 26.2662 26.0496 26.0261C25.9622 24.4763 30.5283 15.4174 33.434 11.8157C34.1986 10.8552 34.4826 10.0912 34.4608 9.50184C34.3953 7.99566 32.429 7.4936 31.4677 7.53726C30.6594 7.58092 30.4191 7.69006 30.4409 7.86469C30.4409 8.06115 30.7468 8.34492 30.7686 8.67235C30.7686 8.78149 30.7468 8.91247 30.6812 8.99978C28.5402 12.8635 24.2581 21.2238 23.5809 24.8037C23.559 24.8037 23.5372 24.7819 23.5372 24.7819C23.275 25.0875 22.1827 26.1789 21.5928 26.2008C21.2432 26.2226 20.9592 25.9606 20.9374 25.6114C20.8937 24.5854 22.7725 21.4639 23.3624 20.6563C23.4716 20.5253 23.5372 20.3507 23.559 20.1979C23.5372 19.6303 22.4885 19.1064 21.2651 19.1719C20.9592 19.1719 20.6315 19.2374 20.3475 19.3247C19.9542 21.8569 17.2015 27.314 15.5193 27.4013C15.3226 27.4013 15.2353 27.2049 15.2134 26.8556C15.126 24.9347 17.3326 18.9318 21.4617 18.7354C21.9205 18.7135 22.3793 18.779 22.8381 18.8882C22.9473 18.91 23.0566 18.9318 23.1439 18.9318C23.6246 18.91 24.0397 18.0587 23.996 17.1637C23.9523 16.1814 23.3624 15.1991 21.7239 15.2646C16.7864 15.4829 12.985 23.2975 13.1816 27.3577C13.2472 28.6237 14.4488 29.3223 15.694 29.2786C16.4587 29.2349 17.7258 28.34 18.8619 26.9648C18.993 28.0125 19.5828 28.4928 20.4349 28.4709C21.3525 28.4273 22.5541 27.7069 23.6027 26.2881C23.8867 27.4886 24.9136 28.973 25.9841 28.9293C26.2899 28.9075 26.574 28.7765 26.7924 28.5583C27.4915 27.9471 28.3873 26.812 29.1738 25.786C29.1738 25.9388 29.1738 26.0916 29.1738 26.2226C29.2612 27.8379 30.0258 28.9293 31.8173 28.842C33.2374 28.7765 35.1599 26.419 36.7329 23.9088C36.9295 23.9524 37.148 23.9524 37.3665 23.9306C38.6773 23.8651 40.1848 23.1011 41.2771 21.4858C41.8233 20.6781 42.3695 19.8268 42.8064 19.1064C43.0468 19.1501 43.3089 19.1501 43.5711 19.1719C42.5661 21.3111 41.0805 25.022 41.1897 27.1612C41.2334 28.1653 41.6485 28.7984 42.6098 28.7547C44.4013 28.6674 47.1759 25.3276 48.3556 23.5813C49.8631 21.4203 51.4142 19.0846 52.1133 17.884C52.0478 17.7749 51.8512 17.2728 51.589 17.2947ZM34.6356 21.6604C34.6574 22.0097 34.7448 22.3589 34.9196 22.6863C33.9583 24.7819 32.2105 27.2485 31.4459 27.2922C31.2711 27.2922 31.1619 27.2049 31.14 26.9648C30.9871 23.8651 33.7835 19.7613 34.9851 19.6958H35.0725C34.7667 20.2852 34.6137 20.9837 34.6356 21.6604Z" fill="white"/>
<path d="M6.82628 36.898H5.42806V36.5924C5.42806 36.3086 5.36251 36.003 5.20958 35.7629C5.03481 35.5228 4.75079 35.3918 4.44493 35.4136C4.292 35.4136 4.11722 35.4355 3.98614 35.5228C3.8769 35.5883 3.76767 35.6756 3.70213 35.8066C3.63658 35.9375 3.57104 36.0685 3.5492 36.2213C3.52735 36.3741 3.5055 36.5269 3.5055 36.7015C3.5055 36.8543 3.5055 37.029 3.52735 37.1818C3.5492 37.2909 3.57104 37.4219 3.63658 37.531C3.70213 37.6402 3.76767 37.7275 3.8769 37.793C4.00799 37.8803 4.16092 37.9458 4.31385 38.0112L5.38436 38.426C5.64653 38.5133 5.90869 38.6661 6.14901 38.8407C6.34564 38.9935 6.49857 39.19 6.60781 39.3865C6.71704 39.6266 6.78258 39.8667 6.80443 40.1286C6.84812 40.4342 6.86997 40.7617 6.84812 41.0891C6.84812 41.482 6.80443 41.8531 6.71704 42.2242C6.6515 42.5516 6.52042 42.8572 6.32379 43.1192C6.12717 43.3811 5.865 43.5776 5.55914 43.7304C5.20958 43.8832 4.81633 43.9705 4.42308 43.9486C4.09538 43.9486 3.76767 43.8832 3.48365 43.774C3.19964 43.6649 2.93747 43.4902 2.719 43.272C2.50053 43.0537 2.3476 42.8135 2.21652 42.5298C2.08543 42.246 2.01989 41.9404 2.04174 41.613V41.0891H3.43996V41.5257C3.43996 41.7658 3.5055 42.0277 3.65843 42.2242C3.85506 42.4425 4.13907 42.5516 4.42308 42.5298C4.61971 42.5298 4.79449 42.5079 4.96926 42.4206C5.10035 42.3551 5.20958 42.246 5.27513 42.1369C5.36251 42.0059 5.40621 41.8313 5.40621 41.6785C5.42806 41.5038 5.42806 41.3074 5.42806 41.0891C5.42806 40.8708 5.42806 40.6743 5.40621 40.4561C5.40621 40.3251 5.36251 40.1723 5.29697 40.0631C5.23143 39.954 5.14404 39.8885 5.03481 39.823C4.90372 39.7357 4.75079 39.6702 4.61971 39.6266L3.61474 39.2118C3.00302 38.9717 2.60977 38.6443 2.39129 38.2295C2.17282 37.7493 2.06359 37.2254 2.08543 36.7015C2.08543 36.3523 2.12913 36.003 2.23836 35.6538C2.32575 35.3481 2.47868 35.0644 2.69715 34.8024C2.89378 34.5623 3.15595 34.3659 3.43996 34.2349C3.76767 34.0821 4.13907 34.0166 4.51047 34.0166C4.83818 34.0166 5.16589 34.0821 5.47175 34.2131C5.75576 34.344 5.99608 34.4968 6.21456 34.7151C6.60781 35.108 6.84812 35.6538 6.84812 36.2213L6.82628 36.898Z" fill="black"/>
<path d="M7.78632 36.3952C7.78632 36.0459 7.85186 35.6749 7.98295 35.3474C8.11403 35.0636 8.28881 34.8017 8.52913 34.5834C8.7476 34.387 9.00977 34.2342 9.27193 34.1468C10.1021 33.8412 11.0416 34.0159 11.7188 34.5834C11.9373 34.8017 12.1339 35.0418 12.2432 35.3474C12.3961 35.6749 12.4616 36.0241 12.4398 36.3952V41.5468C12.4398 41.9178 12.3742 42.2671 12.2432 42.5945C12.1121 42.8783 11.9373 43.1184 11.7188 43.3149C11.5003 43.5113 11.2382 43.6641 10.9542 43.7733C10.408 43.9697 9.81811 43.9697 9.27193 43.7733C8.98792 43.6641 8.7476 43.5113 8.52913 43.3149C8.28881 43.1184 8.11403 42.8783 7.98295 42.5945C7.83002 42.2671 7.76448 41.896 7.78632 41.5468V36.3952ZM9.18454 41.5468C9.1627 41.8305 9.27193 42.0925 9.46856 42.2889C9.86181 42.6164 10.408 42.6164 10.8012 42.2889C10.9979 42.0925 11.1071 41.8305 11.0853 41.5468V36.3952C11.1071 36.1114 10.9979 35.8495 10.8012 35.653C10.408 35.3256 9.86181 35.3256 9.46856 35.653C9.27193 35.8495 9.1627 36.1114 9.18454 36.3952V41.5468V41.5468Z" fill="black"/>
<path d="M13.7065 43.8394V34.082H17.8794V35.3918H15.1048V38.3604H17.508V39.6702H15.1048V43.8394H13.7065Z" fill="black"/>
<path d="M20.1743 43.8394V35.3918H18.5576V34.082H23.1892V35.3918H21.5725V43.8394H20.1743V43.8394Z" fill="black"/>
<path d="M31.5125 34.1035L30.0487 43.8609H28.7379L27.6674 37.5306H27.6455L26.5969 43.8609H25.286L23.8223 34.1035H25.3079L26.007 40.3029H26.0288L27.1212 34.1035H28.1917L29.3278 40.4557H29.3496L30.0269 34.1035H31.5125Z" fill="black"/>
<path d="M31.3584 43.8394L33.5431 34.082H34.701L36.8857 43.8394H35.4875L35.0724 41.7439H33.1717L32.7566 43.8394H31.3584V43.8394ZM34.8103 40.4342L34.133 36.8979H34.1111L33.4339 40.4342H34.8103Z" fill="black"/>
<path d="M38.0454 43.8394V34.082H40.2957C41.9342 34.082 42.7644 35.0425 42.7644 36.9416C42.7863 37.4436 42.677 37.9457 42.5022 38.4041C42.3056 38.8189 41.9779 39.1681 41.5628 39.3864L43.0703 43.8394H41.5847L40.2738 39.6702H39.4436V43.8394H38.0454V43.8394ZM39.4436 35.4136V38.4478H40.2301C40.4268 38.4478 40.6234 38.4259 40.82 38.3386C40.9511 38.2731 41.0822 38.164 41.1696 38.033C41.257 37.8802 41.3006 37.7274 41.3225 37.5528C41.3662 37.1162 41.3662 36.6796 41.3225 36.2431C41.3006 36.0684 41.2351 35.9156 41.1477 35.7628C40.9729 35.5009 40.6452 35.3699 40.1646 35.3699L39.4436 35.4136Z" fill="black"/>
<path d="M44.1182 43.8394V34.082H48.291V35.3918H45.5164V38.2513H47.9196V39.561H45.5164V42.4424H48.291V43.8394H44.1182Z" fill="black"/>
<path d="M64.261 5.31055H59.7168V7.88633H64.261V5.31055Z" fill="#FECB3D"/>
<path d="M71.2534 36.0888L69.0687 35.9142L67.6268 34.6699L60.9634 35.5212L57.7081 35.5431L57.6426 42.3973H62.3834C62.7111 42.2881 65.7042 41.6114 67.0369 41.6769C68.3696 41.7424 70.6198 42.1572 71.2752 42.3973C71.2752 42.3973 73.5474 42.3318 74.3775 42.1572C75.2077 41.9825 77.0429 41.0439 77.0429 41.0439L71.2534 36.0888Z" fill="#E22741"/>
<path d="M57.4876 42.6162C56.8759 42.6162 56.3078 42.9873 56.0894 43.5767C56.0894 43.5767 60.4588 43.5985 60.568 43.5985C60.8084 43.5548 61.0268 43.4239 61.1798 43.2492C61.2671 43.0528 61.3545 42.8345 61.3982 42.6162H57.4876Z" fill="#FFEFD1"/>
<path d="M77.8502 42.9656C77.7191 42.8346 77.5443 42.7255 77.3695 42.66C77.1947 42.5945 77.02 42.5508 76.8233 42.5508C76.7796 42.5508 76.736 42.5508 76.6704 42.5508H76.4956C76.4082 42.5508 76.299 42.5508 76.2116 42.529C75.8184 42.4853 75.447 42.3544 75.0974 42.1579L75.0319 42.1143L73.0656 42.5945C73.0438 42.8346 73.0875 43.0747 73.1749 43.293C73.3059 43.5549 73.9177 43.6423 74.1361 43.6423L78.0468 43.5986V43.424C78.0686 43.2493 77.9812 43.0965 77.8502 42.9656Z" fill="#FFEFD1"/>
<path d="M70.9473 33.7104L72.2144 31.2656C72.2144 31.2656 73.3723 31.4839 73.9185 31.7895C74.0933 31.8768 74.7924 32.3352 74.8579 32.5535C74.9235 32.7718 74.5958 33.5358 74.5739 33.6449C74.8579 33.8632 74.9672 34.2343 74.8361 34.5617C74.6394 34.9547 73.8311 34.8237 73.5034 34.78C73.1757 34.7364 70.9473 33.7104 70.9473 33.7104Z" fill="#FFEFD1"/>
<path d="M60.5698 26.6821C59.0842 26.6821 57.6204 26.4856 56.2003 26.049C55.7197 25.8962 55.2609 25.7216 54.824 25.5033C54.6055 25.3942 54.387 25.2632 54.1904 25.1322C54.103 25.0667 54.0156 24.9794 53.9282 24.9139C53.9282 24.9139 53.9282 24.914 53.9064 24.8921H53.8627L53.819 24.7611L53.9501 24.6957L53.819 24.7611L53.7753 24.6302L53.6879 24.3246C53.535 23.8443 53.3821 23.3641 53.2073 22.8839C53.2291 23.0367 53.251 23.2113 53.2728 23.3859L53.3165 23.6042L53.098 23.5824C52.7485 23.5606 52.4426 23.4296 52.1586 23.2113C51.8309 22.9494 51.5469 22.6001 51.3503 22.229C51.0007 21.5523 50.673 19.7624 50.6511 19.3913C50.6293 19.0857 50.6511 18.8019 50.6948 18.4963C50.7167 18.2999 50.7822 18.1034 50.8478 17.907C50.8915 17.7542 51.0226 17.6232 51.1973 17.5577C51.2847 17.5359 51.3721 17.5359 51.4595 17.5359C51.7435 17.5359 52.0494 17.645 52.2678 17.8196C52.5737 18.0816 52.814 18.409 52.9888 18.7801C53.098 18.9984 53.1636 19.2385 53.2073 19.4786C53.3384 19.2385 53.5568 18.8238 53.7753 18.4308C54.6273 16.7719 56.0474 13.9778 57.5767 13.1701L57.5986 13.1483H57.6204C58.1884 13.0173 58.7783 12.93 59.3682 12.8645C60.0236 12.799 60.679 12.7554 61.3563 12.7554H61.3781C62.689 12.7554 64.0216 12.8864 65.3106 13.1265H65.3325C65.3543 13.1265 65.3762 13.1265 65.3762 13.1265H65.398C66.0971 12.8864 66.7962 12.6681 67.4954 12.4934C68.1508 12.3188 68.8062 12.2097 69.4834 12.166H69.5708L69.6364 12.2315C69.7456 12.3843 69.833 12.5371 69.9422 12.7117C70.0515 12.93 70.1607 13.1483 70.2481 13.3884C70.4229 13.8468 70.5758 14.3271 70.685 14.8073C70.8817 15.7896 70.9691 16.7719 70.9472 17.776C70.9254 17.8633 70.9909 17.9288 71.0783 17.9506C71.1438 17.9506 71.2094 17.9288 71.2312 17.8633V17.8415C71.2968 17.6668 71.406 17.514 71.5152 17.3394V17.3176C71.6245 17.1429 71.7774 16.9901 71.9303 16.8592C72.2362 16.5972 72.6513 16.5099 73.0445 16.5972C73.1756 16.6191 73.3067 16.75 73.3941 16.9465C73.4815 17.1429 73.5252 17.3394 73.547 17.5359C73.5907 17.8196 73.6126 18.1252 73.5907 18.4308L73.547 18.9111C73.4596 19.7187 73.2193 20.5264 72.8479 21.2467C72.6513 21.6178 72.3673 21.9453 72.0396 22.2072C71.7337 22.4255 71.3842 22.5565 71.0128 22.5565C70.9691 22.5565 70.9472 22.5565 70.9035 22.5565H70.7506V22.4037C70.7506 22.2072 70.7287 22.0107 70.7287 21.8143C70.685 22.0544 70.6195 22.2727 70.5977 22.4691C70.5758 22.6001 70.554 22.7311 70.5321 22.8621C70.5103 22.9712 70.4884 23.0803 70.4666 23.2113L70.401 23.5824C70.401 23.6261 70.3792 23.6915 70.3792 23.7352V23.757H70.3355L70.3792 23.7789V23.8007L70.3573 23.8225C70.3573 23.8443 70.3355 23.8443 70.3355 23.8662C70.1826 24.0408 70.0296 24.1936 69.833 24.3246C69.6364 24.4774 69.4398 24.6083 69.2213 24.7175C68.7843 24.9576 68.3474 25.1759 67.8886 25.3505C66.0316 26.0709 64.0872 26.5074 62.1209 26.6384C61.5529 26.6602 61.0504 26.6821 60.5698 26.6821Z" fill="#FFEFD1"/>
<path d="M65.7042 32.8151C65.6823 32.8151 65.7042 32.8151 65.7042 32.8151C65.9664 33.0989 66.7747 33.8848 66.7747 33.8848L63.2355 34.2122C62.9078 33.6446 62.1868 33.4264 61.6188 33.7538C61.4221 33.8629 61.2692 34.0157 61.16 34.2122L58.4072 34.0812C58.4072 34.0812 60.9852 31.4399 61.5095 30.7196C62.0339 29.9993 63.9346 26.7031 63.9346 26.7031C63.9346 26.7031 66.9058 28.1875 68.2603 28.7987C69.7459 29.4535 72.4987 30.4577 72.4987 30.4577L70.6854 33.601C70.6854 33.601 69.4838 32.837 69.1561 33.4918C68.8284 34.1467 70.4013 34.7361 70.4013 34.7361L69.1342 35.5874C69.1561 35.5874 66.0974 33.0989 65.7042 32.8151Z" fill="white"/>
<path d="M58.4721 26.9433L57.6201 26.7905L52.0054 34.2341C52.0054 34.2341 54.0809 35.7621 54.5396 35.9804C55.3261 36.3733 57.3361 36.9627 57.3361 36.9627C57.3361 36.9627 57.4453 31.9421 57.5327 31.2217C57.6201 31.9421 57.7075 33.994 57.7075 33.994L58.5158 34.0595C58.5158 34.0595 59.8267 32.7716 60.2418 32.204C60.4821 31.9203 61.5526 30.0648 61.5526 30.0648L58.4721 26.9433Z" fill="white"/>
<path d="M59.848 34.5614C59.1925 34.5396 58.5371 34.5178 57.8599 34.4741C57.8599 34.6706 57.8599 34.867 57.8817 35.0635C58.6027 35.1072 59.3455 35.1072 60.0883 35.1072C60.3504 35.1072 60.6126 35.1072 60.8748 35.0853C60.8529 34.9762 60.8311 34.867 60.8311 34.7579C60.8311 34.6924 60.8311 34.6269 60.8529 34.5396C60.5252 34.5833 60.1975 34.5833 59.848 34.5614Z" fill="#FCBD19"/>
<path d="M58.8667 27.0087L63.5202 26.9214C62.9958 28.1001 62.3186 29.1916 61.4884 30.1739C60.4615 29.2571 59.5658 28.1875 58.8667 27.0087Z" fill="#F9BC8D"/>
<path d="M73.4595 31.397L74.8577 29.2578L75.666 29.7817L74.3115 31.8773L73.4595 31.397Z" fill="#FCBD19"/>
<path d="M67.1679 34.4968C67.015 34.3658 66.862 34.213 66.7091 34.082C65.6386 34.2785 64.5681 34.4095 63.4976 34.4749C63.5194 34.5841 63.5413 34.6714 63.5413 34.7805C63.5413 34.846 63.5413 34.9333 63.5194 34.9988C64.7647 34.9115 65.9663 34.7587 67.1679 34.4968Z" fill="#FCBD19"/>
<path d="M66.1631 35.8276C66.1631 35.8276 68.3915 39.6913 71.6904 41.2848C71.7123 41.2848 66.5782 36.0023 66.1631 35.8276Z" fill="#010101"/>
<path d="M67.8884 40.9136C66.5339 40.2587 65.3541 39.2328 64.4365 38.2287L65.0482 38.0322C66.4683 39.4511 67.8884 40.9136 67.8884 40.9136Z" fill="#010101"/>
<path d="M62.2072 35.719C62.7534 35.719 63.1904 35.2824 63.1904 34.7367C63.1904 34.191 62.7534 33.7544 62.2072 33.7544C61.6611 33.7544 61.2241 34.191 61.2241 34.7367C61.2241 35.2824 61.6611 35.719 62.2072 35.719Z" fill="#FECB3D"/>
<path d="M61.0495 34.4086L57.6851 34.3213L57.7069 35.2599L61.0932 35.3036L61.0495 34.4086Z" fill="#FECB3D"/>
<path d="M66.7745 33.9062L63.3008 34.321L63.3226 35.1941C64.7427 35.216 66.1846 35.0195 67.5391 34.6048L66.7745 33.9062Z" fill="#FECB3D"/>
<path d="M62.8632 35.7622L61.749 35.9368L62.033 39.0802L64.4144 38.0979L62.8632 35.7622Z" fill="#FECB3D"/>
<path d="M54.2993 37.3778C53.4909 36.7448 53.5128 35.4351 53.5128 35.4351L55.9596 36.7011C55.9596 36.7011 55.1076 38.0108 54.2993 37.3778Z" fill="#FFEFD1"/>
<path d="M57.1185 41.4591C56.4849 41.4154 54.6497 41.1317 54.6497 41.1317C54.5405 41.1753 61.2913 39.7128 62.9298 38.8397C64.8742 38.163 69.9209 35.4126 70.7074 34.8887L71.4721 35.3034C70.8385 36.1766 68.0858 38.2503 66.906 38.927C65.5952 39.7346 61.4224 41.8302 61.4224 41.8302C61.4224 41.8302 57.3588 41.4809 57.1185 41.4591Z" fill="white"/>
<path d="M73.3283 36.2856C72.935 36.1983 69.4395 34.1901 69.4395 34.1901C69.221 34.0591 69.1336 33.7753 69.221 33.5352C69.3739 33.2296 69.8327 33.2514 69.9419 33.3169C69.9419 33.3169 73.6997 35.3033 73.8744 35.5434C74.0492 35.7836 74.1148 35.9582 74.0055 36.1546C73.8963 36.3511 73.7215 36.3948 73.3283 36.2856Z" fill="#FCBD19"/>
<path d="M53.1636 32.6846L52.3989 33.7323C52.3989 33.7323 55.0206 35.5878 57.2927 36.2426V34.8019C57.3145 34.7801 54.6492 33.8197 53.1636 32.6846Z" fill="#E22741"/>
<path d="M57.8385 26.8996L57.5108 26.856L57.0083 27.5326C57.904 29.3008 60.5694 31.6146 60.5694 31.6146L61.3777 30.545C59.5207 29.4972 57.8385 26.8996 57.8385 26.8996Z" fill="#E22741"/>
<path d="M64.5885 26.9868C64.5885 26.9868 61.9887 32.5313 58.9956 34.2558L60.8308 34.2994C60.8308 34.2994 63.8457 32.2475 66.0086 27.9691L64.5885 26.9868Z" fill="#E22741"/>
<path d="M70.1376 33.3824C70.1376 33.3824 71.645 30.9812 71.8635 30.1954C71.8853 30.1299 70.072 29.5405 70.072 29.5405C69.504 31.6797 67.647 34.3865 67.647 34.3865L68.936 35.3688C69.22 35.0414 69.4821 34.6703 69.7225 34.321C69.7225 34.321 69.0452 33.9499 69.3292 33.4915C69.6132 33.0331 70.1376 33.3824 70.1376 33.3824Z" fill="#E22741"/>
<path d="M51.5241 19.4346C49.9511 19.2163 50.8031 21.1591 50.8031 21.1591L51.4804 22.4688C51.4804 22.4688 50.9779 21.4428 51.8081 21.29C52.6383 21.1372 52.9442 22.054 52.9442 22.054C52.9442 22.054 53.0753 19.6747 51.5241 19.4346Z" fill="#F9BC8D"/>
<path d="M73.5247 19.1064C73.5466 18.4516 72.8038 18.5607 72.0173 18.8445C71.2308 19.1283 70.772 21.5949 70.772 21.5949L70.9249 22.2498C70.9249 22.2498 71.5366 19.9796 72.345 19.9577C73.1533 19.9359 73.0222 21.071 73.0222 21.071C73.0222 21.071 73.5029 19.7613 73.5247 19.1064Z" fill="#F9BC8D"/>
<path d="M55.6756 24.1928C56.2218 23.669 56.5495 22.9704 56.615 22.2283C56.6806 21.0059 56.1126 19.4779 56.3529 19.1504C56.3529 19.1504 60.2854 19.3469 60.9189 19.1504C61.5525 18.954 62.0987 17.5569 60.9189 16.5746C61.05 16.9894 61.1156 17.4041 61.1593 17.8407C61.203 18.1463 61.1374 18.4301 61.0282 18.7139C61.0282 18.7139 60.7005 18.7357 59.1275 17.9717C58.4939 17.6879 57.8603 17.3605 57.2705 17.0112C57.2705 17.0112 58.7124 14.7629 58.2317 13.2349L57.1175 13.3003C57.1175 13.3003 56.5714 15.4614 56.1563 16.1162C55.7412 16.7711 54.4959 18.6702 54.8017 19.6307C55.1076 20.5911 55.7412 22.2501 55.763 22.6648C55.7849 23.0796 55.6756 24.1928 55.6756 24.1928Z" fill="#F9BC8D"/>
<path d="M66.4911 18.0149C66.4911 18.0149 66.8407 15.5483 68.8725 14.6314C67.649 14.5223 66.4693 15.068 65.7483 16.0503C64.5031 17.7529 63.8695 18.1677 63.8695 18.1677C63.8695 18.1677 62.9082 18.255 62.6679 17.0544L62.5586 17.5565C62.515 17.622 62.7553 18.9972 63.5199 19.3028C64.2846 19.6084 65.9013 19.1063 65.9013 19.1063H69.7027C68.938 18.1677 67.6927 17.7529 66.4911 18.0149Z" fill="#F9BC8D"/>
<path d="M61.1592 21.5947C61.1592 21.5947 61.5524 23.1446 62.3826 23.2755C63.2128 23.4065 63.759 21.5947 63.759 21.5947C63.759 21.5947 63.0599 22.2932 62.4045 22.2496C61.7491 22.2059 61.1592 21.5947 61.1592 21.5947Z" fill="#F9BC8D"/>
<path d="M60.4385 24.8912C60.4385 24.8912 62.6887 25.3059 64.1307 24.6074C64.1307 24.6074 63.4097 25.7425 62.1207 25.7207C60.8317 25.6989 60.4385 24.8912 60.4385 24.8912Z" fill="#F9BC8D"/>
<path d="M78.0689 42.769C77.916 42.6162 77.7193 42.4853 77.5009 42.3979C77.3042 42.3106 77.0858 42.267 76.8673 42.2451C76.627 42.2233 76.474 42.2233 76.2993 42.2015C76.1245 42.1797 75.9715 42.1142 75.8186 42.0487C76.3211 41.8304 76.8236 41.5685 77.2605 41.241C77.2824 41.241 77.2824 41.2192 77.3042 41.1974C77.3916 41.1101 77.3698 40.9573 77.2824 40.8918L71.6021 35.8275C71.6458 35.7839 71.6895 35.7402 71.7332 35.7184C71.8643 35.7839 71.9954 35.8712 72.1264 35.9367L72.76 36.3077L73.0877 36.5042C73.1533 36.5479 73.2188 36.5697 73.2843 36.6134C73.3717 36.657 73.4591 36.657 73.5465 36.6788H73.5684C73.9834 36.6788 74.333 36.3514 74.333 35.9367C74.333 35.7402 74.2675 35.5656 74.1364 35.4346C74.0927 35.3909 74.0708 35.3473 74.0271 35.3255L73.9834 35.2818L73.9398 35.2381L73.7868 35.1508C73.7431 35.129 73.7213 35.1072 73.6776 35.0853C73.765 35.0853 73.8305 35.1072 73.9179 35.1072C74.1801 35.129 74.4422 35.0853 74.6826 34.998C74.8355 34.9325 74.9447 34.8234 75.0321 34.6706C75.0977 34.5396 75.1414 34.365 75.0977 34.2122C75.054 33.9939 74.9229 33.7756 74.7263 33.6665C74.8136 33.5573 74.8792 33.4482 74.9447 33.3172C75.054 33.1426 75.1195 32.968 75.185 32.7933C75.2069 32.7279 75.2069 32.6405 75.2069 32.575C75.2069 32.5532 75.185 32.5096 75.185 32.4877L75.1632 32.4441C75.1414 32.4222 75.1195 32.3786 75.1195 32.3568C75.054 32.2694 74.9884 32.1821 74.901 32.1166C74.8355 32.0512 74.77 32.0075 74.7044 31.942L76.0152 29.912C76.0808 29.8028 76.0589 29.65 75.9497 29.5845L75.0321 28.9951C74.9229 28.9297 74.77 28.9515 74.7044 29.0606L73.328 31.1562C73.1096 31.0689 72.8911 31.0034 72.6726 30.9379L72.8474 30.5886C72.8474 30.5668 72.8692 30.5668 72.8692 30.545C72.9129 30.414 72.8255 30.283 72.7163 30.2612C71.2744 29.7592 69.8543 29.1698 68.4561 28.5149C67.3419 27.991 66.2277 27.4453 65.1135 26.8778C66.1403 26.6595 67.1234 26.3539 68.0847 25.9391C68.5653 25.7427 69.0241 25.5026 69.4611 25.2406C69.6796 25.1096 69.898 24.9568 70.1165 24.804C70.3568 24.6294 70.5534 24.433 70.7282 24.1928C70.7501 24.1492 70.7719 24.1055 70.7938 24.0619C70.7938 24.04 70.8156 24.0182 70.8156 23.9746L70.8374 23.9309V23.9091C70.8593 23.8218 70.8593 23.7781 70.8811 23.7126C70.903 23.5816 70.903 23.4507 70.9248 23.3197C70.9248 23.1887 70.9248 23.0578 70.9467 22.9486C71.4055 22.9704 71.8643 22.8395 72.2357 22.5775C72.6071 22.2938 72.9348 21.9445 73.1751 21.5298C73.612 20.7439 73.8961 19.8489 74.0053 18.954C74.0708 18.4956 74.0708 18.0372 74.0271 17.5788C74.0053 17.3386 73.9398 17.0985 73.8524 16.8584C73.7868 16.7274 73.7213 16.5965 73.612 16.4873C73.5465 16.4218 73.5028 16.3782 73.4154 16.3345C73.3717 16.3127 73.328 16.2909 73.2843 16.269C73.2406 16.2472 73.2188 16.2472 73.1751 16.2254C72.9129 16.1599 72.6508 16.1599 72.3886 16.2254C72.2357 16.269 72.1046 16.3127 71.9735 16.4C72.039 16.0289 72.0827 15.6578 72.1046 15.2868C72.1483 14.5882 72.1483 13.8679 72.1046 13.1694C72.0827 12.9947 72.0827 12.8201 72.0609 12.6237C72.0609 12.5363 72.039 12.4272 72.0172 12.3399C71.9954 12.2526 71.9735 12.1434 71.9517 12.0561C71.8424 11.7069 71.6676 11.3576 71.471 11.052C71.0559 10.4408 70.5753 9.91691 70.0073 9.45851C68.8931 8.56353 67.6478 7.86501 66.2932 7.40661C66.0529 7.3193 65.8344 7.25381 65.5941 7.18833C66.0966 6.77358 66.752 6.07506 66.8831 5.13643C67.0142 4.28511 66.752 2.86625 65.8344 1.75299C65.2227 1.01082 64.0867 0.094012 62.0986 0.00669743C60.4819 -0.0587885 59.171 0.355956 58.2316 1.25093C57.3359 2.12408 56.8334 3.32465 56.8334 4.56889C56.8115 5.87861 57.7073 6.79541 58.3408 7.27564C58.1879 7.3193 58.0568 7.36295 57.9039 7.42844C56.5494 7.9305 55.3259 8.75999 54.3647 9.82959C53.884 10.3753 53.5126 11.0302 53.2504 11.7069C53.032 12.3835 52.879 13.1039 52.8353 13.8242C52.748 15.2213 52.8353 16.5965 53.0757 17.9717C53.0757 17.9935 53.0757 17.9935 53.0757 18.0153C52.9446 17.8407 52.7917 17.6879 52.6169 17.5351C52.3984 17.3605 52.1581 17.2513 51.8959 17.1859C51.6338 17.1204 51.3497 17.1204 51.0876 17.1859C51.0439 17.1859 51.0002 17.2077 50.9783 17.2295C50.9346 17.2513 50.8909 17.2732 50.8473 17.295C50.7817 17.3386 50.7162 17.4041 50.6506 17.4696C50.5632 17.5788 50.4758 17.7097 50.4103 17.8407C50.3229 18.0808 50.2574 18.3209 50.2355 18.5611C50.1918 19.0195 50.1918 19.4779 50.2574 19.9363C50.3666 20.8312 50.6506 21.7262 51.1094 22.512C51.3497 22.9268 51.6556 23.276 52.0488 23.538C52.3984 23.7563 52.7917 23.8872 53.2068 23.8654C53.2723 24.1928 53.3378 24.5203 53.4252 24.8477L53.4471 24.935L53.4689 24.9787C53.4689 25.0005 53.4908 25.0223 53.4908 25.0442C53.5345 25.1315 53.5782 25.2188 53.6437 25.2843C53.7311 25.3934 53.8403 25.4807 53.9714 25.5681C54.1899 25.7209 54.4083 25.8737 54.6487 26.0046C55.1075 26.2447 55.5881 26.463 56.0687 26.6158C56.3964 26.725 56.7241 26.8123 57.0519 26.8996L51.8085 34.1904C51.743 34.2777 51.7648 34.4087 51.8522 34.4741C52.2673 34.8016 52.6824 35.1072 53.0975 35.3909C53.0975 35.4346 53.0975 35.4564 53.0975 35.5001C53.1412 35.893 53.2504 36.2859 53.4034 36.657C53.5563 37.0718 53.7966 37.421 54.1462 37.7048C54.2554 37.7703 54.3647 37.8358 54.4739 37.8794C54.5394 37.9012 54.605 37.9231 54.6705 37.9231H54.7142H54.7579H54.8453C55.0856 37.9231 55.3259 37.8576 55.5226 37.7484C55.8066 37.5738 56.025 37.3119 56.1343 37.0063C56.462 37.1372 56.8115 37.2246 57.1611 37.3119C57.1611 38.054 57.1611 38.7962 57.1611 39.5384C57.1611 39.8658 57.1611 40.1714 57.1829 40.4989C56.2654 40.7171 55.3259 40.9136 54.3865 41.0882C54.321 41.0882 54.2773 41.1537 54.2773 41.1974C54.2554 41.2629 54.321 41.3502 54.3865 41.3502C55.3259 41.503 56.2654 41.6339 57.2048 41.7431C57.2048 41.9832 57.2266 42.2233 57.2266 42.4634C57.0956 42.5071 56.9863 42.5507 56.8552 42.5944C56.6805 42.6817 56.5275 42.769 56.3746 42.8782C56.1998 43.0091 56.0687 43.1619 55.9813 43.3584C55.9595 43.4239 55.9377 43.5112 55.9377 43.5767C55.9595 43.6858 56.0032 43.7731 56.0687 43.8386C56.178 43.9259 56.3091 43.9696 56.4401 43.9478H56.9426H57.9476C58.603 43.9478 59.2803 43.9696 59.9575 43.9914C60.1323 43.9914 60.2852 43.9914 60.46 43.9914C60.6566 43.9914 60.8751 43.9478 61.0499 43.8605C61.2684 43.7731 61.4431 43.6203 61.5524 43.4239C61.6398 43.2711 61.7053 43.0965 61.7272 42.9218H62.3826C62.4263 42.9218 62.47 42.9218 62.5137 42.9C63.1909 42.5944 63.89 42.3761 64.611 42.2451C65.3538 42.1142 66.0966 42.0487 66.8394 42.0269C67.5822 42.0269 68.325 42.0923 69.0678 42.2451C69.7888 42.3761 70.5097 42.5944 71.1652 42.9C71.187 42.9218 71.2307 42.9218 71.2525 42.9218H71.2744C71.3836 42.9218 71.4929 42.9218 71.6021 42.9218C71.9517 42.9218 72.3012 42.9 72.6289 42.8782C72.6508 42.9873 72.6726 43.0746 72.6945 43.1838C72.7382 43.3147 72.8037 43.4239 72.8911 43.533C73.044 43.7295 73.2843 43.8823 73.5247 43.9478C73.7431 43.9914 73.9616 44.0133 74.1801 43.9914L74.7699 43.9696C75.5564 43.9478 76.3211 43.9478 77.1076 43.9478H77.6975H77.8504C77.9159 43.9478 77.9815 43.9478 78.0252 43.9478C78.1344 43.9259 78.2218 43.8823 78.2874 43.795C78.3529 43.7295 78.3747 43.6203 78.3747 43.533C78.3529 43.2056 78.2437 42.9437 78.0689 42.769ZM74.6826 32.6405V32.6187C74.6826 32.6187 74.6826 32.6187 74.6826 32.6405ZM74.1145 32.204C74.2456 32.2913 74.3986 32.3786 74.5078 32.4659C74.5733 32.5096 74.617 32.5532 74.6607 32.5969L74.6826 32.6187C74.617 32.9461 74.5078 33.2736 74.3986 33.5792L74.3767 33.6228C74.3549 33.6665 74.3985 33.732 74.4422 33.7538C74.5733 33.8629 74.6389 34.0157 74.6389 34.1904C74.6389 34.3213 74.5515 34.4305 74.4422 34.4523C74.2675 34.496 74.0927 34.496 73.9179 34.4741C73.7213 34.4523 73.5028 34.4087 73.3062 34.365C72.8911 34.2559 72.4978 34.1249 72.1046 33.9721C71.7987 33.8411 71.4929 33.732 71.187 33.5792L72.3012 31.4181C72.9348 31.6582 73.5465 31.8984 74.1145 32.204ZM68.1939 28.9733C69.5266 29.5845 70.8811 30.1084 72.2575 30.5668L70.6408 33.3827L70.5097 33.3172L70.182 33.1426C70.0291 33.0553 69.8762 32.9898 69.7014 32.9898C69.2863 32.9898 68.9586 33.3172 68.9804 33.732C68.9804 33.9066 69.046 34.1031 69.1771 34.234C69.2208 34.2777 69.2426 34.2995 69.2863 34.3213C69.3081 34.3432 69.33 34.3432 69.33 34.3432L69.3737 34.365L69.5485 34.4523L70.0946 34.7361C69.8106 34.9325 69.5048 35.1508 69.1989 35.3473C68.8494 35.0199 68.4998 34.7143 68.1284 34.4087C67.757 34.1031 67.3856 33.7975 66.9923 33.5137C66.5991 33.2299 66.2277 32.9243 65.8126 32.6624C65.4193 32.3786 65.0261 32.1166 64.611 31.8547C64.9169 32.2258 65.2664 32.575 65.5941 32.9243C65.8563 33.2081 66.1403 33.4918 66.4243 33.7538C65.3975 33.9066 64.3707 33.9939 63.3439 34.0157C62.9288 33.3827 62.0767 33.2299 61.465 33.6447C61.3121 33.7538 61.181 33.8848 61.0718 34.0376C60.6785 34.0376 60.2852 34.0157 59.892 33.9939C59.5424 33.9721 59.2147 33.9503 58.8652 33.9284C59.324 33.5355 59.7609 33.1208 60.1542 32.6842C60.4163 32.3786 60.6785 32.0948 60.9407 31.7674C61.181 31.4618 61.4213 31.1344 61.6616 30.8069C62.1204 30.1739 62.5792 29.519 62.9943 28.8423C63.3657 28.253 63.7153 27.6199 64.043 27.0087H64.0648C65.4193 27.6854 66.7957 28.3403 68.1939 28.9733ZM66.7739 36.7443C66.752 36.7443 65.2446 37.5083 64.5018 37.8576C64.2614 37.5083 64.043 37.1591 63.8463 36.7661C63.6497 36.3732 63.4749 35.9585 63.3002 35.5437C64.7421 35.4346 66.1621 35.1945 67.5604 34.8671C67.5822 34.8889 68.2595 35.4783 68.5653 35.7184C68.0192 36.0458 67.473 36.3514 66.905 36.657C66.6428 36.3732 66.3806 36.0895 66.1403 35.8057C66.3588 36.1331 66.5554 36.4605 66.7739 36.7443ZM60.8751 35.129C60.613 35.129 60.3508 35.129 60.0886 35.129C59.3458 35.129 58.6249 35.1072 57.8821 35.0853C57.8821 34.8889 57.8821 34.6924 57.8602 34.496C58.5156 34.5396 59.1929 34.5615 59.8483 34.5833C60.176 34.5833 60.5037 34.5833 60.8533 34.5833C60.8314 34.6488 60.8314 34.7143 60.8314 34.7797C60.8314 34.8889 60.8533 35.0199 60.8751 35.129ZM57.9039 36.3514C57.9039 36.1331 57.9039 35.9148 57.9039 35.7184C58.3845 35.7402 58.8652 35.7402 59.3458 35.7402V35.9803V36.4606C59.3677 36.7662 59.3677 37.0936 59.3895 37.3992C59.4114 37.7048 59.4332 38.0322 59.4769 38.3378C59.5206 38.6434 59.5643 38.9708 59.6298 39.2764C59.6954 38.9708 59.7391 38.6434 59.7828 38.3378C59.8265 38.0322 59.8483 37.7048 59.8702 37.3992C59.892 37.0936 59.9138 36.7662 59.9138 36.4606L59.9357 35.9803V35.7402C59.9794 35.7402 60.8096 35.7184 61.1591 35.6965C61.2028 35.7402 61.2465 35.7839 61.2902 35.8275C61.2902 35.8275 61.2902 35.8275 61.2902 35.8493C61.3339 36.4169 61.3776 36.9844 61.465 37.552C61.5305 38.054 61.6179 38.5343 61.749 39.0145C60.4819 39.4947 59.171 39.8876 57.8602 40.2369C57.8602 39.975 57.8821 39.7348 57.8821 39.4729C57.9039 38.4251 57.9039 37.3992 57.9039 36.3514ZM61.5524 35.1072C61.465 34.9325 61.4432 34.7361 61.5087 34.5615C61.6179 34.1904 62.033 33.9721 62.4044 34.1031C62.6011 34.1685 62.7758 34.3213 62.8414 34.5178C62.8851 34.6051 62.8851 34.6924 62.8851 34.7797C62.8851 34.8671 62.8632 34.9544 62.8414 35.0417C62.8195 35.1072 62.7758 35.1727 62.7321 35.2163C62.7103 35.26 62.6884 35.2818 62.6447 35.3036C62.5137 35.4128 62.3389 35.4783 62.1641 35.4783C61.9238 35.5001 61.6835 35.3473 61.5524 35.1072ZM62.186 36.1331L62.9943 38.5124C62.9069 38.5561 62.8414 38.5779 62.754 38.6216C62.5792 38.6871 62.3826 38.7526 62.2078 38.8399C62.1204 38.4033 62.0549 37.9449 62.033 37.4865C61.9893 37.0281 61.9893 36.5697 61.9675 36.1331C62.033 36.1331 62.0986 36.1331 62.186 36.1331ZM62.7758 36.0021C62.7977 36.0021 62.8195 35.9803 62.8414 35.9803C63.038 36.3296 63.2346 36.6788 63.4531 37.0281C63.6716 37.3774 63.9119 37.7048 64.1741 38.0322C63.89 38.1632 63.606 38.2723 63.3002 38.4033L62.7758 36.0021ZM63.5186 34.4741C64.5891 34.4087 65.6597 34.2777 66.7302 34.0812C66.8831 34.234 67.036 34.365 67.189 34.496C65.9874 34.7361 64.7639 34.9107 63.5405 34.998C63.5623 34.8234 63.5623 34.6488 63.5186 34.4741ZM61.465 29.8901C61.2684 29.6937 61.0936 29.4972 60.9188 29.3008C60.6567 29.017 60.4163 28.7114 60.176 28.4058C59.8483 28.0129 59.5424 27.6199 59.2584 27.2052C60.2197 27.2925 61.1591 27.3143 62.1204 27.2489C62.4918 27.227 62.8414 27.1834 63.2128 27.1397C62.6447 28.0783 62.0549 28.9951 61.465 29.8901ZM61.2684 6.29335C61.5742 6.09689 61.9238 5.98775 62.2952 5.96592H62.4263H62.5792C62.6666 5.96592 62.754 5.98775 62.8414 5.98775C63.0161 6.00958 63.1691 6.07506 63.322 6.16238C63.4531 6.24969 63.5623 6.38066 63.6279 6.51164C63.6497 6.55529 63.6716 6.59895 63.6716 6.66444C63.1254 6.57712 62.5792 6.53347 62.033 6.55529C61.6398 6.55529 61.2684 6.57712 60.8751 6.62078C60.9844 6.51164 61.1154 6.38066 61.2684 6.29335ZM56.2435 25.8955C55.7847 25.7645 55.3259 25.5681 54.9108 25.3498C54.6924 25.2406 54.4957 25.1315 54.2991 25.0005C54.2117 24.935 54.1243 24.8695 54.0588 24.804C54.0369 24.7822 53.9932 24.7386 53.9932 24.7386L53.9714 24.7167L53.9496 24.6731L53.9277 24.5858C53.6437 23.6253 53.316 22.6867 52.9009 21.7699C52.9227 22.3374 52.9883 22.8831 53.0757 23.4288C52.7698 23.407 52.4858 23.276 52.2455 23.1014C51.9396 22.8395 51.6774 22.5339 51.5027 22.1628C51.1313 21.4424 50.9128 20.6784 50.8473 19.8708C50.9346 19.8053 51.022 19.7835 51.1313 19.7616C51.2187 19.7616 51.2842 19.7616 51.3716 19.7616C51.3934 19.7616 51.4153 19.7616 51.4153 19.7616C51.4371 19.7616 51.459 19.7616 51.4808 19.7835C51.5245 19.7835 51.5464 19.8053 51.5901 19.8053C51.7648 19.8708 51.9178 19.9363 52.0707 20.0236C52.2455 20.1327 52.4421 20.2419 52.6606 20.351C52.6387 19.8053 52.2892 19.3469 51.7648 19.1723C51.6993 19.1504 51.6119 19.1286 51.5464 19.1286C51.5245 19.1286 51.4808 19.1286 51.459 19.1286C51.4153 19.1286 51.3716 19.1286 51.3497 19.1286C51.1968 19.1504 51.0657 19.1941 50.9346 19.2814C50.8909 19.3032 50.8691 19.3251 50.8254 19.3687C50.8036 18.9976 50.8254 18.6484 50.8909 18.2773C50.9128 18.0153 51.1094 17.7971 51.3716 17.7316C51.6556 17.7097 51.9396 17.7971 52.1799 17.9717C52.4639 18.19 52.879 18.9103 52.879 18.9103C52.9009 18.954 52.9446 18.9758 52.9883 19.0195C53.0101 19.2814 53.0538 19.5433 53.1194 19.7835C53.2941 20.3947 53.5345 21.0059 53.8622 21.5516C54.0151 21.8354 54.168 22.0973 54.3428 22.3592C54.5176 22.5994 54.6487 22.8613 54.7797 23.1232C54.9764 23.669 54.889 24.2802 54.5613 24.7604C54.5394 24.7822 54.5394 24.804 54.5394 24.8259C54.5394 24.8259 54.5394 24.8259 54.5394 24.8477C54.5394 24.8914 54.5831 24.935 54.6487 24.9132H54.6705C54.9545 24.8695 55.2385 24.7386 55.457 24.5639C55.6973 24.3675 55.894 24.1055 55.9813 23.8218C56.1124 23.2542 56.1124 22.643 55.9377 22.0973C55.8066 21.5516 55.6318 21.0277 55.5007 20.5256C55.4352 20.2855 55.3696 20.0236 55.3259 19.7835C55.2822 19.5433 55.2822 19.3032 55.3041 19.0631C55.3696 18.5611 55.5226 18.0808 55.741 17.6443C55.7847 17.5351 55.8503 17.4478 55.894 17.3386L55.9595 17.3605L56.2872 17.426C56.5057 17.4696 56.7241 17.5351 56.9426 17.5788C57.3796 17.6879 57.8165 17.7752 58.2316 17.9062C58.6467 18.0372 59.0837 18.1463 59.5206 18.2991C59.9357 18.4519 60.3508 18.5611 60.7877 18.7139C60.4382 18.4301 60.0668 18.19 59.6954 17.9717C59.3021 17.7316 58.887 17.5133 58.4938 17.3168C58.1005 17.1204 57.6636 16.9239 57.2266 16.7493C57.0082 16.662 56.7897 16.5965 56.5712 16.5092L56.462 16.4655C56.5057 16.4218 56.5275 16.3564 56.5712 16.3127C56.7242 16.0944 56.8771 15.898 57.03 15.5924C57.1611 15.3304 57.2703 15.0685 57.3577 14.7847C57.5107 14.3263 57.6199 13.8461 57.7073 13.3658C58.2753 13.2349 58.8652 13.1475 59.4332 13.0821C60.0886 13.0166 60.744 12.9947 61.3995 12.9729C62.7103 12.9729 64.0211 13.1039 65.3101 13.344C65.3756 13.3658 65.4193 13.344 65.4849 13.3222C66.1621 13.0821 66.8613 12.8638 67.5822 12.6891C68.2158 12.5145 68.8712 12.4272 69.5485 12.3617C69.6577 12.5145 69.7451 12.6673 69.8325 12.8201C69.9417 13.0384 70.051 13.2567 70.1383 13.475C70.3131 13.9334 70.4661 14.3918 70.5534 14.872C70.7501 15.8325 70.8375 16.8148 70.7938 17.7971C70.7719 17.9717 70.903 18.1245 71.0778 18.1245C71.1433 18.1245 71.2307 18.1027 71.2744 18.059C71.2962 18.0372 71.3181 18.0372 71.3399 18.0153C71.3618 17.9935 71.3836 17.9717 71.3836 17.9499C71.3836 17.9499 71.3836 17.9499 71.3836 17.928V17.9062C71.4492 17.7316 71.5366 17.5788 71.6458 17.4478C71.755 17.295 71.8861 17.1422 72.039 17.0112C72.2794 16.8148 72.5852 16.7274 72.8911 16.7493C73.1751 16.7929 73.3062 17.0767 73.3499 17.3386C73.3717 17.4696 73.3936 17.6224 73.4154 17.7534C73.4373 17.8625 73.4373 17.9717 73.4373 18.0808C73.4373 18.1463 73.4373 18.19 73.4373 18.2555C73.4373 18.2773 73.4154 18.4083 73.4373 18.4083C73.3936 18.3646 73.3717 18.3428 73.328 18.2991C73.1969 18.2118 73.0659 18.1681 72.9129 18.1463C72.8692 18.1463 72.8255 18.1463 72.8037 18.1463C72.7819 18.1463 72.7382 18.1463 72.7163 18.1463C72.6289 18.1463 72.5634 18.1681 72.4978 18.19C71.9954 18.3646 71.6239 18.823 71.6021 19.3687C71.8424 19.2596 72.0172 19.1286 72.192 19.0413C72.3449 18.954 72.4978 18.8667 72.6726 18.823C72.7163 18.823 72.76 18.8012 72.7819 18.8012C72.8037 18.8012 72.8255 18.8012 72.8474 18.7793H72.8911C72.9785 18.7793 73.044 18.7793 73.1314 18.7793C73.2406 18.8012 73.3499 18.823 73.4373 18.8885C73.3499 19.6743 73.1314 20.4601 72.76 21.1587C72.5852 21.5079 72.3231 21.8135 71.9954 22.0755C71.7113 22.2938 71.3399 22.4029 70.9904 22.3811C70.9904 21.9008 70.9467 21.4206 70.8374 20.9404C70.6845 21.4206 70.5534 21.9227 70.4661 22.4247C70.4224 22.6648 70.3787 22.9268 70.335 23.1669L70.2694 23.5162C70.2694 23.5816 70.2476 23.6253 70.2257 23.6908V23.7126C70.2257 23.7126 70.2039 23.7344 70.2039 23.7563C70.0728 23.9091 69.9199 24.0619 69.7451 24.1928C69.5485 24.3238 69.3518 24.4548 69.1552 24.5858C68.7401 24.8259 68.3032 25.0223 67.8444 25.2188C66.0092 25.9173 64.0867 26.3539 62.1204 26.4849C60.0886 26.6377 58.1224 26.4412 56.2435 25.8955ZM55.2167 37.1809C54.9764 37.29 54.6924 37.2682 54.4739 37.1154C54.2554 36.8971 54.0806 36.6352 53.9714 36.3296C53.9059 36.1549 53.8403 35.9803 53.7966 35.8057C54.0151 35.9367 54.2117 36.0458 54.4302 36.1768C54.8453 36.3951 55.2604 36.5915 55.6973 36.788C55.5881 36.9626 55.4133 37.0936 55.2167 37.1809ZM57.1174 36.3514C57.1174 36.4169 57.1174 36.4824 57.1174 36.5479C56.2872 36.3296 55.4789 36.0458 54.7142 35.6529C54.2554 35.4346 53.7966 35.1727 53.3597 34.9107C52.9883 34.6924 52.595 34.4523 52.2455 34.1904L57.6854 26.9651C57.9039 27.0087 58.1442 27.0524 58.3627 27.0961C58.8215 27.6636 59.3021 28.1875 59.7828 28.7332C60.2416 29.2353 60.744 29.7155 61.2902 30.1302C61.2247 30.2394 61.1591 30.3267 61.0936 30.4358C60.8751 30.7633 60.6567 31.0689 60.4163 31.3963C60.1979 31.7019 59.9575 32.0293 59.7172 32.3349C59.3021 32.8806 58.8652 33.4045 58.4064 33.9066C58.2098 33.8848 58.035 33.8848 57.8384 33.8629C57.8384 33.6665 57.8384 33.47 57.8165 33.2736C57.7947 32.2258 57.6854 31.1998 57.4888 30.1739C57.2922 31.1998 57.1829 32.2258 57.1611 33.2736C57.1392 34.2995 57.1174 35.3255 57.1174 36.3514ZM57.1393 41.3065C56.5494 41.2629 55.9595 41.2192 55.3696 41.1537C55.9595 41.0664 56.5275 40.9573 57.1174 40.8263C57.3796 40.7826 57.6199 40.7171 57.8821 40.6735C58.1661 40.608 58.4501 40.5425 58.7122 40.477C60.1542 40.1059 61.5524 39.6912 62.9506 39.1673C64.3488 38.6652 65.7034 38.0759 67.0142 37.3992C67.0579 37.3774 67.1234 37.3337 67.1671 37.3119C67.2327 37.2682 67.3201 37.2246 67.3856 37.2027C68.5435 36.5915 69.6577 35.9148 70.7064 35.129L70.8374 35.1945C70.9467 35.26 71.0559 35.3255 71.1652 35.3691C70.5534 35.9585 69.898 36.526 69.1989 37.0281C68.8275 37.3119 68.4343 37.5738 68.041 37.8358C67.9536 37.9012 67.8662 37.9449 67.8007 38.0104C67.4293 38.2505 67.0579 38.4906 66.6865 38.7089C64.9606 39.7348 63.1909 40.6735 61.3339 41.503C60.176 41.4811 59.04 41.4375 57.8821 41.372C57.6199 41.3283 57.3796 41.3065 57.1393 41.3065ZM61.0062 43.0528C60.9625 43.1401 60.8751 43.2274 60.7659 43.2711C60.6566 43.3366 60.5256 43.3584 60.3945 43.3584C60.2416 43.3584 56.3527 43.4021 56.3309 43.4021C56.3964 43.2929 56.4838 43.2056 56.5712 43.1401C56.6805 43.0528 56.8334 42.9873 56.9645 42.9437C57.1174 42.8782 57.2922 42.8563 57.467 42.8345H61.0499C61.0717 42.9437 61.0499 43.0091 61.0062 43.0528ZM72.8037 42.2015C72.3231 42.2451 71.8424 42.2451 71.3618 42.2233C70.6408 41.9832 69.9199 41.7867 69.1552 41.6776C68.3906 41.5466 67.6041 41.503 66.8394 41.503C66.0748 41.503 65.2883 41.5685 64.5236 41.6994C64.1304 41.7649 63.759 41.8304 63.3876 41.9177C63.038 42.005 62.6666 42.0923 62.317 42.2233H57.8165C57.8165 42.0705 57.8384 41.8959 57.8384 41.7431C58.9963 41.8522 60.176 41.9395 61.3558 42.005C61.3995 42.005 61.4213 42.005 61.465 41.9832C62.4044 41.5685 63.322 41.1101 64.2396 40.6517C64.9169 40.3024 65.5941 39.9313 66.2495 39.5602L66.3806 39.4729C66.5554 39.3638 66.7302 39.2764 66.9268 39.1673C67.3419 38.9272 67.7351 38.6652 68.1502 38.4251C68.3032 38.5779 68.4561 38.7307 68.609 38.8835C69.5485 39.8003 70.5753 40.608 71.6895 41.2847C70.7282 40.4115 69.7669 39.5384 68.8275 38.6434C68.6964 38.5124 68.5435 38.3815 68.4124 38.2287C68.7838 37.9886 69.1552 37.7484 69.5048 37.4865C70.0509 37.0936 70.5971 36.6788 71.0996 36.2423L76.7362 41.0227C75.9497 41.4157 75.0977 41.7431 74.2456 41.9832C73.7868 42.0923 73.3062 42.1578 72.8037 42.2015ZM77.6756 43.4239H77.0858C76.2993 43.4239 75.5346 43.4239 74.7481 43.4021H74.1582C73.9835 43.4021 73.8305 43.3802 73.6557 43.3366C73.5247 43.2929 73.4154 43.2274 73.3499 43.1183C73.3062 43.0746 73.2843 43.0091 73.2625 42.9437C73.2406 42.8782 73.2406 42.8345 73.2406 42.769C73.612 42.7035 74.0053 42.6381 74.3767 42.5507C74.5952 42.4853 74.8136 42.4198 75.0321 42.3543C75.4035 42.5507 75.7968 42.6817 76.2119 42.7472C76.4303 42.769 76.6488 42.7472 76.8017 42.769C76.9765 42.769 77.1295 42.8127 77.3042 42.8782C77.4572 42.9437 77.5882 43.031 77.7193 43.1401C77.8067 43.2274 77.8723 43.3366 77.9159 43.4675L77.6756 43.4239Z" fill="#010101"/>
<path d="M61.618 22.2932C61.8583 22.4679 62.1642 22.5552 62.47 22.5552C62.7759 22.5552 63.0599 22.446 63.3002 22.2714C63.5405 22.1186 63.7153 21.8785 63.7808 21.5947C63.3657 21.7694 62.907 21.8785 62.4482 21.9003C61.9894 21.9003 61.5524 21.7912 61.1592 21.5947C61.2029 21.8785 61.3777 22.1404 61.618 22.2932Z" fill="#010101"/>
<path d="M60.7227 23.7996C60.963 23.8433 61.2033 23.9088 61.4218 23.9743C61.6621 24.0398 62.2083 24.1926 62.2302 24.1926C62.2302 24.1926 63.6939 23.6687 63.9342 23.5814C63.9779 23.5595 64.0216 23.5595 64.0872 23.5377C64.1309 23.5377 64.1746 23.5377 64.2182 23.5595C64.3493 23.6032 64.4804 23.6468 64.6115 23.6905L65.4198 24.0398C65.2232 23.7996 65.0266 23.5814 64.7863 23.3849C64.6552 23.2758 64.5241 23.1884 64.3712 23.123C64.2838 23.0793 64.1746 23.0575 64.0872 23.0356C63.9998 23.0356 63.8905 23.0356 63.8032 23.0575C63.4973 23.123 63.2133 23.2321 62.9293 23.3631C62.6889 23.494 62.4486 23.625 62.252 23.7996C62.0554 23.6687 61.8369 23.5595 61.6184 23.4722C61.3563 23.3631 61.0722 23.2976 60.7882 23.2758C60.6353 23.2758 60.4605 23.2976 60.3076 23.3412C60.1765 23.4067 60.0454 23.4722 59.9143 23.5595C59.6959 23.7342 59.4992 23.9306 59.3682 24.1707C59.6303 24.0616 59.8707 23.9524 60.0891 23.8651C60.2858 23.7996 60.5042 23.7778 60.7227 23.7996Z" fill="#010101"/>
<path d="M58.5807 18.8448C58.2311 18.8011 57.8816 18.7793 57.5102 18.7793C57.1606 18.7793 56.7892 18.8011 56.4397 18.8448C56.0683 18.8884 55.7187 18.9758 55.3691 19.1067C55.7187 19.2377 56.0683 19.325 56.4397 19.3687C56.7892 19.4123 57.1388 19.4342 57.5102 19.4342C57.8597 19.4342 58.2311 19.4123 58.5807 19.3687C58.9521 19.325 59.3016 19.2377 59.6512 19.1067C59.3016 18.9758 58.9302 18.8884 58.5807 18.8448Z" fill="#010101"/>
<path d="M67.3207 18.7793C66.9274 18.7793 66.5123 18.8011 66.1191 18.8448C65.704 18.8884 65.3107 18.9758 64.9175 19.1067C65.3107 19.2377 65.704 19.325 66.1191 19.3687C66.5123 19.4123 66.9056 19.4342 67.3207 19.4342C67.7139 19.4342 68.129 19.4123 68.5223 19.3687C68.9374 19.325 69.3306 19.2377 69.7239 19.1067C69.3306 18.9758 68.9374 18.8884 68.5223 18.8448C68.129 18.8011 67.7358 18.7793 67.3207 18.7793Z" fill="#010101"/>
<path d="M66.0317 16.1599C66.8401 15.505 67.7577 15.003 68.7626 14.6756C68.8063 14.6537 68.85 14.6537 68.8937 14.6319C68.8937 14.6319 68.7189 13.9989 67.7577 14.1953C68.0417 13.9552 68.1946 13.606 68.1946 13.2349H68.1728C67.6266 13.4968 67.1023 13.8461 66.6216 14.239C66.1628 14.6319 65.7477 15.0466 65.3763 15.505C65.0049 15.9634 64.6772 16.4218 64.3713 16.9239C64.0655 17.4041 63.8252 17.928 63.6504 18.4737C64.3932 17.6443 65.1797 16.8584 66.0317 16.1599Z" fill="#010101"/>
<path d="M60.9853 18.7144C61.1164 18.5834 61.2257 18.4088 61.2912 18.2123C61.3567 18.0159 61.3786 17.8194 61.3567 17.623C61.3349 17.4265 61.2912 17.2301 61.2257 17.0554C61.1601 16.8808 61.029 16.7062 60.8979 16.5752C60.9635 16.9681 61.029 17.2955 61.0509 17.6448C61.0509 18.0159 61.029 18.3651 60.9853 18.7144Z" fill="#010101"/>
<path d="M62.8197 18.2118C62.9507 18.3428 63.1037 18.4519 63.3003 18.4956C63.1037 18.2336 62.9507 17.928 62.8415 17.6224C62.7541 17.295 62.6667 16.9676 62.6449 16.6401C62.5575 16.7929 62.492 16.9894 62.4701 17.164C62.4483 17.3605 62.4701 17.5351 62.5356 17.7316C62.6012 17.9062 62.6886 18.0808 62.8197 18.2118Z" fill="#010101"/>
<path d="M73.6554 35.7401C73.6554 35.7401 73.6772 35.74 73.6772 35.7619L73.6991 35.7837C73.7428 35.8274 73.7646 35.871 73.7646 35.9147C73.7646 36.0238 73.6772 36.133 73.5461 36.133H73.568C73.5243 36.133 73.5025 36.133 73.4588 36.1111C73.4369 36.1111 73.3714 36.0675 73.3277 36.0457L73 35.871L72.3445 35.5218C72.2353 35.4563 72.1261 35.4126 72.0168 35.3471C71.8421 35.2598 71.6454 35.1507 71.4707 35.0415C71.3177 34.9542 71.1866 34.8887 71.0337 34.8014L70.9463 34.7578L70.4657 34.474L69.7447 34.0592C69.6355 33.9938 69.5044 33.9283 69.5044 33.8846C69.4607 33.841 69.4389 33.7755 69.4607 33.71C69.4607 33.579 69.57 33.4917 69.701 33.4917C69.7666 33.4917 69.7884 33.5135 69.9195 33.579L70.2472 33.7755L70.3783 33.841L70.5749 33.9501L70.9026 34.1247C70.9026 34.1247 70.9245 34.1247 70.9245 34.1466C71.3396 34.3867 71.7765 34.6268 72.1916 34.8669C72.6286 35.107 73.0655 35.3471 73.5025 35.5654L73.6772 35.6527L73.6554 35.7401C73.6554 35.7401 73.6335 35.7182 73.6554 35.7401Z" fill="#FECB3D"/>
<path d="M74.9233 29.4966L75.4258 29.824L74.2679 31.6358C74.0931 31.5266 73.9183 31.4175 73.7217 31.3302L74.9233 29.4966Z" fill="#FECB3D"/>
</svg>
