<svg width="23" height="22" viewBox="0 0 23 22" fill="none" xmlns="http://www.w3.org/2000/svg">
<path d="M21.3866 7.75992L14.7914 6.82746L11.8432 1.01281C11.7627 0.853604 11.6302 0.724726 11.4666 0.646389C11.0561 0.449282 10.5574 0.613538 10.3522 1.01281L7.404 6.82746L0.808824 7.75992C0.626996 7.78519 0.460753 7.86858 0.333473 7.99493C0.179599 8.1488 0.094807 8.35579 0.0977294 8.57044C0.100652 8.78509 0.191049 8.98983 0.349058 9.13967L5.12075 13.6655L3.99342 20.0564C3.96698 20.205 3.98389 20.3579 4.04223 20.4977C4.10057 20.6375 4.198 20.7586 4.32348 20.8472C4.44896 20.9359 4.59747 20.9886 4.75216 20.9993C4.90685 21.01 5.06154 20.9784 5.19868 20.908L11.0977 17.8907L16.9967 20.908C17.1578 20.9913 17.3448 21.0191 17.524 20.9888C17.976 20.913 18.2799 20.4961 18.202 20.0564L17.0747 13.6655L21.8464 9.13967C21.9762 9.01585 22.062 8.85412 22.0879 8.67723C22.1581 8.235 21.8412 7.82562 21.3866 7.75992ZM15.0668 13.0287L16.0045 18.343L11.0977 15.8362L6.19094 18.3456L7.12866 13.0313L3.1596 9.26602L8.64562 8.49023L11.0977 3.65606L13.5498 8.49023L19.0358 9.26602L15.0668 13.0287Z" fill="white"/>
</svg>
